<svg class="icon" style="width: 1em;height: 1em;vertical-align: middle;fill: currentColor;overflow: hidden;" viewBox="0 0 1024 1024" version="1.1" xmlns="http://www.w3.org/2000/svg"><path d="M385.706667 234.368a128 128 0 1 1 252.501333 0.085333l103.808-38.741333a100.650667 100.650667 0 0 1 75.349333 186.538667L682.666667 440.917333v35.84a275.456 275.456 0 0 0-64 23.808V419.968a32 32 0 0 1 19.2-29.354667l153.941333-66.986666a36.608 36.608 0 0 0-27.434667-67.925334l-203.946666 76.074667c-14.933333 6.101333-31.317333 9.472-48.426667 9.472a127.573333 127.573333 0 0 1-49.92-10.112L253.269333 253.269333a36.266667 36.266667 0 0 0-27.306666 67.157334l160.213333 70.528a32 32 0 0 1 19.114667 29.269333v159.36a32 32 0 0 1-1.749334 10.453333L321.536 827.733333a34.986667 34.986667 0 0 0 65.92 23.424l70.4-193.152c7.424-20.394667 23.509333-32.597333 41.258667-36.565333a278.442667 278.442667 0 0 0-24.746667 178.090667l-26.794667 73.514666a98.986667 98.986667 0 0 1-186.538666-66.133333L341.333333 574.165333v-133.12L200.234667 379.050667A100.266667 100.266667 0 0 1 275.669333 193.28l110.08 41.045333z m62.293333-21.12a64 64 0 0 0 38.229333 58.581333 74.666667 74.666667 0 0 0 50.645334 0.426667A64 64 0 1 0 448 213.205333zM981.333333 746.666667a234.666667 234.666667 0 1 1-469.333333 0 234.666667 234.666667 0 0 1 469.333333 0z m-91.562666-100.437334a21.333333 21.333333 0 0 0-30.208 0L704 801.834667l-70.229333-70.272a21.333333 21.333333 0 0 0-30.208 30.208l85.333333 85.333333a21.333333 21.333333 0 0 0 30.208 0l170.666667-170.666667a21.333333 21.333333 0 0 0 0-30.208z" /></svg>