<svg class="icon" style="width: 1em;height: 1em;vertical-align: middle;fill: currentColor;overflow: hidden;" viewBox="0 0 1024 1024" version="1.1" xmlns="http://www.w3.org/2000/svg"><path d="M385.706667 234.368a128 128 0 1 1 252.544 0.085333l103.765333-38.741333a100.650667 100.650667 0 0 1 75.349333 186.538667L682.666667 440.96v132.693333l80.341333 233.258667a98.816 98.816 0 0 1-186.24 66.090667l-64.64-176.981334-64.512 177.066667a98.986667 98.986667 0 0 1-186.581333-66.133333L341.333333 574.165333v-133.12L200.277333 379.050667A100.266667 100.266667 0 0 1 275.626667 193.28l110.08 41.045333z m62.293333-21.12a64 64 0 0 0 38.229333 58.581333 74.666667 74.666667 0 0 0 50.645334 0.426667A64 64 0 1 0 448 213.205333z m14.08 117.888L253.312 253.269333a36.266667 36.266667 0 0 0-27.306667 67.157334l160.213334 70.528a32 32 0 0 1 19.114666 29.269333v159.36a32 32 0 0 1-1.706666 10.453333L321.493333 827.733333a34.986667 34.986667 0 0 0 65.92 23.424l70.4-193.152c18.474667-50.602667 90.026667-50.645333 108.544 0l70.485334 192.981334a34.816 34.816 0 0 0 65.621333-23.296l-82.090667-238.250667a32.085333 32.085333 0 0 1-1.706666-10.453333V419.968a32 32 0 0 1 19.2-29.354667l153.898666-66.986666a36.650667 36.650667 0 0 0-27.434666-67.925334l-203.946667 76.074667c-14.933333 6.101333-31.274667 9.472-48.426667 9.472a127.573333 127.573333 0 0 1-49.92-10.112z" /></svg>