<svg class="icon" style="width: 1em;height: 1em;vertical-align: middle;fill: currentColor;overflow: hidden;" viewBox="0 0 1024 1024" version="1.1" xmlns="http://www.w3.org/2000/svg"><path d="M554.666667 650.666667a32 32 0 0 1 32-32h149.333333a32 32 0 0 1 0 64h-149.333333a32 32 0 0 1-32-32z m-149.333334-362.666667a32 32 0 0 0-64 0V341.333333H288a32 32 0 0 0 0 64H341.333333v53.333334a32 32 0 0 0 64 0V405.333333h53.333334a32 32 0 0 0 0-64H405.333333V288zM512 938.666667C276.352 938.666667 85.333333 747.648 85.333333 512S276.352 85.333333 512 85.333333s426.666667 191.018667 426.666667 426.666667-191.018667 426.666667-426.666667 426.666667z m0-64a362.666667 362.666667 0 0 0 278.058667-595.498667L279.168 790.058667A361.216 361.216 0 0 0 512 874.666667z m-278.058667-129.834667L744.832 233.941333A362.666667 362.666667 0 0 0 233.941333 744.832z" /></svg>