<svg class="icon" style="width: 1em;height: 1em;vertical-align: middle;fill: currentColor;overflow: hidden;" viewBox="0 0 1024 1024" version="1.1" xmlns="http://www.w3.org/2000/svg"><path d="M354.816 358.741333l-32.938667-48.085333C281.173333 251.306667 323.712 170.666667 395.690667 170.666667c20.48 0 40.32 7.04 56.234666 19.925333l110.122667 89.173333a406.186667 406.186667 0 0 1 46.506667-42.538666c28.16-21.674667 64-42.069333 103.68-45.098667 95.445333-7.381333 166.784 53.034667 207.104 99.242667 20.864 23.893333 25.045333 54.101333 16.128 80.341333a91.392 91.392 0 0 1-57.258667 56.32l-229.162667 79.018667-134.912 179.925333a95.957333 95.957333 0 0 1-170.922666-75.989333l10.709333-54.784-107.946667 23.338666A97.408 97.408 0 0 1 128 484.266667V328.106667a72.149333 72.149333 0 0 1 135.509333-34.56l41.216 75.605333 50.090667-10.453333z m19.84-84.224l48.042667 70.101334 80.981333-16.896c3.84-0.810667 7.68-2.048 11.349333-3.712L411.733333 240.341333a25.472 25.472 0 0 0-37.034666 34.133334z m342.485333-18.602666c-21.632 1.706667-45.568 13.525333-69.504 32-23.424 18.048-43.818667 40.106667-58.026666 57.173333-17.92 21.632-42.922667 39.04-72.874667 45.312l-222.208 46.293333a32 32 0 0 1-34.602667-16L207.317333 324.266667a8.149333 8.149333 0 0 0-15.317333 3.925333v156.117333c0 21.290667 19.626667 37.12 40.490667 32.64l155.434666-33.536a32 32 0 0 1 38.144 37.418667l-20.053333 102.4a31.957333 31.957333 0 0 0 56.917333 25.344l140.8-187.733333a32 32 0 0 1 15.146667-11.093334l238.464-82.218666a27.477333 27.477333 0 0 0 17.493333-16.426667 17.066667 17.066667 0 0 0-3.712-17.621333c-36.394667-41.685333-89.557333-82.517333-154.026666-77.568zM160 832a32 32 0 0 0 0 64h704a32 32 0 0 0 0-64H160z" /></svg>