<svg class="icon" style="width: 1em;height: 1em;vertical-align: middle;fill: currentColor;overflow: hidden;" viewBox="0 0 1024 1024" version="1.1" xmlns="http://www.w3.org/2000/svg"><path d="M404.053333 411.434667L374.101333 160.853333l-0.085333-3.157333c0-37.930667 30.72-68.693333 68.693333-68.693333 34.218667 0 65.92 17.92 84.352 48.426666l3.712 6.869334 125.653334 259.84 168.832-4.992a110.933333 110.933333 0 0 1 114.005333 107.946666l0.042667 2.816a111.018667 111.018667 0 0 1-111.786667 110.805334l-169.088-4.949334-127.658667 264.021334a97.834667 97.834667 0 0 1-88.106666 55.253333c-37.930667 0-68.650667-30.72-68.650667-69.589333l0.298667-5.034667 30.165333-252.074667-90.965333-2.688-11.52 31.402667a83.029333 83.029333 0 0 1-77.952 54.528c-37.376 0-67.669333-30.293333-67.669334-67.712v-32.426667l-6.570666-1.365333a81.92 81.92 0 0 1 0-160.341333l6.613333-1.365334v-32.426666c0-34.261333 25.472-62.933333 61.184-67.370667l6.442667-0.341333c31.786667 0 60.714667 18.176 75.306666 48.085333l2.688 6.4 11.52 31.402667 90.453334-2.645334z m38.656-258.432c-2.56 0-4.650667 2.090667-4.693333 3.712l37.845333 316.672-206.506666 6.016-26.794667-73.173334-1.365333-3.370666c-3.2-6.485333-9.813333-10.666667-15.104-10.709334l-2.474667 0.085334a3.669333 3.669333 0 0 0-3.2 3.626666l0.042667 84.48-57.6 12.032a17.877333 17.877333 0 0 0 0 35.029334l57.6 11.989333v84.48c0 2.005333 1.621333 3.669333 3.626666 3.669333a19.029333 19.029333 0 0 0 17.877334-12.501333l27.306666-74.709333 207.104 6.016-38.272 318.762666v1.28c0 2.56 2.048 4.608 4.608 4.608a33.834667 33.834667 0 0 0 30.464-19.114666l145.706667-301.354667 209.664 6.144c25.856 0 46.805333-20.949333 46.805333-46.336v-1.834667a46.805333 46.805333 0 0 0-48.213333-45.397333l-210.261333 6.144-142.976-295.765333-2.261334-4.224a33.834667 33.834667 0 0 0-28.928-16.256z" /></svg>