<svg class="icon" style="width: 1em;height: 1em;vertical-align: middle;fill: currentColor;overflow: hidden;" viewBox="0 0 1024 1024" version="1.1" xmlns="http://www.w3.org/2000/svg"><path d="M85.333333 256a85.333333 85.333333 0 0 1 85.333334-85.333333h682.666666a85.333333 85.333333 0 0 1 85.333334 85.333333v512a85.333333 85.333333 0 0 1-85.333334 85.333333h-319.914666c8.448-20.224 14.506667-41.685333 18.005333-64H853.333333a21.333333 21.333333 0 0 0 21.333334-21.333333V256a21.333333 21.333333 0 0 0-21.333334-21.333333H320v237.909333A279.637333 279.637333 0 0 0 256 470.186667V234.666667H170.666667a21.333333 21.333333 0 0 0-21.333334 21.333333v244.565333A278.058667 278.058667 0 0 0 85.333333 546.56V256zM512 298.666667a85.333333 85.333333 0 0 0-85.333333 85.333333v42.666667a85.333333 85.333333 0 0 0 85.333333 85.333333h170.666667a85.333333 85.333333 0 0 0 85.333333-85.333333V384a85.333333 85.333333 0 0 0-85.333333-85.333333h-170.666667z m170.666667 64a21.333333 21.333333 0 0 1 21.333333 21.333333v42.666667a21.333333 21.333333 0 0 1-21.333333 21.333333h-170.666667a21.333333 21.333333 0 0 1-21.333333-21.333333V384a21.333333 21.333333 0 0 1 21.333333-21.333333h170.666667zM277.333333 512a234.666667 234.666667 0 1 1 0 469.333333 234.666667 234.666667 0 0 1 0-469.333333z m21.376 362.794667V768h106.496a21.333333 21.333333 0 0 0 0-42.666667H298.666667v-106.666666a21.333333 21.333333 0 1 0-42.666667 0V725.333333H149.162667a21.333333 21.333333 0 0 0 0 42.666667H256v106.794667a21.333333 21.333333 0 1 0 42.666667 0z" /></svg>