<svg class="icon" style="width: 1em;height: 1em;vertical-align: middle;fill: currentColor;overflow: hidden;" viewBox="0 0 1024 1024" version="1.1" xmlns="http://www.w3.org/2000/svg"><path d="M222.72 267.946667l-128-128a32 32 0 0 1 45.226667-45.226667l789.333333 789.333333a32 32 0 1 1-45.226667 45.226667l-139.946666-139.946667-104.106667 0.042667a128 128 0 0 1-255.786667 7.552L384 789.290667H182.4a53.376 53.376 0 0 1-48.938667-74.538667L192 580.010667V405.162667c0-49.152 11.008-95.658667 30.72-137.216zM680.106667 725.333333L271.530667 316.8A256.810667 256.810667 0 0 0 256 405.162667v188.16L198.656 725.333333H680.106667z m-104.106667 64l-128 0.042667a64 64 0 0 0 127.701333 6.186667l0.298667-6.272zM768 593.365333l30.208 69.12 93.354667 93.312a53.205333 53.205333 0 0 0-0.682667-41.173333l-58.88-134.656V405.162667l-0.170667-10.666667A319.573333 319.573333 0 0 0 512 85.12a318.976 318.976 0 0 0-211.498667 79.573333l45.397334 45.397334A255.189333 255.189333 0 0 1 512 149.162667a255.488 255.488 0 0 1 255.872 246.954666l0.128 9.6v187.648z" /></svg>