<svg class="icon" style="width: 1em;height: 1em;vertical-align: middle;fill: currentColor;overflow: hidden;" viewBox="0 0 1024 1024" version="1.1" xmlns="http://www.w3.org/2000/svg"><path d="M512 85.162667a319.573333 319.573333 0 0 1 319.829333 309.333333l0.170667 10.666667v174.805333l58.88 134.656a53.333333 53.333333 0 0 1-48.853333 74.666667L640 789.418667a128 128 0 0 1-255.786667 7.552L384 789.290667H182.4a53.376 53.376 0 0 1-48.938667-74.538667L192 580.010667V405.162667c0-177.28 143.018667-320 320-320zM576 789.333333l-128 0.085334a64 64 0 0 0 127.701333 6.186666l0.256-6.272zM512 149.162667c-141.653333 0-256 114.090667-256 256v188.16L198.656 725.333333h627.072L768 593.365333V405.717333l-0.170667-9.6A255.488 255.488 0 0 0 512 149.162667z" /></svg>