<svg class="icon" style="width: 1em;height: 1em;vertical-align: middle;fill: currentColor;overflow: hidden;" viewBox="0 0 1024 1024" version="1.1" xmlns="http://www.w3.org/2000/svg"><path d="M444.970667 850.090667l151.978666-64.512a85.290667 85.290667 0 0 1-151.978666 64.512z m231.765333-760.746667c89.002667 48.64 155.818667 111.061333 199.765333 187.178667 43.946667 76.117333 64.64 165.205333 62.250667 266.581333a32 32 0 0 1-64-1.493333c2.133333-90.112-15.872-167.594667-53.674667-233.088-37.802667-65.493333-95.957333-119.808-175.018666-162.986667a32 32 0 1 1 30.72-56.192z m-390.4 188.629333a248.490667 248.490667 0 0 1 324.266667 117.162667l4.181333 8.96 54.954667 123.349333 72.448 62.72c3.968 3.413333 7.381333 7.424 11.349333 13.866667l2.517333 4.864a53.333333 53.333333 0 0 1-27.178666 70.4L288.213333 874.24A53.333333 53.333333 0 0 1 213.333333 825.472l-0.042666-99.968-52.992-119.125333A248.405333 248.405333 0 0 1 286.293333 277.973333z m-67.584 302.421334l58.538667 131.541333v97.152l410.282666-181.546667-70.528-61.013333-60.458666-135.808-3.626667-7.765333a184.362667 184.362667 0 0 0-240.554667-86.485334 184.405333 184.405333 0 0 0-93.653333 243.925334z m447.872-337.408c41.258667 22.485333 74.325333 55.210667 98.816 97.664 24.490667 42.453333 36.309333 87.466667 35.157333 134.4a32 32 0 1 1-64-1.536c0.853333-35.072-7.893333-68.48-26.581333-100.864-18.688-32.426667-43.264-56.746667-74.026667-73.472a32 32 0 0 1 30.634667-56.192z" /></svg>