<svg class="icon" style="width: 1em;height: 1em;vertical-align: middle;fill: currentColor;overflow: hidden;" viewBox="0 0 1024 1024" version="1.1" xmlns="http://www.w3.org/2000/svg"><path d="M512 149.333333c-132.437333 0-256 103.765333-256 266.666667v177.194667L199.765333 725.333333h625.92l-57.770666-131.968V501.333333a32 32 0 0 1 64 0v78.634667l58.922666 134.656a53.333333 53.333333 0 0 1-48.853333 74.709333H640a128.085333 128.085333 0 0 1-256.128 0H183.68a53.333333 53.333333 0 0 1-49.066667-74.197333l57.344-134.997333V416C192 216.234667 345.728 85.333333 512 85.333333c36.693333 0 72.746667 6.4 106.666667 18.432a32 32 0 0 1-21.418667 60.288A254.464 254.464 0 0 0 512 149.333333zM512 853.333333c35.328 0 64-28.629333 64.042667-64h-128.128c0 35.370667 28.714667 64 64.085333 64zM650.666667 298.666667h-106.666667l-4.309333 0.298666A32 32 0 0 0 544 362.666667h44.501333l-70.528 98.730666-2.346666 3.84A32 32 0 0 0 544 512h106.666667l4.352-0.298667a32 32 0 0 0-4.352-63.701333h-44.458667l70.528-98.730667 2.346667-3.84A32 32 0 0 0 650.666667 298.666667zM906.666667 85.333333h-149.333334l-4.309333 0.298667A32 32 0 0 0 757.333333 149.333333h91.050667l-118.016 185.472-2.133333 3.84A32 32 0 0 0 757.333333 384h149.333334l4.352-0.298667A32 32 0 0 0 906.666667 320h-91.008l118.016-185.472 2.133333-3.84A32 32 0 0 0 906.666667 85.333333z" /></svg>