<svg class="icon" style="width: 1em;height: 1em;vertical-align: middle;fill: currentColor;overflow: hidden;" viewBox="0 0 1024 1024" version="1.1" xmlns="http://www.w3.org/2000/svg"><path d="M896 117.333333a32 32 0 0 0-64 0v789.333334a32 32 0 0 0 64 0V117.333333zM672 170.666667A96 96 0 0 1 768 266.666667v106.666666A96 96 0 0 1 672 469.333333H224A96 96 0 0 1 128 373.333333v-106.666666A96 96 0 0 1 224 170.666667h448z m32 96a32 32 0 0 0-32-32H224a32 32 0 0 0-32 32v106.666666c0 17.664 14.336 32 32 32h448a32 32 0 0 0 32-32v-106.666666zM672 554.666667A96 96 0 0 1 768 650.666667v106.666666A96 96 0 0 1 672 853.333333h-298.666667a96 96 0 0 1-96-96v-106.666666A96 96 0 0 1 373.333333 554.666667h298.666667z m32 96a32 32 0 0 0-32-32h-298.666667a32 32 0 0 0-32 32v106.666666c0 17.664 14.336 32 32 32h298.666667a32 32 0 0 0 32-32v-106.666666z" /></svg>