<svg class="icon" style="width: 1em;height: 1em;vertical-align: middle;fill: currentColor;overflow: hidden;" viewBox="0 0 1024 1024" version="1.1" xmlns="http://www.w3.org/2000/svg"><path d="M128 117.333333a32 32 0 0 1 64 0v789.333334a32 32 0 0 1-64 0V117.333333zM352 170.666667A96 96 0 0 0 256 266.666667v106.666666A96 96 0 0 0 352 469.333333h448A96 96 0 0 0 896 373.333333v-106.666666A96 96 0 0 0 800 170.666667H352zM320 266.666667a32 32 0 0 1 32-32h448a32 32 0 0 1 32 32v106.666666a32 32 0 0 1-32 32H352a32 32 0 0 1-32-32v-106.666666zM352 554.666667A96 96 0 0 0 256 650.666667v106.666666A96 96 0 0 0 352 853.333333h298.666667a96 96 0 0 0 96-96v-106.666666A96 96 0 0 0 650.666667 554.666667h-298.666667z m-32 96a32 32 0 0 1 32-32h298.666667a32 32 0 0 1 32 32v106.666666a32 32 0 0 1-32 32h-298.666667a32 32 0 0 1-32-32v-106.666666z" /></svg>