<svg class="icon" style="width: 1em;height: 1em;vertical-align: middle;fill: currentColor;overflow: hidden;" viewBox="0 0 1024 1024" version="1.1" xmlns="http://www.w3.org/2000/svg"><path d="M117.333333 896a32 32 0 0 1 0-64h789.333334a32 32 0 0 1 0 64H117.333333zM170.666667 672A96 96 0 0 0 266.666667 768h106.666666A96 96 0 0 0 469.333333 672V224A96 96 0 0 0 373.333333 128h-106.666666A96 96 0 0 0 170.666667 224v448z m96 32a32 32 0 0 1-32-32V224a32 32 0 0 1 32-32h106.666666a32 32 0 0 1 32 32v448a32 32 0 0 1-32 32h-106.666666z m288-32A96 96 0 0 0 650.666667 768h106.666666A96 96 0 0 0 853.333333 672v-298.666667a96 96 0 0 0-96-96h-106.666666A96 96 0 0 0 554.666667 373.333333v298.666667z m96 32a32 32 0 0 1-32-32v-298.666667a32 32 0 0 1 32-32h106.666666a32 32 0 0 1 32 32v298.666667a32 32 0 0 1-32 32h-106.666666z" /></svg>