<svg class="icon" style="width: 1em;height: 1em;vertical-align: middle;fill: currentColor;overflow: hidden;" viewBox="0 0 1024 1024" version="1.1" xmlns="http://www.w3.org/2000/svg"><path d="M117.333333 128a32 32 0 0 0 0 64h789.333334a32 32 0 0 0 0-64H117.333333zM170.666667 352A96 96 0 0 1 266.666667 256h106.666666A96 96 0 0 1 469.333333 352v448A96 96 0 0 1 373.333333 896h-106.666666A96 96 0 0 1 170.666667 800V352z m96-32a32 32 0 0 0-32 32v448c0 17.664 14.336 32 32 32h106.666666a32 32 0 0 0 32-32V352a32 32 0 0 0-32-32h-106.666666z m288 32A96 96 0 0 1 650.666667 256h106.666666A96 96 0 0 1 853.333333 352v298.666667a96 96 0 0 1-96 96h-106.666666A96 96 0 0 1 554.666667 650.666667v-298.666667z m96-32a32 32 0 0 0-32 32v298.666667c0 17.664 14.336 32 32 32h106.666666a32 32 0 0 0 32-32v-298.666667a32 32 0 0 0-32-32h-106.666666z" /></svg>