<svg class="icon" style="width: 1em;height: 1em;vertical-align: middle;fill: currentColor;overflow: hidden;" viewBox="0 0 1024 1024" version="1.1" xmlns="http://www.w3.org/2000/svg"><path d="M906.666667 544a32 32 0 0 0 0-64H853.333333v-106.666667a96 96 0 0 0-96-96h-106.666666A96 96 0 0 0 554.666667 373.333333v106.666667h-85.333334v-192A96 96 0 0 0 373.333333 192h-106.666666A96 96 0 0 0 170.666667 288v192H117.333333a32 32 0 0 0 0 64H170.666667v192a96 96 0 0 0 96 96h106.666666A96 96 0 0 0 469.333333 736v-192h85.333334v106.666667a96 96 0 0 0 96 96h106.666666A96 96 0 0 0 853.333333 650.666667v-106.666667h53.333334z m-117.333334-170.666667v277.333334a32 32 0 0 1-32 32h-106.666666a32 32 0 0 1-32-32v-277.333334a32 32 0 0 1 32-32h106.666666a32 32 0 0 1 32 32z m-384-85.333333v448a32 32 0 0 1-32 32h-106.666666a32 32 0 0 1-32-32V288A32 32 0 0 1 266.666667 256h106.666666a32 32 0 0 1 32 32z" /></svg>