<svg class="icon" style="width: 1em;height: 1em;vertical-align: middle;fill: currentColor;overflow: hidden;" viewBox="0 0 1024 1024" version="1.1" xmlns="http://www.w3.org/2000/svg"><path d="M480 906.666667V853.333333h-106.666667a96 96 0 0 1-96-96v-106.666666A96 96 0 0 1 373.333333 554.666667h106.666667v-85.333334h-192A96 96 0 0 1 192 373.333333v-106.666666A96 96 0 0 1 288 170.666667h192V117.333333a32 32 0 0 1 64 0V170.666667h192a96 96 0 0 1 96 96v106.666666A96 96 0 0 1 736 469.333333h-192v85.333334h106.666667a96 96 0 0 1 96 96v106.666666A96 96 0 0 1 650.666667 853.333333h-106.666667v53.333334a32 32 0 0 1-64 0z m170.666667-117.333334a32 32 0 0 0 32-32v-106.666666a32 32 0 0 0-32-32h-277.333334a32 32 0 0 0-32 32v106.666666c0 17.664 14.336 32 32 32h277.333334z m85.333333-384a32 32 0 0 0 32-32v-106.666666a32 32 0 0 0-32-32H288a32 32 0 0 0-32 32v106.666666c0 17.664 14.336 32 32 32h448z" /></svg>