<svg class="icon" style="width: 1em;height: 1em;vertical-align: middle;fill: currentColor;overflow: hidden;" viewBox="0 0 1024 1024" version="1.1" xmlns="http://www.w3.org/2000/svg"><path d="M660.992 149.632a70.4 70.4 0 0 0-63.957333 70.101333V426.666667a32 32 0 0 1-32 32c-61.568 0-104.832 25.088-136.832 63.488-32.938667 39.594667-54.4 94.122667-67.84 151.765333-13.354667 57.301333-18.218667 115.029333-19.669334 158.805333-0.554667 16.298667-0.64 30.506667-0.512 41.941334h299.52v-32a96 96 0 0 0-95.957333-96h-53.333333a32 32 0 0 1 0-64h53.333333a159.957333 159.957333 0 0 1 159.914667 160v32h32a32 32 0 0 0 32-32v-426.666667A32 32 0 0 1 799.573333 384h21.589334a53.333333 53.333333 0 0 0 45.312-81.450667l-26.453334-42.666666a53.333333 53.333333 0 0 0-45.269333-25.216h-101.802667a32 32 0 0 1-32-32V149.632zM276.224 874.666667c-0.128-12.117333-0.042667-27.050667 0.512-44.074667 1.536-46.208 6.698667-108.458667 21.333333-171.178667 14.506667-62.378667 39.04-127.829333 81.024-178.218666 37.205333-44.672 87.68-76.842667 154.026667-84.693334V219.733333A134.4 134.4 0 0 1 667.349333 85.333333c31.829333 0 57.6 25.770667 57.6 57.6V170.666667h69.802667c40.533333 0 78.250667 20.992 99.626667 55.466666l26.453333 42.666667c46.592 75.221333-3.584 171.52-89.301333 178.773333v395.093334A96 96 0 0 1 735.658667 938.666667H247.253333a162.005333 162.005333 0 0 1-118.4-272.64l48.426667-51.925334a130.517333 130.517333 0 0 0-3.114667-181.248L126.677333 385.28a32 32 0 0 1 45.226667-45.226667l47.530667 47.530667a194.474667 194.474667 0 0 1 4.693333 270.165333l-48.469333 51.925334a98.133333 98.133333 0 0 0 71.68 164.992h28.885333z" /></svg>