<svg class="icon" style="width: 1em;height: 1em;vertical-align: middle;fill: currentColor;overflow: hidden;" viewBox="0 0 1024 1024" version="1.1" xmlns="http://www.w3.org/2000/svg"><path d="M469.205333 255.914667a261.973333 261.973333 0 0 1 247.466667 176l3.2 9.941333 1.877333 6.186667h99.413334a117.290667 117.290667 0 0 1 117.077333 110.122666l0.213333 7.168v42.666667a74.666667 74.666667 0 0 1-68.522666 74.325333l-6.101334 0.256H794.453333l10.282667 24.917334a74.666667 74.666667 0 0 1-34.688 94.72l-5.845333 2.730666a74.752 74.752 0 0 1-21.162667 5.248l-7.296 0.384h-76.245333a74.666667 74.666667 0 0 1-64.426667-36.992l-3.072-5.888-22.997333-48.725333 2.304-0.298667c-59.733333 7.936-120.192 8.874667-180.096 2.816l-21.205334-2.432-22.826666 48.469334a74.666667 74.666667 0 0 1-67.541334 42.88H202.666667a74.624 74.624 0 0 1-69.034667-103.04l18.474667-44.8a138.325333 138.325333 0 0 1-66.986667-118.613334 32 32 0 0 1 27.648-31.701333L117.12 512h80.213333l21.205334-70.058667a261.845333 261.845333 0 0 1 250.666666-186.026666z m289.152 413.568c-32.896 13.226667-66.517333 24.106667-100.522666 32.64l-23.424 5.504 15.445333 32.853333a10.666667 10.666667 0 0 0 4.992 5.034667l2.261333 0.810666 2.389334 0.256h76.245333a10.666667 10.666667 0 0 0 10.581333-11.946666l-0.725333-2.773334-20.394667-49.28h-1.834666l17.536-6.314666 17.450666-6.784z m-578.218666 0l16.64 6.485333 16.554666 6.016-20.565333 49.706667a10.666667 10.666667 0 0 0 9.898667 14.72h76.970666l2.432-0.256a10.666667 10.666667 0 0 0 7.253334-5.845334l15.317333-32.554666 1.877333 0.426666a774.784 774.784 0 0 1-126.378666-38.698666z m289.066666-349.610667a197.888 197.888 0 0 0-186.496 131.712l-2.901333 8.832-48.469333 160 6.954666 2.474667a711.253333 711.253333 0 0 0 444.586667 5.717333l17.322667-5.717333 6.912-2.474667-48.469334-160a197.973333 197.973333 0 0 0-170.922666-139.690667l-9.216-0.64-9.301334-0.213333z m-297.685333 277.333333l6.442667-21.333333-21.632 0.042667 1.066666 2.261333c3.669333 7.082667 8.448 13.482667 14.08 18.986667zM741.12 512l32.256 106.581333 90.453333 0.042667a10.666667 10.666667 0 0 0 10.368-8.234667l0.298667-2.432v-42.666666a53.333333 53.333333 0 0 0-47.872-52.992l-5.461333-0.256L741.12 512z" /></svg>