<svg class="icon" style="width: 1em;height: 1em;vertical-align: middle;fill: currentColor;overflow: hidden;" viewBox="0 0 1024 1024" version="1.1" xmlns="http://www.w3.org/2000/svg"><path d="M330.666667 810.666667a117.333333 117.333333 0 0 1-117.12-110.165334L213.333333 693.333333v-53.376a128 128 0 1 1 109.312-194.56 189.952 189.952 0 0 1 71.68-18.432L405.333333 426.666667h170.666667l10.581333 0.298666 10.453334 0.853334 5.418666 0.725333 4.693334-7.125333 5.589333-7.594667-75.818667-75.818667c-29.866667-29.866667-32.981333-76.288-9.386666-109.653333l4.394666-5.76 4.992-5.418667c31.573333-31.573333 81.834667-33.28 115.413334-4.992l5.418666 4.992 230.912 230.954667a170.666667 170.666667 0 0 1-112.725333 291.157333l-9.6 0.170667-7.765333-0.298667-1.109334 2.730667a117.376 117.376 0 0 1-91.221333 67.754667l-8.192 0.810666-7.424 0.213334H330.666667z m281.813333-548.266667a21.418667 21.418667 0 0 0-32.768 27.392l2.474667 2.986667 119.808 119.808-27.221334 27.349333c-8.96 8.96-16.426667 18.944-22.314666 29.738667l-4.138667 8.192-11.349333 24.917333-26.368-7.381333a127.317333 127.317333 0 0 0-25.770667-4.437334l-8.874667-0.298666H405.333333c-29.866667 0-57.301333 10.24-79.061333 27.306666l-6.101333 5.12-7.04 6.826667-3.968 4.266667-4.736 5.717333-5.162667 7.082667-1.792 2.773333c-1.749333 2.688-3.413333 5.461333-4.906667 8.32l-2.474666 4.821333-2.645334 5.802667-1.450666 3.626667-2.176 6.058666-2.346667 7.850667a127.018667 127.018667 0 0 0-2.645333 12.672l-0.469334 3.541333-0.768 8.021334-0.256 8.192v74.666666c0 27.605333 20.992 50.346667 47.872 53.077334l5.461334 0.256h181.376v-10.538667a53.333333 53.333333 0 0 0-47.829334-53.034667l-5.461333-0.298666h-42.666667a32 32 0 0 1-4.352-63.701334l4.352-0.298666h42.666667a117.333333 117.333333 0 0 1 117.12 110.208l0.213333 7.125333-0.042666 10.538667h74.581333c25.258667 0 46.72-17.664 52.010667-41.6l0.853333-5.248 4.266667-35.84 35.072 8.490666a106.666667 106.666667 0 0 0 105.813333-173.525333l-5.205333-5.546667-230.954667-230.954666zM213.333333 448a64 64 0 0 0-6.186666 127.658667L213.333333 576l4.864-0.213333 0.213334-1.109334c1.493333-6.357333 3.285333-12.586667 5.376-18.688l4.138666-10.837333 4.522667-10.069333 2.432-4.821334 5.546667-10.026666 3.754666-5.973334 6.186667-8.96 3.157333-4.138666 4.608-5.717334 5.504-6.314666 6.4-6.656c-8.96-17.109333-25.173333-29.44-44.245333-33.194667l-6.442667-0.938667L213.333333 448z" /></svg>