<svg class="icon" style="width: 1em;height: 1em;vertical-align: middle;fill: currentColor;overflow: hidden;" viewBox="0 0 1024 1024" version="1.1" xmlns="http://www.w3.org/2000/svg"><path d="M565.333333 85.333333h135.893334c21.717333 0 42.965333 6.016 61.44 17.408l118.101333 72.661334A32 32 0 0 1 896 202.666667v64a96 96 0 0 1-96 96h-10.666667v386.005333c42.538667 5.717333 72.32 23.68 89.386667 54.4 9.514667 17.194667 13.568 35.84 15.445333 53.034667 1.834667 16.682667 1.834667 34.133333 1.834667 49.493333v1.066667a32 32 0 0 1-32 32H248.874667a163.541333 163.541333 0 0 1-84.053334-303.914667 32 32 0 0 1 32.938667 54.912A99.541333 99.541333 0 0 0 248.874667 874.666667c13.610667 0 22.058667-3.541333 27.690666-7.509334 5.930667-4.181333 10.581333-10.154667 14.122667-17.365333a82.261333 82.261333 0 0 0 7.978667-29.44v-1.493333l0.170666-6.101334a605.781333 605.781333 0 0 1 11.093334-93.312c11.093333-55.082667 34.005333-126.634667 83.285333-176.597333 36.181333-36.693333 55.850667-90.410667 66.005333-143.530667C469.333333 346.88 469.333333 299.008 469.333333 277.333333V181.333333A96 96 0 0 1 565.333333 85.333333z m-234.666666 736l32 1.109334v0.256l-0.042667 0.426666-0.085333 1.194667a145.92 145.92 0 0 1-2.133334 16.213333c-1.664 9.088-4.778667 21.333333-10.666666 34.133334h309.333333c-3.84-21.077333-14.506667-42.922667-43.221333-56.32a74.24 74.24 0 0 0-20.565334-5.632 200.277333 200.277333 0 0 0-29.952-2.346667l-12.074666 0.170667-6.016 0.085333h-2.56a32 32 0 1 1-1.194667-63.957333l2.645333-0.042667 6.101334-0.085333 13.098666-0.170667c10.026667 0 21.12 0.682667 32 2.005333v-97.578666a32 32 0 0 1 64 0v119.637333c45.44 29.098667 58.624 72.661333 62.421334 104.234667h107.690666a209.066667 209.066667 0 0 0-0.896-11.52c-1.408-12.842667-4.010667-22.186667-7.808-29.013334-5.546667-9.984-18.474667-23.466667-65.408-23.466666a32 32 0 0 1-32-32V330.666667a32 32 0 0 1 32-32h42.666667a32 32 0 0 0 32-32V220.586667l-102.869333-63.36a53.205333 53.205333 0 0 0-27.904-7.893334h-135.936a32 32 0 0 0-31.957334 32v95.232a39.338667 39.338667 0 0 0 8.746667 23.637334c4.309333 4.864 11.093333 9.130667 23.253333 9.130666 12.245333 0 19.328-4.309333 23.722667-9.344A37.632 37.632 0 0 0 597.333333 275.2a32 32 0 0 1 64 0c0 23.637333-7.552 48-24.149333 66.944-17.066667 19.498667-41.984 31.189333-71.850667 31.189333-13.312 0-25.557333-2.304-36.48-6.570666a594.346667 594.346667 0 0 1-6.741333 44.586666c-11.178667 58.282667-34.176 126.634667-83.328 176.469334-36.053333 36.522667-55.808 93.013333-66.090667 144.213333a541.952 541.952 0 0 0-10.026666 87.893333v2.517334l-32-1.109334z" /></svg>