<svg class="icon" style="width: 1em;height: 1em;vertical-align: middle;fill: currentColor;overflow: hidden;" viewBox="0 0 1024 1024" version="1.1" xmlns="http://www.w3.org/2000/svg"><path d="M202.666667 874.666667h618.666666a32 32 0 0 1 4.352 63.701333L821.333333 938.666667H202.666667a32 32 0 0 1-4.352-63.701334l4.352-0.298666h618.666666-618.666666zM693.333333 128A160 160 0 0 1 853.333333 288v362.666667A160 160 0 0 1 693.333333 810.666667h-362.666666A160 160 0 0 1 170.666667 650.666667v-362.666667A160 160 0 0 1 330.666667 128h362.666666z m0 64h-362.666666A96 96 0 0 0 234.666667 288v362.666667a96 96 0 0 0 96 96h362.666666a96 96 0 0 0 96-96v-362.666667a96 96 0 0 0-96-96z" /></svg>