<svg class="icon" style="width: 1em;height: 1em;vertical-align: middle;fill: currentColor;overflow: hidden;" viewBox="0 0 1024 1024" version="1.1" xmlns="http://www.w3.org/2000/svg"><path d="M778.666667 128A117.333333 117.333333 0 0 1 896 245.333333v533.333334A117.333333 117.333333 0 0 1 778.666667 896H245.333333A117.333333 117.333333 0 0 1 128 778.666667V245.333333A117.333333 117.333333 0 0 1 245.333333 128h533.333334z m0 64H245.333333c-29.44 0-53.333333 23.893333-53.333333 53.333333v533.333334c0 29.44 23.893333 53.333333 53.333333 53.333333h533.333334c29.44 0 53.333333-23.893333 53.333333-53.333333V245.333333c0-29.44-23.893333-53.333333-53.333333-53.333333z m-362.581334 341.333333c41.216 0 74.666667 33.450667 74.666667 74.666667v85.333333A74.666667 74.666667 0 0 1 416.085333 768h-85.333333a74.666667 74.666667 0 0 1-74.666667-74.666667v-85.333333c0-41.216 33.408-74.666667 74.666667-74.666667h85.333333z m277.205334 0c41.258667 0 74.666667 33.450667 74.666666 74.666667v85.333333A74.666667 74.666667 0 0 1 693.333333 768h-85.333333a74.666667 74.666667 0 0 1-74.666667-74.666667v-85.333333c0-41.216 33.450667-74.666667 74.666667-74.666667h85.333333zM416.085333 597.333333h-85.333333a10.666667 10.666667 0 0 0-10.666667 10.666667v85.333333c0 5.888 4.778667 10.666667 10.666667 10.666667h85.333333a10.666667 10.666667 0 0 0 10.666667-10.666667v-85.333333a10.666667 10.666667 0 0 0-10.666667-10.666667z m277.205334 0h-85.333334a10.666667 10.666667 0 0 0-10.666666 10.666667v85.333333c0 5.888 4.778667 10.666667 10.666666 10.666667h85.333334a10.666667 10.666667 0 0 0 10.666666-10.666667v-85.333333a10.666667 10.666667 0 0 0-10.666666-10.666667zM416.042667 256c41.216 0 74.666667 33.450667 74.666666 74.666667v85.333333a74.666667 74.666667 0 0 1-74.666666 74.666667h-85.333334A74.666667 74.666667 0 0 1 256 416v-85.333333C256 289.450667 289.450667 256 330.666667 256h85.333333z m277.205333 0c41.258667 0 74.666667 33.450667 74.666667 74.666667v85.333333a74.666667 74.666667 0 0 1-74.666667 74.666667h-85.333333a74.666667 74.666667 0 0 1-74.666667-74.666667v-85.333333c0-41.216 33.450667-74.666667 74.666667-74.666667h85.333333zM416.042667 320h-85.333334a10.666667 10.666667 0 0 0-10.666666 10.666667v85.333333c0 5.888 4.778667 10.666667 10.666666 10.666667h85.333334a10.666667 10.666667 0 0 0 10.666666-10.666667v-85.333333a10.666667 10.666667 0 0 0-10.666666-10.666667z m277.205333 0h-85.333333a10.666667 10.666667 0 0 0-10.666667 10.666667v85.333333c0 5.888 4.778667 10.666667 10.666667 10.666667h85.333333a10.666667 10.666667 0 0 0 10.666667-10.666667v-85.333333a10.666667 10.666667 0 0 0-10.666667-10.666667z" /></svg>