<svg class="icon" style="width: 1em;height: 1em;vertical-align: middle;fill: currentColor;overflow: hidden;" viewBox="0 0 1024 1024" version="1.1" xmlns="http://www.w3.org/2000/svg"><path d="M757.376 128l7.893333 0.213333a138.666667 138.666667 0 0 1 130.56 130.56l0.213334 7.893334v490.666666l-0.213334 7.850667A138.666667 138.666667 0 0 1 757.376 896H266.666667a138.666667 138.666667 0 0 1-138.453334-130.816L128 757.333333V266.666667a138.666667 138.666667 0 0 1 130.816-138.453334L266.666667 128h490.709333zM832 341.333333H192.042667L192 757.333333a74.666667 74.666667 0 0 0 68.522667 74.410667l6.144 0.256h490.709333l6.144-0.256a74.666667 74.666667 0 0 0 68.266667-67.968l0.256-6.442667L832 341.333333z m-394.666667 64a32 32 0 0 1 31.701334 27.648l0.298666 4.352v298.666667a32 32 0 0 1-27.648 31.701333L437.333333 768h-149.333333a32 32 0 0 1-31.701333-27.648L256 736v-298.666667a32 32 0 0 1 27.648-31.701333L288 405.333333h149.333333zM405.333333 469.333333h-85.333333v234.666667h85.333333V469.333333z m288 64.128a32 32 0 0 1 4.352 63.701334l-4.352 0.298666h-149.162666a32 32 0 0 1-4.309334-63.701333l4.309334-0.298667h149.162666z m42.666667-128.128a32 32 0 0 1 4.352 63.701334L736 469.333333h-191.829333a32 32 0 0 1-4.309334-63.701333l4.309334-0.298667h191.829333z" /></svg>