<svg class="icon" style="width: 1em;height: 1em;vertical-align: middle;fill: currentColor;overflow: hidden;" viewBox="0 0 1024 1024" version="1.1" xmlns="http://www.w3.org/2000/svg"><path d="M502.613333 73.386667a32 32 0 1 0-45.226666 45.226666L509.44 170.666667a384 384 0 1 0 384.981333 418.986666 32 32 0 0 0-63.744-5.76A320 320 0 1 1 509.44 234.666667l-52.053333 52.053333a32 32 0 0 0 45.269333 45.226667l106.666667-106.666667a32 32 0 0 0 0-45.226667l-106.666667-106.666666zM673.450667 436.053333a32 32 0 0 1 0 45.226667l-192.170667 192.170667a32 32 0 0 1-45.226667 0l-85.333333-85.333334a32 32 0 0 1 45.226667-45.226666l62.72 62.677333 169.514666-169.514667a32 32 0 0 1 45.226667 0z" /></svg>