<svg class="icon" style="width: 1em;height: 1em;vertical-align: middle;fill: currentColor;overflow: hidden;" viewBox="0 0 1024 1024" version="1.1" xmlns="http://www.w3.org/2000/svg"><path d="M448 128a96 96 0 0 1 96 96v256h256A96 96 0 0 1 896 576v224A96 96 0 0 1 800 896H224A96 96 0 0 1 128 800V224A96 96 0 0 1 224 128h224z m32 416H192v256c0 17.664 14.336 32 32 32h255.957333l0.042667-288z m320 0h-256.042667v288h256.042667a32 32 0 0 0 32-32V576a32 32 0 0 0-32-32zM448 192H224a32 32 0 0 0-32 32v256h288v-256a32 32 0 0 0-32-32z m315.648-106.368L768 85.333333a32 32 0 0 1 31.701333 27.648l0.298667 4.352v106.666667h106.666667a32 32 0 0 1 31.701333 27.648L938.666667 256a32 32 0 0 1-27.648 31.701333l-4.352 0.298667h-106.666667v106.666667a32 32 0 0 1-27.648 31.701333L768 426.666667a32 32 0 0 1-31.701333-27.648l-0.298667-4.352v-106.666667h-106.666667a32 32 0 0 1-31.701333-27.648L597.333333 256a32 32 0 0 1 27.648-31.701333l4.352-0.298667h106.666667v-106.666667a32 32 0 0 1 27.648-31.701333z" /></svg>