<svg class="icon" style="width: 1em;height: 1em;vertical-align: middle;fill: currentColor;overflow: hidden;" viewBox="0 0 1024 1024" version="1.1" xmlns="http://www.w3.org/2000/svg"><path d="M416 448a32 32 0 0 0 0 64h148.352a32 32 0 0 0 0-64H416z m-213.333333-362.666667A74.666667 74.666667 0 0 0 128 160v106.666667c0 29.781333 17.450667 55.466667 42.666667 67.498666v337.834667a160 160 0 0 0 160 160h320A160 160 0 0 0 810.666667 672V334.165333c25.216-11.989333 42.666667-37.717333 42.666666-67.498666v-106.666667A74.666667 74.666667 0 0 0 778.666667 85.333333H202.666667z m32 586.666667V341.333333h512v330.666667A96 96 0 0 1 650.666667 768h-320a96 96 0 0 1-96-96z m-42.666667-512a10.666667 10.666667 0 0 1 10.666667-10.666667h576a10.666667 10.666667 0 0 1 10.666666 10.666667v106.666667a10.666667 10.666667 0 0 1-10.666666 10.666666H202.666667a10.666667 10.666667 0 0 1-10.666667-10.666666v-106.666667z m725.333333 341.333333c0-52.352-25.130667-98.816-64-128v320a181.333333 181.333333 0 0 1-181.333333 181.333334h-362.666667c29.184 38.826667 75.648 64 128 64h234.666667a245.333333 245.333333 0 0 0 245.333333-245.333334v-192z" /></svg>