<svg class="icon" style="width: 1em;height: 1em;vertical-align: middle;fill: currentColor;overflow: hidden;" viewBox="0 0 1024 1024" version="1.1" xmlns="http://www.w3.org/2000/svg"><path d="M693.333333 221.013333a32 32 0 0 0 6.058667 44.842667 309.376 309.376 0 0 1-153.557333 553.642667l28.885333-28.885334a32 32 0 0 0-41.685333-48.341333l-3.584 3.114667-85.333334 85.333333a32 32 0 0 0-3.114666 41.642667l3.114666 3.584 85.333334 85.333333a32 32 0 0 0 48.341333-41.642667l-3.072-3.584-32-32A373.333333 373.333333 0 0 0 738.176 215.04a32 32 0 0 0-44.842667 6.016z m-244.053333-158.293333a32 32 0 0 0 0 45.226667l32 32a373.333333 373.333333 0 0 0-206.933333 660.053333 32 32 0 1 0 40.789333-49.365333 309.376 309.376 0 0 1 162.986667-546.133334l-28.842667 28.885334a32 32 0 1 0 45.269333 45.226666l85.333334-85.333333a32 32 0 0 0 0-45.226667l-85.333334-85.333333a32 32 0 0 0-45.226666 0z" /></svg>