<svg class="icon" style="width: 1em;height: 1em;vertical-align: middle;fill: currentColor;overflow: hidden;" viewBox="0 0 1024 1024" version="1.1" xmlns="http://www.w3.org/2000/svg"><path d="M202.666667 85.333333a32 32 0 0 1 31.701333 27.648l0.298667 4.352v242.773334l195.157333-194.56a273.493333 273.493333 0 0 1 378.837333-7.637334l7.936 7.68a273.493333 273.493333 0 0 1 0 386.688l-377.429333 377.173334a32 32 0 0 1-45.226667-45.312l377.386667-377.088a209.493333 209.493333 0 0 0-288.682667-303.445334l-7.594666 7.253334L279.978667 405.333333h242.688a32 32 0 0 1 31.701333 27.648l0.298667 4.352a32 32 0 0 1-27.648 31.701334L522.666667 469.333333h-320a32 32 0 0 1-31.701334-27.648L170.666667 437.333333v-320A32 32 0 0 1 202.666667 85.333333z" /></svg>