<svg class="icon" style="width: 1em;height: 1em;vertical-align: middle;fill: currentColor;overflow: hidden;" viewBox="0 0 1024 1024" version="1.1" xmlns="http://www.w3.org/2000/svg"><path d="M586.581333 234.666667h322.304l4.266667 0.597333 4.224 1.194667 2.56 1.109333a30.72 30.72 0 0 1 9.344 6.4l1.706667 1.877333 1.877333 2.432 2.304 3.84 1.664 3.84 0.810667 2.730667 0.597333 2.730667 0.384 4.053333v321.365333a32 32 0 0 1-63.701333 4.352l-0.256-4.352-0.042667-242.986666-329.344 329.386666a32 32 0 0 1-41.642667 3.114667l-3.626666-3.114667-126.72-126.72-233.386667 233.386667a32 32 0 0 1-48.341333-41.685333l3.114666-3.584 256-256a32 32 0 0 1 41.642667-3.114667l3.584 3.114667 126.72 126.72L829.354667 298.666667h-242.773334a32 32 0 0 1-31.658666-27.648l-0.298667-4.352a32 32 0 0 1 27.648-31.701334l4.352-0.298666z" /></svg>