<svg class="icon" style="width: 1em;height: 1em;vertical-align: middle;fill: currentColor;overflow: hidden;" viewBox="0 0 1024 1024" version="1.1" xmlns="http://www.w3.org/2000/svg"><path d="M286.72 371.84l191.744-191.786667a32 32 0 0 1 41.642667-3.114666l3.626666 3.072 192.170667 191.786666a32 32 0 0 1-41.6 48.384l-3.584-3.072-137.514667-137.258666v541.696a32 32 0 0 1-27.648 31.701333l-4.309333 0.298667a32 32 0 0 1-31.701333-27.648l-0.298667-4.352-0.042667-541.781334L331.946667 417.066667a32 32 0 0 1-41.642667 3.114666l-3.584-3.114666a32 32 0 0 1-3.114667-41.642667l3.114667-3.584 191.744-191.786667L286.72 371.84z" /></svg>