<svg class="icon" style="width: 1em;height: 1em;vertical-align: middle;fill: currentColor;overflow: hidden;" viewBox="0 0 1024 1024" version="1.1" xmlns="http://www.w3.org/2000/svg"><path d="M853.333333 266.325333a96 96 0 0 0-96-96H266.666667A96 96 0 0 0 170.666667 266.325333v170.666667a32 32 0 0 0 64 0v-170.666667a32 32 0 0 1 32-32h490.666666a32 32 0 0 1 32 32v170.666667a32 32 0 0 0 64 0v-170.666667zM734.677333 564.053333a32 32 0 0 1 41.642667-3.114666l3.584 3.114666 101.12 100.992a32.853333 32.853333 0 0 1 14.976 28.330667 33.536 33.536 0 0 1-11.776 26.069333l-3.2 2.261334-101.12 100.992-3.584 3.114666a32 32 0 0 1-37.632 0.298667l-4.010667-3.413333-3.114666-3.584a32 32 0 0 1-0.298667-37.674667l3.413333-4.010667L786.773333 725.333333h-161.450666l-3.797334-0.298666c-13.653333-2.133333-24.192-15.488-24.192-31.701334s10.538667-29.610667 24.192-31.701333l3.84-0.298667h161.408l-52.096-52.053333-3.114666-3.584a32 32 0 0 1 3.114666-41.642667zM289.322667 564.181333a32 32 0 0 1 3.114666 41.642667l-3.114666 3.584-52.096 52.053333h161.450666c15.445333 0 27.989333 14.336 27.989334 32 0 16.213333-10.538667 29.568-24.192 31.701334l-3.84 0.298666H237.226667l52.096 52.096a32 32 0 0 1 3.114666 41.685334l-3.114666 3.584a32 32 0 0 1-41.642667 3.114666l-3.626667-3.114666-101.12-100.992a32.853333 32.853333 0 0 1-14.933333-28.330667 32.853333 32.853333 0 0 1 14.933333-28.330667l101.12-100.992a32 32 0 0 1 45.269334 0z" /></svg>