<svg class="icon" style="width: 1em;height: 1em;vertical-align: middle;fill: currentColor;overflow: hidden;" viewBox="0 0 1024 1024" version="1.1" xmlns="http://www.w3.org/2000/svg"><path d="M778.666667 149.717333a32 32 0 1 0 0-64l-554.666667-0.170666a32 32 0 1 0 0 64l554.666667 0.170666z m-281.685334 788.821334l4.352 0.298666a32 32 0 0 0 31.701334-27.690666l0.298666-4.309334-0.042666-583.893333 158.805333 158.72a32 32 0 0 0 41.642667 3.072l3.626666-3.072a32 32 0 0 0 3.072-41.685333l-3.114666-3.584-213.205334-213.162667a32 32 0 0 0-41.642666-3.114667l-3.626667 3.072-213.461333 213.205334a32 32 0 0 0 41.642666 48.384l3.584-3.114667 158.677334-158.421333L469.333333 906.837333c0 16.213333 12.032 29.568 27.648 31.701334z" /></svg>