<svg class="icon" style="width: 1em;height: 1em;vertical-align: middle;fill: currentColor;overflow: hidden;" viewBox="0 0 1024 1024" version="1.1" xmlns="http://www.w3.org/2000/svg"><path d="M543.914667 128.042667h322.304l4.266666 0.597333 4.224 1.194667 2.56 1.109333a30.72 30.72 0 0 1 9.344 6.4l1.706667 1.877333 2.602667 3.498667 1.578666 2.773333 1.706667 3.84 0.768 2.730667 0.597333 2.730667 0.426667 3.968v321.450666a32 32 0 0 1-63.701333 4.352l-0.298667-4.352V237.184L182.613333 886.784a32 32 0 0 1-41.685333 3.114667l-3.584-3.114667a32 32 0 0 1-3.114667-41.642667l3.114667-3.584L786.730667 192l-242.773334 0.042667a32 32 0 0 1-31.744-27.648l-0.298666-4.352a32 32 0 0 1 27.648-31.701334L543.914667 128z" /></svg>