<svg class="icon" style="width: 1em;height: 1em;vertical-align: middle;fill: currentColor;overflow: hidden;" viewBox="0 0 1024 1024" version="1.1" xmlns="http://www.w3.org/2000/svg"><path d="M929.194667 94.848a32 32 0 0 1 3.072 41.642667l-3.072 3.584-265.514667 265.557333h242.901333a32 32 0 0 1 31.701334 27.733333l0.298666 4.266667a32 32 0 0 1-27.690666 31.744l-4.309334 0.298667-322.133333-0.085334-0.682667-0.085333a31.018667 31.018667 0 0 1-8.32-1.792l-4.181333-1.962667a31.872 31.872 0 0 1-16.469333-23.594666l-0.298667-4.48V117.504a32 32 0 0 1 63.701333-4.352l0.298667 4.352v242.773333l265.472-265.429333a31.957333 31.957333 0 0 1 45.226667 0zM469.461333 586.88v320.170667a32 32 0 0 1-63.744 4.352l-0.298666-4.352v-242.986667L139.946667 929.28a32 32 0 0 1-48.341334-41.685333l3.114667-3.584 265.386667-265.130667H117.376a32 32 0 0 1-31.701333-27.648L85.333333 586.88a32 32 0 0 1 32-32l322.304 0.085333 3.157334 0.384 4.138666 0.981334 2.261334 0.810666 3.669333 1.706667 3.797333 2.474667a32.469333 32.469333 0 0 1 6.314667 6.314666l2.816 4.522667 1.749333 4.010667 0.938667 2.986666 0.426667 2.346667 0.298666 2.474667v-0.341334l0.213334 3.242667z" /></svg>