<svg class="icon" style="width: 1em;height: 1em;vertical-align: middle;fill: currentColor;overflow: hidden;" viewBox="0 0 1024 1024" version="1.1" xmlns="http://www.w3.org/2000/svg"><path d="M737.28 137.386667a32 32 0 0 0-45.226667 45.226666l137.386667 137.386667h-328.106667a181.333333 181.333333 0 0 0-181.333333 181.333333v328.064l-137.386667-137.386666a32 32 0 0 0-45.226666 45.269333l192 192a32 32 0 0 0 45.226666 0l192-192a32 32 0 1 0-45.226666-45.226667L384 829.44v-328.106667A117.333333 117.333333 0 0 1 501.333333 384h328.064l-137.386666 137.386667a32 32 0 0 0 45.269333 45.226666l192-192a32 32 0 0 0 0-45.226666l-192-192z" /></svg>