<svg class="icon" style="width: 1em;height: 1em;vertical-align: middle;fill: currentColor;overflow: hidden;" viewBox="0 0 1024 1024" version="1.1" xmlns="http://www.w3.org/2000/svg"><path d="M715.946667 137.386667a32 32 0 0 0-45.226667 0l-106.666667 106.666666a32 32 0 0 0 45.226667 45.226667l84.053333-84.053333 84.053334 84.053333a32 32 0 1 0 45.226666-45.226667l-106.666666-106.666666zM170.666667 266.325333a96 96 0 0 1 96-96h170.666666a32 32 0 0 1 0 64h-170.666666a32 32 0 0 0-32 32v490.666667c0 17.664 14.336 32 32 32h170.666666a32 32 0 0 1 0 64h-170.666666A96 96 0 0 1 170.666667 756.992v-490.666667zM715.946667 886.613333l106.666666-106.666666a32 32 0 1 0-45.226666-45.226667l-84.053334 84.053333-84.053333-84.053333a32 32 0 1 0-45.226667 45.226667l106.666667 106.666666a32 32 0 0 0 45.226667 0zM693.333333 469.333333a32 32 0 0 0-32 32v21.333334a32 32 0 0 0 64 0v-21.333334a32 32 0 0 0-32-32z m-32 181.333334a32 32 0 0 1 64 0v42.666666a32 32 0 0 1-64 0v-42.666666zM693.333333 298.666667a32 32 0 0 0-32 32v42.666666a32 32 0 0 0 64 0v-42.666666a32 32 0 0 0-32-32z" /></svg>