<svg class="icon" style="width: 1em;height: 1em;vertical-align: middle;fill: currentColor;overflow: hidden;" viewBox="0 0 1024 1024" version="1.1" xmlns="http://www.w3.org/2000/svg"><path d="M543.914667 128.042667h322.304l4.266666 0.597333 4.224 1.194667 2.602667 1.109333a30.72 30.72 0 0 1 9.301333 6.4l1.706667 1.877333 2.602667 3.498667 1.578666 2.773333 1.664 3.84 0.853334 2.730667 0.554666 2.730667 0.384 3.968v321.450666a32 32 0 0 1-63.701333 4.352l-0.256-4.352-0.042667-243.029333-594.773333 594.986667h242.773333a32 32 0 0 1 31.744 27.733333l0.298667 4.266667a32 32 0 0 1-27.690667 31.744l-4.309333 0.298666H158.464L157.184 896a30.08 30.08 0 0 1-7.978667-1.706667l-3.84-1.621333-0.768-0.426667a31.829333 31.829333 0 0 1-16.384-23.594666l-0.298666-4.48V544a32 32 0 0 1 63.701333-4.352l0.298667 4.352v242.858667L786.688 192l-242.773333 0.042667a32 32 0 0 1-31.701334-27.648l-0.298666-4.352a32 32 0 0 1 27.648-31.701334L543.914667 128z" /></svg>