<svg class="icon" style="width: 1em;height: 1em;vertical-align: middle;fill: currentColor;overflow: hidden;" viewBox="0 0 1024 1024" version="1.1" xmlns="http://www.w3.org/2000/svg"><path d="M448 789.333333h245.333333a32 32 0 0 1 0 64H448a277.333333 277.333333 0 1 1 0-554.666666h253.866667l-111.616-111.658667a32 32 0 0 1 45.226666-45.226667l165.632 165.632c4.266667 4.266667 7.082667 9.386667 8.448 14.848a32 32 0 0 1-8.746666 31.530667l-165.546667 165.546667a32 32 0 1 1-45.226667-45.269334l111.36-111.402666H448a213.333333 213.333333 0 0 0 0 426.666666z" /></svg>