<svg class="icon" style="width: 1em;height: 1em;vertical-align: middle;fill: currentColor;overflow: hidden;" viewBox="0 0 1024 1024" version="1.1" xmlns="http://www.w3.org/2000/svg"><path d="M324.096 654.933333a32 32 0 0 1 45.226667 45.226667l-132.053334 132.010667H330.666667a32 32 0 0 1 31.701333 27.648l0.298667 4.352a32 32 0 0 1-32 32h-170.666667a32 32 0 0 1-32-32v-170.666667a32 32 0 0 1 64 0v93.44l132.096-132.010667z m369.450667 241.237334a32 32 0 0 1 0-64h93.269333L654.933333 700.16a32 32 0 0 1-3.114666-41.642667l3.114666-3.584a32 32 0 0 1 45.226667 0l132.053333 132.096v-93.525333a32 32 0 0 1 27.648-31.701333l4.352-0.298667a32 32 0 0 1 32 32v170.666667a32 32 0 0 1-32 32h-170.666666zM330.666667 128a32 32 0 0 1 0 64H237.354667l131.968 132.053333a32 32 0 0 1 3.072 41.642667l-3.114667 3.626667a32 32 0 0 1-45.226667 0L192 237.098667V330.666667a32 32 0 0 1-27.648 31.701333L160 362.666667A32 32 0 0 1 128 330.666667v-170.666667A32 32 0 0 1 160 128h170.666667z m533.546666 0a32 32 0 0 1 32 32v170.666667a32 32 0 0 1-64 0V237.184L700.16 369.28a32 32 0 0 1-41.642667 3.114667l-3.584-3.114667a32 32 0 0 1 0-45.226667L786.858667 192h-93.312a32 32 0 0 1-31.701334-27.648l-0.298666-4.352a32 32 0 0 1 32-32h170.666666z" /></svg>