<svg class="icon" style="width: 1em;height: 1em;vertical-align: middle;fill: currentColor;overflow: hidden;" viewBox="0 0 1024 1024" version="1.1" xmlns="http://www.w3.org/2000/svg"><path d="M255.744 178.602667a32 32 0 0 1 2.986667 45.141333L230.528 256h122.112a32 32 0 0 1 0 64H230.528l28.202667 32.256a32 32 0 0 1-48.128 42.154667l-74.666667-85.333334a32 32 0 0 1 0-42.154666l74.666667-85.333334a32 32 0 0 1 45.141333-2.986666zM765.866667 223.744a32 32 0 0 1 48.213333-42.154667l74.666667 85.333334a32 32 0 0 1 0 42.154666l-74.666667 85.333334a32 32 0 0 1-48.213333-42.154667l28.245333-32.256H672a32 32 0 0 1 0-64h122.112l-28.245333-32.256zM256 672a32 32 0 0 1 32-32h448a32 32 0 0 1 0 64H288a32 32 0 0 1-32-32zM245.333333 469.333333A117.333333 117.333333 0 0 0 128 586.666667v170.666666a117.333333 117.333333 0 0 0 117.333333 117.333334h533.333334A117.333333 117.333333 0 0 0 896 757.333333v-170.666666A117.333333 117.333333 0 0 0 778.666667 469.333333H245.333333zM192 586.666667c0-29.44 23.893333-53.333333 53.333333-53.333334h533.333334c29.44 0 53.333333 23.893333 53.333333 53.333334v170.666666c0 29.44-23.893333 53.333333-53.333333 53.333334H245.333333c-29.44 0-53.333333-23.893333-53.333333-53.333334v-170.666666z" /></svg>