<svg class="icon" style="width: 1em;height: 1em;vertical-align: middle;fill: currentColor;overflow: hidden;" viewBox="0 0 1024 1024" version="1.1" xmlns="http://www.w3.org/2000/svg"><path d="M630.741333 94.72l191.786667 191.744a32 32 0 0 1 3.114667 41.642667l-3.072 3.626666-191.786667 192.170667a32 32 0 0 1-48.426667-41.6l3.114667-3.584 137.258667-137.514667H223.701333A32 32 0 0 1 192 313.6l-0.298667-4.309333a32 32 0 0 1 27.648-31.701334l4.352-0.298666 499.072-0.042667-137.301333-137.258667a32 32 0 0 1-3.072-41.642666l3.072-3.584a32 32 0 0 1 41.685333-3.114667l3.584 3.114667 191.786667 191.744-191.786667-191.744zM832 710.4l0.256 4.266667a32 32 0 0 1-27.648 31.744l-4.352 0.298666L301.354667 746.666667l137.386666 137.386666a32 32 0 0 1 3.157334 41.642667l-3.114667 3.584a32 32 0 0 1-41.642667 3.114667l-3.626666-3.072-192-191.872a32 32 0 0 1-3.114667-41.642667l3.114667-3.584 192-192.170667a32 32 0 0 1 48.384 41.642667l-3.114667 3.584L301.482667 682.666667h498.858666a32 32 0 0 1 31.701334 27.733333l0.256 4.266667-0.256-4.266667z" /></svg>