<svg class="icon" style="width: 1em;height: 1em;vertical-align: middle;fill: currentColor;overflow: hidden;" viewBox="0 0 1024 1024" version="1.1" xmlns="http://www.w3.org/2000/svg"><path d="M298.666667 202.666667A32 32 0 0 1 330.666667 170.666667H597.333333c84.437333 0 149.504 35.114667 192.853334 88.490666C832.853333 311.765333 853.333333 380.586667 853.333333 448s-20.48 136.234667-63.146666 188.842667C746.837333 690.218667 681.770667 725.333333 597.333333 725.333333H322.56l105.386667 105.386667a32 32 0 1 1-45.226667 45.226667l-160-160a32 32 0 0 1 0-45.226667l160-160a32 32 0 1 1 45.226667 45.226667L322.56 661.333333H597.333333c64.896 0 111.786667-26.24 143.146667-64.853333 32-39.381333 48.853333-93.226667 48.853333-148.48s-16.896-109.098667-48.853333-148.48C709.162667 260.864 662.229333 234.666667 597.333333 234.666667H330.666667A32 32 0 0 1 298.666667 202.666667z" /></svg>