<svg class="icon" style="width: 1em;height: 1em;vertical-align: middle;fill: currentColor;overflow: hidden;" viewBox="0 0 1024 1024" version="1.1" xmlns="http://www.w3.org/2000/svg"><path d="M136.362667 91.605333l3.584 3.114667 789.333333 789.333333a32 32 0 0 1-41.642667 48.341334l-3.584-3.114667-149.717333-149.674667c-18.602667 5.12-37.973333 8.277333-57.941333 9.344l-15.061334 0.384H365.397333l81.066667 81.066667 2.816 3.242667a32 32 0 0 1-44.501333 45.056l-3.584-3.072-135.765334-135.765334-2.858666-3.285333a32 32 0 0 1-0.256-38.357333l3.114666-3.626667 135.765334-135.765333 3.285333-2.858667a32 32 0 0 1 38.357333-0.256l3.584 3.114667 2.901334 3.285333a32 32 0 0 1 0.213333 38.357333l-3.114667 3.626667L365.141333 725.333333H661.333333c6.058667 0 12.074667-0.256 17.962667-0.725333L273.152 318.293333a213.333333 213.333333 0 0 0-68.266667 337.237334 32 32 0 0 1-47.36 42.965333A276.053333 276.053333 0 0 1 85.333333 512a277.248 277.248 0 0 1 140.245334-241.152L94.72 139.946667a32 32 0 0 1 41.642667-48.341334zM842.666667 314.794667c9.386667 0 17.749333 4.010667 23.594666 10.410666A276.053333 276.053333 0 0 1 938.666667 512c0 87.765333-40.746667 165.973333-104.362667 216.789333l-45.610667-45.653333A213.034667 213.034667 0 0 0 874.666667 512c0-55.722667-21.333333-106.453333-56.32-144.469333a32 32 0 0 1 24.32-52.736z m-222.592-212.266667l3.285333 2.858667 135.765333 135.765333a32 32 0 0 1 2.858667 41.984l-2.858667 3.242667-135.765333 135.765333a32 32 0 0 1-48.128-41.984l2.901333-3.242667L656.213333 298.666667H404.181333l-63.146666-63.146667a280.32 280.32 0 0 1 11.690666-0.682667L362.666667 234.666667h299.562666L578.133333 150.613333a32 32 0 0 1-2.858666-41.984l2.901333-3.242666a32 32 0 0 1 41.941333-2.858667z" /></svg>