<svg class="icon" style="width: 1em;height: 1em;vertical-align: middle;fill: currentColor;overflow: hidden;" viewBox="0 0 1024 1024" version="1.1" xmlns="http://www.w3.org/2000/svg"><path d="M682.666667 352a32 32 0 0 1 64 0v138.666667a32 32 0 0 1-32 32H597.333333a32 32 0 0 1 0-64h54.186667A149.418667 149.418667 0 0 0 512 362.666667c-46.634667 0-86.912 19.797333-114.048 52.48a32 32 0 1 1-49.237333-40.96C388.096 326.826667 446.421333 298.666667 512 298.666667c69.802667 0 131.754667 33.493333 170.666667 85.333333v-32zM341.333333 640v32a32 32 0 0 1-64 0v-128a32 32 0 0 1 32-32H426.666667a32 32 0 0 1 0 64H377.045333a149.888 149.888 0 0 0 249.258667 32.64 32 32 0 1 1 48.725333 41.472A213.888 213.888 0 0 1 341.333333 640z m170.666667-554.666667C276.352 85.333333 85.333333 276.352 85.333333 512s191.018667 426.666667 426.666667 426.666667 426.666667-191.018667 426.666667-426.666667S747.648 85.333333 512 85.333333z m362.666667 426.666667a362.666667 362.666667 0 1 1-725.333334 0 362.666667 362.666667 0 0 1 725.333334 0z" /></svg>