<svg class="icon" style="width: 1em;height: 1em;vertical-align: middle;fill: currentColor;overflow: hidden;" viewBox="0 0 1024 1024" version="1.1" xmlns="http://www.w3.org/2000/svg"><path d="M85.333333 202.666667A32 32 0 0 1 117.333333 170.666667h789.333334a32 32 0 0 1 0 64H117.333333A32 32 0 0 1 85.333333 202.666667z m180.053334 148.053333a32 32 0 0 1 45.226666 0l128 128a32 32 0 1 1-45.226666 45.226667L320 450.56v349.44a32 32 0 0 1-64 0v-349.44l-73.386667 73.386667a32 32 0 0 1-45.226666-45.226667l128-128z m225.28 22.613333a32 32 0 0 1 32-32h384a32 32 0 0 1 0 64h-384a32 32 0 0 1-32-32z" /></svg>