<svg class="icon" style="width: 1em;height: 1em;vertical-align: middle;fill: currentColor;overflow: hidden;" viewBox="0 0 1024 1024" version="1.1" xmlns="http://www.w3.org/2000/svg"><path d="M623.36 105.386667l-3.285333-2.858667a31.914667 31.914667 0 0 0-41.941334 2.858667l-2.901333 3.328a32.213333 32.213333 0 0 0 2.901333 42.112l84.096 84.352H362.666667l-9.941334 0.170666C204.16 240.597333 85.333333 363.093333 85.333333 513.536c0 72.106667 27.306667 137.813333 72.192 187.306667l3.072 2.944a32.042667 32.042667 0 0 0 46.08-44.074667l-8.533333-9.856A213.717333 213.717333 0 0 1 149.333333 513.493333c0-118.229333 95.530667-214.101333 213.333334-214.101333h293.589333l-78.165333 78.506667-2.858667 3.328a32.213333 32.213333 0 0 0 2.901333 42.112 31.914667 31.914667 0 0 0 45.226667 0l135.765333-136.234667 2.858667-3.328a32.213333 32.213333 0 0 0-2.858667-42.112L623.36 105.386667z m239.786667 217.642666a32.042667 32.042667 0 0 0-44.8 45.482667 213.76 213.76 0 0 1 56.32 144.981333c0 118.272-95.530667 214.144-213.333334 214.144H365.141333l81.28-81.536 3.157334-3.669333a32.213333 32.213333 0 0 0-0.298667-38.485333l-2.858667-3.285334-3.584-3.114666a31.914667 31.914667 0 0 0-38.4 0.256l-3.242666 2.858666-135.765334 136.277334-3.114666 3.626666a32.213333 32.213333 0 0 0 0.256 38.485334l2.858666 3.285333 135.765334 136.277333 3.584 3.072c12.501333 9.386667 30.293333 8.32 41.642666-3.114666a32.213333 32.213333 0 0 0 2.901334-42.112l-2.901334-3.285334-81.024-81.322666H661.333333l9.941334-0.170667C819.84 786.432 938.666667 663.893333 938.666667 513.493333a277.888 277.888 0 0 0-72.405334-187.52l-3.114666-2.944z" /></svg>