<svg class="icon" style="width: 1em;height: 1em;vertical-align: middle;fill: currentColor;overflow: hidden;" viewBox="0 0 1024 1024" version="1.1" xmlns="http://www.w3.org/2000/svg"><path d="M906.666667 192a32 32 0 0 1 31.701333 27.648L938.666667 224v554.837333a32 32 0 0 1-63.701334 4.352l-0.298666-4.352V224a32 32 0 0 1 32-32z m-367.061334 76.970667l3.114667-3.584a32 32 0 0 1 41.685333-3.114667l3.584 3.114667 213.162667 213.205333a32 32 0 0 1 3.114667 41.642667l-3.072 3.626666-213.205334 213.461334a32 32 0 0 1-48.384-41.642667l3.114667-3.584 158.293333-158.592H117.333333a32 32 0 0 1-31.701333-27.605333L85.333333 501.546667a32 32 0 0 1 27.690667-31.701334l4.309333-0.298666 584.277334-0.042667L542.72 310.613333a32 32 0 0 1-3.114667-41.642666l3.114667-3.584-3.114667 3.584z" /></svg>