<svg class="icon" style="width: 1em;height: 1em;vertical-align: middle;fill: currentColor;overflow: hidden;" viewBox="0 0 1024 1024" version="1.1" xmlns="http://www.w3.org/2000/svg"><path d="M564.053333 734.677333a32 32 0 0 0-3.114666 41.642667l3.114666 3.584 100.992 101.12a32.853333 32.853333 0 0 0 28.330667 14.976 33.536 33.536 0 0 0 26.069333-11.776l2.261334-3.2 100.992-101.12 3.114666-3.584a32 32 0 0 0 0.298667-37.632l-3.413333-4.010667-3.584-3.114666a32 32 0 0 0-37.674667-0.298667l-4.010667 3.413333L725.333333 786.773333V155.989333l-0.298666-3.797333c-2.133333-13.653333-15.488-24.192-31.701334-24.192s-29.610667 10.538667-31.701333 24.192l-0.298667 3.84V786.773333l-52.053333-52.096-3.584-3.114666a32 32 0 0 0-41.642667 3.114666z m-297.386666 118.997334A96 96 0 0 1 170.666667 757.674667v-490.666667a96 96 0 0 1 96-96h256a32 32 0 0 1 0 64h-256a32 32 0 0 0-32 32v490.666667c0 17.664 14.336 32 32 32h170.666666a32 32 0 0 1 0 64h-170.666666z" /></svg>