<svg class="icon" style="width: 1em;height: 1em;vertical-align: middle;fill: currentColor;overflow: hidden;" viewBox="0 0 1024 1024" version="1.1" xmlns="http://www.w3.org/2000/svg"><path d="M512 128a384 384 0 0 1 212.352 704h75.648a32 32 0 0 1 4.352 63.701333L800 896h-170.666667a32 32 0 0 1-31.701333-27.648L597.333333 864v-170.666667a32 32 0 0 1 63.701334-4.352l0.298666 4.352 0.042667 101.76A320.042667 320.042667 0 0 0 512 192 320 320 0 0 0 192 512 32 32 0 0 1 128 512a384 384 0 0 1 384-384z m0 266.666667a117.333333 117.333333 0 1 1 0 234.666666 117.333333 117.333333 0 0 1 0-234.666666z m0 64a53.333333 53.333333 0 1 0 0 106.666666 53.333333 53.333333 0 0 0 0-106.666666z" /></svg>