<svg class="icon" style="width: 1em;height: 1em;vertical-align: middle;fill: currentColor;overflow: hidden;" viewBox="0 0 1024 1024" version="1.1" xmlns="http://www.w3.org/2000/svg"><path d="M318.72 523.989333l3.584 3.114667a32 32 0 0 0 41.685333-3.114667l116.053334-116.053333v285.44l0.256 4.352a32 32 0 0 0 31.701333 27.648l4.352-0.256a32 32 0 0 0 27.648-31.744V407.893333l116.053333 116.138667 3.626667 3.072a32 32 0 0 0 41.685333-48.341333l-170.666666-170.709334-3.626667-3.114666a32 32 0 0 0-41.642667 3.114666l-170.709333 170.666667-3.114667 3.626667a32 32 0 0 0 3.114667 41.642666zM938.666667 512.042667c0-235.648-190.976-426.666667-426.666667-426.666667-235.605333 0-426.666667 191.018667-426.666667 426.666667s191.061333 426.666667 426.666667 426.666666c235.690667 0 426.666667-191.018667 426.666667-426.666666z m-789.333334 0a362.666667 362.666667 0 1 1 725.333334 0 362.666667 362.666667 0 0 1-725.333334 0z" /></svg>