<svg class="icon" style="width: 1em;height: 1em;vertical-align: middle;fill: currentColor;overflow: hidden;" viewBox="0 0 1024 1024" version="1.1" xmlns="http://www.w3.org/2000/svg"><path d="M289.28 116.053333a32 32 0 0 1 0 45.226667L194.56 256h370.773333a330.666667 330.666667 0 1 1-330.666666 330.666667 32 32 0 0 1 64 0 266.666667 266.666667 0 1 0 266.666666-266.666667H194.56l94.72 94.72a32 32 0 1 1-45.226667 45.226667l-149.333333-149.333334a32 32 0 0 1 0-45.226666l149.333333-149.333334a32 32 0 0 1 45.226667 0z" /></svg>