<svg class="icon" style="width: 1em;height: 1em;vertical-align: middle;fill: currentColor;overflow: hidden;" viewBox="0 0 1024 1024" version="1.1" xmlns="http://www.w3.org/2000/svg"><path d="M480 128.042667H157.781333l-4.266666 0.597333-4.224 1.194667-2.56 1.109333a30.72 30.72 0 0 0-9.344 6.4l-1.706667 1.877333-2.602667 3.498667-1.578666 2.773333-1.706667 3.84-0.768 2.730667-0.597333 2.730667-0.426667 3.968v321.450666a32 32 0 0 0 63.701333 4.352l0.298667-4.352V237.184l649.386667 649.6a32 32 0 0 0 41.685333 3.114667l3.584-3.114667a32 32 0 0 0 3.114667-41.642667l-3.114667-3.584L237.226667 192l242.773333 0.042667a32 32 0 0 0 31.744-27.648L512 160a32 32 0 0 0-27.648-31.701333L480 128z" /></svg>