<svg class="icon" style="width: 1em;height: 1em;vertical-align: middle;fill: currentColor;overflow: hidden;" viewBox="0 0 1024 1024" version="1.1" xmlns="http://www.w3.org/2000/svg"><path d="M117.418667 192a32 32 0 0 1 31.744 27.648l0.256 4.352L149.333333 778.837333a32 32 0 0 1-63.701333 4.352L85.333333 778.837333 85.418667 224a32 32 0 0 1 32-32z m550.186666 76.970667l3.114667-3.584a32 32 0 0 1 41.642667-3.114667l3.584 3.114667 213.205333 213.205333a32 32 0 0 1 3.114667 41.642667l-3.114667 3.626666-213.162667 213.461334a32 32 0 0 1-48.384-41.642667l3.072-3.584 158.336-158.592H245.461333a32 32 0 0 1-31.701333-27.605333l-0.298667-4.352a32 32 0 0 1 27.648-31.701334l4.352-0.298666 584.106667-0.042667L670.72 310.613333a32 32 0 0 1-3.114667-41.642666l3.114667-3.584-3.114667 3.584z" /></svg>