<svg class="icon" style="width: 1em;height: 1em;vertical-align: middle;fill: currentColor;overflow: hidden;" viewBox="0 0 1024 1024" version="1.1" xmlns="http://www.w3.org/2000/svg"><path d="M864 128a32 32 0 0 1 32 32v213.333333a32 32 0 0 1-64 0V237.226667l-254.72 254.72a32 32 0 0 1-45.226667 0l-94.72-94.72-254.72 254.72a32 32 0 0 1-45.226666-45.226667l277.333333-277.333333a32 32 0 0 1 45.226667 0L554.666667 424.106667l232.106666-232.106667h-136.106666a32 32 0 0 1 0-64h213.333333z m-254.805333 468.266667a85.333333 85.333333 0 0 1-61.44 106.538666l-24.96 6.144a244.437333 244.437333 0 0 0 0.256 77.098667l23.04 5.546667a85.333333 85.333333 0 0 1 61.866666 107.093333l-7.978666 26.965333c18.773333 16.469333 40.106667 29.824 63.36 39.296l21.034666-22.101333a85.333333 85.333333 0 0 1 123.690667 0l21.290667 22.4a225.365333 225.365333 0 0 0 63.274666-38.954667l-8.490666-29.269333a85.333333 85.333333 0 0 1 61.525333-106.496l24.874667-6.144a244.437333 244.437333 0 0 0-0.256-77.141333l-22.997334-5.546667a85.333333 85.333333 0 0 1-61.866666-107.093333l7.936-26.88a225.194667 225.194667 0 0 0-63.317334-39.381334l-21.034666 22.144a85.333333 85.333333 0 0 1-123.733334 0l-21.248-22.4c-23.168 9.386667-44.501333 22.613333-63.274666 38.912l8.448 29.269334zM746.666667 810.666667c-34.133333 0-61.866667-28.672-61.866667-64 0-35.370667 27.733333-64 61.866667-64 34.133333 0 61.866667 28.629333 61.866666 64 0 35.328-27.733333 64-61.866666 64z" /></svg>