<svg class="icon" style="width: 1em;height: 1em;vertical-align: middle;fill: currentColor;overflow: hidden;" viewBox="0 0 1024 1024" version="1.1" xmlns="http://www.w3.org/2000/svg"><path d="M864 128a32 32 0 0 1 32 32v213.333333a32 32 0 0 1-64 0V237.226667l-254.72 254.72a32 32 0 0 1-45.226667 0l-94.72-94.72-254.72 254.72a32 32 0 0 1-45.226666-45.226667l277.333333-277.333333a32 32 0 0 1 45.226667 0L554.666667 424.106667l232.106666-232.106667h-136.106666a32 32 0 0 1 0-64h213.333333zM981.333333 746.666667a234.666667 234.666667 0 1 1-469.333333 0 234.666667 234.666667 0 0 1 469.333333 0z m-91.562666-100.437334a21.333333 21.333333 0 0 0-30.208 0L704 801.834667l-70.229333-70.272a21.333333 21.333333 0 0 0-30.208 30.208l85.333333 85.333333a21.333333 21.333333 0 0 0 30.208 0l170.666667-170.666667a21.333333 21.333333 0 0 0 0-30.208z" /></svg>