<svg class="icon" style="width: 1em;height: 1em;vertical-align: middle;fill: currentColor;overflow: hidden;" viewBox="0 0 1024 1024" version="1.1" xmlns="http://www.w3.org/2000/svg"><path d="M448.426667 405.333333h202.24a32 32 0 0 0 0-64h-277.333334a32 32 0 0 0-32 32v277.333334a32 32 0 0 0 64 0v-197.930667l222.805334 220.672a32 32 0 0 0 45.056-45.482667L448.384 405.333333zM938.666667 512c0 235.648-191.018667 426.666667-426.666667 426.666667S85.333333 747.648 85.333333 512 276.352 85.333333 512 85.333333s426.666667 191.018667 426.666667 426.666667z m-426.666667 362.666667a362.666667 362.666667 0 1 0 0-725.333334 362.666667 362.666667 0 0 0 0 725.333334z" /></svg>