<svg class="icon" style="width: 1em;height: 1em;vertical-align: middle;fill: currentColor;overflow: hidden;" viewBox="0 0 1024 1024" version="1.1" xmlns="http://www.w3.org/2000/svg"><path d="M853.333333 906.666667a32 32 0 0 1-32 32h-277.333333A160 160 0 0 1 384 778.666667V195.626667l-158.72 158.72a32 32 0 0 1-41.642667 3.072l-3.584-3.072a32 32 0 0 1-3.114666-41.685334l3.114666-3.584 213.333334-213.333333a32 32 0 0 1 41.642666-3.114667l3.584 3.114667 213.333334 213.333333a32 32 0 0 1-41.642667 48.341334l-3.584-3.072-158.72-158.72V778.666667a96 96 0 0 0 89.429333 95.744l6.570667 0.256h277.333333a32 32 0 0 1 32 32z" /></svg>