<svg class="icon" style="width: 1em;height: 1em;vertical-align: middle;fill: currentColor;overflow: hidden;" viewBox="0 0 1024 1024" version="1.1" xmlns="http://www.w3.org/2000/svg"><path d="M714.624 85.333333h194.304l4.266667 0.597334 4.224 1.194666 2.56 1.109334c3.413333 1.450667 6.528 3.626667 9.344 6.4l1.706666 1.877333 1.877334 2.432 2.304 3.84 1.664 3.84 0.810666 2.730667 0.597334 2.730666 0.384 4.053334v193.365333a32 32 0 0 1-63.701334 4.352l-0.298666-4.352V194.517333l-274.773334 274.773334a32 32 0 0 1-41.642666 3.114666L554.666667 469.333333 425.386667 345.173333l-242.773334 242.730667a32 32 0 0 1-48.341333-41.685333l3.114667-3.584 265.386666-265.386667a32 32 0 0 1 41.642667-3.072l3.584 3.072 129.28 124.16L829.354667 149.333333h-114.773334a32 32 0 0 1-31.658666-27.648l-0.298667-4.352a32 32 0 0 1 27.648-31.701333L714.666667 85.333333zM160 725.333333a32 32 0 0 1 32 32v149.333334a32 32 0 0 1-64 0v-149.333334a32 32 0 0 1 32-32z m245.333333-138.666666a32 32 0 0 0-64 0v320a32 32 0 0 0 64 0v-320zM586.666667 640a32 32 0 0 1 32 32v234.666667a32 32 0 0 1-64 0v-234.666667a32 32 0 0 1 32-32z m245.333333-181.333333a32 32 0 0 0-64 0v448a32 32 0 0 0 64 0v-448z" /></svg>