<svg class="icon" style="width: 1em;height: 1em;vertical-align: middle;fill: currentColor;overflow: hidden;" viewBox="0 0 1024 1024" version="1.1" xmlns="http://www.w3.org/2000/svg"><path d="M628.181333 692.096a32 32 0 0 0 45.269334 45.226667l213.205333-213.461334a32 32 0 0 0 0-45.226666L673.408 265.386667a32 32 0 0 0-45.269333 45.226666l158.72 158.72h-334.592c-68.053333 0-119.893333 10.325333-165.930667 32.597334l-10.496 5.376a264.618667 264.618667 0 0 0-109.909333 109.909333C139.946667 665.856 128 720.384 128 793.6a32 32 0 0 0 64 0c0-63.317333 9.728-107.52 30.421333-146.261333a200.618667 200.618667 0 0 1 83.626667-83.626667c35.712-19.114667 76.202667-28.842667 132.010667-30.250667l14.250666-0.170666h334.378667l-158.506667 158.762666z" /></svg>