<svg class="icon" style="width: 1em;height: 1em;vertical-align: middle;fill: currentColor;overflow: hidden;" viewBox="0 0 1024 1024" version="1.1" xmlns="http://www.w3.org/2000/svg"><path d="M778.666667 874.666667a32 32 0 1 1 0 64l-554.666667 0.170666a32 32 0 1 1 0-64l554.666667-0.170666zM496.981333 85.845333l4.352-0.298666a32 32 0 0 1 31.701334 27.648l0.298666 4.352-0.042666 583.893333 158.805333-158.72a32 32 0 0 1 41.642667-3.114667l3.626666 3.114667a32 32 0 0 1 3.072 41.642667l-3.114666 3.584-213.205334 213.205333a32 32 0 0 1-41.642666 3.114667l-3.626667-3.114667-213.461333-213.162667a32 32 0 0 1 41.642666-48.384l3.584 3.072 158.677334 158.464L469.333333 117.546667a32 32 0 0 1 27.648-31.701334l4.352-0.298666-4.352 0.298666z" /></svg>