<svg class="icon" style="width: 1em;height: 1em;vertical-align: middle;fill: currentColor;overflow: hidden;" viewBox="0 0 1024 1024" version="1.1" xmlns="http://www.w3.org/2000/svg"><path d="M821.333333 85.333333a32 32 0 0 0-31.701333 27.648l-0.298667 4.352v242.773334l-195.157333-194.56a273.493333 273.493333 0 0 0-378.794667-7.637334l-7.936 7.68a273.493333 273.493333 0 0 0 0 386.688l377.386667 377.173334a32 32 0 0 0 45.226667-45.312l-377.386667-377.088a209.493333 209.493333 0 0 1 288.682667-303.445334l7.594666 7.253334L744.021333 405.333333H501.333333a32 32 0 0 0-31.701333 27.648L469.333333 437.333333c0 16.213333 12.032 29.610667 27.648 31.701334l4.352 0.298666h320a32 32 0 0 0 31.701334-27.648L853.333333 437.333333v-320a32 32 0 0 0-32-32z" /></svg>