<svg class="icon" style="width: 1em;height: 1em;vertical-align: middle;fill: currentColor;overflow: hidden;" viewBox="0 0 1024 1024" version="1.1" xmlns="http://www.w3.org/2000/svg"><path d="M512 85.376c235.690667 0 426.666667 191.018667 426.666667 426.666667s-190.976 426.666667-426.666667 426.666666c-235.605333 0-426.666667-191.018667-426.666667-426.666666s191.061333-426.666667 426.666667-426.666667z m0 64a362.666667 362.666667 0 1 0 0 725.333333 362.666667 362.666667 0 0 0 0-725.333333z m-15.018667 172.928l3.072-3.584a32 32 0 0 1 41.685334-3.114667l3.584 3.114667 170.666666 170.666667a32 32 0 0 1 3.114667 41.685333l-3.072 3.626667-170.752 170.666666a32 32 0 0 1-48.341333-41.685333l3.114666-3.584 116.138667-116.096H330.666667a32 32 0 0 1-31.701334-27.648L298.666667 512a32 32 0 0 1 27.648-31.701333l4.352-0.298667h285.44l-116.053334-116.053333a32 32 0 0 1-3.072-41.642667l3.072-3.584-3.072 3.584z" /></svg>