<svg class="icon" style="width: 1em;height: 1em;vertical-align: middle;fill: currentColor;overflow: hidden;" viewBox="0 0 1024 1024" version="1.1" xmlns="http://www.w3.org/2000/svg"><path d="M640.042667 383.957333H384.170667l0.042666-96a32 32 0 0 0-54.101333-23.125333l-234.794667 224a32 32 0 0 0 0 46.336l234.837334 224 3.498666 2.901333a32 32 0 0 0 50.56-26.069333V640H640v96c0 28.16 33.792 42.581333 54.144 23.125333l234.538667-224a32 32 0 0 0 0-46.293333l-234.538667-224a32 32 0 0 0-54.101333 23.168v95.957333z m-476.330667 128l156.458667-149.248 0.042666 53.248c0 17.706667 14.336 32 32 32h319.872l4.352-0.298666a32 32 0 0 0 27.648-31.701334V362.794667L860.202667 512l-156.16 149.162667V608a32 32 0 0 0-32-32H352.213333l-4.352 0.298667a32 32 0 0 0-27.648 31.701333v53.248L163.669333 512z" /></svg>