<svg class="icon" style="width: 1em;height: 1em;vertical-align: middle;fill: currentColor;overflow: hidden;" viewBox="0 0 1024 1024" version="1.1" xmlns="http://www.w3.org/2000/svg"><path d="M497.066667 170.965333l4.266666-0.298666a32 32 0 0 1 31.744 27.648l0.298667 4.352-0.042667 541.696 137.386667-137.429334a32 32 0 0 1 41.642667-3.114666l3.584 3.072a32 32 0 0 1 3.114666 41.685333l-3.072 3.584-191.872 192a32 32 0 0 1-41.642666 3.114667l-3.584-3.114667-192.170667-192a32 32 0 0 1 41.642667-48.341333l3.584 3.072L469.333333 744.192V202.666667a32 32 0 0 1 27.733334-31.701334l4.266666-0.298666-4.266666 0.298666z" /></svg>