<svg class="icon" style="width: 1em;height: 1em;vertical-align: middle;fill: currentColor;overflow: hidden;" viewBox="0 0 1024 1024" version="1.1" xmlns="http://www.w3.org/2000/svg"><path d="M585.386667 246.613333a32 32 0 1 0 45.226666-45.226666l-106.666666-106.666667a32 32 0 0 0-45.226667 0l-106.666667 106.666667a32 32 0 0 0 45.226667 45.226666L469.333333 194.56v178.773333a32 32 0 0 0 64 0V194.56l52.053334 52.053333zM170.666667 501.333333a32 32 0 0 1 32-32h618.666666a32 32 0 0 1 0 64H202.666667a32 32 0 0 1-32-32zM533.333333 629.333333a32 32 0 0 0-64 0v200.106667l-52.053333-52.053333a32 32 0 0 0-45.226667 45.226666l106.666667 106.666667a32 32 0 0 0 45.226667 0l106.666666-106.666667a32 32 0 1 0-45.226666-45.226666l-52.053334 52.053333v-200.106667z" /></svg>