<svg class="icon" style="width: 1em;height: 1em;vertical-align: middle;fill: currentColor;overflow: hidden;" viewBox="0 0 1024 1024" version="1.1" xmlns="http://www.w3.org/2000/svg"><path d="M705.28 500.053333l-3.584-3.157333a32 32 0 0 0-41.685333 3.114667l-116.053334 116.053333v-285.44l-0.298666-4.352A32 32 0 0 0 512 298.624l-4.309333 0.298667a32 32 0 0 0-27.690667 31.701333v285.525333l-116.053333-116.138666-3.584-3.114667a32 32 0 0 0-41.685334 48.341333l170.666667 170.752 3.584 3.072a32 32 0 0 0 41.685333-3.072l170.666667-170.709333 3.114667-3.584a32 32 0 0 0-3.072-41.685333zM85.290667 512c0 235.605333 191.018667 426.666667 426.666666 426.666667s426.666667-191.061333 426.666667-426.666667c0-235.690667-191.018667-426.666667-426.666667-426.666667s-426.666667 190.976-426.666666 426.666667z m789.333333 0a362.666667 362.666667 0 1 1-725.333333 0 362.666667 362.666667 0 0 1 725.333333 0z" /></svg>