<svg class="icon" style="width: 1em;height: 1em;vertical-align: middle;fill: currentColor;overflow: hidden;" viewBox="0 0 1024 1024" version="1.1" xmlns="http://www.w3.org/2000/svg"><path d="M480 586.666667l-3.626667-3.114667a32 32 0 0 0-41.642666 3.072l-29.44 29.44v-285.44l-0.298667-4.352a32 32 0 0 0-31.701333-27.648l-4.352 0.298667A32 32 0 0 0 341.333333 330.624v285.525333l-29.44-29.525333-3.584-3.072a32 32 0 0 0-41.642666 48.341333l84.010666 84.053334 3.584 3.114666a32 32 0 0 0 41.685334-3.072l84.053333-84.096 3.114667-3.584a32 32 0 0 0-3.072-41.685333zM85.290667 512c0 235.605333 191.018667 426.666667 426.666666 426.666667s426.666667-191.061333 426.666667-426.666667c0-235.690667-191.018667-426.666667-426.666667-426.666667s-426.666667 190.976-426.666666 426.666667z m789.333333 0a362.666667 362.666667 0 1 1-725.333333 0 362.666667 362.666667 0 0 1 725.333333 0z m-117.333333 74.666667l-3.584-3.114667a32 32 0 0 0-41.642667 3.072l-29.44 29.44v-285.44l-0.298667-4.352a32 32 0 0 0-31.701333-27.648l-4.352 0.298667a32 32 0 0 0-27.648 31.701333v285.482667l-29.44-29.44-3.541333-3.114667a32 32 0 0 0-41.685334 48.341333l84.010667 84.053334 3.584 3.114666a32 32 0 0 0 41.685333-3.072l84.053334-84.096 3.114666-3.584a32 32 0 0 0-3.072-41.685333z" /></svg>