<svg class="icon" style="width: 1em;height: 1em;vertical-align: middle;fill: currentColor;overflow: hidden;" viewBox="0 0 1024 1024" version="1.1" xmlns="http://www.w3.org/2000/svg"><path d="M705.28 500.053333l-3.584-3.072a32 32 0 0 0-41.642667 3.072l-116.053333 116.053334V330.666667l-0.298667-4.352A32 32 0 0 0 512 298.666667l-4.352 0.298666a32 32 0 0 0-27.648 31.701334v285.525333L363.946667 500.053333l-3.626667-3.114666a32 32 0 0 0-41.642667 48.341333l170.666667 170.752 3.584 3.072a32 32 0 0 0 41.642667-3.072l170.709333-170.666667 3.114667-3.626666a32 32 0 0 0-3.114667-41.685334zM266.666667 128A138.666667 138.666667 0 0 0 128 266.666667v490.666666A138.666667 138.666667 0 0 0 266.666667 896h490.666666A138.666667 138.666667 0 0 0 896 757.333333V266.666667A138.666667 138.666667 0 0 0 757.333333 128H266.666667zM192 266.666667c0-41.216 33.450667-74.666667 74.666667-74.666667h490.666666c41.216 0 74.666667 33.450667 74.666667 74.666667v490.666666a74.666667 74.666667 0 0 1-74.666667 74.666667H266.666667a74.666667 74.666667 0 0 1-74.666667-74.666667V266.666667z" /></svg>