<svg class="icon" style="width: 1em;height: 1em;vertical-align: middle;fill: currentColor;overflow: hidden;" viewBox="0 0 1024 1024" version="1.1" xmlns="http://www.w3.org/2000/svg"><path d="M298.666667 821.333333c0 17.664 14.336 32 32 32H597.333333c84.437333 0 149.504-35.114667 192.853334-88.490666 42.666667-52.608 63.146667-121.429333 63.146666-188.842667s-20.48-136.234667-63.146666-188.842667C746.837333 333.781333 681.770667 298.666667 597.333333 298.666667H322.56l105.386667-105.386667a32 32 0 1 0-45.226667-45.226667L222.72 308.053333a32 32 0 0 0 0 45.226667l160 160a32 32 0 1 0 45.226667-45.226667L322.56 362.666667H597.333333c64.896 0 111.786667 26.24 143.146667 64.853333 32 39.381333 48.853333 93.226667 48.853333 148.48s-16.896 109.098667-48.853333 148.48c-31.317333 38.613333-78.250667 64.853333-143.146667 64.853333H330.666667a32 32 0 0 0-32 32z" /></svg>