<svg class="icon" style="width: 1em;height: 1em;vertical-align: middle;fill: currentColor;overflow: hidden;" viewBox="0 0 1024 1024" version="1.1" xmlns="http://www.w3.org/2000/svg"><path d="M144.810667 892.373333a31.957333 31.957333 0 0 1-16.597334-23.68l-0.298666-4.48v-320.170666a32 32 0 0 1 63.701333-4.309334l0.298667 4.309334-0.042667 242.944L841.386667 137.386667a32 32 0 0 1 41.685333-3.114667l3.584 3.114667a32 32 0 0 1 3.114667 41.642666l-3.114667 3.584L237.141333 832.213333h242.858667a32 32 0 0 1 31.701333 27.648l0.298667 4.352a32 32 0 0 1-27.690667 31.701334l-4.309333 0.298666-322.56-0.128a30.72 30.72 0 0 1-9.984-2.389333l-2.645333-1.28z" /></svg>