<svg class="icon" style="width: 1em;height: 1em;vertical-align: middle;fill: currentColor;overflow: hidden;" viewBox="0 0 1024 1024" version="1.1" xmlns="http://www.w3.org/2000/svg"><path d="M736 170.666667l-4.266667 0.298666a32 32 0 0 0-27.733333 31.701334v541.525333l-137.386667-137.301333-3.584-3.072a32 32 0 0 0-41.642666 48.384l192.170666 192 3.584 3.072a32 32 0 0 0 41.642667-3.114667l191.872-192 3.072-3.584a32 32 0 0 0-3.114667-41.685333l-3.584-3.072a32 32 0 0 0-41.685333 3.114666L768 744.362667V202.666667l-0.256-4.352A32 32 0 0 0 736.042667 170.666667z m-470.869333 9.386666L73.386667 371.84l-3.114667 3.584a32 32 0 0 0 3.114667 41.642667l3.584 3.114666a32 32 0 0 0 41.642666-3.114666l137.258667-137.301334v541.781334l0.341333 4.352a32 32 0 0 0 31.701334 27.648l4.309333-0.298667a32 32 0 0 0 27.690667-31.701333L319.872 279.850667l137.514667 137.258666 3.584 3.072a32 32 0 0 0 41.6-48.384L310.4 180.053333l-3.626667-3.072a32 32 0 0 0-41.642666 3.114667z" /></svg>