<svg class="icon" style="width: 1em;height: 1em;vertical-align: middle;fill: currentColor;overflow: hidden;" viewBox="0 0 1024 1024" version="1.1" xmlns="http://www.w3.org/2000/svg"><path d="M699.776 144.128a32 32 0 0 0-43.648-11.946667c-96.810667 55.338667-144.682667 126.037333-167.296 200.96-19.968 66.261333-19.754667 135.082667-19.541333 193.834667l0.042666 17.066667v242.688l-158.72-158.72a32 32 0 1 0-45.226666 45.269333l213.333333 213.333333a32 32 0 0 0 45.226667 0l213.333333-213.333333a32 32 0 0 0-45.226667-45.226667l-158.72 158.72v-242.773333-16.213333c-0.170667-60.202667-0.298667-119.552 16.768-176.128 17.92-59.477333 55.381333-116.778667 137.813334-163.84a32 32 0 0 0 11.861333-43.690667z" /></svg>