<svg class="icon" style="width: 1em;height: 1em;vertical-align: middle;fill: currentColor;overflow: hidden;" viewBox="0 0 1024 1024" version="1.1" xmlns="http://www.w3.org/2000/svg"><path d="M432.170667 136.32a385.408 385.408 0 0 1 159.658666 0 32 32 0 1 1-13.226666 62.592 321.450667 321.450667 0 0 0-133.205334 0 32 32 0 0 1-13.226666-62.592z m244.736 62.976a32 32 0 0 1 44.288-9.386667 385.28 385.28 0 0 1 46.805333 35.84V181.333333a32 32 0 0 1 64 0v128a32 32 0 0 1-32 32h-128a32 32 0 0 1 0-64h57.6a321.578667 321.578667 0 0 0-43.306667-33.749333 32 32 0 0 1-9.386666-44.288zM832 512v-32a32 32 0 0 1 64 0V512c0 27.306667-2.858667 54.058667-8.32 79.829333a32 32 0 0 1-62.592-13.226666A321.621333 321.621333 0 0 0 832 512zM347.093333 199.296a32 32 0 0 1-9.386666 44.288A321.92 321.92 0 0 0 243.626667 337.706667a32 32 0 1 1-53.632-34.901334 385.877333 385.877333 0 0 1 112.853333-112.896 32 32 0 0 1 44.288 9.386667zM198.912 445.44a32 32 0 0 0-62.592-13.226667 385.408 385.408 0 0 0 0 159.658667 32 32 0 1 0 62.592-13.226667 321.450667 321.450667 0 0 1 0-133.205333z m625.792 231.509333a32 32 0 0 1 9.386667 44.288 385.834667 385.834667 0 0 1-112.896 112.896 32 32 0 0 1-34.901334-53.674666 322.048 322.048 0 0 0 94.122667-94.122667 32 32 0 0 1 44.288-9.386667z m-581.12 9.386667a32 32 0 1 0-53.632 34.901333 385.834667 385.834667 0 0 0 112.853333 112.896 32 32 0 0 0 34.901334-53.674666 321.962667 321.962667 0 0 1-94.122667-94.122667z m163.882667 163.456a32 32 0 0 1 37.973333-24.661333 321.621333 321.621333 0 0 0 133.12 0 32 32 0 1 1 13.269333 62.592 385.493333 385.493333 0 0 1-159.658666 0 32 32 0 0 1-24.704-37.930667z" /></svg>