<svg class="icon" style="width: 1em;height: 1em;vertical-align: middle;fill: currentColor;overflow: hidden;" viewBox="0 0 1024 1024" version="1.1" xmlns="http://www.w3.org/2000/svg"><path d="M757.674667 170.666667a96 96 0 0 1 96 96v170.666666a32 32 0 0 1-64 0v-170.666666a32 32 0 0 0-32-32h-490.666667a32 32 0 0 0-32 32v170.666666a32 32 0 0 1-64 0v-170.666666A96 96 0 0 1 267.008 170.666667h490.666667z m22.272 651.946666l106.666666-106.666666a32 32 0 0 0 0-45.226667l-106.666666-106.666667a32 32 0 1 0-45.226667 45.226667l84.053333 84.053333-84.053333 84.053334a32 32 0 1 0 45.226667 45.226666zM137.386667 670.72a32 32 0 0 0 0 45.226667l106.666666 106.666666a32 32 0 0 0 45.226667-45.226666l-84.053333-84.053334 84.053333-84.053333a32 32 0 1 0-45.226667-45.226667l-106.666666 106.666667z m417.28 22.613333a32 32 0 0 0-32-32h-21.333334a32 32 0 0 0 0 64h21.333334a32 32 0 0 0 32-32z m-128 0a32 32 0 0 1-32 32h-64a32 32 0 0 1 0-64h64a32 32 0 0 1 32 32z m298.666666 0a32 32 0 0 0-32-32h-64a32 32 0 0 0 0 64h64a32 32 0 0 0 32-32z" /></svg>