<svg class="icon" style="width: 1em;height: 1em;vertical-align: middle;fill: currentColor;overflow: hidden;" viewBox="0 0 1024 1024" version="1.1" xmlns="http://www.w3.org/2000/svg"><path d="M591.829333 136.32a385.408 385.408 0 0 0-159.658666 0 32 32 0 0 0 13.226666 62.592 321.450667 321.450667 0 0 1 133.205334 0 32 32 0 1 0 13.226666-62.592zM347.093333 199.253333a32 32 0 0 0-44.288-9.386666A385.408 385.408 0 0 0 256 225.792V181.333333a32 32 0 0 0-64 0v128c0 17.664 14.336 32 32 32h128a32 32 0 0 0 0-64H294.4a321.536 321.536 0 0 1 43.306667-33.749333 32 32 0 0 0 9.386666-44.288zM192 512v-32a32 32 0 0 0-64 0V512c0 27.306667 2.858667 54.058667 8.32 79.829333a32 32 0 1 0 62.592-13.226666A321.450667 321.450667 0 0 1 192 512z m484.906667-312.704a32 32 0 0 0 9.386666 44.288 321.962667 321.962667 0 0 1 94.122667 94.122667 32 32 0 1 0 53.674667-34.901334 385.834667 385.834667 0 0 0-112.896-112.896 32 32 0 0 0-44.288 9.386667z m148.181333 246.101333a32 32 0 1 1 62.592-13.226666 385.493333 385.493333 0 0 1 0 159.658666 32 32 0 0 1-62.592-13.226666 321.621333 321.621333 0 0 0 0-133.205334zM199.253333 676.906667a32 32 0 0 0-9.386666 44.288 385.834667 385.834667 0 0 0 112.896 112.896 32 32 0 0 0 34.901333-53.674667 321.962667 321.962667 0 0 1-94.122667-94.122667 32 32 0 0 0-44.288-9.386666z m581.12 9.386666a32 32 0 1 1 53.674667 34.901334 385.834667 385.834667 0 0 1-112.896 112.896 32 32 0 0 1-34.901333-53.674667 322.048 322.048 0 0 0 94.122666-94.122667z m-163.882666 163.456a32 32 0 0 0-37.973334-24.661333 321.621333 321.621333 0 0 1-133.12 0 32 32 0 1 0-13.269333 62.592 385.493333 385.493333 0 0 0 159.658667 0 32 32 0 0 0 24.704-37.930667z" /></svg>