<svg class="icon" style="width: 1em;height: 1em;vertical-align: middle;fill: currentColor;overflow: hidden;" viewBox="0 0 1024 1024" version="1.1" xmlns="http://www.w3.org/2000/svg"><path d="M373.333333 170.666667l-4.266666 0.298666A32 32 0 0 0 341.333333 202.666667v541.525333l-137.386666-137.301333-3.584-3.072a32 32 0 0 0-41.642667 48.384l192.170667 192 3.584 3.072a32 32 0 0 0 41.642666-3.114667l191.872-192 3.072-3.584a32 32 0 0 0-3.114666-41.685333l-3.584-3.072a32 32 0 0 0-41.685334 3.114666L405.333333 744.362667V202.666667l-0.256-4.352A32 32 0 0 0 373.376 170.666667z m149.333334 21.333333a32 32 0 0 0 0 64h341.333333a32 32 0 0 0 0-64h-341.333333z m-32 160a32 32 0 0 1 32-32h213.333333a32 32 0 0 1 0 64h-213.333333a32 32 0 0 1-32-32z m32 96a32 32 0 0 0 0 64h85.333333a32 32 0 0 0 0-64h-85.333333z" /></svg>