<svg class="icon" style="width: 1em;height: 1em;vertical-align: middle;fill: currentColor;overflow: hidden;" viewBox="0 0 1024 1024" version="1.1" xmlns="http://www.w3.org/2000/svg"><path d="M575.573333 618.666667H373.333333a32 32 0 0 0 0 64h277.333334a32 32 0 0 0 32-32v-277.333334a32 32 0 0 0-64 0v197.930667L395.861333 350.592a32 32 0 1 0-45.056 45.482667l224.810667 222.592zM85.333333 512C85.333333 276.352 276.352 85.333333 512 85.333333s426.666667 191.018667 426.666667 426.666667-191.018667 426.666667-426.666667 426.666667S85.333333 747.648 85.333333 512z m426.666667-362.666667a362.666667 362.666667 0 1 0 0 725.333334 362.666667 362.666667 0 0 0 0-725.333334z" /></svg>