<svg class="icon" style="width: 1em;height: 1em;vertical-align: middle;fill: currentColor;overflow: hidden;" viewBox="0 0 1024 1024" version="1.1" xmlns="http://www.w3.org/2000/svg"><path d="M564.053333 289.322667a32 32 0 0 1-3.114666-41.642667l3.114666-3.626667 100.992-101.12a32.853333 32.853333 0 0 1 28.330667-14.933333c10.752 0 20.266667 4.650667 26.069333 11.776l2.261334 3.2 100.992 101.12 3.114666 3.584a32 32 0 0 1 0.298667 37.632l-3.413333 4.010667-3.584 3.114666a32 32 0 0 1-37.674667 0.298667l-4.010667-3.413333L725.333333 237.226667v161.450666l-0.298666 3.797334c-2.133333 13.653333-15.488 24.192-31.701334 24.192s-29.610667-10.538667-31.701333-24.192l-0.298667-3.84V237.226667l-52.053333 52.096-3.584 3.114666a32 32 0 0 1-41.642667-3.114666zM564.181333 734.677333a32 32 0 0 1 41.642667-3.114666l3.584 3.114666 52.053333 52.096v-161.450666c0-15.445333 14.336-27.989333 32-27.989334 16.213333 0 29.568 10.538667 31.701334 24.192l0.298666 3.84v161.408l52.096-52.096a32 32 0 0 1 41.685334-3.114666l3.584 3.114666a32 32 0 0 1 3.114666 41.642667l-3.114666 3.584-100.992 101.12a32.853333 32.853333 0 0 1-28.330667 14.976 32.853333 32.853333 0 0 1-28.330667-14.933333l-100.992-101.12a32 32 0 0 1 0-45.269334zM266.666667 170.325333A96 96 0 0 0 170.666667 266.325333v490.666667a96 96 0 0 0 96 96h170.666666a32 32 0 0 0 0-64h-170.666666a32 32 0 0 1-32-32v-490.666667a32 32 0 0 1 32-32h170.666666a32 32 0 0 0 0-64h-170.666666z" /></svg>