<svg class="icon" style="width: 1em;height: 1em;vertical-align: middle;fill: currentColor;overflow: hidden;" viewBox="0 0 1024 1024" version="1.1" xmlns="http://www.w3.org/2000/svg"><path d="M801.28 94.72a32 32 0 1 0-45.226667 45.226667L829.44 213.333333h-264.106667a117.333333 117.333333 0 0 0-117.333333 117.333334v405.205333c0 29.44-23.893333 53.333333-53.333333 53.333333H339.541333a128 128 0 1 0-5.461333 64h60.586667a117.333333 117.333333 0 0 0 117.333333-117.333333V330.666667c0-29.44 23.893333-53.333333 53.333333-53.333334h264.106667l-73.386667 73.386667a32 32 0 0 0 45.226667 45.226667l128-128a32 32 0 0 0 0-45.226667l-128-128zM149.333333 810.666667a64 64 0 1 1 128 0 64 64 0 0 1-128 0z" /></svg>