<svg class="icon" style="width: 1em;height: 1em;vertical-align: middle;fill: currentColor;overflow: hidden;" viewBox="0 0 1024 1024" version="1.1" xmlns="http://www.w3.org/2000/svg"><path d="M501.333333 85.333333a32 32 0 0 1 32 32v178.773334l52.053334-52.053334a32 32 0 1 1 45.226666 45.226667l-106.666666 106.666667a32 32 0 0 1-45.226667 0l-106.666667-106.666667a32 32 0 0 1 45.226667-45.226667L469.333333 296.106667V117.333333a32 32 0 0 1 32-32zM170.666667 501.333333a32 32 0 0 1 32-32h618.666666a32 32 0 0 1 0 64H202.666667a32 32 0 0 1-32-32z m414.72 257.28a32 32 0 1 0 45.226666-45.226666l-106.666666-106.666667a32 32 0 0 0-45.226667 0l-106.666667 106.666667a32 32 0 1 0 45.226667 45.226666L469.333333 706.56v200.106667a32 32 0 0 0 64 0v-200.106667l52.053334 52.053333z" /></svg>