<svg class="icon" style="width: 1em;height: 1em;vertical-align: middle;fill: currentColor;overflow: hidden;" viewBox="0 0 1024 1024" version="1.1" xmlns="http://www.w3.org/2000/svg"><path d="M651.946667 257.28a32 32 0 0 1-45.226667 0l-62.72-62.72v157.44a32 32 0 0 1-64 0V194.56L417.28 257.28a32 32 0 0 1-45.226667-45.226667l117.333334-117.333333a32 32 0 0 1 45.226666 0l117.333334 117.333333a32 32 0 0 1 0 45.226667zM257.28 606.72a32 32 0 1 1-45.226667 45.226667l-117.333333-117.333334a32 32 0 0 1 0-45.226666l117.333333-117.333334a32 32 0 0 1 45.226667 45.226667l-62.72 62.72h157.44a32 32 0 0 1 0 64H194.56l62.72 62.72zM766.72 651.946667a32 32 0 0 1 0-45.226667l62.72-62.72h-157.44a32 32 0 0 1 0-64h157.44l-62.72-62.72a32 32 0 0 1 45.226667-45.226667l117.333333 117.333334a32 32 0 0 1 0 45.226666l-117.333333 117.333334a32 32 0 0 1-45.226667 0zM651.946667 766.72a32 32 0 0 0-45.226667 0l-62.72 62.72v-157.44a32 32 0 0 0-64 0v157.44l-62.72-62.72a32 32 0 0 0-45.226667 45.226667l117.333334 117.333333a32 32 0 0 0 45.226666 0l117.333334-117.333333a32 32 0 0 0 0-45.226667z" /></svg>