<svg class="icon" style="width: 1em;height: 1em;vertical-align: middle;fill: currentColor;overflow: hidden;" viewBox="0 0 1024 1024" version="1.1" xmlns="http://www.w3.org/2000/svg"><path d="M480 240.128v543.744l-147.456-155.264a32 32 0 0 0-46.421333 44.117333l202.666666 213.333334a32 32 0 0 0 46.421334 0l202.666666-213.333334a32 32 0 0 0-46.421333-44.117333l-147.456 155.264V240.128l147.456 155.264a32 32 0 1 0 46.421333-44.117333l-202.666666-213.248a31.914667 31.914667 0 0 0-46.464 0L286.122667 351.274667a32 32 0 1 0 46.421333 44.117333l147.456-155.264z" /></svg>