<svg class="icon" style="width: 1em;height: 1em;vertical-align: middle;fill: currentColor;overflow: hidden;" viewBox="0 0 1024 1024" version="1.1" xmlns="http://www.w3.org/2000/svg"><path d="M523.946667 705.365333l3.114666-3.584a32 32 0 0 0-3.114666-41.685333l-116.053334-116.053333h285.44l4.352-0.256A32 32 0 0 0 725.333333 512l-0.256-4.309333a32 32 0 0 0-31.744-27.690667H407.893333l116.138667-116.053333 3.072-3.584a32 32 0 0 0-48.341333-41.685334l-170.709334 170.666667-3.114666 3.584a32 32 0 0 0 3.114666 41.685333l170.666667 170.666667 3.626667 3.114667a32 32 0 0 0 41.642666-3.072zM512 85.333333c-235.648 0-426.666667 191.018667-426.666667 426.666667s191.018667 426.666667 426.666667 426.666667 426.666667-191.018667 426.666667-426.666667-191.018667-426.666667-426.666667-426.666667z m0 789.333334a362.666667 362.666667 0 1 1 0-725.333334 362.666667 362.666667 0 0 1 0 725.333334z" /></svg>