<svg class="icon" style="width: 1em;height: 1em;vertical-align: middle;fill: currentColor;overflow: hidden;" viewBox="0 0 1024 1024" version="1.1" xmlns="http://www.w3.org/2000/svg"><path d="M502.272 159.701333a256 256 0 1 1 369.493333 354.218667l-8.106666 8.405333-375.466667 375.381334-1.536 1.28a158.848 158.848 0 0 1-234.197333-212.181334 32.597333 32.597333 0 0 1 3.626666-5.546666l2.304-2.56 3.669334-3.754667 6.058666-6.314667 0.085334 0.128 317.269333-318.037333a32 32 0 0 1 41.685333-3.157333l3.584 3.114666a32 32 0 0 1 3.157334 41.642667l-3.114667 3.584-324.010667 324.821333a95.146667 95.146667 0 0 0 135.424 132.522667l376.832-376.746667A192.085333 192.085333 0 0 0 554.666667 198.144l-7.168 6.826667-0.554667 0.597333-406.869333 406.869333a32 32 0 0 1-48.341334-41.685333l3.072-3.584 407.424-407.466667h0.085334z" /></svg>