<svg class="icon" style="width: 1em;height: 1em;vertical-align: middle;fill: currentColor;overflow: hidden;" viewBox="0 0 1024 1024" version="1.1" xmlns="http://www.w3.org/2000/svg"><path d="M502.272 159.701333a256 256 0 1 1 378.325333 344.021334 275.498667 275.498667 0 0 0-63.402666-25.344l1.877333-1.877334a192.085333 192.085333 0 0 0-264.448-278.357333l-7.168 6.826667-0.554667 0.597333-406.869333 406.869333a32 32 0 0 1-48.341333-41.642666l3.072-3.584 407.424-407.509334h0.085333z m-23.893333 657.408c5.973333 22.784 14.72 44.416 25.941333 64.512l-16.085333 16.128-1.578667 1.28a158.848 158.848 0 0 1-234.197333-212.224 32.64 32.64 0 0 1 3.626666-5.546666l2.304-2.56 3.669334-3.712 6.058666-6.314667 0.085334 0.128 317.269333-318.08a32 32 0 0 1 41.685333-3.157333l3.584 3.114666a32 32 0 0 1 3.157334 41.642667l-3.114667 3.626667-324.010667 324.821333a95.146667 95.146667 0 0 0 135.424 132.48l36.181334-36.138667zM981.333333 746.666667a234.666667 234.666667 0 1 1-469.333333 0 234.666667 234.666667 0 0 1 469.333333 0z m-362.666666-21.333334a21.333333 21.333333 0 0 0 0 42.666667h204.501333l-70.229333 70.229333a21.333333 21.333333 0 0 0 30.165333 30.208l106.666667-106.666666a21.333333 21.333333 0 0 0 0-30.208l-106.666667-106.666667a21.333333 21.333333 0 0 0-30.165333 30.208L823.168 725.333333H618.666667z" /></svg>