<svg class="icon" style="width: 1em;height: 1em;vertical-align: middle;fill: currentColor;overflow: hidden;" viewBox="0 0 1024 1024" version="1.1" xmlns="http://www.w3.org/2000/svg"><path d="M309.333333 149.333333a181.333333 181.333333 0 0 1 181.12 172.544l0.213334 8.789334V789.333333a106.666667 106.666667 0 0 1-213.12 6.997334L277.333333 789.333333V384a32 32 0 0 1 63.701334-4.352L341.333333 384v405.333333a42.666667 42.666667 0 0 0 85.034667 4.992L426.666667 789.333333V330.666667a117.333333 117.333333 0 0 0-234.453334-7.168L192 330.666667V725.333333a32 32 0 0 1-63.701333 4.352L128 725.333333V330.666667A181.333333 181.333333 0 0 1 309.333333 149.333333z m384 533.333334a32 32 0 0 1 4.352 63.701333l-4.352 0.298667h-106.666666a32 32 0 0 1-4.352-63.701334L586.666667 682.666667h106.666666z m170.666667-128a32 32 0 0 1 4.352 63.701333l-4.352 0.298667h-277.333333a32 32 0 0 1-4.352-63.701334L586.666667 554.666667h277.333333z m0-128a32 32 0 0 1 4.352 63.701333l-4.352 0.298667h-277.333333a32 32 0 0 1-4.352-63.701334L586.666667 426.666667h277.333333z m0-128a32 32 0 0 1 4.352 63.701333l-4.352 0.298667h-277.333333a32 32 0 0 1-4.352-63.701334L586.666667 298.666667h277.333333z" /></svg>