<svg class="icon" style="width: 1em;height: 1em;vertical-align: middle;fill: currentColor;overflow: hidden;" viewBox="0 0 1024 1024" version="1.1" xmlns="http://www.w3.org/2000/svg"><path d="M574.336 210.517333c12.501333 7.850667 23.381333 17.92 32.085333 29.781334l4.992 7.296 125.653334 200.362666H917.333333a32 32 0 0 1 31.701334 27.690667l0.298666 4.352a32 32 0 0 1-32 32l-140.117333-0.042667 0.256 0.384-0.384-0.426666a202.666667 202.666667 0 1 1-147.754667-64h32.256L557.184 281.6a53.333333 53.333333 0 0 0-87.04-4.778667l-3.328 4.778667-322.389333 514.048a32 32 0 0 1-56.405334-29.824l2.218667-4.181333L412.586667 247.594667a117.333333 117.333333 0 0 1 161.749333-37.077334zM629.376 512a138.666667 138.666667 0 1 0 0 277.333333 138.666667 138.666667 0 0 0 0-277.333333z" /></svg>