<svg class="icon" style="width: 1em;height: 1em;vertical-align: middle;fill: currentColor;overflow: hidden;" viewBox="0 0 1024 1024" version="1.1" xmlns="http://www.w3.org/2000/svg"><path d="M245.333333 128a32 32 0 0 0 0 64h533.333334a32 32 0 0 0 0-64H245.333333zM393.472 606.677333a32 32 0 0 1 41.642667-3.114666l3.584 3.114666 52.053333 52.096v-130.986666l-0.085333-1.109334V365.226667l-52.053334 52.096-3.584 3.114666a32 32 0 0 1-44.757333-44.8l3.114667-3.584 100.992-101.12a32.853333 32.853333 0 0 1 28.330666-14.933333c10.752 0 20.266667 4.650667 26.069334 11.776l2.261333 3.2 100.992 101.12 3.114667 3.584a32 32 0 0 1 0.298666 37.632l-3.413333 4.010667-3.584 3.114666a32 32 0 0 1-37.674667 0.298667l-4.010666-3.413333L554.666667 365.226667v130.986666l0.085333 1.109334v161.450666l52.096-52.096a32 32 0 0 1 41.685333-3.114666l3.584 3.114666a32 32 0 0 1 3.072 41.642667l-3.072 3.626667-100.992 101.12a32.853333 32.853333 0 0 1-28.330666 14.933333 32.853333 32.853333 0 0 1-28.330667-14.933333l-100.992-101.12a32 32 0 0 1 0-45.269334zM213.333333 864a32 32 0 0 1 32-32h533.333334a32 32 0 0 1 0 64H245.333333a32 32 0 0 1-32-32z" /></svg>