<svg class="icon" style="width: 1em;height: 1em;vertical-align: middle;fill: currentColor;overflow: hidden;" viewBox="0 0 1024 1024" version="1.1" xmlns="http://www.w3.org/2000/svg"><path d="M444.458667 341.333333A103.125333 103.125333 0 0 0 341.333333 444.458667C341.333333 481.706667 371.584 512 408.874667 512h206.250666C652.373333 512 682.666667 481.749333 682.666667 444.458667A103.125333 103.125333 0 0 0 579.541333 341.333333h-135.082666zM405.333333 444.458667c0-21.632 17.493333-39.125333 39.125334-39.125334h135.082666c21.632 0 39.125333 17.493333 39.125334 39.125334a3.541333 3.541333 0 0 1-3.541334 3.541333H408.874667a3.541333 3.541333 0 0 1-3.541334-3.541333zM512 85.333333a160 160 0 0 0-159.402667 146.090667A341.290667 341.290667 0 0 0 170.666667 533.333333v266.666667A138.666667 138.666667 0 0 0 309.333333 938.666667h405.333334A138.666667 138.666667 0 0 0 853.333333 800V533.333333a341.290667 341.290667 0 0 0-181.930666-301.909333A160 160 0 0 0 512 85.333333z m277.333333 512h-554.666666v-64a277.333333 277.333333 0 0 1 554.666666 0V597.333333zM341.333333 736a32 32 0 0 0 64 0v-65.536h384v129.536a74.666667 74.666667 0 0 1-74.666666 74.666667h-405.333334a74.666667 74.666667 0 0 1-74.666666-74.666667v-129.536H341.333333v65.536zM512 192c-29.781333 0-58.624 3.84-86.186667 10.965333a96 96 0 0 1 172.373334 0A341.888 341.888 0 0 0 512 192z" /></svg>