<svg class="icon" style="width: 1em;height: 1em;vertical-align: middle;fill: currentColor;overflow: hidden;" viewBox="0 0 1024 1024" version="1.1" xmlns="http://www.w3.org/2000/svg"><path d="M512 85.333333a160 160 0 0 0-159.402667 146.090667A341.290667 341.290667 0 0 0 170.666667 533.333333v266.666667A138.666667 138.666667 0 0 0 309.333333 938.666667h237.226667a278.101333 278.101333 0 0 1-45.994667-64H309.333333a74.666667 74.666667 0 0 1-74.666666-74.666667v-129.536H341.333333v65.536a32 32 0 0 0 64 0v-65.536h74.581334c7.466667-26.154667 18.688-50.773333 33.024-73.130667H234.666667v-64a277.333333 277.333333 0 0 1 547.754666-61.696 275.413333 275.413333 0 0 1 68.096 17.792 341.589333 341.589333 0 0 0-179.114666-258.005333A160 160 0 0 0 512 85.333333z m0 106.666667c-29.781333 0-58.624 3.84-86.186667 10.965333a96 96 0 0 1 172.373334 0A341.888 341.888 0 0 0 512 192zM598.784 512a275.84 275.84 0 0 1 74.24-32.768c6.144-10.197333 9.642667-22.058667 9.642667-34.773333A103.125333 103.125333 0 0 0 579.541333 341.333333h-135.082666A103.125333 103.125333 0 0 0 341.333333 444.458667C341.333333 481.706667 371.584 512 408.874667 512h189.909333zM405.333333 444.458667c0-21.632 17.493333-39.125333 39.125334-39.125334h135.082666c21.632 0 39.125333 17.493333 39.125334 39.125334a3.541333 3.541333 0 0 1-3.541334 3.541333H408.874667a3.541333 3.541333 0 0 1-3.541334-3.541333zM981.333333 746.666667a234.666667 234.666667 0 1 0-469.333333 0 234.666667 234.666667 0 0 0 469.333333 0z m-213.333333 21.333333l0.042667 106.794667a21.333333 21.333333 0 1 1-42.666667 0V768h-106.88a21.333333 21.333333 0 0 1 0-42.666667H725.333333v-106.666666a21.333333 21.333333 0 1 1 42.666667 0V725.333333h106.538667a21.333333 21.333333 0 0 1 0 42.666667H768z" /></svg>