<svg class="icon" style="width: 1em;height: 1em;vertical-align: middle;fill: currentColor;overflow: hidden;" viewBox="0 0 1024 1024" version="1.1" xmlns="http://www.w3.org/2000/svg"><path d="M512.768 241.706667a32 32 0 0 1 38.485333-23.850667 170.88 170.88 0 0 1 126.805334 126.549333 32 32 0 0 1-62.293334 14.805334 106.88 106.88 0 0 0-79.189333-79.061334 32 32 0 0 1-23.808-38.442666zM213.333333 384a298.666667 298.666667 0 0 1 597.333334 0c0 86.4-28.586667 180.736-78.933334 254.122667-44.458667 64.853333-108.501333 116.522667-187.733333 127.658666v12.885334c0 17.664 14.336 32 32 32h138.666667A96 96 0 0 1 810.666667 906.666667v42.666666a32 32 0 0 1-64 0v-42.666666a32 32 0 0 0-32-32H576a96 96 0 0 1-96-96v-12.885334c-79.232-11.136-143.274667-62.848-187.733333-127.658666C241.92 564.736 213.333333 470.4 213.333333 384z m298.666667-234.666667A234.666667 234.666667 0 0 0 277.333333 384c0 73.6 24.746667 155.306667 67.669334 217.898667C388.010667 664.533333 445.994667 704 512 704c66.005333 0 123.989333-39.466667 166.997333-102.101333C721.92 539.264 746.666667 457.6 746.666667 384A234.666667 234.666667 0 0 0 512 149.333333z" /></svg>