<svg class="icon" style="width: 1em;height: 1em;vertical-align: middle;fill: currentColor;overflow: hidden;" viewBox="0 0 1024 1024" version="1.1" xmlns="http://www.w3.org/2000/svg"><path d="M85.333333 245.333333A117.333333 117.333333 0 0 1 202.666667 128h64a32 32 0 0 1 0 64h-64c-29.44 0-53.333333 23.893333-53.333334 53.333333v64a32 32 0 0 1-64 0v-64z m640-85.333333a32 32 0 0 1 32-32h64A117.333333 117.333333 0 0 1 938.666667 245.333333v64a32 32 0 0 1-64 0v-64c0-29.44-23.893333-53.333333-53.333334-53.333333h-64a32 32 0 0 1-32-32zM117.333333 682.666667a32 32 0 0 1 32 32v64c0 29.44 23.893333 53.333333 53.333334 53.333333h64a32 32 0 0 1 0 64h-64A117.333333 117.333333 0 0 1 85.333333 778.666667v-64a32 32 0 0 1 32-32z m789.333334 0a32 32 0 0 1 32 32v64A117.333333 117.333333 0 0 1 821.333333 896h-64a32 32 0 0 1 0-64h64c29.44 0 53.333333-23.893333 53.333334-53.333333v-64a32 32 0 0 1 32-32zM245.333333 298.666667a32 32 0 0 1 32 32v362.666666a32 32 0 0 1-64 0v-362.666666A32 32 0 0 1 245.333333 298.666667z m202.666667 32a32 32 0 0 0-64 0v362.666666a32 32 0 0 0 64 0v-362.666666zM586.666667 298.666667a32 32 0 0 1 32 32v362.666666a32 32 0 0 1-64 0v-362.666666a32 32 0 0 1 32-32z m202.666666 32a32 32 0 0 0-64 0v362.666666a32 32 0 0 0 64 0v-362.666666z" /></svg>