<svg class="icon" style="width: 1em;height: 1em;vertical-align: middle;fill: currentColor;overflow: hidden;" viewBox="0 0 1024 1024" version="1.1" xmlns="http://www.w3.org/2000/svg"><path d="M351.744 477.866667a64 64 0 0 1 23.722667 23.722666l171.093333 298.581334A64 64 0 0 1 490.965333 896H148.864a64 64 0 0 1-55.552-95.829333l171.093333-298.581334a64 64 0 0 1 87.338667-23.722666zM320 768a21.333333 21.333333 0 1 0 0 42.666667 21.333333 21.333333 0 0 0 0-42.666667zM725.333333 256a128 128 0 0 1 128 128v42.666667h42.666667a42.666667 42.666667 0 0 1 42.666667 42.666666v85.333334a42.666667 42.666667 0 0 1-42.666667 42.666666h-42.666667v42.666667a128 128 0 0 1-128 128h-148.096l-36.650666-64h184.661333a64 64 0 0 0 63.701333-57.813333l0.298667-6.186667V384a64 64 0 0 0-57.813333-63.701333l-6.186667-0.298667H213.333333a64 64 0 0 0-63.701333 57.856L149.333333 384l-0.042666 232.661333-48.426667 84.565334A127.445333 127.445333 0 0 1 85.333333 640V384a128 128 0 0 1 128-128h512z m-405.418666 298.666667a21.333333 21.333333 0 0 0-20.992 17.493333l-0.341334 3.84v128l0.341334 3.84a21.333333 21.333333 0 0 0 41.984 0l0.341333-3.84v-128l-0.341333-3.84a21.333333 21.333333 0 0 0-20.992-17.493333z" /></svg>