<svg class="icon" style="width: 1em;height: 1em;vertical-align: middle;fill: currentColor;overflow: hidden;" viewBox="0 0 1024 1024" version="1.1" xmlns="http://www.w3.org/2000/svg"><path d="M725.333333 256a128 128 0 0 1 128 128v42.666667h42.666667a42.666667 42.666667 0 0 1 42.666667 42.666666v85.333334a42.666667 42.666667 0 0 1-42.666667 42.666666h-42.666667v42.666667a128 128 0 0 1-128 128h-178.090666A278.186667 278.186667 0 0 0 554.666667 704h170.581333a64 64 0 0 0 63.744-57.813333l0.256-6.186667V384a64 64 0 0 0-57.813333-63.701333l-6.186667-0.298667H213.333333a64 64 0 0 0-63.701333 57.856L149.333333 384v73.898667A278.058667 278.058667 0 0 0 85.333333 503.893333V384a128 128 0 0 1 128-128h512z m-213.333333 448a234.666667 234.666667 0 1 1-469.333333 0 234.666667 234.666667 0 0 1 469.333333 0z m-91.562667-100.437333a21.333333 21.333333 0 0 0-30.208 0L234.666667 759.168l-70.229334-70.272a21.333333 21.333333 0 0 0-30.208 30.208l85.333334 85.333333a21.333333 21.333333 0 0 0 30.208 0l170.666666-170.666666a21.333333 21.333333 0 0 0 0-30.208z" /></svg>