<svg class="icon" style="width: 1em;height: 1em;vertical-align: middle;fill: currentColor;overflow: hidden;" viewBox="0 0 1024 1024" version="1.1" xmlns="http://www.w3.org/2000/svg"><path d="M725.333333 256a128 128 0 0 1 128 128v42.666667h42.666667a42.666667 42.666667 0 0 1 42.666667 42.666666v85.333334a42.666667 42.666667 0 0 1-42.666667 42.666666h-42.666667v42.666667a128 128 0 0 1-128 128H213.333333a128 128 0 0 1-128-128V384a128 128 0 0 1 128-128h512z m-0.085333 64H213.333333a64 64 0 0 0-63.701333 57.856L149.333333 384v256a64 64 0 0 0 57.813334 63.701333L213.333333 704h511.914667a64 64 0 0 0 63.701333-57.813333l0.298667-6.186667V384a64 64 0 0 0-57.813333-63.701333l-6.186667-0.298667zM256.725333 384H384a42.666667 42.666667 0 0 1 42.368 37.674667L426.666667 426.666667v170.666666a42.666667 42.666667 0 0 1-37.674667 42.368L384 640H256.725333a42.666667 42.666667 0 0 1-42.410666-37.674667L214.058667 597.333333v-170.666666a42.666667 42.666667 0 0 1 37.674666-42.368L256.725333 384H384 256.725333z" /></svg>