<svg class="icon" style="width: 1em;height: 1em;vertical-align: middle;fill: currentColor;overflow: hidden;" viewBox="0 0 1024 1024" version="1.1" xmlns="http://www.w3.org/2000/svg"><path d="M469.546667 472.746667c0-67.2-33.92-164.992-100.650667-286.677334-11.477333-20.906667-41.386667-20.608-54.186667-0.853333-17.92 27.562667-44.544 55.765333-80.085333 84.48l-15.786667 12.373333-15.104 11.477334-20.906666 16.085333c-73.770667 58.752-102.826667 111.018667-96.426667 188.245333 5.589333 68.266667 46.890667 117.12 117.845333 139.52-25.045333 29.184-57.984 52.181333-99.157333 69.205334a32 32 0 0 0 24.490667 59.136c78.208-32.384 134.357333-84.309333 166.912-155.008 12.16-26.453333 21.930667-52.522667 29.184-78.250667l1.834666-6.613333 4.352-17.621334 2.901334-14.08 1.792-10.112 2.816-20.352a375.466667 375.466667 0 0 0 2.389333-47.786666l-0.170667-0.981334a32 32 0 0 1 64 0.938667c0.981333 62.293333-11.690667 125.866667-37.802666 190.464l-1.066667 3.797333a19.370667 19.370667 0 0 0 27.050667 21.12l4.864-2.474666c3.114667-1.706667 5.888-3.669333 8.362666-5.802667 30.805333-26.666667 62.549333-82.986667 62.549334-150.186667zM725.333333 256h-224l-4.352 0.298667A32 32 0 0 0 501.333333 320H725.333333l6.186667 0.298667A64 64 0 0 1 789.333333 384v256l-0.298666 6.186667A64 64 0 0 1 725.333333 704H330.666667c-17.322667 1.152-32 13.653333-32 32 0 17.664 14.336 32 32 32H725.333333l7.509334-0.213333A128 128 0 0 0 853.333333 640v-42.666667l42.666667 0.768 5.76-0.426666a42.666667 42.666667 0 0 0 36.949333-42.282667v-85.333333l-0.341333-5.12a42.666667 42.666667 0 0 0-42.325333-37.546667L853.333333 426.666667V384l-0.213333-7.509333A128 128 0 0 0 725.333333 256z" /></svg>