<svg class="icon" style="width: 1em;height: 1em;vertical-align: middle;fill: currentColor;overflow: hidden;" viewBox="0 0 1024 1024" version="1.1" xmlns="http://www.w3.org/2000/svg"><path d="M398.933333 227.029333a288 288 0 0 1 498.858667 288l-10.666667 18.474667a32 32 0 0 1-43.733333 11.733333l-194.474667-112.298666-101.248 177.152c81.28 9.642667 153.173333 51.626667 206.634667 111.573333a85.418667 85.418667 0 0 0-55.466667 34.218667C649.130667 704.341333 583.082667 672 512 672c-71.082667 0-137.130667 32.341333-186.88 83.882667a85.418667 85.418667 0 0 0-55.424-34.218667c52.906667-59.306667 123.861333-101.034667 204.074667-111.232l119.722666-209.493333-193.493333-111.701334A32 32 0 0 1 388.266667 245.504l10.666666-18.474667z m61.013334 22.912l83.882666 48.426667c22.784-34.986667 45.824-63.701333 74.368-89.685333a475.733333 475.733333 0 0 1 77.909334-56.576 224.128 224.128 0 0 0-236.16 97.834666z m247.893333 143.104c23.637333-42.538667 34.986667-76.373333 39.082667-109.013333 3.285333-26.496 2.005333-53.589333-2.730667-85.76-34.901333 19.626667-61.013333 37.802667-82.944 57.770667-22.741333 20.693333-41.856 43.989333-61.909333 74.368l108.501333 62.634666z m55.424 32l84.224 48.64a224.128 224.128 0 0 0-36.565333-256.853333 340.48 340.48 0 0 1-0.512 75.136c-5.376 43.093333-20.309333 84.992-47.146667 133.12zM286.464 796.16a32 32 0 0 0-61.610667 2.389333c-8.96 37.973333-25.898667 58.197333-44.416 69.717334-19.626667 12.202667-44.8 17.109333-73.770666 17.109333a32 32 0 0 0 0 64c35.072 0 73.813333-5.76 107.562666-26.752a149.504 149.504 0 0 0 45.312-43.904c66.218667 79.616 188.16 79.189333 252.458667-1.237333 65.450667 81.877333 190.549333 80.853333 255.872-3.029334 36.181333 47.317333 92.586667 74.922667 149.461333 74.922667a32 32 0 0 0 0-64c-50.474667 0-101.717333-34.005333-118.784-88.917333a32 32 0 0 0-61.013333-0.341334c-33.450667 104.106667-162.56 102.4-195.2 4.48a32 32 0 0 0-60.672 0c-32.64 97.877333-161.749333 99.626667-195.2-4.48z" /></svg>