<svg class="icon" style="width: 1em;height: 1em;vertical-align: middle;fill: currentColor;overflow: hidden;" viewBox="0 0 1024 1024" version="1.1" xmlns="http://www.w3.org/2000/svg"><path d="M341.333333 192h42.666667v266.154667c0 16-4.010667 31.744-11.648 45.824l-152.917333 281.728A74.666667 74.666667 0 0 0 285.013333 896h453.888a74.666667 74.666667 0 0 0 65.621334-110.293333l-152.917334-281.728A96 96 0 0 1 640 458.154667V192h42.666667A32 32 0 0 0 682.666667 128H341.333333a32 32 0 0 0 0 64z m106.666667 266.154667V192h128v266.154667c0 26.666667 6.656 52.906667 19.370667 76.373333l34.133333 62.805333H394.496l34.133333-62.848a160 160 0 0 0 19.370667-76.330666zM359.765333 661.333333h304.469334l84.096 154.88a10.666667 10.666667 0 0 1-9.386667 15.786667H285.056a10.666667 10.666667 0 0 1-9.386667-15.786667l84.053334-154.88z" /></svg>