<svg class="icon" style="width: 1em;height: 1em;vertical-align: middle;fill: currentColor;overflow: hidden;" viewBox="0 0 1024 1024" version="1.1" xmlns="http://www.w3.org/2000/svg"><path d="M256 149.333333h42.666667v266.154667c0 16-4.010667 31.744-11.648 45.824l-152.917334 281.728A74.666667 74.666667 0 0 0 199.68 853.333333h287.317333l4.522667-18.048c4.096-16.341333 10.752-31.829333 19.669333-45.952H199.722667a10.666667 10.666667 0 0 1-9.386667-15.786666l84.053333-154.88h304.512l34.346667 63.232 47.189333-47.189334-94.122666-173.397333A96 96 0 0 1 554.666667 415.488V149.333333h42.666666A32 32 0 0 0 597.333333 85.333333H256a32 32 0 0 0 0 64z m106.666667 266.154667V149.333333h128v266.154667c0 26.666667 6.656 52.906667 19.370666 76.373333l34.133334 62.805334H309.162667l34.133333-62.848A160 160 0 0 0 362.666667 415.488z m452.266666 125.056l-251.861333 251.861333a114.602667 114.602667 0 0 0-30.122667 53.205334l-19.541333 78.122666a46.378667 46.378667 0 0 0 56.277333 56.234667l78.08-19.498667a114.56 114.56 0 0 0 53.248-30.165333l251.818667-251.818667A97.536 97.536 0 0 0 814.933333 540.586667z" /></svg>