<svg class="icon" style="width: 1em;height: 1em;vertical-align: middle;fill: currentColor;overflow: hidden;" viewBox="0 0 1024 1024" version="1.1" xmlns="http://www.w3.org/2000/svg"><path d="M288 170.666667h448a117.333333 117.333333 0 0 1 117.12 110.165333L853.333333 288v143.104a117.418667 117.418667 0 0 1 85.077334 104.917333l0.256 7.978667v320a32 32 0 0 1-63.701334 4.352l-0.298666-4.352V768h-725.333334v96a32 32 0 0 1-27.648 31.701333L117.333333 896a32 32 0 0 1-31.701333-27.648L85.333333 864v-320c0-53.717333 36.096-98.986667 85.333334-112.938667V288a117.333333 117.333333 0 0 1 110.165333-117.12L288 170.666667z m533.333333 320H202.666667a53.333333 53.333333 0 0 0-53.077334 47.872l-0.256 5.461333v160h725.333334v-160a53.333333 53.333333 0 0 0-47.872-53.034667l-5.461334-0.298666z m-85.333333-256H288a53.333333 53.333333 0 0 0-53.077333 47.872L234.666667 288V426.666667H298.666667a42.666667 42.666667 0 0 1 42.666666-42.666667h85.333334a42.666667 42.666667 0 0 1 42.368 37.674667L469.333333 426.666667h85.333334a42.666667 42.666667 0 0 1 42.666666-42.666667h85.333334a42.666667 42.666667 0 0 1 42.368 37.674667L725.333333 426.666667h64V288a53.333333 53.333333 0 0 0-47.872-53.077333L736 234.666667z" /></svg>