<svg class="icon" style="width: 1em;height: 1em;vertical-align: middle;fill: currentColor;overflow: hidden;" viewBox="0 0 1024 1024" version="1.1" xmlns="http://www.w3.org/2000/svg"><path d="M741.546667 100.010667a32 32 0 0 1-9.557334 44.245333L226.304 469.333333H405.333333v-32c0-41.216 33.450667-74.666667 74.666667-74.666666h138.666667v-32c0-41.216 33.450667-74.666667 74.666666-74.666667h128c41.216 0 74.666667 33.450667 74.666667 74.666667V469.333333h10.666667a32 32 0 0 1 32 32v298.666667A138.666667 138.666667 0 0 1 800 938.666667H224A138.666667 138.666667 0 0 1 85.333333 800v-298.666667a32 32 0 0 1 14.677334-26.88l597.333333-384a32 32 0 0 1 44.245333 9.557334zM832 469.333333V330.666667a10.666667 10.666667 0 0 0-10.666667-10.666667h-128a10.666667 10.666667 0 0 0-10.666666 10.666667V469.333333h149.333333z m-213.333333 0v-42.666666h-138.666667a10.666667 10.666667 0 0 0-10.666667 10.666666V469.333333h149.333334z m-469.333334 64v266.666667c0 41.216 33.450667 74.666667 74.666667 74.666667h576a74.666667 74.666667 0 0 0 74.666667-74.666667V533.333333h-725.333334z" /></svg>