<svg class="icon" style="width: 1em;height: 1em;vertical-align: middle;fill: currentColor;overflow: hidden;" viewBox="0 0 1024 1024" version="1.1" xmlns="http://www.w3.org/2000/svg"><path d="M512 85.376c235.690667 0 426.666667 191.018667 426.666667 426.666667s-190.976 426.666667-426.666667 426.666666c-235.605333 0-426.666667-191.018667-426.666667-426.666666s191.061333-426.666667 426.666667-426.666667z m0 64a362.666667 362.666667 0 1 0 0 725.333333 362.666667 362.666667 0 0 0 0-725.333333z m-181.333333 330.666667h362.666666a32 32 0 0 1 4.352 63.658666l-4.352 0.298667h-362.666666a32 32 0 0 1-4.352-63.701333l4.352-0.298667h362.666666-362.666666z" /></svg>