<svg class="icon" style="width: 1em;height: 1em;vertical-align: middle;fill: currentColor;overflow: hidden;" viewBox="0 0 1024 1024" version="1.1" xmlns="http://www.w3.org/2000/svg"><path d="M499.114667 553.557333l114.432 95.445334-122.709334 132.992v-221.568l8.277334-6.869334z m49.962666-41.642666l131.285334-109.397334a32 32 0 0 0 3.029333-46.293333l-201.002667-217.770667a32 32 0 0 0-55.552 21.674667v249.813333l-47.786666-39.850666a32 32 0 1 0-40.96 49.152l88.746666 74.026666v37.162667l-88.746666 73.984a32 32 0 0 0 40.96 49.152l47.786666-39.850667v250.154667a32 32 0 0 0 55.552 21.674667l201.002667-217.856a32 32 0 0 0-2.986667-46.293334l-131.328-109.482666z m-49.92-41.685334l-8.32-6.912V242.005333l122.709334 132.906667-114.432 95.317333z" /></svg>