<svg class="icon" style="width: 1em;height: 1em;vertical-align: middle;fill: currentColor;overflow: hidden;" viewBox="0 0 1024 1024" version="1.1" xmlns="http://www.w3.org/2000/svg"><path d="M139.946667 94.72a32 32 0 1 0-45.226667 45.226667L426.666667 471.893333v21.248l0.170666 0.128v37.162667l-88.746666 73.984a32 32 0 0 0 40.96 49.152l47.786666-39.850667v250.154667a32 32 0 0 0 55.552 21.674667l171.733334-186.154667 229.888 229.930667a32 32 0 0 0 45.269333-45.269334L139.946667 94.72z m350.805333 441.301333l118.101333 118.101334-118.016 127.872v-221.568l-0.085333-24.405334zM680.362667 402.517333l-77.482667 64.597334-45.482667-45.44 56.149334-46.762667-122.709334-132.906667v113.066667l-64-64V160.170667a32 32 0 0 1 55.552-21.674667l201.002667 217.770667a32 32 0 0 1-2.986667 46.293333z" /></svg>