<svg class="icon" style="width: 1em;height: 1em;vertical-align: middle;fill: currentColor;overflow: hidden;" viewBox="0 0 1024 1024" version="1.1" xmlns="http://www.w3.org/2000/svg"><path d="M426.837333 409.941333V160.128c0-27.562667 32.128-41.557333 52.309334-24.746667l3.2 3.072 201.045333 217.770667a32 32 0 0 1 0.213333 43.178667l-3.242666 3.114666-131.285334 109.397334 131.328 109.482666a32 32 0 0 1 5.802667 42.752l-2.816 3.541334-201.002667 217.856c-18.730667 20.309333-51.797333 8.832-55.253333-17.237334l-0.298667-4.437333v-250.154667l-47.786666 39.850667a32 32 0 0 1-44.373334-45.866667l3.413334-3.285333 88.746666-73.984v-37.12l-88.746666-74.069333a32 32 0 0 1 37.12-51.925334l3.84 2.773334 47.786666 39.850666V160.128v249.813333z m72.277334 143.616l-8.277334 6.826667v221.610667l122.709334-132.992-114.432-95.445334z m323.072-239.018666a32 32 0 0 1 45.098666 3.584 297.685333 297.685333 0 0 1 71.253334 193.664 297.685333 297.685333 0 0 1-71.68 194.133333 32 32 0 0 1-48.64-41.6 233.685333 233.685333 0 0 0 56.32-152.533333c0-56.576-20.053333-109.994667-55.936-152.149334a32 32 0 0 1 3.584-45.098666z m-85.12 77.354666a32 32 0 0 1 45.141333 3.584 178.944 178.944 0 0 1 42.794667 116.394667 178.944 178.944 0 0 1-43.093334 116.693333 32 32 0 0 1-48.597333-41.6c17.792-20.778667 27.733333-47.146667 27.733333-75.093333 0-27.861333-9.898667-54.101333-27.562666-74.88a32 32 0 0 1 3.584-45.098667z m-246.186667-149.888v221.312l8.234667 6.912 114.432-95.317333-122.709334-132.906667z" /></svg>