<svg class="icon" style="width: 1em;height: 1em;vertical-align: middle;fill: currentColor;overflow: hidden;" viewBox="0 0 1024 1024" version="1.1" xmlns="http://www.w3.org/2000/svg"><path d="M426.837333 409.941333V160.128c0-27.562667 32.085333-41.557333 52.266667-24.746667l3.242667 3.072 201.045333 217.770667a32 32 0 0 1 0.213333 43.178667l-3.242666 3.114666-131.285334 109.397334 131.285334 109.482666a32 32 0 0 1 5.845333 42.752l-2.816 3.541334-201.002667 217.856c-18.773333 20.309333-51.797333 8.832-55.253333-17.237334l-0.298667-4.437333v-250.154667l-47.786666 39.850667a32 32 0 0 1-44.373334-45.866667l3.413334-3.285333 88.746666-73.984v-37.12l-88.746666-74.069333a32 32 0 0 1 37.12-51.925334l3.84 2.773334 47.786666 39.850666V160.128v249.813333z m72.277334 143.616l-8.277334 6.826667v221.610667l122.709334-132.992-114.432-95.445334zM725.333333 469.333333a42.666667 42.666667 0 1 1 0 85.333334 42.666667 42.666667 0 0 1 0-85.333334zM256 469.333333a42.666667 42.666667 0 1 1 0 85.333334 42.666667 42.666667 0 0 1 0-85.333334z m234.837333-227.328v221.312l8.277334 6.912 114.432-95.317333-122.709334-132.906667z" /></svg>