<svg class="icon" style="width: 1em;height: 1em;vertical-align: middle;fill: currentColor;overflow: hidden;" viewBox="0 0 1024 1024" version="1.1" xmlns="http://www.w3.org/2000/svg"><path d="M128 512a384 384 0 0 1 596.352-320H512a320 320 0 1 0 0 640V768h286.208A384 384 0 0 1 128 512zM777.6 234.666667H512V298.666667h319.36a386.133333 386.133333 0 0 0-53.76-64zM512 341.333333h344.064c10.154667 20.352 18.517333 41.770667 24.917333 64H512V341.333333zM890.709333 448H512V512h384c0-21.802667-1.834667-43.178667-5.290667-64zM512 554.666667h381.653333a382.421333 382.421333 0 0 1-12.672 64H512V554.666667zM865.877333 661.333333H512V725.333333h319.36a383.146667 383.146667 0 0 0 34.56-64z" /></svg>