<svg class="icon" style="width: 1em;height: 1em;vertical-align: middle;fill: currentColor;overflow: hidden;" viewBox="0 0 1024 1024" version="1.1" xmlns="http://www.w3.org/2000/svg"><path d="M778.709333 106.581333a138.666667 138.666667 0 0 1 138.453334 130.816l0.213333 7.850667v512.170667a138.666667 138.666667 0 0 1-138.666667 138.666666h-512a138.666667 138.666667 0 0 1-138.496-130.816L128 757.418667V245.248a138.666667 138.666667 0 0 1 138.666667-138.666667h512.042666z m-288.042666 298.666667l-298.666667 0.042667v352.128l0.298667 6.826666a74.666667 74.666667 0 0 0 74.368 67.84l224-0.042666V405.248z m362.666666 256l-298.666666 0.042667v170.752h224a74.666667 74.666667 0 0 0 74.666666-74.666667v-96.128z m-74.624-490.666667L554.666667 170.538667V597.333333l298.666666-0.042666 0.042667-352-0.298667-6.826667a74.666667 74.666667 0 0 0-74.368-67.84zM490.666667 170.538667l-224 0.042666-6.101334 0.256a74.666667 74.666667 0 0 0-68.522666 74.410667L192 341.333333h298.666667V170.496z" /></svg>