<svg class="icon" style="width: 1em;height: 1em;vertical-align: middle;fill: currentColor;overflow: hidden;" viewBox="0 0 1024 1024" version="1.1" xmlns="http://www.w3.org/2000/svg"><path d="M128 266.666667A138.666667 138.666667 0 0 1 266.666667 128h490.666666A138.666667 138.666667 0 0 1 896 266.666667v490.666666A138.666667 138.666667 0 0 1 757.333333 896H266.666667A138.666667 138.666667 0 0 1 128 757.333333V266.666667z m64 266.666666v224c0 41.216 33.450667 74.666667 74.666667 74.666667H597.333333v-298.666667H192zM597.333333 469.333333V192H266.666667A74.666667 74.666667 0 0 0 192 266.666667V469.333333H597.333333z m234.666667-64h-170.666667v213.333334h170.666667v-213.333334z m0 277.333334h-170.666667v149.333333h96a74.666667 74.666667 0 0 0 74.666667-74.666667V682.666667z m0-341.333334V266.666667a74.666667 74.666667 0 0 0-74.666667-74.666667H661.333333V341.333333h170.666667z" /></svg>