<svg class="icon" style="width: 1em;height: 1em;vertical-align: middle;fill: currentColor;overflow: hidden;" viewBox="0 0 1024 1024" version="1.1" xmlns="http://www.w3.org/2000/svg"><path d="M264.106667 932.437333a32 32 0 0 1-50.688-26.026666V266.666667a138.666667 138.666667 0 0 1 138.666666-138.666667h319.957334A138.666667 138.666667 0 0 1 810.666667 266.624v639.829333a32 32 0 0 1-50.688 25.984l-247.936-178.389333-247.978667 178.346667zM746.666667 266.624a74.666667 74.666667 0 0 0-74.666667-74.666667H352.128a74.666667 74.666667 0 0 0-74.666667 74.666667v577.365333l215.978667-155.306666a32 32 0 0 1 37.376 0l215.893333 155.306666V266.666667z" /></svg>