<svg class="icon" style="width: 1em;height: 1em;vertical-align: middle;fill: currentColor;overflow: hidden;" viewBox="0 0 1024 1024" version="1.1" xmlns="http://www.w3.org/2000/svg"><path d="M470.357333 322.986667l-9.514666 38.826666H415.146667l-4.352 0.298667a32 32 0 0 0-27.648 31.701333l0.298666 4.352a32 32 0 0 0 31.701334 27.648h29.994666l-16.554666 67.669334-33.962667 0.042666-4.352 0.298667a32 32 0 0 0-27.648 31.701333l0.298667 4.352a32 32 0 0 0 31.701333 27.648h18.304l-5.248 21.589334-0.768 4.266666a32 32 0 0 0 24.234667 34.432l4.266666 0.768a32 32 0 0 0 34.432-24.234666l8.96-36.864h65.664l-5.034666 22.101333-0.682667 4.266667a32 32 0 0 0 24.746667 34.090666l4.266666 0.682667a32 32 0 0 0 34.090667-24.746667l8.277333-36.394666 40.106667 0.042666 4.352-0.298666a32 32 0 0 0 27.690667-31.701334l-0.298667-4.352a32 32 0 0 0-31.701333-27.648h-25.472l15.488-67.712h30.72l4.352-0.298666a32 32 0 0 0 27.648-31.701334l-0.298667-4.309333a32 32 0 0 0-31.701333-27.690667h-16.042667l5.546667-24.064 0.682666-4.266666a32 32 0 0 0-24.746666-34.048l-4.266667-0.682667a32 32 0 0 0-34.048 24.746667l-8.832 38.314666h-62.634667l5.802667-23.594666 0.768-4.266667a32 32 0 0 0-62.933333-10.922667z m40.704 102.826666h63.573334l-15.445334 67.669334H494.506667l16.554666-67.669334zM277.333333 85.333333A106.666667 106.666667 0 0 0 170.666667 192v640A106.666667 106.666667 0 0 0 277.333333 938.666667h565.333334a32 32 0 0 0 0-64H277.333333a42.666667 42.666667 0 0 1-42.666666-42.666667h608a32 32 0 0 0 32-32V192A106.666667 106.666667 0 0 0 768 85.333333H277.333333zM810.666667 768H234.666667V192a42.666667 42.666667 0 0 1 42.666666-42.666667H768a42.666667 42.666667 0 0 1 42.666667 42.666667V768z" /></svg>