<svg class="icon" style="width: 1em;height: 1em;vertical-align: middle;fill: currentColor;overflow: hidden;" viewBox="0 0 1024 1024" version="1.1" xmlns="http://www.w3.org/2000/svg"><path d="M435.072 318.464C461.653333 305.792 496.384 298.666667 533.333333 298.666667c36.949333 0 71.722667 7.125333 98.261334 19.797333C656.128 330.197333 682.666667 351.573333 682.666667 384s-26.496 53.76-51.072 65.536c-26.538667 12.672-61.312 19.797333-98.261334 19.797333-36.949333 0-71.722667-7.125333-98.261333-19.797333C410.538667 437.802667 384 416.426667 384 384s26.538667-53.76 51.072-65.536z m23.04 48.128c-19.84 9.472-20.778667 17.408-20.778667 17.408s0.938667 7.936 20.778667 17.408c17.877333 8.533333 44.416 14.592 75.221333 14.592s57.344-6.016 75.221334-14.592c19.84-9.472 20.778667-17.408 20.778666-17.408s-0.938667-7.936-20.778666-17.408c-17.877333-8.533333-44.416-14.592-75.221334-14.592s-57.344 6.016-75.221333 14.592zM533.333333 512c60.16 0 113.92-18.474667 149.12-47.36 0.128 1.578667 0.213333 3.114667 0.213334 4.693333 0 47.146667-66.858667 85.333333-149.333334 85.333334S384 516.48 384 469.333333c0-1.578667 0.085333-3.114667 0.213333-4.693333C419.413333 493.525333 473.173333 512 533.333333 512zM533.333333 597.333333c60.16 0 113.92-18.474667 149.12-47.36 0.128 1.578667 0.213333 3.114667 0.213334 4.693334 0 47.146667-66.858667 85.333333-149.333334 85.333333S384 601.813333 384 554.666667c0-1.578667 0.085333-3.114667 0.213333-4.693334C419.413333 578.858667 473.173333 597.333333 533.333333 597.333333zM277.333333 85.333333A106.666667 106.666667 0 0 0 170.666667 192v640A106.666667 106.666667 0 0 0 277.333333 938.666667h565.333334a32 32 0 0 0 0-64H277.333333a42.666667 42.666667 0 0 1-42.666666-42.666667h608a32 32 0 0 0 32-32V192A106.666667 106.666667 0 0 0 768 85.333333H277.333333zM810.666667 768H234.666667V192a42.666667 42.666667 0 0 1 42.666666-42.666667H768a42.666667 42.666667 0 0 1 42.666667 42.666667V768z" /></svg>