<svg class="icon" style="width: 1em;height: 1em;vertical-align: middle;fill: currentColor;overflow: hidden;" viewBox="0 0 1024 1024" version="1.1" xmlns="http://www.w3.org/2000/svg"><path d="M554.666667 245.333333a32 32 0 0 0-64 0v68.437334a117.376 117.376 0 0 0-49.152 197.632l-55.210667 138.069333a32 32 0 0 0 59.392 23.722667l52.693333-131.712a117.76 117.76 0 0 0 48.554667 0l52.693333 131.712a32 32 0 0 0 59.392-23.722667l-55.210666-138.069333A117.376 117.376 0 0 0 554.666667 313.770667V245.333333zM469.333333 426.666667a53.333333 53.333333 0 1 1 106.666667 0 53.333333 53.333333 0 0 1-106.666667 0zM277.333333 85.333333A106.666667 106.666667 0 0 0 170.666667 192v640A106.666667 106.666667 0 0 0 277.333333 938.666667h565.333334a32 32 0 0 0 0-64H277.333333a42.666667 42.666667 0 0 1-42.666666-42.666667h608a32 32 0 0 0 32-32V192A106.666667 106.666667 0 0 0 768 85.333333H277.333333zM810.666667 768H234.666667V192a42.666667 42.666667 0 0 1 42.666666-42.666667H768a42.666667 42.666667 0 0 1 42.666667 42.666667V768z" /></svg>