<svg class="icon" style="width: 1em;height: 1em;vertical-align: middle;fill: currentColor;overflow: hidden;" viewBox="0 0 1024 1024" version="1.1" xmlns="http://www.w3.org/2000/svg"><path d="M533.333333 704c94.293333 0 170.666667-105.045333 170.666667-234.666667s-76.373333-234.666667-170.666667-234.666666-170.666667 105.045333-170.666666 234.666666 76.373333 234.666667 170.666666 234.666667z m68.906667-106.368c-22.144 30.464-47.317333 42.368-68.906667 42.368s-46.762667-11.946667-68.906666-42.368c-15.872-21.845333-28.416-51.242667-34.218667-85.632h206.250667c-5.802667 34.389333-18.346667 63.786667-34.218667 85.632z m0-256.597333c19.072 26.24 33.322667 63.402667 36.906667 106.965333h-211.626667c3.584-43.562667 17.834667-80.725333 36.906667-106.965333C486.570667 310.613333 511.744 298.666667 533.333333 298.666667s46.762667 11.946667 68.906667 42.368zM277.333333 85.333333A106.666667 106.666667 0 0 0 170.666667 192v640A106.666667 106.666667 0 0 0 277.333333 938.666667h565.333334a32 32 0 0 0 0-64H277.333333a42.666667 42.666667 0 0 1-42.666666-42.666667h608a32 32 0 0 0 32-32V192A106.666667 106.666667 0 0 0 768 85.333333H277.333333zM810.666667 768H234.666667V192a42.666667 42.666667 0 0 1 42.666666-42.666667H768a42.666667 42.666667 0 0 1 42.666667 42.666667V768z" /></svg>