<svg class="icon" style="width: 1em;height: 1em;vertical-align: middle;fill: currentColor;overflow: hidden;" viewBox="0 0 1024 1024" version="1.1" xmlns="http://www.w3.org/2000/svg"><path d="M815.232 391.168a192 192 0 1 1 45.226667-45.226667l111.488 111.445334a32 32 0 1 1-45.226667 45.226666l-111.488-111.445333zM832 234.666667a128 128 0 1 0-256 0 128 128 0 0 0 256 0z m-21.333333 212.309333v459.477333a32 32 0 0 1-50.688 25.984l-247.893334-178.389333-247.978666 178.346667a32 32 0 0 1-50.688-25.941334V266.624a138.666667 138.666667 0 0 1 138.666666-138.666667H494.933333c-10.154667 19.882667-17.578667 41.386667-21.76 64H352.085333a74.666667 74.666667 0 0 0-74.666666 74.666667v577.365333l215.936-155.306666a32 32 0 0 1 37.376 0l215.936 155.306666V465.493333a233.088 233.088 0 0 0 61.866666-20.650666l2.133334 2.133333z" /></svg>