<svg class="icon" style="width: 1em;height: 1em;vertical-align: middle;fill: currentColor;overflow: hidden;" viewBox="0 0 1024 1024" version="1.1" xmlns="http://www.w3.org/2000/svg"><path d="M632.277333 503.253333a158.890667 158.890667 0 1 0-43.690666 43.690667l105.642666 105.6 2.858667 2.474667 0.341333 0.256a30.890667 30.890667 0 0 0 40.192-46.634667l-105.386666-105.386667z m-132.053333-185.514666a97.109333 97.109333 0 1 1 0 194.261333 97.109333 97.109333 0 0 1 0-194.261333zM277.333333 85.333333A106.666667 106.666667 0 0 0 170.666667 192v640A106.666667 106.666667 0 0 0 277.333333 938.666667h565.333334a32 32 0 0 0 0-64H277.333333a42.666667 42.666667 0 0 1-42.666666-42.666667h608a32 32 0 0 0 32-32V192A106.666667 106.666667 0 0 0 768 85.333333H277.333333zM810.666667 768H234.666667V192a42.666667 42.666667 0 0 1 42.666666-42.666667H768a42.666667 42.666667 0 0 1 42.666667 42.666667V768z" /></svg>