<svg class="icon" style="width: 1em;height: 1em;vertical-align: middle;fill: currentColor;overflow: hidden;" viewBox="0 0 1024 1024" version="1.1" xmlns="http://www.w3.org/2000/svg"><path d="M565.333333 298.666667a42.666667 42.666667 0 1 1-85.333333 0 42.666667 42.666667 0 0 1 85.333333 0zM490.666667 416v213.333333a32 32 0 0 0 64 0v-213.333333a32 32 0 0 0-64 0zM170.666667 192A106.666667 106.666667 0 0 1 277.333333 85.333333H768a106.666667 106.666667 0 0 1 106.666667 106.666667v608a32 32 0 0 1-32 32H234.666667a42.666667 42.666667 0 0 0 42.666666 42.666667h565.333334a32 32 0 0 1 0 64H277.333333A106.666667 106.666667 0 0 1 170.666667 832v-640zM810.666667 768V192a42.666667 42.666667 0 0 0-42.666667-42.666667H277.333333a42.666667 42.666667 0 0 0-42.666666 42.666667V768H810.666667z" /></svg>