<svg class="icon" style="width: 1em;height: 1em;vertical-align: middle;fill: currentColor;overflow: hidden;" viewBox="0 0 1024 1024" version="1.1" xmlns="http://www.w3.org/2000/svg"><path d="M512 816.512A116.992 116.992 0 0 1 426.666667 853.333333H160A74.666667 74.666667 0 0 1 85.333333 778.666667V245.333333C85.333333 204.117333 118.784 170.666667 160 170.666667H426.666667c33.621333 0 63.957333 14.122667 85.333333 36.821333A116.992 116.992 0 0 1 597.333333 170.666667h266.666667c41.216 0 74.666667 33.450667 74.666667 74.666666v373.333334c0-32-10.794667-63.402667-29.653334-88.96a150.186667 150.186667 0 0 0-34.346666-33.621334V245.333333a10.666667 10.666667 0 0 0-10.666667-10.666666H597.333333c-29.44 0-53.333333 23.893333-53.333333 53.333333v448c0 12.8 4.522667 24.618667 12.074667 33.834667 1.365333 10.837333 3.626667 21.504 6.741333 31.829333 5.504 18.218667 13.610667 35.413333 23.808 51.2A117.034667 117.034667 0 0 1 512 816.512zM149.333333 245.333333v533.333334c0 5.888 4.778667 10.666667 10.666667 10.666666H426.666667c29.44 0 53.333333-23.893333 53.333333-53.333333V288c0-29.44-23.893333-53.333333-53.333333-53.333333H160a10.666667 10.666667 0 0 0-10.666667 10.666666z m725.888 607.146667c38.4-22.357333 63.445333-60.074667 63.445334-105.813333a21.333333 21.333333 0 0 1 42.666666 0c0 85.333333-74.666667 158.890667-170.666666 169.514666V960a21.333333 21.333333 0 0 1-42.666667 0v-43.818667c-51.157333-5.674667-96.256-29.184-127.232-62.848a168.96 168.96 0 0 1-31.701333-48.938666A147.413333 147.413333 0 0 1 597.333333 746.666667a21.333333 21.333333 0 0 1 42.666667 0 117.333333 117.333333 0 0 0 30.549333 79.274666c9.642667 10.709333 21.248 19.925333 34.346667 27.392 24.021333 13.653333 53.12 21.333333 84.437333 21.333334 32 0 61.568-8.021333 85.888-22.186667zM789.333333 832a104.533333 104.533333 0 0 1-85.12-42.666667A108.202667 108.202667 0 0 1 682.666667 725.333333v-106.666666c0-53.504 42.666667-106.666667 106.666666-106.666667 36.906667 0 66.688 17.792 85.333334 43.050667 13.653333 18.517333 21.333333 41.088 21.333333 63.616V725.333333c0 53.162667-42.666667 106.666667-106.666667 106.666667z" /></svg>