<svg class="icon" style="width: 1em;height: 1em;vertical-align: middle;fill: currentColor;overflow: hidden;" viewBox="0 0 1024 1024" version="1.1" xmlns="http://www.w3.org/2000/svg"><path d="M554.666667 389.333333v69.333334h32a26.666667 26.666667 0 1 1 0 53.333333H533.333333a26.24 26.24 0 0 1-2.688-0.128 26.666667 26.666667 0 0 1-29.354666-26.538667v-96a26.666667 26.666667 0 1 1 53.376 0zM528 256.213333a202.666667 202.666667 0 1 0 0 405.333334 202.666667 202.666667 0 0 0 0-405.333334z m-149.333333 202.666667a149.333333 149.333333 0 1 1 298.666666 0 149.333333 149.333333 0 0 1-298.666666 0zM277.333333 85.333333A106.666667 106.666667 0 0 0 170.666667 192v640A106.666667 106.666667 0 0 0 277.333333 938.666667h565.333334a32 32 0 0 0 0-64H277.333333a42.666667 42.666667 0 0 1-42.666666-42.666667h608a32 32 0 0 0 32-32V192A106.666667 106.666667 0 0 0 768 85.333333H277.333333zM810.666667 768H234.666667V192a42.666667 42.666667 0 0 1 42.666666-42.666667H768a42.666667 42.666667 0 0 1 42.666667 42.666667V768z" /></svg>