<svg class="icon" style="width: 1em;height: 1em;vertical-align: middle;fill: currentColor;overflow: hidden;" viewBox="0 0 1024 1024" version="1.1" xmlns="http://www.w3.org/2000/svg"><path d="M128 192A106.666667 106.666667 0 0 1 234.666667 85.333333H725.333333a106.666667 106.666667 0 0 1 106.666667 106.666667v290.688a276.266667 276.266667 0 0 0-64-12.544V192a42.666667 42.666667 0 0 0-42.666667-42.666667H234.666667a42.666667 42.666667 0 0 0-42.666667 42.666667V768h278.144c1.706667 22.186667 5.973333 43.605333 12.544 64H192a42.666667 42.666667 0 0 0 42.666667 42.666667h265.898666A278.101333 278.101333 0 0 0 546.56 938.666667H234.666667A106.666667 106.666667 0 0 1 128 832v-640zM746.666667 512a234.666667 234.666667 0 1 1 0 469.333333 234.666667 234.666667 0 0 1 0-469.333333z m21.376 362.794667V768h106.752a21.333333 21.333333 0 1 0 0-42.666667H768v-106.666666a21.333333 21.333333 0 1 0-42.666667 0V725.333333h-106.837333a21.333333 21.333333 0 0 0 0 42.666667h106.88v106.794667a21.333333 21.333333 0 1 0 42.666667 0zM256 256a42.666667 42.666667 0 0 1 42.666667-42.666667h341.333333a42.666667 42.666667 0 0 1 42.666667 42.666667v85.333333a42.666667 42.666667 0 0 1-42.666667 42.666667H298.666667a42.666667 42.666667 0 0 1-42.666667-42.666667V256z m64 64h298.666667v-42.666667h-298.666667v42.666667z" /></svg>