<svg class="icon" style="width: 1em;height: 1em;vertical-align: middle;fill: currentColor;overflow: hidden;" viewBox="0 0 1024 1024" version="1.1" xmlns="http://www.w3.org/2000/svg"><path d="M149.333333 245.333333a10.666667 10.666667 0 0 1 10.666667-10.666666H426.666667c29.44 0 53.333333 23.893333 53.333333 53.333333v382.250667a276.906667 276.906667 0 0 1 64-112.896V288c0-29.44 23.893333-53.333333 53.333333-53.333333h266.666667a10.666667 10.666667 0 0 1 10.666667 10.666666v255.232A278.101333 278.101333 0 0 1 938.666667 546.56V245.333333A74.666667 74.666667 0 0 0 864 170.666667H597.333333c-33.621333 0-63.957333 14.122667-85.333333 36.821333A116.992 116.992 0 0 0 426.666667 170.666667H160A74.666667 74.666667 0 0 0 85.333333 245.333333v533.333334c0 41.216 33.450667 74.666667 74.666667 74.666666H426.666667c21.12 0 40.96-5.546667 58.026666-15.36a276.181333 276.181333 0 0 1-14.634666-70.954666A53.248 53.248 0 0 1 426.666667 789.333333H160a10.666667 10.666667 0 0 1-10.666667-10.666666V245.333333zM682.965333 725.333333c1.706667-60.373333 10.581333-113.877333 23.594667-152.96 7.296-21.888 15.530667-38.101333 23.637333-48.384 8.32-10.538667 14.037333-11.989333 16.469334-11.989333 2.432 0 8.192 1.450667 16.469333 11.989333 8.106667 10.282667 16.341333 26.453333 23.637333 48.384 13.013333 39.082667 21.888 92.586667 23.594667 152.96h-127.402667z m-16.896-166.4c4.608-13.781333 9.813333-26.538667 15.701334-37.845333A234.837333 234.837333 0 0 0 512.981333 725.333333h127.317334c1.706667-64 11.093333-122.282667 25.770666-166.4z m161.194667 0a261.674667 261.674667 0 0 0-15.701333-37.845333A234.837333 234.837333 0 0 1 980.394667 725.333333h-127.36c-1.706667-64-11.093333-122.282667-25.770667-166.4z m25.770667 209.066667h127.36a234.837333 234.837333 0 0 1-168.832 204.245333c5.888-11.306667 11.093333-24.064 15.701333-37.802666 14.72-44.16 24.064-102.4 25.770667-166.442667z m-89.898667 201.344c-8.277333 10.538667-14.037333 11.989333-16.469333 11.989333-2.432 0-8.149333-1.450667-16.469334-11.989333-8.106667-10.282667-16.341333-26.453333-23.637333-48.426667-13.013333-39.04-21.888-92.586667-23.594667-152.917333h127.402667c-1.706667 60.373333-10.581333 113.877333-23.594667 152.917333-7.296 21.930667-15.530667 38.144-23.637333 48.426667zM512.981333 768a234.837333 234.837333 0 0 0 168.789334 204.245333 261.674667 261.674667 0 0 1-15.658667-37.802666c-14.762667-44.16-24.106667-102.4-25.813333-166.442667h-127.317334z" /></svg>