<svg class="icon" style="width: 1em;height: 1em;vertical-align: middle;fill: currentColor;overflow: hidden;" viewBox="0 0 1024 1024" version="1.1" xmlns="http://www.w3.org/2000/svg"><path d="M533.333333 256a32 32 0 0 0-29.653333 19.968l-138.666667 341.333333a32 32 0 1 0 59.306667 24.064L459.52 554.666667h147.626667l35.2 86.698666a32 32 0 0 0 59.306666-24.064l-138.666666-341.333333A32 32 0 0 0 533.333333 256z m-47.786666 234.666667l47.786666-117.632 47.786667 117.632h-95.573333zM170.666667 192A106.666667 106.666667 0 0 1 277.333333 85.333333H768a106.666667 106.666667 0 0 1 106.666667 106.666667v608a32 32 0 0 1-32 32H234.666667a42.666667 42.666667 0 0 0 42.666666 42.666667h565.333334a32 32 0 0 1 0 64H277.333333A106.666667 106.666667 0 0 1 170.666667 832v-640zM234.666667 768H810.666667V192a42.666667 42.666667 0 0 0-42.666667-42.666667H277.333333a42.666667 42.666667 0 0 0-42.666666 42.666667V768z" /></svg>