<svg class="icon" style="width: 1em;height: 1em;vertical-align: middle;fill: currentColor;overflow: hidden;" viewBox="0 0 1024 1024" version="1.1" xmlns="http://www.w3.org/2000/svg"><path d="M618.666667 373.333333a32 32 0 0 1-32-31.274666v-0.213334a30.805333 30.805333 0 0 0-5.717334-14.08c-4.650667-6.272-17.834667-19.157333-57.728-18.432-23.466667 0.426667-40.832 10.069333-50.304 21.802667a39.253333 39.253333 0 0 0-5.888 40.96c4.992 12.458667 16 18.773333 39.125334 29.013333l1.621333 0.682667c9.429333 4.181333 22.869333 10.069333 33.536 18.602667 13.269333 10.666667 24.021333 26.624 24.021333 48.938666v32a32 32 0 1 1-64-0.042666v-30.890667l-0.042666-0.042667c-3.413333-2.730667-9.130667-5.461333-20.992-10.709333l-2.176-0.981333c-20.053333-8.832-55.04-24.149333-70.485334-62.805334a103.210667 103.210667 0 0 1 15.445334-104.874666c22.528-27.946667 58.496-44.970667 99.029333-45.653334 56.106667-0.981333 90.88 18.176 110.293333 44.330667a94.890667 94.890667 0 0 1 17.92 45.525333 68.394667 68.394667 0 0 1 0.341334 5.717334v0.341333s0 32.085333-32 32.085333z m-128 245.333334a42.666667 42.666667 0 1 0 85.333333 0 42.666667 42.666667 0 0 0-85.333333 0zM277.333333 85.333333A106.666667 106.666667 0 0 0 170.666667 192v640A106.666667 106.666667 0 0 0 277.333333 938.666667h565.333334a32 32 0 0 0 0-64H277.333333a42.666667 42.666667 0 0 1-42.666666-42.666667h608a32 32 0 0 0 32-32V192A106.666667 106.666667 0 0 0 768 85.333333H277.333333z m-42.666666 682.666667V192a42.666667 42.666667 0 0 1 42.666666-42.666667H768a42.666667 42.666667 0 0 1 42.666667 42.666667V768H234.666667z" /></svg>