<svg class="icon" style="width: 1em;height: 1em;vertical-align: middle;fill: currentColor;overflow: hidden;" viewBox="0 0 1024 1024" version="1.1" xmlns="http://www.w3.org/2000/svg"><path d="M170.666667 287.914667a96 96 0 0 1 96-96h384a96 96 0 0 1 96 96V906.666667a32 32 0 0 1-48.085334 27.648l-239.914666-139.946667-239.872 139.946667A32 32 0 0 1 170.666667 906.666667V287.914667z m96-32a32 32 0 0 0-32 32v563.029333l207.914666-121.258667a32 32 0 0 1 32.213334 0l207.914666 121.258667V287.914667a32 32 0 0 0-32-32h-384z m384-170.581334A202.666667 202.666667 0 0 1 853.333333 288v506.581333a32 32 0 0 1-64 0V288.042667a138.666667 138.666667 0 0 0-138.666666-138.666667H283.178667s4.821333-23.808 34.005333-46.165333C341.333333 85.333333 367.018667 85.333333 367.018667 85.333333h283.648z" /></svg>