<svg class="icon" style="width: 1em;height: 1em;vertical-align: middle;fill: currentColor;overflow: hidden;" viewBox="0 0 1024 1024" version="1.1" xmlns="http://www.w3.org/2000/svg"><path d="M298.666667 256a42.666667 42.666667 0 0 1 42.666666-42.666667h341.333334a42.666667 42.666667 0 0 1 42.666666 42.666667v85.333333a42.666667 42.666667 0 0 1-42.666666 42.666667H341.333333a42.666667 42.666667 0 0 1-42.666666-42.666667V256z m64 64h298.666666v-42.666667h-298.666666v42.666667zM170.666667 192A106.666667 106.666667 0 0 1 277.333333 85.333333H768a106.666667 106.666667 0 0 1 106.666667 106.666667v608a32 32 0 0 1-32 32H234.666667a42.666667 42.666667 0 0 0 42.666666 42.666667h565.333334a32 32 0 0 1 0 64H277.333333A106.666667 106.666667 0 0 1 170.666667 832v-640zM234.666667 768H810.666667V192a42.666667 42.666667 0 0 0-42.666667-42.666667H277.333333a42.666667 42.666667 0 0 0-42.666666 42.666667V768z" /></svg>