<svg class="icon" style="width: 1em;height: 1em;vertical-align: middle;fill: currentColor;overflow: hidden;" viewBox="0 0 1024 1024" version="1.1" xmlns="http://www.w3.org/2000/svg"><path d="M512 816.512A116.992 116.992 0 0 1 426.666667 853.333333H160A74.666667 74.666667 0 0 1 85.333333 778.666667V245.333333C85.333333 204.117333 118.784 170.666667 160 170.666667H426.666667c33.621333 0 63.957333 14.122667 85.333333 36.821333A116.992 116.992 0 0 1 597.333333 170.666667h266.666667c41.216 0 74.666667 33.450667 74.666667 74.666666v533.333334A74.666667 74.666667 0 0 1 864 853.333333H597.333333a116.992 116.992 0 0 1-85.333333-36.821333zM149.333333 245.333333v533.333334c0 5.888 4.778667 10.666667 10.666667 10.666666H426.666667c29.44 0 53.333333-23.893333 53.333333-53.333333V288c0-29.44-23.893333-53.333333-53.333333-53.333333H160a10.666667 10.666667 0 0 0-10.666667 10.666666z m394.666667 490.666667c0 29.44 23.893333 53.333333 53.333333 53.333333h266.666667a10.666667 10.666667 0 0 0 10.666667-10.666666V245.333333a10.666667 10.666667 0 0 0-10.666667-10.666666H597.333333c-29.44 0-53.333333 23.893333-53.333333 53.333333v448z" /></svg>