<svg class="icon" style="width: 1em;height: 1em;vertical-align: middle;fill: currentColor;overflow: hidden;" viewBox="0 0 1024 1024" version="1.1" xmlns="http://www.w3.org/2000/svg"><path d="M704 384v170.666667c0 38.016-28.16 65.194667-57.429333 80.981333-30.634667 16.469333-70.698667 25.685333-113.237334 25.685333-42.538667 0-82.602667-9.216-113.237333-25.685333C390.826667 619.861333 362.666667 592.64 362.666667 554.666667V384c0-38.016 28.16-65.194667 57.429333-80.981333 30.634667-16.469333 70.698667-25.685333 113.237333-25.685334 42.538667 0 82.602667 9.216 113.237334 25.685334C675.84 318.805333 704 346.026667 704 384z m-253.568-24.618667C429.568 370.602667 426.666667 380.8 426.666667 384c0 3.2 2.901333 13.397333 23.765333 24.618667 19.626667 10.538667 48.853333 18.048 82.901333 18.048s63.317333-7.509333 82.901334-18.048C637.098667 397.397333 640 387.2 640 384c0-3.2-2.901333-13.397333-23.765333-24.618667C596.565333 348.842667 567.381333 341.333333 533.333333 341.333333s-63.317333 7.509333-82.901333 18.048zM640 468.309333c-29.653333 14.378667-67.114667 22.357333-106.666667 22.357334s-77.013333-7.978667-106.666666-22.357334V554.666667c0 3.2 2.901333 13.354667 23.765333 24.618666 19.626667 10.538667 48.853333 18.048 82.901333 18.048s63.317333-7.509333 82.901334-18.048c20.864-11.264 23.765333-21.418667 23.765333-24.618666v-86.357334zM170.666667 192A106.666667 106.666667 0 0 1 277.333333 85.333333H768a106.666667 106.666667 0 0 1 106.666667 106.666667v608a32 32 0 0 1-32 32H234.666667a42.666667 42.666667 0 0 0 42.666666 42.666667h565.333334a32 32 0 0 1 0 64H277.333333A106.666667 106.666667 0 0 1 170.666667 832v-640zM234.666667 768H810.666667V192a42.666667 42.666667 0 0 0-42.666667-42.666667H277.333333a42.666667 42.666667 0 0 0-42.666666 42.666667V768z" /></svg>