<svg class="icon" style="width: 1em;height: 1em;vertical-align: middle;fill: currentColor;overflow: hidden;" viewBox="0 0 1024 1024" version="1.1" xmlns="http://www.w3.org/2000/svg"><path d="M139.946667 94.72a32 32 0 1 0-45.226667 45.226667l118.954667 118.954666a140.8 140.8 0 0 0-0.213334 7.722667v639.829333a32 32 0 0 0 50.688 25.984L512 754.048l247.978667 178.346667A32 32 0 0 0 810.666667 906.496v-50.474667l73.301333 73.301334a32 32 0 0 0 45.269333-45.226667L139.946667 94.72z m606.762666 697.258667v52.053333L530.773333 688.64a32 32 0 0 0-37.376 0l-215.936 155.392V322.688L746.666667 791.978667zM746.709333 266.666667v344.32l64 64V266.666667A138.666667 138.666667 0 0 0 672.042667 128H352.128c-25.386667 0-49.194667 6.826667-69.674667 18.688l48.341334 48.341333a74.666667 74.666667 0 0 1 21.333333-3.072h319.914667c41.258667 0 74.666667 33.450667 74.666666 74.666667z" /></svg>