<svg class="icon" style="width: 1em;height: 1em;vertical-align: middle;fill: currentColor;overflow: hidden;" viewBox="0 0 1024 1024" version="1.1" xmlns="http://www.w3.org/2000/svg"><path d="M981.333333 277.333333a234.666667 234.666667 0 1 0-469.333333 0 234.666667 234.666667 0 0 0 469.333333 0zM768 298.666667l0.042667 106.837333a21.333333 21.333333 0 1 1-42.666667 0V298.666667h-106.88a21.333333 21.333333 0 0 1 0-42.666667H725.333333V149.333333a21.333333 21.333333 0 0 1 42.666667 0V256h106.538667a21.333333 21.333333 0 0 1 0 42.666667H768z m-21.333333 545.365333V554.666667a278.186667 278.186667 0 0 0 64-7.424v359.253333a32 32 0 0 1-50.645334 25.941333l-247.936-178.389333-247.978666 178.346667a32 32 0 0 1-50.688-25.941334V266.666667A138.666667 138.666667 0 0 1 352.085333 128h160.853334a275.968 275.968 0 0 0-30.208 64H352.085333a74.666667 74.666667 0 0 0-74.666666 74.666667v577.408l215.978666-155.392a32 32 0 0 1 37.376 0l215.893334 155.392z" /></svg>