<svg class="icon" style="width: 1em;height: 1em;vertical-align: middle;fill: currentColor;overflow: hidden;" viewBox="0 0 1024 1024" version="1.1" xmlns="http://www.w3.org/2000/svg"><path d="M498.773333 318.208a32 32 0 0 0-58.026666-1.834667L374.826667 448H330.666667a32 32 0 0 0 0 64h64a32 32 0 0 0 28.586666-17.706667l43.648-87.210666 90.282667 213.376a32 32 0 0 0 57.130667 3.669333L679.68 512h34.944a32 32 0 0 0 0-64H661.333333a32 32 0 0 0-27.648 15.872l-42.453333 72.789333-92.416-218.453333zM277.333333 85.333333A106.666667 106.666667 0 0 0 170.666667 192v640A106.666667 106.666667 0 0 0 277.333333 938.666667h565.333334a32 32 0 0 0 0-64H277.333333a42.666667 42.666667 0 0 1-42.666666-42.666667h608a32 32 0 0 0 32-32V192A106.666667 106.666667 0 0 0 768 85.333333H277.333333zM810.666667 768H234.666667V192a42.666667 42.666667 0 0 1 42.666666-42.666667H768a42.666667 42.666667 0 0 1 42.666667 42.666667V768z" /></svg>