<svg class="icon" style="width: 1em;height: 1em;vertical-align: middle;fill: currentColor;overflow: hidden;" viewBox="0 0 1024 1024" version="1.1" xmlns="http://www.w3.org/2000/svg"><path d="M266.666667 128a32 32 0 0 1 0 64h-21.333334c-29.44 0-53.333333 23.893333-53.333333 53.333333v533.333334c0 29.44 23.893333 53.333333 53.333333 53.333333h21.333334a32 32 0 0 1 0 64h-21.333334A117.333333 117.333333 0 0 1 128 778.666667V245.333333A117.333333 117.333333 0 0 1 245.333333 128h21.333334zM565.333333 192a32 32 0 0 0 0-64h-106.666666a32 32 0 0 0 0 64h106.666666zM832 458.666667a32 32 0 0 1 64 0v106.666666a32 32 0 0 1-64 0v-106.666666zM597.333333 864a32 32 0 0 1-32 32h-106.666666a32 32 0 0 1 0-64h106.666666a32 32 0 0 1 32 32zM757.333333 128a32 32 0 0 0 0 64h21.333334c29.44 0 53.333333 23.893333 53.333333 53.333333v21.333334a32 32 0 0 0 64 0v-21.333334A117.333333 117.333333 0 0 0 778.666667 128h-21.333334zM725.333333 864c0 17.664 14.336 32 32 32h21.333334A117.333333 117.333333 0 0 0 896 778.666667v-21.333334a32 32 0 0 0-64 0v21.333334c0 29.44-23.893333 53.333333-53.333333 53.333333h-21.333334a32 32 0 0 0-32 32z" /></svg>