<svg class="icon" style="width: 1em;height: 1em;vertical-align: middle;fill: currentColor;overflow: hidden;" viewBox="0 0 1024 1024" version="1.1" xmlns="http://www.w3.org/2000/svg"><path d="M565.333333 192a32 32 0 0 0 0-64h-106.666666a32 32 0 0 0 0 64h106.666666zM160 426.666667a32 32 0 0 1 32 32v106.666666a32 32 0 0 1-64 0v-106.666666a32 32 0 0 1 32-32zM864 426.666667a32 32 0 0 0-32 32v106.666666a32 32 0 0 0 64 0v-106.666666a32 32 0 0 0-32-32zM160 896a32 32 0 0 1 0-64h704a32 32 0 0 1 0 64H160zM128 757.333333c0 17.664 14.336 32 32 32h704a32 32 0 0 0 0-64H160a32 32 0 0 0-32 32zM298.666667 160A32 32 0 0 0 266.666667 128h-21.333334A117.333333 117.333333 0 0 0 128 245.333333v21.333334a32 32 0 0 0 64 0v-21.333334c0-29.44 23.893333-53.333333 53.333333-53.333333h21.333334A32 32 0 0 0 298.666667 160zM757.333333 128a32 32 0 0 0 0 64h21.333334c29.44 0 53.333333 23.893333 53.333333 53.333333v21.333334a32 32 0 0 0 64 0v-21.333334A117.333333 117.333333 0 0 0 778.666667 128h-21.333334z" /></svg>