<svg class="icon" style="width: 1em;height: 1em;vertical-align: middle;fill: currentColor;overflow: hidden;" viewBox="0 0 1024 1024" version="1.1" xmlns="http://www.w3.org/2000/svg"><path d="M128 245.333333A117.333333 117.333333 0 0 1 245.333333 128h533.333334A117.333333 117.333333 0 0 1 896 245.333333v533.333334A117.333333 117.333333 0 0 1 778.666667 896H245.333333A117.333333 117.333333 0 0 1 128 778.666667V245.333333z m416 586.666667h234.666667c29.44 0 53.333333-23.893333 53.333333-53.333333v-234.666667h-288v288z m-64-288H192v234.666667c0 29.44 23.893333 53.333333 53.333333 53.333333h234.666667v-288z m64-64h288v-234.666667c0-29.44-23.893333-53.333333-53.333333-53.333333h-234.666667v288z m-64-288h-234.666667c-29.44 0-53.333333 23.893333-53.333333 53.333333v234.666667h288V192z" /></svg>