<svg class="icon" style="width: 1em;height: 1em;vertical-align: middle;fill: currentColor;overflow: hidden;" viewBox="0 0 1024 1024" version="1.1" xmlns="http://www.w3.org/2000/svg"><path d="M128 266.666667a32 32 0 0 0 64 0v-21.333334c0-29.44 23.893333-53.333333 53.333333-53.333333h533.333334c29.44 0 53.333333 23.893333 53.333333 53.333333v21.333334a32 32 0 0 0 64 0v-21.333334A117.333333 117.333333 0 0 0 778.666667 128H245.333333A117.333333 117.333333 0 0 0 128 245.333333v21.333334zM160 426.666667a32 32 0 0 1 32 32v106.666666a32 32 0 0 1-64 0v-106.666666a32 32 0 0 1 32-32zM864 426.666667a32 32 0 0 0-32 32v106.666666a32 32 0 0 0 64 0v-106.666666a32 32 0 0 0-32-32zM128 864c0 17.664 14.336 32 32 32h704a32 32 0 0 0 0-64H160a32 32 0 0 0-32 32zM160 789.333333a32 32 0 0 1 0-64h704a32 32 0 0 1 0 64H160z" /></svg>