<svg class="icon" style="width: 1em;height: 1em;vertical-align: middle;fill: currentColor;overflow: hidden;" viewBox="0 0 1024 1024" version="1.1" xmlns="http://www.w3.org/2000/svg"><path d="M160 298.666667A32 32 0 0 1 128 266.666667v-21.333334A117.333333 117.333333 0 0 1 245.333333 128h533.333334A117.333333 117.333333 0 0 1 896 245.333333v21.333334a32 32 0 0 1-64 0v-21.333334c0-29.44-23.893333-53.333333-53.333333-53.333333H245.333333c-29.44 0-53.333333 23.893333-53.333333 53.333333v21.333334a32 32 0 0 1-32 32zM192 458.666667a32 32 0 0 0-64 0v106.666666a32 32 0 0 0 64 0v-106.666666zM832 458.666667a32 32 0 0 1 64 0v106.666666a32 32 0 0 1-64 0v-106.666666zM128 757.333333a32 32 0 0 1 64 0v21.333334c0 29.44 23.893333 53.333333 53.333333 53.333333h533.333334c29.44 0 53.333333-23.893333 53.333333-53.333333v-21.333334a32 32 0 0 1 64 0v21.333334A117.333333 117.333333 0 0 1 778.666667 896H245.333333A117.333333 117.333333 0 0 1 128 778.666667v-21.333334z" /></svg>