<svg class="icon" style="width: 1em;height: 1em;vertical-align: middle;fill: currentColor;overflow: hidden;" viewBox="0 0 1024 1024" version="1.1" xmlns="http://www.w3.org/2000/svg"><path d="M746.666667 512a234.666667 234.666667 0 1 1 0 469.333333 234.666667 234.666667 0 0 1 0-469.333333z m-233.728 85.333333a276.053333 276.053333 0 0 0-30.250667 64h-301.226667a32 32 0 0 0-32 32v38.741334c0 27.946667 12.202667 54.528 33.450667 72.789333C236.586667 850.986667 317.44 874.752 426.666667 874.752c25.557333 0 49.536-1.28 72.021333-3.882667 10.624 21.333333 24.021333 41.088 39.637333 58.88-34.218667 5.973333-71.466667 8.96-111.658666 8.96-123.306667 0-218.794667-27.989333-285.482667-85.333333a160 160 0 0 1-55.722667-121.301333v-38.741334A96 96 0 0 1 181.461333 597.333333h331.52z m233.728 0l-3.84 0.341334a21.333333 21.333333 0 0 0-17.152 17.152L725.333333 618.666667V725.333333h-106.752l-3.84 0.384a21.333333 21.333333 0 0 0-17.152 17.152l-0.341333 3.84 0.341333 3.84a21.333333 21.333333 0 0 0 17.152 17.109334l3.84 0.341333H725.333333l0.042667 106.837333 0.341333 3.84a21.333333 21.333333 0 0 0 17.152 17.152l3.84 0.341334 3.84-0.341334a21.333333 21.333333 0 0 0 17.152-17.152l0.341334-3.84V768h106.794666l3.84-0.341333a21.333333 21.333333 0 0 0 17.152-17.152l0.341334-3.84-0.341334-3.84a21.333333 21.333333 0 0 0-17.152-17.109334l-3.84-0.384H768v-106.666666l-0.298667-3.84a21.333333 21.333333 0 0 0-17.152-17.152L746.666667 597.333333zM426.666667 85.333333a32 32 0 0 1 31.701333 27.648l0.298667 4.352V149.333333h149.333333a96 96 0 0 1 96 96v192.213334c0 12.842667-2.56 25.088-7.125333 36.309333a275.626667 275.626667 0 0 0-127.658667 59.733333H245.333333a96 96 0 0 1-96-96V245.333333A96 96 0 0 1 245.333333 149.333333h149.333334v-31.957333a32 32 0 0 1 23.466666-30.848l4.181334-0.853333L426.666667 85.333333z m181.333333 128h-362.666667a32 32 0 0 0-32 32v192.170667c0 17.664 14.336 32 32 32h362.666667a32 32 0 0 0 32-32V245.333333a32 32 0 0 0-32-32z m-277.333333 64a53.333333 53.333333 0 1 1 0 106.581334 53.333333 53.333333 0 0 1 0-106.624z m191.658666 0a53.333333 53.333333 0 1 1 0 106.581334 53.333333 53.333333 0 0 1 0-106.624z" /></svg>