<svg class="icon" style="width: 1em;height: 1em;vertical-align: middle;fill: currentColor;overflow: hidden;" viewBox="0 0 1024 1024" version="1.1" xmlns="http://www.w3.org/2000/svg"><path d="M389.034667 89.813333a32 32 0 0 1 43.818666 11.221334L600.533333 384h305.493334c18.048 0 32.64 14.592 32.64 32.64V512a426.368 426.368 0 0 1-201.813334 362.666667h127.146667a32 32 0 0 1 0 64H160a32 32 0 0 1 0-64h127.146667A426.368 426.368 0 0 1 85.333333 512V416.64C85.333333 398.592 99.925333 384 117.973333 384h237.525334L207.146667 133.632a32 32 0 0 1 55.04-32.597333L429.866667 384h96.298666L377.813333 133.632a32 32 0 0 1 11.221334-43.818667zM149.333333 448V512c0 14.421333 0.853333 28.672 2.474667 42.666667h720.384c1.621333-13.994667 2.474667-28.245333 2.474667-42.666667v-64h-725.333334z m15.957334 170.666667a362.837333 362.837333 0 0 0 693.418666 0H165.290667z" /></svg>