<svg class="icon" style="width: 1em;height: 1em;vertical-align: middle;fill: currentColor;overflow: hidden;" viewBox="0 0 1024 1024" version="1.1" xmlns="http://www.w3.org/2000/svg"><path d="M451.882667 107.178667a160 160 0 0 1 120.234666 0l319.914667 129.706666A74.666667 74.666667 0 0 1 938.666667 306.090667v411.818666a74.666667 74.666667 0 0 1-46.634667 69.205334l-319.914667 129.706666a160 160 0 0 1-120.234666 0l-319.914667-129.706666A74.666667 74.666667 0 0 1 85.333333 717.909333V306.133333a74.666667 74.666667 0 0 1 46.634667-69.205333l319.914667-129.706667z m96.170666 59.306666a96 96 0 0 0-72.106666 0l-81.664 33.109334 321.152 124.885333 113.877333-43.946667-281.258667-114.048z m78.762667 192.213334L307.84 234.624 195.84 280.021333l316.202667 122.965334 114.773333-44.288zM149.333333 717.952a10.666667 10.666667 0 0 0 6.656 9.856l319.957334 129.706667c1.322667 0.554667 2.688 1.066667 4.053333 1.536v-399.829334L149.333333 330.624v387.328z m398.72 139.562667l319.957334-129.706667a10.666667 10.666667 0 0 0 6.656-9.898667V331.605333l-330.666667 127.658667v399.786667c1.365333-0.469333 2.730667-0.981333 4.053333-1.536z" /></svg>