<svg class="icon" style="width: 1em;height: 1em;vertical-align: middle;fill: currentColor;overflow: hidden;" viewBox="0 0 1024 1024" version="1.1" xmlns="http://www.w3.org/2000/svg"><path d="M451.882667 107.178667a160 160 0 0 1 120.234666 0l319.914667 129.706666A74.666667 74.666667 0 0 1 938.666667 306.090667v240.469333a278.101333 278.101333 0 0 0-64-45.994667v-168.96l-330.666667 127.658667v98.090667a276.992 276.992 0 0 0-64 112.810666v-210.944L149.333333 330.624v387.328a10.666667 10.666667 0 0 0 6.656 9.856l319.957334 129.706667c1.322667 0.554667 2.688 1.066667 4.053333 1.536v-35.882667c11.093333 38.656 30.336 73.813333 55.765333 103.594667a160 160 0 0 1-83.882666-9.941334l-319.914667-129.706666A74.666667 74.666667 0 0 1 85.333333 717.909333V306.133333a74.666667 74.666667 0 0 1 46.634667-69.205333l319.914667-129.706667z m96.170666 59.306666a96 96 0 0 0-72.106666 0l-81.664 33.109334 321.152 124.885333 113.877333-43.946667-281.258667-114.048z m78.762667 192.213334L307.84 234.624 195.84 280.021333l316.202667 122.965334 114.773333-44.288zM981.333333 746.666667a234.666667 234.666667 0 1 1-469.333333 0 234.666667 234.666667 0 0 1 469.333333 0z m-304.896-100.437334a21.333333 21.333333 0 0 0-30.208 30.208l70.272 70.229334-70.272 70.229333a21.333333 21.333333 0 0 0 30.208 30.208l70.229334-70.272 70.229333 70.272a21.333333 21.333333 0 0 0 30.208-30.208L776.832 746.666667l70.272-70.229334a21.333333 21.333333 0 0 0-30.208-30.208L746.666667 716.501333l-70.229334-70.272z" /></svg>