<svg class="icon" style="width: 1em;height: 1em;vertical-align: middle;fill: currentColor;overflow: hidden;" viewBox="0 0 1024 1024" version="1.1" xmlns="http://www.w3.org/2000/svg"><path d="M572.117333 107.178667a160 160 0 0 0-120.234666 0l-319.914667 129.706666A74.666667 74.666667 0 0 0 85.333333 306.090667v411.818666a74.666667 74.666667 0 0 0 46.634667 69.205334l319.914667 129.706666c5.76 2.346667 11.648 4.352 17.578666 5.973334A110.464 110.464 0 0 1 469.333333 917.333333v-62.506666l-313.344-127.018667a10.666667 10.666667 0 0 1-6.656-9.898667V330.666667l330.666667 128.597333v198.186667a107.008 107.008 0 0 1 64-55.210667v-142.933333l330.666667-127.658667v161.194667a117.333333 117.333333 0 0 1 64 104.021333V306.090667a74.666667 74.666667 0 0 0-46.634667-69.205334l-319.914667-129.706666z m-96.170666 59.306666a96 96 0 0 1 72.106666 0l281.301334 114.048-113.92 43.946667-321.152-124.885333 81.664-33.109334zM307.84 234.666667l319.018667 124.074666-114.773334 44.330667L195.84 280.064l112-45.44zM597.333333 640h-21.333333a64 64 0 0 0-64 64V768h106.666667v-10.666667a32 32 0 0 1 64 0V768h128v-10.666667a32 32 0 0 1 64 0V768H981.333333v-64a64 64 0 0 0-64-64H896v-42.666667a74.666667 74.666667 0 0 0-74.666667-74.666666h-149.333333A74.666667 74.666667 0 0 0 597.333333 597.333333v42.666667z m64-42.666667a10.666667 10.666667 0 0 1 10.666667-10.666666h149.333333a10.666667 10.666667 0 0 1 10.666667 10.666666v42.666667h-170.666667v-42.666667zM512 917.333333v-85.333333h106.666667v32a32 32 0 0 0 64 0v-32h128v32a32 32 0 0 0 64 0v-32H981.333333v85.333333a64 64 0 0 1-64 64h-341.333333a64 64 0 0 1-64-64z" /></svg>