<svg class="icon" style="width: 1em;height: 1em;vertical-align: middle;fill: currentColor;overflow: hidden;" viewBox="0 0 1024 1024" version="1.1" xmlns="http://www.w3.org/2000/svg"><path d="M572.117333 107.178667a160 160 0 0 0-120.234666 0l-319.914667 129.706666A74.666667 74.666667 0 0 0 85.333333 306.090667v411.818666a74.666667 74.666667 0 0 0 46.634667 69.205334l319.914667 129.706666c5.973333 2.432 12.117333 4.48 18.261333 6.186667 0.426667-3.2 1.066667-6.4 1.877333-9.642667l19.541334-78.08c6.912-27.648 21.205333-52.906667 41.386666-73.045333l11.093334-11.093333v-291.84L874.666667 331.605333v138.026667a140.544 140.544 0 0 1 64 10.794667V306.090667a74.666667 74.666667 0 0 0-46.634667-69.205334l-319.914667-129.706666z m-96.170666 59.306666a96 96 0 0 1 72.106666 0l281.301334 114.048-113.92 43.946667-321.152-124.885333 81.664-33.109334zM307.84 234.666667l319.018667 124.074666-114.773334 44.330667L195.84 280.064l112-45.44zM149.333333 330.666667l330.666667 128.597333v399.829333a96.256 96.256 0 0 1-4.053333-1.536l-319.957334-129.706666a10.666667 10.666667 0 0 1-6.656-9.898667V330.666667z m665.6 209.92l-251.861333 251.861333a114.602667 114.602667 0 0 0-30.122667 53.205333l-19.541333 78.122667a46.378667 46.378667 0 0 0 56.277333 56.234667l78.08-19.498667a114.56 114.56 0 0 0 53.248-30.165333l251.818667-251.818667A97.536 97.536 0 0 0 814.933333 540.586667z" /></svg>