<svg class="icon" style="width: 1em;height: 1em;vertical-align: middle;fill: currentColor;overflow: hidden;" viewBox="0 0 1024 1024" version="1.1" xmlns="http://www.w3.org/2000/svg"><path d="M149.333333 245.333333A117.333333 117.333333 0 0 1 266.666667 128a32 32 0 0 1 0 64C237.226667 192 213.333333 215.893333 213.333333 245.333333v183.850667c0 31.744-12.8 61.312-34.218666 82.816 21.418667 21.504 34.218667 51.072 34.218666 82.816v183.850667c0 29.44 23.893333 53.333333 53.333334 53.333333a32 32 0 0 1 0 64 117.333333 117.333333 0 0 1-117.333334-117.333333v-183.850667a53.333333 53.333333 0 0 0-36.48-50.56l-5.632-1.92a32 32 0 0 1 0-60.672l5.632-1.92c21.76-7.253333 36.48-27.605333 36.48-50.56V245.333333z m725.333334 0A117.333333 117.333333 0 0 0 757.333333 128a32 32 0 0 0 0 64c29.44 0 53.333333 23.893333 53.333334 53.333333v183.850667c0 31.744 12.8 61.312 34.218666 82.816A117.290667 117.290667 0 0 0 810.666667 594.816v183.850667c0 29.44-23.893333 53.333333-53.333334 53.333333a32 32 0 0 0 0 64 117.333333 117.333333 0 0 0 117.333334-117.333333v-183.850667c0-22.954667 14.677333-43.306667 36.48-50.56l5.632-1.92a32 32 0 0 0 0-60.672l-5.632-1.92a53.333333 53.333333 0 0 1-36.48-50.56V245.333333zM387.925333 300.373333a32 32 0 1 0-50.517333 39.253334L471.466667 512l-134.058667 172.373333a32 32 0 0 0 50.517333 39.253334L512 564.181333l124.074667 159.530667a32 32 0 0 0 50.517333-39.296L552.533333 512l134.058667-172.373333a32 32 0 0 0-50.517333-39.253334L512 459.861333 387.925333 300.373333z" /></svg>