<svg class="icon" style="width: 1em;height: 1em;vertical-align: middle;fill: currentColor;overflow: hidden;" viewBox="0 0 1024 1024" version="1.1" xmlns="http://www.w3.org/2000/svg"><path d="M277.333333 85.333333a149.333333 149.333333 0 0 0-42.666666 292.48v230.186667a32 32 0 0 0 64 0V554.666667h266.666666A160 160 0 0 0 725.333333 394.666667v-12.16a149.333333 149.333333 0 1 0-64-4.693334v16.853334a96 96 0 0 1-96 96H298.666667V382.506667A149.333333 149.333333 0 0 0 277.333333 85.333333z m-85.333333 149.333334a85.333333 85.333333 0 1 1 170.666667 0 85.333333 85.333333 0 0 1-170.666667 0z m512-85.333334a85.333333 85.333333 0 1 1 0 170.666667 85.333333 85.333333 0 0 1 0-170.666667zM227.882667 720.384a32 32 0 0 0-37.205334-52.053333 150.4 150.4 0 0 0-52.522666 67.754666 32 32 0 1 0 59.733333 23.04 84.736 84.736 0 0 1 29.994667-38.741333z m136.106666-52.053333a32 32 0 0 0-37.205333 52.053333 85.802667 85.802667 0 0 1 30.037333 38.698667 32 32 0 1 0 59.733334-22.997334 148.778667 148.778667 0 0 0-52.565334-67.754666zM203.818667 832.853333a32 32 0 1 0-55.210667 32.384 149.376 149.376 0 0 0 62.890667 58.453334 32 32 0 0 0 28.245333-57.429334 85.034667 85.034667 0 0 1-35.925333-33.408z m202.24 32.384a32 32 0 0 0-55.210667-32.384 85.376 85.376 0 0 1-35.925333 33.408 32 32 0 0 0 28.245333 57.429334 149.077333 149.077333 0 0 0 62.890667-58.453334z" /></svg>