<svg class="icon" style="width: 1em;height: 1em;vertical-align: middle;fill: currentColor;overflow: hidden;" viewBox="0 0 1024 1024" version="1.1" xmlns="http://www.w3.org/2000/svg"><path d="M170.666667 234.666667a149.333333 149.333333 0 1 1 191.530666 143.274666 234.752 234.752 0 0 0 224.469334 166.058667h14.08a149.376 149.376 0 0 1 295.253333 32 149.333333 149.333333 0 0 1-295.253333 32h-14.08a298.112 298.112 0 0 1-234.666667-113.92v149.333333A149.376 149.376 0 0 1 320 938.666667a149.333333 149.333333 0 0 1-32-295.253334V380.586667A149.376 149.376 0 0 1 170.666667 234.666667z m149.333333-85.333334a85.333333 85.333333 0 1 0 0 170.666667 85.333333 85.333333 0 0 0 0-170.666667z m0 554.666667a85.333333 85.333333 0 1 0 0 170.666667 85.333333 85.333333 0 0 0 0-170.666667z m341.333333-128a85.333333 85.333333 0 1 0 170.666667 0 85.333333 85.333333 0 0 0-170.666667 0z" /></svg>