<svg class="icon" style="width: 1em;height: 1em;vertical-align: middle;fill: currentColor;overflow: hidden;" viewBox="0 0 1024 1024" version="1.1" xmlns="http://www.w3.org/2000/svg"><path d="M384 234.666667a149.333333 149.333333 0 0 1-128 147.84V640a128 128 0 0 0 128 128h114.773333l-41.386666-41.386667a32 32 0 1 1 45.226666-45.226666l96 96a32 32 0 0 1 0 45.226666l-96 96a32 32 0 1 1-45.226666-45.226666l41.386666-41.386667H384A192 192 0 0 1 192 640V377.813333A149.418667 149.418667 0 0 1 234.666667 85.333333 149.333333 149.333333 0 0 1 384 234.666667z m-64 0a85.333333 85.333333 0 1 0-170.666667 0 85.333333 85.333333 0 0 0 170.666667 0z m618.666667 554.666666a149.333333 149.333333 0 1 1-170.666667-147.84V384a128 128 0 0 0-128-128h-82.773333l41.386666 41.386667a32 32 0 0 1-45.226666 45.226666l-96-96a32 32 0 0 1 0-45.226666l96-96a32 32 0 1 1 45.226666 45.226666l-41.386666 41.386667H640A192 192 0 0 1 832 384v262.186667c61.696 18.346667 106.666667 75.52 106.666667 143.146666z m-64 0a85.333333 85.333333 0 1 0-170.666667 0 85.333333 85.333333 0 0 0 170.666667 0z" /></svg>