<svg class="icon" style="width: 1em;height: 1em;vertical-align: middle;fill: currentColor;overflow: hidden;" viewBox="0 0 1024 1024" version="1.1" xmlns="http://www.w3.org/2000/svg"><path d="M256 382.506667a149.333333 149.333333 0 1 0-64-4.693334v268.373334A149.418667 149.418667 0 0 0 234.666667 938.666667a149.333333 149.333333 0 0 0 21.333333-297.173334V554.666667h266.666667A160 160 0 0 0 682.666667 394.666667v-12.16a149.333333 149.333333 0 1 0-64-4.693334v16.853334a96 96 0 0 1-96 96H256V382.506667zM320 234.666667a85.333333 85.333333 0 1 1-170.666667 0 85.333333 85.333333 0 0 1 170.666667 0z m426.666667 0a85.333333 85.333333 0 1 1-170.666667 0 85.333333 85.333333 0 0 1 170.666667 0z m-512 469.333333a85.333333 85.333333 0 1 1 0 170.666667 85.333333 85.333333 0 0 1 0-170.666667zM981.333333 800A160 160 0 0 0 821.333333 640l-4.352 0.298667a32 32 0 0 0 4.352 63.701333l6.570667 0.213333A96 96 0 0 1 821.333333 896l-0.128 0.213333-4.352 0.298667a32 32 0 0 0 4.608 63.701333V960l8.533334-0.213333A160 160 0 0 0 981.333333 800z m-277.333333-128a32 32 0 0 0-32-32l-8.533333 0.213333a160 160 0 0 0 8.533333 319.786667l4.352-0.298667A32 32 0 0 0 672 896l-6.570667-0.213333a96 96 0 0 1 6.570667-191.786667l4.352-0.298667a32 32 0 0 0 27.648-31.701333z m149.333333 128a32 32 0 0 0-32-32h-149.333333l-4.352 0.298667a32 32 0 0 0 4.352 63.701333h149.333333l4.352-0.298667A32 32 0 0 0 853.333333 800z" /></svg>