<svg class="icon" style="width: 1em;height: 1em;vertical-align: middle;fill: currentColor;overflow: hidden;" viewBox="0 0 1024 1024" version="1.1" xmlns="http://www.w3.org/2000/svg"><path d="M490.666667 533.333333v-74.666666a32 32 0 0 1 64 0v74.666666h74.666666a32 32 0 0 1 0 64H554.666667v74.666667a32 32 0 0 1-64 0V597.333333H416a32 32 0 0 1 0-64h74.666667zM373.333333 128h277.333334a32 32 0 0 1 31.701333 27.648L682.666667 160V298.666667h74.666666A138.666667 138.666667 0 0 1 896 437.333333v277.333334A138.666667 138.666667 0 0 1 757.333333 853.333333H266.666667A138.666667 138.666667 0 0 1 128 714.666667v-277.333334A138.666667 138.666667 0 0 1 266.666667 298.666667H341.333333V160a32 32 0 0 1 27.648-31.701333L373.333333 128z m384 234.666667H266.666667a74.666667 74.666667 0 0 0-74.666667 74.666666v277.333334c0 41.216 33.450667 74.666667 74.666667 74.666666h490.666666a74.666667 74.666667 0 0 0 74.666667-74.666666v-277.333334a74.666667 74.666667 0 0 0-74.666667-74.666666z m-138.666666-170.666667h-213.333334V298.666667h213.333334V192z" /></svg>