<svg class="icon" style="width: 1em;height: 1em;vertical-align: middle;fill: currentColor;overflow: hidden;" viewBox="0 0 1024 1024" version="1.1" xmlns="http://www.w3.org/2000/svg"><path d="M139.946667 94.72a32 32 0 0 0-45.226667 45.226667l159.274667 159.274666A138.666667 138.666667 0 0 0 128 437.333333v277.333334A138.666667 138.666667 0 0 0 266.666667 853.333333h490.666666c15.274667 0 29.994667-2.474667 43.690667-7.04l83.029333 82.986667a32 32 0 0 0 45.226667-45.226667L139.946667 94.72zM744.106667 789.333333H266.666667a74.666667 74.666667 0 0 1-74.666667-74.666666v-277.333334c0-41.258667 33.450667-74.666667 74.666667-74.666666h50.773333l426.666667 426.666666z m87.893333-352v258.901334l58.197333 58.197333A138.666667 138.666667 0 0 0 896 714.666667v-277.333334A138.666667 138.666667 0 0 0 757.333333 298.666667H682.666667V160l-0.298667-4.352A32 32 0 0 0 650.666667 128h-277.333334l-4.352 0.298667A32 32 0 0 0 341.333333 160v45.568l64 64V192h213.333334V298.666667h-184.234667l64 64h258.901333c41.258667 0 74.666667 33.408 74.666667 74.666666z" /></svg>