<svg class="icon" style="width: 1em;height: 1em;vertical-align: middle;fill: currentColor;overflow: hidden;" viewBox="0 0 1024 1024" version="1.1" xmlns="http://www.w3.org/2000/svg"><path d="M394.88 597.546667c41.216 0 74.666667 33.408 74.666667 74.666666v149.248a74.666667 74.666667 0 0 1-74.666667 74.666667H160A74.666667 74.666667 0 0 1 85.333333 821.461333v-149.248c0-41.258667 33.450667-74.666667 74.666667-74.666666h234.88z m469.12 0c41.216 0 74.666667 33.408 74.666667 74.666666v149.248a74.666667 74.666667 0 0 1-74.666667 74.666667h-234.88a74.666667 74.666667 0 0 1-74.666667-74.666667v-149.248c0-41.258667 33.450667-74.666667 74.666667-74.666666h234.88z m-469.12 64H160a10.666667 10.666667 0 0 0-10.666667 10.666666v149.248c0 5.930667 4.778667 10.666667 10.666667 10.666667h234.88a10.666667 10.666667 0 0 0 10.666667-10.666667v-149.248a10.666667 10.666667 0 0 0-10.666667-10.666666z m469.12 0h-234.88a10.666667 10.666667 0 0 0-10.666667 10.666666v149.248c0 5.930667 4.778667 10.666667 10.666667 10.666667h234.88a10.666667 10.666667 0 0 0 10.666667-10.666667v-149.248a10.666667 10.666667 0 0 0-10.666667-10.666666zM864 128c41.216 0 74.666667 33.450667 74.666667 74.666667v234.666666A74.666667 74.666667 0 0 1 864 512H160A74.666667 74.666667 0 0 1 85.333333 437.333333v-234.666666a74.666667 74.666667 0 0 1 68.522667-74.410667L160 128h704z m0 64H160l-2.432 0.298667a10.666667 10.666667 0 0 0-8.234667 10.368v234.666666c0 5.888 4.778667 10.666667 10.666667 10.666667h704a10.666667 10.666667 0 0 0 10.666667-10.666667v-234.666666a10.666667 10.666667 0 0 0-10.666667-10.666667z" /></svg>