<svg class="icon" style="width: 1em;height: 1em;vertical-align: middle;fill: currentColor;overflow: hidden;" viewBox="0 0 1024 1024" version="1.1" xmlns="http://www.w3.org/2000/svg"><path d="M957.952 82.048a32 32 0 0 1 0 45.226667l-295.594667 295.637333a245.376 245.376 0 0 1-21.162666 322.858667l-35.498667 35.498666-118.912 178.346667a32 32 0 0 1-49.237333 4.906667L75.477333 602.453333a32 32 0 0 1 4.906667-49.237333l178.346667-118.912 35.498666-35.498667a245.376 245.376 0 0 1 322.858667-21.162666l295.637333-295.594667a32 32 0 0 1 45.226667 0zM324.394667 459.178667l256.426666 256.426666 15.104-15.061333a181.333333 181.333333 0 0 0-256.426666-256.426667l-15.104 15.061334z m-49.322667 41.173333l-126.72 84.48 306.816 306.816 84.48-126.72-264.576-264.576z" /></svg>