<svg class="icon" style="width: 1em;height: 1em;vertical-align: middle;fill: currentColor;overflow: hidden;" viewBox="0 0 1024 1024" version="1.1" xmlns="http://www.w3.org/2000/svg"><path d="M448 117.376a32 32 0 0 0-64 0v32.085333c0 27.008 8.362667 52.053333 22.613333 72.661334A160.128 160.128 0 0 0 299.093333 362.24h-10.965333a96 96 0 0 1-95.573333-96.426667l0.256-63.36a32 32 0 1 0-64-0.256l-0.298667 63.36A160 160 0 0 0 287.872 426.24H298.666667v64.426667H117.333333a32 32 0 0 0 0 64H298.666667v84.992h-10.794667a160 160 0 0 0-159.36 160.64l0.298667 63.402666a32 32 0 0 0 64-0.256l-0.298667-63.402666a96 96 0 0 1 95.616-96.384H308.309333a213.418667 213.418667 0 0 0 407.381334 0H735.872a96 96 0 0 1 95.573333 96.426666l-0.256 63.36a32 32 0 0 0 64 0.256l0.256-63.402666a160 160 0 0 0-159.317333-160.64H725.333333V554.666667h181.376a32 32 0 0 0 0-64H725.333333V426.24h10.794667a160 160 0 0 0 159.36-160.682667L895.146667 202.24a32 32 0 0 0-64 0.256l0.256 63.402667a96 96 0 0 1-95.573334 96.384h-10.922666a160.128 160.128 0 0 0-107.52-140.117334c14.208-20.650667 22.570667-45.653333 22.570666-72.661333v-32.085333a32 32 0 0 0-64 0v32.085333a64 64 0 0 1-128 0v-32.085333z m-85.333333 256.085333a96 96 0 0 1 96-96h106.666666a96 96 0 0 1 96 96V640a149.333333 149.333333 0 1 1-298.666666 0V373.461333z" /></svg>