<svg class="icon" style="width: 1em;height: 1em;vertical-align: middle;fill: currentColor;overflow: hidden;" viewBox="0 0 1024 1024" version="1.1" xmlns="http://www.w3.org/2000/svg"><path d="M554.666667 266.666667a42.666667 42.666667 0 1 1-85.333334 0 42.666667 42.666667 0 0 1 85.333334 0zM556.032 99.2a74.666667 74.666667 0 0 0-88.064 0L151.338667 330.24c-41.728 30.421333-20.181333 96.426667 31.402666 96.426667H192v247.466666A117.333333 117.333333 0 0 0 128 778.666667v64c0 17.621333 14.336 32 32 32h704a32 32 0 0 0 32-32v-64a117.333333 117.333333 0 0 0-64-104.533334V426.666667h9.258667c51.626667 0 73.088-66.005333 31.402666-96.426667l-316.629333-231.082667z m-50.346667 51.669333a10.666667 10.666667 0 0 1 12.586667 0L808.533333 362.666667H215.466667l290.261333-211.797334zM768 426.666667v234.666666h-85.333333V426.666667h85.333333z m-149.333333 0v234.666666h-74.666667V426.666667h74.666667z m-138.666667 0v234.666666H405.333333V426.666667h74.666667z m-234.666667 298.666666h533.333334c29.44 0 53.333333 23.893333 53.333333 53.333334V810.666667h-640v-32c0-29.44 23.893333-53.333333 53.333333-53.333334zM256 661.333333V426.666667h85.333333v234.666666H256z" /></svg>