<svg class="icon" style="width: 1em;height: 1em;vertical-align: middle;fill: currentColor;overflow: hidden;" viewBox="0 0 1024 1024" version="1.1" xmlns="http://www.w3.org/2000/svg"><path d="M554.666667 266.666667a42.666667 42.666667 0 1 1-85.333334 0 42.666667 42.666667 0 0 1 85.333334 0z m1.365333-167.509334a74.666667 74.666667 0 0 0-88.064 0L151.338667 330.24c-41.728 30.421333-20.181333 96.426667 31.402666 96.426667H192v247.466666A117.333333 117.333333 0 0 0 128 778.666667v64c0 17.664 14.336 32 32 32h316.416a202.837333 202.837333 0 0 1-6.826667-64H192v-32c0-29.44 23.893333-53.333333 53.333333-53.333334h248.149334a203.562667 203.562667 0 0 1 54.101333-64h-3.584V426.666667h74.666667v199.082666a202.837333 202.837333 0 0 1 53.333333-7.082666H682.666667V426.666667h85.333333v192h53.333333c3.584 0 7.125333 0.085333 10.666667 0.298666V426.666667h9.258667c51.626667 0 73.130667-66.005333 31.402666-96.426667l-316.629333-231.082667z m-50.346667 51.712a10.666667 10.666667 0 0 1 12.586667 0L808.533333 362.666667H215.466667l290.261333-211.797334zM480 426.666667v234.666666H405.333333V426.666667h74.666667zM256 661.333333V426.666667h85.333333v234.666666H256z m725.333333 160a160 160 0 0 0-160-160l-4.352 0.298667A32 32 0 0 0 821.333333 725.333333l6.570667 0.213334a96 96 0 0 1-6.570667 191.786666l-0.128 0.213334-4.352 0.298666a32 32 0 0 0 4.608 63.701334V981.333333l8.533334-0.213333A160 160 0 0 0 981.333333 821.333333z m-277.333333-128a32 32 0 0 0-32-32l-8.533333 0.213334a160 160 0 0 0 8.533333 319.786666l4.352-0.298666a32 32 0 0 0-4.352-63.701334l-6.570667-0.213333A96 96 0 0 1 672 725.333333l4.352-0.298666a32 32 0 0 0 27.648-31.701334z m149.333333 128a32 32 0 0 0-32-32h-149.333333l-4.352 0.298667A32 32 0 0 0 672 853.333333h149.333333l4.352-0.298666A32 32 0 0 0 853.333333 821.333333z" /></svg>