<svg class="icon" style="width: 1em;height: 1em;vertical-align: middle;fill: currentColor;overflow: hidden;" viewBox="0 0 1024 1024" version="1.1" xmlns="http://www.w3.org/2000/svg"><path d="M288 341.333333a32 32 0 0 0-32 32v149.333334c0 17.664 14.336 32 32 32h448a32 32 0 0 0 32-32v-149.333334a32 32 0 0 0-32-32H288z m32 149.333334v-85.333334h384v85.333334h-384z m266.666667 106.666666a32 32 0 0 0-32 32v12.8c6.912-1.408 14.037333-2.133333 21.333333-2.133333H768v-10.666667a32 32 0 0 0-32-32h-149.333333z m-96 32V682.666667c-13.397333 17.834667-21.333333 39.978667-21.333334 64V896H160a32 32 0 0 1-32-32V287.232A85.333333 85.333333 0 0 1 170.666667 128h682.666666a85.333333 85.333333 0 0 1 42.666667 159.232V640h-64V298.666667h-640v533.333333H256v-202.666667a32 32 0 0 1 32-32h170.666667a32 32 0 0 1 32 32zM149.333333 213.333333a21.333333 21.333333 0 0 0 21.333334 21.333334h682.666666a21.333333 21.333333 0 0 0 0-42.666667H170.666667a21.333333 21.333333 0 0 0-21.333334 21.333333zM426.666667 832v-170.666667H320v170.666667H426.666667z m85.333333-85.333333a64 64 0 0 1 64-64h341.333333a64 64 0 0 1 64 64v170.666666a64 64 0 0 1-64 64h-341.333333a64 64 0 0 1-64-64v-170.666666z m426.666667 21.333333a42.666667 42.666667 0 0 1-42.666667-42.666667h-42.666667a85.333333 85.333333 0 0 0 85.333334 85.333334v-42.666667z m0 85.333333a85.333333 85.333333 0 0 0-85.333334 85.333334h42.666667a42.666667 42.666667 0 0 1 42.666667-42.666667v-42.666667z m-341.333334-128a42.666667 42.666667 0 0 1-42.666666 42.666667v42.666667a85.333333 85.333333 0 0 0 85.333333-85.333334h-42.666667z m42.666667 213.333334a85.333333 85.333333 0 0 0-85.333333-85.333334v42.666667a42.666667 42.666667 0 0 1 42.666666 42.666667h42.666667z m181.333333-106.666667a74.666667 74.666667 0 1 0-149.333333 0 74.666667 74.666667 0 0 0 149.333333 0z" /></svg>