<svg class="icon" style="width: 1em;height: 1em;vertical-align: middle;fill: currentColor;overflow: hidden;" viewBox="0 0 1024 1024" version="1.1" xmlns="http://www.w3.org/2000/svg"><path d="M661.333333 501.333333a32 32 0 0 0-64 0v85.333334a32 32 0 0 0 64 0v-85.333334zM501.333333 469.333333a32 32 0 0 1 32 32v85.333334a32 32 0 0 1-64 0v-85.333334a32 32 0 0 1 32-32zM405.333333 501.333333a32 32 0 0 0-64 0v85.333334a32 32 0 0 0 64 0v-85.333334zM245.333333 661.333333a32 32 0 0 1 32 32v106.666667a32 32 0 0 1-64 0v-106.666667a32 32 0 0 1 32-32zM810.666667 693.333333a32 32 0 0 0-64 0v106.666667a32 32 0 0 0 64 0v-106.666667zM501.333333 85.333333h160a21.333333 21.333333 0 0 1 21.333334 21.333334v85.333333a21.333333 21.333333 0 0 1-21.333334 21.333333h-128v43.434667A298.666667 298.666667 0 0 1 810.666667 554.666667h32A96 96 0 0 1 938.666667 650.666667v256a32 32 0 0 1-32 32H117.333333a32 32 0 0 1-32-32v-256A96 96 0 0 1 181.333333 554.666667H213.333333a298.752 298.752 0 0 1 256-295.68V117.333333a32 32 0 0 1 32-32zM512 320A234.666667 234.666667 0 0 0 277.333333 554.666667v32a32 32 0 0 1-32 32h-64a32 32 0 0 0-32 32v224h256v-117.333334a32 32 0 0 1 32-32h149.333334a32 32 0 0 1 32 32v117.333334h256v-224a32 32 0 0 0-32-32h-64a32 32 0 0 1-32-32V554.666667A234.666667 234.666667 0 0 0 512 320z m42.666667 469.333333h-85.333334v85.333334h85.333334v-85.333334z" /></svg>