<svg class="icon" style="width: 1em;height: 1em;vertical-align: middle;fill: currentColor;overflow: hidden;" viewBox="0 0 1024 1024" version="1.1" xmlns="http://www.w3.org/2000/svg"><path d="M362.666667 234.666667a42.666667 42.666667 0 1 0 0 85.333333 42.666667 42.666667 0 0 0 0-85.333333zM320 576a42.666667 42.666667 0 1 1 85.333333 0 42.666667 42.666667 0 0 1-85.333333 0zM362.666667 384a42.666667 42.666667 0 1 0 0 85.333333 42.666667 42.666667 0 0 0 0-85.333333zM469.333333 277.333333a42.666667 42.666667 0 1 1 85.333334 0 42.666667 42.666667 0 0 1-85.333334 0zM512 533.333333a42.666667 42.666667 0 1 0 0 85.333334 42.666667 42.666667 0 0 0 0-85.333334zM618.666667 576a42.666667 42.666667 0 1 1 85.333333 0 42.666667 42.666667 0 0 1-85.333333 0zM512 384a42.666667 42.666667 0 1 0 0 85.333333 42.666667 42.666667 0 0 0 0-85.333333zM266.666667 85.333333A96 96 0 0 0 170.666667 181.333333v704c0 17.664 14.336 32 32 32h618.794666a32 32 0 0 0 32-32v-384a96 96 0 0 0-96-96H704V181.333333A96 96 0 0 0 608 85.333333h-341.333333zM234.666667 181.333333a32 32 0 0 1 32-32h341.333333a32 32 0 0 1 32 32v256c0 17.664 14.336 32 32 32h85.461333a32 32 0 0 1 32 32V853.333333H704v-117.333333a32 32 0 0 0-32-32h-320a32 32 0 0 0-32 32V853.333333h-85.333333V181.333333zM640 768v85.333333h-96v-85.333333H640z m-160 0v85.333333H384v-85.333333h96z" /></svg>