<svg class="icon" style="width: 1em;height: 1em;vertical-align: middle;fill: currentColor;overflow: hidden;" viewBox="0 0 1024 1024" version="1.1" xmlns="http://www.w3.org/2000/svg"><path d="M341.333333 256a42.666667 42.666667 0 1 1-85.333333 0 42.666667 42.666667 0 0 1 85.333333 0zM298.666667 426.666667a42.666667 42.666667 0 1 0 0-85.333334 42.666667 42.666667 0 0 0 0 85.333334zM341.333333 512a42.666667 42.666667 0 1 1-85.333333 0 42.666667 42.666667 0 0 1 85.333333 0zM341.333333 640a42.666667 42.666667 0 1 1-85.333333 0 42.666667 42.666667 0 0 1 85.333333 0zM298.666667 810.666667a42.666667 42.666667 0 1 0 0-85.333334 42.666667 42.666667 0 0 0 0 85.333334zM597.333333 682.666667a42.666667 42.666667 0 1 0 0-85.333334 42.666667 42.666667 0 0 0 0 85.333334zM725.333333 682.666667a42.666667 42.666667 0 1 0 0-85.333334 42.666667 42.666667 0 0 0 0 85.333334zM725.333333 554.666667a42.666667 42.666667 0 1 0 0-85.333334 42.666667 42.666667 0 0 0 0 85.333334zM640 512a42.666667 42.666667 0 1 1-85.333333 0 42.666667 42.666667 0 0 1 85.333333 0zM725.333333 426.666667a42.666667 42.666667 0 1 0 0-85.333334 42.666667 42.666667 0 0 0 0 85.333334zM640 384a42.666667 42.666667 0 1 1-85.333333 0 42.666667 42.666667 0 0 1 85.333333 0zM597.333333 213.333333v-32A96 96 0 0 0 501.333333 85.333333h-277.333333A96 96 0 0 0 128 181.333333v704c0 17.664 14.336 32 32 32h704a32 32 0 0 0 32-32V309.333333A96 96 0 0 0 800 213.333333H597.333333z m-405.333333-32a32 32 0 0 1 32-32h277.333333a32 32 0 0 1 32 32V213.333333h-10.666666A96 96 0 0 0 426.666667 309.333333V853.333333H192V181.333333zM618.666667 853.333333v-64h85.333333V853.333333h-85.333333z m149.333333-96a32 32 0 0 0-32-32h-149.333333a32 32 0 0 0-32 32V853.333333h-64V309.333333a32 32 0 0 1 32-32h277.333333a32 32 0 0 1 32 32V853.333333H768v-96z" /></svg>