<svg class="icon" style="width: 1em;height: 1em;vertical-align: middle;fill: currentColor;overflow: hidden;" viewBox="0 0 1024 1024" version="1.1" xmlns="http://www.w3.org/2000/svg"><path d="M490.666667 832h41.258666c9.6 23.978667 22.058667 45.226667 36.181334 64H160a32 32 0 0 1-32-32V287.232A85.333333 85.333333 0 0 1 170.666667 128h682.666666a85.333333 85.333333 0 0 1 42.666667 159.232v206.506667a316.672 316.672 0 0 1-64-36.565334V298.666667h-640v533.333333H256v-202.666667a32 32 0 0 1 32-32h170.666667a32 32 0 0 1 32 32v202.666667zM149.333333 213.333333a21.333333 21.333333 0 0 0 21.333334 21.333334h682.666666a21.333333 21.333333 0 0 0 0-42.666667H170.666667a21.333333 21.333333 0 0 0-21.333334 21.333333z m170.666667 448v170.666667H426.666667v-170.666667H320zM288 341.333333a32 32 0 0 0-32 32v149.333334c0 17.664 14.336 32 32 32h227.584a66.645333 66.645333 0 0 1 56.576-43.477334 234.197333 234.197333 0 0 0 74.922667-20.522666H320v-85.333334h384v51.84c7.722667-5.674667 14.378667-11.050667 19.84-15.701333 12.586667-10.794667 28.373333-16.213333 44.16-16.213333V373.333333a32 32 0 0 0-32-32H288z m496.426667 132.522667c29.056 24.96 94.250667 72.490667 175.616 79.829333 11.733333 1.066667 21.333333 10.538667 21.333333 22.314667V725.333333c0 180.181333-174.677333 243.882667-207.914667 254.378667a17.92 17.92 0 0 1-10.88 0C729.344 969.216 554.666667 905.472 554.666667 725.333333v-149.333333c0-11.776 9.6-21.248 21.333333-22.314667 81.322667-7.338667 146.517333-54.912 175.616-79.786666a25.642667 25.642667 0 0 1 32.853333 0z" /></svg>