<svg class="icon" style="width: 1em;height: 1em;vertical-align: middle;fill: currentColor;overflow: hidden;" viewBox="0 0 1024 1024" version="1.1" xmlns="http://www.w3.org/2000/svg"><path d="M288 341.333333a32 32 0 0 0-32 32v149.333334c0 17.664 14.336 32 32 32h448a32 32 0 0 0 32-32v-149.333334a32 32 0 0 0-32-32H288z m32 149.333334v-85.333334h384v85.333334h-384zM586.666667 597.333333a32 32 0 0 0-32 32v106.666667c0 17.664 14.336 32 32 32h149.333333a32 32 0 0 0 32-32v-106.666667a32 32 0 0 0-32-32h-149.333333z m32 106.666667v-42.666667h85.333333v42.666667h-85.333333zM170.666667 128a85.333333 85.333333 0 0 0-42.666667 159.232V864c0 17.664 14.336 32 32 32h704a32 32 0 0 0 32-32V287.232A85.333333 85.333333 0 0 0 853.333333 128H170.666667z m661.333333 170.666667v533.333333h-341.333333v-202.666667a32 32 0 0 0-32-32h-170.666667a32 32 0 0 0-32 32v202.666667H192V298.666667h640z m-682.666667-85.333334a21.333333 21.333333 0 0 1 21.333334-21.333333h682.666666a21.333333 21.333333 0 0 1 0 42.666667H170.666667a21.333333 21.333333 0 0 1-21.333334-21.333334zM426.666667 832H320v-170.666667H426.666667v170.666667z" /></svg>