<svg class="icon" style="width: 1em;height: 1em;vertical-align: middle;fill: currentColor;overflow: hidden;" viewBox="0 0 1024 1024" version="1.1" xmlns="http://www.w3.org/2000/svg"><path d="M554.666667 267.093333a42.666667 42.666667 0 1 1-85.333334-0.042666 42.666667 42.666667 0 0 1 85.333334 0z m1.365333-167.424a74.709333 74.709333 0 0 0-88.064 0L151.338667 330.666667c-41.728 30.378667-20.181333 96.341333 31.402666 96.341333H192v247.296c-37.973333 19.413333-64 58.88-64 104.448v64c0 17.621333 14.336 31.957333 32 31.957333H469.333333v-63.957333H192v-32c0-29.44 23.893333-53.290667 53.333333-53.290667H469.333333V704c0-15.104 3.157333-29.482667 8.832-42.538667H405.333333v-234.496h74.666667v230.485334a106.965333 106.965333 0 0 1 64-55.253334v-175.232h74.666667v65.834667c16-8.192 34.133333-12.8 53.333333-12.8H682.666667v-53.034667h85.333333v53.034667h53.333333c3.584 0 7.168 0.170667 10.666667 0.469333v-53.504h9.258667c51.626667 0 73.088-65.962667 31.402666-96.341333l-316.629333-230.954667z m-50.346667 51.669334a10.666667 10.666667 0 0 1 12.586667 0l290.261333 211.626666H215.466667l290.261333-211.626666zM256 661.461333v-234.496h85.333333v234.496H256zM597.333333 640h-21.333333a64 64 0 0 0-64 64V768h106.666667v-10.666667a32 32 0 0 1 64 0V768h128v-10.666667a32 32 0 0 1 64 0V768H981.333333v-64a64 64 0 0 0-64-64H896v-42.666667a74.666667 74.666667 0 0 0-74.666667-74.666666h-149.333333A74.666667 74.666667 0 0 0 597.333333 597.333333v42.666667z m64-42.666667a10.666667 10.666667 0 0 1 10.666667-10.666666h149.333333a10.666667 10.666667 0 0 1 10.666667 10.666666v42.666667h-170.666667v-42.666667z m-85.333333 384a64 64 0 0 1-64-64v-85.333333h106.666667v32a32 32 0 0 0 64 0v-32h128v32a32 32 0 0 0 64 0v-32H981.333333v85.333333a64 64 0 0 1-64 64h-341.333333z" /></svg>