<svg class="icon" style="width: 1em;height: 1em;vertical-align: middle;fill: currentColor;overflow: hidden;" viewBox="0 0 1024 1024" version="1.1" xmlns="http://www.w3.org/2000/svg"><path d="M220.586667 85.333333a96 96 0 0 0-95.829334 90.837334l-35.754666 661.333333A96 96 0 0 0 184.874667 938.666667h120.917333a96 96 0 0 0 95.829333-101.162667l-35.754666-661.333333A96 96 0 0 0 270.08 85.333333H220.586667z m-31.914667 94.293334a32 32 0 0 1 31.957333-30.293334h49.408a32 32 0 0 1 31.957334 30.293334l35.712 661.333333a32 32 0 0 1-31.914667 33.706667H184.874667a32 32 0 0 1-31.957334-33.706667l35.754667-661.333333zM405.845333 938.666667c16.853333-17.578667 29.098667-39.594667 34.901334-64h49.92v-181.333334c0-41.216 33.408-74.666667 74.666666-74.666666h170.666667c41.216 0 74.666667 33.450667 74.666667 74.666666v181.333334h32a32 32 0 0 0 32-32V329.088l-223.658667 206.421333A32 32 0 0 1 597.333333 512V329.088l-171.861333 158.634667-4.48-82.944 186.624-172.288A32 32 0 0 1 661.333333 256v182.912l223.616-206.421333A32 32 0 0 1 938.666667 256v586.666667A96 96 0 0 1 842.666667 938.666667H405.845333zM554.666667 693.333333v181.333334h192v-181.333334a10.666667 10.666667 0 0 0-10.666667-10.666666h-170.666667a10.666667 10.666667 0 0 0-10.666666 10.666666z" /></svg>