<svg class="icon" style="width: 1em;height: 1em;vertical-align: middle;fill: currentColor;overflow: hidden;" viewBox="0 0 1024 1024" version="1.1" xmlns="http://www.w3.org/2000/svg"><path d="M768 85.333333a32 32 0 0 1 20.224 7.210667l3.242667 2.986667 139.605333 150.613333 1.28 1.621333c4.352 5.802667 6.314667 12.373333 6.314667 18.773334L938.666667 348.501333c0 42.410667-16.170667 81.066667-42.666667 110.08V906.666667a32 32 0 0 1-27.690667 31.701333L864 938.666667H160a32 32 0 0 1-31.701333-27.648l-0.298667-4.352V458.581333a162.901333 162.901333 0 0 1-42.368-100.394666L85.333333 348.458667V268.373333a31.061333 31.061333 0 0 1 4.096-17.408l2.773334-4.053333 1.706666-1.962667L232.533333 95.573333a32 32 0 0 1 19.072-9.941333L256 85.333333h512z m-124.501333 360.192l-0.512 0.768A163.285333 163.285333 0 0 1 511.957333 512a163.285333 163.285333 0 0 1-131.541333-66.389333A163.2 163.2 0 0 1 248.917333 512c-20.053333 0-39.210667-3.584-56.917333-10.154667v372.821334H256v-287.914667a32 32 0 0 1 27.648-31.701333L288 554.666667h191.829333a32 32 0 0 1 31.701334 27.648l0.298666 4.352v287.914666h320.085334v-372.778666a163.285333 163.285333 0 0 1-188.416-56.32z m-195.712 173.184H320v255.914667h127.786667v-255.914667z m288.426666-64a32 32 0 0 1 31.701334 27.648l0.298666 4.352v149.418667a32 32 0 0 1-27.690666 31.701333l-4.309334 0.298667h-149.418666a32 32 0 0 1-31.701334-27.648l-0.298666-4.352v-149.418667a32 32 0 0 1 27.648-31.701333l4.352-0.298667h149.418666z m-32.042666 64h-85.376v85.418667h85.333333v-85.418667zM348.416 298.752H149.333333v49.706667l0.256 7.253333 1.237334 9.898667 1.365333 6.656 2.133333 7.338666 2.304 6.314667 1.706667 4.010667c1.365333 2.901333 2.816 5.717333 4.437333 8.448l4.352 6.912 2.346667 3.157333 5.504 6.656 6.016 6.144 4.138667 3.626667 1.792 1.450666c13.397333 10.666667 29.653333 18.005333 47.402666 20.608l7.68 0.810667 6.826667 0.213333c52.693333 0 95.829333-40.917333 99.328-92.714666l0.213333-6.826667V298.794667z m263.04 0H412.416v49.706667c0 50.346667 37.461333 92.032 86.016 98.602666l6.698667 0.682667 6.826666 0.213333c52.650667 0 95.786667-40.917333 99.285334-92.714666l0.213333-6.826667V298.794667z m263.125333 0h-199.04v49.706667c0 50.346667 37.461333 92.032 86.058667 98.602666l6.656 0.682667 6.826667 0.213333c24.064 0 46.165333-8.533333 63.36-22.784l3.84-3.328 4.949333-4.821333 6.229333-7.253333c2.304-2.944 4.48-5.973333 6.4-9.216l4.437334-7.936 2.688-5.888 2.474666-6.613334 1.28-4.096 1.621334-6.485333 1.237333-6.698667 0.768-7.125333 0.256-7.253333-0.042667-49.706667zM386.645333 149.290667H269.952L190.677333 234.752h169.685334l26.282666-85.461333z m183.722667 0H453.546667l-26.282667 85.461333h169.386667l-26.282667-85.461333z m183.637333 0h-116.693333l26.325333 85.461333h169.642667l-79.274667-85.461333z" /></svg>