<svg class="icon" style="width: 1em;height: 1em;vertical-align: middle;fill: currentColor;overflow: hidden;" viewBox="0 0 1024 1024" version="1.1" xmlns="http://www.w3.org/2000/svg"><path d="M512 469.333333a42.666667 42.666667 0 1 1-85.333333 0 42.666667 42.666667 0 0 1 85.333333 0zM469.333333 640a42.666667 42.666667 0 1 0 0-85.333333 42.666667 42.666667 0 0 0 0 85.333333zM384 469.333333a42.666667 42.666667 0 1 1-85.333333 0 42.666667 42.666667 0 0 1 85.333333 0zM341.333333 640a42.666667 42.666667 0 1 0 0-85.333333 42.666667 42.666667 0 0 0 0 85.333333zM768 640a42.666667 42.666667 0 1 1-85.333333 0 42.666667 42.666667 0 0 1 85.333333 0zM725.333333 810.666667a42.666667 42.666667 0 1 0 0-85.333334 42.666667 42.666667 0 0 0 0 85.333334zM352 85.418667a32 32 0 0 0-32 32V213.333333H266.666667a32 32 0 0 0-32 32V332.8A117.333333 117.333333 0 0 0 170.666667 437.333333v448c0 17.706667 14.336 32 32 32h640a32 32 0 0 0 32-32v-213.333333a245.333333 245.333333 0 0 0-235.093334-245.12 117.376 117.376 0 0 0-63.445333-93.994667V245.333333a32 32 0 0 0-32-32H490.666667V117.418667a32 32 0 0 0-32-32h-106.666667zM512.128 320H298.666667v-42.666667h213.461333v42.666667zM576 853.333333H512v-117.333333a32 32 0 0 0-32-32h-149.333333a32 32 0 0 0-32 32V853.333333H234.666667v-416C234.666667 407.893333 258.56 384 288 384h234.666667c29.44 0 53.333333 23.893333 53.333333 53.333333V853.333333z m-213.333333 0v-85.333333h85.333333v85.333333h-85.333333z m277.333333 0v-362.325333c95.146667 5.504 170.666667 84.437333 170.666667 180.992V853.333333h-170.666667zM426.666667 213.333333H384V149.418667h42.666667V213.333333z" /></svg>