<svg class="icon" style="width: 1em;height: 1em;vertical-align: middle;fill: currentColor;overflow: hidden;" viewBox="0 0 1024 1024" version="1.1" xmlns="http://www.w3.org/2000/svg"><path d="M330.666667 213.333333A74.666667 74.666667 0 0 0 256 288v42.666667c0 41.216 33.450667 74.666667 74.666667 74.666666h234.666666A74.666667 74.666667 0 0 0 640 330.666667v-42.666667A74.666667 74.666667 0 0 0 565.333333 213.333333h-234.666666zM320 288a10.666667 10.666667 0 0 1 10.666667-10.666667h234.666666a10.666667 10.666667 0 0 1 10.666667 10.666667v42.666667a10.666667 10.666667 0 0 1-10.666667 10.666666h-234.666666a10.666667 10.666667 0 0 1-10.666667-10.666666v-42.666667z m128 170.666667a53.333333 53.333333 0 1 0 0 106.666666 53.333333 53.333333 0 0 0 0-106.666666zM394.666667 661.333333a53.333333 53.333333 0 1 1 106.666666 0 53.333333 53.333333 0 0 1-106.666666 0zM298.666667 458.666667a53.333333 53.333333 0 1 0 0 106.666666 53.333333 53.333333 0 0 0 0-106.666666zM245.333333 661.333333a53.333333 53.333333 0 1 1 106.666667 0 53.333333 53.333333 0 0 1-106.666667 0zM597.333333 458.666667a53.333333 53.333333 0 1 0 0 106.666666 53.333333 53.333333 0 0 0 0-106.666666z m-53.333333 202.666666a53.333333 53.333333 0 1 1 106.666667 0 53.333333 53.333333 0 0 1-106.666667 0zM261.845333 85.333333A133.845333 133.845333 0 0 0 128 219.178667v478.976A133.845333 133.845333 0 0 0 261.845333 832h372.309334A133.845333 133.845333 0 0 0 768 698.154667V219.178667A133.845333 133.845333 0 0 0 634.154667 85.333333H261.845333zM192 219.178667c0-38.570667 31.274667-69.845333 69.845333-69.845334h372.309334c38.570667 0 69.845333 31.274667 69.845333 69.845334v478.976c0 38.570667-31.274667 69.845333-69.845333 69.845333H261.845333A69.845333 69.845333 0 0 1 192 698.154667V219.178667z m55.466667 654.933333A117.333333 117.333333 0 0 0 352.384 938.666667h298.325333c123.733333 0 224-100.266667 224-224v-405.333334a117.333333 117.333333 0 0 0-64.597333-104.832c0.426667 4.821333 0.597333 9.728 0.597333 14.677334V714.666667a160 160 0 0 1-160 160H261.845333c-4.821333 0-9.6-0.213333-14.336-0.554667z" /></svg>