<svg class="icon" style="width: 1em;height: 1em;vertical-align: middle;fill: currentColor;overflow: hidden;" viewBox="0 0 1024 1024" version="1.1" xmlns="http://www.w3.org/2000/svg"><path d="M298.666667 298.666667a85.333333 85.333333 0 0 1 85.333333-85.333334h256a85.333333 85.333333 0 0 1 85.333333 85.333334v42.666666a85.333333 85.333333 0 0 1-85.333333 85.333334H384a85.333333 85.333333 0 0 1-85.333333-85.333334V298.666667z m85.333333-21.333334a21.333333 21.333333 0 0 0-21.333333 21.333334v42.666666a21.333333 21.333333 0 0 0 21.333333 21.333334h256a21.333333 21.333333 0 0 0 21.333333-21.333334V298.666667a21.333333 21.333333 0 0 0-21.333333-21.333334H384z m-32 341.333334a53.333333 53.333333 0 1 0 0-106.666667 53.333333 53.333333 0 0 0 0 106.666667z m53.333333 117.333333a53.333333 53.333333 0 1 1-106.666666 0 53.333333 53.333333 0 0 1 106.666666 0z m266.666667-117.333333a53.333333 53.333333 0 1 0 0-106.666667 53.333333 53.333333 0 0 0 0 106.666667zM725.333333 736a53.333333 53.333333 0 1 1-106.666666 0 53.333333 53.333333 0 0 1 106.666666 0z m-213.333333-117.333333a53.333333 53.333333 0 1 0 0-106.666667 53.333333 53.333333 0 0 0 0 106.666667z m53.333333 117.333333a53.333333 53.333333 0 1 1-106.666666 0 53.333333 53.333333 0 0 1 106.666666 0zM309.333333 85.333333A138.666667 138.666667 0 0 0 170.666667 224v576A138.666667 138.666667 0 0 0 309.333333 938.666667h405.333334A138.666667 138.666667 0 0 0 853.333333 800V224A138.666667 138.666667 0 0 0 714.666667 85.333333h-405.333334zM234.666667 224c0-41.216 33.450667-74.666667 74.666666-74.666667h405.333334c41.216 0 74.666667 33.450667 74.666666 74.666667v576a74.666667 74.666667 0 0 1-74.666666 74.666667h-405.333334a74.666667 74.666667 0 0 1-74.666666-74.666667V224z" /></svg>