<svg class="icon" style="width: 1em;height: 1em;vertical-align: middle;fill: currentColor;overflow: hidden;" viewBox="0 0 1024 1024" version="1.1" xmlns="http://www.w3.org/2000/svg"><path d="M896 266.666667A138.666667 138.666667 0 0 0 757.333333 128H266.666667A138.666667 138.666667 0 0 0 128 266.666667v490.666666A138.666667 138.666667 0 0 0 266.666667 896H469.333333v-64H266.666667a74.666667 74.666667 0 0 1-74.666667-74.666667V362.666667h640v117.802666a116.778667 116.778667 0 0 1 64 26.368V266.666667zM266.666667 192h490.666666c41.216 0 74.666667 33.450667 74.666667 74.666667V298.666667h-640v-32c0-41.216 33.450667-74.666667 74.666667-74.666667z m405.333333 288h70.229333a53.333333 53.333333 0 0 0-99.2 3.626667c9.258667-2.389333 18.986667-3.626667 28.970667-3.626667zM384 672a53.333333 53.333333 0 1 0-106.666667 0 53.333333 53.333333 0 0 0 106.666667 0z m0-170.666667a53.333333 53.333333 0 1 0-106.666667 0 53.333333 53.333333 0 0 0 106.666667 0z m181.333333 0a53.333333 53.333333 0 1 0-106.666666 0 53.333333 53.333333 0 0 0 106.666666 0zM597.333333 640h-21.333333a64 64 0 0 0-64 64V768h106.666667v-10.666667a32 32 0 0 1 64 0V768h128v-10.666667a32 32 0 0 1 64 0V768H981.333333v-64a64 64 0 0 0-64-64H896v-42.666667a74.666667 74.666667 0 0 0-74.666667-74.666666h-149.333333A74.666667 74.666667 0 0 0 597.333333 597.333333v42.666667z m64-42.666667a10.666667 10.666667 0 0 1 10.666667-10.666666h149.333333a10.666667 10.666667 0 0 1 10.666667 10.666666v42.666667h-170.666667v-42.666667zM512 917.333333v-85.333333h106.666667v32a32 32 0 0 0 64 0v-32h128v32a32 32 0 0 0 64 0v-32H981.333333v85.333333a64 64 0 0 1-64 64h-341.333333a64 64 0 0 1-64-64z" /></svg>