<svg class="icon" style="width: 1em;height: 1em;vertical-align: middle;fill: currentColor;overflow: hidden;" viewBox="0 0 1024 1024" version="1.1" xmlns="http://www.w3.org/2000/svg"><path d="M757.333333 128A138.666667 138.666667 0 0 1 896 266.666667v490.666666A138.666667 138.666667 0 0 1 757.333333 896H266.666667A138.666667 138.666667 0 0 1 128 757.333333V266.666667A138.666667 138.666667 0 0 1 266.666667 128h490.666666z m0 64H266.666667A74.666667 74.666667 0 0 0 192 266.666667v490.666666c0 41.216 33.450667 74.666667 74.666667 74.666667h490.666666a74.666667 74.666667 0 0 0 74.666667-74.666667V266.666667a74.666667 74.666667 0 0 0-74.666667-74.666667zM330.666667 298.666667a32 32 0 0 1 31.701333 27.648l0.298667 4.352v362.666666a32 32 0 0 1-63.701334 4.352L298.666667 693.333333v-362.666666A32 32 0 0 1 330.666667 298.666667z" /></svg>