<svg class="icon" style="width: 1em;height: 1em;vertical-align: middle;fill: currentColor;overflow: hidden;" viewBox="0 0 1024 1024" version="1.1" xmlns="http://www.w3.org/2000/svg"><path d="M853.077333 213.632l0.170667 5.162667 0.085333 5.205333v473.6A155.733333 155.733333 0 0 1 697.6 853.333333H224a185.6 185.6 0 0 1-10.368-0.298666A138.496 138.496 0 0 0 330.666667 917.333333h366.933333a219.733333 219.733333 0 0 0 219.733333-219.733333v-366.933333c0-49.194667-25.6-92.416-64.256-117.034667zM224 85.333333A138.666667 138.666667 0 0 0 85.333333 224v448A138.666667 138.666667 0 0 0 224 810.666667h448A138.666667 138.666667 0 0 0 810.666667 672V224A138.666667 138.666667 0 0 0 672 85.333333H224zM149.333333 320h597.333334v352a74.666667 74.666667 0 0 1-74.666667 74.666667H224a74.666667 74.666667 0 0 1-74.666667-74.666667V320z m74.666667-170.666667h448c41.216 0 74.666667 33.450667 74.666667 74.666667V256h-597.333334v-32c0-41.216 33.450667-74.666667 74.666667-74.666667z" /></svg>