<svg class="icon" style="width: 1em;height: 1em;vertical-align: middle;fill: currentColor;overflow: hidden;" viewBox="0 0 1024 1024" version="1.1" xmlns="http://www.w3.org/2000/svg"><path d="M757.333333 128A138.666667 138.666667 0 0 1 896 266.666667v490.666666A138.666667 138.666667 0 0 1 757.333333 896H266.666667A138.666667 138.666667 0 0 1 128 757.333333V266.666667A138.666667 138.666667 0 0 1 266.666667 128h490.666666z m0 64H266.666667A74.666667 74.666667 0 0 0 192 266.666667v490.666666c0 41.216 33.450667 74.666667 74.666667 74.666667h490.666666a74.666667 74.666667 0 0 0 74.666667-74.666667V266.666667a74.666667 74.666667 0 0 0-74.666667-74.666667z m-64 277.333333a32 32 0 0 1 32 32v192a32 32 0 0 1-32 32h-362.666666a32 32 0 0 1-32-32v-192a32 32 0 0 1 32-32h362.666666z m-32 64h-298.666666v128h298.666666v-128zM330.666667 309.333333h362.666666a32 32 0 0 1 4.352 63.701334l-4.352 0.298666h-362.666666a32 32 0 0 1-4.352-63.701333l4.352-0.298667h362.666666-362.666666z" /></svg>