<svg class="icon" style="width: 1em;height: 1em;vertical-align: middle;fill: currentColor;overflow: hidden;" viewBox="0 0 1024 1024" version="1.1" xmlns="http://www.w3.org/2000/svg"><path d="M757.333333 128A138.666667 138.666667 0 0 1 896 266.666667v246.272a276.096 276.096 0 0 0-64-30.250667V362.666667h-640v394.666666c0 41.216 33.450667 74.666667 74.666667 74.666667h216.021333c7.381333 22.784 17.578667 44.245333 30.250667 64H266.666667A138.666667 138.666667 0 0 1 128 757.333333V266.666667A138.666667 138.666667 0 0 1 266.666667 128h490.666666z m0 64H266.666667A74.666667 74.666667 0 0 0 192 266.666667V298.666667h640v-32a74.666667 74.666667 0 0 0-74.666667-74.666667zM746.666667 981.333333a234.666667 234.666667 0 1 0 0-469.333333 234.666667 234.666667 0 0 0 0 469.333333z m-17.237334-384h61.141334a21.333333 21.333333 0 0 1 19.968 28.842667L789.333333 682.666667h27.050667a20.053333 20.053333 0 0 1 16.810667 30.976l-112 172.288a22.101333 22.101333 0 0 1-39.509334-19.029334L714.666667 768h-33.194667a21.333333 21.333333 0 0 1-20.010667-28.842667l48-128a21.333333 21.333333 0 0 1 19.968-13.824z" /></svg>