<svg class="icon" style="width: 1em;height: 1em;vertical-align: middle;fill: currentColor;overflow: hidden;" viewBox="0 0 1024 1024" version="1.1" xmlns="http://www.w3.org/2000/svg"><path d="M896 266.666667A138.666667 138.666667 0 0 0 757.333333 128H266.666667A138.666667 138.666667 0 0 0 128 266.666667v490.666666A138.666667 138.666667 0 0 0 266.666667 896h170.666666v-64h-170.666666a74.666667 74.666667 0 0 1-74.666667-74.666667V362.666667h640v394.666666a74.666667 74.666667 0 0 1-74.666667 74.666667h-170.666666V896h170.666666A138.666667 138.666667 0 0 0 896 757.333333V266.666667zM266.666667 192h490.666666c41.216 0 74.666667 33.450667 74.666667 74.666667V298.666667h-640v-32c0-41.216 33.450667-74.666667 74.666667-74.666667zM565.333333 501.333333a53.333333 53.333333 0 1 1-106.666666 0 53.333333 53.333333 0 0 1 106.666666 0zM586.752 781.226667a32 32 0 0 0 42.496-47.786667l-96-85.333333a32 32 0 0 0-42.496 0l-96 85.333333a32 32 0 0 0 42.496 47.786667l42.752-37.973334v163.413334a32 32 0 1 0 64 0v-163.413334l42.752 37.973334z" /></svg>