<svg class="icon" style="width: 1em;height: 1em;vertical-align: middle;fill: currentColor;overflow: hidden;" viewBox="0 0 1024 1024" version="1.1" xmlns="http://www.w3.org/2000/svg"><path d="M895.914667 266.666667A138.666667 138.666667 0 0 0 757.248 128H266.666667A138.666667 138.666667 0 0 0 128 266.666667v490.624a138.666667 138.666667 0 0 0 138.666667 138.666666h209.664l15.189333-60.757333 0.853333-3.242667H266.666667a74.666667 74.666667 0 0 1-74.666667-74.666666v-394.666667h639.914667v116.608c20.48-8.106667 42.410667-11.264 64-9.386667V266.666667zM266.666667 192h490.624c41.216 0 74.666667 33.408 74.666666 74.666667V298.666667h-640v-32c0-41.258667 33.450667-74.666667 74.666667-74.666667z m548.181333 348.544l-251.776 251.776a114.56 114.56 0 0 0-30.165333 53.248l-19.498667 78.08c-8.533333 34.005333 22.272 64.768 56.234667 56.277333l78.08-19.541333a114.56 114.56 0 0 0 53.248-30.122667L952.746667 678.4a97.536 97.536 0 0 0-137.941334-137.898667z" /></svg>