<svg class="icon" style="width: 1em;height: 1em;vertical-align: middle;fill: currentColor;overflow: hidden;" viewBox="0 0 1024 1024" version="1.1" xmlns="http://www.w3.org/2000/svg"><path d="M757.333333 128A138.666667 138.666667 0 0 1 896 266.666667v490.666666A138.666667 138.666667 0 0 1 757.333333 896H266.666667A138.666667 138.666667 0 0 1 128 757.333333V266.666667A138.666667 138.666667 0 0 1 266.666667 128h490.666666z m0 64H266.666667A74.666667 74.666667 0 0 0 192 266.666667v490.666666c0 41.216 33.450667 74.666667 74.666667 74.666667h490.666666a74.666667 74.666667 0 0 0 74.666667-74.666667V266.666667a74.666667 74.666667 0 0 0-74.666667-74.666667zM330.666667 298.666667a32 32 0 0 1 31.701333 27.648l0.298667 4.352v42.666666a32 32 0 0 1-63.701334 4.352L298.666667 373.333333v-42.666666A32 32 0 0 1 330.666667 298.666667zM362.368 646.314667A32 32 0 0 0 298.666667 650.666667v42.666666l0.298666 4.352A32 32 0 0 0 362.666667 693.333333v-42.666666l-0.298667-4.352zM362.666667 483.029333a32 32 0 0 0-63.701334 4.352L298.666667 536.32l0.298666 4.352A32 32 0 0 0 362.666667 536.32l0.298666-48.981333-0.298666-4.352z" /></svg>