<svg class="icon" style="width: 1em;height: 1em;vertical-align: middle;fill: currentColor;overflow: hidden;" viewBox="0 0 1024 1024" version="1.1" xmlns="http://www.w3.org/2000/svg"><path d="M757.333333 128A138.666667 138.666667 0 0 1 896 266.666667v246.186666a276.138667 276.138667 0 0 0-64-30.165333V362.666667h-640v394.666666c0 41.216 33.450667 74.666667 74.666667 74.666667h216.021333c3.626667 11.178667 7.936 22.058667 12.885333 32.597333L485.973333 896H266.666667A138.666667 138.666667 0 0 1 128 757.333333V266.666667A138.666667 138.666667 0 0 1 266.666667 128h490.666666z m0 64H266.666667A74.666667 74.666667 0 0 0 192 266.666667V298.666667h640v-32a74.666667 74.666667 0 0 0-74.666667-74.666667z m74.666667 335.957333a234.581333 234.581333 0 0 1 64 37.632 234.709333 234.709333 0 0 1-263.082667 386.474667l-93.312 28.416a21.333333 21.333333 0 0 1-26.624-26.666667l28.416-93.269333A234.709333 234.709333 0 0 1 745.6 512h1.109333c30.08 0 58.88 5.674667 85.290667 15.957333z m0.085333 197.418667a21.333333 21.333333 0 1 0 0-42.666667H661.333333a21.333333 21.333333 0 1 0 0 42.666667h170.666667z m-170.709333 85.333333h85.333333a21.333333 21.333333 0 1 0 0-42.666666h-85.333333a21.333333 21.333333 0 1 0 0 42.666666z m-20.181333-320.597333a276.138667 276.138667 0 0 1 94.976-20.565333 53.248 53.248 0 0 0-94.976 20.565333z m-169.088 217.301333a275.370667 275.370667 0 0 1 27.776-87.381333 53.333333 53.333333 0 0 0-27.776 87.381333zM330.666667 618.666667a53.333333 53.333333 0 1 1 0 106.666666 53.333333 53.333333 0 0 1 0-106.666666z m0-170.666667a53.333333 53.333333 0 1 1 0 106.666667 53.333333 53.333333 0 0 1 0-106.666667z m181.333333 0a53.333333 53.333333 0 1 1 0 106.666667 53.333333 53.333333 0 0 1 0-106.666667z" /></svg>