<svg class="icon" style="width: 1em;height: 1em;vertical-align: middle;fill: currentColor;overflow: hidden;" viewBox="0 0 1024 1024" version="1.1" xmlns="http://www.w3.org/2000/svg"><path d="M757.333333 128A138.666667 138.666667 0 0 1 896 266.666667v246.272a276.096 276.096 0 0 0-64-30.250667V362.666667h-640v394.666666c0 41.216 33.450667 74.666667 74.666667 74.666667h216.021333c7.381333 22.784 17.578667 44.245333 30.250667 64H266.666667A138.666667 138.666667 0 0 1 128 757.333333V266.666667A138.666667 138.666667 0 0 1 266.666667 128h490.666666z m0 64H266.666667A74.666667 74.666667 0 0 0 192 266.666667V298.666667h640v-32a74.666667 74.666667 0 0 0-74.666667-74.666667z m224 554.666667a234.666667 234.666667 0 1 1-469.333333 0 234.666667 234.666667 0 0 1 469.333333 0zM746.666667 597.333333a21.333333 21.333333 0 0 0-21.333334 21.333334v170.666666a21.333333 21.333333 0 0 0 42.666667 0v-170.666666a21.333333 21.333333 0 0 0-21.333333-21.333334z m0 304a26.666667 26.666667 0 1 0 0-53.333333 26.666667 26.666667 0 0 0 0 53.333333z" /></svg>