<svg class="icon" style="width: 1em;height: 1em;vertical-align: middle;fill: currentColor;overflow: hidden;" viewBox="0 0 1024 1024" version="1.1" xmlns="http://www.w3.org/2000/svg"><path d="M896 266.666667A138.666667 138.666667 0 0 0 757.333333 128H266.666667A138.666667 138.666667 0 0 0 128 266.666667v490.666666A138.666667 138.666667 0 0 0 266.666667 896h246.272a276.096 276.096 0 0 1-30.250667-64H266.666667a74.666667 74.666667 0 0 1-74.666667-74.666667V362.666667h640v120.021333a276.096 276.096 0 0 1 64 30.250667V266.666667zM266.666667 192h490.666666c41.216 0 74.666667 33.450667 74.666667 74.666667V298.666667h-640v-32c0-41.216 33.450667-74.666667 74.666667-74.666667zM981.333333 746.666667a234.666667 234.666667 0 1 0-469.333333 0 234.666667 234.666667 0 0 0 469.333333 0z m-234.666666 0h85.333333a21.333333 21.333333 0 0 1 0 42.666666H725.333333a21.333333 21.333333 0 0 1-21.333333-20.949333v-128.426667a21.333333 21.333333 0 0 1 42.666667 0V746.666667z" /></svg>