<svg class="icon" style="width: 1em;height: 1em;vertical-align: middle;fill: currentColor;overflow: hidden;" viewBox="0 0 1024 1024" version="1.1" xmlns="http://www.w3.org/2000/svg"><path d="M266.666667 128A138.666667 138.666667 0 0 0 128 266.666667v490.666666A138.666667 138.666667 0 0 0 266.666667 896h490.666666A138.666667 138.666667 0 0 0 896 757.333333V266.666667A138.666667 138.666667 0 0 0 757.333333 128H266.666667zM192 362.666667h640v394.666666a74.666667 74.666667 0 0 1-74.666667 74.666667H266.666667a74.666667 74.666667 0 0 1-74.666667-74.666667V362.666667z m501.333333 256a53.333333 53.333333 0 1 0 0 106.666666 53.333333 53.333333 0 0 0 0-106.666666z m-181.333333 0a53.333333 53.333333 0 1 0 0 106.666666 53.333333 53.333333 0 0 0 0-106.666666z m181.333333-170.666667a53.333333 53.333333 0 1 0 0 106.666667 53.333333 53.333333 0 0 0 0-106.666667z m-181.333333 0a53.333333 53.333333 0 1 0 0 106.666667 53.333333 53.333333 0 0 0 0-106.666667z m-181.333333 0a53.333333 53.333333 0 1 0 0 106.666667 53.333333 53.333333 0 0 0 0-106.666667z m-64-256h490.666666c41.216 0 74.666667 33.450667 74.666667 74.666667V298.666667h-640v-32c0-41.216 33.450667-74.666667 74.666667-74.666667z" /></svg>