<svg class="icon" style="width: 1em;height: 1em;vertical-align: middle;fill: currentColor;overflow: hidden;" viewBox="0 0 1024 1024" version="1.1" xmlns="http://www.w3.org/2000/svg"><path d="M746.666667 512a234.666667 234.666667 0 1 1 0 469.333333 234.666667 234.666667 0 0 1 0-469.333333z m10.666666-384A138.666667 138.666667 0 0 1 896 266.666667l0.042667 246.314666a276.010667 276.010667 0 0 0-64-30.293333L832 362.666667h-640v394.666666c0 41.216 33.450667 74.666667 74.666667 74.666667h216.064c7.338667 22.784 17.578667 44.288 30.250666 64.042667L266.666667 896A138.666667 138.666667 0 0 1 128 757.333333V266.666667A138.666667 138.666667 0 0 1 266.666667 128h490.666666z m-32.682666 471.296l-1.706667 4.181333-23.722667 76.245334h-76.928c-22.698667 0-32.938667 28.501333-17.792 44.202666l3.157334 2.773334 62.208 47.146666-23.765334 76.245334c-7.04 22.613333 16 41.6 35.029334 31.146666l3.328-2.133333L746.666667 832l62.208 47.104c18.474667 13.994667 42.922667-2.986667 39.253333-25.088l-0.896-3.925333-23.765333-76.245334 62.208-47.146666c18.346667-13.909333 10.581333-43.264-10.538667-46.634667l-4.096-0.341333h-76.928l-23.765333-76.245334a24.576 24.576 0 0 0-45.696-4.181333zM757.333333 192H266.666667A74.666667 74.666667 0 0 0 192 266.666667V298.666667h640v-32a74.666667 74.666667 0 0 0-74.666667-74.666667z" /></svg>