<svg class="icon" style="width: 1em;height: 1em;vertical-align: middle;fill: currentColor;overflow: hidden;" viewBox="0 0 1024 1024" version="1.1" xmlns="http://www.w3.org/2000/svg"><path d="M757.333333 128A138.666667 138.666667 0 0 1 896 266.666667V469.333333a160.597333 160.597333 0 0 0-64-50.688V362.666667h-640v394.666666c0 41.216 33.450667 74.666667 74.666667 74.666667h246.613333c2.56 22.272 9.258667 43.861333 19.541333 64H266.666667A138.666667 138.666667 0 0 1 128 757.333333V266.666667A138.666667 138.666667 0 0 1 266.666667 128h490.666666z m0 64H266.666667A74.666667 74.666667 0 0 0 192 266.666667V298.666667h640v-32a74.666667 74.666667 0 0 0-74.666667-74.666667zM981.333333 789.333333a64 64 0 0 0-64-64h-298.666666a64 64 0 0 0-64 64v21.333334c0 84.096 79.36 170.666667 213.333333 170.666666 133.973333 0 213.333333-86.570667 213.333333-170.666666v-21.333334zM885.333333 565.333333a117.333333 117.333333 0 1 0-234.666666 0 117.333333 117.333333 0 0 0 234.666666 0z" /></svg>