<svg class="icon" style="width: 1em;height: 1em;vertical-align: middle;fill: currentColor;overflow: hidden;" viewBox="0 0 1024 1024" version="1.1" xmlns="http://www.w3.org/2000/svg"><path d="M757.333333 128A138.666667 138.666667 0 0 1 896 266.666667v246.272a276.096 276.096 0 0 0-64-30.250667V362.666667h-640v394.666666c0 41.216 33.450667 74.666667 74.666667 74.666667h216.021333c7.381333 22.784 17.578667 44.245333 30.250667 64H266.666667A138.666667 138.666667 0 0 1 128 757.333333V266.666667A138.666667 138.666667 0 0 1 266.666667 128h490.666666z m0 64H266.666667A74.666667 74.666667 0 0 0 192 266.666667V298.666667h640v-32a74.666667 74.666667 0 0 0-74.666667-74.666667zM512 746.666667a234.666667 234.666667 0 1 0 469.333333 0 234.666667 234.666667 0 0 0-469.333333 0z m362.666667-149.333334a21.333333 21.333333 0 0 1 21.333333 21.333334v85.333333a21.333333 21.333333 0 0 1-21.333333 21.333333h-85.333334a21.333333 21.333333 0 0 1 0-42.666666h42.666667a106.496 106.496 0 0 0-85.333333-42.666667c-35.541333 0-67.072 17.365333-86.485334 44.202667a21.333333 21.333333 0 0 1-34.56-25.002667A149.162667 149.162667 0 0 1 746.666667 597.333333c41.813333 0 79.573333 17.194667 106.666666 44.8v-23.466666a21.333333 21.333333 0 0 1 21.333334-21.333334zM640 851.2v23.466667a21.333333 21.333333 0 0 1-42.666667 0v-85.333334a21.333333 21.333333 0 0 1 21.333334-21.333333h85.333333a21.333333 21.333333 0 0 1 0 42.666667h-42.666667c19.456 25.941333 50.474667 42.666667 85.333334 42.666666 32.682667 0 61.952-14.677333 81.536-37.888a21.333333 21.333333 0 0 1 32.597333 27.52A149.034667 149.034667 0 0 1 746.666667 896a148.906667 148.906667 0 0 1-106.666667-44.8z" /></svg>