<svg class="icon" style="width: 1em;height: 1em;vertical-align: middle;fill: currentColor;overflow: hidden;" viewBox="0 0 1024 1024" version="1.1" xmlns="http://www.w3.org/2000/svg"><path d="M896 266.666667A138.666667 138.666667 0 0 0 757.333333 128H266.666667A138.666667 138.666667 0 0 0 128 266.666667v490.666666A138.666667 138.666667 0 0 0 266.666667 896h246.272a276.096 276.096 0 0 1-30.250667-64H266.666667a74.666667 74.666667 0 0 1-74.666667-74.666667V362.666667h640v120.021333a276.096 276.096 0 0 1 64 30.250667V266.666667zM266.666667 192h490.666666c41.216 0 74.666667 33.450667 74.666667 74.666667V298.666667h-640v-32c0-41.216 33.450667-74.666667 74.666667-74.666667zM981.333333 746.666667a234.666667 234.666667 0 1 0-469.333333 0 234.666667 234.666667 0 0 0 469.333333 0z m-261.333333 122.666666a26.666667 26.666667 0 1 1 53.333333 0 26.666667 26.666667 0 0 1-53.333333 0z m-52.394667-194.005333c-0.469333-48.469333 34.346667-83.370667 79.061334-83.370667 43.989333 0 79.061333 36.096 79.061333 83.2 0 21.717333-6.4 35.882667-22.528 55.125334l-5.717333 6.613333-11.349334 12.373333-4.309333 4.949334-3.626667 4.437333c-7.68 9.898667-10.197333 16.512-10.197333 25.173333a21.333333 21.333333 0 1 1-42.666667 0c0-22.058667 6.442667-36.394667 22.826667-55.893333l5.802667-6.698667 11.306666-12.373333 4.266667-4.821333 3.968-4.949334c7.253333-9.386667 9.557333-15.786667 9.557333-23.936 0-23.808-16.213333-40.533333-36.394666-40.533333-21.077333 0-36.650667 15.616-36.394667 40.32a21.333333 21.333333 0 1 1-42.666667 0.426667z" /></svg>