<svg class="icon" style="width: 1em;height: 1em;vertical-align: middle;fill: currentColor;overflow: hidden;" viewBox="0 0 1024 1024" version="1.1" xmlns="http://www.w3.org/2000/svg"><path d="M425.813333 87.637333l9.472 1.962667 34.816 8.149333a117.333333 117.333333 0 0 1 89.898667 126.08L552.405333 298.666667a117.333333 117.333333 0 0 1-90.368 102.485333l-71.893333 16.64a10.666667 10.666667 0 0 0-6.698667 4.821333c-8.405333 13.653333-13.653333 44.074667-13.653333 89.472 0 33.536 2.816 59.136 8.021333 76.202667 1.834667 5.973333 3.626667 10.154667 4.949334 12.842667l2.090666 3.84 1.706667 0.64 75.52 17.408a117.333333 117.333333 0 0 1 90.325333 102.442666l7.594667 74.496a117.333333 117.333333 0 0 1-89.472 125.994667l-34.858667 8.32a160 160 0 0 1-155.733333-48.213333C206.421333 804.992 170.666667 680.021333 170.666667 512.085333c0-168.192 35.925333-293.290667 109.610666-374.357333A160 160 0 0 1 425.813333 87.637333zM327.68 180.778667C266.24 248.234667 234.666667 358.4 234.666667 512.085333c0 153.472 31.530667 263.509333 92.672 331.008a96 96 0 0 0 93.44 28.928l34.858666-8.32a53.333333 53.333333 0 0 0 40.661334-57.258666l-7.552-74.496a53.333333 53.333333 0 0 0-41.088-46.549334l-77.653334-18.005333-5.76-1.834667c-42.624-16.042667-58.453333-67.882667-58.453333-153.472 0-56.234667 6.997333-96.64 23.04-122.88a74.666667 74.666667 0 0 1 46.933333-33.792l71.893334-16.64c22.229333-5.12 38.741333-23.850667 41.045333-46.549333l7.594667-74.837333a53.333333 53.333333 0 0 0-40.832-57.301334l-34.858667-8.192-7.253333-1.450666a96 96 0 0 0-85.76 30.293333z m339.968 130.858666l3.114667-3.584a32 32 0 0 1 41.642666-3.114666l3.584 3.114666 170.538667 170.538667a32 32 0 0 1 3.114667 41.642667l-3.114667 3.626666-170.496 170.794667a32 32 0 0 1-48.384-41.6l3.072-3.626667 115.669333-115.882666H512a32 32 0 0 1-31.701333-27.648l-0.256-4.352a32 32 0 0 1 27.648-31.701334l4.352-0.298666h274.858666L670.72 353.28a32 32 0 0 1-3.114667-41.642667l3.114667-3.584-3.114667 3.584z" /></svg>