<svg class="icon" style="width: 1em;height: 1em;vertical-align: middle;fill: currentColor;overflow: hidden;" viewBox="0 0 1024 1024" version="1.1" xmlns="http://www.w3.org/2000/svg"><path d="M265.557333 88.149333l-49.792 15.018667A160 160 0 0 0 107.050667 216.32c-30.592 118.272 2.56 259.242667 97.066666 422.954667 94.378667 163.413333 199.722667 262.613333 317.269334 295.424a160 160 0 0 0 153.002666-37.973334l37.845334-35.797333a117.333333 117.333333 0 0 0 14.464-153.856l-54.656-75.733333a117.333333 117.333333 0 0 0-129.450667-43.52l-85.76 26.197333c-2.432 0.725333-8.106667-1.28-18.474667-10.410667-14.805333-13.141333-32.213333-36.522667-51.456-69.845333-26.453333-45.866667-37.973333-78.848-36.053333-95.786667a10.666667 10.666667 0 0 1 3.285333-6.613333l63.786667-59.477333a117.333333 117.333333 0 0 0 27.008-133.930667l-38.485333-85.546667a117.333333 117.333333 0 0 0-140.885334-64.256zM168.96 232.362667A96 96 0 0 1 234.24 164.394667l49.792-15.018667a53.333333 53.333333 0 0 1 64 29.226667l38.485333 85.546666a53.333333 53.333333 0 0 1-12.245333 60.885334L310.485333 384.554667c-13.013333 12.16-21.290667 28.586667-23.253333 46.293333-3.84 34.218667 11.434667 78.08 44.245333 134.912 48.64 84.224 93.909333 124.416 143.829334 109.525333l85.973333-26.282666a53.333333 53.333333 0 0 1 58.88 19.797333l54.613333 75.733333a53.333333 53.333333 0 0 1-6.570666 69.930667l-37.802667 35.84a96 96 0 0 1-91.818667 22.741333c-98.858667-27.605333-192.256-115.498667-279.04-265.813333-86.869333-150.442667-116.266667-275.413333-90.538666-374.912zM929.28 139.946667a32 32 0 1 0-45.269333-45.226667L640 338.773333l-79.786667-79.786666a32 32 0 0 0-45.226666 45.226666l102.4 102.4a32 32 0 0 0 45.226666 0l266.666667-266.666666z" /></svg>