<svg class="icon" style="width: 1em;height: 1em;vertical-align: middle;fill: currentColor;overflow: hidden;" viewBox="0 0 1024 1024" version="1.1" xmlns="http://www.w3.org/2000/svg"><path d="M320 117.333333a32 32 0 0 0-64 0v128a74.666667 74.666667 0 0 0 65.834667 74.154667L278.485333 426.368a165.034667 165.034667 0 0 0 5.077334 134.101333l170.24 339.2c12.074667 24.149333 34.261333 38.997333 58.197333 38.997334s46.08-14.848 58.24-38.954667l170.24-339.242667c20.522667-40.96 22.442667-91.178667 5.034667-134.101333l-43.349334-106.88A74.666667 74.666667 0 0 0 768 245.333333v-128a32 32 0 0 0-64 0v128a10.666667 10.666667 0 0 1-10.666667 10.666667h-362.666666a10.666667 10.666667 0 0 1-10.666667-10.666667v-128z m313.301333 202.666667l52.906667 130.432c10.538667 26.026667 9.258667 57.002667-2.986667 81.322667l-139.221333 277.504v-284.501334a64 64 0 1 0-64 0v284.501334l-139.264-277.504a101.034667 101.034667 0 0 1-2.944-81.322667L390.698667 320h242.602666z" /></svg>