<svg class="icon" style="width: 1em;height: 1em;vertical-align: middle;fill: currentColor;overflow: hidden;" viewBox="0 0 1024 1024" version="1.1" xmlns="http://www.w3.org/2000/svg"><path d="M406.4 152.405333l38.485333 85.546667a117.333333 117.333333 0 0 1-27.008 133.973333L354.133333 431.36a10.666667 10.666667 0 0 0-3.328 6.613333c-1.877333 16.938667 9.6 49.92 36.053334 95.744 19.242667 33.365333 36.693333 56.746667 51.498666 69.888 10.325333 9.130667 16 11.093333 18.432 10.410667l85.76-26.24a117.333333 117.333333 0 0 1 129.493334 43.562667l54.613333 75.733333a117.333333 117.333333 0 0 1-14.464 153.856l-37.802667 35.84a160 160 0 0 1-153.045333 37.930667c-117.504-32.853333-222.848-131.968-317.226667-295.424-94.506667-163.712-127.658667-304.682667-97.109333-422.954667A160 160 0 0 1 206.933333 106.112l8.789334-2.986667 49.792-14.933333a117.333333 117.333333 0 0 1 140.885333 64.213333z m-122.410667-2.986666l-49.792 15.018666-6.741333 2.304a96 96 0 0 0-58.453333 65.578667c-25.728 99.498667 3.669333 224.426667 90.538666 374.954667 86.741333 150.272 180.138667 238.165333 279.04 265.770666a96 96 0 0 0 91.776-22.784l37.845334-35.84a53.333333 53.333333 0 0 0 6.570666-69.888l-54.613333-75.733333a53.333333 53.333333 0 0 0-58.88-19.797333l-85.973333 26.282666c-49.92 14.890667-95.232-25.301333-143.872-109.568C298.666667 509.013333 283.392 465.066667 287.189333 430.933333c2.005333-17.749333 10.24-34.176 23.296-46.336l63.744-59.477333a53.333333 53.333333 0 0 0 12.288-60.885333l-38.485333-85.546667a53.333333 53.333333 0 0 0-64-29.226667zM929.28 94.72a32 32 0 0 1 0 45.226667L791.893333 277.333333l137.386667 137.386667a32 32 0 1 1-45.226667 45.226667L746.666667 322.56l-137.386667 137.386667a32 32 0 1 1-45.226667-45.226667l137.386667-137.386667-137.386667-137.386666a32 32 0 0 1 45.226667-45.226667l137.386667 137.386667 137.386666-137.386667a32 32 0 0 1 45.226667 0z" /></svg>