<svg class="icon" style="width: 1em;height: 1em;vertical-align: middle;fill: currentColor;overflow: hidden;" viewBox="0 0 1024 1024" version="1.1" xmlns="http://www.w3.org/2000/svg"><path d="M934.528 563.285333l-8.149333 34.816a117.333333 117.333333 0 0 1-126.08 89.898667l-74.88-7.594667A117.333333 117.333333 0 0 1 622.933333 590.08l-16.597333-71.936a10.666667 10.666667 0 0 0-4.821333-6.698667c-13.696-8.405333-44.117333-13.653333-89.514667-13.653333-33.536 0-59.136 2.858667-76.202667 8.064-5.973333 1.834667-10.154667 3.626667-12.842666 4.949333l-3.84 2.048-0.64 1.706667-17.450667 75.52A117.333333 117.333333 0 0 1 298.666667 680.448l-74.496 7.552A117.333333 117.333333 0 0 1 98.133333 598.613333l-8.362666-34.858666a160 160 0 0 1 48.213333-155.776C219.050667 334.464 344.064 298.666667 512 298.666667c168.234667 0 293.333333 35.925333 374.442667 109.653333a160 160 0 0 1 50.005333 145.493333l-1.92 9.472z m-60.842667-21.930666a96 96 0 0 0-30.293333-85.717334C775.850667 394.282667 665.685333 362.666667 512 362.666667c-153.514667 0-263.552 31.530667-331.093333 92.672a96 96 0 0 0-28.885334 93.44l8.362667 34.901333a53.333333 53.333333 0 0 0 57.258667 40.661333l74.496-7.594666a53.333333 53.333333 0 0 0 46.506666-41.045334l18.048-77.653333 1.834667-5.802667c16.042667-42.581333 67.882667-58.453333 153.472-58.453333 56.234667 0 96.64 6.997333 122.88 23.04 17.109333 10.453333 29.312 27.392 33.834667 46.933333l16.597333 71.893334c5.12 22.272 23.893333 38.784 46.592 41.088l74.837333 7.594666a53.333333 53.333333 0 0 0 57.301334-40.874666l8.192-34.816 1.450666-7.296z" /></svg>