<svg class="icon" style="width: 1em;height: 1em;vertical-align: middle;fill: currentColor;overflow: hidden;" viewBox="0 0 1024 1024" version="1.1" xmlns="http://www.w3.org/2000/svg"><path d="M512.597333 106.496c168.234667 0 293.376 35.925333 374.442667 109.653333a160 160 0 0 1 49.92 146.005334l-1.792 8.96-8.192 34.858666a117.333333 117.333333 0 0 1-126.08 89.856l-74.88-7.594666a117.333333 117.333333 0 0 1-102.442667-90.325334l-16.64-71.936a10.666667 10.666667 0 0 0-4.821333-6.698666c-13.696-8.362667-44.117333-13.653333-89.514667-13.653334-62.506667 0-91.861333 9.813333-93.525333 16.810667l-17.408 75.52a117.333333 117.333333 0 0 1-102.442667 90.325333l-74.496 7.552a117.333333 117.333333 0 0 1-125.994666-89.429333l-8.362667-34.858667a160 160 0 0 1 48.213333-155.776c81.066667-73.472 206.08-109.226667 374.016-109.226666z m0 64c-153.472 0-263.509333 31.530667-331.050666 92.672a96 96 0 0 0-28.928 93.482667l8.362666 34.858666a53.333333 53.333333 0 0 0 57.258667 40.661334l74.496-7.594667a53.333333 53.333333 0 0 0 46.549333-41.045333l17.493334-75.733334c11.52-48.213333 65.28-66.133333 155.818666-66.133333 56.234667 0 96.64 6.954667 122.88 23.04 17.152 10.453333 29.312 27.306667 33.834667 46.890667l16.64 71.936c5.12 22.229333 23.808 38.741333 46.506667 41.045333l74.88 7.594667a53.333333 53.333333 0 0 0 57.301333-40.874667l8.192-34.816 1.450667-7.296a96 96 0 0 0-30.293334-85.717333c-67.498667-61.354667-177.664-92.970667-331.392-92.970667zM533.333333 629.333333a32 32 0 0 0-64 0v106.666667c0 17.664 14.336 32 32 32h74.666667a32 32 0 0 0 0-64h-42.666667v-74.666667zM277.333333 704a234.666667 234.666667 0 1 1 469.333334 0 234.666667 234.666667 0 0 1-469.333334 0z m234.666667-170.666667a170.666667 170.666667 0 1 0 0 341.333334 170.666667 170.666667 0 0 0 0-341.333334z" /></svg>