<svg class="icon" style="width: 1em;height: 1em;vertical-align: middle;fill: currentColor;overflow: hidden;" viewBox="0 0 1024 1024" version="1.1" xmlns="http://www.w3.org/2000/svg"><path d="M406.4 152.405333l38.485333 85.589334a117.333333 117.333333 0 0 1-27.008 133.930666L354.133333 431.36a10.666667 10.666667 0 0 0-3.328 6.613333c-1.877333 16.938667 9.6 49.92 36.053334 95.786667 19.242667 33.322667 36.693333 56.746667 51.498666 69.845333 10.325333 9.173333 16 11.136 18.432 10.453334l85.76-26.24a117.333333 117.333333 0 0 1 129.493334 43.52l54.613333 75.776a117.333333 117.333333 0 0 1-14.464 153.813333l-37.802667 35.84a160 160 0 0 1-153.045333 37.930667c-117.504-32.810667-222.848-131.968-317.226667-295.424-94.506667-163.669333-127.658667-304.64-97.109333-422.954667A160 160 0 0 1 206.933333 106.112l8.789334-2.944 49.792-14.976a117.333333 117.333333 0 0 1 140.885333 64.213333z m-122.410667-2.986666l-49.792 15.061333-6.741333 2.304a96 96 0 0 0-58.453333 65.578667c-25.728 99.456 3.669333 224.426667 90.538666 374.912 86.741333 150.272 180.138667 238.165333 279.04 265.813333a96 96 0 0 0 91.776-22.784l37.845334-35.84a53.333333 53.333333 0 0 0 6.570666-69.930667l-54.613333-75.733333a53.333333 53.333333 0 0 0-58.88-19.797333l-85.973333 26.325333c-49.92 14.848-95.232-25.301333-143.872-109.568C298.666667 509.013333 283.392 465.066667 287.189333 430.890667c2.005333-17.749333 10.24-34.133333 23.296-46.336L374.229333 325.12a53.333333 53.333333 0 0 0 12.288-60.885333l-38.485333-85.589334a53.333333 53.333333 0 0 0-64-29.184zM864 469.333333h-279.637333l-4.266667-0.597333-4.309333-1.237333-2.048-0.853334a30.805333 30.805333 0 0 1-14.506667-12.629333l-2.048-4.053333-1.066667-2.858667-1.024-4.053333-0.469333-4.48V159.786667a32 32 0 0 1 63.658667-4.352l0.298666 4.352V360.106667l265.386667-265.514667a32 32 0 0 1 41.685333-3.114667l3.584 3.114667a32 32 0 0 1 3.114667 41.642667l-3.114667 3.584-265.386666 265.472 200.106666 0.042666a32 32 0 0 1 31.744 27.648l0.298667 4.352a32 32 0 0 1-27.648 31.701334L864 469.333333z" /></svg>