<svg class="icon" style="width: 1em;height: 1em;vertical-align: middle;fill: currentColor;overflow: hidden;" viewBox="0 0 1024 1024" version="1.1" xmlns="http://www.w3.org/2000/svg"><path d="M906.666667 320a32 32 0 0 1 31.701333 27.648L938.666667 352v362.666667a138.666667 138.666667 0 0 1-130.816 138.453333L800 853.333333H258.602667l30.72 30.72a32 32 0 0 1 3.072 41.642667l-3.114667 3.584a32 32 0 0 1-41.642667 3.114667l-3.584-3.114667-85.333333-85.333333-2.730667-3.072a51.754667 51.754667 0 0 1-0.298666-0.426667l2.986666 3.498667a32.128 32.128 0 0 1-5.418666-37.973334 33.066667 33.066667 0 0 1 5.461333-7.253333l85.333333-85.333333a32 32 0 0 1 48.341334 41.642666l-3.114667 3.584-30.72 30.72h541.44a74.666667 74.666667 0 0 0 74.410667-68.565333l0.256-6.101333v-362.666667a32 32 0 0 1 32-32z m-130.304-228.394667l3.584 3.114667 85.333333 85.333333a32 32 0 0 1 3.029333 3.456l-2.986666-3.456a31.829333 31.829333 0 0 1 3.072 41.642667 33.28 33.28 0 0 1-2.901334 3.413333l-0.213333 0.170667-85.333333 85.333333a32 32 0 0 1-48.341334-41.642666l3.114667-3.584 30.634667-30.72H224a74.666667 74.666667 0 0 0-74.410667 68.522666L149.333333 309.333333v362.666667a32 32 0 0 1-63.701333 4.352L85.333333 672v-362.666667a138.666667 138.666667 0 0 1 130.816-138.453333L224 170.666667h541.397333l-30.72-30.72a32 32 0 0 1-3.072-41.642667l3.114667-3.584a32 32 0 0 1 41.642667-3.114667zM512 341.333333a170.666667 170.666667 0 1 1 0 341.333334 170.666667 170.666667 0 0 1 0-341.333334z m0 64a106.666667 106.666667 0 1 0 0 213.333334 106.666667 106.666667 0 0 0 0-213.333334z" /></svg>