<svg class="icon" style="width: 1em;height: 1em;vertical-align: middle;fill: currentColor;overflow: hidden;" viewBox="0 0 1024 1024" version="1.1" xmlns="http://www.w3.org/2000/svg"><path d="M594.133333 106.794667a96 96 0 0 1 82.773334 47.36L711.637333 213.333333h88.362667A138.666667 138.666667 0 0 1 938.666667 352v405.333333A138.666667 138.666667 0 0 1 800 896H224A138.666667 138.666667 0 0 1 85.333333 757.333333v-405.333333A138.666667 138.666667 0 0 1 224 213.333333h88.746667l37.333333-60.757333a96 96 0 0 1 81.792-45.781333h162.261333z m0 64h-162.261333a32 32 0 0 0-24.490667 11.434666l-2.773333 3.84L357.973333 262.016a32 32 0 0 1-27.264 15.274667h-106.666666A74.666667 74.666667 0 0 0 149.333333 352v405.333333c0 41.216 33.450667 74.666667 74.666667 74.666667h576a74.666667 74.666667 0 0 0 74.666667-74.666667v-405.333333a74.666667 74.666667 0 0 0-74.666667-74.666667h-106.666667a32 32 0 0 1-27.605333-15.786666l-44.032-74.965334a32 32 0 0 0-27.562667-15.786666zM512 341.333333a192 192 0 1 1 0 384 192 192 0 0 1 0-384z m0 64a128 128 0 1 0 0 256 128 128 0 0 0 0-256z" /></svg>