<svg class="icon" style="width: 1em;height: 1em;vertical-align: middle;fill: currentColor;overflow: hidden;" viewBox="0 0 1024 1024" version="1.1" xmlns="http://www.w3.org/2000/svg"><path d="M512 682.666667a106.666667 106.666667 0 1 0 0-213.333334 106.666667 106.666667 0 0 0 0 213.333334z m0-341.333334a234.666667 234.666667 0 1 0 0 469.333334 234.666667 234.666667 0 0 0 0-469.333334z m-170.666667 234.666667a170.666667 170.666667 0 1 1 341.333334 0 170.666667 170.666667 0 0 1-341.333334 0zM85.333333 160C85.333333 118.784 118.784 85.333333 160 85.333333h704c41.216 0 74.666667 33.450667 74.666667 74.666667v64c0 29.781333-17.450667 55.466667-42.666667 67.498667V554.666667a384 384 0 1 1-768 0V291.498667A74.666667 74.666667 0 0 1 85.333333 224v-64zM192 298.666667v256a320 320 0 1 0 640 0V298.666667h-640z m-32-149.333334a10.666667 10.666667 0 0 0-10.666667 10.666667v64c0 5.888 4.778667 10.666667 10.666667 10.666667h704a10.666667 10.666667 0 0 0 10.666667-10.666667v-64a10.666667 10.666667 0 0 0-10.666667-10.666667H160z" /></svg>