<svg class="icon" style="width: 1em;height: 1em;vertical-align: middle;fill: currentColor;overflow: hidden;" viewBox="0 0 1024 1024" version="1.1" xmlns="http://www.w3.org/2000/svg"><path d="M746.666667 512a234.666667 234.666667 0 1 1 0 469.333333 234.666667 234.666667 0 0 1 0-469.333333z m0 85.333333l-3.84 0.298667a21.333333 21.333333 0 0 0-17.152 17.152L725.333333 618.666667V725.333333h-106.752l-3.84 0.384a21.333333 21.333333 0 0 0-17.152 17.152l-0.341333 3.84 0.341333 3.84a21.333333 21.333333 0 0 0 17.152 17.152l3.84 0.341334H725.333333v106.794666l0.341334 3.84a21.333333 21.333333 0 0 0 17.152 17.152l3.84 0.341334 3.84-0.341334a21.333333 21.333333 0 0 0 17.152-17.152l0.341333-3.84V768h106.837333l3.84-0.298667a21.333333 21.333333 0 0 0 17.152-17.152l0.341334-3.84-0.341334-3.84a21.333333 21.333333 0 0 0-17.194666-17.152l-3.84-0.341333H768v-106.666667l-0.341333-3.84a21.333333 21.333333 0 0 0-17.152-17.194666L746.666667 597.333333zM594.133333 106.752a96 96 0 0 1 82.773334 47.36L711.637333 213.333333h88.362667A138.666667 138.666667 0 0 1 938.666667 352v194.56a278.058667 278.058667 0 0 0-63.957334-45.952L874.666667 352a74.666667 74.666667 0 0 0-74.666667-74.666667h-106.666667a32 32 0 0 1-27.605333-15.786666l-44.032-74.965334a32 32 0 0 0-27.562667-15.786666h-162.261333a32 32 0 0 0-24.490667 11.434666l-2.773333 3.84L357.973333 262.016a32 32 0 0 1-27.264 15.274667h-106.666666A74.666667 74.666667 0 0 0 149.333333 352v405.333333c0 41.216 33.450667 74.666667 74.666667 74.666667h258.688c7.381333 22.741333 17.578667 44.245333 30.250667 64H224A138.666667 138.666667 0 0 1 85.333333 757.333333v-405.333333A138.666667 138.666667 0 0 1 224 213.333333h88.746667l37.333333-60.757333a96 96 0 0 1 81.792-45.781333h162.261333zM512 341.333333a192.085333 192.085333 0 0 1 182.741333 132.864c-21.333333 4.053333-41.813333 10.538667-61.141333 19.157334A127.957333 127.957333 0 0 0 384 533.333333c0 61.013333 42.666667 112 99.754667 124.885334a275.029333 275.029333 0 0 0-13.226667 62.634666A192.042667 192.042667 0 0 1 512 341.333333z" /></svg>