<svg class="icon" style="width: 1em;height: 1em;vertical-align: middle;fill: currentColor;overflow: hidden;" viewBox="0 0 1024 1024" version="1.1" xmlns="http://www.w3.org/2000/svg"><path d="M139.946667 94.72a32 32 0 1 0-45.226667 45.226667l81.706667 81.749333A138.709333 138.709333 0 0 0 85.333333 352v405.333333A138.666667 138.666667 0 0 0 224 896h576c15.274667 0 29.952-2.474667 43.690667-7.04l40.32 40.32a32 32 0 0 0 45.269333-45.226667L139.946667 94.72zM786.773333 832H224a74.666667 74.666667 0 0 1-74.666667-74.666667v-405.333333c0-41.216 33.450667-74.666667 74.666667-74.666667h8.106667l132.693333 132.693334a192 192 0 0 0 270.506667 270.506666l151.424 151.466667z m-376.405333-376.405333l179.413333 179.413333a128 128 0 0 1-179.456-179.456zM479.786667 344.021333l65.706666 65.749334a128.256 128.256 0 0 1 90.069334 90.026666l65.706666 65.749334a192 192 0 0 0-221.525333-221.525334zM874.666667 352v386.901333l58.197333 58.24c3.797333-12.629333 5.802667-25.984 5.802667-39.808v-405.333333A138.666667 138.666667 0 0 0 800 213.333333h-88.32l-34.773333-59.178666a96 96 0 0 0-82.773334-47.36h-162.261333a96 96 0 0 0-81.792 45.781333l-23.466667 38.229333 46.506667 46.549334 31.488-51.285334 2.773333-3.84a32 32 0 0 1 24.490667-11.434666h162.261333a32 32 0 0 1 27.562667 15.786666l44.032 74.965334c5.76 9.813333 16.256 15.786667 27.605333 15.786666h106.666667c41.216 0 74.666667 33.450667 74.666667 74.666667z" /></svg>