<svg class="icon" style="width: 1em;height: 1em;vertical-align: middle;fill: currentColor;overflow: hidden;" viewBox="0 0 1024 1024" version="1.1" xmlns="http://www.w3.org/2000/svg"><path d="M106.666667 181.333333a32 32 0 0 1 32-32h23.808c40.533333 0 64.853333 27.264 78.72 52.608 9.258667 16.896 15.957333 36.48 21.205333 54.229334A55.04 55.04 0 0 1 266.666667 256h533.248c35.413333 0 61.013333 33.877333 51.285333 67.968l-77.994667 273.450667a117.333333 117.333333 0 0 1-112.810666 85.162666H406.613333a117.333333 117.333333 0 0 1-113.152-86.272l-32.426666-118.272-53.76-181.248-0.042667-0.341333c-6.656-24.192-12.885333-46.848-22.186667-63.744C176.128 216.277333 168.96 213.333333 162.517333 213.333333H138.666667a32 32 0 0 1-32-32z m216.448 281.173334l32.042666 116.864c6.4 23.125333 27.434667 39.210667 51.456 39.210666h253.781334a53.333333 53.333333 0 0 0 51.285333-38.698666L785.792 320H280.96l41.557333 140.245333 0.597334 2.261334zM469.333333 810.666667a85.333333 85.333333 0 1 1-170.666666 0 85.333333 85.333333 0 0 1 170.666666 0z m-64 0a21.333333 21.333333 0 1 0-42.666666 0 21.333333 21.333333 0 0 0 42.666666 0zM768 810.666667a85.333333 85.333333 0 1 1-170.666667 0 85.333333 85.333333 0 0 1 170.666667 0z m-64 0a21.333333 21.333333 0 1 0-42.666667 0 21.333333 21.333333 0 0 0 42.666667 0z" /></svg>