<svg class="icon" style="width: 1em;height: 1em;vertical-align: middle;fill: currentColor;overflow: hidden;" viewBox="0 0 1024 1024" version="1.1" xmlns="http://www.w3.org/2000/svg"><path d="M85.333333 266.666667A96 96 0 0 1 181.333333 170.666667h661.333334A96 96 0 0 1 938.666667 266.666667v490.666666A96 96 0 0 1 842.666667 853.333333H181.333333A96 96 0 0 1 85.333333 757.333333V266.666667z m96-32a32 32 0 0 0-32 32v490.666666c0 17.664 14.336 32 32 32h661.333334a32 32 0 0 0 32-32V266.666667a32 32 0 0 0-32-32H181.333333zM298.496 682.453333a42.581333 42.581333 0 1 1-85.162667 0 42.581333 42.581333 0 0 1 85.162667 0zM213.162667 544a32 32 0 0 1 32-32 181.205333 181.205333 0 0 1 181.205333 181.248 32 32 0 0 1-64 0A117.205333 117.205333 0 0 0 245.162667 576a32 32 0 0 1-32-32zM213.162667 415.744a32 32 0 0 1 32-32A309.504 309.504 0 0 1 554.666667 693.248a32 32 0 0 1-64 0 245.504 245.504 0 0 0-245.504-245.504 32 32 0 0 1-32-32z" /></svg>