<svg class="icon" style="width: 1em;height: 1em;vertical-align: middle;fill: currentColor;overflow: hidden;" viewBox="0 0 1024 1024" version="1.1" xmlns="http://www.w3.org/2000/svg"><path d="M160 768.085333a32 32 0 0 1 31.701333 27.690667l0.298667 4.352v64a32 32 0 0 1-63.701333 4.352L128 864.128v-64a32 32 0 0 1 32-32z m341.333333-256a32 32 0 0 1 31.701334 27.605334l0.298666 4.352v220.16l-52.608 105.386666c-2.133333 4.266667-3.968 8.661333-5.546666 13.013334a31.829333 31.829333 0 0 1-5.546667-14.122667L469.333333 864.128v-320.085333a32 32 0 0 1 32-32z m149.888 16.170667c12.074667-24.234667 31.104-41.002667 52.778667-50.346667v-61.866666l-0.298667-4.352A32 32 0 0 0 640 416v134.656l11.221333-22.442667z m190.933334 0l32.256 64.597333-0.469334-305.152-0.341333-4.352a31.786667 31.786667 0 0 0-31.573333-27.349333 31.829333 31.829333 0 0 0-31.36 32.341333l0.341333 202.154667c12.501333 9.429333 23.253333 22.016 31.146667 37.76zM330.666667 639.914667a32 32 0 0 1 31.701333 27.648l0.298667 4.352v192a32 32 0 0 1-63.701334 4.352L298.666667 863.914667v-192a32 32 0 0 1 32-32z m358.698666-92.586667l-170.538666 341.333333A64.042667 64.042667 0 0 0 576.128 981.333333h341.077333a64.042667 64.042667 0 0 0 57.301334-92.672l-170.538667-341.333333c-23.594667-47.232-91.008-47.232-114.602667 0zM768 661.077333v128.085334a21.333333 21.333333 0 1 1-42.666667 0v-128.085334a21.333333 21.333333 0 0 1 42.666667 0z m-21.333333 234.837334a21.333333 21.333333 0 1 1 0-42.666667 21.333333 21.333333 0 0 1 0 42.666667z" /></svg>