<svg class="icon" style="width: 1em;height: 1em;vertical-align: middle;fill: currentColor;overflow: hidden;" viewBox="0 0 1024 1024" version="1.1" xmlns="http://www.w3.org/2000/svg"><path d="M160 725.333333a32 32 0 0 1 31.701333 27.648l0.298667 4.352v64a32 32 0 0 1-63.701333 4.352L128 821.333333v-64a32 32 0 0 1 32-32z m341.333333-256a32 32 0 0 1 31.701334 27.648l0.298666 4.352v320a32 32 0 0 1-63.701333 4.352L469.333333 821.333333v-320a32 32 0 0 1 32-32z m170.666667-128a32 32 0 0 1 31.701333 27.648l0.298667 4.352v448a32 32 0 0 1-63.701333 4.352L640 821.333333V373.333333a32 32 0 0 1 32-32z m170.368-128a32 32 0 0 1 32 27.306667l0.298667 4.352v576.042667a32 32 0 0 1-63.658667 4.949333L810.666667 821.674667V245.632A32 32 0 0 1 842.368 213.333333zM330.666667 597.333333a32 32 0 0 1 31.701333 27.648l0.298667 4.352v191.957334a32 32 0 0 1-63.701334 4.352L298.666667 821.248V629.333333a32 32 0 0 1 32-32z" /></svg>