<svg class="icon" style="width: 1em;height: 1em;vertical-align: middle;fill: currentColor;overflow: hidden;" viewBox="0 0 1024 1024" version="1.1" xmlns="http://www.w3.org/2000/svg"><path d="M550.229333 154.410667a32 32 0 0 1-54.485333 33.578666 27.306667 27.306667 0 0 0-7.210667-5.674666c-6.272-3.541333-19.925333-8.618667-45.44-3.925334-17.408 3.2-26.410667 14.250667-31.957333 28.458667A89.6 89.6 0 0 0 405.333333 234.666667V288a42.666667 42.666667 0 0 0 42.666667 42.666667h10.666667a42.666667 42.666667 0 0 0 41.344-32h-20.010667a32 32 0 0 1 0-64h53.333333a32 32 0 0 1 32 32v21.333333a106.666667 106.666667 0 0 1-106.666666 106.666667h-10.666667A106.666667 106.666667 0 0 1 341.333333 288V232.917333l0.170667-3.413333a153.6 153.6 0 0 1 10.026667-45.952c10.453333-26.752 33.450667-59.562667 80.042666-68.138667 38.912-7.125333 67.882667-0.341333 88.192 11.008 9.813333 5.504 17.024 11.733333 21.930667 16.938667a73.685333 73.685333 0 0 1 8.106667 10.325333l0.256 0.426667 0.085333 0.170667 0.042667 0.085333 0.042666 0.042667z m-358.528 40.362666a32 32 0 1 1-39.68-50.133333c-3.285333 2.389333 27.093333-27.306667 71.978667-27.306667 45.397333 0 74.24 30.848 82.773333 64.426667A88.234667 88.234667 0 0 1 292.778667 256c13.056 17.194667 17.92 38.186667 16.64 57.6-2.56 38.997333-31.829333 81.066667-85.418667 81.066667-22.912 0-41.386667-7.253333-54.016-14.464-12.544-7.125333-20.736-15.061333-20.138667-14.592a32 32 0 0 1 41.642667-48.554667l0.597333 0.512c3.2 2.858667 14.549333 13.098667 31.914667 13.098667 7.850667 0 12.373333-2.688 15.274667-5.802667a25.173333 25.173333 0 0 0 6.272-15.488 21.589333 21.589333 0 0 0-4.224-15.274667c-2.133333-2.56-6.613333-6.101333-17.322667-6.101333a32 32 0 1 1 0-64c11.861333 0 16.298667-4.352 18.346667-7.509333a24.405333 24.405333 0 0 0 2.432-18.944 22.613333 22.613333 0 0 0-6.954667-11.776 20.266667 20.266667 0 0 0-13.824-4.437334c-9.045333 0-16.64 2.858667-22.4 6.144a51.797333 51.797333 0 0 0-8.448 6.016l-0.725333 0.682667-0.725334 0.597333zM501.333333 512a32 32 0 0 1 31.701334 27.648l0.298666 4.352v320a32 32 0 0 1-63.701333 4.352L469.333333 864v-320a32 32 0 0 1 32-32z m170.666667-128a32 32 0 0 1 31.701333 27.648l0.298667 4.352v448a32 32 0 0 1-63.701333 4.352L640 864V416a32 32 0 0 1 32-32z m-512 384a32 32 0 0 1 31.701333 27.648l0.298667 4.352v64a32 32 0 0 1-63.701333 4.352L128 864v-64a32 32 0 0 1 32-32zM842.368 256a32 32 0 0 1 32 27.306667l0.298667 4.352v576.042666a32 32 0 0 1-63.658667 4.949334L810.666667 864.341333V288.298667A32 32 0 0 1 842.368 256zM330.666667 640a32 32 0 0 1 31.701333 27.648l0.298667 4.352v191.957333a32 32 0 0 1-63.701334 4.352L298.666667 863.914667V672a32 32 0 0 1 32-32z" /></svg>