<svg class="icon" style="width: 1em;height: 1em;vertical-align: middle;fill: currentColor;overflow: hidden;" viewBox="0 0 1024 1024" version="1.1" xmlns="http://www.w3.org/2000/svg"><path d="M160 768.170667a32 32 0 0 1 31.701333 27.648l0.298667 4.352v64a32 32 0 0 1-63.701333 4.309333L128 864.170667v-64a32 32 0 0 1 32-32z m341.333333-256a32 32 0 0 1 31.701334 27.648l0.298666 4.352v320a32 32 0 0 1-63.701333 4.309333L469.333333 864.170667v-320a32 32 0 0 1 32-32z m170.666667-128a32 32 0 0 1 31.701333 27.648l0.298667 4.352v448a32 32 0 0 1-63.701333 4.309333L640 864.170667v-448a32 32 0 0 1 32-32z m170.666667 448a32 32 0 1 1 0 64 32 32 0 0 1 0-64zM330.666667 640a32 32 0 0 1 31.701333 27.648l0.298667 4.352v191.957333a32 32 0 0 1-63.701334 4.309334L298.666667 864v-192a32 32 0 0 1 32-32z m511.317333-383.829333a31.744 31.744 0 0 1 31.573333 27.349333l0.384 4.352 0.725334 464.426667a31.829333 31.829333 0 0 1-31.317334 32.341333 31.744 31.744 0 0 1-31.573333-27.392l-0.384-4.309333L810.666667 288.426667a31.829333 31.829333 0 0 1 31.317333-32.298667z" /></svg>