<svg class="icon" style="width: 1em;height: 1em;vertical-align: middle;fill: currentColor;overflow: hidden;" viewBox="0 0 1024 1024" version="1.1" xmlns="http://www.w3.org/2000/svg"><path d="M550.229333 154.410667a32 32 0 0 1-54.485333 33.578666 27.306667 27.306667 0 0 0-7.210667-5.674666c-6.272-3.541333-19.925333-8.618667-45.44-3.925334-17.408 3.2-26.410667 14.250667-31.957333 28.458667A89.6 89.6 0 0 0 405.333333 234.666667V288a42.666667 42.666667 0 0 0 42.666667 42.666667h10.666667a42.666667 42.666667 0 0 0 41.344-32h-20.010667a32 32 0 0 1 0-64h53.333333a32 32 0 0 1 32 32v21.333333a106.666667 106.666667 0 0 1-106.666666 106.666667h-10.666667A106.666667 106.666667 0 0 1 341.333333 288V232.917333l0.170667-3.413333a153.6 153.6 0 0 1 10.026667-45.952c10.453333-26.752 33.450667-59.562667 80.042666-68.138667 38.912-7.125333 67.882667-0.341333 88.192 11.008 9.813333 5.504 17.024 11.733333 21.930667 16.938667a73.685333 73.685333 0 0 1 8.106667 10.325333l0.256 0.426667 0.085333 0.170667 0.042667 0.085333 0.042666 0.042667z m-348.501333-23.808c25.429333-30.890667 75.605333-12.885333 75.605333 27.136V277.333333h10.666667a32 32 0 0 1 0 64H277.333333v21.333334a32 32 0 1 1-64 0V341.333333H136.704c-43.306667 0-67.072-50.346667-39.552-83.754666l104.576-126.976zM213.333333 277.333333V217.173333L163.84 277.333333H213.333333z m288 234.666667a32 32 0 0 1 31.701334 27.648l0.298666 4.352v320a32 32 0 0 1-63.701333 4.352L469.333333 864v-320a32 32 0 0 1 32-32z m170.666667-128a32 32 0 0 1 31.701333 27.648l0.298667 4.352v448a32 32 0 0 1-63.701333 4.352L640 864V416a32 32 0 0 1 32-32z m-512 384a32 32 0 0 1 31.701333 27.648l0.298667 4.352v64a32 32 0 0 1-63.701333 4.352L128 864v-64a32 32 0 0 1 32-32zM842.368 256a32 32 0 0 1 32 27.306667l0.298667 4.352v576.042666a32 32 0 0 1-63.658667 4.949334L810.666667 864.341333V288.298667A32 32 0 0 1 842.368 256zM330.666667 640a32 32 0 0 1 31.701333 27.648l0.298667 4.352v191.957333a32 32 0 0 1-63.701334 4.352L298.666667 863.914667V672a32 32 0 0 1 32-32z" /></svg>