<svg class="icon" style="width: 1em;height: 1em;vertical-align: middle;fill: currentColor;overflow: hidden;" viewBox="0 0 1024 1024" version="1.1" xmlns="http://www.w3.org/2000/svg"><path d="M139.946667 94.72a32 32 0 1 0-45.226667 45.226667L469.333333 514.56v306.773333l0.298667 4.352a32 32 0 0 0 63.701333-4.352v-242.773333l106.666667 106.666667v136.106666l0.298667 4.352a32 32 0 0 0 63.701333-4.352v-72.106666l180.053333 180.053333a32 32 0 0 0 45.226667-45.226667L139.946667 94.72zM810.666667 674.901333l64 64V244.992l-0.341334-4.309333A32 32 0 0 0 810.666667 245.632v429.269333zM640 504.234667l64 64V373.333333l-0.298667-4.352A32 32 0 0 0 640 373.333333v130.901334zM160 725.333333a32 32 0 0 1 31.701333 27.648l0.298667 4.352v64a32 32 0 0 1-63.701333 4.352L128 821.333333v-64a32 32 0 0 1 32-32zM330.666667 597.333333a32 32 0 0 1 31.701333 27.648l0.298667 4.352v191.957334a32 32 0 0 1-63.701334 4.352L298.666667 821.248V629.333333a32 32 0 0 1 32-32z" /></svg>