<svg class="icon" style="width: 1em;height: 1em;vertical-align: middle;fill: currentColor;overflow: hidden;" viewBox="0 0 1024 1024" version="1.1" xmlns="http://www.w3.org/2000/svg"><path d="M896 160a32 32 0 0 1-32 32H160a32 32 0 0 1 0-64h704a32 32 0 0 1 32 32z m0 704a32 32 0 0 1-32 32H160a32 32 0 0 1 0-64h704a32 32 0 0 1 32 32zM309.333333 341.333333A96 96 0 0 0 213.333333 437.333333v149.333334A96 96 0 0 0 309.333333 682.666667h405.333334A96 96 0 0 0 810.666667 586.666667v-149.333334A96 96 0 0 0 714.666667 341.333333h-405.333334z m-32 96a32 32 0 0 1 32-32h405.333334a32 32 0 0 1 32 32v149.333334a32 32 0 0 1-32 32h-405.333334a32 32 0 0 1-32-32v-149.333334z" /></svg>