<svg class="icon" style="width: 1em;height: 1em;vertical-align: middle;fill: currentColor;overflow: hidden;" viewBox="0 0 1024 1024" version="1.1" xmlns="http://www.w3.org/2000/svg"><path d="M192 160a32 32 0 0 0-64 0v704a32 32 0 0 0 64 0V160z m640 0a32 32 0 0 1 64 0v704a32 32 0 0 1-64 0V160zM437.333333 213.333333A96 96 0 0 0 341.333333 309.333333v405.333334A96 96 0 0 0 437.333333 810.666667h149.333334A96 96 0 0 0 682.666667 714.666667v-405.333334A96 96 0 0 0 586.666667 213.333333h-149.333334zM405.333333 309.333333a32 32 0 0 1 32-32h149.333334a32 32 0 0 1 32 32v405.333334a32 32 0 0 1-32 32h-149.333334a32 32 0 0 1-32-32v-405.333334z" /></svg>