<svg class="icon" style="width: 1em;height: 1em;vertical-align: middle;fill: currentColor;overflow: hidden;" viewBox="0 0 1024 1024" version="1.1" xmlns="http://www.w3.org/2000/svg"><path d="M768 426.666667a170.666667 170.666667 0 0 1 128 283.648v196.266666a32 32 0 0 1-46.506667 28.586667l-3.84-2.346667L768 878.549333l-77.653333 54.272a32 32 0 0 1-50.005334-21.76l-0.298666-4.48v-196.352A170.666667 170.666667 0 0 1 768 426.666667z m64 328.96a170.24 170.24 0 0 1-64 12.416 170.24 170.24 0 0 1-64-12.416v89.557333l45.696-31.872a32 32 0 0 1 32.384-2.56l4.266667 2.56 45.653333 31.872V755.626667z m-10.666667-627.456a117.333333 117.333333 0 0 1 117.12 110.165333l0.213334 7.168 0.042666 223.829333a214.485333 214.485333 0 0 0-64-56.789333L874.666667 245.504a53.333333 53.333333 0 0 0-47.872-53.077333l-5.461334-0.256H202.666667a53.333333 53.333333 0 0 0-53.077334 47.872l-0.256 5.461333v405.333333c0 27.605333 20.992 50.346667 47.872 53.034667l5.461334 0.298667 380.672 0.042666 5.248 8.661334 5.717333 8.362666 3.029333 4.010667-0.042666 42.922667H202.666667a117.333333 117.333333 0 0 1-117.12-110.208L85.333333 650.837333v-405.333333a117.333333 117.333333 0 0 1 110.165334-117.12l7.168-0.213333h618.666666zM768 490.666667a106.666667 106.666667 0 1 0 0 213.376 106.666667 106.666667 0 0 0 0-213.376z m-288 42.666666a32 32 0 0 1 4.352 63.701334L480 597.333333h-192a32 32 0 0 1-4.352-63.701333l4.352-0.298667h192z m256-234.666666a32 32 0 0 1 4.352 63.701333l-4.352 0.298667H288a32 32 0 0 1-4.352-63.701334L288 298.666667h448z" /></svg>