<svg class="icon" style="width: 1em;height: 1em;vertical-align: middle;fill: currentColor;overflow: hidden;" viewBox="0 0 1024 1024" version="1.1" xmlns="http://www.w3.org/2000/svg"><path d="M746.666667 512a234.666667 234.666667 0 1 1 0 469.333333 234.666667 234.666667 0 0 1 0-469.333333z m-554.666667-112.128v357.461333a74.666667 74.666667 0 0 0 68.565333 74.410667l6.101334 0.256h216.064c7.338667 22.784 17.578667 44.288 30.250666 64.042667L266.666667 896a138.666667 138.666667 0 0 1-138.453334-130.816L128 757.333333V399.872a95.872 95.872 0 0 0 64 0z m451.968 238.677333l-2.986667 2.474667-2.432 2.986667a21.333333 21.333333 0 0 0 0 24.234666l2.474667 2.986667 75.52 75.477333-75.434667 75.349334-2.432 2.986666a21.333333 21.333333 0 0 0 0 24.234667l2.474667 2.986667 2.944 2.432a21.333333 21.333333 0 0 0 24.234667 0l2.986666-2.432 75.349334-75.392 75.52 75.477333 2.944 2.474667a21.333333 21.333333 0 0 0 24.234666 0l2.986667-2.474667 2.474667-2.986667a21.333333 21.333333 0 0 0 0-24.234666l-2.474667-2.986667-75.52-75.434667 75.605333-75.52 2.474667-2.944a21.333333 21.333333 0 0 0 0-24.277333l-2.474667-2.944-2.944-2.474667a21.333333 21.333333 0 0 0-24.277333 0l-2.944 2.474667-75.562667 75.52-75.52-75.52-2.986666-2.474667a21.333333 21.333333 0 0 0-20.992-1.834666l-3.242667 1.834666z m-97.536-83.754666c-18.176 18.944-33.706667 40.533333-45.909333 64H373.248a32 32 0 0 1-4.352-63.701334l4.352-0.298666h173.184zM757.333333 128a138.666667 138.666667 0 0 1 138.453334 130.816L896 266.666667v246.272a276.053333 276.053333 0 0 0-64-30.208V266.666667a74.666667 74.666667 0 0 0-68.522667-74.410667L757.333333 192H266.666667c-25.6 0-48.213333 12.885333-61.653334 32.554667a95.317333 95.317333 0 0 0-67.456-8.576 138.794667 138.794667 0 0 1 121.258667-87.765334L266.666667 128h490.666666z m-106.581333 277.162667a32 32 0 0 1 4.352 63.701333l-4.352 0.298667H373.248a32 32 0 0 1-4.352-63.701334l4.352-0.298666h277.504zM160 256a53.333333 53.333333 0 1 1 0 106.666667 53.333333 53.333333 0 0 1 0-106.666667z" /></svg>