<svg class="icon" style="width: 1em;height: 1em;vertical-align: middle;fill: currentColor;overflow: hidden;" viewBox="0 0 1024 1024" version="1.1" xmlns="http://www.w3.org/2000/svg"><path d="M746.666667 512a234.666667 234.666667 0 1 1 0 469.333333 234.666667 234.666667 0 0 1 0-469.333333z m-554.666667-112.128v357.461333a74.666667 74.666667 0 0 0 68.565333 74.410667l6.101334 0.256h216.064c7.338667 22.784 17.578667 44.288 30.250666 64.042667L266.666667 896a138.666667 138.666667 0 0 1-138.453334-130.816L128 757.333333V399.872a95.872 95.872 0 0 0 64 0z m597.333333 453.546667h-85.333333l0.298667 4.949333a42.666667 42.666667 0 0 0 85.034666-4.949333zM746.794667 597.333333l-7.125334 0.298667c-39.978667 3.626667-71.253333 32.597333-77.184 69.76l-0.768 6.613333-0.256 8.704v55.168l-36.522666 36.437334a21.333333 21.333333 0 0 0 11.392 36.096l3.669333 0.341333h213.333333a21.333333 21.333333 0 0 0 17.493334-33.621333l-2.389334-2.816-36.224-36.224v-57.685334L832 674.133333C828.672 630.954667 791.722667 597.333333 746.794667 597.333333z m-200.362667-42.538666c-18.176 18.944-33.706667 40.533333-45.909333 64H373.248a32 32 0 0 1-4.352-63.701334l4.352-0.298666h173.184zM757.333333 128a138.666667 138.666667 0 0 1 138.453334 130.816L896 266.666667v246.272a276.053333 276.053333 0 0 0-64-30.208V266.666667a74.666667 74.666667 0 0 0-68.522667-74.410667L757.333333 192H266.666667c-25.6 0-48.213333 12.885333-61.653334 32.554667a95.317333 95.317333 0 0 0-67.456-8.576 138.794667 138.794667 0 0 1 121.258667-87.765334L266.666667 128h490.666666z m-106.581333 277.162667a32 32 0 0 1 4.352 63.701333l-4.352 0.298667H373.248a32 32 0 0 1-4.352-63.701334l4.352-0.298666h277.504zM160 256a53.333333 53.333333 0 1 1 0 106.666667 53.333333 53.333333 0 0 1 0-106.666667z" /></svg>