<svg class="icon" style="width: 1em;height: 1em;vertical-align: middle;fill: currentColor;overflow: hidden;" viewBox="0 0 1024 1024" version="1.1" xmlns="http://www.w3.org/2000/svg"><path d="M895.786667 258.816A138.666667 138.666667 0 0 0 757.333333 128H266.666667l-7.850667 0.213333a138.794667 138.794667 0 0 0-121.258667 87.765334 96.256 96.256 0 0 1 67.456 8.533333c13.44-19.626667 36.053333-32.512 61.653334-32.512h490.666666l6.144 0.256A74.666667 74.666667 0 0 1 832 266.666667v216.021333a276.096 276.096 0 0 1 64 30.250667V266.666667l-0.213333-7.850667zM512.938667 896a276.096 276.096 0 0 1-30.250667-64H266.666667l-6.101334-0.256A74.666667 74.666667 0 0 1 192 757.333333V399.872a95.872 95.872 0 0 1-64 0v357.461333l0.213333 7.850667A138.666667 138.666667 0 0 0 266.666667 896h246.272z m-12.416-277.205333a278.144 278.144 0 0 1 45.909333-64h-173.226667l-4.266666 0.298666a32 32 0 0 0 4.266666 63.701334h127.317334z m182.229333-181.632a32 32 0 0 0-32-32H373.248l-4.352 0.298666a32 32 0 0 0 4.352 63.701334h277.504l4.352-0.298667a32 32 0 0 0 27.648-31.701333zM213.333333 309.333333a53.333333 53.333333 0 1 0-106.666666 0 53.333333 53.333333 0 0 0 106.666666 0zM746.666667 512a234.666667 234.666667 0 1 1 0 469.333333 234.666667 234.666667 0 0 1 0-469.333333z m127.872 256a21.333333 21.333333 0 0 0 0-42.666667h-256.042667a21.333333 21.333333 0 0 0 0 42.666667h256z" /></svg>