<svg class="icon" style="width: 1em;height: 1em;vertical-align: middle;fill: currentColor;overflow: hidden;" viewBox="0 0 1024 1024" version="1.1" xmlns="http://www.w3.org/2000/svg"><path d="M757.333333 128a138.666667 138.666667 0 0 1 138.453334 130.816L896 266.666667v490.666666a138.666667 138.666667 0 0 1-130.816 138.453334L757.333333 896H266.666667a138.666667 138.666667 0 0 1-138.453334-130.816L128 757.333333V399.872a95.872 95.872 0 0 0 64 0v357.461333a74.666667 74.666667 0 0 0 68.565333 74.410667l6.101334 0.256h490.666666a74.666667 74.666667 0 0 0 74.410667-68.565333l0.256-6.101334V266.666667a74.666667 74.666667 0 0 0-68.522667-74.410667L757.333333 192H266.666667c-25.6 0-48.213333 12.885333-61.653334 32.554667a95.317333 95.317333 0 0 0-67.456-8.576 138.794667 138.794667 0 0 1 121.258667-87.765334L266.666667 128h490.666666z m-192.170666 426.794667a32 32 0 0 1 4.352 63.701333l-4.352 0.298667H373.248a32 32 0 0 1-4.352-63.701334l4.352-0.298666h191.914667z m85.589333-149.632a32 32 0 0 1 4.352 63.701333l-4.352 0.298667H373.248a32 32 0 0 1-4.352-63.701334l4.352-0.298666h277.504zM160 256a53.333333 53.333333 0 1 1 0 106.666667 53.333333 53.333333 0 0 1 0-106.666667z" /></svg>