<svg class="icon" style="width: 1em;height: 1em;vertical-align: middle;fill: currentColor;overflow: hidden;" viewBox="0 0 1024 1024" version="1.1" xmlns="http://www.w3.org/2000/svg"><path d="M757.333333 128a138.666667 138.666667 0 0 1 138.453334 130.816L896 266.666667v246.272a276.096 276.096 0 0 0-64-30.250667V266.666667a74.666667 74.666667 0 0 0-68.522667-74.410667L757.333333 192H266.666667c-25.6 0-48.213333 12.885333-61.653334 32.554667a95.317333 95.317333 0 0 0-67.456-8.576 138.794667 138.794667 0 0 1 121.258667-87.765334L266.666667 128h490.666666zM482.688 832c7.381333 22.784 17.578667 44.245333 30.250667 64H266.666667a138.666667 138.666667 0 0 1-138.453334-130.816L128 757.333333V399.872a95.872 95.872 0 0 0 64 0v357.461333a74.666667 74.666667 0 0 0 68.565333 74.410667l6.101334 0.256h216.021333zM500.48 618.794667a278.144 278.144 0 0 1 45.952-64h-173.226667l-4.266666 0.298666a32 32 0 0 0 4.266666 63.701334h127.317334zM650.752 405.162667a32 32 0 0 1 4.352 63.701333l-4.352 0.298667H373.248a32 32 0 0 1-4.352-63.701334l4.352-0.298666h277.504zM160 256a53.333333 53.333333 0 1 1 0 106.666667 53.333333 53.333333 0 0 1 0-106.666667zM981.333333 746.666667a234.666667 234.666667 0 1 0-469.333333 0 234.666667 234.666667 0 0 0 469.333333 0z m-213.333333 21.333333l0.042667 106.794667a21.333333 21.333333 0 1 1-42.666667 0V768h-106.88a21.333333 21.333333 0 0 1 0-42.666667H725.333333v-106.666666a21.333333 21.333333 0 1 1 42.666667 0V725.333333h106.538667a21.333333 21.333333 0 0 1 0 42.666667H768z" /></svg>