<svg class="icon" style="width: 1em;height: 1em;vertical-align: middle;fill: currentColor;overflow: hidden;" viewBox="0 0 1024 1024" version="1.1" xmlns="http://www.w3.org/2000/svg"><path d="M128 266.666667A138.666667 138.666667 0 0 1 266.666667 128h256a138.666667 138.666667 0 0 1 138.666666 138.666667 32 32 0 0 1-64 0 74.666667 74.666667 0 0 0-74.666666-74.666667h-256A74.666667 74.666667 0 0 0 192 266.666667v256c0 41.216 33.450667 74.666667 74.666667 74.666666h249.770666a117.376 117.376 0 1 1 0 64H266.666667A138.666667 138.666667 0 0 1 128 522.666667v-256z m448 362.666666a53.333333 53.333333 0 1 0 106.666667 0 53.333333 53.333333 0 0 0-106.666667 0zM757.333333 426.666667c41.216 0 74.666667 33.450667 74.666667 74.666666v256a74.666667 74.666667 0 0 1-74.666667 74.666667h-256A74.666667 74.666667 0 0 1 426.666667 757.333333a32 32 0 0 0-64 0A138.666667 138.666667 0 0 0 501.333333 896h256A138.666667 138.666667 0 0 0 896 757.333333v-256a138.666667 138.666667 0 0 0-138.666667-138.666666h-249.770666a117.376 117.376 0 1 0 0 64h249.770666z m-362.666666-85.333334a53.333333 53.333333 0 1 1 0 106.666667 53.333333 53.333333 0 0 1 0-106.666667z" /></svg>