<svg class="icon" style="width: 1em;height: 1em;vertical-align: middle;fill: currentColor;overflow: hidden;" viewBox="0 0 1024 1024" version="1.1" xmlns="http://www.w3.org/2000/svg"><path d="M533.333333 117.333333a32 32 0 0 0-64 0V128H224A138.666667 138.666667 0 0 0 85.333333 266.666667v405.333333A138.666667 138.666667 0 0 0 224 810.666667h102.314667l-62.933334 75.52a32 32 0 0 0 49.194667 40.96L409.6 810.666667h103.594667a182.826667 182.826667 0 0 1-1.237334-21.333334V768c0-7.296 0.725333-14.421333 2.133334-21.333333h-290.133334a74.666667 74.666667 0 0 1-74.666666-74.666667v-405.333333c0-41.216 33.450667-74.666667 74.666666-74.666667h576c41.216 0 74.666667 33.450667 74.666667 74.666667v158.08A159.573333 159.573333 0 0 1 927.658667 554.666667H938.666667V266.666667A138.666667 138.666667 0 0 0 800 128H533.333333v-10.666667zM884.864 554.666667a116.906667 116.906667 0 0 0-10.197333-59.605334A117.333333 117.333333 0 1 0 884.864 554.666667z m32.469333 149.333333A64 64 0 0 1 981.333333 768v21.333333c0 84.096-79.36 170.666667-213.333333 170.666667-122.666667 0-199.509333-72.533333-211.626667-149.333333a136.96 136.96 0 0 1-1.706666-21.333334V768a63.872 63.872 0 0 1 64-64h298.666666zM256 330.666667A32 32 0 0 1 288 298.666667h170.666667a32 32 0 0 1 0 64h-170.666667A32 32 0 0 1 256 330.666667zM288 426.666667a32 32 0 0 0 0 64h277.333333a32 32 0 0 0 0-64h-277.333333zM256 586.666667a32 32 0 0 1 32-32h234.666667a32 32 0 0 1 0 64h-234.666667a32 32 0 0 1-32-32z" /></svg>