<svg class="icon" style="width: 1em;height: 1em;vertical-align: middle;fill: currentColor;overflow: hidden;" viewBox="0 0 1024 1024" version="1.1" xmlns="http://www.w3.org/2000/svg"><path d="M938.666667 512c0-235.648-191.018667-426.666667-426.666667-426.666667S85.333333 276.352 85.333333 512a424.96 424.96 0 0 0 47.573334 195.925333l-45.568 163.114667a53.333333 53.333333 0 0 0 65.706666 65.706667l163.242667-45.525334a424.96 424.96 0 0 0 229.034667 46.165334 278.101333 278.101333 0 0 1-44.842667-62.890667 360.490667 360.490667 0 0 1-164.821333-45.482667l-11.52-6.4-170.069334 47.402667 47.488-169.984-6.442666-11.52A360.874667 360.874667 0 0 1 149.333333 512a362.666667 362.666667 0 0 1 725.162667-11.52c23.04 11.989333 44.202667 27.136 62.890667 44.8 0.853333-10.965333 1.28-22.058667 1.28-33.28z m-390.954667 190.805333a85.333333 85.333333 0 0 0 61.482667-106.496l-8.448-29.312a225.28 225.28 0 0 1 63.274666-38.912l21.290667 22.357334a85.333333 85.333333 0 0 0 123.690667 0.042666l21.034666-22.101333a225.28 225.28 0 0 1 63.317334 39.296l-7.936 26.922667a85.333333 85.333333 0 0 0 61.866666 107.093333l22.997334 5.546667a244.565333 244.565333 0 0 1 0.256 77.141333l-24.917334 6.144a85.333333 85.333333 0 0 0-61.44 106.496l8.405334 29.269333c-18.730667 16.341333-40.064 29.568-63.274667 38.954667l-21.248-22.4a85.333333 85.333333 0 0 0-123.733333 0l-21.034667 22.144a225.28 225.28 0 0 1-63.317333-39.338667l7.978666-26.922666a85.333333 85.333333 0 0 0-61.866666-107.093334l-23.04-5.546666a243.968 243.968 0 0 1-0.256-77.141334l24.917333-6.144zM808.533333 746.666667c0-35.328-27.733333-64-61.866666-64-34.133333 0-61.866667 28.672-61.866667 64S712.533333 810.666667 746.666667 810.666667c34.133333 0 61.866667-28.672 61.866666-64z" /></svg>