<svg class="icon" style="width: 1em;height: 1em;vertical-align: middle;fill: currentColor;overflow: hidden;" viewBox="0 0 1024 1024" version="1.1" xmlns="http://www.w3.org/2000/svg"><path d="M347.477333 269.098667c18.517333-9.898667 38.442667-13.056 57.856-13.056 22.442667 0 48.554667 7.381333 69.632 24.618666 22.058667 18.090667 37.034667 45.824 37.034667 82.005334 0 41.6-29.397333 64.170667-45.952 76.885333l-3.626667 2.816c-18.090667 14.208-25.088 21.802667-25.088 37.632a32 32 0 0 1-64 0c0-48.384 30.336-72.874667 49.578667-87.978667 21.888-17.194667 25.088-21.034667 25.088-29.354666 0-16.938667-6.357333-26.538667-13.653333-32.469334A47.573333 47.573333 0 0 0 405.333333 320c-12.586667 0-21.248 2.090667-27.733333 5.546667-6.101333 3.242667-12.544 8.96-18.773333 20.48a32 32 0 1 1-56.32-30.506667c11.264-20.736 26.112-36.394667 44.970666-46.464zM405.333333 640a42.666667 42.666667 0 1 0 0-85.333333 42.666667 42.666667 0 0 0 0 85.333333zM405.333333 128a320 320 0 0 0-290.005333 455.381333l-30.933333 121.258667a53.333333 53.333333 0 0 0 64.170666 65.024c32-7.68 81.194667-19.498667 125.013334-29.952A320 320 0 1 0 405.333333 128z m-256 320a256 256 0 1 1 142.08 229.333333l-10.368-5.162666-11.306666 2.688-118.954667 28.458666c8.533333-33.28 19.712-77.312 29.44-115.541333l2.986667-11.776-5.546667-10.794667A254.762667 254.762667 0 0 1 149.333333 448zM618.666667 896c-84.053333 0-160.469333-32.384-217.6-85.333333h4.266666c30.634667 0 60.373333-3.797333 88.789334-10.965334 36.864 20.565333 79.36 32.298667 124.586666 32.298667 40.96 0 79.616-9.6 113.877334-26.666667l10.368-5.162666 11.306666 2.688c39.296 9.386667 83.84 18.986667 116.906667 26.026666-7.509333-32.042667-17.706667-74.922667-27.392-113.109333l-2.986667-11.776 5.546667-10.794667A254.762667 254.762667 0 0 0 874.666667 576a255.786667 255.786667 0 0 0-117.205334-215.125333 360.234667 360.234667 0 0 0-34.133333-87.338667 320.128 320.128 0 0 1 185.344 437.888c10.794667 43.008 21.76 89.6 28.672 119.594667a53.077333 53.077333 0 0 1-62.634667 64c-31.018667-6.485333-79.786667-16.896-124.288-27.306667A318.976 318.976 0 0 1 618.666667 896z" /></svg>