<svg class="icon" style="width: 1em;height: 1em;vertical-align: middle;fill: currentColor;overflow: hidden;" viewBox="0 0 1024 1024" version="1.1" xmlns="http://www.w3.org/2000/svg"><path d="M139.946667 94.72a32 32 0 1 0-45.226667 45.226667l93.781333 93.866666A424.96 424.96 0 0 0 85.333333 512a424.96 424.96 0 0 0 47.573334 195.925333l-45.568 163.114667a53.333333 53.333333 0 0 0 65.706666 65.706667l163.242667-45.525334A424.96 424.96 0 0 0 512 938.666667c106.282667 0 203.52-38.869333 278.186667-103.168l93.866666 93.781333a32 32 0 0 0 45.226667-45.226667L139.946667 94.72z m604.885333 695.381333A361.216 361.216 0 0 1 512 874.666667a360.874667 360.874667 0 0 1-176.341333-45.653334l-11.52-6.4-170.069334 47.402667 47.488-169.984-6.442666-11.52A360.874667 360.874667 0 0 1 149.333333 512c0-88.618667 31.786667-169.813333 84.608-232.832l128.170667 128.213333A32 32 0 0 0 373.333333 469.333333h50.773334l85.333333 85.333334H373.333333l-4.352 0.298666A32 32 0 0 0 373.333333 618.666667h191.914667l4.352-0.298667a32.426667 32.426667 0 0 0 2.986667-0.554667l172.245333 172.288zM650.88 405.333333h-109.781333l64 64h45.738666l4.352-0.298666a32 32 0 0 0-4.309333-63.701334zM874.666667 512c0 65.28-17.237333 126.549333-47.445334 179.456l46.677334 46.677333A424.661333 424.661333 0 0 0 938.666667 512c0-235.648-191.018667-426.666667-426.666667-426.666667a424.661333 424.661333 0 0 0-226.133333 64.768l46.677333 46.677334A362.666667 362.666667 0 0 1 874.666667 512z" /></svg>