<svg class="icon" style="width: 1em;height: 1em;vertical-align: middle;fill: currentColor;overflow: hidden;" viewBox="0 0 1024 1024" version="1.1" xmlns="http://www.w3.org/2000/svg"><path d="M512 341.333333a85.333333 85.333333 0 0 1 85.333333 85.333334v170.666666a85.333333 85.333333 0 0 1-85.333333 85.333334H384a85.333333 85.333333 0 0 1-85.333333-85.333334v-170.666666a85.333333 85.333333 0 0 1 85.333333-85.333334h128z m128 220.245334v-99.157334l73.984-70.058666A32 32 0 0 1 768 415.616v192.768a32 32 0 0 1-54.016 23.253333L640 561.578667zM938.666667 512c0-235.648-191.018667-426.666667-426.666667-426.666667S85.333333 276.352 85.333333 512a424.96 424.96 0 0 0 47.573334 195.925333l-45.568 163.114667a53.333333 53.333333 0 0 0 65.706666 65.706667l163.242667-45.525334A424.96 424.96 0 0 0 512 938.666667c235.648 0 426.666667-191.018667 426.666667-426.666667zM149.333333 512a362.666667 362.666667 0 1 1 186.325334 317.013333l-11.52-6.4-170.069334 47.402667 47.488-169.984-6.442666-11.52A360.874667 360.874667 0 0 1 149.333333 512z" /></svg>