<svg class="icon" style="width: 1em;height: 1em;vertical-align: middle;fill: currentColor;overflow: hidden;" viewBox="0 0 1024 1024" version="1.1" xmlns="http://www.w3.org/2000/svg"><path d="M512 85.333333c235.648 0 426.666667 191.018667 426.666667 426.666667s-191.018667 426.666667-426.666667 426.666667a424.96 424.96 0 0 1-195.712-47.445334l-163.242667 45.525334a53.333333 53.333333 0 0 1-65.706666-65.706667l45.568-163.114667A424.96 424.96 0 0 1 85.333333 512C85.333333 276.352 276.352 85.333333 512 85.333333z m0 64A362.666667 362.666667 0 0 0 149.333333 512c0 62.72 15.914667 123.008 45.781334 176.512l6.4 11.52-47.445334 169.984 170.112-47.445333 11.52 6.4A362.666667 362.666667 0 1 0 512 149.333333z m0 512a42.666667 42.666667 0 1 1 0 85.333334 42.666667 42.666667 0 0 1 0-85.333334z m0-373.333333a117.333333 117.333333 0 0 1 117.333333 117.333333c0 43.093333-12.672 67.157333-44.842666 100.650667l-7.210667 7.296c-26.538667 26.538667-33.28 37.802667-33.28 62.72a32 32 0 0 1-64 0c0-43.093333 12.672-67.157333 44.842667-100.650667l7.210666-7.296c26.538667-26.538667 33.28-37.802667 33.28-62.72a53.333333 53.333333 0 0 0-106.368-5.461333l-0.298666 5.461333a32 32 0 0 1-64 0A117.333333 117.333333 0 0 1 512 288z" /></svg>