<svg class="icon" style="width: 1em;height: 1em;vertical-align: middle;fill: currentColor;overflow: hidden;" viewBox="0 0 1024 1024" version="1.1" xmlns="http://www.w3.org/2000/svg"><path d="M407.978667 128a320 320 0 0 0-290.048 455.381333l-30.890667 121.258667a53.333333 53.333333 0 0 0 64.170667 65.024c32-7.68 81.194667-19.498667 125.013333-29.952A320 320 0 1 0 407.936 128z m-256 320a256 256 0 1 1 142.08 229.333333l-10.410667-5.162666-11.264 2.688c-39.381333 9.386667-84.906667 20.266667-118.954667 28.458666l29.44-115.541333 2.986667-11.776-5.546667-10.794667a254.762667 254.762667 0 0 1-28.330666-117.205333z m469.333333 448c-84.053333 0-160.512-32.384-217.6-85.333333h4.266667c30.634667 0 60.373333-3.797333 88.746666-10.965334 36.906667 20.565333 79.36 32.298667 124.586667 32.298667 40.96 0 79.616-9.6 113.92-26.666667l10.368-5.162666 11.264 2.688c39.338667 9.386667 83.882667 18.986667 116.906667 26.026666-7.466667-32.042667-17.664-74.922667-27.392-113.109333l-2.986667-11.776 5.546667-10.794667a254.762667 254.762667 0 0 0 28.373333-117.205333 255.786667 255.786667 0 0 0-117.205333-215.125333 360.106667 360.106667 0 0 0-34.133334-87.338667 320.128 320.128 0 0 1 185.344 437.888c10.794667 43.008 21.717333 89.6 28.629334 119.594667a53.077333 53.077333 0 0 1-62.592 64 5658.453333 5658.453333 0 0 1-124.288-27.306667 318.976 318.976 0 0 1-131.754667 28.288z" /></svg>