<svg class="icon" style="width: 1em;height: 1em;vertical-align: middle;fill: currentColor;overflow: hidden;" viewBox="0 0 1024 1024" version="1.1" xmlns="http://www.w3.org/2000/svg"><path d="M736 85.333333A117.333333 117.333333 0 0 1 853.333333 202.666667v287.914666a275.285333 275.285333 0 0 0-64-18.005333V202.666667c0-29.44-23.893333-53.333333-53.333333-53.333334H202.666667c-29.44 0-53.333333 23.893333-53.333334 53.333334v533.333333c0 29.44 23.893333 53.333333 53.333334 53.333333h269.909333c3.456 22.314667 9.557333 43.776 18.005333 64H202.666667A117.333333 117.333333 0 0 1 85.333333 736V202.666667A117.333333 117.333333 0 0 1 202.666667 85.333333h533.333333zM384 573.44l276.053333-276.053333a32 32 0 0 1 48.341334 41.642666l-3.114667 3.584-298.666667 298.666667a32 32 0 0 1-41.642666 3.114667l-3.584-3.114667-128-128a32 32 0 0 1 41.642666-48.341333l3.584 3.114666L384 573.44z m597.333333 173.226667a234.666667 234.666667 0 1 1-469.333333 0 234.666667 234.666667 0 0 1 469.333333 0z m-362.666666-21.333334a21.333333 21.333333 0 0 0 0 42.666667h204.501333l-70.272 70.229333a21.333333 21.333333 0 0 0 30.208 30.208l106.666667-106.666666a21.333333 21.333333 0 0 0 0-30.208l-106.666667-106.666667a21.333333 21.333333 0 0 0-30.208 30.208L823.168 725.333333H618.666667z" /></svg>