<svg class="icon" style="width: 1em;height: 1em;vertical-align: middle;fill: currentColor;overflow: hidden;" viewBox="0 0 1024 1024" version="1.1" xmlns="http://www.w3.org/2000/svg"><path d="M736 85.333333A117.333333 117.333333 0 0 1 853.333333 202.666667v374.101333a74.581333 74.581333 0 0 0-35.968 15.573333l-28.032 22.442667V202.666667c0-29.44-23.893333-53.333333-53.333333-53.333334H202.666667c-29.44 0-53.333333 23.893333-53.333334 53.333334v533.333333c0 29.44 23.893333 53.333333 53.333334 53.333333h502.4c22.485333 22.058667 56.32 27.434667 84.266666 14.165334v37.034666c-16 8.192-34.133333 12.8-53.333333 12.8H202.666667A117.333333 117.333333 0 0 1 85.333333 736V202.666667A117.333333 117.333333 0 0 1 202.666667 85.333333h533.333333z m108.032 540.330667A32 32 0 0 1 896 650.666667v256a32 32 0 0 1-64 0v-189.44l-54.698667 43.776a32 32 0 0 1-39.936-50.005334l106.666667-85.333333zM384 573.44l276.053333-276.053333a32 32 0 0 1 48.341334 41.685333l-3.114667 3.584-298.666667 298.666667a32 32 0 0 1-41.642666 3.114666l-3.584-3.114666-128-128a32 32 0 0 1 41.642666-48.341334l3.584 3.114667L384 573.44z" /></svg>