<svg class="icon" style="width: 1em;height: 1em;vertical-align: middle;fill: currentColor;overflow: hidden;" viewBox="0 0 1024 1024" version="1.1" xmlns="http://www.w3.org/2000/svg"><path d="M736 85.333333A117.333333 117.333333 0 0 1 853.333333 202.666667v315.904a127.872 127.872 0 0 0-64-5.504V202.666667c0-29.44-23.893333-53.333333-53.333333-53.333334H202.666667c-29.44 0-53.333333 23.893333-53.333334 53.333334v533.333333c0 29.44 23.893333 53.333333 53.333334 53.333333h403.2c-5.461333 12.885333-8.533333 27.050667-8.533334 41.984 0 7.466667 0.426667 14.848 1.152 22.016H202.666667A117.333333 117.333333 0 0 1 85.333333 736V202.666667A117.333333 117.333333 0 0 1 202.666667 85.333333h533.333333zM810.666667 553.984l0 0z m106.666666 213.333333a64 64 0 0 1 64 64c0 47.616-19.584 85.76-51.712 111.530667-31.616 25.386667-74.026667 37.802667-118.954666 37.802667-44.928 0-87.338667-12.373333-118.954667-37.802667A135.978667 135.978667 0 0 1 641.450667 853.333333a163.498667 163.498667 0 0 1-1.450667-22.016 63.872 63.872 0 0 1 64-64h213.333333zM384 573.397333l276.053333-276.053333a32 32 0 0 1 48.341334 41.685333l-3.114667 3.584-298.666667 298.666667a32 32 0 0 1-41.642666 3.114667l-3.584-3.114667-128-128a32 32 0 0 1 41.642666-48.341333l3.584 3.114666L384 573.44z" /></svg>