<svg class="icon" style="width: 1em;height: 1em;vertical-align: middle;fill: currentColor;overflow: hidden;" viewBox="0 0 1024 1024" version="1.1" xmlns="http://www.w3.org/2000/svg"><path d="M288 256a32 32 0 0 0-32 32v448c0 17.664 14.336 32 32 32h448a32 32 0 0 0 32-32V288a32 32 0 0 0-32-32H288z m490.666667-128H245.333333A117.333333 117.333333 0 0 0 128 245.333333v533.333334A117.333333 117.333333 0 0 0 245.333333 896h533.333334A117.333333 117.333333 0 0 0 896 778.666667V245.333333A117.333333 117.333333 0 0 0 778.666667 128zM192 245.333333c0-29.44 23.893333-53.333333 53.333333-53.333333h533.333334c29.44 0 53.333333 23.893333 53.333333 53.333333v533.333334c0 29.44-23.893333 53.333333-53.333333 53.333333H245.333333c-29.44 0-53.333333-23.893333-53.333333-53.333333V245.333333z" /></svg>