<svg class="icon" style="width: 1em;height: 1em;vertical-align: middle;fill: currentColor;overflow: hidden;" viewBox="0 0 1024 1024" version="1.1" xmlns="http://www.w3.org/2000/svg"><path d="M929.28 246.613333a32 32 0 0 0-45.226667-45.226666l-320 320a32 32 0 1 0 45.226667 45.226666l320-320z m7.125333 53.248c1.493333 7.210667 2.261333 14.634667 2.261334 22.272v294.4A108.8 108.8 0 0 1 829.866667 725.333333H194.133333A108.8 108.8 0 0 1 85.333333 616.533333v-294.4A108.8 108.8 0 0 1 194.133333 213.333333h617.6l-64 64H194.133333c-24.746667 0-44.8 20.053333-44.8 44.8v294.4c0 24.746667 20.053333 44.8 44.8 44.8h635.733334c24.746667 0 44.8-20.053333 44.8-44.8V361.6l61.738666-61.738667zM192 394.666667a32 32 0 0 1 32-32h85.333333a32 32 0 0 1 0 64h-85.333333a32 32 0 0 1-32-32z m0 149.333333a32 32 0 0 1 32-32h213.333333a32 32 0 0 1 0 64h-213.333333a32 32 0 0 1-32-32z" /></svg>