<svg class="icon" style="width: 1em;height: 1em;vertical-align: middle;fill: currentColor;overflow: hidden;" viewBox="0 0 1024 1024" version="1.1" xmlns="http://www.w3.org/2000/svg"><path d="M419.669333 86.784c4.778667 1.621333 9.472 3.584 14.037334 5.802667l54.741333 26.965333a53.333333 53.333333 0 0 0 47.104 0l54.741333-26.965333a117.333333 117.333333 0 0 1 157.056 53.461333l3.157334 6.912 2.688 7.125333 19.626666 57.728c5.333333 15.701333 17.664 27.989333 33.322667 33.322667l57.770667 19.626667a117.333333 117.333333 0 0 1 67.456 162.944l-26.922667 54.741333a53.333333 53.333333 0 0 0 0 47.104l26.922667 54.741333a117.333333 117.333333 0 0 1-67.456 162.901334l-57.770667 19.626666a53.333333 53.333333 0 0 0-33.28 33.322667l-19.669333 57.770667a117.333333 117.333333 0 0 1-162.901334 67.456l-54.741333-26.922667a53.333333 53.333333 0 0 0-47.104 0l-54.741333 26.922667a117.333333 117.333333 0 0 1-162.901334-67.456l-19.626666-57.770667a53.333333 53.333333 0 0 0-33.365334-33.28l-57.728-19.669333a117.333333 117.333333 0 0 1-67.498666-162.901334l26.965333-54.741333a53.333333 53.333333 0 0 0 0-47.104l-26.965333-54.741333a117.333333 117.333333 0 0 1 67.498666-162.901334l57.728-19.626666a53.333333 53.333333 0 0 0 33.322667-33.365334l19.626667-57.728a117.333333 117.333333 0 0 1 148.906666-73.301333z m-88.32 93.866667l-19.626666 57.770666a117.333333 117.333333 0 0 1-73.301334 73.301334l-57.728 19.626666a53.376 53.376 0 0 0-30.677333 74.069334l26.965333 54.741333a117.333333 117.333333 0 0 1 0 103.68l-26.965333 54.698667a53.333333 53.333333 0 0 0 30.677333 74.069333l57.728 19.626667a117.333333 117.333333 0 0 1 73.301334 73.301333l19.626666 57.770667a53.248 53.248 0 0 0 74.069334 30.677333l54.741333-26.965333a117.333333 117.333333 0 0 1 103.68 0l54.698667 26.965333a53.333333 53.333333 0 0 0 74.069333-30.677333l19.626667-57.770667a117.333333 117.333333 0 0 1 73.301333-73.301333l57.770667-19.626667a53.333333 53.333333 0 0 0 30.677333-74.069333l-26.965333-54.741334a117.333333 117.333333 0 0 1 0-103.637333l26.965333-54.741333a53.333333 53.333333 0 0 0-30.677333-74.069334l-57.770667-19.626666a117.333333 117.333333 0 0 1-73.301333-73.301334l-19.626667-57.728-1.237333-3.242666-1.408-3.157334-2.645334-4.736a53.333333 53.333333 0 0 0-68.778666-19.541333l-54.741334 26.965333a117.333333 117.333333 0 0 1-103.637333 0l-54.741333-26.965333a53.333333 53.333333 0 0 0-74.026667 30.677333zM428.8 613.973333l231.253333-231.253333a32 32 0 0 1 48.341334 41.685333l-3.114667 3.584-256 256a32 32 0 0 1-43.989333 1.194667l-3.2-3.328-106.666667-128a32 32 0 0 1 45.866667-44.373333l3.285333 3.413333 84.224 101.077333 231.253333-231.253333-231.253333 231.253333z" /></svg>