<svg class="icon" style="width: 1em;height: 1em;vertical-align: middle;fill: currentColor;overflow: hidden;" viewBox="0 0 1024 1024" version="1.1" xmlns="http://www.w3.org/2000/svg"><path d="M736 85.333333A117.333333 117.333333 0 0 1 853.333333 202.666667v347.861333l-11.093333-22.186667a104.96 104.96 0 0 0-52.906667-50.346666V202.666667c0-29.44-23.893333-53.333333-53.333333-53.333334H202.666667c-29.44 0-53.333333 23.893333-53.333334 53.333334v533.333333c0 29.44 23.893333 53.333333 53.333334 53.333333h318.293333l-32 64H202.666667A117.333333 117.333333 0 0 1 85.333333 736V202.666667A117.333333 117.333333 0 0 1 202.666667 85.333333h533.333333zM384 573.44l276.053333-276.053333a32 32 0 0 1 48.341334 41.642666l-3.114667 3.584-298.666667 298.666667a32 32 0 0 1-41.642666 3.114667l-3.584-3.114667-128-128a32 32 0 0 1 41.642666-48.341333l3.584 3.114666L384 573.44z m305.536-26.026667l-170.538667 341.248A64 64 0 0 0 576.298667 981.333333h341.077333a64 64 0 0 0 57.301333-92.672l-170.538666-341.248c-23.594667-47.232-91.008-47.232-114.602667 0z m78.634667 113.749334v128.042666a21.333333 21.333333 0 0 1-42.666667 0v-128.042666a21.333333 21.333333 0 0 1 42.666667 0z m-21.333334 234.794666a21.333333 21.333333 0 1 1 0-42.709333 21.333333 21.333333 0 0 1 0 42.666667z" /></svg>