<svg class="icon" style="width: 1em;height: 1em;vertical-align: middle;fill: currentColor;overflow: hidden;" viewBox="0 0 1024 1024" version="1.1" xmlns="http://www.w3.org/2000/svg"><path d="M512 85.333333c235.648 0 426.666667 191.018667 426.666667 426.666667 0 18.218667-1.152 36.138667-3.328 53.76a149.504 149.504 0 0 0-62.72-92.373333A362.709333 362.709333 0 0 0 149.333333 512a362.666667 362.666667 0 0 0 405.333334 360.192V917.333333c0 6.485333 0.597333 12.885333 1.706666 19.072A431.786667 431.786667 0 0 1 512 938.666667C276.352 938.666667 85.333333 747.648 85.333333 512S276.352 85.333333 512 85.333333z m362.112 447.232A106.666667 106.666667 0 0 0 682.666667 597.333333v42.666667h-21.333334a64 64 0 0 0-64 64v213.333333a64 64 0 0 0 64 64h256a64 64 0 0 0 64-64v-213.333333a64 64 0 0 0-64-64H896v-42.666667a106.24 106.24 0 0 0-21.888-64.768z m-101.546667 317.354667a42.666667 42.666667 0 1 1 33.578667-78.506667 42.666667 42.666667 0 0 1-33.578667 78.506667zM746.666667 597.333333a42.666667 42.666667 0 1 1 85.333333 0v42.666667h-85.333333v-42.666667z m-288-23.893333l190.72-190.72a32 32 0 0 1 48.341333 41.642667l-3.114667 3.584-213.333333 213.333333a32 32 0 0 1-41.642667 3.114667l-3.584-3.114667-106.666666-106.666667a32 32 0 0 1 41.642666-48.341333l3.584 3.114667 84.053334 84.053333z" /></svg>