<svg class="icon" style="width: 1em;height: 1em;vertical-align: middle;fill: currentColor;overflow: hidden;" viewBox="0 0 1024 1024" version="1.1" xmlns="http://www.w3.org/2000/svg"><path d="M736 85.333333A117.333333 117.333333 0 0 1 853.333333 202.666667v374.826666a157.44 157.44 0 0 0-64 4.352V202.666667c0-29.44-23.893333-53.333333-53.333333-53.333334H202.666667c-29.44 0-53.333333 23.893333-53.333334 53.333334v533.333333c0 29.44 23.893333 53.333333 53.333334 53.333333h533.333333l3.84-0.128c-15.36 16.597333-29.781333 37.546667-38.4 64.128H202.666667A117.333333 117.333333 0 0 1 85.333333 736V202.666667A117.333333 117.333333 0 0 1 202.666667 85.333333h533.333333zM384 573.44l276.053333-276.053333a32 32 0 0 1 48.341334 41.642666l-3.114667 3.584-298.666667 298.666667a32 32 0 0 1-41.642666 3.114667l-3.584-3.114667-128-128a32 32 0 0 1 41.642666-48.341333l3.584 3.114666L384 573.44z m407.808 126.72c11.818667-13.184 32.469333-19.882667 48.426667-16.725333a26.069333 26.069333 0 0 1 16.085333 9.173333c3.626667 4.608 7.68 13.141333 7.68 28.885333 0 23.466667-15.018667 35.456-50.773333 61.312-31.573333 22.826667-77.226667 56.32-77.226667 123.861334 0 17.664 14.336 32 32 32h128a32 32 0 0 0 0-64h-87.765333c8.32-14.122667 22.826667-25.770667 42.538666-40.021334l5.546667-4.010666c28.714667-20.437333 71.68-51.114667 71.68-109.141334 0-27.050667-7.168-50.517333-21.546667-68.650666a89.984 89.984 0 0 0-53.888-32.213334c-38.442667-7.552-81.792 7.125333-108.373333 36.693334a32 32 0 0 0 47.616 42.794666z" /></svg>