<svg class="icon" style="width: 1em;height: 1em;vertical-align: middle;fill: currentColor;overflow: hidden;" viewBox="0 0 1024 1024" version="1.1" xmlns="http://www.w3.org/2000/svg"><path d="M512 85.333333c235.648 0 426.666667 191.018667 426.666667 426.666667s-191.018667 426.666667-426.666667 426.666667S85.333333 747.648 85.333333 512 276.352 85.333333 512 85.333333z m0 64a362.666667 362.666667 0 1 0 0 725.333334 362.666667 362.666667 0 0 0 0-725.333334zM318.72 425.386667a32 32 0 0 1 45.226667 0L512 573.44l148.053333-148.053333a32 32 0 1 1 45.226667 45.226666l-170.666667 170.666667a32 32 0 0 1-45.226666 0l-170.666667-170.666667a32 32 0 0 1 0-45.226666z" /></svg>