<svg class="icon" style="width: 1em;height: 1em;vertical-align: middle;fill: currentColor;overflow: hidden;" viewBox="0 0 1024 1024" version="1.1" xmlns="http://www.w3.org/2000/svg"><path d="M535.04 95.146667a32 32 0 0 0-46.08 0l-266.666667 277.333333a32 32 0 1 0 46.08 44.373333L512 163.498667l243.626667 253.354666a32 32 0 1 0 46.08-44.373333l-266.666667-277.333333z m0 833.706666a32 32 0 0 1-46.08 0l-266.666667-277.333333a32 32 0 1 1 46.08-44.373333L512 860.501333l243.626667-253.354666a32 32 0 1 1 46.08 44.373333l-266.666667 277.333333z" /></svg>