<svg class="icon" style="width: 1em;height: 1em;vertical-align: middle;fill: currentColor;overflow: hidden;" viewBox="0 0 1024 1024" version="1.1" xmlns="http://www.w3.org/2000/svg"><path d="M85.333333 512C85.333333 276.352 276.352 85.333333 512 85.333333s426.666667 191.018667 426.666667 426.666667-191.018667 426.666667-426.666667 426.666667S85.333333 747.648 85.333333 512z m64 0a362.666667 362.666667 0 1 0 725.333334 0 362.666667 362.666667 0 0 0-725.333334 0z m276.053334 193.28a32 32 0 0 1 0-45.226667L573.44 512 425.386667 363.946667a32 32 0 0 1 45.226666-45.226667l170.666667 170.666667a32 32 0 0 1 0 45.226666l-170.666667 170.666667a32 32 0 0 1-45.226666 0z" /></svg>