<svg class="icon" style="width: 1em;height: 1em;vertical-align: middle;fill: currentColor;overflow: hidden;" viewBox="0 0 1024 1024" version="1.1" xmlns="http://www.w3.org/2000/svg"><path d="M512 149.333333a362.666667 362.666667 0 0 0-30.08 724.096l-9.984 39.936a90.325333 90.325333 0 0 0-2.730667 23.168C253.653333 915.072 85.333333 733.184 85.333333 512 85.333333 276.352 276.352 85.333333 512 85.333333c224.853333 0 409.130667 173.952 425.472 394.666667a140.501333 140.501333 0 0 0-53.632-10.666667h-0.085333c-3.84 0-7.68 0.170667-11.52 0.469334A362.709333 362.709333 0 0 0 512 149.333333z m371.84 362.666667h-0.085333c-24.96 0-49.92 9.514667-68.906667 28.586667l-251.818667 251.818666a114.517333 114.517333 0 0 0-30.165333 53.205334l-19.541333 78.122666a46.378667 46.378667 0 0 0 56.277333 56.234667l78.08-19.498667a114.517333 114.517333 0 0 0 53.248-30.165333l251.818667-251.818667A97.493333 97.493333 0 0 0 883.84 512z" /></svg>