<svg class="icon" style="width: 1em;height: 1em;vertical-align: middle;fill: currentColor;overflow: hidden;" viewBox="0 0 1024 1024" version="1.1" xmlns="http://www.w3.org/2000/svg"><path d="M512 85.205333a32 32 0 0 1 32 32V170.666667h85.333333c41.216 0 74.666667 33.450667 74.666667 74.666666V469.333333h96c41.216 0 74.666667 33.450667 74.666667 74.666667v320A74.666667 74.666667 0 0 1 800 938.666667H224a74.666667 74.666667 0 0 1-74.666667-74.666667v-359.637333c0-26.410667 13.952-50.858667 36.693334-64.298667L320 360.96V245.333333C320 204.117333 353.450667 170.666667 394.666667 170.666667h85.333333V117.205333a32 32 0 0 1 32-32zM384 342.186667c34.56 5.12 64 34.389333 64 73.984V874.666667h128v-330.666667a74.666667 74.666667 0 0 1 64-73.898667V245.333333a10.666667 10.666667 0 0 0-10.666667-10.666666h-234.666666a10.666667 10.666667 0 0 0-10.666667 10.666666V342.186667z m266.666667 191.189333a10.666667 10.666667 0 0 0-10.666667 10.666667v330.666666h160a10.666667 10.666667 0 0 0 10.666667-10.666666v-320a10.666667 10.666667 0 0 0-10.666667-10.666667h-149.333333zM367.914667 406.954667l-149.333334 88.234666A10.666667 10.666667 0 0 0 213.333333 504.32v359.68c0 5.845333 4.778667 10.666667 10.666667 10.666667H384V416.085333a10.666667 10.666667 0 0 0-16.085333-9.173333z" /></svg>