<svg class="icon" style="width: 1em;height: 1em;vertical-align: middle;fill: currentColor;overflow: hidden;" viewBox="0 0 1024 1024" version="1.1" xmlns="http://www.w3.org/2000/svg"><path d="M384.768 256L321.152 320.170667l-139.818667 0.042666a32 32 0 0 0-32 32V842.666667c0 17.664 14.336 32 32 32h490.666667a32 32 0 0 0 32-32l-0.085333-139.904L768 639.146667v203.52A96 96 0 0 1 672 938.666667H181.333333A96 96 0 0 1 85.333333 842.666667V352.170667a96 96 0 0 1 96-96l203.434667-0.128zM222.72 521.386667l85.290667-85.248a32 32 0 0 1 41.642666-3.114667l3.584 3.114667 234.709334 234.538666a32 32 0 0 1 3.114666 41.685334l-3.114666 3.584-85.333334 85.333333a32 32 0 0 1-41.642666 3.114667l-3.584-3.114667-234.666667-234.666667a32 32 0 0 1-3.114667-41.685333l3.114667-3.584 85.290667-85.205333-85.333334 85.205333z m107.904-17.365334l-40.021333 39.978667 189.397333 189.44 40.106667-40.106667-189.482667-189.312z m577.28-388.053333a110.08 110.08 0 0 1-19.925333 171.349333l-6.272 3.626667-49.834667 26.368 22.016 21.973333a138.666667 138.666667 0 0 1 5.76 189.952l-5.76 6.144-52.608 52.565334a32 32 0 0 1-41.642667 3.114666l-3.584-3.114666-20.053333-20.053334-62.72 62.72a32 32 0 0 1-41.642667 3.114667l-3.584-3.114667-234.666666-234.666666a32 32 0 0 1-3.114667-41.685334l3.114667-3.584 62.677333-62.72-20.053333-20.010666a32 32 0 0 1-3.072-41.685334l3.114666-3.584 52.522667-52.48a138.837333 138.837333 0 0 1 189.952-5.76l6.144 5.76 21.930667 21.930667 26.368-49.792c3.84-7.253333 8.490667-14.08 13.824-20.266667l5.546666-6.016a109.994667 109.994667 0 0 1 155.605334-0.085333z m-406.613333 217.386667l-40.021334 39.978666 189.397334 189.44 40.106666-40.106666-189.482666-189.312z m37.845333-122.709334l-5.333333 4.821334-29.866667 29.866666 274.730667 274.773334 29.952-29.994667a74.666667 74.666667 0 0 0 0.768-104.832l-169.898667-169.813333a74.837333 74.837333 0 0 0-100.352-4.821334z m258.517333-49.365333c-2.133333 2.133333-4.096 4.522667-5.802666 7.082667l-2.304 3.925333-35.541334 67.114667 30.549334 30.592 67.2-35.626667a45.952 45.952 0 1 0-54.101334-73.088z" /></svg>