<svg class="icon" style="width: 1em;height: 1em;vertical-align: middle;fill: currentColor;overflow: hidden;" viewBox="0 0 1024 1024" version="1.1" xmlns="http://www.w3.org/2000/svg"><path d="M736 85.333333A117.333333 117.333333 0 0 1 853.333333 202.666667V821.333333a117.333333 117.333333 0 0 1-117.333333 117.333334H288A117.333333 117.333333 0 0 1 170.666667 821.290667V202.666667c0-53.76 36.096-98.986667 85.333333-112.938667V160c-12.970667 9.728-21.333333 25.173333-21.333333 42.666667v618.581333c0 29.44 23.893333 53.333333 53.333333 53.333333h448c29.44 0 53.333333-23.893333 53.333333-53.333333V202.666667c0-29.44-23.893333-53.333333-53.333333-53.333334L640 149.333333V85.333333h96zM597.333333 85.333333v347.264c0 31.872-34.133333 43.818667-55.04 32.597334l-3.498666-2.218667-90.709334-54.826667-88.661333 53.376c-21.333333 15.36-56.746667 5.973333-60.458667-23.808L298.666667 432.64V85.333333h298.666666z m-64 64h-170.666666v235.648l67.114666-40.490666a39.381333 39.381333 0 0 1 34.901334-1.024l68.693333 41.557333V149.333333z" /></svg>