<svg class="icon" style="width: 1em;height: 1em;vertical-align: middle;fill: currentColor;overflow: hidden;" viewBox="0 0 1024 1024" version="1.1" xmlns="http://www.w3.org/2000/svg"><path d="M746.666667 512a234.666667 234.666667 0 1 1 0 469.333333 234.666667 234.666667 0 0 1 0-469.333333z m-263.936 320c7.338667 22.784 17.578667 44.288 30.250666 64.042667L117.333333 896a32 32 0 0 1-4.352-63.701333l4.352-0.298667h365.397334z m161.237333-193.450667l-2.986667 2.474667-2.432 2.986667a21.333333 21.333333 0 0 0 0 24.234666l2.474667 2.986667 75.52 75.477333-75.434667 75.349334-2.432 2.986666a21.333333 21.333333 0 0 0 0 24.234667l2.432 2.986667 2.986667 2.432a21.333333 21.333333 0 0 0 24.234667 0l2.986666-2.432 75.349334-75.392 75.52 75.477333 2.944 2.474667a21.333333 21.333333 0 0 0 24.234666 0l2.986667-2.474667 2.432-2.986667a21.333333 21.333333 0 0 0 0-24.234666l-2.432-2.986667-75.52-75.434667 75.605333-75.52 2.474667-2.944a21.333333 21.333333 0 0 0 0-24.277333l-2.474667-2.944-2.944-2.474667a21.333333 21.333333 0 0 0-24.277333 0l-2.944 2.474667-75.605333 75.52-75.52-75.52-2.901334-2.474667a21.333333 21.333333 0 0 0-21.034666-1.834666l-3.242667 1.834666zM672 149.333333a32 32 0 0 1 32 33.024l-0.426667 4.138667-10.453333 64a32 32 0 0 1-63.573333-5.973333l0.426666-4.352 4.352-26.837334h-164.693333L384.042667 704h31.957333a32 32 0 0 1 31.701333 27.648l0.298667 4.352a32 32 0 0 1-27.648 31.701333L416 768h-128a32 32 0 0 1-4.352-63.701333l4.352-0.298667h31.104L404.693333 213.333333h-174.933333l-6.229333 37.290667a32 32 0 0 1-63.573334-6.229333l0.426667-4.352 10.709333-64a32 32 0 0 1 26.965334-26.368L202.666667 149.333333h469.333333z" /></svg>