<svg class="icon" style="width: 1em;height: 1em;vertical-align: middle;fill: currentColor;overflow: hidden;" viewBox="0 0 1024 1024" version="1.1" xmlns="http://www.w3.org/2000/svg"><path d="M586.794667 85.333333c49.408 0 90.026667 37.333333 95.317333 85.333334h75.221333a96 96 0 0 1 95.786667 89.429333L853.333333 266.666667v63.872a32 32 0 0 1-63.701333 4.352l-0.298667-4.352V266.666667a32 32 0 0 0-27.648-31.701334L757.333333 234.666667h-90.965333c-17.194667 25.6-46.421333 42.368-79.573333 42.368h-149.589334A95.744 95.744 0 0 1 357.632 234.666667H266.666667a32 32 0 0 0-31.701334 27.648L234.666667 266.666667v576.213333c0 16.213333 12.032 29.568 27.648 31.701333l4.352 0.298667h64.213333a32 32 0 0 1 4.352 63.701333l-4.352 0.298667H266.666667a96 96 0 0 1-95.786667-89.429333L170.666667 842.88V266.666667a96 96 0 0 1 89.429333-95.786667L266.666667 170.666667h75.221333a95.872 95.872 0 0 1 95.317333-85.333334h149.589334z m213.205333 341.333334A138.666667 138.666667 0 0 1 938.666667 565.333333v234.666667A138.666667 138.666667 0 0 1 800 938.666667h-234.666667A138.666667 138.666667 0 0 1 426.666667 800v-234.666667A138.666667 138.666667 0 0 1 565.333333 426.666667h234.666667z m25.045333 443.733333L705.28 750.506667a32 32 0 0 0-41.642667-3.114667l-3.584 3.114667-119.808 119.808c7.850667 2.773333 16.298667 4.309333 25.088 4.309333h234.666667c8.789333 0 17.194667-1.493333 25.045333-4.266667L705.28 750.506667l119.765333 119.808z m-25.045333-379.733333h-234.666667a74.666667 74.666667 0 0 0-74.666666 74.666666v234.666667c0 8.789333 1.536 17.237333 4.309333 25.088l119.808-119.808a96 96 0 0 1 130.261333-5.12l5.504 5.12 119.808 119.808c2.773333-7.850667 4.309333-16.298667 4.309334-25.088v-234.666667a74.666667 74.666667 0 0 0-74.666667-74.666666zM768 554.752a42.666667 42.666667 0 1 1 0 85.333333 42.666667 42.666667 0 0 1 0-85.333333zM586.794667 149.333333h-149.589334a31.872 31.872 0 1 0 0 63.701334h149.589334a31.872 31.872 0 1 0 0-63.701334z" /></svg>