<svg class="icon" style="width: 1em;height: 1em;vertical-align: middle;fill: currentColor;overflow: hidden;" viewBox="0 0 1024 1024" version="1.1" xmlns="http://www.w3.org/2000/svg"><path d="M586.666667 85.333333a96 96 0 0 1 95.402666 85.333334h75.264A96 96 0 0 1 853.333333 266.666667V789.333333c-8.106667 6.058667-15.274667 13.226667-21.333333 21.333334a107.093333 107.093333 0 0 0-42.666667-33.792V266.666667a32 32 0 0 0-32-32h-90.837333c-17.237333 25.728-46.549333 42.666667-79.829333 42.666666h-149.333334c-33.28 0-62.592-16.938667-79.829333-42.666666H266.666667a32 32 0 0 0-32 32v576c0 17.664 14.336 32 32 32H469.333333c0 24.021333 7.936 46.165333 21.333334 64H266.666667A96 96 0 0 1 170.666667 842.666667V266.666667A96 96 0 0 1 266.666667 170.666667h75.264a96 96 0 0 1 95.402666-85.333334h149.333334z m95.786666 89.429334L682.666667 181.333333c0-2.218667-0.085333-4.394667-0.213334-6.570666zM586.666667 149.333333h-149.333334a32 32 0 0 0 0 64h149.333334a32 32 0 0 0 0-64zM746.666667 938.666667a64 64 0 1 1 0-128 64 64 0 0 1 0 128zM576 938.666667a64 64 0 1 1 0-128 64 64 0 0 1 0 128zM917.333333 938.666667a64 64 0 1 0 0-128 64 64 0 0 0 0 128z" /></svg>