<svg class="icon" style="width: 1em;height: 1em;vertical-align: middle;fill: currentColor;overflow: hidden;" viewBox="0 0 1024 1024" version="1.1" xmlns="http://www.w3.org/2000/svg"><path d="M596.736 170.666667a96 96 0 0 0-95.402667-85.333334h-149.333333a96 96 0 0 0-95.402667 85.333334H181.333333A96 96 0 0 0 85.333333 266.666667v576A96 96 0 0 0 181.333333 938.666667h365.226667a278.101333 278.101333 0 0 1-45.994667-64H181.333333a32 32 0 0 1-32-32V266.666667a32 32 0 0 1 32-32h90.837334c17.237333 25.728 46.549333 42.666667 79.829333 42.666666h149.333333c33.28 0 62.592-16.938667 79.829334-42.666666h90.837333a32 32 0 0 1 32 32v205.909333a279.637333 279.637333 0 0 1 64-2.432V266.666667A96 96 0 0 0 672 170.666667h-75.264z m0.384 4.096L597.333333 181.333333c0-2.218667-0.085333-4.394667-0.213333-6.570666zM352 149.333333h149.333333a32 32 0 0 1 0 64h-149.333333a32 32 0 0 1 0-64z m158.165333 452.437334a278.826667 278.826667 0 0 1 91.605334-91.605334l39.509333-39.552a32 32 0 1 0-45.226667-45.226666L384 637.44l-84.053333-84.053333a32 32 0 0 0-45.226667 45.226666l106.666667 106.666667a32 32 0 0 0 45.226666 0l103.552-103.509333zM981.333333 746.666667a234.666667 234.666667 0 1 0-469.333333 0 234.666667 234.666667 0 0 0 469.333333 0z m-213.333333 21.333333l0.042667 106.794667a21.333333 21.333333 0 1 1-42.666667 0V768h-106.88a21.333333 21.333333 0 0 1 0-42.666667H725.333333v-106.666666a21.333333 21.333333 0 1 1 42.666667 0V725.333333h106.538667a21.333333 21.333333 0 0 1 0 42.666667H768z" /></svg>