<svg class="icon" style="width: 1em;height: 1em;vertical-align: middle;fill: currentColor;overflow: hidden;" viewBox="0 0 1024 1024" version="1.1" xmlns="http://www.w3.org/2000/svg"><path d="M853.333333 266.666667v212.565333a191.701333 191.701333 0 0 0-64 3.626667V266.666667a32 32 0 0 0-32-32h-90.837333c-17.237333 25.728-46.549333 42.666667-79.829333 42.666666h-149.333334c-33.28 0-62.592-16.938667-79.829333-42.666666H266.666667a32 32 0 0 0-32 32v576c0 17.664 14.336 32 32 32h289.706666l64 64H266.666667A96 96 0 0 1 170.666667 842.666667V266.666667A96 96 0 0 1 266.666667 170.666667h75.264a96 96 0 0 1 95.402666-85.333334h149.333334a96 96 0 0 1 95.402666 85.333334h75.264A96 96 0 0 1 853.333333 266.666667z m-170.88-91.904L682.666667 181.333333c0-2.218667-0.085333-4.394667-0.213334-6.570666zM437.333333 149.333333a32 32 0 0 0 0 64h149.333334a32 32 0 0 0 0-64h-149.333334z m265.984 811.946667a31.872 31.872 0 0 0 45.226667 0l188.117333-188.074667a147.925333 147.925333 0 1 0-209.194666-209.194666l-1.536 1.536-1.536-1.536a147.925333 147.925333 0 1 0-209.152 209.194666l188.074666 188.074667z" /></svg>