<svg class="icon" style="width: 1em;height: 1em;vertical-align: middle;fill: currentColor;overflow: hidden;" viewBox="0 0 1024 1024" version="1.1" xmlns="http://www.w3.org/2000/svg"><path d="M586.666667 85.333333a96 96 0 0 1 95.402666 85.418667V170.666667L757.333333 170.666667A96 96 0 0 1 853.333333 266.666667v223.914666a275.285333 275.285333 0 0 0-64-18.005333V266.666667a32 32 0 0 0-32-32h-90.837333c-17.237333 25.728-46.549333 42.666667-79.829333 42.666666h-149.333334c-33.28 0-62.592-16.938667-79.829333-42.666666H266.666667a32 32 0 0 0-32 32v576c0 17.664 14.336 32 32 32h233.898666A278.101333 278.101333 0 0 0 546.56 938.666667H266.666667A96 96 0 0 1 170.666667 842.666667V266.666667A96 96 0 0 1 266.666667 170.666667h75.264a96 96 0 0 1 95.402666-85.333334h149.333334z m95.786666 89.429334L682.666667 181.333333c0-2.218667-0.085333-4.394667-0.213334-6.570666zM586.666667 149.333333h-149.333334a32 32 0 0 0 0 64h149.333334a32 32 0 0 0 0-64z m394.666666 597.333334a234.666667 234.666667 0 1 1-469.333333 0 234.666667 234.666667 0 0 1 469.333333 0zM746.666667 597.333333a21.333333 21.333333 0 0 0-21.333334 21.333334v170.666666a21.333333 21.333333 0 0 0 42.666667 0v-170.666666a21.333333 21.333333 0 0 0-21.333333-21.333334z m0 304a26.666667 26.666667 0 1 0 0-53.333333 26.666667 26.666667 0 0 0 0 53.333333z" /></svg>