<svg class="icon" style="width: 1em;height: 1em;vertical-align: middle;fill: currentColor;overflow: hidden;" viewBox="0 0 1024 1024" version="1.1" xmlns="http://www.w3.org/2000/svg"><path d="M586.666667 85.333333a96 96 0 0 1 95.402666 85.333334h75.264A96 96 0 0 1 853.333333 266.666667v223.914666a275.285333 275.285333 0 0 0-64-18.005333V266.666667a32 32 0 0 0-32-32h-90.837333c-17.237333 25.728-46.549333 42.666667-79.829333 42.666666h-149.333334c-33.28 0-62.592-16.938667-79.829333-42.666666H266.666667a32 32 0 0 0-32 32v576c0 17.664 14.336 32 32 32h233.898666A278.101333 278.101333 0 0 0 546.56 938.666667H266.666667A96 96 0 0 1 170.666667 842.666667V266.666667A96 96 0 0 1 266.666667 170.666667h75.264a96 96 0 0 1 95.402666-85.333334h149.333334z m95.573333 86.698667A72.362667 72.362667 0 0 0 682.069333 170.666667l0.128 1.365333z m0.213333 2.730667L682.666667 181.333333c0-2.389333-0.085333-4.736-0.256-7.082666v0.512zM586.666667 149.333333h-149.333334a32 32 0 0 0 0 64h149.333334a32 32 0 0 0 0-64z m22.528 446.976a85.333333 85.333333 0 0 1-61.482667 106.496l-24.917333 6.144a244.437333 244.437333 0 0 0 0.256 77.098667l23.04 5.546667a85.333333 85.333333 0 0 1 61.866666 107.093333l-7.978666 26.965333c18.773333 16.469333 40.106667 29.824 63.317333 39.338667l21.077333-22.186667a85.333333 85.333333 0 0 1 123.690667 0.042667l21.248 22.4a225.28 225.28 0 0 0 63.274667-38.954667l-8.448-29.269333a85.333333 85.333333 0 0 1 61.482666-106.496l24.917334-6.144a244.437333 244.437333 0 0 0-0.256-77.141333l-23.04-5.546667a85.333333 85.333333 0 0 1-61.866667-107.093333l7.978667-26.88a225.28 225.28 0 0 0-63.317334-39.338667l-21.034666 22.101333a85.333333 85.333333 0 0 1-123.733334 0l-21.248-22.4c-23.210667 9.386667-44.544 22.613333-63.274666 38.912l8.448 29.312zM746.666667 810.666667c-34.133333 0-61.866667-28.672-61.866667-64S712.533333 682.666667 746.666667 682.666667c34.133333 0 61.866667 28.672 61.866666 64S780.8 810.666667 746.666667 810.666667z" /></svg>