<svg class="icon" style="width: 1em;height: 1em;vertical-align: middle;fill: currentColor;overflow: hidden;" viewBox="0 0 1024 1024" version="1.1" xmlns="http://www.w3.org/2000/svg"><path d="M544.128 85.333333c49.408 0 90.069333 37.333333 95.317333 85.333334h75.221334a96 96 0 0 1 95.786666 89.429333L810.666667 266.666667a32 32 0 0 1-27.605334 31.658666L778.624 298.666667a32 32 0 0 1-31.658667-27.605334L746.666667 266.666667a32 32 0 0 0-27.648-31.701334L714.666667 234.666667h-90.965334a95.744 95.744 0 0 1-79.573333 42.368H394.538667c-33.152 0-62.336-16.768-79.573334-42.325334L224 234.666667a32 32 0 0 0-31.701333 27.648L192 266.666667v576.213333c0 16.213333 12.032 29.568 27.648 31.701333l4.352 0.298667h128a32 32 0 0 1 31.701333 27.605333l0.298667 4.352a32 32 0 0 1-32 32h-128a96 96 0 0 1-95.786667-89.386666L128 842.88V266.666667a96 96 0 0 1 89.429333-95.786667L224 170.666667h75.221333a95.872 95.872 0 0 1 95.317334-85.333334h149.589333z m255.872 256a96 96 0 0 1 95.786667 89.429334l0.213333 6.570666v405.333334a96 96 0 0 1-89.429333 95.786666L800 938.666667h-277.333333a96 96 0 0 1-95.786667-89.429334L426.666667 842.666667v-405.333334a96 96 0 0 1 89.429333-95.786666L522.666667 341.333333h277.333333z m0 64h-277.333333a32 32 0 0 0-31.701334 27.648l-0.298666 4.352v405.333334c0 16.213333 12.032 29.610667 27.648 31.701333l4.352 0.298667h277.333333a32 32 0 0 0 31.701333-27.648l0.298667-4.352v-405.333334a32 32 0 0 0-27.648-31.701333L800 405.333333z m-255.872-256H394.538667a31.872 31.872 0 0 0 0 63.701334h149.589333a31.872 31.872 0 1 0 0-63.701334z" /></svg>