<svg class="icon" style="width: 1em;height: 1em;vertical-align: middle;fill: currentColor;overflow: hidden;" viewBox="0 0 1024 1024" version="1.1" xmlns="http://www.w3.org/2000/svg"><path d="M682.069333 170.666667a96 96 0 0 0-95.402666-85.333334h-149.333334a96 96 0 0 0-95.402666 85.333334H266.666667A96 96 0 0 0 170.666667 266.666667v576A96 96 0 0 0 266.666667 938.666667H469.333333a212.736 212.736 0 0 1-32.896-64H266.666667a32 32 0 0 1-32-32V266.666667a32 32 0 0 1 32-32h90.837333c17.237333 25.728 46.549333 42.666667 79.829333 42.666666h149.333334c33.194667 0 62.464-16.853333 79.701333-42.496h80.384V234.666667h10.581333a32 32 0 0 1 32 32V597.333333H853.333333V266.666667A96 96 0 0 0 757.333333 170.666667h-75.264z m-244.736-21.333334h149.333334a32 32 0 0 1 0 64h-149.333334a32 32 0 0 1 0-64zM810.666667 640a170.666667 170.666667 0 0 1 8.533333 341.12L810.666667 981.333333a32 32 0 0 1-4.352-63.701333L810.666667 917.333333a106.666667 106.666667 0 0 0 6.997333-213.12L810.666667 704a32 32 0 0 1-4.352-63.701333L810.666667 640zM640 640a32 32 0 0 1 4.352 63.701333L640 704a106.666667 106.666667 0 0 0-6.997333 213.12L640 917.333333a32 32 0 0 1 4.352 63.701334L640 981.333333a170.666667 170.666667 0 0 1-8.533333-341.12L640 640zM650.666667 778.666667h149.333333a32 32 0 0 1 4.352 63.701333l-4.352 0.298667h-149.333333a32 32 0 0 1-4.352-63.701334l4.352-0.298666z" /></svg>