<svg class="icon" style="width: 1em;height: 1em;vertical-align: middle;fill: currentColor;overflow: hidden;" viewBox="0 0 1024 1024" version="1.1" xmlns="http://www.w3.org/2000/svg"><path d="M682.069333 170.666667a96 96 0 0 0-95.402666-85.333334h-149.333334a96 96 0 0 0-95.402666 85.333334H266.666667A96 96 0 0 0 170.666667 266.666667v164.266666a232.96 232.96 0 0 1 64-21.76V266.666667a32 32 0 0 1 32-32h90.837333c17.237333 25.728 46.549333 42.666667 79.829333 42.666666h149.333334c33.28 0 62.592-16.938667 79.829333-42.666666h90.837333a32 32 0 0 1 32 32v576a32 32 0 0 1-32 32h-167.168a74.88 74.88 0 0 1 0 64h167.168A96 96 0 0 0 853.333333 842.666667V266.666667A96 96 0 0 0 757.333333 170.666667h-75.264z m0.384 4.096L682.666667 181.333333c0-2.218667-0.085333-4.394667-0.213334-6.570666zM437.333333 149.333333h149.333334a32 32 0 0 1 0 64h-149.333334a32 32 0 0 1 0-64z m-12.8 613.973334a192 192 0 1 0-48.853333 41.642666l124.373333 124.330667a32 32 0 1 0 45.226667-45.226667l-120.746667-120.746666zM277.333333 768a128 128 0 1 1 0-256 128 128 0 0 1 0 256z" /></svg>