<svg class="icon" style="width: 1em;height: 1em;vertical-align: middle;fill: currentColor;overflow: hidden;" viewBox="0 0 1024 1024" version="1.1" xmlns="http://www.w3.org/2000/svg"><path d="M586.666667 85.333333a96 96 0 0 1 95.402666 85.418667V170.666667L757.333333 170.666667A96 96 0 0 1 853.333333 266.666667v318.293333a74.666667 74.666667 0 0 0-64-72.192V266.666667a32 32 0 0 0-32-32h-90.837333c-17.237333 25.728-46.549333 42.666667-79.829333 42.666666h-149.333334c-33.28 0-62.592-16.938667-79.829333-42.666666H266.666667a32 32 0 0 0-32 32v576c0 17.664 14.336 32 32 32h229.546666l34.645334 38.954666c14.634667 16.469333 34.901333 24.917333 55.338666 25.045334H266.666667A96 96 0 0 1 170.666667 842.666667V266.666667A96 96 0 0 1 266.666667 170.666667h75.264a96 96 0 0 1 95.402666-85.333334h149.333334z m95.786666 89.429334L682.666667 181.333333c0-2.218667-0.085333-4.394667-0.213334-6.570666zM586.666667 149.333333h-149.333334a32 32 0 0 0 0 64h149.333334a32 32 0 0 0 0-64zM810.666667 586.666667a32 32 0 0 1-1.28 9.045333l-106.666667 362.666667a32 32 0 1 1-61.44-18.090667l106.666667-362.666667a32 32 0 0 1 62.72 9.045334zM477.44 789.248a32 32 0 0 1 0-42.496l85.333333-96a32 32 0 0 1 47.786667 42.496L544.213333 768l66.432 74.752a32 32 0 0 1-47.872 42.496l-85.333333-96zM842.752 887.893333a32 32 0 0 1-2.688-45.141333L906.538667 768l-66.474667-74.752a32 32 0 0 1 47.872-42.496l85.333333 96a32 32 0 0 1 0 42.496l-85.333333 96a32 32 0 0 1-45.226667 2.688z" /></svg>