<svg class="icon" style="width: 1em;height: 1em;vertical-align: middle;fill: currentColor;overflow: hidden;" viewBox="0 0 1024 1024" version="1.1" xmlns="http://www.w3.org/2000/svg"><path d="M586.666667 85.333333a96 96 0 0 1 95.402666 85.333334h75.264A96 96 0 0 1 853.333333 266.666667v352.938666l-64-141.994666V266.666667a32 32 0 0 0-32-32h-90.837333c-17.237333 25.728-46.549333 42.666667-79.829333 42.666666h-149.333334c-33.28 0-62.592-16.938667-79.829333-42.666666H266.666667a32 32 0 0 0-32 32v576c0 17.664 14.336 32 32 32h215.466666l-7.381333 16.426666c-6.997333 15.616-7.253333 32.597333-1.962667 47.573334H266.666667A96 96 0 0 1 170.666667 842.666667V266.666667A96 96 0 0 1 266.666667 170.666667h75.264a96 96 0 0 1 95.402666-85.333334h149.333334z m95.786666 89.429334L682.666667 181.333333c0-2.218667-0.085333-4.394667-0.213334-6.570666zM586.666667 149.333333h-149.333334a32 32 0 0 0 0 64h149.333334a32 32 0 0 0 0-64zM744.448 481.877333a21.333333 21.333333 0 0 0-38.912 0l-114.901333 255.616a22.186667 22.186667 0 0 0-0.426667 0.853334l-76.501333 170.24a21.333333 21.333333 0 1 0 38.912 17.493333L623.658667 768h202.922666l71.253334 158.122667a21.333333 21.333333 0 0 0 38.912-17.578667l-76.757334-170.24a22.186667 22.186667 0 0 0-0.384-0.853333l-115.2-255.573334zM807.381333 725.333333h-164.522666l82.176-182.698666L807.381333 725.333333z" /></svg>