<svg class="icon" style="width: 1em;height: 1em;vertical-align: middle;fill: currentColor;overflow: hidden;" viewBox="0 0 1024 1024" version="1.1" xmlns="http://www.w3.org/2000/svg"><path d="M533.333333 437.333333a32 32 0 0 1 32-32h149.333334a32 32 0 0 1 0 64h-149.333334a32 32 0 0 1-32-32z m32 202.666667a32 32 0 1 0 0 64h149.333334a32 32 0 1 0 0-64h-149.333334z m-105.386666-222.72a32 32 0 1 0-45.226667-45.226667l-62.72 62.72-20.053333-20.053333a32 32 0 0 0-45.226667 45.226667l42.666667 42.666666a32 32 0 0 0 45.226666 0l85.333334-85.333333z m0 189.44a32 32 0 0 1 0 45.226667l-85.333334 85.333333a32 32 0 0 1-45.226666 0l-42.666667-42.666667a32 32 0 1 1 45.226667-45.226666l20.053333 20.053333 62.72-62.72a32 32 0 0 1 45.226667 0z m222.464-432.469333A96 96 0 0 0 586.666667 85.333333h-149.333334a96 96 0 0 0-95.402666 85.333334H266.666667A96 96 0 0 0 170.666667 266.666667v576A96 96 0 0 0 266.666667 938.666667h490.666666A96 96 0 0 0 853.333333 842.666667V266.666667A96 96 0 0 0 757.333333 170.666667h-75.264l0.341334 3.584z m0 0.512L682.666667 181.333333c0-2.218667-0.085333-4.394667-0.213334-6.570666zM437.333333 277.333333h149.333334c33.28 0 62.592-16.938667 79.829333-42.666666h90.837333a32 32 0 0 1 32 32v576a32 32 0 0 1-32 32H266.666667a32 32 0 0 1-32-32V266.666667a32 32 0 0 1 32-32h90.837333c17.237333 25.728 46.549333 42.666667 79.829333 42.666666z m0-128h149.333334a32 32 0 0 1 0 64h-149.333334a32 32 0 0 1 0-64z" /></svg>