<svg class="icon" style="width: 1em;height: 1em;vertical-align: middle;fill: currentColor;overflow: hidden;" viewBox="0 0 1024 1024" version="1.1" xmlns="http://www.w3.org/2000/svg"><path d="M586.666667 85.333333a96 96 0 0 1 95.402666 85.333334h75.264A96 96 0 0 1 853.333333 266.666667V554.666667h-64V266.666667a32 32 0 0 0-32-32h-90.837333c-17.237333 25.728-46.549333 42.666667-79.829333 42.666666h-149.333334c-33.28 0-62.592-16.938667-79.829333-42.666666H266.666667a32 32 0 0 0-32 32V554.666667H170.666667V266.666667A96 96 0 0 1 266.666667 170.666667h75.264a96 96 0 0 1 95.402666-85.333334h149.333334z m95.786666 89.429334L682.666667 181.333333c0-2.218667-0.085333-4.394667-0.213334-6.570666zM586.666667 149.333333h-149.333334a32 32 0 0 0 0 64h149.333334a32 32 0 0 0 0-64z m202.666666 554.666667H853.333333v138.666667A96 96 0 0 1 757.333333 938.666667H266.666667A96 96 0 0 1 170.666667 842.666667V704h64v138.666667c0 17.664 14.336 32 32 32h490.666666a32 32 0 0 0 32-32V704z m-321.28-339.712a32 32 0 0 0-59.306666-5.248L289.493333 597.333333H117.333333a32 32 0 0 0 0 64h192a32 32 0 0 0 28.586667-17.706666l91.648-183.253334 83.754667 284.672a32 32 0 0 0 59.306666 5.248l80.597334-161.194666 34.005333 56.704a32 32 0 0 0 27.434667 15.530666h192a32 32 0 0 0 0-64h-173.866667l-54.698667-91.136a32 32 0 0 0-56.064 2.133334l-70.272 140.629333-83.754666-284.672z" /></svg>