<svg class="icon" style="width: 1em;height: 1em;vertical-align: middle;fill: currentColor;overflow: hidden;" viewBox="0 0 1024 1024" version="1.1" xmlns="http://www.w3.org/2000/svg"><path d="M938.666667 512c0-235.605333-191.018667-426.666667-426.666667-426.666667S85.333333 276.394667 85.333333 512c0 11.221333 0.426667 22.314667 1.28 33.28a277.973333 277.973333 0 0 1 70.144-48.426667C164.736 307.797333 321.024 156.458667 512 156.458667c196.053333 0 355.541333 159.488 355.541333 355.541333 0 190.976-151.338667 347.264-340.394666 355.242667a278.016 278.016 0 0 1-48.469334 70.144c11.008 0.853333 22.101333 1.28 33.322667 1.28 235.648 0 426.666667-191.061333 426.666667-426.666667z m-682.666667 0.981333a234.666667 234.666667 0 1 0 42.666667 0v246.186667l70.229333-70.272a21.333333 21.333333 0 0 1 30.208 30.208l-106.666667 106.666667a21.333333 21.333333 0 0 1-30.208 0l-106.666666-106.666667a21.333333 21.333333 0 0 1 30.208-30.208L256 759.168v-246.186667zM170.666667 853.333333h213.333333a21.333333 21.333333 0 0 1 0 42.666667H170.666667a21.333333 21.333333 0 0 1 0-42.666667z m362.368-569.685333A32 32 0 0 0 469.333333 288v256l0.298667 4.352a32 32 0 0 0 31.701333 27.648h170.666667l4.352-0.298667A32 32 0 0 0 672 512H533.333333V288l-0.298666-4.352z" /></svg>