<svg class="icon" style="width: 1em;height: 1em;vertical-align: middle;fill: currentColor;overflow: hidden;" viewBox="0 0 1024 1024" version="1.1" xmlns="http://www.w3.org/2000/svg"><path d="M277.333333 512a234.666667 234.666667 0 1 1 0 469.333333 234.666667 234.666667 0 0 1 0-469.333333zM554.666667 42.666667c235.648 0 426.666667 191.061333 426.666666 426.666666s-191.018667 426.666667-426.666666 426.666667c-14.293333 0-28.416-0.725333-42.325334-2.090667 13.44-21.290667 23.978667-44.544 31.146667-69.162666l11.178667 0.128c196.053333 0 355.541333-159.488 355.541333-355.541334 0-196.053333-159.488-355.541333-355.541333-355.541333-196.053333 0-355.541333 159.488-355.541334 355.541333l0.170667 11.136a275.029333 275.029333 0 0 0-69.205333 31.146667A426.794667 426.794667 0 0 1 128 469.333333C128 233.728 319.018667 42.666667 554.666667 42.666667zM158.549333 622.464l-2.986666 2.432-2.432 2.986667a21.333333 21.333333 0 0 0 0 24.234666l2.432 2.986667L247.168 746.666667l-91.605333 91.562666-2.432 2.986667a21.333333 21.333333 0 0 0 0 24.234667l2.432 2.986666 2.986666 2.432a21.333333 21.333333 0 0 0 24.234667 0l2.986667-2.432L277.333333 776.832l91.562667 91.605333 2.986667 2.432a21.333333 21.333333 0 0 0 24.234666 0l2.986667-2.432 2.432-2.986666a21.333333 21.333333 0 0 0 0-24.234667l-2.432-2.986667L307.498667 746.666667l91.605333-91.562667 2.432-2.986667a21.333333 21.333333 0 0 0 0-24.234666l-2.432-2.986667-2.986667-2.432a21.333333 21.333333 0 0 0-24.234666 0l-2.986667 2.432L277.333333 716.501333l-91.562666-91.605333-2.986667-2.432a21.333333 21.333333 0 0 0-20.992-1.877333l-3.242667 1.877333zM522.666667 213.333333a32 32 0 0 1 31.701333 27.648L554.666667 245.333333V469.333333h138.666666a32 32 0 0 1 4.352 63.701334l-4.352 0.298666h-170.666666a32 32 0 0 1-31.701334-27.648l-0.298666-4.352v-256a32 32 0 0 1 32-32z" /></svg>