<svg class="icon" style="width: 1em;height: 1em;vertical-align: middle;fill: currentColor;overflow: hidden;" viewBox="0 0 1024 1024" version="1.1" xmlns="http://www.w3.org/2000/svg"><path d="M512 330.666667a32 32 0 0 0-64 0v213.333333c0 17.664 14.336 32 32 32h149.333333a32 32 0 0 0 0-64H512V330.666667zM148.309333 388.394667a170.666667 170.666667 0 1 1 240.085334-240.085334A383.530667 383.530667 0 0 1 512 128a383.573333 383.573333 0 0 1 123.605333 20.309333 170.666667 170.666667 0 1 1 240.085334 240.085334c13.141333 38.826667 20.309333 80.384 20.309333 123.605333 0 94.506667-34.133333 181.077333-90.794667 247.978667l81.408 81.408a32 32 0 1 1-45.226666 45.226666l-81.408-81.408A382.464 382.464 0 0 1 512 896c-94.506667 0-181.077333-34.133333-247.978667-90.794667L182.613333 886.613333a32 32 0 0 1-45.226666-45.226666l81.408-81.408A382.464 382.464 0 0 1 128 512c0-43.221333 7.125333-84.821333 20.309333-123.605333zM149.333333 256c0 26.922667 9.984 51.541333 26.453334 70.314667A385.792 385.792 0 0 1 326.314667 175.786667 106.666667 106.666667 0 0 0 149.333333 256z m698.88 70.314667a106.666667 106.666667 0 0 0-150.528-150.528 385.792 385.792 0 0 1 150.528 150.528zM192 512a320 320 0 1 0 640 0 320 320 0 0 0-640 0z" /></svg>