<svg class="icon" style="width: 1em;height: 1em;vertical-align: middle;fill: currentColor;overflow: hidden;" viewBox="0 0 1024 1024" version="1.1" xmlns="http://www.w3.org/2000/svg"><path d="M512 85.333333c235.648 0 426.666667 191.061333 426.666667 426.666667s-191.018667 426.666667-426.666667 426.666667S85.333333 747.605333 85.333333 512 276.352 85.333333 512 85.333333z m0 71.125334c-196.053333 0-355.541333 159.488-355.541333 355.541333 0 196.053333 159.488 355.541333 355.541333 355.541333 196.053333 0 355.541333-159.488 355.541333-355.541333 0-196.053333-159.488-355.541333-355.541333-355.541333zM480 256a32 32 0 0 1 31.701333 27.648L512 288V512h138.666667a32 32 0 0 1 4.352 63.701333l-4.352 0.298667h-170.666667a32 32 0 0 1-31.701333-27.648l-0.298667-4.352v-256a32 32 0 0 1 32-32z" /></svg>