<svg class="icon" style="width: 1em;height: 1em;vertical-align: middle;fill: currentColor;overflow: hidden;" viewBox="0 0 1024 1024" version="1.1" xmlns="http://www.w3.org/2000/svg"><path d="M139.946667 94.72a32 32 0 0 0-45.226667 45.226667l53.333333 53.333333A138.538667 138.538667 0 0 0 85.333333 309.333333v405.546667a138.666667 138.666667 0 0 0 138.666667 138.666667h576c2.688 0 5.376-0.085333 8.021333-0.256l75.989334 75.989333a32 32 0 0 0 45.269333-45.226667L139.946667 94.72z m604.330666 694.784H224a74.666667 74.666667 0 0 1-74.666667-74.666667V309.333333c0-31.018667 18.901333-57.6 45.824-68.906666l120.661334 120.661333C268.458667 385.834667 234.666667 439.466667 234.666667 512c0 134.101333 115.84 203.733333 218.453333 145.322667a32 32 0 0 0-31.573333-55.594667C361.941333 635.562667 298.666667 597.546667 298.666667 512c0-58.453333 29.44-94.72 67.114666-100.949333l378.453334 378.453333z m127.402667-53.589333c1.92-6.698667 2.986667-13.738667 2.986667-21.077334V309.333333a74.666667 74.666667 0 0 0-74.666667-74.666666H370.432L306.432 170.666667H800A138.666667 138.666667 0 0 1 938.666667 309.333333v405.546667c0 25.301333-6.784 48.981333-18.602667 69.418667l-48.384-48.384z m-250.752-250.752l-51.072-51.072c34.688-80.554667 122.965333-113.066667 203.349333-67.2a32 32 0 0 1-31.744 55.552c-52.949333-30.208-108.757333-3.626667-120.533333 62.72z" /></svg>