<svg class="icon" style="width: 1em;height: 1em;vertical-align: middle;fill: currentColor;overflow: hidden;" viewBox="0 0 1024 1024" version="1.1" xmlns="http://www.w3.org/2000/svg"><path d="M259.712 384a245.418667 245.418667 0 0 1 483.242667 0h3.712a170.666667 170.666667 0 0 1 166.144 209.877333l-60.032-59.989333a67.029333 67.029333 0 0 0-1.834667-1.834667A106.666667 106.666667 0 0 0 746.666667 448h-32.256a32 32 0 0 1-32-30.421333 181.333333 181.333333 0 0 0-362.197334 0 32 32 0 0 1-31.957333 30.421333H256a106.666667 106.666667 0 0 0 0 213.333333h135.168a74.88 74.88 0 0 0 0 64H256a170.666667 170.666667 0 0 1 0-341.333333h3.712z m328.234667 225.28a32 32 0 1 0-45.226667-45.226667l-106.666667 106.666667a32 32 0 0 0 0 45.226667l106.666667 106.666666a32 32 0 1 0 45.226667-45.226666L535.893333 725.333333h293.546667l-52.053333 52.053334a32 32 0 1 0 45.226666 45.226666l106.666667-106.666666a32 32 0 0 0 0-45.226667l-106.666667-106.666667a32 32 0 1 0-45.226666 45.226667l52.053333 52.053333h-293.546667l52.053334-52.053333z" /></svg>