<svg class="icon" style="width: 1em;height: 1em;vertical-align: middle;fill: currentColor;overflow: hidden;" viewBox="0 0 1024 1024" version="1.1" xmlns="http://www.w3.org/2000/svg"><path d="M259.712 330.666667a245.418667 245.418667 0 0 1 483.242667 0h3.712a170.666667 170.666667 0 0 1 169.045333 194.218666 278.784 278.784 0 0 0-68.138667-58.197333A106.709333 106.709333 0 0 0 746.666667 394.666667h-32.256a32 32 0 0 1-32-30.421334 181.333333 181.333333 0 0 0-362.197334 0 32 32 0 0 1-31.957333 30.421334H256a106.666667 106.666667 0 0 0 0 213.333333h187.733333a275.541333 275.541333 0 0 0-15.232 64H256a170.666667 170.666667 0 0 1 0-341.333333h3.712zM469.333333 704a234.666667 234.666667 0 1 0 469.333334 0 234.666667 234.666667 0 0 0-469.333334 0z m362.666667-149.333333a21.333333 21.333333 0 0 1 21.333333 21.333333v85.333333a21.333333 21.333333 0 0 1-21.333333 21.333334h-85.333333a21.333333 21.333333 0 0 1 0-42.666667h42.666666a106.496 106.496 0 0 0-85.333333-42.666667c-35.541333 0-67.072 17.365333-86.485333 44.202667a21.333333 21.333333 0 0 1-34.56-25.002667A149.162667 149.162667 0 0 1 704 554.666667c41.813333 0 79.573333 17.194667 106.666667 44.8v-23.466667a21.333333 21.333333 0 0 1 21.333333-21.333333zM597.333333 808.533333v23.466667a21.333333 21.333333 0 0 1-42.666666 0v-85.333333a21.333333 21.333333 0 0 1 21.333333-21.333334h85.333333a21.333333 21.333333 0 0 1 0 42.666667h-42.666666c19.456 25.941333 50.474667 42.666667 85.333333 42.666667 32.682667 0 61.952-14.677333 81.536-37.888a21.333333 21.333333 0 0 1 32.597333 27.52A149.034667 149.034667 0 0 1 704 853.333333a148.906667 148.906667 0 0 1-106.666667-44.8z" /></svg>