<svg class="icon" style="width: 1em;height: 1em;vertical-align: middle;fill: currentColor;overflow: hidden;" viewBox="0 0 1024 1024" version="1.1" xmlns="http://www.w3.org/2000/svg"><path d="M501.333333 96A245.418667 245.418667 0 0 0 259.712 298.666667H256a170.666667 170.666667 0 1 0 0 341.333333h305.28l6.058667-18.090667a129.28 129.28 0 0 1 26.752-45.909333H256a106.666667 106.666667 0 0 1 0-213.333333h32.256c17.066667 0 31.146667-13.397333 32-30.421334a181.333333 181.333333 0 0 1 362.197333 0c0.853333 17.066667 14.890667 30.421333 31.957334 30.421334h32.256a106.666667 106.666667 0 0 1 97.792 64h62.208c1.792 0 3.584 0.085333 5.333333 0.170666A170.752 170.752 0 0 0 746.666667 298.666667h-3.712a245.418667 245.418667 0 0 0-241.621334-202.666667z m202.666667 405.333333a32 32 0 0 1 32-32h170.666667a32 32 0 0 1 32 32v170.666667a32 32 0 0 1-32 32h-170.666667a32 32 0 0 1-32-32V640h-13.781333a22.869333 22.869333 0 0 0-21.674667 15.616l-38.997333 116.992a86.869333 86.869333 0 0 1-82.432 59.392H512v74.666667a32 32 0 0 1-32 32h-170.666667a32 32 0 0 1-32-32v-170.666667a32 32 0 0 1 32-32h170.666667a32 32 0 0 1 32 32V768h35.114667c9.813333 0 18.602667-6.314667 21.674666-15.616l38.997334-116.992a86.869333 86.869333 0 0 1 82.432-59.392h13.781333v-74.666667z m64 107.434667V640h106.666667v-106.666667H768v73.898667a45.056 45.056 0 0 1 0 1.536zM341.333333 768v106.666667h106.666667V768H341.333333z" /></svg>