<svg class="icon" style="width: 1em;height: 1em;vertical-align: middle;fill: currentColor;overflow: hidden;" viewBox="0 0 1024 1024" version="1.1" xmlns="http://www.w3.org/2000/svg"><path d="M416 384a32 32 0 0 0 0 64h170.666667a32 32 0 0 0 0-64h-170.666667zM213.333333 586.666667a32 32 0 0 1 32-32h170.666667a32 32 0 0 1 0 64h-170.666667a32 32 0 0 1-32-32z m373.333334-32a32 32 0 0 0 0 64h170.666666a32 32 0 0 0 0-64h-170.666666z m-85.333334-341.333334a245.418667 245.418667 0 0 0-241.621333 202.666667H256a170.666667 170.666667 0 0 0 0 341.333333h490.666667a170.666667 170.666667 0 0 0 0-341.333333h-3.712A245.418667 245.418667 0 0 0 501.333333 213.333333z m-181.12 236.245334a181.333333 181.333333 0 0 1 362.24 0c0.853333 17.066667 14.890667 30.421333 31.957334 30.421333h32.256a106.666667 106.666667 0 0 1 0 213.333333H256a106.666667 106.666667 0 0 1 0-213.333333h32.256c17.066667 0 31.146667-13.397333 32-30.421333z" /></svg>