<svg class="icon" style="width: 1em;height: 1em;vertical-align: middle;fill: currentColor;overflow: hidden;" viewBox="0 0 1024 1024" version="1.1" xmlns="http://www.w3.org/2000/svg"><path d="M259.712 416a245.418667 245.418667 0 0 1 483.242667 0h3.712A170.666667 170.666667 0 0 1 900.181333 512h-77.354666a106.368 106.368 0 0 0-76.16-32h-32.256a32 32 0 0 1-32-30.421333 181.333333 181.333333 0 0 0-362.197334 0 32 32 0 0 1-31.957333 30.421333H256a106.666667 106.666667 0 0 0 0 213.333333h232.064c6.613333 8.277333 14.72 15.274667 23.936 20.565334v43.434666H256a170.666667 170.666667 0 0 1 0-341.333333h3.712zM512 597.333333a42.666667 42.666667 0 0 1 42.666667-42.666666h384a42.666667 42.666667 0 0 1 42.666666 42.666666v42.666667a42.666667 42.666667 0 0 1-42.666666 42.666667h-384a42.666667 42.666667 0 0 1-42.666667-42.666667v-42.666667z m426.666667 128h-384v170.666667a85.333333 85.333333 0 0 0 85.333333 85.333333h213.333333a85.333333 85.333333 0 0 0 85.333334-85.333333v-170.666667z m-256 42.666667h128a21.333333 21.333333 0 0 1 0 42.666667h-128a21.333333 21.333333 0 1 1 0-42.666667z" /></svg>