<svg class="icon" style="width: 1em;height: 1em;vertical-align: middle;fill: currentColor;overflow: hidden;" viewBox="0 0 1024 1024" version="1.1" xmlns="http://www.w3.org/2000/svg"><path d="M139.946667 94.72a32 32 0 1 0-45.226667 45.226667l194.816 194.816a243.584 243.584 0 0 0-29.866667 81.237333H256a170.666667 170.666667 0 0 0 0 341.333333h456.064l171.946667 171.946667a32 32 0 0 0 45.269333-45.226667L139.946667 94.72z m508.16 598.613333H256a106.666667 106.666667 0 0 1 0-213.333333h32.256c17.066667 0 31.146667-13.397333 32-30.421333a180.266667 180.266667 0 0 1 16.64-67.413334l311.168 311.168z m205.226666-106.666666c0 35.626667-17.493333 67.2-44.373333 86.613333l45.653333 45.610667A170.666667 170.666667 0 0 0 746.666667 416h-3.712a245.418667 245.418667 0 0 0-362.24-171.008l47.658666 47.616a181.333333 181.333333 0 0 1 254.08 156.970667c0.853333 17.066667 14.890667 30.421333 31.957334 30.421333h32.256a106.666667 106.666667 0 0 1 106.666666 106.666667z" /></svg>