<svg class="icon" style="width: 1em;height: 1em;vertical-align: middle;fill: currentColor;overflow: hidden;" viewBox="0 0 1024 1024" version="1.1" xmlns="http://www.w3.org/2000/svg"><path d="M259.712 416a245.418667 245.418667 0 0 1 483.242667 0h3.712a170.666667 170.666667 0 0 1 0 341.333333H256a170.666667 170.666667 0 0 1 0-341.333333h3.712zM501.333333 277.333333a181.333333 181.333333 0 0 0-181.12 172.245334 32 32 0 0 1-31.957333 30.421333H256a106.666667 106.666667 0 0 0 0 213.333333h490.666667a106.666667 106.666667 0 0 0 0-213.333333h-32.256a32 32 0 0 1-32-30.421333A181.333333 181.333333 0 0 0 501.333333 277.333333z" /></svg>