<svg class="icon" style="width: 1em;height: 1em;vertical-align: middle;fill: currentColor;overflow: hidden;" viewBox="0 0 1024 1024" version="1.1" xmlns="http://www.w3.org/2000/svg"><path d="M344.149333 808.234667l277.333334-618.666667a32 32 0 0 1 59.904 22.101333l-1.536 4.096-277.333334 618.666667a32 32 0 0 1-59.904-22.101333l1.536-4.096 277.333334-618.666667-277.333334 618.666667zM94.72 489.386667l181.333333-181.333334a32 32 0 0 1 48.341334 41.642667l-3.114667 3.626667L162.56 512l158.72 158.677333a32 32 0 0 1-41.642667 48.341334l-3.584-3.114667-181.333333-181.333333a32 32 0 0 1-3.114667-41.642667l3.114667-3.584 181.333333-181.333333-181.333333 181.333333z m608-181.333334a32 32 0 0 1 41.642667-3.114666l3.584 3.114666 181.333333 181.333334a32 32 0 0 1 3.114667 41.642666l-3.114667 3.626667-181.333333 181.333333a32 32 0 0 1-48.341334-41.685333l3.114667-3.584L861.44 512l-158.72-158.72a32 32 0 0 1 0-45.226667z" /></svg>