<svg class="icon" style="width: 1em;height: 1em;vertical-align: middle;fill: currentColor;overflow: hidden;" viewBox="0 0 1024 1024" version="1.1" xmlns="http://www.w3.org/2000/svg"><path d="M472.149333 341.504l7.850667-0.213333h320a138.666667 138.666667 0 0 1 138.453333 130.773333l0.213334 7.893333v66.56a278.101333 278.101333 0 0 0-64-45.952v-20.608a74.666667 74.666667 0 0 0-74.666667-74.666666h-320a74.666667 74.666667 0 0 0-74.410667 68.522666l-0.256 6.144v320a74.666667 74.666667 0 0 0 68.565334 74.410667l6.101333 0.256h20.565333c12.245333 23.466667 27.733333 45.013333 45.909334 64H480a138.666667 138.666667 0 0 1-138.453333-130.816L341.333333 800v-320a138.666667 138.666667 0 0 1 130.816-138.453333zM664.832 180.608l2.218667 7.552 29.568 110.421333h-66.261334l-25.088-93.866666a74.666667 74.666667 0 0 0-91.477333-52.821334L204.714667 234.752a74.666667 74.666667 0 0 0-54.186667 85.12l1.365333 6.314667 82.858667 309.077333A74.666667 74.666667 0 0 0 298.666667 690.176v64.256a138.752 138.752 0 0 1-123.52-95.061333l-2.218667-7.509334-82.816-309.12a138.666667 138.666667 0 0 1 90.453333-167.594666l7.594667-2.218667 309.077333-82.816a138.666667 138.666667 0 0 1 167.594667 90.453333zM981.333333 746.666667a234.666667 234.666667 0 1 0-469.333333 0 234.666667 234.666667 0 0 0 469.333333 0z m-238.506666-149.034667L746.666667 597.333333l3.84 0.341334a21.333333 21.333333 0 0 1 17.152 17.152l0.341333 3.84V725.333333l106.88 0.042667 3.84 0.341333a21.333333 21.333333 0 0 1 17.152 17.152l0.341333 3.84-0.341333 3.84a21.333333 21.333333 0 0 1-17.194667 17.152l-3.84 0.341334h-106.794666v106.794666l-0.341334 3.84a21.333333 21.333333 0 0 1-17.152 17.152l-3.84 0.341334-3.84-0.341334a21.333333 21.333333 0 0 1-17.152-17.152l-0.341333-3.84V768L618.581333 768l-3.84-0.341333a21.333333 21.333333 0 0 1-17.152-17.152l-0.341333-3.84 0.341333-3.84a21.333333 21.333333 0 0 1 17.152-17.152l3.84-0.341334H725.333333v-106.666666l0.341334-3.84a21.333333 21.333333 0 0 1 17.152-17.194667z" /></svg>