<svg class="icon" style="width: 1em;height: 1em;vertical-align: middle;fill: currentColor;overflow: hidden;" viewBox="0 0 1024 1024" version="1.1" xmlns="http://www.w3.org/2000/svg"><path d="M472.149333 341.504l7.850667-0.213333h320a138.666667 138.666667 0 0 1 138.453333 130.773333l0.213334 7.893333v320a138.666667 138.666667 0 0 1-130.816 138.453334l-7.850667 0.213333h-320a138.666667 138.666667 0 0 1-138.453333-130.816L341.333333 800v-320a138.666667 138.666667 0 0 1 130.816-138.453333z m327.850667 63.786667h-320a74.666667 74.666667 0 0 0-74.410667 68.522666l-0.256 6.144v320a74.666667 74.666667 0 0 0 68.565334 74.410667l6.101333 0.256h320a74.666667 74.666667 0 0 0 74.410667-68.565333l0.256-6.101334v-320a74.666667 74.666667 0 0 0-74.666667-74.666666zM640 469.333333a32 32 0 0 1 32 32v106.581334h106.666667a32 32 0 0 1 0 64h-106.666667v106.752a32 32 0 0 1-64 0v-106.752h-106.666667a32 32 0 1 1 0-64h106.666667V501.333333A32 32 0 0 1 640 469.333333z m24.832-288.725333l2.218667 7.552 29.568 110.421333h-66.261334l-25.088-93.866666a74.666667 74.666667 0 0 0-91.477333-52.821334L204.714667 234.752a74.666667 74.666667 0 0 0-54.186667 85.12l1.365333 6.314667 82.858667 309.077333A74.666667 74.666667 0 0 0 298.666667 690.176v64.256a138.752 138.752 0 0 1-123.52-95.061333l-2.218667-7.509334-82.816-309.12a138.666667 138.666667 0 0 1 90.453333-167.594666l7.594667-2.218667 309.077333-82.816a138.666667 138.666667 0 0 1 167.594667 90.453333z" /></svg>