<svg class="icon" style="width: 1em;height: 1em;vertical-align: middle;fill: currentColor;overflow: hidden;" viewBox="0 0 1024 1024" version="1.1" xmlns="http://www.w3.org/2000/svg"><path d="M553.728 274.005333a127.573333 127.573333 0 0 1 37.461333 90.24c13.781333 2.816 26.88 9.6 37.589334 20.309334l0.554666 0.554666 13.909334 14.933334 0.341333 0.426666c8.192 9.216 19.2 22.4 30.378667 37.973334 11.093333 15.36 23.253333 34.474667 32.853333 55.466666 9.386667 20.394667 18.517333 47.189333 18.517333 76.757334C725.333333 649.898667 665.856 725.333333 576 725.333333c-85.674667 0-143.786667-68.608-148.949333-143.658666l-54.357334 54.357333a128 128 0 0 1-181.034666 0L128 572.373333V746.666667A64 64 0 0 0 192 810.666667h640a64 64 0 0 0 64-64v-469.333334A64 64 0 0 0 832 213.333333h-338.944l60.672 60.672z" /></svg>