<svg class="icon" style="width: 1em;height: 1em;vertical-align: middle;fill: currentColor;overflow: hidden;" viewBox="0 0 1024 1024" version="1.1" xmlns="http://www.w3.org/2000/svg"><path d="M384 74.666667a32 32 0 0 1 64 0v53.973333c19.2 1.706667 37.973333 9.941333 52.693333 24.661333l150.869334 150.869334a85.333333 85.333333 0 0 1 0 120.661333L470.528 605.866667a85.333333 85.333333 0 0 1-120.661333 0l-150.869334-150.869334a85.333333 85.333333 0 0 1 0-120.661333l181.034667-181.034667c1.28-1.28 2.602667-2.56 3.968-3.712V74.666667z m0 192v-26.837334l-123.306667 123.306667h351.786667a21.248 21.248 0 0 0-6.186667-13.738667l-150.826666-150.826666a21.248 21.248 0 0 0-7.466667-4.864v72.96a32 32 0 1 1-64 0z m-122.368 160.426666l133.461333 133.546667a21.333333 21.333333 0 0 0 30.165334 0l133.504-133.546667H261.632zM281.002667 597.333333H192A106.666667 106.666667 0 0 0 85.333333 704v128A106.666667 106.666667 0 0 0 192 938.666667h640a106.666667 106.666667 0 0 0 106.666667-106.666667v-128a106.666667 106.666667 0 0 0-86.016-104.661333 160.938667 160.938667 0 0 1-7.381334 64.128 42.666667 42.666667 0 0 1 29.397334 40.533333v128a42.666667 42.666667 0 0 1-42.666667 42.666667h-640a42.666667 42.666667 0 0 1-42.666667-42.666667v-128a42.666667 42.666667 0 0 1 42.666667-42.666667h163.626667a127.786667 127.786667 0 0 1-35.925334-25.301333L281.002667 597.333333zM597.333333 613.333333c0-21.034667 6.570667-41.472 14.592-58.922666 8.106667-17.749333 18.688-34.389333 28.757334-48.384 10.112-14.122667 20.181333-26.154667 27.690666-34.645334 3.626667-4.138667 10.282667-11.136 12.8-13.781333l0.213334-0.213333a32 32 0 0 1 45.226666 0l13.013334 13.994666c7.509333 8.490667 17.578667 20.48 27.733333 34.645334 10.026667 13.994667 20.608 30.634667 28.714667 48.384 8.021333 17.450667 14.592 37.888 14.592 58.922666C810.666667 672.64 766.762667 725.333333 704 725.333333S597.333333 672.64 597.333333 613.333333z m118.016-69.973333a359.082667 359.082667 0 0 0-11.349333-14.933333 359.082667 359.082667 0 0 0-11.349333 14.933333c-8.576 11.946667-16.725333 24.96-22.570667 37.76-5.973333 13.013333-8.746667 23.893333-8.746667 32.213333 0 29.482667 20.48 48 42.666667 48s42.666667-18.517333 42.666667-48c0-8.277333-2.773333-19.2-8.746667-32.213333a234.368 234.368 0 0 0-22.613333-37.802667z" /></svg>