<svg class="icon" style="width: 1em;height: 1em;vertical-align: middle;fill: currentColor;overflow: hidden;" viewBox="0 0 1024 1024" version="1.1" xmlns="http://www.w3.org/2000/svg"><path d="M85.333333 529.664V746.666667A106.666667 106.666667 0 0 0 192 853.333333h640a106.666667 106.666667 0 0 0 106.666667-106.666666v-469.333334A106.666667 106.666667 0 0 0 832 170.666667h-381.610667l64 64H832a42.666667 42.666667 0 0 1 42.666667 42.666666v469.333334a42.666667 42.666667 0 0 1-42.666667 42.666666h-640a42.666667 42.666667 0 0 1-42.666667-42.666666v-153.002667l-64-64zM256 74.666667a32 32 0 1 1 64 0v53.973333c19.2 1.706667 37.973333 9.941333 52.693333 24.661333l150.869334 150.869334a85.333333 85.333333 0 0 1 0 120.661333L342.485333 605.866667a85.333333 85.333333 0 0 1-120.704 0l-150.826666-150.869334a85.333333 85.333333 0 0 1 0-120.661333l181.034666-181.034667c1.28-1.28 2.602667-2.56 3.968-3.712V74.666667z m0 192v-26.837334l-123.306667 123.306667h351.786667a21.248 21.248 0 0 0-6.186667-13.738667L327.424 198.570667A21.248 21.248 0 0 0 320 193.706667v72.96a32 32 0 0 1-64 0z m-122.368 160.426666l133.461333 133.546667a21.333333 21.333333 0 0 0 30.165334 0l133.504-133.546667H133.632zM469.333333 570.666667c0-21.034667 6.570667-41.472 14.592-58.922667 8.106667-17.749333 18.688-34.389333 28.714667-48.384 10.154667-14.122667 20.224-26.154667 27.733333-34.645333 3.626667-4.138667 10.24-11.136 12.757334-13.781334l0.213333-0.213333a32 32 0 0 1 45.269333 0l13.013334 13.994667c7.509333 8.490667 17.578667 20.48 27.690666 34.645333 10.069333 13.994667 20.608 30.634667 28.757334 48.384 8.021333 17.450667 14.592 37.888 14.592 58.922667C682.666667 629.973333 638.72 682.666667 576 682.666667c-62.762667 0-106.666667-52.693333-106.666667-112z m95.317334-69.973334c-8.618667 11.946667-16.725333 24.96-22.613334 37.76-5.973333 13.013333-8.704 23.893333-8.704 32.213334 0 29.482667 20.48 48 42.666667 48 22.144 0 42.666667-18.517333 42.666667-48 0-8.277333-2.773333-19.2-8.746667-32.213334a234.410667 234.410667 0 0 0-22.613333-37.802666 359.125333 359.125333 0 0 0-11.306667-14.933334 355.413333 355.413333 0 0 0-11.349333 14.933334z" /></svg>