<svg class="icon" style="width: 1em;height: 1em;vertical-align: middle;fill: currentColor;overflow: hidden;" viewBox="0 0 1024 1024" version="1.1" xmlns="http://www.w3.org/2000/svg"><path d="M186.88 597.461333A106.666667 106.666667 0 0 0 85.333333 704v128A106.666667 106.666667 0 0 0 192 938.666667h640a106.666667 106.666667 0 0 0 106.666667-106.666667v-128a106.666667 106.666667 0 0 0-106.666667-106.666667h-254.037333l-56.149334 56.064a138.112 138.112 0 0 1-8.661333 7.936H832a42.666667 42.666667 0 0 1 42.666667 42.666667v128a42.666667 42.666667 0 0 1-42.666667 42.666667h-640a42.666667 42.666667 0 0 1-42.666667-42.666667v-128a42.666667 42.666667 0 0 1 21.504-37.077333 85.333333 85.333333 0 0 1 3.925334-31.744l12.16-37.717334zM795.648 125.610667a137.301333 137.301333 0 0 1-0.085333 194.176l-303.914667 303.402666a96 96 0 0 1-40.192 24.021334l-183.210667 54.997333a42.666667 42.666667 0 0 1-52.864-53.973333l58.112-180.394667c4.693333-14.506667 12.714667-27.733333 23.552-38.485333l304.298667-303.872a137.386667 137.386667 0 0 1 194.304 0.128z m-149.077333 45.184l-304.341334 303.829333a32 32 0 0 0-7.850666 12.842667l-45.653334 141.738666 144.298667-43.306666a32 32 0 0 0 13.44-7.978667l303.829333-303.36a73.301333 73.301333 0 1 0-103.68-103.765333z" /></svg>