<svg class="icon" style="width: 1em;height: 1em;vertical-align: middle;fill: currentColor;overflow: hidden;" viewBox="0 0 1024 1024" version="1.1" xmlns="http://www.w3.org/2000/svg"><path d="M224 245.333333c0-29.44-23.893333-53.333333-53.333333-53.333333h-32a32 32 0 0 1 0-64H170.666667a117.333333 117.333333 0 0 1 117.333333 117.333333v533.333334A117.333333 117.333333 0 0 1 170.666667 896h-32a32 32 0 0 1 0-64H170.666667c29.44 0 53.333333-23.893333 53.333333-53.333333V245.333333z m234.666667-53.333333c-29.44 0-53.333333 23.893333-53.333334 53.333333v533.333334c0 29.44 23.893333 53.333333 53.333334 53.333333h33.749333a142.037333 142.037333 0 0 0-0.853333 3.285333L476.373333 896h-17.706666A117.333333 117.333333 0 0 1 341.333333 778.666667V245.333333A117.333333 117.333333 0 0 1 458.666667 128h106.666666A117.333333 117.333333 0 0 1 682.666667 245.333333v367.146667l-64 64V245.333333c0-29.44-23.893333-53.333333-53.333334-53.333333h-106.666666zM810.666667 245.333333v244.608c-9.216 5.632-17.92 12.458667-25.898667 20.48l-38.101333 38.058667V245.333333A117.333333 117.333333 0 0 1 864 128H896a32 32 0 0 1 0 64h-32c-29.44 0-53.333333 23.893333-53.333333 53.333333z m4.266666 295.253334l-251.861333 251.818666a114.602667 114.602667 0 0 0-30.122667 53.205334l-19.541333 78.122666a46.378667 46.378667 0 0 0 56.277333 56.234667l78.08-19.498667a114.56 114.56 0 0 0 53.248-30.165333l251.818667-251.818667A97.536 97.536 0 0 0 814.933333 540.586667z" /></svg>