<svg class="icon" style="width: 1em;height: 1em;vertical-align: middle;fill: currentColor;overflow: hidden;" viewBox="0 0 1024 1024" version="1.1" xmlns="http://www.w3.org/2000/svg"><path d="M266.112 128c41.258667 0 74.666667 33.450667 74.666667 74.666667v618.666666A74.666667 74.666667 0 0 1 266.112 896h-106.666667a74.666667 74.666667 0 0 1-74.666666-74.666667V202.666667a74.666667 74.666667 0 0 1 68.565333-74.368L159.445333 128h106.666667z m598.442667 0c41.258667 0 74.666667 33.450667 74.666666 74.666667v618.666666a74.666667 74.666667 0 0 1-74.666666 74.666667h-106.666667a74.666667 74.666667 0 0 1-74.666667-74.666667V202.666667c0-41.216 33.450667-74.666667 74.666667-74.666667h106.666667z m-299.776 0c41.258667 0 74.666667 33.450667 74.666666 74.666667v618.666666a74.666667 74.666667 0 0 1-74.666666 74.666667h-106.666667a74.666667 74.666667 0 0 1-74.666667-74.666667V202.666667c0-41.216 33.450667-74.666667 74.666667-74.666667h106.666667z m-298.666667 64h-106.666667l-2.432 0.298667a10.666667 10.666667 0 0 0-8.234666 10.410666v618.666667c0 5.888 4.778667 10.666667 10.666666 10.666667h106.666667a10.666667 10.666667 0 0 0 10.666667-10.666667V202.666667a10.666667 10.666667 0 0 0-10.666667-10.666667z m598.442667 0h-106.666667a10.666667 10.666667 0 0 0-10.666667 10.666667v618.666666c0 5.930667 4.778667 10.666667 10.666667 10.666667h106.666667a10.666667 10.666667 0 0 0 10.666666-10.666667V202.666667a10.666667 10.666667 0 0 0-10.666666-10.666667z m-299.776 0h-106.666667a10.666667 10.666667 0 0 0-10.666667 10.666667v618.666666c0 5.888 4.778667 10.666667 10.666667 10.666667h106.666667a10.666667 10.666667 0 0 0 10.666666-10.666667V202.666667a10.666667 10.666667 0 0 0-10.666666-10.666667z" /></svg>