<svg class="icon" style="width: 1em;height: 1em;vertical-align: middle;fill: currentColor;overflow: hidden;" viewBox="0 0 1024 1024" version="1.1" xmlns="http://www.w3.org/2000/svg"><path d="M266.112 128c41.258667 0 74.666667 33.450667 74.666667 74.666667v618.666666A74.666667 74.666667 0 0 1 266.112 896h-106.666667a74.666667 74.666667 0 0 1-74.666666-74.666667V202.666667a74.666667 74.666667 0 0 1 68.565333-74.368L159.445333 128h106.666667z m0 64h-106.666667l-2.432 0.298667a10.666667 10.666667 0 0 0-8.234666 10.410666v618.666667c0 5.888 4.778667 10.666667 10.666666 10.666667h106.666667a10.666667 10.666667 0 0 0 10.666667-10.666667V202.666667a10.666667 10.666667 0 0 0-10.666667-10.666667zM864.554667 128c41.258667 0 74.666667 33.450667 74.666666 74.666667v278.016a140.501333 140.501333 0 0 0-64-11.093334V202.709333a10.666667 10.666667 0 0 0-10.666666-10.666666h-106.666667a10.666667 10.666667 0 0 0-10.666667 10.666666v345.173334l-64 64v-409.173334c0-41.258667 33.450667-74.666667 74.666667-74.666666h106.666667z m10.666666 688.426667l64-64v68.949333a74.666667 74.666667 0 0 1-74.666666 74.666667h-68.906667l64-64h4.906667a10.666667 10.666667 0 0 0 10.666666-10.666667v-4.949333zM639.445333 202.666667v453.034666l-64 64V202.666667a10.666667 10.666667 0 0 0-10.666666-10.666667h-106.666667a10.666667 10.666667 0 0 0-10.666667 10.666667v618.666666c0 5.888 4.778667 10.666667 10.666667 10.666667h34.304a167.68 167.68 0 0 0-0.853333 3.285333L476.373333 896h-18.261333a74.666667 74.666667 0 0 1-74.666667-74.666667V202.666667c0-41.216 33.450667-74.666667 74.666667-74.666667h106.666667c41.258667 0 74.666667 33.450667 74.666666 74.666667z m175.488 337.92l-251.818666 251.818666a114.517333 114.517333 0 0 0-30.165334 53.205334l-19.498666 78.122666a46.378667 46.378667 0 0 0 56.234666 56.234667l78.08-19.498667a114.517333 114.517333 0 0 0 53.248-30.165333l251.818667-251.818667A97.493333 97.493333 0 1 0 814.933333 540.586667z" /></svg>