<svg class="icon" style="width: 1em;height: 1em;vertical-align: middle;fill: currentColor;overflow: hidden;" viewBox="0 0 1024 1024" version="1.1" xmlns="http://www.w3.org/2000/svg"><path d="M512.938667 128a276.181333 276.181333 0 0 0-30.250667 64H224A74.666667 74.666667 0 0 0 149.333333 266.666667v362.666666c0 41.216 33.450667 74.666667 74.666667 74.666667h95.957333v160l213.973334-160h266.069333a74.666667 74.666667 0 0 0 74.666667-74.666667l0.042666-105.941333a278.058667 278.058667 0 0 0 64-45.952L938.666667 629.333333A138.666667 138.666667 0 0 1 800 768h-244.821333L341.333333 928a53.333333 53.333333 0 0 1-85.290666-42.666667V768h-32A138.666667 138.666667 0 0 1 85.333333 629.333333v-362.666666A138.666667 138.666667 0 0 1 224 128h288.938667zM746.666667 42.666667a234.666667 234.666667 0 1 1 0 469.333333 234.666667 234.666667 0 0 1 0-469.333333z m0 64l-3.84 0.341333a21.333333 21.333333 0 0 0-17.152 17.152L725.333333 128l-0.042666 128H597.333333l-3.84 0.341333a21.333333 21.333333 0 0 0-17.152 17.152l-0.341333 3.84 0.341333 3.84a21.333333 21.333333 0 0 0 17.152 17.152L597.333333 298.666667h127.957334L725.333333 426.666667l0.341334 3.84a21.333333 21.333333 0 0 0 17.152 17.152l3.84 0.341333 3.84-0.341333a21.333333 21.333333 0 0 0 17.152-17.152L768 426.666667l-0.042667-128H896l3.84-0.341334a21.333333 21.333333 0 0 0 17.152-17.152l0.341333-3.84-0.341333-3.84a21.333333 21.333333 0 0 0-17.152-17.152L896 256h-128.042667L768 128l-0.341333-3.84a21.333333 21.333333 0 0 0-17.152-17.152L746.666667 106.666667z" /></svg>