<svg class="icon" style="width: 1em;height: 1em;vertical-align: middle;fill: currentColor;overflow: hidden;" viewBox="0 0 1024 1024" version="1.1" xmlns="http://www.w3.org/2000/svg"><path d="M512 128a85.333333 85.333333 0 0 1 85.333333-85.333333h298.666667a85.333333 85.333333 0 0 1 85.333333 85.333333v256a85.333333 85.333333 0 0 1-85.333333 85.333333h-298.666667a85.333333 85.333333 0 0 1-85.333333-85.333333V128z m106.666667 42.666667a21.333333 21.333333 0 0 0 0 42.666666h256a21.333333 21.333333 0 0 0 0-42.666666h-256z m0 128a21.333333 21.333333 0 0 0 0 42.666666h256a21.333333 21.333333 0 0 0 0-42.666666h-256zM224 128H469.333333v64H224A74.666667 74.666667 0 0 0 149.333333 266.666667v362.666666c0 41.216 33.450667 74.666667 74.666667 74.666667h95.957333v160l213.973334-160h266.069333a74.666667 74.666667 0 0 0 74.666667-74.666667V512h21.333333c14.933333 0 29.312-2.56 42.666667-7.253333v124.586666A138.666667 138.666667 0 0 1 800 768h-244.821333L341.333333 928a53.333333 53.333333 0 0 1-85.290666-42.666667V768h-32A138.666667 138.666667 0 0 1 85.333333 629.333333v-362.666666A138.666667 138.666667 0 0 1 224 128z" /></svg>