<svg class="icon" style="width: 1em;height: 1em;vertical-align: middle;fill: currentColor;overflow: hidden;" viewBox="0 0 1024 1024" version="1.1" xmlns="http://www.w3.org/2000/svg"><path d="M213.717333 213.717333A138.666667 138.666667 0 0 1 352 85.333333h384A202.666667 202.666667 0 0 1 938.666667 288v256a138.666667 138.666667 0 0 1-128.384 138.282667A138.666667 138.666667 0 0 1 672 810.666667h-216.874667L298.666667 928c-35.157333 26.368-85.333333 1.28-85.333334-42.666667v-75.093333a138.666667 138.666667 0 0 1-128-138.24v-320a138.666667 138.666667 0 0 1 128.384-138.282667zM278.101333 213.333333h393.898667A138.666667 138.666667 0 0 1 810.666667 352v265.898667a74.666667 74.666667 0 0 0 64-73.898667v-256a138.666667 138.666667 0 0 0-138.666667-138.666667h-384A74.666667 74.666667 0 0 0 278.101333 213.333333zM224 746.666667H277.333333v117.333333l156.458667-117.333333h238.208a74.666667 74.666667 0 0 0 74.666667-74.666667v-320a74.666667 74.666667 0 0 0-74.666667-74.666667H224A74.666667 74.666667 0 0 0 149.333333 352v320c0 41.216 33.450667 74.666667 74.666667 74.666667z" /></svg>