<svg class="icon" style="width: 1em;height: 1em;vertical-align: middle;fill: currentColor;overflow: hidden;" viewBox="0 0 1024 1024" version="1.1" xmlns="http://www.w3.org/2000/svg"><path d="M512.938667 128a276.181333 276.181333 0 0 0-30.250667 64H224A74.666667 74.666667 0 0 0 149.333333 266.666667v362.666666c0 41.216 33.450667 74.666667 74.666667 74.666667h95.957333v160l213.973334-160h266.069333a74.666667 74.666667 0 0 0 74.666667-74.666667l0.042666-105.941333a278.058667 278.058667 0 0 0 64-45.952L938.666667 629.333333A138.666667 138.666667 0 0 1 800 768h-244.821333L341.333333 928a53.333333 53.333333 0 0 1-85.290666-42.666667V768h-32A138.666667 138.666667 0 0 1 85.333333 629.333333v-362.666666A138.666667 138.666667 0 0 1 224 128h288.938667zM746.666667 42.666667a234.666667 234.666667 0 1 1 0 469.333333 234.666667 234.666667 0 0 1 0-469.333333z m-118.784 110.464l-2.986667 2.432-2.432 2.986666a21.333333 21.333333 0 0 0 0 24.234667l2.432 2.986667L716.501333 277.333333l-91.605333 91.562667-2.432 2.986667a21.333333 21.333333 0 0 0 0 24.234666l2.432 2.986667 2.986667 2.432a21.333333 21.333333 0 0 0 24.234666 0l2.986667-2.432L746.666667 307.498667l91.562666 91.605333 2.986667 2.432a21.333333 21.333333 0 0 0 24.234667 0l2.986666-2.432 2.432-2.986667a21.333333 21.333333 0 0 0 0-24.234666l-2.432-2.986667L776.832 277.333333l91.605333-91.562666 2.432-2.986667a21.333333 21.333333 0 0 0 0-24.234667l-2.432-2.986666-2.986666-2.432a21.333333 21.333333 0 0 0-24.234667 0l-2.986667 2.432L746.666667 247.168l-91.562667-91.605333-2.986667-2.432a21.333333 21.333333 0 0 0-20.992-1.877334l-3.242666 1.877334z" /></svg>