<svg class="icon" style="width: 1em;height: 1em;vertical-align: middle;fill: currentColor;overflow: hidden;" viewBox="0 0 1024 1024" version="1.1" xmlns="http://www.w3.org/2000/svg"><path d="M512 192a362.666667 362.666667 0 0 0-256.682667 618.88 32 32 0 0 1-45.269333 45.226667A425.429333 425.429333 0 0 1 85.333333 554.666667C85.333333 319.018667 276.352 128 512 128s426.666667 191.018667 426.666667 426.666667c0 52.522667-9.514667 102.826667-26.88 149.333333h-34.986667a159.573333 159.573333 0 0 0 51.2-117.333333 159.573333 159.573333 0 0 0-66.730667-130.048A362.837333 362.837333 0 0 0 512 192z m96 394.666667c0-18.261333 3.072-35.84 8.746667-52.224a106.666667 106.666667 0 1 0-8.192 65.578666 161.408 161.408 0 0 1-0.554667-13.354666zM469.333333 554.666667a42.666667 42.666667 0 1 1 85.333334 0 42.666667 42.666667 0 0 1-85.333334 0z m225.365334-110.250667c19.2-9.941333 40.746667-16.085333 63.573333-17.493333a277.333333 277.333333 0 1 0-442.24 323.925333 32 32 0 1 0 45.226667-45.226667 213.333333 213.333333 0 1 1 333.44-261.12zM853.333333 506.112A117.12 117.12 0 0 0 768 469.333333a117.333333 117.333333 0 1 0 85.333333 36.778667zM618.666667 746.666667h-0.597334A64 64 0 0 0 554.666667 810.666667v21.333333c0 21.76 5.290667 43.648 15.488 64.170667a176.213333 176.213333 0 0 0 55.125333 64c35.669333 25.813333 83.925333 42.496 142.762667 42.496 133.973333 0 213.333333-86.570667 213.333333-170.666667V810.666667a64 64 0 0 0-64-64h-298.666667z" /></svg>