<svg class="icon" style="width: 1em;height: 1em;vertical-align: middle;fill: currentColor;overflow: hidden;" viewBox="0 0 1024 1024" version="1.1" xmlns="http://www.w3.org/2000/svg"><path d="M512.981333 127.957333a276.053333 276.053333 0 0 0-30.293333 64L224 192A74.666667 74.666667 0 0 0 149.333333 266.666667v362.666666c0 41.216 33.450667 74.666667 74.666667 74.666667h95.957333v160l213.973334-160h266.069333a74.666667 74.666667 0 0 0 74.666667-74.666667l0.042666-105.941333a278.058667 278.058667 0 0 0 64-45.952L938.666667 629.333333A138.666667 138.666667 0 0 1 800 768h-244.821333L341.333333 928a53.333333 53.333333 0 0 1-85.290666-42.666667V768h-32A138.666667 138.666667 0 0 1 85.333333 629.333333v-362.666666A138.666667 138.666667 0 0 1 224 128l288.981333-0.042667zM746.666667 42.666667a234.666667 234.666667 0 1 1 0 469.333333 234.666667 234.666667 0 0 1 0-469.333333z m9.216 110.464l-2.986667 2.432-2.432 2.986666a21.333333 21.333333 0 0 0 0 24.234667l2.432 2.986667L823.125333 256H597.333333l-3.84 0.341333a21.333333 21.333333 0 0 0-17.152 17.152l-0.341333 3.84 0.341333 3.84a21.333333 21.333333 0 0 0 17.152 17.152L597.333333 298.666667h225.792l-70.229333 70.229333-2.432 2.986667a21.333333 21.333333 0 0 0 29.653333 29.653333l2.986667-2.432 108.416-108.714667 1.408-2.048 1.450667-2.858666 0.896-2.688 0.64-3.498667L896 277.333333l-0.128-2.261333-0.597333-3.2-1.28-3.541333-1.792-3.157334-1.92-2.389333-107.178667-107.221333-2.986667-2.432a21.333333 21.333333 0 0 0-24.234666 0z" /></svg>