<svg class="icon" style="width: 1em;height: 1em;vertical-align: middle;fill: currentColor;overflow: hidden;" viewBox="0 0 1024 1024" version="1.1" xmlns="http://www.w3.org/2000/svg"><path d="M768 85.290667A170.666667 170.666667 0 0 0 768 426.666667c35.242667 0 67.754667-10.282667 94.805333-28.416a21.333333 21.333333 0 0 1 23.722667 35.456A211.882667 211.882667 0 0 1 768 469.333333a213.333333 213.333333 0 1 1 213.333333-213.333333v32a74.666667 74.666667 0 0 1-136.448 41.898667A106.666667 106.666667 0 1 1 832 170.666667a21.333333 21.333333 0 0 1 42.666667 0v117.333333a32 32 0 0 0 64 0v-32.554667a170.666667 170.666667 0 0 0-170.666667-170.112z m-64 170.666666a64 64 0 1 0 128 0 64 64 0 0 0-128 0zM938.666667 629.333333v-182.528c-18.986667 16.981333-40.533333 31.189333-64 41.984v140.544a74.666667 74.666667 0 0 1-74.666667 74.666667h-266.069333L320 864l-0.042667-160H224a74.666667 74.666667 0 0 1-74.666667-74.666667v-362.666666c0-41.258667 33.450667-74.666667 74.666667-74.666667h296.064a254.421333 254.421333 0 0 1 26.197333-64H224A138.666667 138.666667 0 0 0 85.333333 266.666667v362.666666A138.666667 138.666667 0 0 0 224 768H256v117.333333a53.333333 53.333333 0 0 0 85.290667 42.666667L555.178667 768h244.821333A138.666667 138.666667 0 0 0 938.666667 629.333333z" /></svg>