<svg class="icon" style="width: 1em;height: 1em;vertical-align: middle;fill: currentColor;overflow: hidden;" viewBox="0 0 1024 1024" version="1.1" xmlns="http://www.w3.org/2000/svg"><path d="M213.717333 213.717333A138.666667 138.666667 0 0 1 352 85.333333h384A202.666667 202.666667 0 0 1 938.666667 288v256c0 15.146667-2.432 29.738667-6.912 43.349333a201.728 201.728 0 0 0-59.093334-26.112c1.28-5.546667 2.005333-11.306667 2.005334-17.237333v-256a138.666667 138.666667 0 0 0-138.666667-138.666667h-384A74.666667 74.666667 0 0 0 278.101333 213.333333h393.898667A138.666667 138.666667 0 0 1 810.666667 352V554.666667h-64V352a74.666667 74.666667 0 0 0-74.666667-74.666667H224A74.666667 74.666667 0 0 0 149.333333 352v320c0 41.216 33.450667 74.666667 74.666667 74.666667H277.333333v117.333333l156.458667-117.333333h35.84a205.610667 205.610667 0 0 0 6.826667 64h-21.333334L298.666667 928c-35.157333 26.368-85.333333 1.28-85.333334-42.666667v-75.093333a138.666667 138.666667 0 0 1-128-138.24v-320a138.666667 138.666667 0 0 1 128.384-138.282667zM981.333333 757.333333A160 160 0 0 0 821.333333 597.333333l-4.352 0.298667a32 32 0 0 0 4.352 63.701333l6.570667 0.213334A96 96 0 0 1 821.333333 853.333333l-0.128 0.213334-4.352 0.298666a32 32 0 0 0 4.608 63.701334V917.333333l8.533334-0.213333A160 160 0 0 0 981.333333 757.333333z m-277.333333-128a32 32 0 0 0-32-32l-8.533333 0.213334a160 160 0 0 0 8.533333 319.786666l4.352-0.298666A32 32 0 0 0 672 853.333333l-6.570667-0.213333a96 96 0 0 1 6.570667-191.786667l4.352-0.298666a32 32 0 0 0 27.648-31.701334z m149.333333 128a32 32 0 0 0-32-32h-149.333333l-4.352 0.298667a32 32 0 0 0 4.352 63.701333h149.333333l4.352-0.298666A32 32 0 0 0 853.333333 757.333333z" /></svg>