<svg class="icon" style="width: 1em;height: 1em;vertical-align: middle;fill: currentColor;overflow: hidden;" viewBox="0 0 1024 1024" version="1.1" xmlns="http://www.w3.org/2000/svg"><path d="M85.333333 629.333333A138.666667 138.666667 0 0 0 224 768H256v117.333333a53.333333 53.333333 0 0 0 85.290667 42.666667l90.666666-67.84 16.896-67.541333c3.029333-12.202667 7.552-23.893333 13.312-34.986667L320 864.085333 319.957333 704H224a74.666667 74.666667 0 0 1-74.666667-74.666667v-362.666666c0-41.216 33.450667-74.666667 74.666667-74.666667h576c41.216 0 74.666667 33.450667 74.666667 74.666667v164.053333a139.52 139.52 0 0 1 64 35.413333V266.666667A138.666667 138.666667 0 0 0 800 128H224A138.666667 138.666667 0 0 0 85.333333 266.666667v362.666666zM772.181333 497.92l-251.818666 251.818667a114.517333 114.517333 0 0 0-30.165334 53.205333l-19.541333 78.122667a46.378667 46.378667 0 0 0 56.277333 56.234666l78.08-19.498666a114.517333 114.517333 0 0 0 53.248-30.165334l251.818667-251.818666a97.493333 97.493333 0 1 0-137.898667-137.898667z" /></svg>