<svg class="icon" style="width: 1em;height: 1em;vertical-align: middle;fill: currentColor;overflow: hidden;" viewBox="0 0 1024 1024" version="1.1" xmlns="http://www.w3.org/2000/svg"><path d="M213.717333 213.717333A138.666667 138.666667 0 0 1 352 85.333333h384A202.666667 202.666667 0 0 1 938.666667 288v258.56a278.144 278.144 0 0 0-64-45.994667V288a138.666667 138.666667 0 0 0-138.666667-138.666667h-384A74.666667 74.666667 0 0 0 278.101333 213.333333h393.898667A138.666667 138.666667 0 0 1 810.666667 352v124.757333A278.186667 278.186667 0 0 0 746.666667 469.333333V352a74.666667 74.666667 0 0 0-74.666667-74.666667H224A74.666667 74.666667 0 0 0 149.333333 352v320c0 41.216 33.450667 74.666667 74.666667 74.666667H277.333333v117.333333l156.458667-117.333333H469.333333c0 22.016 2.56 43.434667 7.424 64h-21.632L298.666667 928c-35.157333 26.368-85.333333 1.28-85.333334-42.666667v-75.093333a138.666667 138.666667 0 0 1-128-138.24v-320a138.666667 138.666667 0 0 1 128.384-138.282667zM981.333333 746.666667a234.666667 234.666667 0 1 0-469.333333 0 234.666667 234.666667 0 0 0 469.333333 0z m-91.562666-100.437334a21.333333 21.333333 0 0 1 0 30.208l-170.666667 170.666667a21.333333 21.333333 0 0 1-30.208 0l-85.333333-85.333333a21.333333 21.333333 0 0 1 30.208-30.208l70.229333 70.272 155.562667-155.605334a21.333333 21.333333 0 0 1 30.208 0z" /></svg>