<svg class="icon" style="width: 1em;height: 1em;vertical-align: middle;fill: currentColor;overflow: hidden;" viewBox="0 0 1024 1024" version="1.1" xmlns="http://www.w3.org/2000/svg"><path d="M512.981333 127.957333a276.053333 276.053333 0 0 0-30.293333 64L224 192A74.666667 74.666667 0 0 0 149.333333 266.666667v362.666666c0 41.216 33.450667 74.666667 74.666667 74.666667h95.957333v160l213.973334-160h266.069333a74.666667 74.666667 0 0 0 74.666667-74.666667l0.042666-105.941333a278.058667 278.058667 0 0 0 64-45.952L938.666667 629.333333A138.666667 138.666667 0 0 1 800 768h-244.821333L341.333333 928a53.333333 53.333333 0 0 1-85.290666-42.666667V768h-32A138.666667 138.666667 0 0 1 85.333333 629.333333v-362.666666A138.666667 138.666667 0 0 1 224 128l288.981333-0.042667zM746.666667 42.666667a234.666667 234.666667 0 1 1 0 469.333333 234.666667 234.666667 0 0 1 0-469.333333z m-54.784 110.464l-2.986667 2.432-107.861333 108.032-1.28 1.578666-1.749334 3.157334-1.28 3.541333-0.64 3.498667-0.085333 2.858666 0.341333 2.901334 0.64 2.645333 1.024 2.56 1.28 2.389333 1.706667 2.346667 107.946667 108.032a21.333333 21.333333 0 0 0 32.597333-27.221333l-2.432-2.986667L648.874667 298.666667H874.666667a21.333333 21.333333 0 0 0 20.992-17.493334L896 277.333333a21.333333 21.333333 0 0 0-17.493333-20.992L874.666667 256h-225.792l70.229333-70.229333a21.333333 21.333333 0 0 0 2.432-27.221334l-2.432-2.986666a21.333333 21.333333 0 0 0-27.221333-2.432z" /></svg>