<svg class="icon" style="width: 1em;height: 1em;vertical-align: middle;fill: currentColor;overflow: hidden;" viewBox="0 0 1024 1024" version="1.1" xmlns="http://www.w3.org/2000/svg"><path d="M981.333333 277.333333a234.666667 234.666667 0 1 1-469.333333 0 234.666667 234.666667 0 0 1 469.333333 0zM790.570667 128h-61.141334a21.333333 21.333333 0 0 0-19.968 13.824l-48 128a21.333333 21.333333 0 0 0 20.010667 28.842667h33.194667l-32.981334 98.901333a22.101333 22.101333 0 0 0 39.509334 19.029333l112-172.288A20.053333 20.053333 0 0 0 816.426667 213.333333H789.333333l21.205334-56.490666A21.333333 21.333333 0 0 0 790.570667 128zM874.666667 629.333333v-105.898666A278.101333 278.101333 0 0 0 938.666667 477.44v151.893333A138.666667 138.666667 0 0 1 800 768h-244.821333L341.333333 928a53.333333 53.333333 0 0 1-85.290666-42.666667V768h-32A138.666667 138.666667 0 0 1 85.333333 629.333333v-362.666666A138.666667 138.666667 0 0 1 224 128h288.938667a276.138667 276.138667 0 0 0-30.250667 64H224A74.666667 74.666667 0 0 0 149.333333 266.666667v362.666666c0 41.258667 33.450667 74.666667 74.666667 74.666667h95.957333v160l213.973334-160h266.069333a74.666667 74.666667 0 0 0 74.666667-74.666667z" /></svg>