<svg class="icon" style="width: 1em;height: 1em;vertical-align: middle;fill: currentColor;overflow: hidden;" viewBox="0 0 1024 1024" version="1.1" xmlns="http://www.w3.org/2000/svg"><path d="M512 192a362.666667 362.666667 0 0 0-256.682667 618.88 32 32 0 0 1-45.269333 45.226667A425.429333 425.429333 0 0 1 85.333333 554.666667C85.333333 319.018667 276.352 128 512 128s426.666667 191.018667 426.666667 426.666667a425.429333 425.429333 0 0 1-124.714667 301.44 32 32 0 0 1-45.269333-45.226667A362.666667 362.666667 0 0 0 512 192zM512 341.333333a213.333333 213.333333 0 0 0-150.784 364.245334 32 32 0 0 1-45.226667 45.269333 277.333333 277.333333 0 1 1 392.021334 0 32 32 0 0 1-45.226667-45.226667A213.333333 213.333333 0 0 0 512 341.333333zM512 448a106.666667 106.666667 0 1 0 0 213.333333 106.666667 106.666667 0 0 0 0-213.333333zM469.333333 554.666667a42.666667 42.666667 0 1 1 85.333334 0 42.666667 42.666667 0 0 1-85.333334 0z" /></svg>