<svg class="icon" style="width: 1em;height: 1em;vertical-align: middle;fill: currentColor;overflow: hidden;" viewBox="0 0 1024 1024" version="1.1" xmlns="http://www.w3.org/2000/svg"><path d="M139.946667 94.72a32 32 0 1 0-45.226667 45.226667l29.952 29.952A138.24 138.24 0 0 0 85.333333 266.666667v362.666666A138.666667 138.666667 0 0 0 224 768H256v117.333333a53.333333 53.333333 0 0 0 85.290667 42.666667L555.178667 768h167.552l161.28 161.28a32 32 0 0 0 45.269333-45.226667L139.946667 94.72zM658.773333 704h-124.842666L320 864l-0.042667-160H224a74.666667 74.666667 0 0 1-74.666667-74.666667v-362.666666c0-19.968 7.850667-38.101333 20.608-51.498667L658.730667 704zM874.666667 629.333333a74.666667 74.666667 0 0 1-42.282667 67.285334l46.634667 46.677333A138.496 138.496 0 0 0 938.666667 629.333333v-362.666666A138.666667 138.666667 0 0 0 800 128H263.765333l64 64H800c41.216 0 74.666667 33.450667 74.666667 74.666667v362.666666z" /></svg>