<svg class="icon" style="width: 1em;height: 1em;vertical-align: middle;fill: currentColor;overflow: hidden;" viewBox="0 0 1024 1024" version="1.1" xmlns="http://www.w3.org/2000/svg"><path d="M512 683.392a32 32 0 0 0 31.701333-27.648l0.298667-4.352V194.645333l94.72 94.634667a32 32 0 0 0 41.642667 3.114667l3.584-3.114667a32 32 0 0 0 3.114666-41.642667l-3.114666-3.584-149.333334-149.333333a32 32 0 0 0-41.642666-3.114667l-3.584 3.114667-149.333334 149.333333a32 32 0 0 0 41.642667 48.341334l3.584-3.114667 94.72-94.634667v456.746667c0 17.664 14.336 32 32 32z m0 256a298.666667 298.666667 0 0 0 74.666667-587.946667v66.730667a234.666667 234.666667 0 1 1-149.333334 0V351.445333A298.666667 298.666667 0 0 0 512 939.392z m0-106.666667a192 192 0 0 0 74.709333-368.938666v72.96a128 128 0 1 1-149.333333 0l-0.042667-72.96A192.042667 192.042667 0 0 0 512 832.725333z" /></svg>