<svg class="icon" style="width: 1em;height: 1em;vertical-align: middle;fill: currentColor;overflow: hidden;" viewBox="0 0 1024 1024" version="1.1" xmlns="http://www.w3.org/2000/svg"><path d="M371.498667 302.250667c-43.52-17.365333-86.613333 25.770667-69.290667 69.290666l68.522667 171.861334a202.666667 202.666667 0 0 0 108.416 111.232l184.533333 79.104c44.288 18.986667 89.002667-25.770667 70.058667-70.016l-79.104-184.576a202.666667 202.666667 0 0 0-111.232-108.416L371.498667 302.250667z m58.666666 217.429333l-59.306666-148.821333 148.821333 59.306666a138.666667 138.666667 0 0 1 76.117333 74.24l68.608 160-160.042666-68.565333a138.666667 138.666667 0 0 1-74.197334-76.16zM512 85.333333C276.352 85.333333 85.333333 276.352 85.333333 512s191.018667 426.666667 426.666667 426.666667 426.666667-191.018667 426.666667-426.666667S747.648 85.333333 512 85.333333z m-330.666667 384h-29.525333A362.837333 362.837333 0 0 1 469.333333 151.808v29.525333a32 32 0 0 0 64 0v-31.402666A362.752 362.752 0 0 1 872.192 469.333333h-29.525333a32 32 0 0 0 0 64h31.36a362.709333 362.709333 0 0 1-340.693334 340.693334v-31.36a32 32 0 0 0-64 0v29.525333A362.752 362.752 0 0 1 149.930667 533.333333h31.402666a32 32 0 0 0 0-64z" /></svg>