<svg class="icon" style="width: 1em;height: 1em;vertical-align: middle;fill: currentColor;overflow: hidden;" viewBox="0 0 1024 1024" version="1.1" xmlns="http://www.w3.org/2000/svg"><path d="M929.28 139.946667a32 32 0 1 0-45.226667-45.226667l-426.666666 426.666667-20.053334 65.28 65.28-20.053334 426.666667-426.666666zM266.666667 128A138.666667 138.666667 0 0 0 128 266.666667v490.666666A138.666667 138.666667 0 0 0 266.666667 896h490.666666A138.666667 138.666667 0 0 0 896 757.333333v-341.333333a32 32 0 0 0-64 0v341.333333a74.666667 74.666667 0 0 1-74.666667 74.666667H266.666667a74.666667 74.666667 0 0 1-74.666667-74.666667V266.666667c0-41.216 33.450667-74.666667 74.666667-74.666667h341.333333a32 32 0 0 0 0-64h-341.333333z" /></svg>