<svg class="icon" style="width: 1em;height: 1em;vertical-align: middle;fill: currentColor;overflow: hidden;" viewBox="0 0 1024 1024" version="1.1" xmlns="http://www.w3.org/2000/svg"><path d="M512 341.333333a32 32 0 0 1 31.701333 27.648l0.298667 4.352v456.746667l94.72-94.634667a32 32 0 0 1 41.642667-3.114666l3.584 3.072a32 32 0 0 1 3.114666 41.685333l-3.114666 3.584-149.333334 149.333333a32 32 0 0 1-41.642666 3.114667l-3.584-3.114667-149.333334-149.333333a32 32 0 0 1 41.642667-48.341333l3.584 3.072 94.72 94.677333V373.333333A32 32 0 0 1 512 341.333333z m0-256a298.666667 298.666667 0 0 1 74.666667 587.946667v-66.730667a234.666667 234.666667 0 1 0-149.333334 0v66.688A298.666667 298.666667 0 0 1 512 85.333333z m0 106.666667a192 192 0 0 1 74.709333 368.938667v-72.96a128 128 0 1 0-149.333333 0l-0.042667 72.96A192.042667 192.042667 0 0 1 512 192z" /></svg>