<svg class="icon" style="width: 1em;height: 1em;vertical-align: middle;fill: currentColor;overflow: hidden;" viewBox="0 0 1024 1024" version="1.1" xmlns="http://www.w3.org/2000/svg"><path d="M461.696 85.461333l4.266667 0.725334 362.666666 85.333333a32 32 0 0 1 24.405334 26.752L853.333333 202.666667v618.666666a32 32 0 0 1-20.48 29.866667l-4.181333 1.28-362.666667 85.333333a32 32 0 0 1-39.04-26.794666L426.666667 906.666667V117.333333a32 32 0 0 1 30.848-32l4.181333 0.128z m28.970667 72.277334v708.522666l298.666666-70.272V228.010667l-298.666666-70.272zM384 170.666667v64H234.666667v554.666666H384V853.333333H202.666667a32 32 0 0 1-31.701334-27.648L170.666667 821.333333V202.666667a32 32 0 0 1 27.648-31.701334L202.666667 170.666667H384z m213.333333 298.666666a42.666667 42.666667 0 1 1 0 85.333334 42.666667 42.666667 0 0 1 0-85.333334z" /></svg>