<svg class="icon" style="width: 1em;height: 1em;vertical-align: middle;fill: currentColor;overflow: hidden;" viewBox="0 0 1024 1024" version="1.1" xmlns="http://www.w3.org/2000/svg"><path d="M352 170.666667a32 32 0 0 1 31.701333 27.648L384 202.666667v118.314666l79.957333 120.106667a32 32 0 0 1 4.992 13.056l0.384 4.693333v191.829334a32 32 0 0 1-27.690666 31.701333L437.333333 682.666667H383.829333v138.837333a32 32 0 0 1-63.658666 4.309333l-0.298667-4.309333L319.829333 682.666667 234.666667 682.624v139.008a32 32 0 0 1-63.701334 4.309333l-0.256-4.309333L170.666667 682.624 117.333333 682.666667a32 32 0 0 1-31.658666-27.648l-0.298667-4.352v-191.829334a32 32 0 0 1 3.029333-13.653333l2.346667-4.096 79.957333-120.106667V202.666667a32 32 0 0 1 63.701334-4.352l0.298666 4.352v128a32 32 0 0 1-3.072 13.653333l-2.304 4.096-79.957333 120.106667V618.666667H405.333333v-150.186667L325.333333 348.458667a32 32 0 0 1-4.992-13.056L320 330.666667v-128A32 32 0 0 1 352 170.666667z m298.837333 0.042666h191.829334a32 32 0 0 1 31.701333 27.690667l0.298667 4.309333L874.624 341.333333h32a32 32 0 0 1 31.744 27.648L938.666667 373.333333v191.829334c0 4.736-1.066667 9.386667-3.072 13.653333l-2.304 4.096L853.333333 703.018667v118.314666a32 32 0 0 1-63.744 4.352l-0.256-4.352v-128c0-4.693333 1.024-9.386667 3.029334-13.653333l2.304-4.096L874.666667 555.52V405.333333h-255.914667v150.186667l79.957333 120.064a31.957333 31.957333 0 0 1 5.034667 13.056l0.341333 4.693333v128a32 32 0 0 1-63.701333 4.352l-0.298667-4.352v-118.314666l-79.957333-120.106667a32 32 0 0 1-5.034667-13.056l-0.341333-4.693333V373.333333a32 32 0 0 1 27.648-31.701333L586.752 341.333333h32.085333V202.709333a32 32 0 0 1 27.690667-31.701333l4.309333-0.298667h191.829334-191.829334zM810.666667 234.709333h-127.829334V341.333333h127.786667V234.709333z" /></svg>