<svg class="icon" style="width: 1em;height: 1em;vertical-align: middle;fill: currentColor;overflow: hidden;" viewBox="0 0 1024 1024" version="1.1" xmlns="http://www.w3.org/2000/svg"><path d="M842.666667 170.666667A96 96 0 0 1 938.666667 266.666667v235.008c-19.2-12.842667-40.789333-22.314667-64-27.562667V266.666667a32 32 0 0 0-32-32H181.333333a32 32 0 0 0-32 32v490.88c0 17.664 14.336 32 32 32H682.666667v64H181.333333A96 96 0 0 1 85.333333 757.546667V266.666667A96 96 0 0 1 181.333333 170.666667h661.333334z m-277.248 383.829333h107.008c-12.842667 19.2-22.357333 40.789333-27.648 64h-79.36a32 32 0 0 1-4.352-63.701333l4.352-0.298667zM416 533.333333a32 32 0 0 1 32 32v21.034667l-0.341333 4.608c-6.954667 47.488-46.677333 70.4-106.325334 70.4s-99.413333-22.912-106.325333-70.4l-0.341333-4.693333v-20.949334a32 32 0 0 1 32-32h149.333333zM341.333333 362.752a64 64 0 1 1 0 128 64 64 0 0 1 0-128z m224.085334 42.581333h191.914666a32 32 0 0 1 4.352 63.701334L757.333333 469.333333h-191.914666a32 32 0 0 1-4.352-63.701333l4.352-0.298667z m415.914666 256a149.333333 149.333333 0 1 1-298.666666 0 149.333333 149.333333 0 0 1 298.666666 0z m-256 159.658667v129.877333a30.293333 30.293333 0 0 0 51.712 21.418667L832 917.333333l54.954667 54.954667A30.293333 30.293333 0 0 0 938.666667 950.869333v-129.877333a191.146667 191.146667 0 0 1-106.666667 32.341333 191.146667 191.146667 0 0 1-106.666667-32.341333z" /></svg>