<svg class="icon" style="width: 1em;height: 1em;vertical-align: middle;fill: currentColor;overflow: hidden;" viewBox="0 0 1024 1024" version="1.1" xmlns="http://www.w3.org/2000/svg"><path d="M192 266.666667V512h202.666667A117.333333 117.333333 0 0 1 512 629.333333v202.666667h245.333333a74.666667 74.666667 0 0 0 74.666667-74.666667v-170.666666a32 32 0 0 1 64 0v170.666666A138.666667 138.666667 0 0 1 757.333333 896H266.666667A138.666667 138.666667 0 0 1 128 757.333333V266.666667A138.666667 138.666667 0 0 1 266.666667 128h170.666666a32 32 0 0 1 0 64h-170.666666A74.666667 74.666667 0 0 0 192 266.666667z m0 309.333333v181.333333c0 41.216 33.450667 74.666667 74.666667 74.666667h181.333333v-202.666667c0-29.44-23.893333-53.333333-53.333333-53.333333H192z m471.893333-170.666667h200.106667a32 32 0 0 1 0 64h-277.333333a32 32 0 0 1-32-32v-277.333333a32 32 0 0 1 64 0v200.106667l222.72-222.72a32 32 0 1 1 45.226666 45.226666L663.893333 405.333333z" /></svg>