<svg class="icon" style="width: 1em;height: 1em;vertical-align: middle;fill: currentColor;overflow: hidden;" viewBox="0 0 1024 1024" version="1.1" xmlns="http://www.w3.org/2000/svg"><path d="M842.666667 170.666667A96 96 0 0 1 938.666667 266.666667v490.88a96 96 0 0 1-96 96H181.333333A96 96 0 0 1 85.333333 757.546667V266.666667A96 96 0 0 1 181.333333 170.666667h661.333334z m0 64H181.333333a32 32 0 0 0-32 32v490.88c0 17.664 14.336 32 32 32h661.333334a32 32 0 0 0 32-32V266.666667a32 32 0 0 0-32-32z m-426.666667 298.666666a32 32 0 0 1 32 32v21.034667l-0.341333 4.608c-6.954667 47.488-46.677333 70.4-106.325334 70.4s-99.413333-22.912-106.325333-70.4l-0.341333-4.693333v-20.949334a32 32 0 0 1 32-32h149.333333z m149.418667 21.162667h191.914666a32 32 0 0 1 4.352 63.701333l-4.352 0.298667h-191.914666a32 32 0 0 1-4.352-63.701333l4.352-0.298667h191.914666-191.914666zM341.333333 362.752a64 64 0 1 1 0 128 64 64 0 0 1 0-128z m224.085334 42.581333h191.914666a32 32 0 0 1 4.352 63.701334L757.333333 469.333333h-191.914666a32 32 0 0 1-4.352-63.701333l4.352-0.298667h191.914666-191.914666z" /></svg>