<svg class="icon" style="width: 1em;height: 1em;vertical-align: middle;fill: currentColor;overflow: hidden;" viewBox="0 0 1024 1024" version="1.1" xmlns="http://www.w3.org/2000/svg"><path d="M800 170.666667A138.666667 138.666667 0 0 1 938.666667 309.333333v405.546667a138.666667 138.666667 0 0 1-138.666667 138.666667H224A138.666667 138.666667 0 0 1 85.333333 714.88V309.333333a138.666667 138.666667 0 0 1 130.816-138.453333L224 170.666667h576z m0 64H224l-6.144 0.256A74.666667 74.666667 0 0 0 149.333333 309.333333v405.546667c0 41.216 33.450667 74.666667 74.666667 74.666667h576a74.666667 74.666667 0 0 0 74.666667-74.666667V309.333333a74.666667 74.666667 0 0 0-74.666667-74.666666z m-405.205333 298.666666a32 32 0 0 1 32 32v24.832c0 54.272-41.344 81.834667-106.752 81.834667S213.333333 644.437333 213.333333 590.122667v-24.789334a32 32 0 0 1 32-32h149.461334z m67.413333-0.042666l60.458667 0.042666a32 32 0 0 1 32 32v14.208c0 41.088-32.64 60.458667-80 60.458667-4.949333 0-9.770667-0.213333-14.378667-0.64a121.6 121.6 0 0 0 8.789333-38.4l0.384-10.794667v-24.832c0-11.477333-2.602667-22.357333-7.253333-32.042666z m188.458667 0.042666h128a32 32 0 0 1 4.352 63.701334L778.666667 597.333333h-128a32 32 0 0 1-4.352-63.701333l4.352-0.298667h128-128z m-330.666667-170.666666a64 64 0 1 1 0 128.042666 64 64 0 0 1 0-128.042666z m165.12 21.418666a53.248 53.248 0 1 1 0 106.496 53.248 53.248 0 0 1 0-106.496z m165.546667 21.248h128a32 32 0 0 1 4.352 63.701334L778.666667 469.333333h-128a32 32 0 0 1-4.352-63.701333l4.352-0.298667h128-128z" /></svg>