<svg class="icon" style="width: 1em;height: 1em;vertical-align: middle;fill: currentColor;overflow: hidden;" viewBox="0 0 1024 1024" version="1.1" xmlns="http://www.w3.org/2000/svg"><path d="M330.666667 341.333333A117.333333 117.333333 0 0 0 213.333333 458.666667v106.666666A117.333333 117.333333 0 0 0 330.666667 682.666667h21.333333a32 32 0 0 0 0-64h-21.333333c-29.44 0-53.333333-23.893333-53.333334-53.333334v-106.666666c0-29.44 23.893333-53.333333 53.333334-53.333334h21.333333a32 32 0 0 0 0-64h-21.333333z m160 32a32 32 0 0 0-64 0V469.333333h-10.666667a32 32 0 0 0 0 64H426.666667V597.333333a85.333333 85.333333 0 0 0 85.333333 85.333334h10.666667a32 32 0 0 0 0-64H512a21.333333 21.333333 0 0 1-21.333333-21.333334v-64h32a32 32 0 0 0 0-64h-32V373.333333z m341.333333 0a32 32 0 0 0-64 0v277.333334a32 32 0 0 0 64 0v-277.333334z m-170.666667 181.333334a21.333333 21.333333 0 0 1 21.333334-21.333334h10.666666a32 32 0 0 0 0-64H682.666667a85.333333 85.333333 0 0 0-85.333334 85.333334v96a32 32 0 0 0 64 0V554.666667zM224 170.666667A138.666667 138.666667 0 0 0 85.333333 309.333333v405.333334A138.666667 138.666667 0 0 0 224 853.333333h576A138.666667 138.666667 0 0 0 938.666667 714.666667v-405.333334A138.666667 138.666667 0 0 0 800 170.666667H224zM149.333333 309.333333c0-41.216 33.450667-74.666667 74.666667-74.666666h576c41.216 0 74.666667 33.450667 74.666667 74.666666v405.333334a74.666667 74.666667 0 0 1-74.666667 74.666666H224a74.666667 74.666667 0 0 1-74.666667-74.666666v-405.333334z" /></svg>