<svg class="icon" style="width: 1em;height: 1em;vertical-align: middle;fill: currentColor;overflow: hidden;" viewBox="0 0 1024 1024" version="1.1" xmlns="http://www.w3.org/2000/svg"><path d="M266.666667 128A96 96 0 0 0 170.666667 224v106.666667A96 96 0 0 0 266.666667 426.666667h405.333333A96 96 0 0 0 768 330.666667v-106.666667A96 96 0 0 0 672 128h-405.333333zM234.666667 224a32 32 0 0 1 32-32h405.333333a32 32 0 0 1 32 32v106.666667a32 32 0 0 1-32 32h-405.333333a32 32 0 0 1-32-32v-106.666667zM371.2 682.666667c-16.512 0-29.866667 14.336-29.866667 32s13.354667 32 29.866667 32h196.266667c16.512 0 29.866667-14.336 29.866666-32s-13.354667-32-29.866666-32H371.2zM740.394667 701.653333l-3.114667 3.584a32 32 0 0 1-41.642667 3.114667l-3.584-3.114667-85.333333-85.333333a32 32 0 0 1-3.114667-41.642667l3.114667-3.584 85.333333-85.333333a32 32 0 0 1 48.341334 41.642667l-3.114667 3.584-30.677333 30.762666h64a53.333333 53.333333 0 0 0 53.034666-47.872l0.298667-5.461333V416a32 32 0 0 1 63.701333-4.352l0.298667 4.352V512a117.333333 117.333333 0 0 1-110.208 117.12l-7.125333 0.213333h-63.957334l30.634667 30.677334a32 32 0 0 1 3.114667 41.642666zM768 821.333333v-86.442666l-0.554667 0.512c-17.28 17.322667-40.96 24.32-63.445333 21.12v64.810666a32 32 0 0 1-32 32h-405.333333a32 32 0 0 1-32-32v-213.333333a32 32 0 0 1 32-32h291.072c2.474667-8.192 6.314667-16.042667 11.605333-23.168l0.938667-1.28 5.12-5.973333 33.621333-33.578667H266.666667A96 96 0 0 0 170.666667 608v213.333333a96 96 0 0 0 96 96h405.333333A96 96 0 0 0 768 821.333333z" /></svg>