<svg class="icon" style="width: 1em;height: 1em;vertical-align: middle;fill: currentColor;overflow: hidden;" viewBox="0 0 1024 1024" version="1.1" xmlns="http://www.w3.org/2000/svg"><path d="M149.333333 288l0.128-90.581333A96 96 0 0 0 85.333333 288v448.170667a202.666667 202.666667 0 0 0 202.666667 202.666666h216.064a277.973333 277.973333 0 0 1-46.08-64H288a138.666667 138.666667 0 0 1-138.666667-138.666666V288zM768 476.757333V181.333333A96 96 0 0 0 672 85.333333h-384A96 96 0 0 0 192 181.333333v554.666667a96 96 0 0 0 96 96h152.021333a276.266667 276.266667 0 0 1-12.544-64H288a32 32 0 0 1-32-32v-554.666667a32 32 0 0 1 32-32h384a32 32 0 0 1 32 32V469.333333c22.016 0 43.434667 2.56 64 7.424zM704 512a234.666667 234.666667 0 1 1 0 469.333333 234.666667 234.666667 0 0 1 0-469.333333z m21.376 362.794667V768h106.496a21.333333 21.333333 0 0 0 0-42.666667H725.333333v-106.666666a21.333333 21.333333 0 1 0-42.666666 0V725.333333h-106.837334a21.333333 21.333333 0 0 0 0 42.666667H682.666667v106.794667a21.333333 21.333333 0 1 0 42.666666 0z" /></svg>