<svg class="icon" style="width: 1em;height: 1em;vertical-align: middle;fill: currentColor;overflow: hidden;" viewBox="0 0 1024 1024" version="1.1" xmlns="http://www.w3.org/2000/svg"><path d="M746.666667 512a234.666667 234.666667 0 1 1 0 469.333333 234.666667 234.666667 0 0 1 0-469.333333zM234.794667 197.418667L234.666667 288v448.170667a138.666667 138.666667 0 0 0 138.666666 138.666666l127.36 0.042667a278.229333 278.229333 0 0 0 46.08 64H373.333333A202.666667 202.666667 0 0 1 170.666667 736.170667V288c0-41.813333 26.752-77.44 64.128-90.581333z m545.322666 425.045333a21.333333 21.333333 0 0 0-24.234666 0l-2.986667 2.432-2.432 2.986667a21.333333 21.333333 0 0 0 0 24.234666l2.432 2.986667 70.229333 70.186667-204.714666 0.042666-3.84 0.341334a21.333333 21.333333 0 0 0-17.152 17.152l-0.341334 3.84 0.341334 3.84a21.333333 21.333333 0 0 0 17.152 17.152l3.84 0.341333 204.8-0.042667-70.314667 70.272-2.432 2.986667a21.333333 21.333333 0 0 0 29.653333 29.653333l2.986667-2.432 107.946667-108.074666 1.536-2.133334 1.792-3.413333 1.109333-3.541333 0.426667-2.730667v-3.754667l-0.426667-2.730666-0.469333-1.834667-1.365334-3.328-1.024-1.792-1.621333-2.133333-107.946667-108.074667-2.944-2.432zM757.333333 85.333333A96 96 0 0 1 853.333333 181.333333v309.248a275.370667 275.370667 0 0 0-64-17.962666V181.333333a32 32 0 0 0-32-32h-384a32 32 0 0 0-32 32v554.666667c0 17.664 14.336 32 32 32h96.810667c1.706667 22.186667 5.973333 43.605333 12.586667 64H373.333333a96 96 0 0 1-96-96v-554.666667A96 96 0 0 1 373.333333 85.333333h384z" /></svg>