<svg class="icon" style="width: 1em;height: 1em;vertical-align: middle;fill: currentColor;overflow: hidden;" viewBox="0 0 1024 1024" version="1.1" xmlns="http://www.w3.org/2000/svg"><path d="M245.333333 256h533.333334a74.666667 74.666667 0 0 1 74.410666 68.522667L853.333333 330.666667v89.770666a117.418667 117.418667 0 0 1 85.077334 104.917334L938.666667 533.333333v160a74.666667 74.666667 0 0 1-68.565334 74.410667L864 768H160a74.666667 74.666667 0 0 1-74.410667-68.565333L85.333333 693.333333V533.333333c0-53.717333 36.096-98.986667 85.333334-112.938666V330.666667a74.666667 74.666667 0 0 1 68.522666-74.410667L245.333333 256h533.333334-533.333334z m576 224a53.333333 53.333333 0 0 0-53.077333 47.872L768 533.333333v10.666667a32 32 0 0 1-27.648 31.701333l-4.352 0.298667H288a32 32 0 0 1-31.701333-27.648L256 544v-10.666667a53.333333 53.333333 0 0 0-106.410667-5.461333L149.333333 533.333333v160a10.666667 10.666667 0 0 0 8.234667 10.368l2.432 0.298667h704a10.666667 10.666667 0 0 0 10.368-8.234667l0.298667-2.432V533.333333c0-29.44-23.893333-53.333333-53.333334-53.333333z m-42.666666-160H245.333333a10.666667 10.666667 0 0 0-10.368 8.234667L234.666667 330.666667v89.770666a117.546667 117.546667 0 0 1 81.706666 83.882667l1.706667 7.68h387.84l1.536-7.04a117.546667 117.546667 0 0 1 81.92-84.565333L789.333333 330.666667a10.666667 10.666667 0 0 0-8.234666-10.368L778.666667 320z" /></svg>