<svg class="icon" style="width: 1em;height: 1em;vertical-align: middle;fill: currentColor;overflow: hidden;" viewBox="0 0 1024 1024" version="1.1" xmlns="http://www.w3.org/2000/svg"><path d="M85.333333 309.333333A138.666667 138.666667 0 0 1 224 170.666667h576A138.666667 138.666667 0 0 1 938.666667 309.333333V426.666667h-11.008A159.573333 159.573333 0 0 0 874.666667 318.08V309.333333a74.666667 74.666667 0 0 0-74.666667-74.666666H224A74.666667 74.666667 0 0 0 149.333333 309.333333v10.666667h509.866667c-18.773333 17.450667-33.365333 39.338667-42.112 64H149.333333v245.333333c0 41.216 33.450667 74.666667 74.666667 74.666667h289.28c2.56 22.272 9.258667 43.861333 19.541333 64H224A138.666667 138.666667 0 0 1 85.333333 629.333333v-320z m896 352a64 64 0 0 0-64-64h-298.666666a64 64 0 0 0-64 64v21.333334c0 84.096 79.36 170.666667 213.333333 170.666666 133.973333 0 213.333333-86.570667 213.333333-170.666666v-21.333334z m-96-224a117.333333 117.333333 0 1 0-234.666666 0 117.333333 117.333333 0 0 0 234.666666 0z" /></svg>