<svg class="icon" style="width: 1em;height: 1em;vertical-align: middle;fill: currentColor;overflow: hidden;" viewBox="0 0 1024 1024" version="1.1" xmlns="http://www.w3.org/2000/svg"><path d="M224 170.666667A138.666667 138.666667 0 0 0 85.333333 309.333333v320A138.666667 138.666667 0 0 0 224 768H469.333333v-64H224a74.666667 74.666667 0 0 1-74.666667-74.666667V384h725.333334v108.8a117.333333 117.333333 0 0 1 64 104.021333V309.333333A138.666667 138.666667 0 0 0 800 170.666667H224zM874.666667 320h-725.333334v-10.666667c0-41.216 33.450667-74.666667 74.666667-74.666666h576c41.216 0 74.666667 33.450667 74.666667 74.666666v10.666667zM597.333333 640h-21.333333a64 64 0 0 0-64 64V768h106.666667v-10.666667a32 32 0 0 1 64 0V768h128v-10.666667a32 32 0 0 1 64 0V768H981.333333v-64a64 64 0 0 0-64-64H896v-42.666667a74.666667 74.666667 0 0 0-74.666667-74.666666h-149.333333A74.666667 74.666667 0 0 0 597.333333 597.333333v42.666667z m64-42.666667a10.666667 10.666667 0 0 1 10.666667-10.666666h149.333333a10.666667 10.666667 0 0 1 10.666667 10.666666v42.666667h-170.666667v-42.666667zM512 917.333333v-85.333333h106.666667v32a32 32 0 0 0 64 0v-32h128v32a32 32 0 0 0 64 0v-32H981.333333v85.333333a64 64 0 0 1-64 64h-341.333333a64 64 0 0 1-64-64z" /></svg>