<svg class="icon" style="width: 1em;height: 1em;vertical-align: middle;fill: currentColor;overflow: hidden;" viewBox="0 0 1024 1024" version="1.1" xmlns="http://www.w3.org/2000/svg"><path d="M711.296 388.437333A277.418667 277.418667 0 0 1 661.546667 938.666667c-63.317333 0-123.093333-21.333333-171.093334-59.008l0.042667 27.008a32 32 0 0 1-27.648 31.701333l-4.352 0.298667a32 32 0 0 1-31.701333-27.648l-0.298667-4.352v-106.624a32 32 0 0 1 27.648-31.701334l4.352-0.298666h106.88a32 32 0 0 1 4.309333 63.701333l-4.309333 0.298667-31.701333 0.085333a213.333333 213.333333 0 1 0 188.16-375.466667l-10.538667-68.224z m-93.226667-260.266666a106.666667 106.666667 0 0 1 41.6 204.928l34.901334 226.773333a106.709333 106.709333 0 1 1-118.357334 165.504H277.333333a106.666667 106.666667 0 1 1-118.528-165.418667l34.944-226.602666A106.666667 106.666667 0 1 1 319.872 170.666667h212.992a106.496 106.496 0 0 1 85.205333-42.496zM192 618.666667l-4.992 0.298666a42.666667 42.666667 0 0 0 0 84.736l4.992 0.298667a42.666667 42.666667 0 0 0 42.368-37.674667L234.666667 661.333333l-0.298667-4.992a42.666667 42.666667 0 0 0-22.058667-32.512l-4.608-2.176-5.248-1.706666-3.84-0.768A43.178667 43.178667 0 0 0 192 618.666667z m456.234667 2.090666l-2.176 0.810667-2.816 1.237333-3.968 2.133334a42.666667 42.666667 0 0 0 17.28 78.762666l4.992 0.298667a42.666667 42.666667 0 0 0 4.949333-85.034667l-4.992-0.298666c-2.389333 0-4.778667 0.213333-7.125333 0.597333l-6.144 1.493333z m-136.832-386.133333H341.333333C341.333333 285.866667 305.493333 328.618667 257.578667 339.072l-33.92 220.416a106.752 106.752 0 0 1 74.709333 93.994667L298.666667 661.333333h256.213333c0-47.786667 31.402667-88.277333 74.752-101.802666l-33.877333-220.373334a106.752 106.752 0 0 1-84.096-97.066666l-0.256-7.424z m75.861333 29.738667l1.024 1.024 5.12 4.266666 3.669333 2.304 3.84 1.962667 4.650667 1.706667 3.925333 1.024 3.328 0.512 5.248 0.341333 5.12-0.298667 7.253334-1.536 5.290666-2.005333 3.712-1.92 4.010667-2.645333 4.693333-3.968 3.2-3.626667a42.666667 42.666667 0 0 0-12.544-64v0.298667l-4.48-2.304-6.229333-2.133334-3.541333-0.725333a42.24 42.24 0 0 0-6.485334-0.469333l-4.992 0.298666a42.666667 42.666667 0 0 0-25.813333 71.893334zM192 234.837333c0 10.112 3.498667 19.370667 9.386667 26.666667l2.816 3.2c2.474667 2.517333 5.205333 4.693333 8.192 6.528l4.650666 2.474667 4.266667 1.706666 3.498667 0.938667 4.266666 0.768 5.589334 0.384c2.432 0 4.778667-0.213333 7.082666-0.597333l3.285334-0.682667 4.650666-1.450667 2.304-0.938666 6.442667-3.584 3.626667-2.773334 2.304-2.005333 3.754666-4.138667 2.56-3.626666a42.410667 42.410667 0 0 0 6.4-17.92L277.333333 234.666667l-0.298666-4.906667-0.853334-4.693333-0.768-2.858667a42.709333 42.709333 0 0 0-35.754666-29.738667L234.666667 192.170667c-2.432 0-4.778667 0.213333-7.082667 0.597333l-3.456 0.682667-3.84 1.194666-2.432 0.938667-4.138667 2.090667a42.666667 42.666667 0 0 0-21.717333 37.12z" /></svg>