<svg class="icon" style="width: 1em;height: 1em;vertical-align: middle;fill: currentColor;overflow: hidden;" viewBox="0 0 1024 1024" version="1.1" xmlns="http://www.w3.org/2000/svg"><path d="M139.946667 94.72a32 32 0 1 0-45.226667 45.226667l45.397333 45.44A106.666667 106.666667 0 0 0 193.706667 333.354667l-34.858667 226.56a106.709333 106.709333 0 1 0 118.485333 165.461333h298.922667a106.496 106.496 0 0 0 134.528 30.634667l77.226667 77.226666c-35.413333 26.026667-79.146667 41.429333-126.421334 41.429334a212.608 212.608 0 0 1-127.872-42.538667l31.701334-0.085333 4.309333-0.256A32 32 0 0 0 565.376 768h-106.88l-4.352 0.298667a32 32 0 0 0-27.648 31.701333v106.624l0.298667 4.352a32 32 0 0 0 31.701333 27.648l4.352-0.298667a32 32 0 0 0 27.648-31.701333v-27.008A276.565333 276.565333 0 0 0 661.504 938.666667a276.181333 276.181333 0 0 0 172.074667-59.818667l50.432 50.474667a32 32 0 0 0 45.269333-45.269334L139.946667 94.72z m426.922666 517.418667c-7.68 14.72-11.989333 31.445333-11.989333 49.194666H298.666667l-0.298667-7.893333a106.752 106.752 0 0 0-74.709333-93.994667l33.92-220.416c9.386667-2.048 18.261333-5.333333 26.538666-9.642666l282.752 282.752zM192 618.666667a42.666667 42.666667 0 0 1 6.656 0.512l3.797333 0.768 5.248 1.706666 4.608 2.133334a42.666667 42.666667 0 0 1 22.058667 32.554666l0.298667 4.992-0.298667 4.992a42.666667 42.666667 0 0 1-42.368 37.674667l-4.992-0.298667a42.666667 42.666667 0 0 1 0-84.736L192 618.666667zM306.432 170.666667l64 64h140.970667l0.256 7.424a106.752 106.752 0 0 0 84.053333 97.066666l21.973333 142.805334 76.672 76.672-34.688-225.536A106.666667 106.666667 0 1 0 532.864 170.666667H306.432z m280.832 93.696a42.666667 42.666667 0 0 1 25.813333-71.893334l4.992-0.298666a42.24 42.24 0 0 1 6.485334 0.469333l3.541333 0.725333 6.229333 2.133334 4.48 2.304V197.546667a42.666667 42.666667 0 0 1 12.586667 64l-3.285333 3.584-4.650667 3.968-4.010667 2.688-3.712 1.877333-5.333333 2.005333-7.253333 1.536-5.077334 0.298667-5.248-0.341333-3.328-0.512-3.925333-1.024-4.608-1.706667-3.882667-1.962667-3.669333-2.304-5.12-4.266666-1.024-1.024zM864.128 728.362667l49.237333 49.28a277.418667 277.418667 0 0 0-202.069333-389.162667l10.538667 68.181333a213.418667 213.418667 0 0 1 142.293333 271.701334z" /></svg>