<svg class="icon" style="width: 1em;height: 1em;vertical-align: middle;fill: currentColor;overflow: hidden;" viewBox="0 0 1024 1024" version="1.1" xmlns="http://www.w3.org/2000/svg"><path d="M906.666667 725.333333a32 32 0 0 1 4.352 63.701334l-4.352 0.298666H789.333333v117.333334a32 32 0 0 1-63.701333 4.352L725.333333 906.666667V789.333333H373.333333a138.666667 138.666667 0 0 1-138.453333-130.816L234.666667 650.666667 234.624 298.666667H117.333333a32 32 0 0 1-4.352-63.701334L117.333333 234.666667h117.290667L234.666667 117.333333a32 32 0 0 1 63.701333-4.352L298.666667 117.333333 298.624 234.666667H298.666667V298.666667h-0.042667L298.666667 650.666667a74.666667 74.666667 0 0 0 68.522666 74.410666L373.333333 725.333333h533.333334zM341.333333 234.666667h309.333334a138.666667 138.666667 0 0 1 138.453333 130.816l0.213333 7.850666V682.666667H725.333333V373.333333a74.666667 74.666667 0 0 0-68.565333-74.410666L650.666667 298.666667H341.333333V234.666667z" /></svg>