<svg class="icon" style="width: 1em;height: 1em;vertical-align: middle;fill: currentColor;overflow: hidden;" viewBox="0 0 1024 1024" version="1.1" xmlns="http://www.w3.org/2000/svg"><path d="M258.090667 340.650667a32 32 0 0 1 41.258666-18.56L512 402.730667l212.650667-80.64a32 32 0 1 1 22.698666 59.818666L544 459.093333v98.304a276.906667 276.906667 0 0 0-64 112.896v-211.2L276.650667 381.909333a32 32 0 0 1-18.56-41.258666z m616.576-34.56v194.474666A278.101333 278.101333 0 0 1 938.666667 546.56V306.090667a74.666667 74.666667 0 0 0-46.634667-69.205334l-319.914667-129.706666a160 160 0 0 0-120.234666 0l-319.914667 129.706666A74.666667 74.666667 0 0 0 85.333333 306.090667v411.818666a74.666667 74.666667 0 0 0 46.634667 69.205334l319.914667 129.706666a160 160 0 0 0 83.882666 9.941334 277.461333 277.461333 0 0 1-40.96-63.744c-6.4-1.194667-12.714667-2.986667-18.858666-5.504l-319.957334-129.706667a10.666667 10.666667 0 0 1-6.656-9.898667V306.133333a10.666667 10.666667 0 0 1 6.656-9.898666l319.957334-129.706667a96 96 0 0 1 72.106666 0l319.957334 129.706667a10.666667 10.666667 0 0 1 6.656 9.898666zM512 746.666667a234.666667 234.666667 0 1 0 469.333333 0 234.666667 234.666667 0 0 0-469.333333 0z m362.666667-149.333334a21.333333 21.333333 0 0 1 21.333333 21.333334v85.333333a21.333333 21.333333 0 0 1-21.333333 21.333333h-85.333334a21.333333 21.333333 0 0 1 0-42.666666h42.666667a106.496 106.496 0 0 0-85.333333-42.666667c-35.541333 0-67.072 17.365333-86.485334 44.202667a21.333333 21.333333 0 0 1-34.56-25.002667A149.162667 149.162667 0 0 1 746.666667 597.333333c41.813333 0 79.573333 17.194667 106.666666 44.8v-23.466666a21.333333 21.333333 0 0 1 21.333334-21.333334zM640 851.2v23.466667a21.333333 21.333333 0 0 1-42.666667 0v-85.333334a21.333333 21.333333 0 0 1 21.333334-21.333333h85.333333a21.333333 21.333333 0 0 1 0 42.666667h-42.666667c19.456 25.941333 50.474667 42.666667 85.333334 42.666666 32.682667 0 61.952-14.677333 81.536-37.888a21.333333 21.333333 0 0 1 32.597333 27.52A149.034667 149.034667 0 0 1 746.666667 896a148.906667 148.906667 0 0 1-106.666667-44.8z" /></svg>