<svg class="icon" style="width: 1em;height: 1em;vertical-align: middle;fill: currentColor;overflow: hidden;" viewBox="0 0 1024 1024" version="1.1" xmlns="http://www.w3.org/2000/svg"><path d="M298.752 117.418667a32 32 0 1 0-64 0v13.354666A181.376 181.376 0 0 0 85.333333 309.333333v23.125334a202.666667 202.666667 0 0 0 113.834667 182.186666l35.584 17.322667v294.741333A117.376 117.376 0 0 1 149.333333 713.728v-41.813333a32 32 0 0 0-64 0v41.813333a181.376 181.376 0 0 0 149.418667 178.517333v14.293334a32 32 0 0 0 64 0v-14.293334a181.376 181.376 0 0 0 149.248-178.517333v-22.357333a202.666667 202.666667 0 0 0-113.834667-182.186667l-35.413333-17.237333V196.437333A117.376 117.376 0 0 1 384 309.333333v42.666667a32 32 0 1 0 64 0v-42.666667c0-89.216-64.426667-163.413333-149.248-178.517333v-13.397333z m-64 78.933333v264.362667l-7.509333-3.669334A138.666667 138.666667 0 0 1 149.333333 332.458667V309.333333c0-53.76 36.138667-99.072 85.418667-112.981333z m64 366.762667l7.338667 3.626666A138.666667 138.666667 0 0 1 384 691.328v22.4a117.376 117.376 0 0 1-85.248 112.896v-263.466667zM544 128a32 32 0 0 0 0 64H640A117.333333 117.333333 0 0 1 744.533333 256h-200.533333a32 32 0 0 0 0 64h212.864A117.333333 117.333333 0 0 1 640 426.666667h-96a32 32 0 0 0-26.026667 50.56l320 448a32 32 0 1 0 52.053334-37.162667l-283.861334-397.44H640a181.333333 181.333333 0 0 0 181.034667-170.666667h85.632a32 32 0 0 0 0-64h-93.312a180.906667 180.906667 0 0 0-35.072-64h128.384a32 32 0 0 0 0-64h-362.666667z" /></svg>