<svg class="icon" style="width: 1em;height: 1em;vertical-align: middle;fill: currentColor;overflow: hidden;" viewBox="0 0 1024 1024" version="1.1" xmlns="http://www.w3.org/2000/svg"><path d="M266.752 85.418667a32 32 0 0 0-32 32v13.354666A181.376 181.376 0 0 0 85.333333 309.333333v23.125334a202.666667 202.666667 0 0 0 113.834667 182.186666l35.584 17.322667v294.741333A117.376 117.376 0 0 1 149.333333 713.728v-41.813333a32 32 0 0 0-64 0v41.813333a181.376 181.376 0 0 0 149.418667 178.517333v14.293334a32 32 0 0 0 64 0v-14.293334a181.376 181.376 0 0 0 149.248-178.517333v-22.357333a202.666667 202.666667 0 0 0-113.834667-182.186667l-35.413333-17.237333V196.437333A117.376 117.376 0 0 1 384 309.333333v42.666667a32 32 0 1 0 64 0v-42.666667c0-89.216-64.426667-163.413333-149.248-178.517333v-13.397333a32 32 0 0 0-32-32zM149.333333 309.333333c0-53.76 36.138667-99.072 85.418667-112.981333v264.362667l-7.509333-3.669334A138.666667 138.666667 0 0 1 149.333333 332.458667V309.333333z m149.418667 517.290667v-263.466667l7.338667 3.584A138.666667 138.666667 0 0 1 384 691.328v22.4a117.376 117.376 0 0 1-85.248 112.896zM618.666667 512c0-7.210667 0.170667-14.336 0.469333-21.376h74.112a32 32 0 1 0 0.042667-64h-66.858667c10.538667-56.448 31.146667-106.24 58.325333-145.237333C725.077333 223.573333 777.642667 192 832 192c19.925333 0 41.514667 5.802667 57.045333 16.042667a32 32 0 0 0 35.242667-53.461334C896.810667 136.533333 862.549333 128 832 128c-81.109333 0-151.210667 47.189333-199.722667 116.778667-34.773333 49.877333-59.52 112.512-70.826666 181.76h-60.074667a32 32 0 1 0-0.042667 64h53.76a539.904 539.904 0 0 0 0 42.794666h-53.76a32 32 0 0 0 0 64h60.16c11.264 69.290667 36.010667 131.968 70.784 181.845334C680.789333 848.725333 750.890667 896 832 896c29.653333 0 64.725333-7.210667 93.098667-26.88a32 32 0 0 0-36.522667-52.565333c-14.634667 10.154667-35.754667 15.402667-56.576 15.402666-54.357333 0-106.922667-31.573333-147.2-89.386666-27.221333-38.997333-47.829333-88.832-58.368-145.237334h66.858667a32 32 0 1 0 0-64H619.093333a476.8 476.8 0 0 1-0.469333-21.333333z" /></svg>