<svg class="icon" style="width: 1em;height: 1em;vertical-align: middle;fill: currentColor;overflow: hidden;" viewBox="0 0 1024 1024" version="1.1" xmlns="http://www.w3.org/2000/svg"><path d="M517.973333 398.549333v0.085334L314.453333 99.328a32 32 0 1 0-52.906666 36.010667l218.88 321.92-102.186667 159.701333a170.666667 170.666667 0 1 0 50.261333 40.234667l91.093334-142.378667 88.106666 129.536a170.666667 170.666667 0 1 0 53.802667-34.688l-104.405333-153.472 0.085333-0.085333-39.168-57.514667z m-325.973333 369.493334a106.666667 106.666667 0 1 1 213.333333 0 106.666667 106.666667 0 0 1-213.333333 0z m426.666667 0a106.666667 106.666667 0 1 1 213.333333 0 106.666667 106.666667 0 0 1-213.333333 0zM594.688 397.482667l168.234667-262.912a32 32 0 1 0-53.888-34.474667L555.52 339.968l39.168 57.514667z" /></svg>