<svg class="icon" style="width: 1em;height: 1em;vertical-align: middle;fill: currentColor;overflow: hidden;" viewBox="0 0 1024 1024" version="1.1" xmlns="http://www.w3.org/2000/svg"><path d="M896 778.709333a95.957333 95.957333 0 0 0-96-95.957333H224a95.957333 95.957333 0 1 0 0 191.914667h576A95.957333 95.957333 0 0 0 896 778.709333z m-170.666667-277.333333a95.957333 95.957333 0 0 0-96-95.957333h-405.333333a96 96 0 1 0 0 191.914666h405.333333A95.957333 95.957333 0 0 0 725.333333 501.376z m-170.666666-277.333333a96 96 0 0 0-96-96l-234.666667 0.042666a96 96 0 0 0 0 191.914667h234.666667A96 96 0 0 0 554.666667 224.042667z m277.333333 554.666666a32 32 0 0 1-32 32H224a32 32 0 0 1 0-63.957333h576c17.706667 0 32 14.293333 32 31.957333z m-170.666667-277.333333a32 32 0 0 1-32 32h-405.333333a32 32 0 0 1 0-63.957333h405.333333c17.706667 0 32 14.293333 32 31.957333z m-170.666666-277.333333a32 32 0 0 1-32 32h-234.666667a32 32 0 0 1 0-64h234.666667a32 32 0 0 1 32 32z" /></svg>