<svg class="icon" style="width: 1em;height: 1em;vertical-align: middle;fill: currentColor;overflow: hidden;" viewBox="0 0 1024 1024" version="1.1" xmlns="http://www.w3.org/2000/svg"><path d="M778.666667 127.872A117.333333 117.333333 0 0 1 896 245.205333v533.333334a117.333333 117.333333 0 0 1-117.333333 117.333333H245.333333A117.333333 117.333333 0 0 1 128 778.538667v-533.333334a117.333333 117.333333 0 0 1 117.333333-117.333333h533.333334z m0 64H245.333333c-29.44 0-53.333333 23.893333-53.333333 53.333333v533.333334c0 29.44 23.893333 53.333333 53.333333 53.333333h533.333334c29.44 0 53.333333-23.893333 53.333333-53.333333v-533.333334c0-29.44-23.893333-53.333333-53.333333-53.333333zM330.666667 384c16.213333 0 29.568 11.989333 31.701333 27.562667l0.298667 4.309333v277.632a31.914667 31.914667 0 0 1-32 31.829333 32 32 0 0 1-31.701334-27.52L298.666667 693.504V415.872C298.666667 398.293333 313.002667 384 330.666667 384z m362.666666-85.333333c16.213333 0 29.610667 11.733333 31.701334 26.88l0.298666 4.266666v364.416a31.573333 31.573333 0 0 1-32 31.146667 31.744 31.744 0 0 1-31.701333-26.922667l-0.298667-4.224V329.813333a31.573333 31.573333 0 0 1 32-31.146666z m-182.4 213.205333a31.146667 31.146667 0 0 1 31.232 26.453333l0.341334 4.266667 1.493333 151.338667a31.146667 31.146667 0 0 1-30.933333 31.274666 31.146667 31.146667 0 0 1-31.232-26.453333l-0.341334-4.266667-1.493333-151.296a31.146667 31.146667 0 0 1 30.933333-31.317333z" /></svg>