<svg class="icon" style="width: 1em;height: 1em;vertical-align: middle;fill: currentColor;overflow: hidden;" viewBox="0 0 1024 1024" version="1.1" xmlns="http://www.w3.org/2000/svg"><path d="M128 160a32 32 0 0 1 64 0V832h672a32 32 0 0 1 0 64H160a32 32 0 0 1-32-32V160zM725.333333 170.666667a128 128 0 1 0 0 256 128 128 0 0 0 0-256z m-64 128a64 64 0 1 1 128 0 64 64 0 0 1-128 0zM256 384a128 128 0 1 1 256 0 128 128 0 0 1-256 0z m128-64a64 64 0 1 0 0 128 64 64 0 0 0 0-128zM640 512a128 128 0 1 0 0 256 128 128 0 0 0 0-256z m-64 128a64 64 0 1 1 128 0 64 64 0 0 1-128 0z" /></svg>