<svg class="icon" style="width: 1em;height: 1em;vertical-align: middle;fill: currentColor;overflow: hidden;" viewBox="0 0 1024 1024" version="1.1" xmlns="http://www.w3.org/2000/svg"><path d="M938.752 202.752a117.418667 117.418667 0 0 1-117.418667 117.418667H202.752a117.418667 117.418667 0 1 1 0-234.837334H821.333333a117.418667 117.418667 0 0 1 117.418667 117.418667z m-85.333333 298.666667a117.418667 117.418667 0 0 1-117.418667 117.418666H288.085333a117.418667 117.418667 0 1 1 0-234.837333H736a117.418667 117.418667 0 0 1 117.418667 117.418667z m-128 298.666666a117.418667 117.418667 0 0 1-117.418667 117.418667H416.085333a117.418667 117.418667 0 1 1 0-234.837333h191.914667a117.418667 117.418667 0 0 1 117.418667 117.418666z m149.333333-597.333333c0-29.525333-23.893333-53.418667-53.418667-53.418667H202.752a53.418667 53.418667 0 1 0 0 106.837334H821.333333c29.525333 0 53.418667-23.893333 53.418667-53.418667z m-85.333333 298.666667c0-29.525333-23.893333-53.418667-53.418667-53.418667H288.085333a53.418667 53.418667 0 0 0 0 106.837333H736c29.525333 0 53.418667-23.893333 53.418667-53.418666z m-128 298.666666c0-29.482667-23.893333-53.418667-53.418667-53.418666H416.085333a53.418667 53.418667 0 0 0 0 106.837333h191.914667c29.482667 0 53.418667-23.893333 53.418667-53.418667z" /></svg>