<svg class="icon" style="width: 1em;height: 1em;vertical-align: middle;fill: currentColor;overflow: hidden;" viewBox="0 0 1024 1024" version="1.1" xmlns="http://www.w3.org/2000/svg"><path d="M245.333333 128a96 96 0 0 1 95.914667 96v576a96 96 0 1 1-191.914667 0V224A96 96 0 0 1 245.333333 128z m277.333334 170.666667a96 96 0 0 1 95.914666 96v405.333333a96 96 0 1 1-191.914666 0v-405.333333A96 96 0 0 1 522.666667 298.666667z m277.333333 170.666666a96 96 0 0 1 95.914667 96v234.666667a96 96 0 1 1-191.914667 0v-234.666667A95.957333 95.957333 0 0 1 800 469.333333z m-554.666667-277.333333a32 32 0 0 0-32 32v576a32 32 0 0 0 63.914667 0V224a32 32 0 0 0-31.957333-32z m277.333334 170.666667a32 32 0 0 0-32 32v405.333333a32 32 0 0 0 63.914666 0v-405.333333a32 32 0 0 0-31.957333-32z m277.333333 170.666666a32 32 0 0 0-32 32v234.666667a32 32 0 0 0 63.914667 0v-234.666667a32 32 0 0 0-31.957334-32z" /></svg>