<svg class="icon" style="width: 1em;height: 1em;vertical-align: middle;fill: currentColor;overflow: hidden;" viewBox="0 0 1024 1024" version="1.1" xmlns="http://www.w3.org/2000/svg"><path d="M170.666667 256c0-29.44 13.44-55.168 33.024-75.946667 19.413333-20.565333 46.037333-37.674667 76.501333-51.285333C341.162667 101.418667 423.125333 85.333333 512 85.333333c88.874667 0 170.837333 16.085333 231.808 43.434667 30.464 13.653333 57.088 30.72 76.501333 51.285333 19.584 20.778667 33.024 46.506667 33.024 75.946667v386.517333a203.946667 203.946667 0 0 0-32-2.517333h-32V358.058667c-13.653333 9.386667-29.013333 17.792-45.525333 25.173333C682.837333 410.581333 600.874667 426.666667 512 426.666667c-88.874667 0-170.837333-16.085333-231.808-43.434667a290.176 290.176 0 0 1-45.525333-25.173333V768c0 8.832 3.84 19.626667 15.573333 32 11.904 12.629333 30.592 25.429333 56.106667 36.864 42.453333 19.029333 99.925333 32.554667 165.290666 36.565333 3.541333 23.210667 11.008 45.098667 21.717334 64.981334-81.664-2.048-156.501333-17.749333-213.162667-43.136-30.464-13.653333-57.088-30.72-76.501333-51.328C184.106667 823.168 170.666667 797.44 170.666667 768V256z m64 0c0 8.832 3.84 19.626667 15.573333 32 11.904 12.629333 30.592 25.429333 56.106667 36.864 50.986667 22.826667 123.690667 37.802667 205.653333 37.802667 81.962667 0 154.666667-14.933333 205.653333-37.802667 25.514667-11.434667 44.202667-24.234667 56.106667-36.864 11.733333-12.373333 15.573333-23.168 15.573333-32 0-8.832-3.84-19.626667-15.573333-32-11.904-12.629333-30.592-25.429333-56.106667-36.864C666.666667 164.309333 593.92 149.333333 512 149.333333c-81.962667 0-154.666667 14.933333-205.653333 37.802667-25.514667 11.434667-44.202667 24.234667-56.106667 36.864-11.733333 12.373333-15.573333 23.168-15.573333 32zM981.333333 842.666667A160 160 0 0 0 821.333333 682.666667l-4.352 0.298666a32 32 0 0 0 4.352 63.701334l6.570667 0.213333A96 96 0 0 1 821.333333 938.666667l-0.128 0.213333-4.352 0.298667a32 32 0 0 0 4.608 63.701333V1002.666667l8.533334-0.213334A160 160 0 0 0 981.333333 842.666667z m-277.333333-128a32 32 0 0 0-32-32l-8.533333 0.213333a160 160 0 0 0 8.533333 319.786667l4.352-0.298667A32 32 0 0 0 672 938.666667l-6.570667-0.213334a96 96 0 0 1 6.570667-191.786666l4.352-0.298667a32 32 0 0 0 27.648-31.701333z m149.333333 128a32 32 0 0 0-32-32h-149.333333l-4.352 0.298666a32 32 0 0 0 4.352 63.701334h149.333333l4.352-0.298667A32 32 0 0 0 853.333333 842.666667z" /></svg>