<svg class="icon" style="width: 1em;height: 1em;vertical-align: middle;fill: currentColor;overflow: hidden;" viewBox="0 0 1024 1024" version="1.1" xmlns="http://www.w3.org/2000/svg"><path d="M85.333333 160A32 32 0 0 1 117.333333 128h277.333334a96 96 0 0 1 96 96V469.333333h266.666666A96 96 0 0 1 853.333333 565.333333v266.666667h53.333334a32 32 0 0 1 0 64h-277.333334a96 96 0 0 1-96-96V533.333333H266.666667A96 96 0 0 1 170.666667 437.333333V192H117.333333A32 32 0 0 1 85.333333 160zM789.333333 832v-266.666667a32 32 0 0 0-32-32H597.333333v266.666667c0 17.664 14.336 32 32 32h160zM426.666667 224a32 32 0 0 0-32-32H234.666667v245.333333c0 17.664 14.336 32 32 32H426.666667V224z" /></svg>