<svg class="icon" style="width: 1em;height: 1em;vertical-align: middle;fill: currentColor;overflow: hidden;" viewBox="0 0 1024 1024" version="1.1" xmlns="http://www.w3.org/2000/svg"><path d="M170.666667 256c0-29.44 13.44-55.168 33.024-75.946667 19.413333-20.565333 46.037333-37.674667 76.501333-51.285333C341.162667 101.418667 423.125333 85.333333 512 85.333333c88.874667 0 170.837333 16.085333 231.808 43.434667 30.464 13.653333 57.088 30.72 76.501333 51.285333 19.584 20.778667 33.024 46.506667 33.024 75.946667v512c0 29.44-13.44 55.168-33.024 75.946667-19.413333 20.565333-46.037333 37.674667-76.501333 51.328C682.837333 922.581333 600.874667 938.666667 512 938.666667c-88.874667 0-170.837333-16.085333-231.808-43.392-30.464-13.653333-57.088-30.72-76.501333-51.328C184.106667 823.168 170.666667 797.44 170.666667 768V256z m64 0c0 8.832 3.84 19.626667 15.573333 32 11.904 12.629333 30.592 25.429333 56.106667 36.864 50.986667 22.826667 123.690667 37.802667 205.653333 37.802667 81.962667 0 154.666667-14.933333 205.653333-37.802667 25.514667-11.434667 44.202667-24.234667 56.106667-36.864 11.733333-12.373333 15.573333-23.168 15.573333-32 0-8.832-3.84-19.626667-15.573333-32-11.904-12.629333-30.592-25.429333-56.106667-36.864C666.666667 164.309333 593.92 149.333333 512 149.333333c-81.962667 0-154.666667 14.933333-205.653333 37.802667-25.514667 11.434667-44.202667 24.234667-56.106667 36.864-11.733333 12.373333-15.573333 23.168-15.573333 32z m554.666666 102.058667c-13.653333 9.386667-29.013333 17.792-45.525333 25.173333C682.837333 410.581333 600.874667 426.666667 512 426.666667c-88.874667 0-170.837333-16.085333-231.808-43.434667a290.176 290.176 0 0 1-45.525333-25.173333V768c0 8.832 3.84 19.626667 15.573333 32 11.904 12.629333 30.592 25.429333 56.106667 36.864 50.986667 22.826667 123.690667 37.802667 205.653333 37.802667 81.962667 0 154.666667-14.933333 205.653333-37.802667 25.514667-11.434667 44.202667-24.234667 56.106667-36.864 11.733333-12.373333 15.573333-23.168 15.573333-32V358.058667z" /></svg>