<svg class="icon" style="width: 1em;height: 1em;vertical-align: middle;fill: currentColor;overflow: hidden;" viewBox="0 0 1024 1024" version="1.1" xmlns="http://www.w3.org/2000/svg"><path d="M128 160a32 32 0 0 1 64 0v267.008l155.733333-82.005333a32 32 0 0 1 31.146667 0.768l162.986667 95.829333 238.933333-179.2a32 32 0 0 1 51.2 25.6V832h32a32 32 0 0 1 0 64H160a32 32 0 0 1-32-32v-383.402667a32.426667 32.426667 0 0 1 0-1.152V160z m64 339.328V832H768V352l-204.8 153.6a32 32 0 0 1-35.413333 1.962667L361.813333 409.941333 192 499.328z" /></svg>