<svg class="icon" style="width: 1em;height: 1em;vertical-align: middle;fill: currentColor;overflow: hidden;" viewBox="0 0 1024 1024" version="1.1" xmlns="http://www.w3.org/2000/svg"><path d="M213.333333 181.333333a32 32 0 0 0-64 0v618.666667c0 41.216 33.450667 74.666667 74.666667 74.666667h618.666667a32 32 0 0 0 0-64H224a10.666667 10.666667 0 0 1-10.666667-10.666667V181.333333z m384 106.666667a32 32 0 0 1 32-32h213.418667a32 32 0 0 1 32 32v213.546667a32 32 0 1 1-64 0V365.184L587.946667 587.946667a32 32 0 0 1-45.226667 0l-84.053333-84.053334-137.386667 137.386667a32 32 0 0 1-45.226667-45.226667l160-160a32 32 0 0 1 45.226667 0l84.053333 84.053334 200.106667-200.106667h-136.106667a32 32 0 0 1-32-32z" /></svg>