<svg class="icon" style="width: 1em;height: 1em;vertical-align: middle;fill: currentColor;overflow: hidden;" viewBox="0 0 1024 1024" version="1.1" xmlns="http://www.w3.org/2000/svg"><path d="M362.666667 223.872A95.957333 95.957333 0 0 1 458.666667 128h106.666666a95.957333 95.957333 0 0 1 96 95.872v75.477333h138.666667A95.957333 95.957333 0 0 1 896 395.221333v468.821334a32 32 0 0 1-32 31.957333H160a32 32 0 0 1-32-32v-340.906667a95.957333 95.957333 0 0 1 96-95.914666H362.666667V223.872zM426.666667 832.128h170.666666V223.872a32 32 0 0 0-32-31.957333h-106.666666a32 32 0 0 0-32 32v608.170666zM362.666667 491.093333H224a32 32 0 0 0-32 31.957334v308.992h170.666667V491.093333z m298.666666 340.906667h170.666667V395.264a32 32 0 0 0-32-32H661.333333v468.864z" /></svg>