<svg class="icon" style="width: 1em;height: 1em;vertical-align: middle;fill: currentColor;overflow: hidden;" viewBox="0 0 1024 1024" version="1.1" xmlns="http://www.w3.org/2000/svg"><path d="M618.837333 202.752a117.418667 117.418667 0 1 0-234.837333 0V821.333333a117.418667 117.418667 0 0 0 156.458667 110.805334 277.888 277.888 0 0 1-39.850667-57.386667A53.418667 53.418667 0 0 1 448 821.333333V202.752a53.418667 53.418667 0 0 1 106.837333 0v343.68c18.944-18.176 40.490667-33.706667 64-45.909333V202.666667zM917.504 528.213333V416.085333a117.418667 117.418667 0 1 0-234.837333 0v60.672a278.186667 278.186667 0 0 1 64-7.381333V416a53.418667 53.418667 0 0 1 106.837333 0v74.666667a276.992 276.992 0 0 1 64 37.504zM202.752 512a117.418667 117.418667 0 0 1 117.418667 117.418667v191.914666a117.418667 117.418667 0 0 1-234.837334 0v-191.914666A117.418667 117.418667 0 0 1 202.752 512z m0 64c-29.525333 0-53.418667 23.893333-53.418667 53.418667v191.914666a53.418667 53.418667 0 1 0 106.837334 0v-191.914666c0-29.525333-23.893333-53.418667-53.418667-53.418667zM981.333333 746.666667a234.666667 234.666667 0 1 0-469.333333 0 234.666667 234.666667 0 0 0 469.333333 0z m-213.333333 21.333333l0.042667 106.837333a21.333333 21.333333 0 1 1-42.666667 0v-106.794666h-106.88a21.333333 21.333333 0 0 1 0-42.666667H725.333333V618.666667a21.333333 21.333333 0 1 1 42.666667 0V725.333333h106.794667a21.333333 21.333333 0 1 1 0 42.666667h-106.752z" /></svg>