<svg class="icon" style="width: 1em;height: 1em;vertical-align: middle;fill: currentColor;overflow: hidden;" viewBox="0 0 1024 1024" version="1.1" xmlns="http://www.w3.org/2000/svg"><path d="M170.666667 256c0-29.44 13.44-55.168 33.024-75.946667 19.413333-20.565333 46.037333-37.674667 76.501333-51.285333C341.162667 101.418667 423.125333 85.333333 512 85.333333c88.874667 0 170.837333 16.085333 231.808 43.434667 30.464 13.653333 57.088 30.72 76.501333 51.285333 19.584 20.778667 33.024 46.506667 33.024 75.946667v173.994667a159.232 159.232 0 0 0-64-23.253334v-48.64c-13.653333 9.386667-29.013333 17.749333-45.525333 25.173334C682.837333 410.538667 600.874667 426.666667 512 426.666667c-88.874667 0-170.837333-16.085333-231.808-43.434667a290.176 290.176 0 0 1-45.525333-25.173333V768c0 8.832 3.84 19.626667 15.573333 32 11.904 12.629333 30.592 25.429333 56.106667 36.864 50.986667 22.826667 123.690667 37.802667 205.653333 37.802667 3.882667 0 7.765333 0 11.605333-0.085334 8.32 22.485333 20.778667 43.605333 36.949334 62.464-15.872 1.066667-32.085333 1.621333-48.554667 1.621334-88.874667 0-170.837333-16.085333-231.808-43.392-30.464-13.653333-57.088-30.72-76.501333-51.328C184.106667 823.168 170.666667 797.44 170.666667 768V256z m64 0c0 8.832 3.84 19.626667 15.573333 32 11.904 12.629333 30.592 25.429333 56.106667 36.864 50.986667 22.826667 123.690667 37.802667 205.653333 37.802667 81.962667 0 154.666667-14.933333 205.653333-37.802667 25.514667-11.434667 44.202667-24.234667 56.106667-36.864 11.733333-12.373333 15.573333-23.168 15.573333-32 0-8.832-3.84-19.626667-15.573333-32-11.904-12.629333-30.592-25.429333-56.106667-36.864C666.666667 164.309333 593.92 149.333333 512 149.333333c-81.962667 0-154.666667 14.933333-205.653333 37.802667-25.514667 11.434667-44.202667 24.234667-56.106667 36.864-11.733333 12.373333-15.573333 23.168-15.573333 32z m554.666666 193.92a117.12 117.12 0 0 1 80.170667 56.490667c10.069333 17.322667 15.829333 37.461333 15.829333 58.922666a116.906667 116.906667 0 0 1-32 80.512A117.12 117.12 0 0 1 768 682.666667a117.376 117.376 0 1 1 21.333333-232.746667zM618.666667 725.333333a64 64 0 0 0-64 64v21.333334c0 15.018667 2.56 30.165333 7.466666 44.8 1.877333 5.674667 4.138667 11.264 6.741334 16.725333 10.24 21.674667 25.898667 41.941333 46.421333 58.922667C651.690667 961.28 703.530667 981.333333 768 981.333333c133.973333 0 213.333333-86.570667 213.333333-170.666666v-21.333334a64 64 0 0 0-64-64h-298.666666z" /></svg>