<svg class="icon" style="width: 1em;height: 1em;vertical-align: middle;fill: currentColor;overflow: hidden;" viewBox="0 0 1024 1024" version="1.1" xmlns="http://www.w3.org/2000/svg"><path d="M736 85.205333A117.333333 117.333333 0 0 1 853.333333 202.538667v281.898666a117.461333 117.461333 0 0 0-32-4.437333h-32V202.538667c0-29.44-23.893333-53.333333-53.333333-53.333334H202.666667c-29.44 0-53.333333 23.893333-53.333334 53.333334v533.333333c0 29.44 23.893333 53.333333 53.333334 53.333333H469.333333v64H202.666667A117.333333 117.333333 0 0 1 85.333333 735.872v-533.333333a117.333333 117.333333 0 0 1 117.333334-117.333334h533.333333zM682.666667 287.104v192.896h-10.666667c-19.2 0-37.333333 4.608-53.333333 12.8V287.146667a31.573333 31.573333 0 0 1 32-31.146667c16.213333 0 29.610667 11.690667 31.701333 26.88l0.298667 4.266667z m-182.826667 212.778667l1.28 128.170666a106.453333 106.453333 0 0 0-29.610667 54.442667 31.189333 31.189333 0 0 1-32.341333-26.453333l-0.341333-4.181334-1.493334-151.381333a31.146667 31.146667 0 0 1 30.933334-31.274667 31.146667 31.146667 0 0 1 31.232 26.453334l0.341333 4.224zM288 341.333333c16.213333 0 29.568 11.989333 31.701333 27.52l0.298667 4.352v277.589334a31.914667 31.914667 0 0 1-32 31.872 31.957333 31.957333 0 0 1-31.701333-27.52L256 650.794667V373.205333C256 355.584 270.336 341.333333 288 341.333333zM597.333333 640h-21.333333a64 64 0 0 0-64 64V768h106.666667v-10.666667a32 32 0 0 1 64 0V768h128v-10.666667a32 32 0 0 1 64 0V768H981.333333v-64a64 64 0 0 0-64-64H896v-42.666667a74.666667 74.666667 0 0 0-74.666667-74.666666h-149.333333A74.666667 74.666667 0 0 0 597.333333 597.333333v42.666667z m64-42.666667a10.666667 10.666667 0 0 1 10.666667-10.666666h149.333333a10.666667 10.666667 0 0 1 10.666667 10.666666v42.666667h-170.666667v-42.666667zM512 917.333333v-85.333333h106.666667v32a32 32 0 0 0 64 0v-32h128v32a32 32 0 0 0 64 0v-32H981.333333v85.333333a64 64 0 0 1-64 64h-341.333333a64 64 0 0 1-64-64z" /></svg>