<svg class="icon" style="width: 1em;height: 1em;vertical-align: middle;fill: currentColor;overflow: hidden;" viewBox="0 0 1024 1024" version="1.1" xmlns="http://www.w3.org/2000/svg"><path d="M629.333333 170.666667a32 32 0 0 0 0 64h42.666667V298.666667h-21.333333A96 96 0 0 0 554.666667 394.666667v298.666666a96 96 0 0 0 96 96h21.333333V853.333333h-42.666667a32 32 0 0 0 0 64h149.333334a32 32 0 0 0 0-64h-42.666667v-64h21.333333A96 96 0 0 0 853.333333 693.333333v-298.666666A96 96 0 0 0 757.333333 298.666667h-21.333333V234.666667h42.666667a32 32 0 0 0 0-64h-149.333334z m-10.666666 224a32 32 0 0 1 32-32h106.666666a32 32 0 0 1 32 32V469.333333h-170.666666V394.666667z m0 138.666666h170.666666v160a32 32 0 0 1-32 32h-106.666666a32 32 0 0 1-32-32V533.333333zM245.333333 85.333333a32 32 0 0 0 0 64h42.666667V213.333333h-21.333333A96 96 0 0 0 170.666667 309.333333v298.666667a96 96 0 0 0 96 96h21.333333V768h-42.666667a32 32 0 0 0 0 64h149.333334a32 32 0 0 0 0-64h-42.666667v-64h21.333333A96 96 0 0 0 469.333333 608v-298.666667A96 96 0 0 0 373.333333 213.333333h-21.333333V149.333333h42.666667a32 32 0 0 0 0-64h-149.333334z m21.333334 554.666667a32 32 0 0 1-32-32V533.333333h170.666666v74.666667a32 32 0 0 1-32 32h-106.666666z m138.666666-170.666667h-170.666666V309.333333a32 32 0 0 1 32-32h106.666666a32 32 0 0 1 32 32V469.333333z" /></svg>