<svg class="icon" style="width: 1em;height: 1em;vertical-align: middle;fill: currentColor;overflow: hidden;" viewBox="0 0 1024 1024" version="1.1" xmlns="http://www.w3.org/2000/svg"><path d="M853.333333 202.538667a117.333333 117.333333 0 0 0-117.333333-117.333334H202.666667A117.333333 117.333333 0 0 0 85.333333 202.538667v533.333333a117.333333 117.333333 0 0 0 117.333334 117.333333h284.416l4.48-17.92c4.096-16.384 10.794667-31.957333 19.754666-46.08H202.666667c-29.44 0-53.333333-23.893333-53.333334-53.333333v-533.333333c0-29.44 23.893333-53.333333 53.333334-53.333334h533.333333c29.44 0 53.333333 23.893333 53.333333 53.333334v303.488c18.645333-17.066667 40.789333-28.16 64-33.322667V202.538667z m-170.666666 409.941333V287.104l-0.298667-4.224A31.744 31.744 0 0 0 650.666667 256a31.573333 31.573333 0 0 0-32 31.146667v364.373333l0.298666 4.266667c0.725333 5.333333 2.858667 10.24 6.058667 14.336L682.666667 612.48z m-362.965334-243.626667A32 32 0 0 0 288 341.333333a31.914667 31.914667 0 0 0-32 31.872v277.589334l0.298667 4.309333c2.133333 15.573333 15.488 27.562667 31.701333 27.562667 17.664 0 32-14.250667 32-31.872V373.205333l-0.298667-4.352z m179.797334 126.805334a31.146667 31.146667 0 0 0-31.232-26.453334 31.146667 31.146667 0 0 0-30.933334 31.274667l1.493334 151.338667 0.341333 4.224a31.189333 31.189333 0 0 0 31.232 26.453333 31.146667 31.146667 0 0 0 30.933333-31.274667l-1.493333-151.338666-0.341333-4.224zM814.933333 540.586667l-251.861333 251.861333a114.602667 114.602667 0 0 0-30.122667 53.205333l-19.541333 78.122667a46.378667 46.378667 0 0 0 56.277333 56.234667l78.08-19.498667a114.602667 114.602667 0 0 0 53.248-30.165333l251.818667-251.818667A97.536 97.536 0 0 0 814.933333 540.586667z" /></svg>