<svg class="icon" style="width: 1em;height: 1em;vertical-align: middle;fill: currentColor;overflow: hidden;" viewBox="0 0 1024 1024" version="1.1" xmlns="http://www.w3.org/2000/svg"><path d="M810.666667 192a64 64 0 1 0 0 128 64 64 0 0 0 0-128zM682.666667 256a128 128 0 1 1 107.733333 126.421333l-86.954667 143.274667a128 128 0 0 1-202.666666 155.733333l-159.616 79.786667a128 128 0 1 1-19.669334-61.696l150.656-75.349333a128 128 0 0 1 182.442667-141.354667l76.714667-126.378667A127.786667 127.786667 0 0 1 682.666667 256z m-85.333334 277.333333a64 64 0 1 0 0 128 64 64 0 0 0 0-128z m-384 170.666667a64 64 0 1 0 0 128 64 64 0 0 0 0-128z" /></svg>