<svg class="icon" style="width: 1em;height: 1em;vertical-align: middle;fill: currentColor;overflow: hidden;" viewBox="0 0 1024 1024" version="1.1" xmlns="http://www.w3.org/2000/svg"><path d="M661.077333 181.290667a34.986667 34.986667 0 0 1-21.077333-31.573334c0-22.186667 21.632-38.058667 42.069333-29.184a428.245333 428.245333 0 0 1 221.354667 221.397334c8.874667 20.394667-6.954667 42.069333-29.184 42.069333a34.986667 34.986667 0 0 1-31.530667-21.077333 364.074667 364.074667 0 0 0-181.632-181.632zM384 149.76c0-22.272-21.632-38.101333-42.069333-29.226667a428.245333 428.245333 0 0 0-221.354667 221.397334c-8.874667 20.394667 6.954667 42.069333 29.184 42.069333a34.986667 34.986667 0 0 0 31.530667-21.077333 364.032 364.032 0 0 1 181.632-181.632 34.986667 34.986667 0 0 0 21.077333-31.573334zM661.077333 842.666667a34.986667 34.986667 0 0 0-21.077333 31.573333c0 22.229333 21.632 38.058667 42.069333 29.184a428.245333 428.245333 0 0 0 221.354667-221.397333c8.874667-20.394667-6.954667-42.026667-29.184-42.026667a34.986667 34.986667 0 0 0-31.530667 21.034667 364.074667 364.074667 0 0 1-181.632 181.674666zM149.76 640c13.738667 0 25.898667 8.533333 31.530667 21.034667a364.074667 364.074667 0 0 0 181.632 181.674666 34.986667 34.986667 0 0 1 21.077333 31.488c0 22.272-21.632 38.101333-42.069333 29.226667a428.245333 428.245333 0 0 1-221.354667-221.397333c-8.874667-20.394667 6.954667-42.026667 29.184-42.026667zM512 277.333333c-8.234667 0-16.384 0.426667-24.405333 1.237334a32 32 0 1 1-6.570667-63.658667 298.752 298.752 0 0 1 322.218667 230.656 32 32 0 1 1-62.421334 14.165333A234.752 234.752 0 0 0 512 277.333333zM389.162667 273.066667a32 32 0 0 1-8.533334 44.458666A234.410667 234.410667 0 0 0 277.333333 512c0 48.725333 14.805333 93.866667 40.192 131.413333a32 32 0 0 1-52.992 35.84A297.429333 297.429333 0 0 1 213.333333 512a298.410667 298.410667 0 0 1 131.413334-247.466667 32 32 0 0 1 44.416 8.533334zM777.813333 550.613333c17.066667 4.565333 27.178667 22.144 22.613334 39.210667A298.794667 298.794667 0 0 1 373.333333 776.533333a32 32 0 0 1 29.738667-56.661333 234.794667 234.794667 0 0 0 335.530667-146.773333 32 32 0 0 1 39.253333-22.528zM512 341.333333a170.666667 170.666667 0 1 0 0 341.333334 170.666667 170.666667 0 0 0 0-341.333334z m-106.666667 170.666667a106.666667 106.666667 0 1 1 213.333334 0 106.666667 106.666667 0 0 1-213.333334 0z" /></svg>