<svg class="icon" style="width: 1em;height: 1em;vertical-align: middle;fill: currentColor;overflow: hidden;" viewBox="0 0 1024 1024" version="1.1" xmlns="http://www.w3.org/2000/svg"><path d="M426.666667 170.666667a128 128 0 0 0-128 128v170.666666a128 128 0 1 0 256 0V298.666667a128 128 0 0 0-128-128z m64 298.666666a64 64 0 0 1-128 0V298.666667a64 64 0 1 1 128 0v170.666666zM213.333333 533.333333a64 64 0 1 1-128 0 64 64 0 0 1 128 0zM832 298.666667v170.666666c0 4.437333-0.426667 8.789333-1.28 12.970667 20.821333 6.613333 40.618667 15.616 59.008 26.709333 4.053333-12.501333 6.272-25.813333 6.272-39.68V298.666667a128 128 0 1 0-256 0v170.666666c0 6.997333 0.554667 13.866667 1.664 20.565334 19.754667-8.106667 40.661333-13.952 62.421333-17.322667A63.36 63.36 0 0 1 704 469.333333V298.666667a64 64 0 0 1 128 0zM981.333333 746.666667a234.666667 234.666667 0 1 1-469.333333 0 234.666667 234.666667 0 0 1 469.333333 0z m-106.666666 21.333333a21.333333 21.333333 0 0 0 0-42.666667h-204.501334l70.272-70.229333a21.333333 21.333333 0 0 0-30.208-30.208l-106.666666 106.666667a21.333333 21.333333 0 0 0 0 30.208l106.666666 106.666666a21.333333 21.333333 0 0 0 30.208-30.208L670.165333 768H874.666667z" /></svg>