<svg class="icon" style="width: 1em;height: 1em;vertical-align: middle;fill: currentColor;overflow: hidden;" viewBox="0 0 1024 1024" version="1.1" xmlns="http://www.w3.org/2000/svg"><path d="M704 512a234.666667 234.666667 0 1 1 0 469.333333 234.666667 234.666667 0 0 1 0-469.333333zM512 74.666667a138.666667 138.666667 0 0 1 138.453333 130.816L650.666667 213.333333h224a32 32 0 0 1 4.352 63.701334L874.666667 277.333333h-33.962667l-21.333333 217.045334c-19.626667-8.96-40.533333-15.786667-62.293334-19.968l19.328-197.077334H247.552l54.058667 549.205334a53.333333 53.333333 0 0 0 47.658666 47.872l5.418667 0.256h103.253333c12.202667 23.509333 27.733333 45.056 45.909334 64H354.688a117.333333 117.333333 0 0 1-115.797333-98.432l-0.981334-7.424L183.253333 277.333333H149.333333a32 32 0 0 1-31.701333-27.648L117.333333 245.333333a32 32 0 0 1 27.648-31.701333L149.333333 213.333333h224A138.666667 138.666667 0 0 1 512 74.666667z m73.216 547.797333l-2.986667 2.432-2.432 2.986667a21.333333 21.333333 0 0 0 0 24.234666l2.432 2.986667 91.605334 91.562667-91.605334 91.562666-2.432 2.986667a21.333333 21.333333 0 0 0 0 24.234667l2.432 2.986666 2.986667 2.432a21.333333 21.333333 0 0 0 24.234667 0l2.986666-2.432 91.562667-91.605333 91.562667 91.605333 2.986666 2.432a21.333333 21.333333 0 0 0 24.234667 0l2.986667-2.432 2.432-2.986666a21.333333 21.333333 0 0 0 0-24.234667l-2.432-2.986667-91.605334-91.562666 91.605334-91.562667 2.432-2.986667a21.333333 21.333333 0 0 0 0-24.234666l-2.432-2.986667-2.986667-2.432a21.333333 21.333333 0 0 0-24.234667 0l-2.986666 2.432-91.562667 91.605333-91.562667-91.605333-2.986666-2.432a21.333333 21.333333 0 0 0-20.992-1.877333l-3.242667 1.877333zM512 138.666667a74.666667 74.666667 0 0 0-74.410667 68.522666L437.333333 213.333333h149.333334A74.666667 74.666667 0 0 0 512 138.666667z" /></svg>