<svg class="icon" style="width: 1em;height: 1em;vertical-align: middle;fill: currentColor;overflow: hidden;" viewBox="0 0 1024 1024" version="1.1" xmlns="http://www.w3.org/2000/svg"><path d="M168.106667 213.333333L94.72 139.946667a32 32 0 0 1 45.226667-45.226667l789.333333 789.333333a32 32 0 0 1-45.226667 45.226667l-97.834666-97.792-0.128 1.322667a117.333333 117.333333 0 0 1-109.269334 105.642666l-7.509333 0.213334H354.688a117.333333 117.333333 0 0 1-115.797333-98.432l-0.981334-7.424L183.253333 277.333333H149.333333a32 32 0 0 1-31.701333-27.648L117.333333 245.333333a32 32 0 0 1 27.648-31.701333L149.333333 213.333333h18.773334z m559.573333 559.616L618.666667 663.893333V725.333333a32 32 0 0 1-63.701334 4.352L554.666667 725.333333v-125.44l-85.333334-85.333333V725.333333a32 32 0 0 1-63.701333 4.352L405.333333 725.333333v-274.773333L249.258667 294.528l52.352 532.053333a53.333333 53.333333 0 0 0 47.658666 47.872l5.418667 0.256h314.624c25.6 0 47.317333-18.133333 52.266667-42.752l0.853333-5.376 5.248-53.589333zM555.434667 419.669333l63.232 63.232V426.666667l-0.298667-4.352a32 32 0 0 0-62.933333-2.645334zM776.405333 277.333333l-32.512 330.794667 58.538667 58.538667 38.272-389.333334h33.962667l4.352-0.298666A32 32 0 0 0 874.666667 213.333333h-224l-0.213334-7.850666A138.666667 138.666667 0 0 0 373.333333 213.333333h-24.234666l64 64h363.306666zM512 138.666667c41.216 0 74.666667 33.450667 74.666667 74.666666h-149.333334l0.256-6.144A74.666667 74.666667 0 0 1 512 138.666667z" /></svg>