<svg class="icon" style="width: 1em;height: 1em;vertical-align: middle;fill: currentColor;overflow: hidden;" viewBox="0 0 1024 1024" version="1.1" xmlns="http://www.w3.org/2000/svg"><path d="M672 256a32 32 0 0 0 0 64c30.464 0 53.333333 22.869333 53.333333 53.333333a32 32 0 0 0 64 0A116.053333 116.053333 0 0 0 672 256zM330.666667 128c-47.189333 0-102.186667 23.552-144.853334 59.178667C142.890667 223.018667 106.666667 275.968 106.666667 339.114667v0.768c0 30.506667 0 98.304 51.797333 159.786666 5.461333 6.485333 8.789333 10.624 11.178667 14.762667 13.525333 23.552 22.229333 49.706667 22.357333 72.405333 0.426667 81.066667 15.061333 150.442667 40.96 200.832 25.642667 49.834667 66.133333 86.997333 119.04 86.997334 15.658667 0 30.634667-3.669333 43.562667-12.458667 12.8-8.704 21.077333-20.650667 26.453333-32.810667 10.069333-22.613333 12.501333-51.669333 14.08-77.909333 0.426667-6.613333 0.810667-13.226667 1.152-19.968 2.773333-51.285333 5.632-104.746667 28.842667-152.106667 7.808-16 21.845333-24.746667 35.242666-24.746666h21.333334c13.098667 0 26.752 8.362667 34.688 23.594666 16.768 44.202667 21.845333 93.312 26.752 140.629334 1.194667 11.52 2.346667 22.869333 3.712 34.048 3.2 26.88 7.594667 55.04 17.834666 76.885333 5.333333 11.434667 13.056 22.954667 24.746667 31.573333 12.117333 8.96 26.325333 13.269333 41.6 13.269334 47.36 0 87.509333-38.485333 113.792-86.186667 27.562667-50.048 45.738667-119.466667 46.208-201.642667 0.128-25.301333 10.965333-54.741333 26.752-79.701333 58.453333-69.632 58.581333-134.826667 58.581333-168.021333 0-63.146667-36.224-116.096-79.146666-151.936C795.52 151.552 740.522667 128 693.333333 128c-37.077333 0-66.176 5.888-89.898666 15.786667-23.893333 10.026667-40.618667 23.381333-53.546667 35.968-5.632 5.546667-10.666667 11.008-14.805333 15.530666l-1.28 1.408c-4.693333 5.12-7.978667 8.618667-11.093334 11.392-5.290667 4.693333-7.68 5.248-10.709333 5.248-3.029333 0-5.418667-0.554667-10.666667-5.248a163.242667 163.242667 0 0 1-11.136-11.392l-1.28-1.408c-4.181333-4.522667-9.173333-10.026667-14.805333-15.530666a167.381333 167.381333 0 0 0-53.546667-35.925334C396.842667 133.888 367.786667 128 330.666667 128zM170.666667 339.114667c0-37.717333 21.973333-74.282667 56.149333-102.826667C261.248 207.573333 302.250667 192 330.666667 192c30.208 0 50.688 4.778667 65.237333 10.837333 14.378667 6.016 24.533333 13.994667 33.493333 22.741334 4.266667 4.181333 8.106667 8.362667 12.373334 13.056l1.28 1.322666c4.48 4.906667 9.813333 10.709333 15.744 15.957334 12.672 11.306667 29.525333 21.418667 53.205333 21.418666 23.68 0 40.533333-10.112 53.205333-21.418666 5.888-5.248 11.264-11.050667 15.786667-15.957334l1.194667-1.322666c4.266667-4.693333 8.149333-8.874667 12.416-13.056 8.96-8.746667 19.114667-16.725333 33.493333-22.741334 14.549333-6.058667 35.029333-10.837333 65.237333-10.837333 28.416 0 69.418667 15.573333 103.850667 44.288 34.133333 28.544 56.149333 65.109333 56.149333 102.826667v0.170666c0 29.013333 0 75.605333-44.757333 128.042667a32.170667 32.170667 0 0 0-2.517333 3.413333c-20.48 31.701333-37.845333 73.728-38.058667 115.754667-0.426667 73.386667-16.725333 132.010667-38.272 171.093333C706.986667 798.976 683.52 810.666667 672 810.666667c-2.688 0-3.370667-0.554667-3.498667-0.682667a19.285333 19.285333 0 0 1-4.906666-7.253333c-5.290667-11.392-8.96-29.952-12.245334-57.386667-1.066667-9.088-2.133333-18.986667-3.157333-29.525333-4.906667-48.042667-11.050667-108.586667-31.658667-162.005334a33.066667 33.066667 0 0 0-1.109333-2.56c-16.597333-33.834667-50.688-60.586667-92.757333-60.586666h-21.333334c-42.069333 0-76.16 26.752-92.757333 60.586666-29.397333 60.032-32.768 127.445333-35.328 177.536l-0.981333 18.858667c-1.706667 27.904-4.096 45.397333-8.746667 55.765333-1.92 4.394667-3.456 5.546667-3.882667 5.845334-0.298667 0.213333-2.090667 1.408-7.637333 1.408-18.816 0-41.898667-13.013333-62.122667-52.309334-19.925333-38.698667-33.450667-97.322667-33.877333-171.861333-0.213333-37.205333-13.824-74.24-30.848-103.936a162.688 162.688 0 0 0-17.365333-23.68l-0.426667-0.426667C171.093333 415.317333 170.666667 367.957333 170.666667 339.072z" /></svg>