<svg class="icon" style="width: 1em;height: 1em;vertical-align: middle;fill: currentColor;overflow: hidden;" viewBox="0 0 1024 1024" version="1.1" xmlns="http://www.w3.org/2000/svg"><path d="M237.866667 88.490667A32 32 0 0 1 256 117.333333c0 35.413333 13.312 55.808 29.994667 80.64l1.237333 1.792c14.165333 21.077333 32.768 48.682667 32.768 88.234667 0 40.362667-20.352 75.946667-51.370667 97.066667 8.149333 6.826667 15.36 15.232 21.589334 25.301333 20.309333 32.853333 29.781333 83.072 29.781333 155.178667 0 73.045333-9.813333 160.768-25.813333 230.826666-7.936 34.816-17.792 66.944-29.525334 91.050667-5.845333 11.989333-12.970667 23.68-21.76 32.853333-8.789333 9.002667-22.314667 18.602667-40.234666 18.602667-17.92 0-31.445333-9.6-40.192-18.602667a127.786667 127.786667 0 0 1-21.76-32.853333c-11.776-24.149333-21.632-56.234667-29.568-91.093333A1111.466667 1111.466667 0 0 1 85.333333 565.504c0-72.106667 9.472-122.282667 29.781334-155.136a104.106667 104.106667 0 0 1 21.589333-25.301333A117.205333 117.205333 0 0 1 85.333333 288c0-15.701333 0-42.709333 16.341334-77.568 16-34.133333 46.421333-73.344 102.314666-118.101333a32 32 0 0 1 33.877334-3.84zM149.333333 287.957333v0.042667a53.333333 53.333333 0 0 0 106.666667 0c0-18.730667-7.893333-31.701333-23.125333-54.357333l-0.512-0.768c-9.770667-14.506667-21.333333-31.701333-29.525334-53.76-23.168 23.552-35.968 43.093333-43.178666 58.453333-10.325333 22.016-10.325333 37.674667-10.325334 50.346667z m20.224 156.032c-10.581333 17.152-20.224 52.309333-20.224 121.557334 0 68.309333 9.301333 151.253333 24.192 216.576 7.509333 32.853333 16.042667 59.52 24.704 77.269333 1.578667 3.285333 3.072 6.016 4.437334 8.32 1.365333-2.304 2.858667-5.034667 4.437333-8.32 8.661333-17.749333 17.194667-44.458667 24.704-77.269333 14.933333-65.28 24.192-148.224 24.192-216.576 0-69.248-9.642667-104.405333-20.224-121.557334a33.536 33.536 0 0 0-13.866667-13.525333 43.562667 43.562667 0 0 0-19.242666-3.584c-8.533333 0-14.634667 1.322667-19.242667 3.584a33.536 33.536 0 0 0-13.866667 13.525333zM426.666667 636.458667a254.165333 254.165333 0 0 1-65.365334-20.309334 985.514667 985.514667 0 0 0 1.066667-72.661333c19.242667 12.928 40.96 22.442667 64.298667 27.733333V448A64 64 0 0 1 490.666667 384h170.666666a192 192 0 0 0-308.650666-152.490667c-8.533333-23.594667-20.693333-41.642667-29.141334-54.186666l-1.706666-2.56A256 256 0 0 1 725.333333 384h149.333334a64 64 0 0 1 64 64v384a64 64 0 0 1-64 64h-384a64 64 0 0 1-64-64v-195.541333z m64 2.688v192.853333h384v-384h-157.44a256.170667 256.170667 0 0 1-226.56 191.146667z m159.744-191.146667H490.666667v126.848a192.170667 192.170667 0 0 0 159.744-126.848z" /></svg>