<svg class="icon" style="width: 1em;height: 1em;vertical-align: middle;fill: currentColor;overflow: hidden;" viewBox="0 0 1024 1024" version="1.1" xmlns="http://www.w3.org/2000/svg"><path d="M640 64c-7.850667 0-15.658667 0.256-23.381333 0.725333a32 32 0 0 0 4.096 63.872 298.666667 298.666667 0 0 1 317.354666 317.354667 32 32 0 0 0 63.872 4.096A362.666667 362.666667 0 0 0 640 64zM640 170.666667c-8.192 0-16.341333 0.426667-24.32 1.152a32 32 0 0 0 5.973333 63.701333 192 192 0 0 1 209.493334 209.493333 32 32 0 0 0 63.701333 5.973334A256 256 0 0 0 640 170.666667z m0 106.666666c-9.216 0-18.304 0.853333-27.136 2.474667a32 32 0 0 0 11.562667 62.933333 85.333333 85.333333 0 0 1 99.456 99.498667 32 32 0 0 0 62.976 11.52A149.333333 149.333333 0 0 0 640 277.333333zM550.826667 128H181.333333l-6.570666 0.213333A96 96 0 0 0 85.333333 224v448.085333l0.213334 6.570667a96 96 0 0 0 95.786666 89.429333h181.290667V874.666667H288l-4.352 0.298666A32 32 0 0 0 288 938.666667h448l4.352-0.256a32 32 0 0 0-4.352-63.744h-74.709333v-106.581334h181.333333l6.570667-0.213333a96 96 0 0 0 89.429333-95.786667V515.84a74.666667 74.666667 0 0 1-22.144-15.701333 74.666667 74.666667 0 0 1-41.856 21.717333v150.272l-0.298667 4.352a32 32 0 0 1-31.701333 27.648H181.333333l-4.352-0.298667a32 32 0 0 1-27.648-31.701333V224l0.298667-4.352A32 32 0 0 1 181.333333 192h363.562667c2.56-16.128 10.325333-30.72 21.674667-41.813333a74.666667 74.666667 0 0 1-15.701334-22.186667z m46.421333 640.085333l0.042667 106.581334h-170.666667l-0.042667-106.581334h170.666667zM682.666667 426.666667a42.666667 42.666667 0 1 1-85.333334 0 42.666667 42.666667 0 0 1 85.333334 0z" /></svg>