<svg class="icon" style="width: 1em;height: 1em;vertical-align: middle;fill: currentColor;overflow: hidden;" viewBox="0 0 1024 1024" version="1.1" xmlns="http://www.w3.org/2000/svg"><path d="M711.168 128H181.333333l-6.570666 0.213333A96 96 0 0 0 85.333333 224v448.085333l0.213334 6.570667a96 96 0 0 0 95.786666 89.429333h181.290667V874.666667H288l-4.352 0.298666A32 32 0 0 0 288 938.666667h448l4.352-0.256a32 32 0 0 0-4.352-63.744h-74.709333v-106.581334h181.333333l6.570667-0.213333a96 96 0 0 0 89.429333-95.786667V405.333333h-64v266.752l-0.298667 4.352a32 32 0 0 1-31.701333 27.648H181.333333l-4.352-0.298666a32 32 0 0 1-27.648-31.701334V224l0.298667-4.352A32 32 0 0 1 181.333333 192H704v-32c0-11.434667 2.56-22.314667 7.168-32z m-284.586667 640.085333h170.666667l0.042667 106.581334h-170.666667l-0.042667-106.581334zM746.666667 160a32 32 0 0 1 32-32h170.666666a32 32 0 0 1 32 32v170.666667a32 32 0 0 1-32 32h-170.666666a32 32 0 0 1-32-32V298.666667h-13.781334a22.869333 22.869333 0 0 0-21.674666 15.616l-38.997334 116.992a86.869333 86.869333 0 0 1-82.432 59.392H554.666667v74.666666a32 32 0 0 1-32 32h-170.666667a32 32 0 0 1-32-32v-170.666666a32 32 0 0 1 32-32h170.666667a32 32 0 0 1 32 32V426.666667h35.114666c9.813333 0 18.602667-6.314667 21.674667-15.616l38.997333-116.992A86.869333 86.869333 0 0 1 732.885333 234.666667h13.781334V160zM810.666667 267.434667V298.666667h106.666666V192H810.666667v73.898667a45.525333 45.525333 0 0 1 0 1.536zM384 426.666667v106.666666h106.666667V426.666667H384z" /></svg>