<svg class="icon" style="width: 1em;height: 1em;vertical-align: middle;fill: currentColor;overflow: hidden;" viewBox="0 0 1024 1024" version="1.1" xmlns="http://www.w3.org/2000/svg"><path d="M139.946667 94.72a32 32 0 1 0-45.226667 45.226667l17.450667 17.493333C95.530667 174.634667 85.333333 198.101333 85.333333 224v448.085333l0.213334 6.570667a96 96 0 0 0 95.786666 89.429333h181.290667V874.666667H288l-4.352 0.298666A32 32 0 0 0 288 938.666667h381.056a74.624 74.624 0 0 1-30.208-19.797334L597.333333 874.496v0.170667h-170.666666l-0.042667-106.581334H469.333333v-64H181.333333l-4.352-0.298666a32 32 0 0 1-27.648-31.701334V224l0.298667-4.352a31.872 31.872 0 0 1 7.808-16.938667l462.208 462.208-15.488 17.749334h-60.16a32 32 0 0 0-32 32v64c0 17.664 14.336 32 32 32h60.16l65.109333 74.410666A32 32 0 0 0 725.333333 864v-93.397333l158.72 158.72a32 32 0 0 0 45.226667-45.269334L139.946667 94.72zM874.496 738.730667l-102.869333-102.826667a32 32 0 0 1 47.573333-10.794667c8.064 5.973333 18.56 16.512 28.757333 31.786667 15.402667 23.125333 25.130667 50.517333 26.538667 81.834667zM968.021333 832.298667l-53.034666-53.034667c1.536-10.410667 2.346667-21.248 2.346666-32.597333 0-40.618667-10.325333-75.008-27.434666-103.552-9.984-16.64-19.626667-27.349333-25.045334-31.872a32 32 0 1 1 40.96-49.152c10.581333 8.832 24.96 24.746667 38.954667 48.128 22.869333 38.101333 36.565333 83.712 36.565333 136.448a272.64 272.64 0 0 1-13.312 85.632zM327.765333 192L263.765333 128h578.858667a96 96 0 0 1 95.786667 89.386667l0.213333 6.613333v310.101333a142.677333 142.677333 0 0 0-5.504-4.778666 74.453333 74.453333 0 0 0-58.496-16.554667V224a32 32 0 0 0-27.648-31.744l-4.352-0.256H327.765333z" /></svg>