<svg class="icon" style="width: 1em;height: 1em;vertical-align: middle;fill: currentColor;overflow: hidden;" viewBox="0 0 1024 1024" version="1.1" xmlns="http://www.w3.org/2000/svg"><path d="M981.333333 277.333333a234.666667 234.666667 0 1 1-469.333333 0 234.666667 234.666667 0 0 1 469.333333 0zM618.666667 256a21.333333 21.333333 0 0 0 0 42.666667h204.501333l-70.272 70.229333a21.333333 21.333333 0 0 0 30.208 30.208l106.666667-106.666667a21.333333 21.333333 0 0 0 0-30.208l-106.666667-106.666666a21.333333 21.333333 0 0 0-30.208 30.208L823.168 256H618.666667zM874.624 672.085333v-148.650666a278.016 278.016 0 0 0 64-45.952v194.56a96 96 0 0 1-89.429333 95.829333l-6.570667 0.213333h-181.333333V874.666667h74.709333a32 32 0 0 1 4.352 63.701333L736 938.666667H288a32 32 0 0 1-4.352-63.701334l4.352-0.298666h74.624v-106.581334H181.333333a96 96 0 0 1-95.786666-89.429333L85.333333 672.085333V224a96 96 0 0 1 89.429334-95.786667L181.333333 128h331.605334a276.138667 276.138667 0 0 0-30.208 64H181.333333a32 32 0 0 0-31.701333 27.648L149.333333 224v448.085333c0 16.213333 12.032 29.568 27.648 31.701334l4.352 0.298666h661.290667a32 32 0 0 0 31.701333-27.648l0.298667-4.352z m-277.376 96h-170.666667l0.042667 106.581334h170.666667l-0.042667-106.581334z" /></svg>