<svg class="icon" style="width: 1em;height: 1em;vertical-align: middle;fill: currentColor;overflow: hidden;" viewBox="0 0 1024 1024" version="1.1" xmlns="http://www.w3.org/2000/svg"><path d="M286.890667 938.666667H394.666667A138.24 138.24 0 0 1 384 885.333333v-181.248H181.333333l-4.352-0.298666a32 32 0 0 1-27.648-31.701334V224l0.298667-4.352A32 32 0 0 1 181.333333 192h661.290667l4.352 0.298667a32 32 0 0 1 27.648 31.701333V512h10.709333c18.858667 0 36.864 3.754667 53.290667 10.624V224l-0.213333-6.570667A96 96 0 0 0 842.624 128H181.333333l-6.570666 0.213333A96 96 0 0 0 85.333333 224v448.085333l0.213334 6.570667A96 96 0 0 0 176.981333 768H170.666667v0.085333h149.290666V874.666667H245.333333l-4.352 0.298666A32 32 0 0 0 244.224 938.666667h42.666667zM426.666667 650.666667A96 96 0 0 1 522.666667 554.666667h362.666666A96 96 0 0 1 981.333333 650.666667v234.666666A96 96 0 0 1 885.333333 981.333333h-362.666666A96 96 0 0 1 426.666667 885.333333v-234.666666z m170.666666 10.666666a32 32 0 1 0-64 0 32 32 0 0 0 64 0z m149.333334 0a32 32 0 1 0-64 0 32 32 0 0 0 64 0z m106.666666 32a32 32 0 1 0 0-64 32 32 0 0 0 0 64zM821.333333 768a32 32 0 1 0-64 0 32 32 0 0 0 64 0z m-181.333333 32a32 32 0 1 0 0-64 32 32 0 0 0 0 64z m-85.333333 85.333333c0 17.664 14.336 32 32 32h234.666666a32 32 0 0 0 0-64h-234.666666a32 32 0 0 0-32 32z" /></svg>