<svg class="icon" style="width: 1em;height: 1em;vertical-align: middle;fill: currentColor;overflow: hidden;" viewBox="0 0 1024 1024" version="1.1" xmlns="http://www.w3.org/2000/svg"><path d="M256 906.666667c0 17.706667 14.336 32 32 32h381.056a74.538667 74.538667 0 0 1-30.208-19.797334L597.333333 874.496v0.170667h-170.666666l-0.042667-106.581334H469.333333v-64H181.333333l-4.352-0.298666a32 32 0 0 1-27.648-31.701334V224l0.298667-4.352A32 32 0 0 1 181.333333 192h661.290667l4.352 0.298667a32 32 0 0 1 27.648 31.701333v288.810667c20.224-2.944 41.557333 2.389333 58.496 16.512 1.792 1.493333 3.626667 3.114667 5.504 4.821333V224l-0.213333-6.570667A96 96 0 0 0 842.624 128H181.333333l-6.570666 0.213333A96 96 0 0 0 85.333333 224v448.085333l0.213334 6.570667a96 96 0 0 0 95.786666 89.429333h181.290667V874.666667H288l-4.352 0.298666A32 32 0 0 0 256 906.666667zM944.768 610.218667c-13.994667-23.338667-28.373333-39.253333-38.954667-48.128a32 32 0 0 0-40.96 49.194666c5.418667 4.48 15.061333 15.189333 25.045334 31.872 17.109333 28.544 27.434667 62.933333 27.434666 103.509334 0 40.618667-10.325333 75.008-27.434666 103.552-9.984 16.64-19.626667 27.392-25.045334 31.872a32 32 0 0 0 40.96 49.194666c10.581333-8.832 24.96-24.789333 38.954667-48.128 22.869333-38.144 36.565333-83.754667 36.565333-136.490666 0-52.693333-13.653333-98.304-36.565333-136.448zM847.957333 656.938667a131.2 131.2 0 0 0-28.757333-31.872 32 32 0 0 0-38.4 51.2c2.645333 2.005333 8.106667 7.466667 13.909333 16.170666 9.984 14.976 15.957333 32.896 15.957334 54.229334 0 21.333333-5.973333 39.296-15.957334 54.272a71.68 71.68 0 0 1-13.909333 16.170666l-3.584 3.114667a32 32 0 0 0 41.984 48.085333c8.064-6.058667 18.56-16.554667 28.757333-31.872A159.317333 159.317333 0 0 0 874.666667 746.666667c0-34.645333-10.026667-64.725333-26.709334-89.728zM725.333333 629.333333a32 32 0 0 0-56.064-21.034666L604.16 682.666667h-60.16a32 32 0 0 0-32 32v64c0 17.706667 14.336 32 32 32h60.16l65.109333 74.410666A32 32 0 0 0 725.333333 864v-234.666667z" /></svg>