<svg class="icon" style="width: 1em;height: 1em;vertical-align: middle;fill: currentColor;overflow: hidden;" viewBox="0 0 1024 1024" version="1.1" xmlns="http://www.w3.org/2000/svg"><path d="M650.666667 85.333333a32 32 0 0 1 31.701333 27.648L682.666667 117.333333v99.2A160.170667 160.170667 0 0 1 807.466667 341.333333h99.2a32 32 0 0 1 4.352 63.701334l-4.352 0.298666H810.666667v74.666667h96a32 32 0 0 1 31.701333 27.648L938.666667 512a32 32 0 0 1-27.648 31.701333l-4.352 0.298667H810.666667v74.666667h96a32 32 0 0 1 31.701333 27.648l0.298667 4.352a32 32 0 0 1-27.648 31.701333L906.666667 682.666667h-99.2A160.170667 160.170667 0 0 1 682.666667 807.509333v99.2a32 32 0 0 1-63.701334 4.352l-0.298666-4.352v-96.042666h-74.709334l0.042667 96.042666a32 32 0 0 1-27.648 31.701334L512 938.666667a32 32 0 0 1-31.701333-27.648l-0.298667-4.352-0.042667-96.042667H405.333333v96.042667a32 32 0 0 1-27.648 31.701333L373.333333 938.666667a32 32 0 0 1-31.701333-27.648L341.333333 906.666667v-99.2A160.170667 160.170667 0 0 1 216.533333 682.666667H117.333333a32 32 0 0 1-4.352-63.701334l4.352-0.298666L213.333333 618.624v-74.666667l-96 0.042667a32 32 0 0 1-31.701333-27.648L85.333333 512a32 32 0 0 1 27.648-31.701333l4.352-0.298667L213.333333 479.957333v-74.666666L117.333333 405.333333a32 32 0 0 1-31.701333-27.648L85.333333 373.333333a32 32 0 0 1 27.648-31.701333L117.333333 341.333333l99.2-0.042666A160.170667 160.170667 0 0 1 341.333333 216.533333V117.333333a32 32 0 0 1 63.701334-4.352l0.298666 4.352v95.957334h74.624l0.042667-95.957334a32 32 0 0 1 27.648-31.701333L512 85.333333a32 32 0 0 1 31.701333 27.648l0.298667 4.352-0.042667 95.957334H618.666667V117.333333a32 32 0 0 1 23.466666-30.848l4.181334-0.853333L650.666667 85.333333z m0 192h-277.333334A96 96 0 0 0 277.333333 373.333333v277.333334a96 96 0 0 0 96 96h277.333334a96 96 0 0 0 96-96v-277.333334a96 96 0 0 0-96-96z m-138.453334 106.88a128 128 0 1 1 0 256 128 128 0 0 1 0-256z m0 64a64 64 0 1 0 0 128 64 64 0 0 0 0-128z" /></svg>