<svg class="icon" style="width: 1em;height: 1em;vertical-align: middle;fill: currentColor;overflow: hidden;" viewBox="0 0 1024 1024" version="1.1" xmlns="http://www.w3.org/2000/svg"><path d="M512 128a32 32 0 0 1 31.701333 27.648l0.298667 4.352v704a32 32 0 0 1-63.701333 4.352l-0.298667-4.352V160A32 32 0 0 1 512 128zM352.213333 256a32 32 0 0 1 31.701334 27.648l0.298666 4.352v448a32 32 0 0 1-63.701333 4.352l-0.298667-4.352V288a32 32 0 0 1 32-32z m319.573334 0a32 32 0 0 1 31.701333 27.648l0.298667 4.352v448a32 32 0 0 1-63.701334 4.352l-0.298666-4.352V288a32 32 0 0 1 32-32zM202.709333 384a32 32 0 0 1 31.701334 27.648l0.298666 4.352v192a32 32 0 0 1-63.701333 4.352l-0.298667-4.352v-192a32 32 0 0 1 32-32z m618.709334 0a32 32 0 0 1 31.744 27.648l0.256 4.352v191.957333a32 32 0 0 1-63.701334 4.309334l-0.298666-4.309334V416a32 32 0 0 1 32-32z" /></svg>