<svg class="icon" style="width: 1em;height: 1em;vertical-align: middle;fill: currentColor;overflow: hidden;" viewBox="0 0 1024 1024" version="1.1" xmlns="http://www.w3.org/2000/svg"><path d="M301.653333 128c-60.416 0-112.938667 41.386667-127.061333 100.096L89.6 581.077333A151.466667 151.466667 0 0 0 236.885333 768h550.058667a151.466667 151.466667 0 0 0 147.2-186.88l-84.906667-353.024A130.688 130.688 0 0 0 722.133333 128H301.610667zM236.8 243.072A66.688 66.688 0 0 1 301.653333 192h420.522667c30.805333 0 57.6 21.12 64.810667 51.072l84.992 352.981333a87.466667 87.466667 0 0 1-85.077334 107.946667H236.928a87.466667 87.466667 0 0 1-85.034667-107.946667L236.8 243.072zM287.914667 810.666667a32 32 0 0 0 0 64h448a32 32 0 0 0 0-64h-448z" /></svg>