<svg class="icon" style="width: 1em;height: 1em;vertical-align: middle;fill: currentColor;overflow: hidden;" viewBox="0 0 1024 1024" version="1.1" xmlns="http://www.w3.org/2000/svg"><path d="M174.677333 228.096A130.688 130.688 0 0 1 301.738667 128h420.608c60.373333 0 112.896 41.386667 127.061333 100.096l84.992 352.981333A151.466667 151.466667 0 0 1 787.114667 768H448v-64h339.072a87.466667 87.466667 0 0 0 85.034667-107.946667L787.2 243.072A66.688 66.688 0 0 0 722.346667 192H301.781333c-30.805333 0-57.6 21.12-64.853333 51.072L208.170667 362.666667H160c-6.144 0-12.16 0.469333-18.048 1.365333l32.725333-135.936zM447.573333 874.666667h288.512a32 32 0 1 0 0-64h-288v53.333333c0 3.584-0.213333 7.168-0.512 10.666667z m-202.24-256a53.333333 53.333333 0 1 0 0-106.666667 53.333333 53.333333 0 0 0 0 106.666667zM85.333333 480c0-41.216 33.450667-74.666667 74.666667-74.666667h170.666667c41.301333 0 74.709333 33.450667 74.709333 74.666667v384A74.666667 74.666667 0 0 1 330.709333 938.666667h-170.666666A74.666667 74.666667 0 0 1 85.333333 864v-384zM160 469.333333a10.666667 10.666667 0 0 0-10.666667 10.666667v384c0 5.888 4.778667 10.666667 10.666667 10.666667h170.666667a10.666667 10.666667 0 0 0 10.666666-10.666667v-384a10.666667 10.666667 0 0 0-10.666666-10.666667h-170.666667z" /></svg>