<svg class="icon" style="width: 1em;height: 1em;vertical-align: middle;fill: currentColor;overflow: hidden;" viewBox="0 0 1024 1024" version="1.1" xmlns="http://www.w3.org/2000/svg"><path d="M85.333333 224A138.666667 138.666667 0 0 1 224 85.333333h448A138.666667 138.666667 0 0 1 810.666667 224v257.408A117.290667 117.290667 0 0 0 758.826667 469.333333H746.666667V224a74.666667 74.666667 0 0 0-74.666667-74.666667H224A74.666667 74.666667 0 0 0 149.333333 224v490.666667c0 41.216 33.450667 74.666667 74.666667 74.666666h143.786667L313.898667 853.333333H224A138.666667 138.666667 0 0 1 85.333333 714.666667V224zM288 256a32 32 0 0 0 0 64h320a32 32 0 0 0 0-64h-320z m13.653333 274.517333A32 32 0 0 1 330.666667 512h428.16a74.666667 74.666667 0 0 1 57.088 26.581333l157.866666 187.477334a32 32 0 0 1 0 41.216l-157.866666 187.477333a74.666667 74.666667 0 0 1-57.088 26.581333H330.666667a32 32 0 0 1-24.490667-52.608L459.52 746.666667l-153.344-182.058667a32 32 0 0 1-4.522667-34.133333zM399.445333 576l126.378667 150.058667a32 32 0 0 1 0 41.216L399.445333 917.333333h359.381334a10.666667 10.666667 0 0 0 8.149333-3.797333L907.52 746.666667l-140.544-166.869334a10.666667 10.666667 0 0 0-8.149333-3.797333H399.445333zM288 384a32 32 0 0 0 0 64h192a32 32 0 0 0 0-64h-192z" /></svg>