<svg class="icon" style="width: 1em;height: 1em;vertical-align: middle;fill: currentColor;overflow: hidden;" viewBox="0 0 1024 1024" version="1.1" xmlns="http://www.w3.org/2000/svg"><path d="M139.946667 94.72a32 32 0 1 0-45.226667 45.226667L286.72 332.032a53.333333 53.333333 0 1 0 64 64l149.333333 149.333333a53.333333 53.333333 0 1 0 63.914667 63.914667l320 320a32 32 0 0 0 45.269333-45.226667L139.946667 94.72zM778.496 597.333333c0 12.714667-4.437333 24.362667-11.861333 33.536l-75.008-75.008a53.333333 53.333333 0 0 1 86.869333 41.472zM565.333333 384c0 12.757333-4.48 24.448-11.946666 33.621333L478.378667 342.613333A53.333333 53.333333 0 0 1 565.333333 384zM352.170667 170.666667c0 12.8-4.522667 24.533333-12.032 33.706666L265.130667 129.365333A53.333333 53.333333 0 0 1 352.170667 170.666667zM512 757.333333a53.333333 53.333333 0 1 1 0 106.666667 53.333333 53.333333 0 0 1 0-106.666667zM298.837333 544a53.333333 53.333333 0 1 1 0 106.666667 53.333333 53.333333 0 0 1 0-106.666667zM725.162667 330.666667a53.333333 53.333333 0 1 1 0 106.666666 53.333333 53.333333 0 0 1 0-106.666666zM512 117.333333a53.333333 53.333333 0 1 1 0 106.666667 53.333333 53.333333 0 0 1 0-106.666667zM725.162667 117.333333a53.333333 53.333333 0 1 1 0 106.666667 53.333333 53.333333 0 0 1 0-106.666667z" /></svg>