<svg class="icon" style="width: 1em;height: 1em;vertical-align: middle;fill: currentColor;overflow: hidden;" viewBox="0 0 1024 1024" version="1.1" xmlns="http://www.w3.org/2000/svg"><path d="M610.048 127.317333l286.634667 286.634667a138.666667 138.666667 0 0 1 0 196.096l-286.634667 286.592a138.666667 138.666667 0 0 1-196.096 0l-286.634667-286.592a138.666667 138.666667 0 0 1 0-196.096l286.634667-286.634667a138.666667 138.666667 0 0 1 196.096 0z m-150.869333 45.226667l-286.592 286.634667a74.666667 74.666667 0 0 0 0 105.6l286.592 286.634666a74.666667 74.666667 0 0 0 105.6 0l286.634666-286.634666a74.666667 74.666667 0 0 0 0-105.6l-286.634666-286.592a74.666667 74.666667 0 0 0-105.6 0z m72.362666 139.093333l3.072-3.584a32 32 0 0 1 41.685334-3.114666l3.584 3.114666 85.333333 85.333334a32 32 0 0 1 3.114667 41.685333l-3.114667 3.584-85.333333 85.333333a32 32 0 0 1-48.341334-41.685333l3.072-3.584 30.72-30.72h-64a53.333333 53.333333 0 0 0-53.077333 47.872l-0.256 5.461333V640a32 32 0 0 1-63.701333 4.309333L384 640v-138.666667a117.333333 117.333333 0 0 1 110.165333-117.12L501.333333 384h63.914667l-30.634667-30.72a32 32 0 0 1-3.072-41.642667l3.072-3.584-3.072 3.584z" /></svg>