<svg class="icon" style="width: 1em;height: 1em;vertical-align: middle;fill: currentColor;overflow: hidden;" viewBox="0 0 1024 1024" version="1.1" xmlns="http://www.w3.org/2000/svg"><path d="M350.72 350.72a32 32 0 0 1 45.226667 0L512 466.773333l116.053333-116.053333a32 32 0 1 1 45.226667 45.226667L557.226667 512l116.053333 116.053333a32 32 0 1 1-45.226667 45.226667L512 557.226667l-116.053333 116.053333a32 32 0 0 1-45.226667-45.226667L466.773333 512 350.72 395.946667a32 32 0 0 1 0-45.226667zM266.666667 128A138.666667 138.666667 0 0 0 128 266.666667v490.666666A138.666667 138.666667 0 0 0 266.666667 896h490.666666A138.666667 138.666667 0 0 0 896 757.333333V266.666667A138.666667 138.666667 0 0 0 757.333333 128H266.666667zM192 266.666667c0-41.216 33.450667-74.666667 74.666667-74.666667h490.666666c41.216 0 74.666667 33.450667 74.666667 74.666667v490.666666a74.666667 74.666667 0 0 1-74.666667 74.666667H266.666667a74.666667 74.666667 0 0 1-74.666667-74.666667V266.666667z" /></svg>