<svg class="icon" style="width: 1em;height: 1em;vertical-align: middle;fill: currentColor;overflow: hidden;" viewBox="0 0 1024 1024" version="1.1" xmlns="http://www.w3.org/2000/svg"><path d="M187.605333 194.304l3.114667-3.584a32 32 0 0 1 41.642667-3.114667l3.584 3.114667L512 466.730667l276.053333-276.053334a32 32 0 1 1 45.226667 45.269334L557.269333 512l276.053334 276.053333a32 32 0 0 1 3.072 41.642667l-3.114667 3.584a32 32 0 0 1-41.642667 3.114667l-3.584-3.114667L512 557.269333l-276.053333 276.053334a32 32 0 0 1-45.226667-45.269334L466.730667 512l-276.053334-276.053333a32 32 0 0 1-3.072-41.642667l3.114667-3.584-3.114667 3.584z" /></svg>