<svg class="icon" style="width: 1em;height: 1em;vertical-align: middle;fill: currentColor;overflow: hidden;" viewBox="0 0 1024 1024" version="1.1" xmlns="http://www.w3.org/2000/svg"><path d="M554.666667 256a128 128 0 0 1 128-128h85.333333a128 128 0 0 1 128 128v85.333333a128 128 0 0 1-128 128h-85.333333a128 128 0 0 1-128-128V256zM236.8 166.314667a69.077333 69.077333 0 0 1 123.733333 0l101.205334 201.216C485.12 414.165333 451.626667 469.333333 399.872 469.333333H197.461333c-51.754667 0-85.290667-55.168-61.866666-101.802666L236.8 166.314667z m59.178667 26.325333c-0.384 0.213333-1.109333 0.725333-2.005334 2.432L192.768 396.288a6.144 6.144 0 0 0-0.768 3.242667 6.912 6.912 0 0 0 3.072 5.248c0.426667 0.256 1.066667 0.554667 2.389333 0.554666h202.410667c1.28 0 1.962667-0.298667 2.389333-0.554666a6.912 6.912 0 0 0 3.029334-5.248 6.144 6.144 0 0 0-0.725334-3.242667L303.36 195.072c-0.853333-1.706667-1.621333-2.218667-2.005333-2.432A5.376 5.376 0 0 0 298.666667 192a5.376 5.376 0 0 0-2.688 0.64zM469.333333 725.333333a170.666667 170.666667 0 1 1-341.333333 0 170.666667 170.666667 0 0 1 341.333333 0z m-64 0a106.666667 106.666667 0 0 0-155.989333-94.592l143.914667 143.914667c7.68-14.72 12.074667-31.530667 12.074666-49.322667zM298.666667 832c17.792 0 34.56-4.352 49.322666-12.074667l-143.914666-143.914666A106.666667 106.666667 0 0 0 298.666667 832z m406.186666-272.384c12.8-6.613333 28.16-6.613333 40.96 0l126.890667 65.536a42.581333 42.581333 0 0 1 23.296 37.76v124.842667c0 15.786667-8.96 30.336-23.296 37.76l-126.890667 65.536c-12.8 6.613333-28.16 6.613333-40.96 0l-126.890666-65.536a42.581333 42.581333 0 0 1-23.296-37.76v-124.842667c0-15.786667 8.96-30.336 23.296-37.76l126.890666-65.536z m-86.186666 116.565333v98.304l106.666666 55.082667 106.666667-55.04v-98.346667L725.333333 621.098667l-106.666666 55.04z" /></svg>