<svg class="icon" style="width: 1em;height: 1em;vertical-align: middle;fill: currentColor;overflow: hidden;" viewBox="0 0 1024 1024" version="1.1" xmlns="http://www.w3.org/2000/svg"><path d="M204.544 426.538667h200.448a32 32 0 0 1 4.352 63.701333l-4.352 0.298667H204.544c-28.672 0-51.328 19.2-54.058667 42.709333l-0.256 4.778667-0.896 203.776c0 23.936 20.906667 44.629333 48.64 47.104l5.674667 0.256h616.704c28.672 0 51.328-19.2 54.058667-42.709334l0.256-4.778666 0.853333-203.776c0-23.936-20.821333-44.629333-48.64-47.104l-5.632-0.256h-200.32a32 32 0 0 1-4.352-63.701334l4.352-0.298666h200.32c62.293333 0 114.176 45.482667 118.058667 104.362666l0.256 7.125334L938.666667 741.802667c0 59.733333-49.493333 107.52-110.890667 111.146666l-7.424 0.213334H203.648c-62.293333 0-114.176-45.525333-118.058667-104.362667L85.333333 741.674667l0.853334-203.776c0-59.733333 49.493333-107.562667 110.933333-111.146667l7.424-0.213333h200.448-200.448z m326.485333-292.266667l3.584 3.114667 167.466667 167.466666a32 32 0 0 1-41.642667 48.341334l-3.584-3.114667-113.365333-113.493333 0.085333 414.250666a32 32 0 0 1-64 0V237.610667L367.189333 350.08a32 32 0 0 1-41.642666 3.114667l-3.584-3.114667a32 32 0 0 1-3.114667-41.642667l3.114667-3.584L489.386667 137.386667a32 32 0 0 1 41.642666-3.114667z" /></svg>