<svg class="icon" style="width: 1em;height: 1em;vertical-align: middle;fill: currentColor;overflow: hidden;" viewBox="0 0 1024 1024" version="1.1" xmlns="http://www.w3.org/2000/svg"><path d="M864 511.701333c41.216 0 74.666667 33.450667 74.666667 74.666667v106.666667a74.666667 74.666667 0 0 1-74.666667 74.666666h-106.666667a74.666667 74.666667 0 0 1-74.666666-74.666666v-106.666667c0-41.216 33.450667-74.666667 74.666666-74.666667h106.666667z m-597.333333 0c41.216 0 74.666667 33.450667 74.666666 74.666667v106.666667a74.666667 74.666667 0 0 1-74.666666 74.666666h-106.666667A74.666667 74.666667 0 0 1 85.333333 693.034667v-106.666667c0-41.216 33.450667-74.666667 74.666667-74.666667h106.666667z m298.666666 0c41.216 0 74.666667 33.450667 74.666667 74.666667v106.666667a74.666667 74.666667 0 0 1-74.666667 74.666666h-106.666666A74.666667 74.666667 0 0 1 384 693.034667v-106.666667c0-41.216 33.450667-74.666667 74.666667-74.666667h106.666666z m298.666667 64h-106.666667a10.666667 10.666667 0 0 0-10.666666 10.666667v106.666667c0 5.888 4.778667 10.666667 10.666666 10.666666h106.666667a10.666667 10.666667 0 0 0 10.666667-10.666666v-106.666667a10.666667 10.666667 0 0 0-10.666667-10.666667z m-597.333333 0h-106.666667a10.666667 10.666667 0 0 0-10.666667 10.666667v106.666667c0 5.888 4.778667 10.666667 10.666667 10.666666h106.666667a10.666667 10.666667 0 0 0 10.666666-10.666666v-106.666667a10.666667 10.666667 0 0 0-10.666666-10.666667z m298.666666 0h-106.666666a10.666667 10.666667 0 0 0-10.666667 10.666667v106.666667c0 5.888 4.778667 10.666667 10.666667 10.666666h106.666666a10.666667 10.666667 0 0 0 10.666667-10.666666v-106.666667a10.666667 10.666667 0 0 0-10.666667-10.666667z m0-362.666666c41.216 0 74.666667 33.450667 74.666667 74.666666v106.666667a74.666667 74.666667 0 0 1-74.666667 74.666667h-106.666666A74.666667 74.666667 0 0 1 384 394.368v-106.666667c0-41.216 33.450667-74.666667 74.666667-74.666666h106.666666z m298.666667 0c41.216 0 74.666667 33.450667 74.666667 74.666666v106.666667a74.666667 74.666667 0 0 1-74.666667 74.666667h-106.666667A74.666667 74.666667 0 0 1 682.666667 394.368v-106.666667c0-41.216 33.450667-74.666667 74.666666-74.666666h106.666667z m-597.333333 0c41.216 0 74.666667 33.450667 74.666666 74.666666v106.666667a74.666667 74.666667 0 0 1-74.666666 74.666667h-106.666667A74.666667 74.666667 0 0 1 85.333333 394.368v-106.666667A74.666667 74.666667 0 0 1 153.856 213.333333l6.144-0.256h106.666667z m298.666666 64h-106.666666a10.666667 10.666667 0 0 0-10.666667 10.666666v106.666667c0 5.888 4.778667 10.666667 10.666667 10.666667h106.666666a10.666667 10.666667 0 0 0 10.666667-10.666667v-106.666667a10.666667 10.666667 0 0 0-10.666667-10.666666z m298.666667 0h-106.666667a10.666667 10.666667 0 0 0-10.666666 10.666666v106.666667c0 5.888 4.778667 10.666667 10.666666 10.666667h106.666667a10.666667 10.666667 0 0 0 10.666667-10.666667v-106.666667a10.666667 10.666667 0 0 0-10.666667-10.666666z m-597.333333 0h-106.666667l-2.432 0.298666a10.666667 10.666667 0 0 0-8.234667 10.368v106.666667c0 5.888 4.778667 10.666667 10.666667 10.666667h106.666667a10.666667 10.666667 0 0 0 10.666666-10.666667v-106.666667a10.666667 10.666667 0 0 0-10.666666-10.666666z" /></svg>