<svg class="icon" style="width: 1em;height: 1em;vertical-align: middle;fill: currentColor;overflow: hidden;" viewBox="0 0 1024 1024" version="1.1" xmlns="http://www.w3.org/2000/svg"><path d="M416 192a10.666667 10.666667 0 0 0-10.666667 10.666667v170.666666a32 32 0 0 1-32 32h-170.666666a10.666667 10.666667 0 0 0-10.666667 10.666667v192c0 5.888 4.778667 10.666667 10.666667 10.666667h170.666666a32 32 0 0 1 32 32v170.666666c0 5.888 4.778667 10.666667 10.666667 10.666667h192a10.666667 10.666667 0 0 0 10.666667-10.666667v-170.666666a32 32 0 0 1 32-32h170.666666a10.666667 10.666667 0 0 0 10.666667-10.666667v-192a10.666667 10.666667 0 0 0-10.666667-10.666667h-170.666666a32 32 0 0 1-32-32v-170.666666a10.666667 10.666667 0 0 0-10.666667-10.666667h-192zM341.333333 202.666667C341.333333 161.450667 374.784 128 416 128h192c41.216 0 74.666667 33.450667 74.666667 74.666667V341.333333h138.666666c41.216 0 74.666667 33.450667 74.666667 74.666667v192A74.666667 74.666667 0 0 1 821.333333 682.666667H682.666667v138.666666A74.666667 74.666667 0 0 1 608 896h-192A74.666667 74.666667 0 0 1 341.333333 821.333333V682.666667H202.666667A74.666667 74.666667 0 0 1 128 608v-192C128 374.784 161.450667 341.333333 202.666667 341.333333H341.333333V202.666667z" /></svg>