<svg class="icon" style="width: 1em;height: 1em;vertical-align: middle;fill: currentColor;overflow: hidden;" viewBox="0 0 1024 1024" version="1.1" xmlns="http://www.w3.org/2000/svg"><path d="M768 874.666667a21.333333 21.333333 0 0 0 21.333333-21.333334V426.666667H597.333333a85.333333 85.333333 0 0 1-85.333333-85.333334V149.333333H256a21.333333 21.333333 0 0 0-21.333333 21.333334v301.909333a275.242667 275.242667 0 0 0-64 18.005333V170.666667a85.333333 85.333333 0 0 1 85.333333-85.333334h263.338667c1.194667 0 2.346667 0.170667 3.498666 0.298667 0.853333 0.128 1.706667 0.256 2.517334 0.298667 9.173333 0.64 18.218667 2.389333 26.624 5.888 2.432 1.024 4.778667 2.389333 7.082666 3.712l2.133334 1.237333 2.005333 1.024a27.818667 27.818667 0 0 1 3.456 1.877333c3.328 2.261333 6.314667 4.949333 9.344 7.68a26.88 26.88 0 0 0 1.536 1.28 20.949333 20.949333 0 0 1 2.090667 1.706667l248.704 248.661333A85.333333 85.333333 0 0 1 853.333333 419.328V853.333333a85.333333 85.333333 0 0 1-85.333333 85.333334h-290.56c18.218667-18.944 33.706667-40.490667 45.994667-64H768z m-26.538667-512L576 197.162667V341.333333a21.333333 21.333333 0 0 0 21.333333 21.333334h144.128zM554.666667 746.666667a278.186667 278.186667 0 0 1-7.424 64h103.424A74.666667 74.666667 0 0 0 725.333333 736v-170.666667a74.666667 74.666667 0 0 0-74.666666-74.666666H384.170667a278.144 278.144 0 0 1 106.496 78.762666V554.666667h160a10.666667 10.666667 0 0 1 10.666666 10.666666v53.333334h-137.898666c10.410667 20.053333 18.474667 41.472 23.808 64H661.333333v53.333333a10.666667 10.666667 0 0 1-10.666666 10.666667H554.666667z m-42.666667 0a234.666667 234.666667 0 1 1-469.333333 0 234.666667 234.666667 0 0 1 469.333333 0zM149.333333 725.333333a21.333333 21.333333 0 0 0 0 42.666667h204.501334l-70.272 70.229333a21.333333 21.333333 0 0 0 30.208 30.208l106.666666-106.666666a21.333333 21.333333 0 0 0 0-30.208l-106.666666-106.666667a21.333333 21.333333 0 0 0-30.208 30.208L353.834667 725.333333H149.333333z" /></svg>