<svg class="icon" style="width: 1em;height: 1em;vertical-align: middle;fill: currentColor;overflow: hidden;" viewBox="0 0 1024 1024" version="1.1" xmlns="http://www.w3.org/2000/svg"><path d="M139.946667 94.72a32 32 0 0 0-45.226667 45.226667L170.666667 215.893333v264.106667a32 32 0 0 0 64 0V279.893333l554.666666 554.666667V853.333333a21.333333 21.333333 0 0 1-21.333333 21.333334h-53.333333a32 32 0 1 0 0 64H768a85.333333 85.333333 0 0 0 76.970667-48.426667l39.082666 39.04a32 32 0 1 0 45.226667-45.226667l-84.736-84.778666a34.56 34.56 0 0 0-1.152-1.109334L139.946667 94.72zM512 341.333333c0 21.034667 7.637333 40.277333 20.266667 55.168l9.898666 9.898667c14.890667 12.629333 34.133333 20.266667 55.168 20.266667h192v53.333333a32 32 0 0 0 64 0v-64a85.376 85.376 0 0 0-25.002666-57.002667l-248.704-248.661333c-0.64-0.64-1.365333-1.194667-2.090667-1.706667l-1.536-1.28a88.448 88.448 0 0 0-9.344-7.68 27.434667 27.434667 0 0 0-3.413333-1.877333l-2.048-1.024-2.133334-1.237333c-2.304-1.322667-4.608-2.688-7.082666-3.712a84.352 84.352 0 0 0-26.624-5.888c-0.853333-0.042667-1.706667-0.170667-2.517334-0.298667A25.813333 25.813333 0 0 0 519.338667 85.333333H256c-10.410667 0-20.394667 1.877333-29.610667 5.290667L285.098667 149.333333H512V341.333333z m64-144.170666L741.461333 362.666667H597.333333a21.333333 21.333333 0 0 1-21.333333-21.333334V197.162667z m213.333333 456.448l58.069334 58.026666a31.829333 31.829333 0 0 0 5.973333-18.517333V586.666667a32 32 0 0 0-64 0v66.944z m-586.666666-98.986667a32 32 0 0 1 32 32v106.496a32 32 0 0 1-64 0V586.666667a32 32 0 0 1 32-32z m234.666666 320a32 32 0 1 0 0 64h149.333334a32 32 0 0 0 0-64h-149.333334z m-234.666666-85.333333a32 32 0 0 1 32 32V853.333333a21.333333 21.333333 0 0 0 21.333333 21.333334h53.333333a32 32 0 0 1 0 64H256a85.333333 85.333333 0 0 1-85.333333-85.333334v-32a32 32 0 0 1 32-32z" /></svg>