<svg class="icon" style="width: 1em;height: 1em;vertical-align: middle;fill: currentColor;overflow: hidden;" viewBox="0 0 1024 1024" version="1.1" xmlns="http://www.w3.org/2000/svg"><path d="M426.666667 384a85.333333 85.333333 0 1 1 170.666666 0v256a85.333333 85.333333 0 1 1-170.666666 0V384z m85.333333-21.333333a21.333333 21.333333 0 0 0-21.333333 21.333333v256a21.333333 21.333333 0 0 0 42.666666 0V384a21.333333 21.333333 0 0 0-21.333333-21.333333zM213.333333 597.333333a85.333333 85.333333 0 1 1 170.666667 0v42.666667a85.333333 85.333333 0 1 1-170.666667 0v-42.666667z m106.666667 0a21.333333 21.333333 0 0 0-42.666667 0v42.666667a21.333333 21.333333 0 0 0 42.666667 0v-42.666667zM725.333333 426.666667a85.333333 85.333333 0 0 0-85.333333 85.333333v128a85.333333 85.333333 0 1 0 170.666667 0v-128a85.333333 85.333333 0 0 0-85.333334-85.333333z m21.333334 85.333333v128a21.333333 21.333333 0 0 1-42.666667 0v-128a21.333333 21.333333 0 0 1 42.666667 0zM85.333333 288A117.333333 117.333333 0 0 1 202.666667 170.666667h618.666666A117.333333 117.333333 0 0 1 938.666667 288v448A117.333333 117.333333 0 0 1 821.333333 853.333333H202.666667A117.333333 117.333333 0 0 1 85.333333 736V288zM202.666667 234.666667c-29.44 0-53.333333 23.893333-53.333334 53.333333v448c0 29.44 23.893333 53.333333 53.333334 53.333333h618.666666c29.44 0 53.333333-23.893333 53.333334-53.333333V288c0-29.44-23.893333-53.333333-53.333334-53.333333H202.666667z" /></svg>