<svg class="icon" style="width: 1em;height: 1em;vertical-align: middle;fill: currentColor;overflow: hidden;" viewBox="0 0 1024 1024" version="1.1" xmlns="http://www.w3.org/2000/svg"><path d="M277.333333 512a234.666667 234.666667 0 1 1 0 469.333333 234.666667 234.666667 0 0 1 0-469.333333z m240.170667-426.666667a96 96 0 0 1 67.84 28.117334l119.978667 119.893333 119.808 119.978667c17.962667 18.005333 28.074667 42.410667 28.074666 67.84v421.504a96 96 0 0 1-96 96H477.44c18.176-18.901333 33.706667-40.448 45.952-63.957334l233.813333-0.042666a32 32 0 0 0 32-32l-0.042666-415.872H608a96 96 0 0 1-95.786667-89.386667L512 330.837333 511.957333 149.333333H266.666667a32 32 0 0 0-32 32v291.285334a275.242667 275.242667 0 0 0-64 18.005333V181.333333A96 96 0 0 1 266.666667 85.333333h250.837333zM174.634667 638.549333l-2.986667 2.474667-2.432 2.986667a21.333333 21.333333 0 0 0 0 24.234666l2.474667 2.986667 75.52 75.477333-75.434667 75.349334-2.432 2.986666a21.333333 21.333333 0 0 0 0 24.234667l2.432 2.986667 2.986667 2.432a21.333333 21.333333 0 0 0 24.234666 0l2.986667-2.432L277.333333 776.874667l75.52 75.477333 2.944 2.474667a21.333333 21.333333 0 0 0 24.234667 0l2.986667-2.474667 2.432-2.986667a21.333333 21.333333 0 0 0 0-24.234666l-2.474667-2.986667-75.477333-75.434667 75.605333-75.52 2.474667-2.944a21.333333 21.333333 0 0 0 0-24.277333l-2.474667-2.944-2.944-2.474667a21.333333 21.333333 0 0 0-24.277333 0l-2.944 2.474667-75.605334 75.52-75.52-75.52-2.901333-2.474667a21.333333 21.333333 0 0 0-24.277333 0zM576 194.56l0.042667 136.32c0 16.213333 12.032 29.568 27.648 31.701333l4.352 0.298667 136.149333-0.042667-168.192-168.277333z" /></svg>