<svg class="icon" style="width: 1em;height: 1em;vertical-align: middle;fill: currentColor;overflow: hidden;" viewBox="0 0 1024 1024" version="1.1" xmlns="http://www.w3.org/2000/svg"><path d="M757.333333 85.376a96 96 0 0 1 95.786667 89.429333L853.333333 181.333333v661.248a96 96 0 0 1-89.429333 95.786667l-6.570667 0.213333H266.666667a96 96 0 0 1-95.786667-89.429333L170.666667 842.666667V181.376a96 96 0 0 1 89.429333-95.786667l6.570667-0.213333h490.666666z m0 64H266.666667a32 32 0 0 0-31.701334 27.648l-0.298666 4.352v661.248c0 16.213333 12.032 29.610667 27.648 31.701333l4.352 0.298667h490.666666a32 32 0 0 0 31.701334-27.648l0.298666-4.352V181.376a32 32 0 0 0-27.648-31.701333L757.333333 149.333333zM298.666667 672a32 32 0 0 1 32-32h362.666666a32 32 0 1 1 0 64h-362.666666a32 32 0 0 1-32-32zM298.666667 330.666667A32 32 0 0 1 330.666667 298.666667h362.666666a32 32 0 1 1 0 64h-362.666666A32 32 0 0 1 298.666667 330.666667zM298.666667 501.333333a32 32 0 0 1 32-32h362.666666a32 32 0 1 1 0 64h-362.666666a32 32 0 0 1-32-32z" /></svg>