<svg class="icon" style="width: 1em;height: 1em;vertical-align: middle;fill: currentColor;overflow: hidden;" viewBox="0 0 1024 1024" version="1.1" xmlns="http://www.w3.org/2000/svg"><path d="M170.666667 234.666667a21.333333 21.333333 0 0 0-21.333334 21.333333v512a21.333333 21.333333 0 0 0 21.333334 21.333333h682.666666a21.333333 21.333333 0 0 0 21.333334-21.333333v-256H682.666667a85.333333 85.333333 0 0 1-85.333334-85.333333V234.666667H170.666667z m656.170666 213.333333L661.333333 282.538667V426.666667a21.333333 21.333333 0 0 0 21.333334 21.333333h144.170666z m-161.834666-252.330667l248.661333 248.704c1.109333 1.109333 1.962667 2.474667 2.986667 3.626667 2.730667 3.029333 5.418667 6.016 7.68 9.344 1.152 1.706667 1.92 3.669333 2.901333 5.461333 1.706667 3.029333 3.584 6.016 4.949333 9.216 3.498667 8.405333 5.248 17.450667 5.888 26.624 0.128 2.005333 0.597333 3.968 0.597334 6.016V768a85.333333 85.333333 0 0 1-85.333334 85.333333H170.666667a85.333333 85.333333 0 0 1-85.333334-85.333333V256a85.333333 85.333333 0 0 1 85.333334-85.333333h434.005333a85.333333 85.333333 0 0 1 60.330667 25.002666z" /></svg>