<svg class="icon" style="width: 1em;height: 1em;vertical-align: middle;fill: currentColor;overflow: hidden;" viewBox="0 0 1024 1024" version="1.1" xmlns="http://www.w3.org/2000/svg"><path d="M362.666667 682.666667a64 64 0 0 0 0 128h298.666666a64 64 0 1 0 0-128h-298.666666zM852.906667 174.592a96 96 0 0 0-95.786667-89.429333h-490.666667L259.882667 85.333333a96 96 0 0 0-89.429334 95.786667v661.248l0.213334 6.570667a96 96 0 0 0 95.786666 89.429333h490.666667l6.570667-0.213333a96 96 0 0 0 89.429333-95.786667V181.162667l-0.213333-6.570667zM266.453333 149.162667h490.666667l4.352 0.298666a32 32 0 0 1 27.648 31.701334v661.248l-0.298667 4.352a32 32 0 0 1-31.701333 27.648h-490.666667l-4.352-0.298667a32 32 0 0 1-27.648-31.701333V181.162667l0.298667-4.352a32 32 0 0 1 31.701333-27.648z" /></svg>