<svg class="icon" style="width: 1em;height: 1em;vertical-align: middle;fill: currentColor;overflow: hidden;" viewBox="0 0 1024 1024" version="1.1" xmlns="http://www.w3.org/2000/svg"><path d="M234.666667 181.333333a32 32 0 0 1 32-32H512V341.333333a85.333333 85.333333 0 0 0 85.333333 85.333334h192v416a32 32 0 0 1-32 32h-278.186666L415.146667 938.666667h342.186666A96 96 0 0 0 853.333333 842.666667V412.330667c0-19.797333-7.850667-38.784-21.888-52.778667l-252.330666-252.330667A74.666667 74.666667 0 0 0 526.336 85.333333H266.666667A96 96 0 0 0 170.666667 181.333333v296.533334a197.546667 197.546667 0 0 1 64 1.962666V181.333333zM744.106667 362.666667H597.333333a21.333333 21.333333 0 0 1-21.333333-21.333334V194.56l168.106667 168.106667zM133.162667 609.152a89.813333 89.813333 0 0 1 127.018666 0l17.194667 17.152a32 32 0 0 0 45.226667 0l15.658666-15.658667A89.813333 89.813333 0 0 1 491.221333 682.666667h64.170667a153.813333 153.813333 0 0 0-255.274667-123.904A153.813333 153.813333 0 0 0 43.264 682.666667h64.213333a89.6 89.6 0 0 1 25.728-73.514667zM229.12 832H138.581333L277.333333 970.837333a31.914667 31.914667 0 0 0 45.269334 0l138.837333-138.837333H370.986667l-70.954667 70.954667L229.077333 832z m10.88-177.749333a32 32 0 0 0-55.253333 3.413333L150.869333 725.333333H74.666667a32 32 0 0 0 0 64H170.666667a32 32 0 0 0 28.586666-17.706666l18.048-36.010667 54.741334 82.133333a32 32 0 0 0 50.56 3.498667l62.378666-70.186667 29.312 30.421334a32 32 0 0 0 23.765334 9.813333l85.333333-1.962667a32 32 0 0 0-1.450667-64l-71.296 1.621334L407.04 681.813333a32 32 0 0 0-46.933333 0.981334l-57.813334 65.024-62.336-93.525334z" /></svg>