<svg class="icon" style="width: 1em;height: 1em;vertical-align: middle;fill: currentColor;overflow: hidden;" viewBox="0 0 1024 1024" version="1.1" xmlns="http://www.w3.org/2000/svg"><path d="M789.333333 853.333333a21.333333 21.333333 0 0 1-21.333333 21.333334h-244.565333A278.101333 278.101333 0 0 1 477.44 938.666667H768a85.333333 85.333333 0 0 0 85.333333-85.333334V419.328a85.333333 85.333333 0 0 0-25.002666-60.330667l-248.704-248.661333a20.949333 20.949333 0 0 0-2.090667-1.706667 26.88 26.88 0 0 1-1.536-1.28 88.405333 88.405333 0 0 0-9.344-7.68 27.818667 27.818667 0 0 0-3.413333-1.877333l-2.048-1.024-2.133334-1.237333c-2.304-1.322667-4.650667-2.688-7.082666-3.712a84.352 84.352 0 0 0-26.624-5.888c-0.853333-0.042667-1.706667-0.170667-2.517334-0.298667A25.813333 25.813333 0 0 0 519.338667 85.333333H256a85.333333 85.333333 0 0 0-85.333333 85.333334v319.914666a275.242667 275.242667 0 0 1 64-18.005333V170.666667a21.333333 21.333333 0 0 1 21.333333-21.333334h256V341.333333a85.333333 85.333333 0 0 0 85.333333 85.333334h192v426.666666z m-213.333333-656.170666L741.461333 362.666667H597.333333a21.333333 21.333333 0 0 1-21.333333-21.333334V197.162667zM42.666667 746.666667a234.666667 234.666667 0 1 0 469.333333 0 234.666667 234.666667 0 0 0-469.333333 0zM405.333333 597.333333a21.333333 21.333333 0 0 1 21.333334 21.333334v85.333333a21.333333 21.333333 0 0 1-21.333334 21.333333h-85.333333a21.333333 21.333333 0 0 1 0-42.666666h42.666667a106.496 106.496 0 0 0-85.333334-42.666667c-35.541333 0-67.072 17.365333-86.485333 44.202667a21.333333 21.333333 0 1 1-34.56-25.002667A149.162667 149.162667 0 0 1 277.333333 597.333333c41.813333 0 79.573333 17.194667 106.666667 44.8v-23.466666a21.333333 21.333333 0 0 1 21.333333-21.333334zM170.666667 851.2v23.466667a21.333333 21.333333 0 0 1-42.666667 0v-85.333334a21.333333 21.333333 0 0 1 21.333333-21.333333h85.333334a21.333333 21.333333 0 0 1 0 42.666667h-42.666667c19.456 25.941333 50.474667 42.666667 85.333333 42.666666 32.682667 0 61.952-14.677333 81.536-37.888a21.333333 21.333333 0 0 1 32.597334 27.52A149.034667 149.034667 0 0 1 277.333333 896 148.906667 148.906667 0 0 1 170.666667 851.2z" /></svg>