<svg class="icon" style="width: 1em;height: 1em;vertical-align: middle;fill: currentColor;overflow: hidden;" viewBox="0 0 1024 1024" version="1.1" xmlns="http://www.w3.org/2000/svg"><path d="M768 874.666667a21.333333 21.333333 0 0 0 21.333333-21.333334V426.666667H597.333333a85.333333 85.333333 0 0 1-85.333333-85.333334V149.333333H256a21.333333 21.333333 0 0 0-21.333333 21.333334v426.666666h-32c-10.88 0-21.589333 0.853333-32 2.517334V170.666667a85.333333 85.333333 0 0 1 85.333333-85.333334h263.338667c1.194667 0 2.346667 0.170667 3.498666 0.298667 0.853333 0.128 1.706667 0.256 2.517334 0.298667 9.173333 0.64 18.218667 2.389333 26.624 5.888 2.432 1.024 4.778667 2.389333 7.082666 3.712l2.133334 1.237333 2.005333 1.024a27.818667 27.818667 0 0 1 3.456 1.877333c3.328 2.261333 6.314667 4.949333 9.344 7.68a26.88 26.88 0 0 0 1.536 1.28 20.949333 20.949333 0 0 1 2.090667 1.706667l248.704 248.661333A85.333333 85.333333 0 0 1 853.333333 419.328V853.333333a85.333333 85.333333 0 0 1-85.333333 85.333334h-268.202667c17.322667-18.432 31.189333-40.106667 40.661334-64H768z m-26.538667-512L576 197.162667V341.333333a21.333333 21.333333 0 0 0 21.333333 21.333334h144.128z m-324.394666 245.333333c36.437333 12.373333 68.266667 34.773333 92.074666 64h141.525334a32 32 0 0 0 0-64H417.066667zM540.458667 725.333333c7.936 19.968 12.8 41.514667 13.909333 64h96.298667a32 32 0 0 0 0-64h-110.208zM373.333333 490.666667a32 32 0 0 0 0 64h277.333334a32 32 0 0 0 0-64h-277.333334zM512 800A160 160 0 0 0 352 640l-4.352 0.298667A32 32 0 0 0 352 704l6.570667 0.213333A96 96 0 0 1 352 896l-0.128 0.213333-4.352 0.298667a32 32 0 0 0 4.608 63.701333V960l8.533333-0.213333A160 160 0 0 0 512 800z m-277.333333-128a32 32 0 0 0-32-32l-8.533334 0.213333a160 160 0 0 0 8.533334 319.786667l4.352-0.298667A32 32 0 0 0 202.666667 896l-6.570667-0.213333A96 96 0 0 1 202.666667 704l4.352-0.298667a32 32 0 0 0 27.648-31.701333z m149.333333 128a32 32 0 0 0-32-32h-149.333333l-4.352 0.298667A32 32 0 0 0 202.666667 832h149.333333l4.352-0.298667A32 32 0 0 0 384 800z" /></svg>