<svg class="icon" style="width: 1em;height: 1em;vertical-align: middle;fill: currentColor;overflow: hidden;" viewBox="0 0 1024 1024" version="1.1" xmlns="http://www.w3.org/2000/svg"><path d="M789.333333 853.333333a21.333333 21.333333 0 0 1-21.333333 21.333334h-213.333333v42.666666c0 7.296-0.725333 14.421333-2.133334 21.333334H768a85.333333 85.333333 0 0 0 85.333333-85.333334V419.328a85.333333 85.333333 0 0 0-25.002666-60.330667l-248.704-248.661333a20.949333 20.949333 0 0 0-2.090667-1.706667 26.88 26.88 0 0 1-1.536-1.28 88.405333 88.405333 0 0 0-9.344-7.68 27.818667 27.818667 0 0 0-3.413333-1.877333l-2.048-1.024-2.133334-1.237333c-2.304-1.322667-4.650667-2.688-7.082666-3.712a84.352 84.352 0 0 0-26.624-5.888c-0.853333-0.042667-1.706667-0.170667-2.517334-0.298667A25.813333 25.813333 0 0 0 519.338667 85.333333H256a85.333333 85.333333 0 0 0-85.333333 85.333334v298.666666h64V170.666667a21.333333 21.333333 0 0 1 21.333333-21.333334h256V341.333333a85.333333 85.333333 0 0 0 85.333333 85.333334h192v426.666666z m-213.333333-656.170666L741.461333 362.666667H597.333333a21.333333 21.333333 0 0 1-21.333333-21.333334V197.162667zM213.333333 512h128v85.333333H213.333333v-85.333333z m-106.666666 0H170.666667v106.666667a21.333333 21.333333 0 0 0 21.333333 21.333333h170.666667a21.333333 21.333333 0 0 0 21.333333-21.333333V512h16.170667a64 64 0 0 1 45.226666 18.773333l47.872 47.786667A64 64 0 0 1 512 623.872V917.333333a64 64 0 0 1-64 64H426.666667v-234.666666a21.333333 21.333333 0 0 0-21.333334-21.333334h-256a21.333333 21.333333 0 0 0-21.333333 21.333334V981.333333h-21.333333A64 64 0 0 1 42.666667 917.333333v-341.333333A64 64 0 0 1 106.666667 512zM384 768v213.333333H170.666667v-213.333333h213.333333z" /></svg>