<svg class="icon" style="width: 1em;height: 1em;vertical-align: middle;fill: currentColor;overflow: hidden;" viewBox="0 0 1024 1024" version="1.1" xmlns="http://www.w3.org/2000/svg"><path d="M477.44 554.666667a277.802667 277.802667 0 0 0-93.269333-64h266.496a32 32 0 0 1 0 64h-173.226667z m40.106667 53.333333c11.52 19.882667 20.650667 41.386667 26.965333 64h106.154667a32 32 0 0 0 0-64h-133.12zM554.666667 746.666667c0 14.506667-1.109333 28.757333-3.242667 42.666666h99.242667a32 32 0 0 0 0-64h-96.810667c0.554667 7.04 0.810667 14.165333 0.810667 21.333334zM234.666667 170.666667a21.333333 21.333333 0 0 1 21.333333-21.333334h256V341.333333a85.333333 85.333333 0 0 0 85.333333 85.333334h192v426.666666a21.333333 21.333333 0 0 1-21.333333 21.333334h-244.565333A278.101333 278.101333 0 0 1 477.44 938.666667H768a85.333333 85.333333 0 0 0 85.333333-85.333334V419.328a85.333333 85.333333 0 0 0-25.002666-60.330667l-248.704-248.661333a20.949333 20.949333 0 0 0-2.090667-1.706667 26.88 26.88 0 0 1-1.536-1.28 88.405333 88.405333 0 0 0-9.344-7.68 27.818667 27.818667 0 0 0-3.413333-1.877333l-2.048-1.024-2.133334-1.237333c-2.304-1.322667-4.650667-2.688-7.082666-3.712a84.352 84.352 0 0 0-26.624-5.888c-0.853333-0.042667-1.706667-0.170667-2.517334-0.298667A25.813333 25.813333 0 0 0 519.338667 85.333333H256a85.333333 85.333333 0 0 0-85.333333 85.333334v319.914666a275.242667 275.242667 0 0 1 64-18.005333V170.666667z m506.794666 192H597.333333a21.333333 21.333333 0 0 1-21.333333-21.333334V197.162667L741.461333 362.666667zM512 746.666667a234.666667 234.666667 0 1 0-469.333333 0 234.666667 234.666667 0 0 0 469.333333 0z m-234.666667 0h85.333334a21.333333 21.333333 0 1 1 0 42.666666H256a21.333333 21.333333 0 0 1-21.333333-21.333333v-128a21.333333 21.333333 0 0 1 42.666666 0v106.666667z" /></svg>