<svg class="icon" style="width: 1em;height: 1em;vertical-align: middle;fill: currentColor;overflow: hidden;" viewBox="0 0 1024 1024" version="1.1" xmlns="http://www.w3.org/2000/svg"><path d="M106.666667 512a32 32 0 0 1 32-32h64a32 32 0 0 1 0 64h-64A32 32 0 0 1 106.666667 512zM277.333333 512a32 32 0 0 1 32-32h64a32 32 0 0 1 0 64h-64A32 32 0 0 1 277.333333 512zM448 512a32 32 0 0 1 32-32h64a32 32 0 0 1 0 64h-64a32 32 0 0 1-32-32zM618.666667 512a32 32 0 0 1 32-32h64a32 32 0 0 1 0 64h-64a32 32 0 0 1-32-32zM789.333333 512a32 32 0 0 1 32-32h64a32 32 0 0 1 0 64h-64a32 32 0 0 1-32-32zM202.666667 85.333333a32 32 0 0 0-32 32V298.666667a85.333333 85.333333 0 0 0 85.333333 85.333333h512a85.333333 85.333333 0 0 0 85.333333-85.333333V117.333333a32 32 0 0 0-64 0V298.666667a21.333333 21.333333 0 0 1-21.333333 21.333333H256a21.333333 21.333333 0 0 1-21.333333-21.333333V117.333333A32 32 0 0 0 202.666667 85.333333zM821.333333 938.666667a32 32 0 0 0 32-32V725.333333a85.333333 85.333333 0 0 0-85.333333-85.333333H256a85.333333 85.333333 0 0 0-85.333333 85.333333v181.333334a32 32 0 0 0 64 0V725.333333a21.333333 21.333333 0 0 1 21.333333-21.333333h512a21.333333 21.333333 0 0 1 21.333333 21.333333v181.333334c0 17.664 14.336 32 32 32z" /></svg>