<svg class="icon" style="width: 1em;height: 1em;vertical-align: middle;fill: currentColor;overflow: hidden;" viewBox="0 0 1024 1024" version="1.1" xmlns="http://www.w3.org/2000/svg"><path d="M757.077333 85.162667a96 96 0 0 1 95.786667 89.429333l0.213333 6.570667v661.248A96 96 0 0 1 763.733333 938.24l-6.613333 0.213333h-490.666667A96 96 0 0 1 170.666667 848.981333l-0.213334-6.570666V181.162667A96 96 0 0 1 259.84 85.376l6.570667-0.213333h490.666666z m0 64h-490.666666a32 32 0 0 0-31.701334 27.648l-0.256 4.352v661.248c0 16.213333 12.032 29.610667 27.648 31.701333l4.352 0.298667h490.666667a32 32 0 0 0 31.701333-27.648l0.256-4.352V181.162667a32 32 0 0 0-27.648-31.701334l-4.352-0.298666zM555.477333 849.152a32 32 0 0 1-26.624-36.608l4.48-28.202667h-63.189333l-6.058667 38.186667a32 32 0 0 1-63.232-9.984l4.48-28.202667h-32a32 32 0 0 1 0-64h42.112l10.154667-64H394.666667a32 32 0 0 1 0-64h41.045333l8.533333-53.76a32 32 0 1 1 63.189334 10.026667l-6.912 43.733333h63.189333l8.533333-53.76a32 32 0 1 1 63.189334 10.026667l-6.912 43.733333h22.144a32 32 0 0 1 0 64h-32.256l-10.154667 64h21.077333a32 32 0 0 1 0 64h-31.189333l-6.058667 38.186667a32 32 0 0 1-36.608 26.624z m-65.066666-192.810667l-10.154667 64h63.189333l10.154667-64h-63.189333z" /></svg>