<svg class="icon" style="width: 1em;height: 1em;vertical-align: middle;fill: currentColor;overflow: hidden;" viewBox="0 0 1024 1024" version="1.1" xmlns="http://www.w3.org/2000/svg"><path d="M320.128 554.752a21.333333 21.333333 0 0 0-21.333333 21.333333v128a21.333333 21.333333 0 0 0 42.666666 0v-21.333333H362.666667a64 64 0 0 0 0-128h-42.538667z m42.538667 85.333333h-21.205334v-42.666666H362.666667a21.333333 21.333333 0 1 1 0 42.666666zM639.914667 576.042667a21.333333 21.333333 0 0 1 21.333333-21.290667h64.213333a21.333333 21.333333 0 1 1 0 42.666667h-42.922666l-0.042667 42.752h42.965333a21.333333 21.333333 0 0 1 0 42.666666h-42.965333l0.085333 21.205334a21.333333 21.333333 0 0 1-42.666666 0.085333l-0.128-42.581333v-0.085334l0.128-85.418666zM490.666667 554.752a21.333333 21.333333 0 0 0-21.333334 21.333333v128a21.333333 21.333333 0 0 0 21.333334 21.333334h21.248a85.333333 85.333333 0 0 0 0-170.666667H490.666667z m21.333333 128v-85.333333a42.666667 42.666667 0 0 1 0 85.333333zM853.333333 853.333333v-49.664c25.216-11.989333 42.666667-37.717333 42.666667-67.498666V544c0-29.781333-17.450667-55.466667-42.666667-67.498667v-57.173333a85.333333 85.333333 0 0 0-25.002666-60.330667l-248.704-248.661333a20.949333 20.949333 0 0 0-2.090667-1.706667 26.88 26.88 0 0 1-1.536-1.28 88.405333 88.405333 0 0 0-9.344-7.68 27.818667 27.818667 0 0 0-3.413333-1.877333l-2.048-1.024-2.133334-1.237333c-2.304-1.322667-4.650667-2.688-7.082666-3.712a84.352 84.352 0 0 0-26.624-5.888c-0.853333-0.042667-1.706667-0.170667-2.517334-0.298667A25.813333 25.813333 0 0 0 519.338667 85.333333H256a85.333333 85.333333 0 0 0-85.333333 85.333334v305.834666c-25.216 11.989333-42.666667 37.717333-42.666667 67.498667v192.170667c0 29.781333 17.450667 55.466667 42.666667 67.498666V853.333333a85.333333 85.333333 0 0 0 85.333333 85.333334h512a85.333333 85.333333 0 0 0 85.333333-85.333334z m-85.333333 21.333334H256a21.333333 21.333333 0 0 1-21.333333-21.333334v-42.496h554.666666V853.333333a21.333333 21.333333 0 0 1-21.333333 21.333334z m21.333333-448v42.666666h-554.666666V170.666667a21.333333 21.333333 0 0 1 21.333333-21.333334h256V341.333333a85.333333 85.333333 0 0 0 85.333333 85.333334h192z m-47.872-64H597.333333a21.333333 21.333333 0 0 1-21.333333-21.333334V197.162667L741.461333 362.666667z m-538.794666 170.666666h618.666666a10.666667 10.666667 0 0 1 10.666667 10.666667v192.170667a10.666667 10.666667 0 0 1-10.666667 10.666666H202.666667a10.666667 10.666667 0 0 1-10.666667-10.666666V544a10.666667 10.666667 0 0 1 10.666667-10.666667z" /></svg>