<svg class="icon" style="width: 1em;height: 1em;vertical-align: middle;fill: currentColor;overflow: hidden;" viewBox="0 0 1024 1024" version="1.1" xmlns="http://www.w3.org/2000/svg"><path d="M234.666667 181.333333a32 32 0 0 1 32-32H512V341.333333a85.333333 85.333333 0 0 0 85.333333 85.333334h192v416a32 32 0 0 1-32 32H597.333333V938.666667h160A96 96 0 0 0 853.333333 842.666667V412.330667c0-19.797333-7.850667-38.784-21.888-52.778667l-252.330666-252.330667A74.666667 74.666667 0 0 0 526.336 85.333333H266.666667A96 96 0 0 0 170.666667 181.333333v312.96c6.656-2.346667 13.866667-3.626667 21.333333-3.626666h42.666667V181.333333zM744.106667 362.666667H597.333333a21.333333 21.333333 0 0 1-21.333333-21.333334V194.56l168.106667 168.106667zM160 565.333333a32 32 0 0 1 32-32h213.333333a32 32 0 0 1 32 32V640h21.333334A96 96 0 0 1 554.666667 736v149.333333A96 96 0 0 1 458.666667 981.333333h-320A96 96 0 0 1 42.666667 885.333333v-149.333333A96 96 0 0 1 138.666667 640h21.333333v-74.666667z m213.333333 32h-149.333333v42.666667h149.333333v-42.666667z m-234.666666 106.666667a32 32 0 0 0-32 32v149.333333c0 17.664 14.336 32 32 32h320a32 32 0 0 0 32-32v-149.333333a32 32 0 0 0-32-32h-320z" /></svg>