<svg class="icon" style="width: 1em;height: 1em;vertical-align: middle;fill: currentColor;overflow: hidden;" viewBox="0 0 1024 1024" version="1.1" xmlns="http://www.w3.org/2000/svg"><path d="M362.88 213.504a64 64 0 0 0 0 128h298.666667a64 64 0 0 0 0-128h-298.666667z m490.24-38.741333A96 96 0 0 0 757.333333 85.333333H266.666667l-6.570667 0.213334A96 96 0 0 0 170.666667 181.333333v661.333334l0.213333 6.570666A96 96 0 0 0 266.666667 938.666667h490.666666l6.570667-0.213334A96 96 0 0 0 853.333333 842.666667V181.333333l-0.213333-6.570666zM266.666667 149.333333h490.666666l4.352 0.298667a32 32 0 0 1 27.648 31.701333v661.333334l-0.298666 4.352a32 32 0 0 1-31.701334 27.648H266.666667l-4.352-0.298667a32 32 0 0 1-27.648-31.701333V181.333333l0.298666-4.352A32 32 0 0 1 266.666667 149.333333z" /></svg>