<svg class="icon" style="width: 1em;height: 1em;vertical-align: middle;fill: currentColor;overflow: hidden;" viewBox="0 0 1024 1024" version="1.1" xmlns="http://www.w3.org/2000/svg"><path d="M650.666667 490.666667c41.216 0 74.666667 33.450667 74.666666 74.666666v170.666667A74.666667 74.666667 0 0 1 650.666667 810.666667h-203.733334l-2.133333-2.133334c15.701333-31.445333 24.533333-66.986667 24.533333-104.533333 0-50.218667-15.786667-96.768-42.666666-134.954667V554.666667h-10.965334a235.648 235.648 0 0 0-71.338666-58.154667c8.917333-3.754667 18.688-5.845333 28.970666-5.845333h277.333334zM490.666667 682.666667v64h160a10.666667 10.666667 0 0 0 10.666666-10.666667V682.666667h-170.666666z m170.666666-64v-53.333334a10.666667 10.666667 0 0 0-10.666666-10.666666H490.666667v64h170.666666z m106.666667 256h-257.066667l21.845334 21.888c11.861333 11.818667 18.901333 26.709333 21.12 42.112H768a85.333333 85.333333 0 0 0 85.333333-85.333334V419.328a85.333333 85.333333 0 0 0-25.002666-60.330667l-248.704-248.661333a20.949333 20.949333 0 0 0-2.090667-1.706667 26.88 26.88 0 0 1-1.536-1.28 88.405333 88.405333 0 0 0-9.344-7.68 27.818667 27.818667 0 0 0-3.413333-1.877333l-2.048-1.024-2.133334-1.237333c-2.304-1.322667-4.650667-2.688-7.082666-3.712a84.352 84.352 0 0 0-26.624-5.888c-0.853333-0.042667-1.706667-0.170667-2.517334-0.298667A25.813333 25.813333 0 0 0 519.338667 85.333333H256a85.333333 85.333333 0 0 0-85.333333 85.333334v307.498666c20.352-5.76 41.813333-8.832 64-8.832V170.666667a21.333333 21.333333 0 0 1 21.333333-21.333334h256V341.333333a85.333333 85.333333 0 0 0 85.333333 85.333334h192v426.666666a21.333333 21.333333 0 0 1-21.333333 21.333334z m-26.538667-512H597.333333a21.333333 21.333333 0 0 1-21.333333-21.333334V197.162667L741.461333 362.666667zM234.666667 896a191.146667 191.146667 0 0 0 111.232-35.498667l111.488 111.445334a32 32 0 1 0 45.226666-45.226667l-111.445333-111.488A192 192 0 1 0 234.666667 896z m0-64a128 128 0 1 1 0-256 128 128 0 0 1 0 256z" /></svg>