<svg class="icon" style="width: 1em;height: 1em;vertical-align: middle;fill: currentColor;overflow: hidden;" viewBox="0 0 1024 1024" version="1.1" xmlns="http://www.w3.org/2000/svg"><path d="M768 874.666667a21.333333 21.333333 0 0 0 21.333333-21.333334V426.666667H597.333333a85.333333 85.333333 0 0 1-85.333333-85.333334V149.333333H256a21.333333 21.333333 0 0 0-21.333333 21.333334v311.893333a191.573333 191.573333 0 0 0-64-3.2V170.666667a85.333333 85.333333 0 0 1 85.333333-85.333334h263.338667c1.194667 0 2.346667 0.170667 3.498666 0.298667 0.853333 0.128 1.706667 0.256 2.56 0.298667 9.130667 0.64 18.176 2.389333 26.581334 5.888 2.474667 1.024 4.778667 2.389333 7.082666 3.712l2.133334 1.237333 2.048 1.024c1.152 0.554667 2.346667 1.152 3.413333 1.877333 3.328 2.261333 6.314667 4.949333 9.386667 7.68 0.426667 0.426667 0.981333 0.853333 1.536 1.28 0.682667 0.512 1.408 1.066667 2.048 1.706667l248.746666 248.661333A85.333333 85.333333 0 0 1 853.333333 419.328V853.333333a85.333333 85.333333 0 0 1-85.333333 85.333334H404.906667l64-64H768z m-26.538667-512L576 197.162667V341.333333a21.333333 21.333333 0 0 0 21.333333 21.333334h144.128zM276.650667 961.28a31.872 31.872 0 0 0 45.269333 0l188.074667-188.074667a147.925333 147.925333 0 1 0-209.152-209.194666l-1.536 1.536-1.536-1.536a147.925333 147.925333 0 1 0-209.194667 209.194666l188.074667 188.074667z" /></svg>