<svg class="icon" style="width: 1em;height: 1em;vertical-align: middle;fill: currentColor;overflow: hidden;" viewBox="0 0 1024 1024" version="1.1" xmlns="http://www.w3.org/2000/svg"><path d="M789.333333 853.333333a21.333333 21.333333 0 0 1-21.333333 21.333334h-180.437333a212.736 212.736 0 0 1-32.853334 64H768a85.333333 85.333333 0 0 0 85.333333-85.333334V419.328a85.333333 85.333333 0 0 0-25.002666-60.330667l-248.704-248.661333a20.949333 20.949333 0 0 0-2.090667-1.706667 26.88 26.88 0 0 1-1.536-1.28 88.405333 88.405333 0 0 0-9.344-7.68 27.818667 27.818667 0 0 0-3.413333-1.877333l-2.048-1.024-2.133334-1.237333c-2.304-1.322667-4.650667-2.688-7.082666-3.712a84.352 84.352 0 0 0-26.624-5.888c-0.853333-0.042667-1.706667-0.170667-2.517334-0.298667A25.813333 25.813333 0 0 0 519.338667 85.333333H256a85.333333 85.333333 0 0 0-85.333333 85.333334v426.666666h64V170.666667a21.333333 21.333333 0 0 1 21.333333-21.333334h256V341.333333a85.333333 85.333333 0 0 0 85.333333 85.333334h192v426.666666z m-213.333333-656.170666L741.461333 362.666667H597.333333a21.333333 21.333333 0 0 1-21.333333-21.333334V197.162667zM245.333333 672A32 32 0 0 0 213.333333 640l-8.533333 0.213333A170.666667 170.666667 0 0 0 213.333333 981.333333l4.352-0.298666A32 32 0 0 0 213.333333 917.333333l-6.997333-0.213333A106.666667 106.666667 0 0 1 213.333333 704l4.352-0.298667a32 32 0 0 0 27.648-31.701333zM554.666667 810.666667a170.666667 170.666667 0 0 0-170.666667-170.666667l-4.352 0.298667A32 32 0 0 0 384 704l6.997333 0.213333A106.666667 106.666667 0 0 1 384 917.333333l-4.352 0.298667A32 32 0 0 0 384 981.333333l8.533333-0.213333A170.666667 170.666667 0 0 0 554.666667 810.666667z m-181.333334-32h-149.333333l-4.352 0.298666a32 32 0 0 0 4.352 63.701334h149.333333l4.352-0.298667a32 32 0 0 0-4.352-63.701333z" /></svg>