<svg class="icon" style="width: 1em;height: 1em;vertical-align: middle;fill: currentColor;overflow: hidden;" viewBox="0 0 1024 1024" version="1.1" xmlns="http://www.w3.org/2000/svg"><path d="M266.666667 149.333333a32 32 0 0 0-32 32v661.333334c0 17.664 14.336 32 32 32h161.28a88.618667 88.618667 0 0 0 11.52 64H266.666667A96 96 0 0 1 170.666667 842.666667V181.333333A96 96 0 0 1 266.666667 85.333333h259.669333c19.797333 0 38.784 7.850667 52.778667 21.888l252.330666 252.330667c14.037333 13.994667 21.888 32.981333 21.888 52.778667V426.666667h-5.546666a141.824 141.824 0 0 0-14.165334 0H597.333333a85.333333 85.333333 0 0 1-85.333333-85.333334V149.333333H266.666667z m309.333333 45.226667V341.333333a21.333333 21.333333 0 0 0 21.333333 21.333334h146.773334L576 194.56zM841.088 469.333333h0.085333a97.536 97.536 0 0 1 68.906667 166.485334l-251.818667 251.818666a114.517333 114.517333 0 0 1-53.205333 30.165334l-78.122667 19.498666a46.378667 46.378667 0 0 1-56.234666-56.234666l19.498666-78.08c5.034667-20.181333 15.445333-38.570667 30.165334-53.248l251.818666-251.818667a97.194667 97.194667 0 0 1 68.906667-28.586667z" /></svg>