<svg class="icon" style="width: 1em;height: 1em;vertical-align: middle;fill: currentColor;overflow: hidden;" viewBox="0 0 1024 1024" version="1.1" xmlns="http://www.w3.org/2000/svg"><path d="M234.666667 181.333333a32 32 0 0 1 32-32H512V341.333333a85.333333 85.333333 0 0 0 85.333333 85.333334h192v416a32 32 0 0 1-32 32H554.666667V938.666667h202.666666A96 96 0 0 0 853.333333 842.666667V412.330667c0-19.797333-7.850667-38.784-21.888-52.778667l-252.330666-252.330667A74.666667 74.666667 0 0 0 526.336 85.333333H266.666667A96 96 0 0 0 170.666667 181.333333V512h64V181.333333z m341.333333 160V194.56l168.106667 168.106667H597.333333a21.333333 21.333333 0 0 1-21.333333-21.333334zM192 586.666667a32 32 0 0 1-32 32H106.666667v298.666666h53.333333a32 32 0 0 1 0 64H106.666667A64 64 0 0 1 42.666667 917.333333v-298.666666A64 64 0 0 1 106.666667 554.666667h53.333333a32 32 0 0 1 32 32zM394.666667 618.666667a32 32 0 0 1 0-64h53.333333a64 64 0 0 1 64 64v298.666666a64 64 0 0 1-64 64H394.666667a32 32 0 0 1 0-64h53.333333v-298.666666H394.666667zM277.333333 714.666667a32 32 0 0 1 32 32V896a32 32 0 0 1-64 0v-149.333333a32 32 0 0 1 32-32zM277.333333 682.666667a32 32 0 1 0 0-64 32 32 0 0 0 0 64z" /></svg>