<svg class="icon" style="width: 1em;height: 1em;vertical-align: middle;fill: currentColor;overflow: hidden;" viewBox="0 0 1024 1024" version="1.1" xmlns="http://www.w3.org/2000/svg"><path d="M789.333333 853.418667a21.333333 21.333333 0 0 1-21.333333 21.333333H384v64h384a85.333333 85.333333 0 0 0 85.333333-85.333333V419.413333c0-22.613333-9.002667-44.373333-25.002666-60.330666l-248.704-248.704a20.906667 20.906667 0 0 0-2.090667-1.706667 26.88 26.88 0 0 1-1.536-1.28 88.405333 88.405333 0 0 0-9.344-7.68 27.733333 27.733333 0 0 0-3.413333-1.877333c-0.725333-0.341333-1.408-0.64-2.048-1.024l-2.133334-1.237334c-2.304-1.322667-4.650667-2.688-7.082666-3.712a84.352 84.352 0 0 0-26.624-5.888c-0.853333-0.042667-1.706667-0.170667-2.517334-0.298666A25.813333 25.813333 0 0 0 519.338667 85.333333H256a85.333333 85.333333 0 0 0-85.333333 85.333334v309.632a191.573333 191.573333 0 0 1 64-10.922667v-298.666667a21.333333 21.333333 0 0 1 21.333333-21.333333h256V341.333333a85.333333 85.333333 0 0 0 85.333333 85.333334h192v426.709333z m-213.333333-656.213334L741.461333 362.666667H597.333333a21.333333 21.333333 0 0 1-21.333333-21.333334V197.12zM384 661.376a149.333333 149.333333 0 1 1-298.666667 0 149.333333 149.333333 0 0 1 298.666667 0z m-256 159.658667v129.877333a30.293333 30.293333 0 0 0 51.712 21.461333L234.666667 917.461333l54.954666 54.954667A30.293333 30.293333 0 0 0 341.333333 950.954667v-129.877334a191.104 191.104 0 0 1-106.666666 32.341334c-39.466667 0-76.16-11.904-106.666667-32.341334z" /></svg>