<svg class="icon" style="width: 1em;height: 1em;vertical-align: middle;fill: currentColor;overflow: hidden;" viewBox="0 0 1024 1024" version="1.1" xmlns="http://www.w3.org/2000/svg"><path d="M234.794667 197.418667L234.666667 288v184.576a275.242667 275.242667 0 0 0-64 18.005333V288c0-41.813333 26.752-77.44 64.128-90.581333z m522.410666 634.752h-215.978666c6.613333-20.394667 10.922667-41.813333 12.629333-64h203.349333a32 32 0 0 0 32-32V384.128H650.666667a96 96 0 0 1-95.786667-89.386667L554.666667 288.170667V149.333333H373.376a32 32 0 0 0-32 32v295.466667a278.186667 278.186667 0 0 0-64-7.466667V181.333333A96 96 0 0 1 373.418667 85.333333h186.709333c25.472 0 49.92 10.112 67.925333 28.16l197.034667 197.12c18.005333 18.005333 28.117333 42.453333 28.117333 67.882667v357.674667a96 96 0 0 1-96 96zM618.624 194.602667l0.042667 93.568c0 16.213333 12.032 29.568 27.648 31.701333l4.352 0.298667 93.44-0.042667-125.44-125.525333z m-141.354667 744.234666a277.973333 277.973333 0 0 0 46.08-64h217.6a96.042667 96.042667 0 0 1-90.538666 64h-173.141334zM512 746.666667a234.666667 234.666667 0 1 1-469.333333 0 234.666667 234.666667 0 0 1 469.333333 0z m-405.333333 0c0 35.584 10.88 68.608 29.482666 95.914666l237.098667-237.098666A170.666667 170.666667 0 0 0 106.666667 746.666667z m170.666666 170.666666a170.666667 170.666667 0 0 0 141.184-266.581333l-237.098666 237.098667c27.306667 18.602667 60.330667 29.482667 95.914666 29.482666z" /></svg>