<svg class="icon" style="width: 1em;height: 1em;vertical-align: middle;fill: currentColor;overflow: hidden;" viewBox="0 0 1024 1024" version="1.1" xmlns="http://www.w3.org/2000/svg"><path d="M486.784 467.029333a210.218667 210.218667 0 0 1 23.04 269.909334l-6.016 8.106666 179.925333 179.968 3.2 3.712a32.981333 32.981333 0 0 1-46.122666 46.122667l-3.712-3.2-181.632-181.589333a210.218667 210.218667 0 0 1-265.898667-322.986667 210.176 210.176 0 0 1 297.216 0zM560.170667 85.333333a96 96 0 0 1 67.84 28.117334l119.978666 119.893333 119.808 119.978667c17.962667 18.005333 28.074667 42.410667 28.074667 67.84v421.504a96 96 0 0 1-96 96h-64.426667a75.306667 75.306667 0 0 0-14.250666-35.413334l-5.12-6.101333-22.485334-22.528 106.24 0.042667a32 32 0 0 0 32-32v-415.872H650.666667a96 96 0 0 1-95.786667-89.386667L554.666667 330.837333V149.333333H309.333333a32 32 0 0 0-32 32v188.629334a251.477333 251.477333 0 0 0-64.042666 24.832L213.333333 181.333333A96 96 0 0 1 309.333333 85.333333h250.837334zM236.202667 513.706667a144.213333 144.213333 0 1 0 203.946666 203.904 144.213333 144.213333 0 0 0-203.946666-203.946667zM618.666667 194.56v136.277333c0 16.213333 12.032 29.568 27.648 31.701334l4.352 0.298666 136.149333-0.042666L618.666667 194.56z" /></svg>