<svg class="icon" style="width: 1em;height: 1em;vertical-align: middle;fill: currentColor;overflow: hidden;" viewBox="0 0 1024 1024" version="1.1" xmlns="http://www.w3.org/2000/svg"><path d="M981.333333 277.333333a234.666667 234.666667 0 1 1-469.333333 0 234.666667 234.666667 0 0 1 469.333333 0z m-304.896-100.437333a21.333333 21.333333 0 0 0-30.208 30.208L716.501333 277.333333l-70.272 70.229334a21.333333 21.333333 0 0 0 30.208 30.208L746.666667 307.498667l70.229333 70.272a21.333333 21.333333 0 0 0 30.208-30.208L776.832 277.333333l70.272-70.229333a21.333333 21.333333 0 0 0-30.208-30.208L746.666667 247.168l-70.229334-70.272z m112.682667 665.514667v-290.986667a275.370667 275.370667 0 0 0 64-17.92v308.906667a96 96 0 0 1-89.429333 95.786666l-6.570667 0.213334h-490.666667A96 96 0 0 1 170.666667 848.981333l-0.213334-6.570666V181.162667A96 96 0 0 1 259.882667 85.333333l6.570666-0.213333h280.277334a278.186667 278.186667 0 0 0-46.08 64H266.496a32 32 0 0 0-31.701333 27.648l-0.298667 4.352v661.248c0 16.213333 12.032 29.568 27.648 31.701333l4.352 0.298667h490.666667a32 32 0 0 0 31.701333-27.648l0.298667-4.352zM362.666667 682.666667a64 64 0 0 0 0 128h298.666666a64 64 0 1 0 0-128h-298.666666z" /></svg>