<svg class="icon" style="width: 1em;height: 1em;vertical-align: middle;fill: currentColor;overflow: hidden;" viewBox="0 0 1024 1024" version="1.1" xmlns="http://www.w3.org/2000/svg"><path d="M768 874.666667a21.333333 21.333333 0 0 0 21.333333-21.333334V426.666667H597.333333a85.333333 85.333333 0 0 1-85.333333-85.333334V149.333333H256a21.333333 21.333333 0 0 0-21.333333 21.333334v224a32 32 0 0 1-64 0V170.666667a85.333333 85.333333 0 0 1 85.333333-85.333334h263.338667c1.194667 0 2.346667 0.170667 3.498666 0.298667 0.853333 0.128 1.706667 0.256 2.517334 0.298667 9.173333 0.64 18.218667 2.389333 26.624 5.888 2.432 1.024 4.778667 2.389333 7.082666 3.712l2.133334 1.237333 2.005333 1.024a27.818667 27.818667 0 0 1 3.456 1.877333c3.328 2.261333 6.314667 4.949333 9.344 7.68l1.536 1.28a21.034667 21.034667 0 0 1 2.090667 1.706667l248.704 248.661333A85.333333 85.333333 0 0 1 853.333333 419.328V853.333333a85.333333 85.333333 0 0 1-85.333333 85.333334H256a85.333333 85.333333 0 0 1-85.333333-85.333334v-160a32 32 0 0 1 64 0V853.333333a21.333333 21.333333 0 0 0 21.333333 21.333334h512z m-26.538667-512L576 197.162667V341.333333a21.333333 21.333333 0 0 0 21.333333 21.333334h144.128zM117.333333 554.666667h106.88l66.432-151.509334a32 32 0 0 1 56.618667-3.882666l0.256 0.426666 2.133333 4.394667 102.954667 257.152 60.885333-89.6a32 32 0 0 1 23.253334-16.597333l0.426666-0.085334 4.565334-0.298666h85.333333a32 32 0 0 1 4.821333 63.658666l-0.426666 0.042667-4.394667 0.298667h-66.304l-84.437333 132.010666a32 32 0 0 1-55.722667 1.706667l-0.213333-0.384-2.133334-4.309333-99.669333-248.96-44.16 100.778666a32 32 0 0 1-24.064 18.730667l-0.512 0.085333-4.693333 0.341334H117.333333a32 32 0 0 1-4.821333-63.658667l0.426667-0.042667L117.333333 554.666667z" /></svg>