<svg class="icon" style="width: 1em;height: 1em;vertical-align: middle;fill: currentColor;overflow: hidden;" viewBox="0 0 1024 1024" version="1.1" xmlns="http://www.w3.org/2000/svg"><path d="M234.666667 181.333333a32 32 0 0 1 32-32H512V341.333333a85.333333 85.333333 0 0 0 85.333333 85.333334h192v61.013333c20.437333-8.533333 42.24-12.842667 64-12.842667V412.330667c0-19.797333-7.850667-38.784-21.888-52.778667l-252.330666-252.330667A74.666667 74.666667 0 0 0 526.336 85.333333H266.666667A96 96 0 0 0 170.666667 181.333333v661.333334A96 96 0 0 0 266.666667 938.666667h231.850666a164.565333 164.565333 0 0 1-22.314666-64H266.666667a32 32 0 0 1-32-32V181.333333zM744.106667 362.666667H597.333333a21.333333 21.333333 0 0 1-21.333333-21.333334V194.56l168.106667 168.106667z m195.84 190.72a122.496 122.496 0 0 0-173.226667 0l-213.333333 213.333333a122.496 122.496 0 1 0 173.226666 173.226667l213.333334-213.333334a122.496 122.496 0 0 0 0-173.226666z m-128 45.226666a58.496 58.496 0 1 1 82.773333 82.773334L810.666667 765.44 727.893333 682.666667l84.053334-84.053334z m-85.333334 210.773334a32 32 0 0 1 0 45.226666l-42.666666 42.666667a32 32 0 1 1-45.226667-45.226667l42.666667-42.666666a32 32 0 0 1 45.226666 0z" /></svg>