<svg class="icon" style="width: 1em;height: 1em;vertical-align: middle;fill: currentColor;overflow: hidden;" viewBox="0 0 1024 1024" version="1.1" xmlns="http://www.w3.org/2000/svg"><path d="M298.666667 522.666667a32 32 0 1 1 64 0 32 32 0 0 1-64 0z m32 96a32 32 0 1 0 0 64 32 32 0 0 0 0-64zM298.666667 778.666667a32 32 0 1 1 64 0 32 32 0 0 1-64 0z m160-288a32 32 0 0 0 0 64h234.666666a32 32 0 0 0 0-64h-234.666666zM426.666667 650.666667a32 32 0 0 1 32-32h234.666666a32 32 0 0 1 0 64h-234.666666a32 32 0 0 1-32-32z m32 96a32 32 0 0 0 0 64h234.666666a32 32 0 0 0 0-64h-234.666666z m369.664-387.669334l-248.704-248.661333a21.034667 21.034667 0 0 0-2.090667-1.706667 26.709333 26.709333 0 0 1-1.536-1.28 88.405333 88.405333 0 0 0-9.344-7.68 27.818667 27.818667 0 0 0-3.413333-1.877333l-2.048-1.024-2.133334-1.237333c-2.304-1.322667-4.650667-2.688-7.082666-3.712a84.352 84.352 0 0 0-26.624-5.888c-0.853333-0.042667-1.706667-0.170667-2.517334-0.298667A25.813333 25.813333 0 0 0 519.338667 85.333333H256a85.333333 85.333333 0 0 0-85.333333 85.333334v682.666666a85.333333 85.333333 0 0 0 85.333333 85.333334h512a85.333333 85.333333 0 0 0 85.333333-85.333334V419.328a85.333333 85.333333 0 0 0-25.002666-60.330667zM789.333333 853.333333a21.333333 21.333333 0 0 1-21.333333 21.333334H256a21.333333 21.333333 0 0 1-21.333333-21.333334V170.666667a21.333333 21.333333 0 0 1 21.333333-21.333334h256V341.333333a85.333333 85.333333 0 0 0 85.333333 85.333334h192v426.666666z m-213.333333-656.170666L741.461333 362.666667H597.333333a21.333333 21.333333 0 0 1-21.333333-21.333334V197.162667z" /></svg>