<svg class="icon" style="width: 1em;height: 1em;vertical-align: middle;fill: currentColor;overflow: hidden;" viewBox="0 0 1024 1024" version="1.1" xmlns="http://www.w3.org/2000/svg"><path d="M298.666667 672c0-41.216 33.450667-74.666667 74.666666-74.666667h277.333334c41.258667 0 74.666667 33.450667 74.666666 74.666667v64A74.666667 74.666667 0 0 1 650.666667 810.666667h-277.333334A74.666667 74.666667 0 0 1 298.666667 736v-64z m74.666666-10.666667a10.666667 10.666667 0 0 0-10.666666 10.666667v64c0 5.888 4.778667 10.666667 10.666666 10.666667h277.333334a10.666667 10.666667 0 0 0 10.666666-10.666667v-64a10.666667 10.666667 0 0 0-10.666666-10.666667h-277.333334zM746.666667 42.666667a234.666667 234.666667 0 1 1 0 469.333333 234.666667 234.666667 0 0 1 0-469.333333z m-105.642667 129.024a21.333333 21.333333 0 0 0 0 30.165333l75.52 75.52-75.392 75.349333a21.333333 21.333333 0 1 0 30.165333 30.208L746.666667 307.541333l75.52 75.477334a21.333333 21.333333 0 1 0 30.165333-30.165334L776.874667 277.333333l75.605333-75.52a21.333333 21.333333 0 0 0-30.165333-30.165333L746.666667 247.210667l-75.52-75.52a21.333333 21.333333 0 0 0-30.165334 0zM789.12 551.424a275.584 275.584 0 0 0 64-17.92v308.906667a96 96 0 0 1-89.429333 95.786666l-6.570667 0.213334h-490.666667A96 96 0 0 1 170.666667 848.981333l-0.213334-6.570666V181.162667A96 96 0 0 1 259.882667 85.333333l6.570666-0.213333h280.277334a278.186667 278.186667 0 0 0-46.08 64H266.496a32 32 0 0 0-31.701333 27.648l-0.298667 4.352v661.248c0 16.213333 12.032 29.568 27.648 31.701333l4.352 0.298667h490.666667a32 32 0 0 0 31.701333-27.648l0.298667-4.352v-290.986667z" /></svg>