<svg class="icon" style="width: 1em;height: 1em;vertical-align: middle;fill: currentColor;overflow: hidden;" viewBox="0 0 1024 1024" version="1.1" xmlns="http://www.w3.org/2000/svg"><path d="M266.666667 149.333333a32 32 0 0 0-32 32v314.752a148.565333 148.565333 0 0 0-64-25.258666V181.333333A96 96 0 0 1 266.666667 85.333333h186.922666a96 96 0 0 1 67.882667 28.117334l197.077333 197.077333c18.005333 18.005333 28.117333 42.410667 28.117334 67.84v357.632a96 96 0 0 1-96 96h-102.186667a149.333333 149.333333 0 0 0-38.613333-64h140.8a32 32 0 0 0 32-32V383.914667h-138.496a96 96 0 0 1-96-96V149.333333H266.666667z m245.504 45.312v93.269334c0 17.664 14.336 32 32 32h93.226666l-125.226666-125.269334zM650.666667 938.666667h-110.421334c9.216-19.413333 14.378667-41.088 14.378667-64h96a138.666667 138.666667 0 0 0 138.666667-138.666667V381.312l35.925333 35.84c18.005333 18.048 28.117333 42.453333 28.117333 67.925333v250.922667A202.666667 202.666667 0 0 1 650.666667 938.666667zM149.333333 725.333333a106.666667 106.666667 0 1 0 0-213.333333 106.666667 106.666667 0 0 0 0 213.333333z m0-149.333333a42.666667 42.666667 0 1 1 0 85.333333 42.666667 42.666667 0 0 1 0-85.333333z m256 405.333333a106.666667 106.666667 0 1 0 0-213.333333 106.666667 106.666667 0 0 0 0 213.333333z m0-149.333333a42.666667 42.666667 0 1 1 0 85.333333 42.666667 42.666667 0 0 1 0-85.333333z m54.613334-222.72a32 32 0 1 0-45.226667-45.226667l-320 320a32 32 0 1 0 45.226667 45.226667l320-320z" /></svg>