<svg class="icon" style="width: 1em;height: 1em;vertical-align: middle;fill: currentColor;overflow: hidden;" viewBox="0 0 1024 1024" version="1.1" xmlns="http://www.w3.org/2000/svg"><path d="M234.666667 181.333333a32 32 0 0 1 32-32H512V341.333333a85.333333 85.333333 0 0 0 85.333333 85.333334h192v416a32 32 0 0 1-32 32H554.666667V938.666667h202.666666A96 96 0 0 0 853.333333 842.666667V412.330667c0-19.797333-7.850667-38.784-21.888-52.778667l-252.330666-252.330667A74.666667 74.666667 0 0 0 526.336 85.333333H266.666667A96 96 0 0 0 170.666667 181.333333v342.101334c12.544-7.253333 27.136-11.434667 42.666666-11.434667h21.333334V181.333333zM744.106667 362.666667H597.333333a21.333333 21.333333 0 0 1-21.333333-21.333334V194.56l168.106667 168.106667zM170.666667 682.666667v-64A64 64 0 0 1 234.666667 554.666667h85.333333A64 64 0 0 1 384 618.666667V682.666667h64a64 64 0 0 1 64 64V810.666667H384v-21.333334a21.333333 21.333333 0 0 0-42.666667 0v21.333334H213.333333v-21.333334a21.333333 21.333333 0 0 0-42.666666 0v21.333334H42.666667v-64A64 64 0 0 1 106.666667 682.666667H170.666667z m42.666666-64V682.666667h128v-64a21.333333 21.333333 0 0 0-21.333333-21.333334h-85.333333a21.333333 21.333333 0 0 0-21.333334 21.333334zM384 853.333333h128v64a64 64 0 0 1-64 64h-341.333333A64 64 0 0 1 42.666667 917.333333V853.333333h128v21.333334a21.333333 21.333333 0 0 0 42.666666 0V853.333333h128v21.333334a21.333333 21.333333 0 0 0 42.666667 0V853.333333z" /></svg>