<svg class="icon" style="width: 1em;height: 1em;vertical-align: middle;fill: currentColor;overflow: hidden;" viewBox="0 0 1024 1024" version="1.1" xmlns="http://www.w3.org/2000/svg"><path d="M373.333333 490.666667h277.333334c41.216 0 74.666667 33.450667 74.666666 74.666666v170.666667A74.666667 74.666667 0 0 1 650.666667 810.666667h-277.333334A74.666667 74.666667 0 0 1 298.666667 736v-170.666667c0-41.216 33.450667-74.666667 74.666666-74.666666z m-10.666666 74.666666v53.333334H426.666667V554.666667H373.333333a10.666667 10.666667 0 0 0-10.666666 10.666666z m0 117.333334v53.333333c0 5.888 4.778667 10.666667 10.666666 10.666667H426.666667V682.666667H362.666667z m128 0v64h160a10.666667 10.666667 0 0 0 10.666666-10.666667V682.666667h-170.666666z m170.666666-64v-53.333334a10.666667 10.666667 0 0 0-10.666666-10.666666H490.666667v64h170.666666zM579.626667 110.336a20.949333 20.949333 0 0 0-2.090667-1.706667 26.88 26.88 0 0 1-1.536-1.28 88.405333 88.405333 0 0 0-9.344-7.68 27.818667 27.818667 0 0 0-3.413333-1.877333l-2.048-1.024-2.133334-1.237333c-2.304-1.322667-4.650667-2.688-7.082666-3.712a84.352 84.352 0 0 0-26.624-5.888c-0.853333-0.042667-1.706667-0.170667-2.517334-0.298667A25.813333 25.813333 0 0 0 519.338667 85.333333H256a85.333333 85.333333 0 0 0-85.333333 85.333334v682.666666a85.333333 85.333333 0 0 0 85.333333 85.333334h512a85.333333 85.333333 0 0 0 85.333333-85.333334V419.328a85.333333 85.333333 0 0 0-25.002666-60.330667l-248.704-248.661333zM768 874.666667H256a21.333333 21.333333 0 0 1-21.333333-21.333334V170.666667a21.333333 21.333333 0 0 1 21.333333-21.333334h256V341.333333a85.333333 85.333333 0 0 0 85.333333 85.333334h192v426.666666a21.333333 21.333333 0 0 1-21.333333 21.333334z m-26.538667-512H597.333333a21.333333 21.333333 0 0 1-21.333333-21.333334V197.162667L741.461333 362.666667z" /></svg>