<svg class="icon" style="width: 1em;height: 1em;vertical-align: middle;fill: currentColor;overflow: hidden;" viewBox="0 0 1024 1024" version="1.1" xmlns="http://www.w3.org/2000/svg"><path d="M768 874.666667h-244.565333A278.101333 278.101333 0 0 1 477.44 938.666667H768a85.333333 85.333333 0 0 0 85.333333-85.333334V419.328a85.333333 85.333333 0 0 0-25.002666-60.330667l-248.704-248.661333a20.949333 20.949333 0 0 0-2.090667-1.706667 26.88 26.88 0 0 1-1.536-1.28 88.405333 88.405333 0 0 0-9.344-7.68 27.818667 27.818667 0 0 0-3.413333-1.877333l-2.048-1.024-2.133334-1.237333c-2.304-1.322667-4.650667-2.688-7.082666-3.712a84.352 84.352 0 0 0-26.624-5.888c-0.853333-0.042667-1.706667-0.170667-2.517334-0.298667A25.813333 25.813333 0 0 0 519.338667 85.333333H256a85.333333 85.333333 0 0 0-85.333333 85.333334v319.914666a275.242667 275.242667 0 0 1 64-18.005333V170.666667a21.333333 21.333333 0 0 1 21.333333-21.333334h256V341.333333a85.333333 85.333333 0 0 0 85.333333 85.333334h192v426.666666a21.333333 21.333333 0 0 1-21.333333 21.333334z m-26.538667-512H597.333333a21.333333 21.333333 0 0 1-21.333333-21.333334V197.162667L741.461333 362.666667zM554.666667 746.666667a278.186667 278.186667 0 0 1-7.424 64h103.424A74.666667 74.666667 0 0 0 725.333333 736v-170.666667a74.666667 74.666667 0 0 0-74.666666-74.666666H384.170667a278.144 278.144 0 0 1 106.496 78.762666V554.666667h160a10.666667 10.666667 0 0 1 10.666666 10.666666v53.333334h-137.898666c10.410667 20.053333 18.474667 41.472 23.808 64H661.333333v53.333333a10.666667 10.666667 0 0 1-10.666666 10.666667H554.666667z m-42.666667 0a234.666667 234.666667 0 1 1-469.333333 0 234.666667 234.666667 0 0 1 469.333333 0z m-91.562667-100.437334a21.333333 21.333333 0 0 0-30.208 0L234.666667 801.834667l-70.229334-70.272a21.333333 21.333333 0 0 0-30.208 30.208l85.333334 85.333333a21.333333 21.333333 0 0 0 30.208 0l170.666666-170.666667a21.333333 21.333333 0 0 0 0-30.208z" /></svg>