<svg class="icon" style="width: 1em;height: 1em;vertical-align: middle;fill: currentColor;overflow: hidden;" viewBox="0 0 1024 1024" version="1.1" xmlns="http://www.w3.org/2000/svg"><path d="M828.330667 358.997333l-248.704-248.661333a21.034667 21.034667 0 0 0-2.090667-1.706667 26.709333 26.709333 0 0 1-1.536-1.28 88.405333 88.405333 0 0 0-9.344-7.68 27.818667 27.818667 0 0 0-3.413333-1.877333l-2.048-1.024-2.133334-1.237333c-2.304-1.322667-4.650667-2.688-7.082666-3.712a84.352 84.352 0 0 0-26.624-5.888c-0.853333-0.042667-1.706667-0.170667-2.517334-0.298667A25.813333 25.813333 0 0 0 519.338667 85.333333H256a85.333333 85.333333 0 0 0-85.333333 85.333334v682.666666a85.333333 85.333333 0 0 0 85.333333 85.333334h290.56a278.101333 278.101333 0 0 1-45.994667-64H256a21.333333 21.333333 0 0 1-21.333333-21.333334V170.666667a21.333333 21.333333 0 0 1 21.333333-21.333334h256V341.333333a85.333333 85.333333 0 0 0 85.333333 85.333334h192v45.909333c22.314667 3.456 43.776 9.557333 64 18.005333v-71.253333a85.333333 85.333333 0 0 0-25.002666-60.330667zM576 197.162667L741.461333 362.666667H597.333333a21.333333 21.333333 0 0 1-21.333333-21.333334V197.162667zM458.666667 746.666667H469.333333c0 22.016 2.56 43.434667 7.424 64h-18.090666a32 32 0 0 1 0-64z m18.090666-64c5.333333-22.528 13.397333-43.946667 23.808-64h-41.898666a32 32 0 0 0 0 64h18.090666z m69.802667-128a277.802667 277.802667 0 0 1 93.269333-64H458.666667a32 32 0 0 0 0 64h87.893333z m-215.893333-64a32 32 0 1 0 0 64 32 32 0 0 0 0-64zM298.666667 650.666667a32 32 0 1 1 64 0 32 32 0 0 1-64 0z m0 128a32 32 0 1 1 64 0 32 32 0 0 1-64 0z m682.666666-32a234.666667 234.666667 0 1 0-469.333333 0 234.666667 234.666667 0 0 0 469.333333 0z m-246.613333 17.834666a21.333333 21.333333 0 0 1-9.344-20.864L725.333333 576a21.333333 21.333333 0 1 1 42.666667 0L768.042667 725.333333h106.496a21.333333 21.333333 0 0 1 0 42.666667H749.226667a21.632 21.632 0 0 1-14.506667-3.498667z" /></svg>