<svg class="icon" style="width: 1em;height: 1em;vertical-align: middle;fill: currentColor;overflow: hidden;" viewBox="0 0 1024 1024" version="1.1" xmlns="http://www.w3.org/2000/svg"><path d="M330.666667 661.333333a32 32 0 0 1-32-32v-234.666666a32 32 0 0 1 64 0v234.666666a32 32 0 0 1-32 32zM693.333333 661.333333a32 32 0 0 1-32-32v-234.666666a32 32 0 0 1 64 0v234.666666a32 32 0 0 1-32 32zM170.666667 192v640A106.666667 106.666667 0 0 0 277.333333 938.666667h469.333334a106.666667 106.666667 0 0 0 106.666666-106.666667v-640A106.666667 106.666667 0 0 0 746.666667 85.333333h-469.333334A106.666667 106.666667 0 0 0 170.666667 192z m554.666666-42.666667h21.333334a42.666667 42.666667 0 0 1 42.666666 42.666667v640a42.666667 42.666667 0 0 1-42.666666 42.666667H725.333333v-117.333334a32 32 0 0 0-64 0v117.333334h-298.666666v-117.333334a32 32 0 0 0-64 0v117.333334h-21.333334a42.666667 42.666667 0 0 1-42.666666-42.666667v-640a42.666667 42.666667 0 0 1 42.666666-42.666667H298.666667v117.333334a32 32 0 0 0 64 0V149.333333h298.666666v117.333334a32 32 0 0 0 64 0V149.333333z" /></svg>