<svg class="icon" style="width: 1em;height: 1em;vertical-align: middle;fill: currentColor;overflow: hidden;" viewBox="0 0 1024 1024" version="1.1" xmlns="http://www.w3.org/2000/svg"><path d="M757.12 85.162667a96 96 0 0 1 95.786667 89.429333l0.213333 6.570667v661.248a96 96 0 0 1-89.429333 95.786666l-6.570667 0.213334h-490.666667A96 96 0 0 1 170.666667 848.981333l-0.213334-6.570666V181.162667a96 96 0 0 1 89.429334-95.786667l6.570666-0.213333h490.666667z m0 64h-490.666667a32 32 0 0 0-31.701333 27.648l-0.298667 4.352v661.248c0 16.213333 12.032 29.610667 27.648 31.701333l4.352 0.298667h490.666667a32 32 0 0 0 31.701333-27.648l0.298667-4.352V181.162667a32 32 0 0 0-27.648-31.701334l-4.352-0.298666zM470.186667 512.853333a32 32 0 0 1-26.624-36.650666l4.437333-28.16H384.853333l-6.058666 38.186666a32 32 0 0 1-63.189334-10.026666l4.437334-28.16h-32a32 32 0 0 1 0-64h42.154666l10.112-64H309.333333a32 32 0 1 1 0-64h41.088l8.533334-53.76a32 32 0 0 1 63.146666 10.026666L415.274667 256h63.146666l8.533334-53.717333a32 32 0 1 1 63.232 10.026666L543.232 256h22.101333a32 32 0 0 1 0 64h-32.256L522.965333 384h21.034667a32 32 0 0 1 0 64h-31.189333l-6.058667 38.229333a32 32 0 0 1-36.608 26.581334zM405.034667 320L394.965333 384h63.146667l10.154667-64H405.077333z" /></svg>