<svg class="icon" style="width: 1em;height: 1em;vertical-align: middle;fill: currentColor;overflow: hidden;" viewBox="0 0 1024 1024" version="1.1" xmlns="http://www.w3.org/2000/svg"><path d="M768 874.666667a21.333333 21.333333 0 0 0 21.333333-21.333334V426.666667H597.333333a85.333333 85.333333 0 0 1-85.333333-85.333334V149.333333H256a21.333333 21.333333 0 0 0-21.333333 21.333334v453.418666a148.565333 148.565333 0 0 0-64-25.258666V170.666667a85.333333 85.333333 0 0 1 85.333333-85.333334h263.338667c1.194667 0 2.346667 0.170667 3.498666 0.298667 0.853333 0.128 1.706667 0.256 2.517334 0.298667 9.173333 0.64 18.218667 2.389333 26.624 5.888 2.432 1.024 4.778667 2.389333 7.082666 3.712l2.133334 1.237333 2.005333 1.024a27.818667 27.818667 0 0 1 3.456 1.877333c3.328 2.261333 6.314667 4.949333 9.344 7.68a26.88 26.88 0 0 0 1.536 1.28 20.949333 20.949333 0 0 1 2.090667 1.706667l248.704 248.661333A85.333333 85.333333 0 0 1 853.333333 419.328V853.333333a85.333333 85.333333 0 0 1-85.333333 85.333334h-74.069333c15.530667-17.621333 26.24-39.68 29.952-64H768z m-26.538667-512L576 197.162667V341.333333a21.333333 21.333333 0 0 0 21.333333 21.333334h144.128z m-227.242666 512c8.661333 36.693333 41.642667 64 80.981333 64h4.266667A83.2 83.2 0 0 0 682.666667 855.466667v-9.984a74.666667 74.666667 0 0 0-36.266667-64l-65.237333-39.168a10.666667 10.666667 0 0 1-5.162667-9.130667v-9.984a19.2 19.2 0 0 1 19.2-19.2h4.266667a19.2 19.2 0 0 1 19.2 19.2V725.333333a32 32 0 0 0 64 0v-2.133333A83.2 83.2 0 0 0 599.466667 640h-4.266667A83.2 83.2 0 0 0 512 723.2v9.984c0 26.197333 13.738667 50.517333 36.266667 64l65.237333 39.168a10.666667 10.666667 0 0 1 5.162667 9.130667v9.984a19.2 19.2 0 0 1-19.2 19.2h-4.266667a19.2 19.2 0 0 1-19.2-19.2V853.333333a32 32 0 0 0-64 0v2.133334c0 6.613333 0.768 13.013333 2.218667 19.2zM253.866667 938.666667l2.133333-2.133334V938.666667h-2.133333z m55.338666-42.666667A82.688 82.688 0 0 1 298.666667 855.466667V853.333333a32 32 0 0 1 64 0v2.133334c0 10.581333 8.576 19.2 19.2 19.2h4.266666a19.2 19.2 0 0 0 19.2-19.2v-9.984a10.666667 10.666667 0 0 0-5.162666-9.130667l-65.28-39.168a74.666667 74.666667 0 0 1-36.224-64v-9.984A83.2 83.2 0 0 1 381.866667 640h4.266666A83.2 83.2 0 0 1 469.333333 723.2V725.333333a32 32 0 0 1-64 0v-2.133333a19.2 19.2 0 0 0-19.2-19.2h-4.266666a19.2 19.2 0 0 0-19.2 19.2v9.984c0 3.754667 1.962667 7.210667 5.162666 9.130667l65.28 39.168c22.485333 13.482667 36.224 37.802667 36.224 64v9.984a83.498667 83.498667 0 0 1-10.538666 40.533333 83.2 83.2 0 0 1-72.661334 42.666667h-4.266666a83.2 83.2 0 0 1-72.661334-42.666667z m-61.397333-22.954667c5.290667-12.629333 8.192-26.496 8.192-41.045333a32 32 0 1 0-64 0 42.666667 42.666667 0 1 1-85.333333 0v-85.333333a42.666667 42.666667 0 1 1 85.333333 0 32 32 0 0 0 64 0 106.666667 106.666667 0 0 0-213.333333 0v85.333333a106.666667 106.666667 0 0 0 205.141333 41.045333z" /></svg>