<svg class="icon" style="width: 1em;height: 1em;vertical-align: middle;fill: currentColor;overflow: hidden;" viewBox="0 0 1024 1024" version="1.1" xmlns="http://www.w3.org/2000/svg"><path d="M768 874.666667h-300.117333a125.397333 125.397333 0 0 1-29.952 64H768a85.333333 85.333333 0 0 0 85.333333-85.333334V419.328a85.333333 85.333333 0 0 0-25.002666-60.330667l-248.704-248.661333a20.949333 20.949333 0 0 0-2.090667-1.706667 26.88 26.88 0 0 1-1.536-1.28 88.405333 88.405333 0 0 0-9.344-7.68 27.818667 27.818667 0 0 0-3.413333-1.877333l-2.048-1.024-2.133334-1.237333c-2.304-1.322667-4.650667-2.688-7.082666-3.712a84.352 84.352 0 0 0-26.624-5.888c-0.853333-0.042667-1.706667-0.170667-2.517334-0.298667A25.813333 25.813333 0 0 0 519.338667 85.333333H256a85.333333 85.333333 0 0 0-85.333333 85.333334v427.434666a74.453333 74.453333 0 0 1 64 21.674667V170.666667a21.333333 21.333333 0 0 1 21.333333-21.333334h256V341.333333a85.333333 85.333333 0 0 0 85.333333 85.333334h192v426.666666a21.333333 21.333333 0 0 1-21.333333 21.333334z m-26.538667-512H597.333333a21.333333 21.333333 0 0 1-21.333333-21.333334V197.162667L741.461333 362.666667zM181.333333 640a32 32 0 0 1 32 32V853.333333a85.333333 85.333333 0 1 1-170.666666 0v-10.666666a32 32 0 0 1 64 0V853.333333a21.333333 21.333333 0 0 0 42.666666 0v-181.333333a32 32 0 0 1 32-32z m157.866667 0A83.2 83.2 0 0 0 256 723.2v9.984c0 26.197333 13.781333 50.517333 36.266667 64l65.237333 39.168a10.666667 10.666667 0 0 1 5.162667 9.130667v9.984a19.2 19.2 0 0 1-19.2 19.2h-4.266667a19.2 19.2 0 0 1-19.2-19.2V853.333333A32 32 0 0 0 256 853.333333v2.133334A83.2 83.2 0 0 0 339.2 938.666667h4.266667A83.2 83.2 0 0 0 426.666667 855.466667v-9.984a74.666667 74.666667 0 0 0-36.266667-64l-65.237333-39.168a10.666667 10.666667 0 0 1-5.162667-9.130667v-9.984a19.2 19.2 0 0 1 19.2-19.2h4.266667a19.2 19.2 0 0 1 19.2 19.2V725.333333a32 32 0 0 0 64 0v-2.133333A83.2 83.2 0 0 0 343.466667 640h-4.266667z" /></svg>