<svg class="icon" style="width: 1em;height: 1em;vertical-align: middle;fill: currentColor;overflow: hidden;" viewBox="0 0 1024 1024" version="1.1" xmlns="http://www.w3.org/2000/svg"><path d="M853.333333 480a32 32 0 0 1-64 0V426.666667H597.333333a85.333333 85.333333 0 0 1-85.333333-85.333334V149.333333H256a21.333333 21.333333 0 0 0-21.333333 21.333334v309.333333a32 32 0 0 1-64 0V170.666667a85.333333 85.333333 0 0 1 85.333333-85.333334h263.338667c1.194667 0 2.346667 0.170667 3.498666 0.298667 0.853333 0.128 1.706667 0.256 2.517334 0.298667 9.173333 0.64 18.218667 2.389333 26.624 5.888 2.432 1.024 4.778667 2.389333 7.082666 3.712l2.133334 1.237333 2.005333 1.024a27.818667 27.818667 0 0 1 3.456 1.877333c3.328 2.261333 6.314667 4.949333 9.344 7.68l1.536 1.28a21.034667 21.034667 0 0 1 2.090667 1.706667l248.704 248.661333A85.376 85.376 0 0 1 853.333333 416v64z m-277.333333-282.837333V341.333333a21.333333 21.333333 0 0 0 21.333333 21.333334h144.128L576 197.162667zM202.666667 554.666667a32 32 0 0 1 32 32v106.453333a32 32 0 0 1-64 0V586.666667a32 32 0 0 1 32-32z m650.666666 32a32 32 0 0 0-64 0v106.453333a32 32 0 0 0 64 0V586.666667z m-448 320a32 32 0 0 1 32-32h149.333334a32 32 0 0 1 0 64h-149.333334a32 32 0 0 1-32-32z m-170.666666-85.333334a32 32 0 0 0-64 0V853.333333a85.333333 85.333333 0 0 0 85.333333 85.333334h53.333333a32 32 0 0 0 0-64H256a21.333333 21.333333 0 0 1-21.333333-21.333334v-32z m586.666666-32a32 32 0 0 0-32 32V853.333333a21.333333 21.333333 0 0 1-21.333333 21.333334h-53.333333a32 32 0 0 0 0 64H768a85.333333 85.333333 0 0 0 85.333333-85.333334v-32a32 32 0 0 0-32-32z" /></svg>