<svg class="icon" style="width: 1em;height: 1em;vertical-align: middle;fill: currentColor;overflow: hidden;" viewBox="0 0 1024 1024" version="1.1" xmlns="http://www.w3.org/2000/svg"><path d="M757.162667 85.333333a96 96 0 0 1 95.744 89.429334l0.256 6.570666v309.248a275.285333 275.285333 0 0 0-64-17.92V181.333333a32 32 0 0 0-27.648-31.701333l-4.352-0.298667H266.666667a32 32 0 0 0-31.701334 27.648L234.666667 181.333333v661.12c0 16.213333 12.032 29.568 27.648 31.701334l4.309333 0.256h233.941333c12.202667 23.509333 27.733333 45.056 45.866667 64H266.581333A96 96 0 0 1 170.88 849.066667L170.666667 842.453333V181.333333a96 96 0 0 1 89.386666-95.786666L266.666667 85.333333h490.538666zM362.837333 213.504a64 64 0 0 0 0 127.957333h298.581334a64 64 0 0 0 0-128H362.837333zM981.333333 746.666667a234.666667 234.666667 0 1 1-469.333333 0 234.666667 234.666667 0 0 1 469.333333 0z m-304.896-100.437334a21.333333 21.333333 0 0 0-30.208 30.208l70.272 70.229334-70.272 70.229333a21.333333 21.333333 0 0 0 30.208 30.208l70.229334-70.272 70.229333 70.272a21.333333 21.333333 0 0 0 30.208-30.208L776.832 746.666667l70.272-70.229334a21.333333 21.333333 0 0 0-30.208-30.208L746.666667 716.501333l-70.229334-70.272z" /></svg>