<svg class="icon" style="width: 1em;height: 1em;vertical-align: middle;fill: currentColor;overflow: hidden;" viewBox="0 0 1024 1024" version="1.1" xmlns="http://www.w3.org/2000/svg"><path d="M298.666667 522.666667a32 32 0 1 1 64 0 32 32 0 0 1-64 0z m32 96a32 32 0 1 0 0 64 32 32 0 0 0 0-64zM298.666667 778.666667a32 32 0 1 1 64 0 32 32 0 0 1-64 0zM170.666667 215.893333L94.72 139.946667a32 32 0 1 1 45.226667-45.226667l789.333333 789.333333a32 32 0 0 1-45.226667 45.226667l-39.082666-39.04A85.376 85.376 0 0 1 768 938.666667H256a85.333333 85.333333 0 0 1-85.333333-85.333334V215.893333z m618.666666 618.709334l-65.450666-65.450667a32 32 0 0 1-30.549334 41.514667h-234.666666a32 32 0 0 1 0-64h234.666666c3.328 0 6.485333 0.512 9.514667 1.450666L637.397333 682.666667H458.666667a32 32 0 0 1 0-64h114.773333l-64-64h-50.773333a32 32 0 0 1-11.221334-61.994667L234.666667 279.936V853.333333a21.333333 21.333333 0 0 0 21.333333 21.333334h512a21.333333 21.333333 0 0 0 21.333333-21.333334v-18.730666zM512 341.333333c0 20.992 7.594667 40.192 20.181333 55.04l10.069334 10.112c14.890667 12.586667 34.133333 20.181333 55.082666 20.181334h192v226.901333l64 64v-298.24a85.333333 85.333333 0 0 0-25.002666-60.330667l-248.704-248.661333a21.034667 21.034667 0 0 0-2.090667-1.706667 26.709333 26.709333 0 0 1-1.536-1.28 88.405333 88.405333 0 0 0-9.344-7.68 27.818667 27.818667 0 0 0-3.413333-1.877333l-2.048-1.024-2.133334-1.237333c-2.304-1.322667-4.650667-2.688-7.082666-3.712a84.352 84.352 0 0 0-26.624-5.888c-0.853333-0.042667-1.706667-0.170667-2.517334-0.298667A25.813333 25.813333 0 0 0 519.338667 85.333333H256c-10.410667 0-20.394667 1.877333-29.610667 5.290667L285.098667 149.333333H512V341.333333z m64-144.170666L741.461333 362.666667H597.333333a21.333333 21.333333 0 0 1-21.333333-21.333334V197.162667z m117.333333 293.504h-66.901333l64 64h2.901333a32 32 0 0 0 0-64z" /></svg>