<svg class="icon" style="width: 1em;height: 1em;vertical-align: middle;fill: currentColor;overflow: hidden;" viewBox="0 0 1024 1024" version="1.1" xmlns="http://www.w3.org/2000/svg"><path d="M266.666667 85.333333A96 96 0 0 0 170.666667 181.333333v661.333334A96 96 0 0 0 266.666667 938.666667h279.893333a278.101333 278.101333 0 0 1-45.994667-64H266.666667a32 32 0 0 1-32-32V181.333333a32 32 0 0 1 32-32h490.666666a32 32 0 0 1 32 32v291.242667c22.314667 3.456 43.776 9.557333 64 18.005333V181.333333A96 96 0 0 0 757.333333 85.333333H266.666667zM746.666667 981.333333a234.666667 234.666667 0 1 0 0-469.333333 234.666667 234.666667 0 0 0 0 469.333333z m149.333333-234.666666a21.333333 21.333333 0 0 1-21.333333 21.333333h-204.501334l70.272 70.229333a21.333333 21.333333 0 0 1-30.208 30.208l-106.666666-106.666666a21.333333 21.333333 0 0 1 0-30.208l106.666666-106.666667a21.333333 21.333333 0 0 1 30.208 30.208L670.165333 725.333333H874.666667a21.333333 21.333333 0 0 1 21.333333 21.333334zM362.666667 565.333333a64 64 0 1 0 0-128 64 64 0 0 0 0 128z" /></svg>