<svg class="icon" style="width: 1em;height: 1em;vertical-align: middle;fill: currentColor;overflow: hidden;" viewBox="0 0 1024 1024" version="1.1" xmlns="http://www.w3.org/2000/svg"><path d="M416 746.666667a32 32 0 0 0 0 64h192a32 32 0 0 0 0-64h-192zM460.757333 302.976A64 64 0 1 1 512 405.333333H341.333333a85.333333 85.333333 0 0 0-85.333333 85.333334V853.333333a85.333333 85.333333 0 0 0 85.333333 85.333334h341.333334a85.333333 85.333333 0 0 0 85.333333-85.333334V341.333333A256 256 0 0 0 307.242667 187.648 96 96 0 1 0 460.8 302.976zM512 213.333333c-41.728 0-78.933333 19.968-102.4 51.2a32 32 0 0 1-51.2-38.4A192 192 0 0 1 704 341.333333v512a21.333333 21.333333 0 0 1-21.333333 21.333334H341.333333a21.333333 21.333333 0 0 1-21.333333-21.333334v-362.666666A21.333333 21.333333 0 0 1 341.333333 469.333333h170.666667a128 128 0 1 0 0-256z" /></svg>