<svg class="icon" style="width: 1em;height: 1em;vertical-align: middle;fill: currentColor;overflow: hidden;" viewBox="0 0 1024 1024" version="1.1" xmlns="http://www.w3.org/2000/svg"><path d="M288 768a32 32 0 0 0 31.701333-27.648l0.298667-4.352V194.602667l94.72 94.72a32 32 0 0 0 41.642667 3.072l3.584-3.114667a32 32 0 0 0 3.114666-41.642667l-3.114666-3.584-149.333334-149.333333a32 32 0 0 0-41.642666-3.114667l-3.584 3.114667-149.333334 149.333333a32 32 0 0 0 41.642667 48.341334l3.584-3.114667L256 194.602667V736c0 17.664 14.336 32 32 32z m447.914667 0a32 32 0 0 0 31.701333-27.648l0.298667-4.352V194.602667l94.72 94.72a32 32 0 0 0 41.642666 3.072l3.584-3.114667a32 32 0 0 0 3.114667-41.642667l-3.114667-3.584-149.333333-149.333333a32 32 0 0 0-41.642667-3.114667l-3.626666 3.114667-149.333334 149.333333a32 32 0 0 0 41.685334 48.341334l3.584-3.114667 94.72-94.677333V736c0 17.664 14.293333 32 32 32zM288 938.666667a202.666667 202.666667 0 0 0 74.709333-391.125334v71.637334a138.666667 138.666667 0 1 1-149.418666 0v-71.68A202.752 202.752 0 0 0 288 938.666667z m447.914667 0a202.666667 202.666667 0 0 0 74.666666-391.125334L810.666667 619.178667a138.666667 138.666667 0 1 1-149.418667 0v-71.68A202.752 202.752 0 0 0 735.914667 938.666667z" /></svg>