<svg class="icon" style="width: 1em;height: 1em;vertical-align: middle;fill: currentColor;overflow: hidden;" viewBox="0 0 1024 1024" version="1.1" xmlns="http://www.w3.org/2000/svg"><path d="M288 256a32 32 0 0 1 31.701333 27.648l0.298667 4.352v541.397333l94.72-94.72a32 32 0 0 1 41.642667-3.072l3.584 3.114667a32 32 0 0 1 3.114666 41.642667l-3.114666 3.584-149.333334 149.333333a32 32 0 0 1-41.642666 3.114667l-3.584-3.114667-149.333334-149.333333a32 32 0 0 1 41.642667-48.341334l3.584 3.114667L256 829.397333V288A32 32 0 0 1 288 256z m447.914667 0a32 32 0 0 1 31.701333 27.648l0.298667 4.352v541.397333l94.72-94.72a32 32 0 0 1 41.642666-3.072l3.584 3.114667a32 32 0 0 1 3.114667 41.642667l-3.114667 3.584-149.333333 149.333333a32 32 0 0 1-41.642667 3.114667l-3.626666-3.114667-149.333334-149.333333a32 32 0 0 1 41.685334-48.341334l3.584 3.114667 94.72 94.677333V288a32 32 0 0 1 32-32zM288 85.333333a202.666667 202.666667 0 0 1 74.709333 391.125334V404.821333a138.666667 138.666667 0 1 0-149.418666 0v71.68A202.752 202.752 0 0 1 288 85.333333z m447.914667 0a202.666667 202.666667 0 0 1 74.666666 391.125334L810.666667 404.821333a138.666667 138.666667 0 1 0-149.418667 0v71.68A202.752 202.752 0 0 1 735.914667 85.333333z" /></svg>