<svg class="icon" style="width: 1em;height: 1em;vertical-align: middle;fill: currentColor;overflow: hidden;" viewBox="0 0 1024 1024" version="1.1" xmlns="http://www.w3.org/2000/svg"><path d="M467.669333 128c13.226667 0.213333 25.002667 8.533333 29.568 20.992l152.789334 416.682667-49.621334 50.517333-19.968-54.4H341.248L285.866667 704.853333a32 32 0 0 1-59.733334-23.125333l63.317334-163.541333 0.128-0.341334 147.925333-369.792a32 32 0 0 1 30.165333-20.053333z m-1.749333 121.429333l-99.370667 248.32h190.421334l-91.050667-248.32zM866.389333 535.765333l-5.504-4.522666-0.128-0.085334a96.554667 96.554667 0 0 0-125.909333 9.045334l-162.261333 165.12c-10.069333 10.197333-17.408 22.570667-21.461334 36.053333l-25.045333 83.285333a215.210667 215.210667 0 0 1-68.437333-0.298666 1.578667 1.578667 0 0 1-1.194667-2.176l1.578667-3.413334c2.816-5.845333 7.68-16.256 9.301333-26.965333 0.853333-5.973333 1.152-14.250667-2.090667-23.04a42.752 42.752 0 0 0-18.005333-21.845333c-13.824-8.533333-31.018667-9.173333-45.781333-8.32a338.602667 338.602667 0 0 0-43.989334 6.144c-19.712 3.84-38.442667 12.672-57.130666 21.461333-24.576 11.605333-49.066667 23.125333-75.562667 23.125333-9.514667 0-18.645333-1.536-27.221333-4.437333-5.248-1.749333-11.008 2.517333-9.685334 7.893333 2.432 9.728 6.912 22.912 16.725334 33.066667a46.08 46.08 0 0 0 47.189333 12.074667c62.037333-18.176 103.253333-28.074667 130.048-32.554667 5.632-0.938667 9.813333 4.693333 8.106667 10.154667-2.688 8.533333-6.528 24.661333 1.450666 40.96 8.618667 17.749333 25.6 25.173333 40.277334 28.16 48.768 10.069333 90.88 8.746667 142.336-4.778667a46.08 46.08 0 0 0 6.698666-1.621333l4.992-1.578667c7.296-2.133333 14.805333-4.48 22.570667-7.082667a32.085333 32.085333 0 0 0 3.413333-1.322666l59.178667-19.157334c14.421333-4.693333 27.434667-12.629333 37.845333-23.253333l161.92-164.693333c33.536-34.176 33.408-86.826667 0.768-120.576l-4.992-4.821334z m-250.666666 223.189334a23.381333 23.381333 0 0 1 5.76-9.685334l162.261333-165.12a27.008 27.008 0 0 1 36.736-1.237333c9.344 8.277333 10.666667 21.589333 3.669333 31.317333l-2.56 3.072-161.792 164.565334a25.429333 25.429333 0 0 1-10.325333 6.314666l-47.104 15.232 13.354667-44.458666z" /></svg>