<svg class="icon" style="width: 1em;height: 1em;vertical-align: middle;fill: currentColor;overflow: hidden;" viewBox="0 0 1024 1024" version="1.1" xmlns="http://www.w3.org/2000/svg"><path d="M288 167.893333A117.333333 117.333333 0 0 0 170.666667 285.226667v408.106666a32 32 0 1 0 64 0V285.226667c0-29.44 23.893333-53.333333 53.333333-53.333334h405.333333c29.44 0 53.333333 23.893333 53.333334 53.333334v195.968c20.181333-8.917333 42.24-12.8 64-11.648v-184.32a117.333333 117.333333 0 0 0-117.333334-117.333334h-405.333333zM866.389333 535.765333l-5.504-4.48-0.128-0.128a96.554667 96.554667 0 0 0-125.909333 9.045334l-162.261333 165.12c-10.069333 10.24-17.408 22.570667-21.461334 36.053333l-25.045333 83.285333a215.210667 215.210667 0 0 1-68.437333-0.256 1.578667 1.578667 0 0 1-1.194667-2.218666l1.450667-3.072 0.170666-0.298667c2.773333-5.888 7.68-16.298667 9.258667-27.008 0.853333-5.973333 1.152-14.250667-2.090667-23.04a42.709333 42.709333 0 0 0-18.005333-21.845333c-13.824-8.490667-31.018667-9.130667-45.781333-8.277334a337.109333 337.109333 0 0 0-43.989334 6.144c-19.712 3.84-38.442667 12.629333-57.130666 21.418667-24.576 11.605333-49.066667 23.125333-75.562667 23.125333-9.514667 0-18.645333-1.536-27.221333-4.437333-5.248-1.706667-11.008 2.517333-9.685334 7.893333 2.432 9.770667 6.912 22.954667 16.725334 33.066667a46.122667 46.122667 0 0 0 47.189333 12.117333c62.037333-18.218667 103.253333-28.16 130.048-32.597333 5.632-0.938667 9.813333 4.736 8.106667 10.197333-2.688 8.533333-6.528 24.618667 1.450666 40.96 8.618667 17.706667 25.6 25.130667 40.277334 28.16 48.768 10.026667 90.88 8.704 142.336-4.778666 2.218667-0.384 4.48-0.896 6.698666-1.621334l4.992-1.621333a588.8 588.8 0 0 0 22.570667-7.04 33.024 33.024 0 0 0 3.413333-1.365333l59.178667-19.157334c14.421333-4.650667 27.434667-12.629333 37.845333-23.253333l161.92-164.693333c33.536-34.176 33.408-86.826667 0.768-120.576l-4.992-4.821334z m-250.666666 223.189334a23.466667 23.466667 0 0 1 5.76-9.642667l162.261333-165.12a27.008 27.008 0 0 1 36.736-1.28c9.344 8.32 10.666667 21.589333 3.669333 31.317333l-2.56 3.072-161.792 164.565334a25.429333 25.429333 0 0 1-10.325333 6.314666l-47.104 15.232 13.354667-44.458666z" /></svg>