<svg class="icon" style="width: 1em;height: 1em;vertical-align: middle;fill: currentColor;overflow: hidden;" viewBox="0 0 1024 1024" version="1.1" xmlns="http://www.w3.org/2000/svg"><path d="M168.149333 213.333333C122.453333 213.333333 85.333333 250.453333 85.333333 296.149333V512a341.333333 341.333333 0 0 0 678.869334 51.072h31.488a142.890667 142.890667 0 0 0 0-285.738667h-29.866667c-8.533333-36.693333-41.386667-64-80.64-64H168.106667zM149.333333 296.149333c0-10.368 8.448-18.816 18.816-18.816H685.226667c10.368 0 18.816 8.448 18.816 18.816V512a277.333333 277.333333 0 1 1-554.666667 0V296.149333zM768 341.333333h27.690667a78.890667 78.890667 0 1 1 0 157.738667H768V341.333333z" /></svg>