<svg class="icon" style="width: 1em;height: 1em;vertical-align: middle;fill: currentColor;overflow: hidden;" viewBox="0 0 1024 1024" version="1.1" xmlns="http://www.w3.org/2000/svg"><path d="M847.914667 148.906667a32 32 0 1 0-10.496-63.146667l-256 42.666667a32 32 0 0 0-26.154667 25.301333L543.402667 213.333333H245.333333a32 32 0 0 0-32 32v170.666667a138.666667 138.666667 0 0 0 128 138.24v21.76c0 83.328 59.733333 152.704 138.666667 167.68v130.986667h-106.666667a32 32 0 0 0 0 64h277.333334a32 32 0 0 0 0-64h-106.666667v-130.986667A170.709333 170.709333 0 0 0 682.666667 576v-21.76a138.666667 138.666667 0 0 0 128-138.24v-170.666667a32 32 0 0 0-32-32h-170.026667l5.077333-25.386666 234.24-39.04zM746.666667 341.333333h-163.626667l12.8-64H746.666667V341.333333z m-176.426667 64H746.666667v10.666667a74.666667 74.666667 0 0 1-74.666667 74.666667h-21.333333a32 32 0 0 0-32 32v53.333333a106.666667 106.666667 0 0 1-213.333334 0v-53.333333a32 32 0 0 0-32-32h-21.333333A74.666667 74.666667 0 0 1 277.333333 416V405.333333h227.626667l-34.986667 175.061334a32 32 0 1 0 62.72 12.544l37.546667-187.605334zM517.76 341.333333H277.333333V277.333333h253.226667l-12.8 64z" /></svg>