<svg class="icon" style="width: 1em;height: 1em;vertical-align: middle;fill: currentColor;overflow: hidden;" viewBox="0 0 1024 1024" version="1.1" xmlns="http://www.w3.org/2000/svg"><path d="M670.72 94.72a32 32 0 0 1 45.226667 45.226667L663.893333 192h93.44c13.525333 0 25.6 8.533333 30.122667 21.248l53.333333 149.333333A32 32 0 0 1 810.666667 405.333333h-44.544l-67.754667 428.8c-8.96 62.506667-62.250667 104.533333-126.72 104.533334h-119.296c-64.426667 0-117.76-42.026667-126.634667-104.106667L257.877333 405.333333H213.333333a32 32 0 0 1-30.122666-42.752l53.333333-149.333333A32 32 0 0 1 266.666667 192h306.688l97.365333-97.28z m30.549333 310.613333H322.688l66.304 419.712c4.266667 29.653333 29.568 49.621333 63.36 49.621334h119.296c33.834667 0 59.136-19.968 63.445333-50.090667L701.269333 405.333333z m33.536-149.333333H289.237333l-30.506666 85.333333h506.538666l-30.464-85.333333z" /></svg>