<svg class="icon" style="width: 1em;height: 1em;vertical-align: middle;fill: currentColor;overflow: hidden;" viewBox="0 0 1024 1024" version="1.1" xmlns="http://www.w3.org/2000/svg"><path d="M679.637333 416.170667a32 32 0 0 0-62.848-11.989334 105.728 105.728 0 0 1-32.981333 58.709334 106.752 106.752 0 0 1-49.877333 25.514666 32 32 0 1 0 13.098666 62.677334 169.685333 169.685333 0 0 0 79.872-40.874667 171.178667 171.178667 0 0 0 52.736-94.037333zM256 117.333333A32 32 0 0 1 288 85.333333h448a32 32 0 0 1 32 32v277.333334a266.709333 266.709333 0 0 1-234.666667 264.789333v215.594667l117.248-0.384a32 32 0 0 1 0.170667 64l-149.333333 0.469333h-0.213334l-128-0.469333a32 32 0 0 1 0.256-64l95.872 0.341333v-215.722667A245.376 245.376 0 0 1 256 416v-298.666667z m64 32v117.333334h384V149.333333h-384z m0 266.666667A181.333333 181.333333 0 0 0 501.333333 597.333333a202.666667 202.666667 0 0 0 202.666667-202.666666v-64h-384v85.333333z" /></svg>