<svg class="icon" style="width: 1em;height: 1em;vertical-align: middle;fill: currentColor;overflow: hidden;" viewBox="0 0 1024 1024" version="1.1" xmlns="http://www.w3.org/2000/svg"><path d="M362.666667 426.666667A32 32 0 0 0 298.666667 426.666667v298.666666a32 32 0 0 0 64 0v-298.666666zM490.666667 426.666667a32 32 0 0 0-64 0v298.666666a32 32 0 0 0 64 0v-298.666666zM618.666667 426.666667a32 32 0 0 0-64 0v298.666666a32 32 0 0 0 64 0v-298.666666zM170.666667 224A138.666667 138.666667 0 0 1 309.333333 85.333333h298.666667a138.666667 138.666667 0 0 1 138.666667 138.666667V256h53.333333A138.666667 138.666667 0 0 1 938.666667 394.666667v234.666666A138.666667 138.666667 0 0 1 800 768H746.666667v74.666667A96 96 0 0 1 650.666667 938.666667h-384A96 96 0 0 1 170.666667 842.666667V224zM682.666667 320H234.666667v522.666667c0 17.664 14.336 32 32 32h384a32 32 0 0 0 32-32V320z m64 384h53.333333a74.666667 74.666667 0 0 0 74.666667-74.666667v-234.666666a74.666667 74.666667 0 0 0-74.666667-74.666667H746.666667v384zM682.666667 224a74.666667 74.666667 0 0 0-74.666667-74.666667h-298.666667A74.666667 74.666667 0 0 0 234.666667 224V256H682.666667v-32z" /></svg>