<svg class="icon" style="width: 1em;height: 1em;vertical-align: middle;fill: currentColor;overflow: hidden;" viewBox="0 0 1024 1024" version="1.1" xmlns="http://www.w3.org/2000/svg"><path d="M234.666667 128A106.666667 106.666667 0 0 0 128 234.666667v128a106.666667 106.666667 0 0 0 213.333333 0V341.333333h96.768c9.429333 16.384 24.192 29.312 41.898667 36.48v268.373334c-17.706667 7.168-32.426667 20.096-41.898667 36.48H341.333333v-21.333334a106.666667 106.666667 0 0 0-213.333333 0v128a106.666667 106.666667 0 0 0 213.333333 0v-42.666666h88.021334a85.333333 85.333333 0 0 0 165.290666 0H682.666667v42.666666a106.666667 106.666667 0 0 0 213.333333 0v-128a106.666667 106.666667 0 0 0-213.333333 0v21.333334h-96.768a85.632 85.632 0 0 0-41.898667-36.48v-268.373334c17.706667-7.168 32.426667-20.096 41.898667-36.48H682.666667v21.333334a106.666667 106.666667 0 0 0 213.333333 0v-128a106.666667 106.666667 0 0 0-213.333333 0v42.666666h-88.021334a85.333333 85.333333 0 0 0-165.290666 0H341.333333v-42.666666A106.666667 106.666667 0 0 0 234.666667 128z m-42.666667 106.666667a42.666667 42.666667 0 0 1 85.333333 0v128a42.666667 42.666667 0 0 1-85.333333 0v-128z m42.666667 384a42.666667 42.666667 0 0 1 42.666666 42.666666v128a42.666667 42.666667 0 1 1-85.333333 0v-128a42.666667 42.666667 0 0 1 42.666667-42.666666z m512-384a42.666667 42.666667 0 1 1 85.333333 0v128a42.666667 42.666667 0 1 1-85.333333 0v-128z m42.666666 384a42.666667 42.666667 0 0 1 42.666667 42.666666v128a42.666667 42.666667 0 1 1-85.333333 0v-128a42.666667 42.666667 0 0 1 42.666666-42.666666z" /></svg>