<svg class="icon" style="width: 1em;height: 1em;vertical-align: middle;fill: currentColor;overflow: hidden;" viewBox="0 0 1024 1024" version="1.1" xmlns="http://www.w3.org/2000/svg"><path d="M489.386667 94.72a32 32 0 0 1 45.226666 0c17.194667 17.194667 85.290667 90.752 149.290667 186.112C747.050667 374.826667 810.666667 496.426667 810.666667 608c0 107.690667-31.829333 191.104-87.210667 247.722667C668.117333 912.213333 592.597333 938.666667 512 938.666667c-80.64 0-156.117333-26.410667-211.456-82.944C245.162667 799.104 213.333333 715.690667 213.333333 608c0-111.573333 63.658667-233.173333 126.762667-327.168 64-95.36 132.096-168.96 149.290667-186.112zM393.216 316.501333C331.008 409.173333 277.333333 516.906667 277.333333 608c0 94.976 27.861333 160.896 68.992 202.965333 41.173333 42.112 98.986667 63.701333 165.674667 63.701334 66.645333 0 124.501333-21.589333 165.674667-63.701334 41.130667-42.069333 68.992-107.946667 68.992-202.965333 0-91.093333-53.674667-198.826667-115.882667-291.498667A1423.317333 1423.317333 0 0 0 512 164.181333a1423.232 1423.232 0 0 0-118.784 152.32z" /></svg>