<svg class="icon" style="width: 1em;height: 1em;vertical-align: middle;fill: currentColor;overflow: hidden;" viewBox="0 0 1024 1024" version="1.1" xmlns="http://www.w3.org/2000/svg"><path d="M522.666667 426.666667a74.666667 74.666667 0 0 1 74.410666 68.522666l0.256 6.144v362.666667a74.666667 74.666667 0 0 1-68.565333 74.410667L522.666667 938.666667h-362.666667a74.666667 74.666667 0 0 1-74.410667-68.565334L85.333333 864v-362.666667a74.666667 74.666667 0 0 1 68.522667-74.410666L160 426.666667h362.666667zM320 490.624H160a10.666667 10.666667 0 0 0-10.368 8.277333l-0.298667 2.432v362.666667a10.666667 10.666667 0 0 0 8.234667 10.368l2.432 0.298667 160-0.042667v-384z m202.666667 0H362.666667v384l160 0.042667a10.666667 10.666667 0 0 0 10.368-8.234667l0.298666-2.432v-362.666667a10.666667 10.666667 0 0 0-8.234666-10.410666l-2.432-0.256zM453.333333 768a32 32 0 0 1 4.352 63.701333l-4.352 0.298667h-21.333333a32 32 0 0 1-4.352-63.701333l4.352-0.298667h21.333333z m-202.666666 0a32 32 0 0 1 4.352 63.701333l-4.352 0.298667h-21.333334a32 32 0 0 1-4.352-63.701333L229.333333 768h21.333334zM842.666667 85.333333a96 96 0 0 1 95.786666 89.429334L938.666667 181.333333v384a96 96 0 0 1-89.429334 95.786667l-6.570666 0.213333h-117.162667v85.333334h53.162667a32 32 0 0 1 4.352 63.701333L778.666667 810.666667H640v-64h21.504v-85.333334H640V597.333333h202.666667a32 32 0 0 0 31.701333-27.648l0.298667-4.352v-384a32 32 0 0 0-32-32H266.666667a32 32 0 0 0-31.701334 27.648L234.666667 181.333333V384H170.666667V181.333333a96 96 0 0 1 89.429333-95.786666L266.666667 85.333333h576z" /></svg>