<svg class="icon" style="width: 1em;height: 1em;vertical-align: middle;fill: currentColor;overflow: hidden;" viewBox="0 0 1024 1024" version="1.1" xmlns="http://www.w3.org/2000/svg"><path d="M944.768 140.885333c-13.994667-23.338667-28.373333-39.296-38.954667-48.128a32 32 0 0 0-40.96 49.152c5.418667 4.522667 15.061333 15.232 25.045334 31.872 17.109333 28.586667 27.434667 62.933333 27.434666 103.552s-10.325333 75.008-27.434666 103.552c-9.984 16.64-19.626667 27.349333-25.045334 31.872a32 32 0 0 0 40.96 49.152c10.581333-8.832 24.96-24.746667 38.954667-48.128C967.68 375.68 981.333333 330.069333 981.333333 277.333333s-13.653333-98.346667-36.565333-136.448z m-96.810667 46.677334a131.2 131.2 0 0 0-28.757333-31.829334 32 32 0 0 0-38.4 51.2c2.645333 1.962667 8.106667 7.466667 13.909333 16.170667 9.984 14.933333 15.957333 32.853333 15.957334 54.229333 0 21.333333-5.973333 39.253333-15.957334 54.229334a71.722667 71.722667 0 0 1-13.909333 16.170666l-3.584 3.114667A32 32 0 0 0 819.2 398.933333c8.064-6.016 18.56-16.554667 28.757333-31.829333A159.317333 159.317333 0 0 0 874.666667 277.333333c0-34.645333-10.026667-64.725333-26.709334-89.770666zM725.333333 160a32 32 0 0 0-56.064-21.077333L604.16 213.333333h-60.16a32 32 0 0 0-32 32v64c0 17.664 14.336 32 32 32h60.16l65.109333 74.410667A32 32 0 0 0 725.333333 394.666667v-234.666667z m-215.466666 10.709333H160.341333a74.666667 74.666667 0 0 0-74.666666 74.666667v533.12c0 41.258667 33.450667 74.666667 74.666666 74.666667h319.872v0.128h383.957334a74.666667 74.666667 0 0 0 74.666666-74.666667v-288.853333c-1.92 1.706667-3.84 3.413333-5.674666 4.906666-16.896 14.08-38.144 19.456-58.325334 16.597334v267.306666a10.666667 10.666667 0 0 1-10.666666 10.666667h-319.914667V384H512a42.581333 42.581333 0 0 1-31.786667-14.208v419.413333H160.298667a10.666667 10.666667 0 0 1-10.666667-10.666666V245.333333a10.666667 10.666667 0 0 1 10.666667-10.666666H469.333333V213.333333A42.666667 42.666667 0 0 1 509.866667 170.666667zM693.205333 661.333333h-64l-4.352 0.298667A32 32 0 0 0 629.162667 725.333333h64l4.352-0.298666a32 32 0 0 0-4.352-63.701334z m-362.538666 0H394.666667a32 32 0 0 1 4.352 63.701334L394.666667 725.333333H330.666667a32 32 0 0 1-4.352-63.701333l4.352-0.298667z" /></svg>