<svg class="icon" style="width: 1em;height: 1em;vertical-align: middle;fill: currentColor;overflow: hidden;" viewBox="0 0 1024 1024" version="1.1" xmlns="http://www.w3.org/2000/svg"><path d="M426.666667 277.333333c0 14.506667 1.109333 28.8 3.285333 42.752H160a10.666667 10.666667 0 0 0-10.666667 10.666667v533.077333c0 5.888 4.778667 10.666667 10.666667 10.666667h319.914667l-0.042667-433.792c17.749333 24.32 39.424 45.653333 64 63.104v370.773333h319.914667a10.666667 10.666667 0 0 0 10.666666-10.666666v-367.786667a278.826667 278.826667 0 0 0 64.042667-70.656V864a74.666667 74.666667 0 0 1-74.666667 74.666667h-383.914666l-0.042667-0.128H160A74.666667 74.666667 0 0 1 85.333333 863.829333V330.709333c0-41.216 33.450667-74.666667 74.666667-74.666666h267.477333c-0.554667 7.04-0.810667 14.122667-0.810666 21.290666z m266.197333 469.333334a32 32 0 0 1 4.309333 63.701333L692.906667 810.666667h-64a32 32 0 0 1-4.352-63.701334l4.352-0.298666h64z m-298.496 0a32 32 0 0 1 4.352 63.701333L394.368 810.666667H330.24a32 32 0 0 1-4.352-63.701334l4.352-0.298666h64.085333zM704 42.666667a234.666667 234.666667 0 1 1 0 469.333333 234.666667 234.666667 0 0 1 0-469.333333z m-78.421333 126.549333a21.333333 21.333333 0 0 0-24.277334 0l-2.986666 2.474667-2.432 2.986666a21.333333 21.333333 0 0 0 0 24.234667l2.474666 2.986667 75.52 75.477333-75.434666 75.349333-2.432 2.986667a21.333333 21.333333 0 0 0 0 24.234667l2.432 2.986666 2.986666 2.432a21.333333 21.333333 0 0 0 24.234667 0l2.986667-2.432L704 307.541333l75.52 75.477334 2.944 2.474666a21.333333 21.333333 0 0 0 24.234667 0l2.986666-2.474666 2.432-2.986667a21.333333 21.333333 0 0 0 0-24.234667l-2.432-2.986666-75.52-75.434667 75.605334-75.52 2.474666-2.944a21.333333 21.333333 0 0 0 0-24.277333l-2.474666-2.944-2.944-2.474667a21.333333 21.333333 0 0 0-24.277334 0l-2.944 2.474667-75.605333 75.52-75.52-75.52-2.901333-2.474667z" /></svg>