<svg class="icon" style="width: 1em;height: 1em;vertical-align: middle;fill: currentColor;overflow: hidden;" viewBox="0 0 1024 1024" version="1.1" xmlns="http://www.w3.org/2000/svg"><path d="M544.213333 170.709333v0.085334h319.914667c41.216 0 74.666667 33.450667 74.666667 74.666666v533.12a74.666667 74.666667 0 0 1-74.666667 74.666667h-383.914667v-0.085333H160.256a74.666667 74.666667 0 0 1-74.666667-74.666667V245.376c0-41.258667 33.450667-74.666667 74.666667-74.666667h383.914667z m319.914667 64.085334h-319.914667v554.453333h319.914667a10.666667 10.666667 0 0 0 10.666667-10.666667V245.504a10.666667 10.666667 0 0 0-10.666667-10.666667z m-383.914667-0.085334H160.298667a10.666667 10.666667 0 0 0-10.666667 10.666667v533.12c0 5.888 4.778667 10.666667 10.666667 10.666667h319.914666V234.709333z m148.949334 426.624h64a32 32 0 0 1 4.352 63.701334l-4.352 0.298666h-64a32 32 0 0 1-4.352-63.701333l4.352-0.298667h64-64z m-298.538667 0H394.666667a32 32 0 0 1 4.352 63.701334L394.666667 725.333333H330.666667a32 32 0 0 1-4.352-63.701333l4.352-0.298667H394.666667 330.666667z" /></svg>