<svg class="icon" style="width: 1em;height: 1em;vertical-align: middle;fill: currentColor;overflow: hidden;" viewBox="0 0 1024 1024" version="1.1" xmlns="http://www.w3.org/2000/svg"><path d="M427.477333 256.085333a282.965333 282.965333 0 0 0 2.474667 64H160a10.666667 10.666667 0 0 0-10.666667 10.666667v533.077333c0 5.888 4.778667 10.666667 10.666667 10.666667h319.914667l-0.042667-433.792c17.749333 24.32 39.424 45.653333 64 63.104v370.773333h319.914667a10.666667 10.666667 0 0 0 10.666666-10.666666v-367.786667a278.826667 278.826667 0 0 0 64.042667-70.656V864a74.666667 74.666667 0 0 1-74.666667 74.666667h-383.914666l-0.042667-0.128H160A74.666667 74.666667 0 0 1 85.333333 863.829333V330.709333c0-41.216 33.450667-74.666667 74.666667-74.666666h267.477333z m265.386667 490.581334a32 32 0 0 1 4.309333 63.701333L692.906667 810.666667h-64a32 32 0 0 1-4.352-63.701334l4.352-0.298666h64z m-298.496 0a32 32 0 0 1 4.352 63.701333L394.368 810.666667H330.24a32 32 0 0 1-4.352-63.701334l4.352-0.298666h64.085333zM704 42.666667a234.666667 234.666667 0 1 1 0 469.333333 234.666667 234.666667 0 0 1 0-469.333333z m12.458667 108.586666l-3.242667 1.877334-2.986667 2.432-2.432 2.986666a21.333333 21.333333 0 0 0 0 24.234667l2.432 2.986667 70.229334 70.186666L575.744 256l-3.84 0.341333a21.333333 21.333333 0 0 0-17.152 17.152l-0.341333 3.84 0.341333 3.84a21.333333 21.333333 0 0 0 17.152 17.152l3.84 0.341334 204.8-0.042667-70.314667 70.272-2.432 2.986667a21.333333 21.333333 0 0 0 29.653334 29.653333l2.986666-2.432 107.946667-108.074667 1.536-2.133333 1.792-3.413333 1.109333-3.541334 0.426667-2.730666v-3.754667l-0.426667-2.730667-1.109333-3.541333-1.749333-3.413333-1.621334-2.133334-107.946666-108.074666-2.944-2.432a21.333333 21.333333 0 0 0-20.992-1.877334z" /></svg>