<svg class="icon" style="width: 1em;height: 1em;vertical-align: middle;fill: currentColor;overflow: hidden;" viewBox="0 0 1024 1024" version="1.1" xmlns="http://www.w3.org/2000/svg"><path d="M522.666667 384a74.666667 74.666667 0 0 1 74.410666 68.522667l0.256 6.144v362.666666a74.666667 74.666667 0 0 1-68.565333 74.410667L522.666667 896h-362.666667a74.666667 74.666667 0 0 1-74.410667-68.565333L85.333333 821.333333v-362.666666a74.666667 74.666667 0 0 1 68.522667-74.410667L160 384h362.666667zM320 447.957333H160a10.666667 10.666667 0 0 0-10.368 8.277334l-0.298667 2.432v362.666666a10.666667 10.666667 0 0 0 8.234667 10.368l2.432 0.298667H320v-384.042667z m202.666667 0H362.666667V832h160a10.666667 10.666667 0 0 0 10.368-8.234667l0.298666-2.432v-362.666666a10.666667 10.666667 0 0 0-8.234666-10.410667l-2.432-0.256zM453.333333 725.333333a32 32 0 0 1 4.352 63.701334l-4.352 0.298666h-21.333333a32 32 0 0 1-4.352-63.701333l4.352-0.298667h21.333333z m-202.666666 0a32 32 0 0 1 4.352 63.701334l-4.352 0.298666h-21.333334a32 32 0 0 1-4.352-63.701333L229.333333 725.333333h21.333334zM842.666667 128a96 96 0 0 1 95.786666 89.429333L938.666667 224v362.666667a96 96 0 0 1-89.429334 95.786666L842.666667 682.666667H640v-64h202.666667a32 32 0 0 0 31.701333-27.648l0.298667-4.352v-362.666667a32 32 0 0 0-32-32H352a32 32 0 0 0-31.701333 27.648L320 224V341.333333H256V224a96 96 0 0 1 89.429333-95.786667L352 128h490.666667z m-149.333334 384a32 32 0 0 1 0 64H640V512h53.333333z" /></svg>