<svg class="icon" style="width: 1em;height: 1em;vertical-align: middle;fill: currentColor;overflow: hidden;" viewBox="0 0 1024 1024" version="1.1" xmlns="http://www.w3.org/2000/svg"><path d="M354.56 437.248a32 32 0 1 0-47.786667-42.538667l-85.333333 96a32 32 0 0 0 0 42.538667l85.333333 96a32 32 0 1 0 47.786667-42.496l-37.973333-42.752h390.826666l-37.973333 42.752a32 32 0 1 0 47.786667 42.496l85.333333-96 0.426667-0.512a31.872 31.872 0 0 0-0.512-42.112L717.226667 394.709333a32 32 0 1 0-47.786667 42.538667l37.973333 42.752H316.586667l37.973333-42.752zM544.170667 170.709333v0.085334h319.914666c41.216 0 74.666667 33.450667 74.666667 74.666666v533.12a74.666667 74.666667 0 0 1-74.666667 74.666667h-383.914666v-0.085333H160.298667a74.666667 74.666667 0 0 1-74.666667-74.666667V245.376c0-41.258667 33.408-74.666667 74.666667-74.666667h383.872z m319.914666 64.085334h-319.914666V448h-64V234.666667H160.298667a10.666667 10.666667 0 0 0-10.666667 10.666666v533.12c0 5.888 4.778667 10.666667 10.666667 10.666667h319.872V576h64v213.248h319.914666a10.666667 10.666667 0 0 0 10.666667-10.666667V245.504a10.666667 10.666667 0 0 0-10.666667-10.666667z" /></svg>