<svg class="icon" style="width: 1em;height: 1em;vertical-align: middle;fill: currentColor;overflow: hidden;" viewBox="0 0 1024 1024" version="1.1" xmlns="http://www.w3.org/2000/svg"><path d="M543.914667 170.709333l-0.042667 0.085334h319.914667c41.258667 0 74.666667 33.450667 74.666666 74.666666v533.12a74.666667 74.666667 0 0 1-74.666666 74.666667h-383.872l-0.042667-0.085333H160A74.666667 74.666667 0 0 1 85.333333 778.496V245.376c0-41.258667 33.450667-74.666667 74.666667-74.666667h383.914667z m319.872 64.085334h-319.872v554.453333h319.872a10.666667 10.666667 0 0 0 10.666666-10.666667V245.504a10.666667 10.666667 0 0 0-10.666666-10.666667z m-383.872-0.085334H160a10.666667 10.666667 0 0 0-10.666667 10.666667v533.12c0 5.888 4.778667 10.666667 10.666667 10.666667h319.914667V234.709333z m229.418666 426.624a32 32 0 1 1 0 64 32 32 0 0 1 0-64z m106.666667 0a32 32 0 1 1 0 64 32 32 0 0 1 0-64z m-213.333333 0a32 32 0 1 1 0 64 32 32 0 0 1 0-64z" /></svg>