<svg class="icon" style="width: 1em;height: 1em;vertical-align: middle;fill: currentColor;overflow: hidden;" viewBox="0 0 1024 1024" version="1.1" xmlns="http://www.w3.org/2000/svg"><path d="M543.914667 170.709333l-0.042667 0.085334h319.914667c41.258667 0 74.666667 33.450667 74.666666 74.666666v533.12a74.666667 74.666667 0 0 1-74.666666 74.666667h-383.872l-0.042667-0.085333H160A74.666667 74.666667 0 0 1 85.333333 778.496V245.376c0-41.258667 33.450667-74.666667 74.666667-74.666667h383.914667z m330.538666 127.914667h-330.581333v490.666667h319.914667a10.666667 10.666667 0 0 0 10.666666-10.666667V298.581333z m-394.581333 0H149.333333v479.872c0 5.888 4.778667 10.666667 10.666667 10.666667h319.914667L479.872 298.666667z" /></svg>