<svg class="icon" style="width: 1em;height: 1em;vertical-align: middle;fill: currentColor;overflow: hidden;" viewBox="0 0 1024 1024" version="1.1" xmlns="http://www.w3.org/2000/svg"><path d="M543.914667 170.709333l-0.042667 0.085334h319.914667c41.258667 0 74.666667 33.450667 74.666666 74.666666v533.12a74.666667 74.666667 0 0 1-74.666666 74.666667h-383.872l-0.042667-0.085333H160A74.666667 74.666667 0 0 1 85.333333 778.496V245.376c0-41.258667 33.450667-74.666667 74.666667-74.666667h383.914667z m319.872 64.085334h-319.872v554.453333h319.872a10.666667 10.666667 0 0 0 10.666666-10.666667V245.504a10.666667 10.666667 0 0 0-10.666666-10.666667z m-383.872-0.085334H160a10.666667 10.666667 0 0 0-10.666667 10.666667v533.12c0 5.888 4.778667 10.666667 10.666667 10.666667h319.914667V234.709333zM704 298.666667c16.213333 0 29.653333 11.989333 31.786667 27.605333l0.298666 4.309333v285.738667l41.130667-40.917333a32.213333 32.213333 0 0 1 41.813333-3.072l3.584 3.072a31.829333 31.829333 0 0 1 3.072 41.6l-3.072 3.584-95.914666 95.445333-1.621334 1.493333-2.688 2.133334-2.858666 1.706666-2.56 1.28-4.352 1.578667-2.645334 0.597333-3.968 0.512h-4.010666l-3.925334-0.512-4.096-1.024-4.778666-2.005333-3.285334-1.962667-4.608-3.797333-95.914666-95.445333a31.829333 31.829333 0 0 1 0-45.184 32.213333 32.213333 0 0 1 41.813333-3.072l3.584 3.072 41.088 40.96V330.538667a32 32 0 0 1 23.594667-30.805334l4.181333-0.853333L704 298.666667z" /></svg>