<svg class="icon" style="width: 1em;height: 1em;vertical-align: middle;fill: currentColor;overflow: hidden;" viewBox="0 0 1024 1024" version="1.1" xmlns="http://www.w3.org/2000/svg"><path d="M714.666667 255.872a74.666667 74.666667 0 0 1 74.453333 68.565333l0.256 6.101334v405.461333a74.666667 74.666667 0 0 1-68.565333 74.453333l-6.101334 0.213334H309.290667a74.666667 74.666667 0 0 1-74.410667-68.522667l-0.256-6.101333V330.496a74.666667 74.666667 0 0 1 68.565333-74.410667l6.101334-0.256h405.418666z m-224 64H309.333333a10.666667 10.666667 0 0 0-10.410666 8.234667l-0.298667 2.432v405.461333a10.666667 10.666667 0 0 0 8.234667 10.410667l2.432 0.256H490.666667V319.872z m224 0H533.333333V746.666667h181.333334a10.666667 10.666667 0 0 0 10.410666-8.192l0.298667-2.474667V330.538667a10.666667 10.666667 0 0 0-8.234667-10.368l-2.432-0.298667z m-64 320.426667a32 32 0 0 1 4.352 63.744l-4.352 0.256h-42.666667a32 32 0 0 1-4.352-63.701334l4.352-0.256h42.666667z m-234.666667 0a32 32 0 0 1 4.309333 63.744l-4.352 0.256H373.333333a32 32 0 0 1-4.352-63.701334l4.352-0.256h42.666667zM900.906667 343.04l2.56 3.882667 1.92 3.925333 24.832 62.122667a117.333333 117.333333 0 0 1-10.410667 107.306666l-4.650667 6.698667-6.442666 8.576a53.333333 53.333333 0 0 0-8.832 45.994667l1.962666 5.845333 24.874667 62.122667a32 32 0 0 1-57.557333 27.690666l-1.877334-3.925333-24.874666-62.122667a117.333333 117.333333 0 0 1 10.410666-107.306666l4.693334-6.698667 6.442666-8.576a53.333333 53.333333 0 0 0 8.789334-45.994667l-1.92-5.802666-24.874667-62.165334a32 32 0 0 1 54.954667-31.573333z m-748.757334 0l2.56 3.882667 1.92 3.925333 24.874667 62.122667a117.333333 117.333333 0 0 1-10.410667 107.306666l-4.693333 6.698667-6.442667 8.576a53.333333 53.333333 0 0 0-8.789333 45.994667l1.92 5.802666 24.874667 62.165334a32 32 0 0 1-57.557334 27.690666l-1.877333-3.925333-24.832-62.122667a117.333333 117.333333 0 0 1 10.410667-107.306666l4.650666-6.698667 6.442667-8.576a53.333333 53.333333 0 0 0 8.832-45.994667l-1.962667-5.845333-24.874666-62.122667a32 32 0 0 1 54.954666-31.573333z" /></svg>