<svg class="icon" style="width: 1em;height: 1em;vertical-align: middle;fill: currentColor;overflow: hidden;" viewBox="0 0 1024 1024" version="1.1" xmlns="http://www.w3.org/2000/svg"><path d="M732.586667 401.664a32 32 0 0 0-57.216 0l-96 192a32 32 0 0 0 28.586666 46.336h192a32 32 0 0 0 28.672-46.336l-96-192zM659.797333 576l44.245334-88.448 44.202666 88.448h-88.448zM320 384a32 32 0 0 1 28.586667 17.664l96 192A32 32 0 0 1 416 640h-192a32 32 0 0 1-28.629333-46.336l96-192A32 32 0 0 1 319.957333 384z m0 103.552L275.754667 576h88.448L320 487.552zM544.170667 170.709333v0.085334h319.914666c41.216 0 74.666667 33.450667 74.666667 74.666666v533.12a74.666667 74.666667 0 0 1-74.666667 74.666667h-383.914666v-0.085333H160.298667a74.666667 74.666667 0 0 1-74.666667-74.666667V245.376c0-41.258667 33.408-74.666667 74.666667-74.666667h383.872z m319.914666 64.085334h-319.914666v554.453333h319.914666a10.666667 10.666667 0 0 0 10.666667-10.666667V245.504a10.666667 10.666667 0 0 0-10.666667-10.666667z m-383.914666-0.085334H160.298667a10.666667 10.666667 0 0 0-10.666667 10.666667v533.12c0 5.888 4.778667 10.666667 10.666667 10.666667h319.872V234.709333z" /></svg>