<svg class="icon" style="width: 1em;height: 1em;vertical-align: middle;fill: currentColor;overflow: hidden;" viewBox="0 0 1024 1024" version="1.1" xmlns="http://www.w3.org/2000/svg"><path d="M566.613333 126.933333a85.333333 85.333333 0 0 1-61.482666 106.538667l-24.917334 6.144a244.437333 244.437333 0 0 0 0.256 77.098667l23.04 5.546666a85.333333 85.333333 0 0 1 61.866667 107.093334l-7.936 26.965333c18.730667 16.469333 40.106667 29.824 63.317333 39.296l21.034667-22.101333a85.333333 85.333333 0 0 1 123.733333 0l21.290667 22.4a225.365333 225.365333 0 0 0 63.274667-38.954667l-8.448-29.269333a85.333333 85.333333 0 0 1 61.482666-106.496l24.917334-6.144a243.925333 243.925333 0 0 0-0.256-77.141334l-23.04-5.546666a85.333333 85.333333 0 0 1-61.866667-107.093334l7.978667-26.88a225.365333 225.365333 0 0 0-63.36-39.381333l-21.034667 22.144a85.333333 85.333333 0 0 1-123.733333 0l-21.290667-22.442667c-23.168 9.386667-44.501333 22.613333-63.274667 38.954667l8.448 29.269333zM704.128 341.333333c-34.133333 0-61.866667-28.672-61.866667-64 0-35.370667 27.733333-64 61.866667-64 34.133333 0 61.866667 28.629333 61.866667 64 0 35.328-27.733333 64-61.866667 64z m-277.376-64c0-7.168 0.256-14.250667 0.768-21.290666H160A74.666667 74.666667 0 0 0 85.333333 330.709333v533.12c0 41.258667 33.450667 74.666667 74.666667 74.666667h319.957333v0.128h384a74.666667 74.666667 0 0 0 74.666667-74.666667L938.666667 425.472a278.741333 278.741333 0 0 1-64 70.613333l-0.042667 367.829334a10.666667 10.666667 0 0 1-10.666667 10.666666h-320v-370.773333a278.869333 278.869333 0 0 1-64-63.146667v433.834667H160a10.666667 10.666667 0 0 1-10.666667-10.666667V330.709333a10.666667 10.666667 0 0 1 10.666667-10.666666h269.994667a279.04 279.04 0 0 1-3.242667-42.709334z m298.24 501.333334a32 32 0 0 0-32-32h-64l-4.394667 0.298666A32 32 0 0 0 628.992 810.666667h64l4.352-0.298667a32 32 0 0 0 27.690667-31.701333z m-298.538667 0a32 32 0 0 0-32-32H330.282667l-4.309334 0.298666A32 32 0 0 0 330.325333 810.666667h64.085334l4.352-0.298667a32 32 0 0 0 27.690666-31.701333z" /></svg>