<svg class="icon" style="width: 1em;height: 1em;vertical-align: middle;fill: currentColor;overflow: hidden;" viewBox="0 0 1024 1024" version="1.1" xmlns="http://www.w3.org/2000/svg"><path d="M938.666667 277.333333a234.666667 234.666667 0 1 1-469.333334 0 234.666667 234.666667 0 0 1 469.333334 0z m-256-76.501333V405.333333a21.333333 21.333333 0 0 0 42.666666 0V200.832l70.229334 70.272a21.333333 21.333333 0 0 0 30.208-30.208l-106.666667-106.666667a21.333333 21.333333 0 0 0-30.208 0l-106.666667 106.666667a21.333333 21.333333 0 0 0 30.208 30.208L682.666667 200.832zM426.666667 277.333333c0-7.168 0.256-14.250667 0.810666-21.248H160A74.666667 74.666667 0 0 0 85.333333 330.709333v533.077334c0 41.258667 33.450667 74.666667 74.666667 74.666666h319.872V938.666667h383.914667a74.666667 74.666667 0 0 0 74.666666-74.666667l0.042667-438.485333a278.826667 278.826667 0 0 1-64 70.613333v367.872a10.666667 10.666667 0 0 1-10.666667 10.666667h-319.914666v-370.816a278.912 278.912 0 0 1-64.042667-63.146667v433.834667H160a10.666667 10.666667 0 0 1-10.666667-10.666667V330.709333a10.666667 10.666667 0 0 1 10.666667-10.666666h269.952A279.594667 279.594667 0 0 1 426.666667 277.333333z m298.197333 501.333334a32 32 0 0 0-32-32h-64l-4.352 0.298666A32 32 0 0 0 628.864 810.666667h64l4.309333-0.298667a32 32 0 0 0 27.690667-31.701333z m-298.496 0a32 32 0 0 0-32-32H330.24l-4.352 0.298666A32 32 0 0 0 330.282667 810.666667h64.085333l4.352-0.298667a32 32 0 0 0 27.648-31.701333z" /></svg>