<svg class="icon" style="width: 1em;height: 1em;vertical-align: middle;fill: currentColor;overflow: hidden;" viewBox="0 0 1024 1024" version="1.1" xmlns="http://www.w3.org/2000/svg"><path d="M725.333333 213.333333V170.666667a106.666667 106.666667 0 0 1 213.333334 0v42.666666h21.333333A64 64 0 0 1 1024 277.333333v213.333334a64 64 0 0 1-64 64h-256a64 64 0 0 1-64-64v-213.333334A63.872 63.872 0 0 1 704 213.333333h21.333333z m64-42.666666v42.666666h85.333334V170.666667a42.666667 42.666667 0 1 0-85.333334 0z m85.12 209.237333a42.666667 42.666667 0 1 0 0 8.32 42.026667 42.026667 0 0 0 0-8.32zM330.325333 746.666667h64.085334a32 32 0 0 1 4.352 63.701333L394.368 810.666667H330.24a32 32 0 0 1-4.352-63.701334l4.352-0.298666z m213.589334-490.538667h55.552c-1.365333 6.826667-2.090667 13.952-2.090667 21.205333v42.794667h-53.418667v554.453333h319.872a10.666667 10.666667 0 0 0 10.666667-10.666666V597.333333h64v266.581334a74.666667 74.666667 0 0 1-74.666667 74.666666h-383.872l-0.042666-0.085333H160A74.666667 74.666667 0 0 1 85.333333 863.829333V330.709333c0-41.258667 33.450667-74.666667 74.666667-74.666666h383.914667l-0.042667 0.085333z m-64 63.914667H160a10.666667 10.666667 0 0 0-10.666667 10.666666v533.12c0 5.888 4.778667 10.666667 10.666667 10.666667h319.914667V320.042667zM628.906667 746.666667h64a32 32 0 0 1 4.309333 63.701333L692.906667 810.666667h-64a32 32 0 0 1-4.352-63.701334l4.352-0.298666z" /></svg>