<svg class="icon" style="width: 1em;height: 1em;vertical-align: middle;fill: currentColor;overflow: hidden;" viewBox="0 0 1024 1024" version="1.1" xmlns="http://www.w3.org/2000/svg"><path d="M427.477333 256.085333a282.965333 282.965333 0 0 0 2.474667 64H160a10.666667 10.666667 0 0 0-10.666667 10.666667v533.077333c0 5.888 4.778667 10.666667 10.666667 10.666667h319.914667l-0.042667-433.792c17.749333 24.32 39.424 45.653333 64 63.104v370.773333h319.914667a10.666667 10.666667 0 0 0 10.666666-10.666666v-367.786667a278.826667 278.826667 0 0 0 64.042667-70.656V864a74.666667 74.666667 0 0 1-74.666667 74.666667h-383.914666l-0.042667-0.128H160A74.666667 74.666667 0 0 1 85.333333 863.829333V330.709333c0-41.216 33.450667-74.666667 74.666667-74.666666h267.477333z m265.386667 490.581334a32 32 0 0 1 4.309333 63.701333L692.906667 810.666667h-64a32 32 0 0 1-4.352-63.701334l4.352-0.298666h64z m-298.496 0a32 32 0 0 1 4.352 63.701333L394.368 810.666667H330.24a32 32 0 0 1-4.352-63.701334l4.352-0.298666h64.085333zM703.914667 42.666667a234.666667 234.666667 0 1 1 0 469.333333 234.666667 234.666667 0 0 1 0-469.333333z m-42.666667 85.333333a21.333333 21.333333 0 0 0-21.333333 21.333333v170.666667a21.333333 21.333333 0 0 0 21.333333 21.333333h128.042667a21.333333 21.333333 0 0 0 0-42.666666h-106.709334V149.333333a21.333333 21.333333 0 0 0-21.333333-21.333333z" /></svg>