<svg class="icon" style="width: 1em;height: 1em;vertical-align: middle;fill: currentColor;overflow: hidden;" viewBox="0 0 1024 1024" version="1.1" xmlns="http://www.w3.org/2000/svg"><path d="M703.957333 85.333333h0.085334A171.093333 171.093333 0 0 1 874.666667 255.957333v107.52l59.050666 70.826667A21.333333 21.333333 0 0 1 917.333333 469.333333h-426.666666a21.333333 21.333333 0 0 1-16.384-34.986666L533.333333 363.477333v-107.52A171.093333 171.093333 0 0 1 703.957333 85.333333zM245.333333 213.333333h249.728a214.016 214.016 0 0 0-4.394666 42.496V277.333333h-213.333334v554.666667h352a32 32 0 0 0 32-32v-209.92a127.872 127.872 0 0 0 64 5.504v204.416A96 96 0 0 1 629.333333 896h-384a32 32 0 0 1-32-32V245.333333A32 32 0 0 1 245.333333 213.333333z m416.170667 329.898667a84.650667 84.650667 0 0 1-31.018667-31.232h147.029334a84.650667 84.650667 0 0 1-116.010667 31.232z" /></svg>