<svg class="icon" style="width: 1em;height: 1em;vertical-align: middle;fill: currentColor;overflow: hidden;" viewBox="0 0 1024 1024" version="1.1" xmlns="http://www.w3.org/2000/svg"><path d="M758.058667 332.928a32 32 0 0 1-45.226667 45.226667l-66.986667-66.986667a32 32 0 0 1 45.226667-45.226667l66.986667 66.986667z m-357.205334 402.474667a32 32 0 0 0 0-45.269334l-66.986666-66.986666a32 32 0 1 0-45.226667 45.226666l66.986667 66.986667a32 32 0 0 0 45.226666 0zM893.354667 131.584a82.816 82.816 0 0 0-117.12 0l-28.629334 28.629333-8.832-8.832a102.954667 102.954667 0 0 0-156.245333 12.416 125.269333 125.269333 0 0 0-111.488 211.754667l30.634667 30.634667-95.573334 95.530666-30.592-30.634666a125.269333 125.269333 0 0 0-211.754666 111.488 102.954667 102.954667 0 0 0-12.416 156.202666l8.832 8.874667-29.525334 29.525333a82.816 82.816 0 1 0 117.162667 117.12l29.525333-29.525333 8.832 8.832a102.954667 102.954667 0 0 0 156.202667-12.373333 125.269333 125.269333 0 0 0 111.488-211.754667l-30.592-30.634667 95.573333-95.573333 30.549334 30.634667a125.269333 125.269333 0 0 0 211.754666-111.488 102.954667 102.954667 0 0 0 12.416-156.202667l-8.832-8.832 28.629334-28.629333a82.816 82.816 0 0 0 0-117.162667zM819.498667 232.106667l-26.624-26.624 28.586666-28.586667a18.816 18.816 0 0 1 26.666667 26.581333l-28.629333 28.629334z m-245.930667 245.930666l-95.573333 95.573334-26.624-26.666667 95.573333-95.530667 26.581333 26.624z m-341.504 341.461334l-29.525333 29.568a18.816 18.816 0 1 1-26.624-26.624l29.525333-29.525334 26.624 26.581334zM638.421333 196.693333a38.954667 38.954667 0 0 1 55.082667 0l134.826667 134.826667a38.954667 38.954667 0 0 1-15.445334 64.554667 32 32 0 0 0-19.2 43.733333 61.312 61.312 0 0 1-99.029333 68.864l-178.346667-178.346667a61.269333 61.269333 0 0 1 68.864-99.029333 32 32 0 0 0 43.733334-19.2 38.656 38.656 0 0 1 9.514666-15.402667zM243.626667 516.352c23.893333-23.893333 62.72-23.893333 86.613333 0l178.346667 178.346667a61.269333 61.269333 0 0 1-68.821334 99.072 32 32 0 0 0-43.776 19.2 38.954667 38.954667 0 0 1-64.597333 15.402666l-134.826667-134.826666a38.954667 38.954667 0 0 1 15.445334-64.597334 32 32 0 0 0 19.2-43.733333 61.312 61.312 0 0 1 12.373333-68.864z" /></svg>