<svg class="icon" style="width: 1em;height: 1em;vertical-align: middle;fill: currentColor;overflow: hidden;" viewBox="0 0 1024 1024" version="1.1" xmlns="http://www.w3.org/2000/svg"><path d="M467.029333 87.338667l0.213334 0.298666C481.962667 86.101333 496.896 85.333333 512 85.333333c235.605333 0 426.666667 191.018667 426.666667 426.666667s-191.061333 426.666667-426.666667 426.666667a425.941333 425.941333 0 0 1-336.896-164.778667h-0.128v-0.128A424.832 424.832 0 0 1 85.333333 512c0-220.245333 166.869333-401.493333 381.098667-424.277333l0.597333-0.384zM512 149.333333l-6.826667 0.042667c5.248 10.453333 10.88 22.741333 15.957334 36.266667 14.805333 39.381333 28.416 97.365333 4.266666 148.778666-22.272 47.488-60.757333 59.733333-89.173333 67.114667l-3.584 0.896c-28.032 7.253333-38.826667 10.026667-46.634667 21.930667-7.253333 10.965333-6.144 24.832 2.602667 53.333333l1.962667 6.314667c3.498667 11.008 7.68 24.32 9.813333 36.821333 2.730667 15.530667 3.498667 35.285333-6.485333 54.4a93.312 93.312 0 0 1-38.4 40.32c-14.549333 7.893333-29.610667 10.922667-40.874667 12.885333l-3.968 0.725334c-21.973333 3.84-32.469333 5.717333-42.666667 16.64-7.978667 8.533333-13.098667 23.594667-16.085333 46.037333-1.237333 9.130667-1.962667 18.218667-2.730667 27.562667l-0.426666 4.992c-0.853333 10.325333-1.877333 22.229333-4.224 32.426666v0.085334a361.728 361.728 0 0 0 267.52 117.76c67.242667 0 130.261333-18.346667 184.277333-50.261334a190.72 190.72 0 0 1-13.226667-14.933333c-14.506667-18.261333-33.536-49.664-26.922666-86.741333 3.157333-17.834667 12.714667-32.768 21.973333-44.202667a303.786667 303.786667 0 0 1 30.72-31.573333l6.741333-6.229334c7.637333-6.954667 14.08-12.842667 19.626667-18.645333 7.338667-7.68 8.96-11.178667 9.045333-11.392 2.901333-9.557333-0.64-16.384-4.522666-19.370667a12.970667 12.970667 0 0 0-8.106667-2.602666c-3.584 0-9.386667 1.024-17.109333 5.973333a38.912 38.912 0 0 1-35.669334 3.626667 43.733333 43.733333 0 0 1-20.736-18.432c-6.144-10.112-9.6-23.296-11.861333-32.938667-1.706667-7.424-3.413333-15.872-4.906667-23.594667l-1.706666-8.789333a176.085333 176.085333 0 0 0-5.717334-23.04l-0.853333-1.578667a64.298667 64.298667 0 0 0-2.730667-4.48 265.941333 265.941333 0 0 0-9.685333-13.525333l-4.693333-6.101333a541.269333 541.269333 0 0 1-22.016-30.378667c-8.362667-12.714667-17.792-29.354667-20.778667-47.104a62.293333 62.293333 0 0 1 2.346667-31.317333c4.010667-11.264 11.306667-20.565333 20.778666-27.690667 20.608-15.445333 50.901333-50.005333 77.781334-83.584 12.288-15.317333 23.210667-29.653333 31.402666-40.533333A360.96 360.96 0 0 0 512 149.333333z m244.352 94.72c-8.405333 11.221333-19.669333 25.941333-32.298667 41.728-25.685333 32.042667-59.733333 71.893333-87.466666 93.312 1.109333 4.266667 4.266667 11.178667 10.88 21.248 5.589333 8.533333 11.989333 16.896 18.773333 25.770667l5.504 7.253333c7.338667 9.770667 17.536 23.381333 22.186667 36.010667 3.712 9.984 6.357333 22.144 8.448 32.512l2.090666 10.496c1.066667 5.546667 2.090667 10.794667 3.2 15.786667 25.642667-7.338667 51.242667-2.901333 71.253334 12.544 25.941333 20.053333 36.778667 54.869333 26.624 88.490666-4.693333 15.445333-15.530667 28.16-24.021334 37.077334-7.253333 7.552-15.872 15.445333-23.722666 22.613333l-5.632 5.12c-9.813333 9.045333-18.048 17.066667-24.234667 24.704-6.314667 7.850667-8.32 12.757333-8.746667 15.189333-1.706667 9.344 2.858667 21.76 13.994667 35.754667a133.888 133.888 0 0 0 15.957333 16.725333A361.813333 361.813333 0 0 0 874.666667 512a361.728 361.728 0 0 0-118.314667-267.946667zM149.333333 512c0 59.648 14.421333 115.968 39.936 165.589333 3.626667-23.765333 11.178667-53.248 31.914667-75.434666 25.6-27.392 56.96-32.554667 76.714667-35.797334l5.546666-0.896c10.581333-1.877333 16.682667-3.541333 21.418667-6.101333 3.754667-2.090667 8.021333-5.461333 12.288-13.696 0.64-1.194667 1.792-4.565333 0.170667-13.866667a223.402667 223.402667 0 0 0-7.338667-27.136c-0.853333-2.56-1.706667-5.333333-2.56-8.192-7.893333-25.770667-20.48-68.352 5.12-107.306666 22.272-33.792 58.026667-42.410667 80.768-47.914667l6.912-1.706667c24.021333-6.186667 37.674667-11.946667 47.274667-32.341333 12.586667-26.837333 7.168-63.36-6.229334-98.986667a324.906667 324.906667 0 0 0-24.746666-51.029333A362.794667 362.794667 0 0 0 149.418667 512z" /></svg>