<svg class="icon" style="width: 1em;height: 1em;vertical-align: middle;fill: currentColor;overflow: hidden;" viewBox="0 0 1024 1024" version="1.1" xmlns="http://www.w3.org/2000/svg"><path d="M381.44 426.666667L94.72 139.946667a32 32 0 1 1 45.226667-45.226667l789.333333 789.333333a32 32 0 0 1-45.226667 45.226667L597.333333 642.645333l-210.688 210.688a96 96 0 0 1-42.624 24.746667l-218.282666 59.52a32 32 0 0 1-39.253334-39.296l59.52-218.282667a96 96 0 0 1 24.746667-42.624L381.354667 426.666667z m170.666667 170.666666L426.666667 471.936l-210.688 210.688a32 32 0 0 0-8.234667 14.208l-44.8 164.266667 164.266667-44.8A32 32 0 0 0 341.333333 808.021333L552.106667 597.333333zM765.44 384l-122.88 122.88 45.226667 45.226667 209.493333-209.493334a152.661333 152.661333 0 1 0-215.893333-215.893333l-209.493334 209.493333 45.226667 45.226667L640 258.56 765.44 384z m-38.826667-212.053333a88.704 88.704 0 0 1 125.44 125.44l-41.386666 41.386666L685.226667 213.333333l41.386666-41.386666z" /></svg>