<svg class="icon" style="width: 1em;height: 1em;vertical-align: middle;fill: currentColor;overflow: hidden;" viewBox="0 0 1024 1024" version="1.1" xmlns="http://www.w3.org/2000/svg"><path d="M897.28 126.72a152.661333 152.661333 0 0 1 0 215.893333L386.645333 853.333333a96 96 0 0 1-42.624 24.746667l-218.282666 59.52a32 32 0 0 1-39.253334-39.296l59.52-218.282667a96 96 0 0 1 24.746667-42.624L681.386667 126.72a152.661333 152.661333 0 0 1 215.893333 0zM640 258.56L215.978667 682.666667a32 32 0 0 0-8.234667 14.208l-44.8 164.266666 164.266667-44.8A32 32 0 0 0 341.333333 808.021333L765.44 384 640 258.56z m86.613333-86.613333l-41.386666 41.386666L810.666667 338.773333l41.386666-41.386666a88.704 88.704 0 0 0-125.44-125.44z" /></svg>