<svg class="icon" style="width: 1em;height: 1em;vertical-align: middle;fill: currentColor;overflow: hidden;" viewBox="0 0 1024 1024" version="1.1" xmlns="http://www.w3.org/2000/svg"><path d="M897.322667 126.72a152.704 152.704 0 0 1 0 215.893333l-127.658667 127.658667a280.106667 280.106667 0 0 0-100.608 10.069333L765.44 384 640.042667 258.56 216.021333 682.666667a32 32 0 0 0-8.234666 14.165333l-44.8 164.266667 164.266666-44.8a32 32 0 0 0 14.165334-8.234667l138.965333-138.965333a277.376 277.376 0 0 0-10.069333 100.565333l-83.626667 83.626667a96 96 0 0 1-42.666667 24.746666l-218.24 59.52a32 32 0 0 1-39.253333-39.253333l59.477333-218.282667a96 96 0 0 1 24.746667-42.666666L681.386667 126.72a152.661333 152.661333 0 0 1 215.936 0z m-170.666667 45.226667l-41.386667 41.386666L810.666667 338.773333l41.386666-41.386666a88.661333 88.661333 0 1 0-125.397333-125.44z m-117.418667 424.32a85.333333 85.333333 0 0 1-61.482666 106.538666l-24.917334 6.144a244.437333 244.437333 0 0 0 0.256 77.098667l23.04 5.546667a85.333333 85.333333 0 0 1 61.866667 107.093333l-7.978667 26.965333c18.773333 16.469333 40.106667 29.824 63.317334 39.296l21.077333-22.101333a85.333333 85.333333 0 0 1 123.690667 0l21.248 22.4a225.28 225.28 0 0 0 63.274666-38.954667l-8.448-29.269333a85.333333 85.333333 0 0 1 61.525334-106.496l24.874666-6.144a244.437333 244.437333 0 0 0-0.256-77.141333l-23.04-5.546667a85.333333 85.333333 0 0 1-61.866666-107.093333l7.978666-26.88a225.28 225.28 0 0 0-63.317333-39.381334l-21.034667 22.144a85.333333 85.333333 0 0 1-123.733333 0l-21.248-22.4c-23.210667 9.386667-44.544 22.613333-63.274667 38.912l8.448 29.269334zM746.709333 810.666667c-34.133333 0-61.866667-28.672-61.866666-64 0-35.370667 27.733333-64 61.866666-64 34.133333 0 61.866667 28.629333 61.866667 64 0 35.328-27.733333 64-61.866667 64z" /></svg>