<svg class="icon" style="width: 1em;height: 1em;vertical-align: middle;fill: currentColor;overflow: hidden;" viewBox="0 0 1024 1024" version="1.1" xmlns="http://www.w3.org/2000/svg"><path d="M288 512a32 32 0 0 0-31.914667 34.901333C268.032 678.058667 364.885333 789.333333 512 789.333333c147.114667 0 243.925333-111.274667 255.914667-242.432A32 32 0 0 0 736 512H287.957333zM512 725.333333c-96.298667 0-165.162667-63.146667-186.368-149.333333h372.736C677.205333 662.186667 608.341333 725.333333 512 725.333333zM650.666667 373.333333c-17.408 0-30.293333 12.245333-32.341334 26.026667a32 32 0 1 1-63.317333-9.386667c6.912-46.506667 47.914667-80.64 95.658667-80.64s88.746667 34.133333 95.658666 80.64a32 32 0 1 1-63.317333 9.386667c-2.048-13.781333-14.933333-26.026667-32.341333-26.026667zM340.992 399.36c2.048-13.781333 14.933333-26.026667 32.341333-26.026667 17.450667 0 30.293333 12.245333 32.341334 26.026667a32 32 0 1 0 63.317333-9.386667c-6.869333-46.506667-47.914667-80.64-95.658667-80.64s-88.746667 34.133333-95.658666 80.64a32 32 0 0 0 63.317333 9.386667zM512 85.333333C276.352 85.333333 85.333333 276.352 85.333333 512s191.018667 426.666667 426.666667 426.666667 426.666667-191.018667 426.666667-426.666667S747.648 85.333333 512 85.333333zM149.333333 512a362.666667 362.666667 0 1 1 725.333334 0 362.666667 362.666667 0 0 1-725.333334 0z" /></svg>