<svg class="icon" style="width: 1em;height: 1em;vertical-align: middle;fill: currentColor;overflow: hidden;" viewBox="0 0 1024 1024" version="1.1" xmlns="http://www.w3.org/2000/svg"><path d="M437.333333 426.666667a53.333333 53.333333 0 1 0-106.666666 0 53.333333 53.333333 0 0 0 106.666666 0z m256 0a53.333333 53.333333 0 1 0-106.666666 0 53.333333 53.333333 0 0 0 106.666666 0z m-260.864 217.898666a32 32 0 1 0-32.938666 54.869334c32.725333 19.626667 73.386667 28.586667 112.469333 28.586666 39.04 0 79.744-8.96 112.469333-28.586666a32 32 0 0 0-32.938666-54.869334c-20.608 12.373333-49.28 19.456-79.530667 19.456-30.293333 0-58.922667-7.082667-79.530667-19.456zM938.666667 512.042667c0-235.690667-191.061333-426.752-426.709334-426.752-235.690667 0-426.752 191.061333-426.752 426.752 0 235.648 191.061333 426.709333 426.752 426.709333C747.648 938.752 938.666667 747.690667 938.666667 512.042667zM149.248 512a362.752 362.752 0 1 1 725.461333 0 362.752 362.752 0 0 1-725.461333 0z" /></svg>