<svg class="icon" style="width: 1em;height: 1em;vertical-align: middle;fill: currentColor;overflow: hidden;" viewBox="0 0 1024 1024" version="1.1" xmlns="http://www.w3.org/2000/svg"><path d="M512 85.546667c235.648 0 426.666667 191.018667 426.666667 426.666666s-191.018667 426.666667-426.666667 426.666667-426.666667-191.018667-426.666667-426.666667 191.018667-426.666667 426.666667-426.666666z m0 64a362.666667 362.666667 0 1 0 0 725.333333 362.666667 362.666667 0 0 0 0-725.333333z m0 426.368c69.589333 0 134.826667 27.946667 182.656 76.629333a32 32 0 1 1-45.653333 44.842667A191.36 191.36 0 0 0 512 639.914667a191.36 191.36 0 0 0-137.258667 57.728 32 32 0 1 1-45.696-44.8A255.36 255.36 0 0 1 512 575.914667zM305.664 289.365333a32 32 0 0 1 41.088-7.68l3.925333 2.688 106.666667 85.333334a32 32 0 0 1-20.053333 56.96 53.333333 53.333333 0 1 1-73.045334-49.493334L310.613333 334.336a32 32 0 0 1-4.992-44.970667z m261.077333 80.341334l106.581334-85.333334a32 32 0 0 1 43.52 46.72l-3.498667 3.242667-53.589333 42.837333a53.333333 53.333333 0 1 1-72.746667 54.954667l-0.298667-5.546667a32 32 0 0 1-23.466666-53.674666l3.498666-3.2 106.581334-85.333334-106.581334 85.333334z" /></svg>