<svg class="icon" style="width: 1em;height: 1em;vertical-align: middle;fill: currentColor;overflow: hidden;" viewBox="0 0 1024 1024" version="1.1" xmlns="http://www.w3.org/2000/svg"><path d="M362.666667 85.333333a277.461333 277.461333 0 0 1 269.312 210.901334c-21.973333 0.426667-43.52 2.901333-64.256 7.296a213.333333 213.333333 0 1 0-264.149334 264.149333 343.594667 343.594667 0 0 0-7.338666 64.298667A277.333333 277.333333 0 0 1 362.666667 85.333333z m6.826666 341.589334c15.146667-19.242667 32.384-36.864 51.285334-52.48a149.333333 149.333333 0 0 0-171.605334 40.533333 32 32 0 1 0 48.64 41.557333 85.333333 85.333333 0 0 1 71.68-29.610666zM320 277.333333a42.666667 42.666667 0 1 1-85.333333 0 42.666667 42.666667 0 0 1 85.333333 0z m170.666667 0a42.666667 42.666667 0 1 1-85.333334 0 42.666667 42.666667 0 0 1 85.333334 0z m42.666666 341.333334a42.666667 42.666667 0 1 0 0-85.333334 42.666667 42.666667 0 0 0 0 85.333334z m232.874667 87.125333a32 32 0 0 1 3.498667 45.141333 170.666667 170.666667 0 0 1-259.2 0.213334 32 32 0 0 1 48.554666-41.685334 106.624 106.624 0 0 0 162.005334-0.128 32 32 0 0 1 45.141333-3.541333zM746.666667 618.666667a42.666667 42.666667 0 1 0 0-85.333334 42.666667 42.666667 0 0 0 0 85.333334zM640 938.666667a298.666667 298.666667 0 1 0 0-597.333334 298.666667 298.666667 0 0 0 0 597.333334z m0-64a234.666667 234.666667 0 1 1 0-469.333334 234.666667 234.666667 0 0 1 0 469.333334z" /></svg>