<svg class="icon" style="width: 1em;height: 1em;vertical-align: middle;fill: currentColor;overflow: hidden;" viewBox="0 0 1024 1024" version="1.1" xmlns="http://www.w3.org/2000/svg"><path d="M437.333333 426.666667a53.333333 53.333333 0 1 0-106.666666 0 53.333333 53.333333 0 0 0 106.666666 0z m256 0a53.333333 53.333333 0 1 0-106.666666 0 53.333333 53.333333 0 0 0 106.666666 0z m-21.333333 170.666666c-36.266667 0-74.965333 9.130667-108.458667 22.186667-33.109333 12.885333-64.554667 30.890667-84.864 51.2a32 32 0 1 0 45.226667 45.226667c11.733333-11.690667 34.304-25.685333 62.848-36.778667 28.16-10.965333 58.88-17.834667 85.248-17.834667h25.6a32 32 0 0 0 0-64h-25.6zM938.666667 512C938.709333 276.394667 747.648 85.333333 512 85.333333c-235.690667 0-426.752 191.061333-426.752 426.752 0 235.648 191.061333 426.709333 426.752 426.709334C747.648 938.752 938.666667 747.690667 938.666667 512.042667zM149.248 512a362.752 362.752 0 1 1 725.461333 0 362.752 362.752 0 0 1-725.461333 0z" /></svg>