<svg class="icon" style="width: 1em;height: 1em;vertical-align: middle;fill: currentColor;overflow: hidden;" viewBox="0 0 1024 1024" version="1.1" xmlns="http://www.w3.org/2000/svg"><path d="M394.026667 77.738667c6.784-2.005333 14.08-3.072 21.973333-3.072 46.762667 0 74.496 38.4 74.496 74.666666v156.714667c12.458667-4.309333 26.88-7.338667 43.008-7.338667C593.152 298.666667 640 342.613333 640 405.333333a32 32 0 0 1-13.354667 26.026667l-73.301333 52.437333-40.704 35.498667a480 480 0 0 0-72.96 79.786667l-25.6 35.2A117.333333 117.333333 0 0 1 319.232 682.666667H249.173333a112.768 112.768 0 0 1-98.304-55.936 883.157333 883.157333 0 0 1-41.685333-81.152C97.024 517.802667 85.333333 485.290667 85.333333 458.666667v-256C85.333333 166.229333 113.408 128 160 128c4.693333 0 9.216 0.426667 13.482667 1.109333 8.234667-29.056 33.834667-54.442667 71.850666-54.442666 7.765333 0 15.104 1.109333 21.930667 3.114666A72.576 72.576 0 0 1 330.666667 42.666667c29.141333 0 51.029333 14.933333 63.36 35.072zM322.986667 109.653333a11.562667 11.562667 0 0 0-2.944 7.594667V309.333333a32 32 0 0 1-64 0V147.114667a9.301333 9.301333 0 0 0-2.474667-5.248 10.538667 10.538667 0 0 0-8.192-3.2c-4.053333 0-6.272 1.408-7.68 2.986666a11.690667 11.690667 0 0 0-2.986667 7.68v181.333334a32 32 0 0 1-64 0v-128a11.690667 11.690667 0 0 0-2.986666-7.68c-1.450667-1.578667-3.669333-2.986667-7.68-2.986667s-6.229333 1.408-7.68 2.986667a11.690667 11.690667 0 0 0-2.986667 7.68v256c0 11.946667 6.357333 33.493333 18.474667 61.141333 11.52 26.24 26.24 53.546667 38.613333 75.050667 8.362667 14.592 24.490667 23.808 42.837333 23.808H319.146667c17.066667 0 33.109333-8.192 43.136-22.016l25.514666-35.157334a544 544 0 0 1 82.730667-90.453333l41.898667-36.48a33.408 33.408 0 0 1 2.389333-1.92l59.008-42.24c-5.290667-17.408-20.309333-27.733333-40.362667-27.733333-27.178667 0-46.506667 17.066667-52.992 22.826666l-1.28 1.109334a32 32 0 0 1-52.736-24.362667V149.333333a11.818667 11.818667 0 0 0-2.986666-7.722666c-1.365333-1.578667-3.498667-2.944-7.509334-2.944-4.053333 0-6.272 1.408-7.68 2.986666a11.648 11.648 0 0 0-2.986666 7.68v160a32 32 0 0 1-64 0V117.248a11.562667 11.562667 0 0 0-2.986667-7.594667c-1.450667-1.578667-3.669333-2.986667-7.68-2.986666s-6.229333 1.408-7.68 2.986666zM554.666667 640a42.666667 42.666667 0 1 0 0-85.333333 42.666667 42.666667 0 0 0 0 85.333333zM725.333333 640a42.666667 42.666667 0 1 0 0-85.333333 42.666667 42.666667 0 0 0 0 85.333333zM640 938.666667a298.794667 298.794667 0 0 1-287.317333-216.874667 160.085333 160.085333 0 0 0 59.306666-26.112 234.666667 234.666667 0 1 0 270.592-286.464L682.666667 405.333333c0-22.741333-4.565333-43.818667-12.8-62.506666A298.666667 298.666667 0 0 1 640 938.666667zM563.114667 713.941333a32 32 0 0 0-46.122667 44.373334A170.24 170.24 0 0 0 640 810.666667a170.24 170.24 0 0 0 123.008-52.352 32 32 0 1 0-46.122667-44.373334A106.24 106.24 0 0 1 640 746.666667a106.24 106.24 0 0 1-76.885333-32.725334z" /></svg>