<svg class="icon" style="width: 1em;height: 1em;vertical-align: middle;fill: currentColor;overflow: hidden;" viewBox="0 0 1024 1024" version="1.1" xmlns="http://www.w3.org/2000/svg"><path d="M384 373.376a53.333333 53.333333 0 1 1 0 106.624A53.333333 53.333333 0 0 1 384 373.333333zM640 373.376a53.333333 53.333333 0 1 1 0 106.624 53.333333 53.333333 0 0 1 0-106.624zM352 640a32 32 0 0 0 0 64h320a32 32 0 0 0 0-64h-320zM85.333333 512C85.333333 276.352 276.352 85.333333 512 85.333333s426.666667 191.018667 426.666667 426.666667-191.018667 426.666667-426.666667 426.666667S85.333333 747.648 85.333333 512z m426.666667-362.666667a362.666667 362.666667 0 1 0 0 725.333334 362.666667 362.666667 0 0 0 0-725.333334z" /></svg>