<svg class="icon" style="width: 1em;height: 1em;vertical-align: middle;fill: currentColor;overflow: hidden;" viewBox="0 0 1024 1024" version="1.1" xmlns="http://www.w3.org/2000/svg"><path d="M512 85.290667c235.690667 0 426.752 191.061333 426.752 426.752 0 235.648-191.061333 426.709333-426.752 426.709333-235.690667 0-426.752-191.061333-426.752-426.709333C85.248 276.352 276.309333 85.290667 512 85.290667z m0 64a362.752 362.752 0 1 0 0 725.461333A362.752 362.752 0 0 0 512 149.333333zM361.045333 630.784A191.616 191.616 0 0 0 512 704.085333a191.658667 191.658667 0 0 0 150.826667-73.130666 32 32 0 1 1 50.218666 39.68A255.616 255.616 0 0 1 512 768.085333a255.616 255.616 0 0 1-201.216-97.706666 32 32 0 0 1 50.261333-39.594667zM384 373.333333a53.333333 53.333333 0 1 1 0 106.624A53.333333 53.333333 0 0 1 384 373.333333z m256 0a53.333333 53.333333 0 1 1 0 106.624 53.333333 53.333333 0 0 1 0-106.624z" /></svg>