<svg class="icon" style="width: 1em;height: 1em;vertical-align: middle;fill: currentColor;overflow: hidden;" viewBox="0 0 1024 1024" version="1.1" xmlns="http://www.w3.org/2000/svg"><path d="M512 85.290667c235.690667 0 426.752 191.061333 426.752 426.752 0 235.648-191.061333 426.709333-426.752 426.709333-235.690667 0-426.752-191.061333-426.752-426.709333C85.248 276.352 276.309333 85.290667 512 85.290667z m0 64a362.752 362.752 0 1 0 0 725.461333A362.752 362.752 0 0 0 512 149.333333z m0 426.624c69.589333 0 134.826667 27.946667 182.656 76.629333a32 32 0 0 1-45.653333 44.8A191.36 191.36 0 0 0 512 639.957333a191.36 191.36 0 0 0-137.216 57.685334 32 32 0 1 1-45.738667-44.8A255.36 255.36 0 0 1 512 575.957333zM384 373.376a53.333333 53.333333 0 1 1 0 106.624A53.333333 53.333333 0 0 1 384 373.333333z m256 0a53.333333 53.333333 0 1 1 0 106.624 53.333333 53.333333 0 0 1 0-106.624z" /></svg>