<svg class="icon" style="width: 1em;height: 1em;vertical-align: middle;fill: currentColor;overflow: hidden;" viewBox="0 0 1024 1024" version="1.1" xmlns="http://www.w3.org/2000/svg"><path d="M512 85.546667c235.648 0 426.666667 191.018667 426.666667 426.666666s-191.018667 426.666667-426.666667 426.666667-426.666667-191.018667-426.666667-426.666667 191.018667-426.666667 426.666667-426.666666z m0 64a362.666667 362.666667 0 1 0 0 725.333333 362.666667 362.666667 0 0 0 0-725.333333zM512 554.666667a96 96 0 1 1 0 192 96 96 0 0 1 0-192zM384 373.376a53.333333 53.333333 0 1 1 0 106.624A53.333333 53.333333 0 0 1 384 373.333333z m256 0a53.333333 53.333333 0 1 1 0 106.624 53.333333 53.333333 0 0 1 0-106.624z" /></svg>