<svg class="icon" style="width: 1em;height: 1em;vertical-align: middle;fill: currentColor;overflow: hidden;" viewBox="0 0 1024 1024" version="1.1" xmlns="http://www.w3.org/2000/svg"><path d="M416 384a32 32 0 0 1 32 32v106.666667c0 29.44 23.893333 53.333333 53.333333 53.333333h32V416a32 32 0 0 1 64 0v160h181.333334a32 32 0 0 1 0 64h-277.333334A117.333333 117.333333 0 0 1 384 522.666667v-106.666667A32 32 0 0 1 416 384z m0-256a32 32 0 0 1 32 32V213.333333h85.333333V160a32 32 0 0 1 64 0V213.333333h117.333334a32 32 0 0 1 29.696 20.096l34.645333 86.570667h42.325333A117.333333 117.333333 0 0 1 938.666667 437.333333v234.666667a117.333333 117.333333 0 0 1-117.333334 117.333333h-42.325333l-34.645333 86.570667a32 32 0 0 1-29.696 20.096h-320a32 32 0 0 1-23.381334-10.154667L244.906667 750.421333A117.333333 117.333333 0 0 1 213.333333 670.378667V533.333333H149.333333v160a32 32 0 0 1-64 0v-362.666666a32 32 0 0 1 64 0V469.333333H213.333333V330.666667A117.333333 117.333333 0 0 1 330.666667 213.333333H384V160A32 32 0 0 1 416 128z m-85.333333 149.333333c-29.44 0-53.333333 23.893333-53.333334 53.333334v339.712c0 13.482667 5.12 26.496 14.336 36.394666l116.906667 125.226667h284.416l34.645333-86.570667A32 32 0 0 1 757.333333 725.333333h64c29.44 0 53.333333-23.893333 53.333334-53.333333v-234.666667c0-29.44-23.893333-53.333333-53.333334-53.333333h-64a32 32 0 0 1-29.696-20.096L692.992 277.333333H330.666667z" /></svg>