<svg class="icon" style="width: 1em;height: 1em;vertical-align: middle;fill: currentColor;overflow: hidden;" viewBox="0 0 1024 1024" version="1.1" xmlns="http://www.w3.org/2000/svg"><path d="M139.946667 94.72a32 32 0 1 0-45.226667 45.226667L296.106667 341.333333H160a32 32 0 0 0 0 64h200.106667l213.333333 213.333334H160a32 32 0 0 0 0 64h477.44l246.613333 246.613333a32 32 0 0 0 45.226667-45.226667L139.946667 94.72zM864 618.666667h-109.568l64 64h45.568a32 32 0 0 0 0-64zM477.098667 341.333333l64 64h322.901333a32 32 0 0 0 0-64h-386.901333z" /></svg>