<svg class="icon" style="width: 1em;height: 1em;vertical-align: middle;fill: currentColor;overflow: hidden;" viewBox="0 0 1024 1024" version="1.1" xmlns="http://www.w3.org/2000/svg"><path d="M675.882667 113.536a96 96 0 0 0-136.106667-0.981333l-409.514667 405.674666a96 96 0 0 0 0.298667 136.704l217.557333 213.674667a95.744 95.744 0 0 0 72.106667 27.392h267.306667a106.709333 106.709333 0 1 0 0-64h-168.661334l366.208-370.048a96 96 0 0 0 0.298667-134.741333l-209.493333-213.674667zM416 832v0.085333a31.914667 31.914667 0 0 1-23.04-9.130666l-217.6-213.674667a32 32 0 0 1-0.085333-45.568l65.28-64.597333 260.181333 260.224-62.634667 63.274666a31.872 31.872 0 0 1-19.968 9.386667h-2.133333z m168.832-673.962667a32 32 0 0 1 45.354667 0.298667l209.493333 213.717333a32 32 0 0 1-0.085333 44.885334L545.706667 713.813333l-259.754667-259.754666 298.837333-296.021334z" /></svg>