<svg class="icon" style="width: 1em;height: 1em;vertical-align: middle;fill: currentColor;overflow: hidden;" viewBox="0 0 1024 1024" version="1.1" xmlns="http://www.w3.org/2000/svg"><path d="M675.882667 113.536a96 96 0 0 0-136.106667-0.981333l-409.557333 405.674666a96 96 0 0 0 0.298666 136.704l217.6 213.674667a96 96 0 0 0 135.466667-0.981333l76.16-76.928a192.512 192.512 0 0 1 0.938667-91.946667l-14.933334 15.061333-259.754666-259.754666 298.837333-296.021334a32 32 0 0 1 45.354667 0.298667l209.493333 213.717333a32 32 0 0 1-0.128 44.885334l-142.72 144.213333a192.256 192.256 0 0 1 91.904-1.877333l96.341333-97.28a96 96 0 0 0 0.298667-134.784l-209.493333-213.674667zM240.512 499.072l260.266667 260.266667-62.677334 63.274666a32 32 0 0 1-45.141333 0.341334l-217.6-213.674667a32 32 0 0 1-0.085333-45.568l65.28-64.64zM751.061333 597.376A149.333333 149.333333 0 1 1 597.333333 747.136V746.666667A149.333333 149.333333 0 0 1 751.061333 597.333333z" /></svg>