<svg class="icon" style="width: 1em;height: 1em;vertical-align: middle;fill: currentColor;overflow: hidden;" viewBox="0 0 1024 1024" version="1.1" xmlns="http://www.w3.org/2000/svg"><path d="M853.333333 96a32 32 0 0 1 31.701334 27.648L885.333333 128v597.333333a202.666667 202.666667 0 0 1-193.408 202.453334L682.666667 928H341.333333a202.666667 202.666667 0 0 1-202.453333-193.408L138.666667 725.333333V149.418667A32 32 0 0 1 202.368 145.066667l0.298667 4.352V289.706667h618.666666V128a32 32 0 0 1 32-32z m-32 480H202.666667V725.333333a138.666667 138.666667 0 0 0 130.816 138.453334L341.333333 864h341.333334a138.666667 138.666667 0 0 0 138.453333-130.816L821.333333 725.333333v-149.333333z m0-222.250667H202.666667V512h618.666666V353.749333z" /></svg>