<svg class="icon" style="width: 1em;height: 1em;vertical-align: middle;fill: currentColor;overflow: hidden;" viewBox="0 0 1024 1024" version="1.1" xmlns="http://www.w3.org/2000/svg"><path d="M539.733333 112.554667a96 96 0 0 1 136.149334 1.024l209.493333 213.674666a96 96 0 0 1-0.298667 134.741334l-29.312 29.610666a275.370667 275.370667 0 0 0-70.613333-19.626666l54.4-55.04a32 32 0 0 0 0.128-44.885334l-209.493333-213.674666a32 32 0 0 0-45.354667-0.341334l-298.837333 296.021334 199.381333 199.424a276.181333 276.181333 0 0 0-15.445333 75.008l-229.418667-229.376-65.237333 64.597333a32 32 0 0 0 0.085333 45.610667l217.6 213.632a32 32 0 0 0 45.141333-0.341334l34.304-34.645333c3.669333 24.704 10.624 48.341333 20.352 70.4l-9.173333 9.301333a96 96 0 0 1-135.466667 0.938667l-217.6-213.632a96 96 0 0 1-0.298666-136.704l409.557333-405.717333zM746.666667 981.333333a234.666667 234.666667 0 1 0 0-469.333333 234.666667 234.666667 0 0 0 0 469.333333z" /></svg>