<svg class="icon" style="width: 1em;height: 1em;vertical-align: middle;fill: currentColor;overflow: hidden;" viewBox="0 0 1024 1024" version="1.1" xmlns="http://www.w3.org/2000/svg"><path d="M677.12 113.877333l211.968 211.968a96 96 0 0 1 0 135.765334l-370.389333 370.346666 260.138666 0.042667a32 32 0 0 1 31.744 27.648l0.256 4.352a32 32 0 0 1-27.648 31.701333l-4.352 0.298667-358.826666 0.042667a95.744 95.744 0 0 1-73.130667-27.946667l-211.968-212.010667a96 96 0 0 1 0-135.765333l406.442667-406.442667a96 96 0 0 1 135.765333 0zM243.584 502.101333l-63.445333 63.488a32 32 0 0 0 0 45.226667l212.010666 212.010667c6.229333 6.229333 14.421333 9.386667 22.613334 9.386666l1.237333-0.213333 1.621333 0.085333a31.872 31.872 0 0 0 19.754667-9.258666l63.445333-63.445334-257.28-257.28z m343.04-342.997333l-297.813333 297.728 257.28 257.28 297.770666-297.728a32 32 0 0 0 0-45.269333l-212.010666-212.010667a32 32 0 0 0-45.226667 0z" /></svg>