<svg class="icon" style="width: 1em;height: 1em;vertical-align: middle;fill: currentColor;overflow: hidden;" viewBox="0 0 1024 1024" version="1.1" xmlns="http://www.w3.org/2000/svg"><path d="M469.333333 160a32 32 0 0 0-32-32h-277.333333a32 32 0 0 0-32 32v277.333333a32 32 0 0 0 64 0V237.226667l222.72 222.72a32 32 0 0 0 45.226667-45.226667L237.226667 192h200.106666a32 32 0 0 0 32-32z m362.666667 106.666667a74.666667 74.666667 0 0 0-74.666667-74.666667h-170.666666a32 32 0 1 1 0-64h170.666666A138.666667 138.666667 0 0 1 896 266.666667v490.666666A138.666667 138.666667 0 0 1 757.333333 896H266.666667A138.666667 138.666667 0 0 1 128 757.333333v-170.666666a32 32 0 0 1 64 0v170.666666c0 41.216 33.450667 74.666667 74.666667 74.666667H512v-202.666667A117.333333 117.333333 0 0 1 629.333333 512h202.666667V266.666667z m0 309.333333h-202.666667c-29.44 0-53.333333 23.893333-53.333333 53.333333v202.666667h181.333333a74.666667 74.666667 0 0 0 74.666667-74.666667V576z" /></svg>