<svg class="icon" style="width: 1em;height: 1em;vertical-align: middle;fill: currentColor;overflow: hidden;" viewBox="0 0 1024 1024" version="1.1" xmlns="http://www.w3.org/2000/svg"><path d="M192 266.666667c0-41.216 33.450667-74.666667 74.666667-74.666667h170.666666a32 32 0 0 0 0-64h-170.666666A138.666667 138.666667 0 0 0 128 266.666667v490.666666A138.666667 138.666667 0 0 0 266.666667 896h490.666666A138.666667 138.666667 0 0 0 896 757.333333v-170.666666a32 32 0 0 0-64 0v170.666666a74.666667 74.666667 0 0 1-74.666667 74.666667H512v-202.666667A117.333333 117.333333 0 0 0 394.666667 512H192V266.666667z m0 309.333333h202.666667c29.44 0 53.333333 23.893333 53.333333 53.333333v202.666667H266.666667a74.666667 74.666667 0 0 1-74.666667-74.666667V576zM554.666667 160a32 32 0 0 1 32-32h277.333333a32 32 0 0 1 32 32v277.333333a32 32 0 0 1-64 0V237.226667l-222.72 222.72a32 32 0 0 1-45.226667-45.226667l222.72-222.72h-200.106666a32 32 0 0 1-32-32z" /></svg>