<svg class="icon" style="width: 1em;height: 1em;vertical-align: middle;fill: currentColor;overflow: hidden;" viewBox="0 0 1024 1024" version="1.1" xmlns="http://www.w3.org/2000/svg"><path d="M266.666667 469.205333c41.216 0 74.666667 33.450667 74.666666 74.666667v106.666667a74.666667 74.666667 0 0 1-74.666666 74.666666h-106.666667A74.666667 74.666667 0 0 1 85.333333 650.538667v-106.666667c0-41.216 33.450667-74.666667 74.666667-74.666667h106.666667z m298.666666 0c41.216 0 74.666667 33.450667 74.666667 74.666667v106.666667a74.666667 74.666667 0 0 1-74.666667 74.666666h-106.666666A74.666667 74.666667 0 0 1 384 650.538667v-106.666667c0-41.216 33.450667-74.666667 74.666667-74.666667h106.666666z m298.666667 0c41.216 0 74.666667 33.450667 74.666667 74.666667v106.666667a74.666667 74.666667 0 0 1-74.666667 74.666666h-106.666667a74.666667 74.666667 0 0 1-74.666666-74.666666v-106.666667c0-41.216 33.450667-74.666667 74.666666-74.666667h106.666667z m-597.333333 64h-106.666667a10.666667 10.666667 0 0 0-10.666667 10.666667v106.666667c0 5.930667 4.778667 10.666667 10.666667 10.666666h106.666667a10.666667 10.666667 0 0 0 10.666666-10.666666v-106.666667a10.666667 10.666667 0 0 0-10.666666-10.666667z m298.666666 0h-106.666666a10.666667 10.666667 0 0 0-10.666667 10.666667v106.666667c0 5.930667 4.778667 10.666667 10.666667 10.666666h106.666666a10.666667 10.666667 0 0 0 10.666667-10.666666v-106.666667a10.666667 10.666667 0 0 0-10.666667-10.666667z m298.666667 0h-106.666667a10.666667 10.666667 0 0 0-10.666666 10.666667v106.666667c0 5.930667 4.778667 10.666667 10.666666 10.666666h106.666667a10.666667 10.666667 0 0 0 10.666667-10.666666v-106.666667a10.666667 10.666667 0 0 0-10.666667-10.666667zM340.053333 329.386667l149.333334-149.333334a32 32 0 0 1 41.301333-3.370666l3.626667 3.029333 153.685333 149.333333a32 32 0 0 1-40.96 48.938667l-3.626667-3.029333-131.072-127.36L385.28 374.613333a32 32 0 0 1-48.341333-41.642666l3.114666-3.584 149.333334-149.333334-149.333334 149.333334z" /></svg>