<svg class="icon" style="width: 1em;height: 1em;vertical-align: middle;fill: currentColor;overflow: hidden;" viewBox="0 0 1024 1024" version="1.1" xmlns="http://www.w3.org/2000/svg"><path d="M139.946667 94.72a32 32 0 1 0-45.226667 45.226667l5.418667 5.418666c-9.514667 16.938667-14.933333 36.48-14.933334 57.301334v149.418666l0.298667 4.352a32 32 0 0 0 63.701333-4.352V202.666667l0.298667-5.461334 0.256-2.176 156.8 156.8a323.114667 323.114667 0 0 0-86.186667 96.042667 267.178667 267.178667 0 0 0-15.274666 30.549333l-0.256 0.64c-0.085333 0.213333-6.912 32 18.602666 41.557334a32 32 0 0 0 41.130667-18.602667l0.042667-0.085333 0.341333-0.853334 1.877333-4.266666c1.834667-3.84 4.693333-9.642667 8.789334-16.682667a259.072 259.072 0 0 1 76.8-82.432l63.744 63.744a149.333333 149.333333 0 1 0 210.346666 210.346667l202.410667 202.410666a53.76 53.76 0 0 1-7.68 0.554667h-149.333333l-4.394667 0.298667a32 32 0 0 0 4.352 63.701333h149.333333l7.168-0.213333a116.565333 116.565333 0 0 0 50.176-14.72l5.461334 5.461333a32 32 0 0 0 45.269333-45.226667L139.946667 94.72z m441.045333 531.541333a85.333333 85.333333 0 1 1-119.210667-119.210666l119.210667 119.210666zM488.533333 352.768L431.872 296.106667A386.176 386.176 0 0 1 512 288c116.309333 0 193.493333 46.933333 241.28 94.72a323.114667 323.114667 0 0 1 50.346667 65.152 268.544 268.544 0 0 1 14.506666 28.586667l0.768 1.962666 0.256 0.64 0.085334 0.213334v0.085333l0.042666 0.085333a32 32 0 0 1-18.730666 41.173334 32.341333 32.341333 0 0 1-41.173334-18.688l-0.341333-0.853334s-0.981333-2.346667-1.877333-4.266666a203.776 203.776 0 0 0-8.789334-16.682667 259.114667 259.114667 0 0 0-40.32-52.181333c-37.546667-37.546667-98.986667-75.946667-196.053333-75.946667a350.72 350.72 0 0 0-23.466667 0.768zM938.538667 802.773333l-64-64V672a32 32 0 0 1 63.701333-4.352l0.298667 4.352v130.773333zM285.098667 149.333333L221.098667 85.333333h130.773333a32 32 0 0 1 4.352 63.701334l-4.352 0.298666H285.098667zM117.205333 640a32 32 0 0 1 31.701334 27.648l0.298666 4.352v149.418667l0.298667 5.461333a53.333333 53.333333 0 0 0 47.573333 47.616l5.461334 0.256h149.333333l4.352 0.298667a32 32 0 0 1 0 63.402666l-4.352 0.298667h-149.333333l-7.125334-0.213333a117.333333 117.333333 0 0 1-109.994666-109.653334l-0.213334-7.466666V672l0.298667-4.352A32 32 0 0 1 117.205333 640zM821.205333 85.333333l7.168 0.213334a117.333333 117.333333 0 0 1 109.952 109.653333l0.213334 7.466667v149.418666l-0.298667 4.352a32 32 0 0 1-63.402667 0l-0.298666-4.352V202.666667l-0.256-5.461334a53.333333 53.333333 0 0 0-47.616-47.616l-5.461334-0.256h-149.333333l-4.352-0.298666a32 32 0 0 1 0-63.402667L671.872 85.333333h149.333333z" /></svg>