<svg class="icon" style="width: 1em;height: 1em;vertical-align: middle;fill: currentColor;overflow: hidden;" viewBox="0 0 1024 1024" version="1.1" xmlns="http://www.w3.org/2000/svg"><path d="M351.872 85.333333a32 32 0 0 1 4.352 63.701334l-4.352 0.298666h-149.333333a53.333333 53.333333 0 0 0-53.034667 47.872l-0.298667 5.461334v149.418666a32 32 0 0 1-63.701333 4.352l-0.298667-4.352V202.666667A117.333333 117.333333 0 0 1 195.413333 85.546667L202.538667 85.333333h149.333333zM148.906667 667.648a32 32 0 0 0-63.402667 0l-0.298667 4.352v149.418667l0.213334 7.466666a117.333333 117.333333 0 0 0 109.994666 109.653334l7.125334 0.213333h149.333333l4.352-0.256a32 32 0 0 0 0-63.445333l-4.352-0.298667h-149.333333l-5.461334-0.256a53.333333 53.333333 0 0 1-47.573333-47.616l-0.298667-5.461333V672l-0.298666-4.352zM938.24 667.648a32 32 0 0 0-63.701333 4.352v149.418667l-0.256 5.461333a53.333333 53.333333 0 0 1-53.077334 47.872h-149.333333l-4.352 0.298667a32 32 0 0 0 4.352 63.701333h149.333333l7.168-0.213333a117.333333 117.333333 0 0 0 110.165334-117.12V672l-0.298667-4.352zM828.373333 85.546667L821.205333 85.333333h-149.333333l-4.352 0.298667a32 32 0 0 0 0 63.402667l4.352 0.298666h149.333333l5.461334 0.256a53.333333 53.333333 0 0 1 47.616 47.616l0.256 5.461334v149.418666l0.298666 4.352a32 32 0 0 0 63.402667 0l0.298667-4.352V202.666667l-0.213334-7.424a117.333333 117.333333 0 0 0-109.952-109.696zM264.618667 501.930667l0.341333-0.853334 1.877333-4.266666c1.834667-3.84 4.693333-9.642667 8.789334-16.682667 8.277333-14.165333 21.333333-33.152 40.32-52.181333 37.546667-37.546667 98.986667-75.946667 196.053333-75.946667 97.024 0 158.506667 38.4 196.053333 75.946667 18.986667 19.029333 32.042667 38.016 40.32 52.181333a203.776 203.776 0 0 1 10.666667 20.906667l0.341333 0.896c6.4 16.213333 24.704 24.874667 41.173334 18.688a32 32 0 0 0 18.773333-41.173334l-0.042667-0.085333-0.042666-0.085333-0.085334-0.213334-0.256-0.64a136.704 136.704 0 0 0-3.712-8.533333 268.544 268.544 0 0 0-11.52-22.016 323.114667 323.114667 0 0 0-50.346666-65.152C705.450667 334.933333 628.266667 288 512 288c-116.309333 0-193.493333 46.933333-241.28 94.72a323.114667 323.114667 0 0 0-50.346667 65.152 267.178667 267.178667 0 0 0-15.274666 30.549333l-0.256 0.64c-0.085333 0.213333-6.912 32 18.602666 41.557334a32 32 0 0 0 41.130667-18.602667l0.042667-0.085333zM512 426.666667a149.333333 149.333333 0 1 0 0 298.666666 149.333333 149.333333 0 0 0 0-298.666666z m-85.333333 149.333333a85.333333 85.333333 0 1 1 170.666666 0 85.333333 85.333333 0 0 1-170.666666 0z" /></svg>