<svg class="icon" style="width: 1em;height: 1em;vertical-align: middle;fill: currentColor;overflow: hidden;" viewBox="0 0 1024 1024" version="1.1" xmlns="http://www.w3.org/2000/svg"><path d="M94.72 94.72a32 32 0 0 0-3.114667 41.642667l3.114667 3.584 172.117333 172.16a426.069333 426.069333 0 0 0-168.746666 245.333333 32 32 0 0 0 62.08 15.530667 362.24 362.24 0 0 1 152.746666-214.784l77.226667 77.226666A170.666667 170.666667 0 0 0 631.466667 676.693333l252.544 252.586667a32 32 0 0 0 48.341333-41.685333l-3.114667-3.584-260.821333-260.864 0.042667-0.085334-51.2-51.114666-122.453334-122.453334h0.085334L372.010667 326.741333l0.042666-0.085333-48.341333-48.213333L139.946667 94.72a32 32 0 0 0-45.226667 0z m340.650667 385.92l150.826666 150.869333a106.666667 106.666667 0 0 1-150.826666-150.826666zM512 234.666667c-42.666667 0-84.053333 6.314667-123.264 18.133333l52.778667 52.736a362.794667 362.794667 0 0 1 422.357333 267.605333 32 32 0 0 0 62.08-15.488A426.794667 426.794667 0 0 0 512 234.666667z m8.32 149.76l162.176 162.133333a170.794667 170.794667 0 0 0-162.176-162.133333z" /></svg>