<svg class="icon" style="width: 1em;height: 1em;vertical-align: middle;fill: currentColor;overflow: hidden;" viewBox="0 0 1024 1024" version="1.1" xmlns="http://www.w3.org/2000/svg"><path d="M897.28 126.72a152.661333 152.661333 0 0 0-215.893333 0L597.333333 210.773333l-0.554666-0.554666a74.666667 74.666667 0 0 0-105.6 0l-24.96 25.002666a74.666667 74.666667 0 0 0 0 105.557334l0.512 0.554666-289.28 289.28a96 96 0 0 0-28.117334 67.882667v29.354667l-54.613333 100.138666c-35.669333 65.408 35.882667 136.96 101.290667 101.290667l100.138666-54.613333h29.354667a96 96 0 0 0 67.84-28.117334L682.666667 557.269333l0.512 0.512a74.666667 74.666667 0 0 0 105.6 0l25.002666-24.96a74.666667 74.666667 0 0 0 0-105.6L813.269333 426.666667l84.053334-84.053334a152.661333 152.661333 0 0 0 0-215.893333z m-170.666667 45.226667a88.661333 88.661333 0 0 1 125.44 125.44l-106.666666 106.666666a32 32 0 0 0 0 45.226667l23.168 23.168a10.666667 10.666667 0 0 1 0 15.104l-25.002667 25.002667a10.666667 10.666667 0 0 1-15.104 0l-217.002667-217.002667a10.666667 10.666667 0 0 1 0-15.104l25.002667-25.002667a10.666667 10.666667 0 0 1 15.104 0l23.168 23.168a32 32 0 0 0 45.226667 0l106.666666-106.666666zM637.44 512l-289.28 289.28a32 32 0 0 1-22.656 9.386667H288a32 32 0 0 0-15.317333 3.925333l-107.306667 58.538667a9.984 9.984 0 0 1-6.784 1.365333 11.264 11.264 0 0 1-5.888-3.2 11.264 11.264 0 0 1-3.2-5.888 9.984 9.984 0 0 1 1.408-6.784l58.538667-107.306667A32 32 0 0 0 213.333333 736v-37.504a32 32 0 0 1 9.386667-22.613333L512 386.602667 637.44 512z" /></svg>