<svg class="icon" style="width: 1em;height: 1em;vertical-align: middle;fill: currentColor;overflow: hidden;" viewBox="0 0 1024 1024" version="1.1" xmlns="http://www.w3.org/2000/svg"><path d="M562.986667 278.528a138.666667 138.666667 0 0 1 182.101333-107.690667l25.258667 8.746667a32 32 0 1 0 20.906666-60.501333l-25.173333-8.746667a202.666667 202.666667 0 0 0-266.154667 157.44l-30.805333 180.224H288a32 32 0 0 0 0 64h170.24l-33.408 195.584c-16.042667 93.952-119.978667 144.085333-203.52 98.133333l-3.2-1.749333a32 32 0 0 0-30.848 56.064l3.2 1.792c122.112 67.157333 274.005333-6.144 297.429333-143.488L523.136 512h170.24a32 32 0 0 0 0-64h-159.317333l28.928-169.472z" /></svg>