<svg class="icon" style="width: 1em;height: 1em;vertical-align: middle;fill: currentColor;overflow: hidden;" viewBox="0 0 1024 1024" version="1.1" xmlns="http://www.w3.org/2000/svg"><path d="M490.666667 234.794667c0-54.613333 63.914667-84.096 105.472-48.725334l316.16 269.056a74.666667 74.666667 0 0 1 0 113.706667l-316.16 269.056c-41.557333 35.413333-105.472 5.845333-105.472-48.725333v-170.112l-257.194667 218.88C191.914667 873.301333 128 843.776 128 789.205333V234.837333c0-54.613333 63.914667-84.138667 105.472-48.768l257.194667 218.88V234.794667z m0 254.208l-298.666667-254.165334v554.368l298.666667-254.165333V488.96z m380.16 14.848L554.666667 234.794667v554.368l316.16-269.056a10.666667 10.666667 0 0 0 0-16.213334z" /></svg>