<svg class="icon" style="width: 1em;height: 1em;vertical-align: middle;fill: currentColor;overflow: hidden;" viewBox="0 0 1024 1024" version="1.1" xmlns="http://www.w3.org/2000/svg"><path d="M576 170.666667a362.666667 362.666667 0 1 1-205.738667 661.333333H74.752a32 32 0 0 1-4.352-63.701333L74.752 768l224.768 0.042667a363.264 363.264 0 0 1-43.605333-64L159.872 704a32 32 0 0 1-4.352-63.701333L159.872 640l69.418667 0.042667A362.624 362.624 0 0 1 213.333333 533.333333c0-89.514667 32.426667-171.434667 86.144-234.666666H117.333333a32 32 0 0 1-4.352-63.701334L117.333333 234.666667h252.885334A360.96 360.96 0 0 1 576 170.666667z m0 64a298.666667 298.666667 0 1 0 0 597.333333 298.666667 298.666667 0 0 0 0-597.333333z m0.128 64.085333a234.709333 234.709333 0 1 1 0 469.461333 234.709333 234.709333 0 0 1 0-469.461333z m49.109333 329.130667c-14.72 7.68-31.488 12.032-49.237333 12.032-17.578667 0-34.133333-4.266667-48.768-11.776l-46.762667 46.762666c27.306667 18.474667 60.202667 29.312 95.658667 29.312 35.584 0 68.608-10.88 95.957333-29.482666l-46.848-46.848z m-219.818666-94.421334c0 35.669333 10.922667 68.821333 29.653333 96.213334l46.634667-46.549334a106.154667 106.154667 0 0 1-12.373334-49.834666c0-17.792 4.394667-34.56 12.117334-49.28l-46.549334-46.506667a169.941333 169.941333 0 0 0-29.482666 96z m312.149333-95.658666l-46.72 46.72c7.509333 14.592 11.776 31.189333 11.776 48.768 0 17.792-4.352 34.56-12.074667 49.28l46.848 46.848c18.602667-27.349333 29.44-60.373333 29.44-95.957334 0-35.413333-10.794667-68.394667-29.269333-95.658666zM576 490.666667a42.666667 42.666667 0 1 0 0 85.248 42.666667 42.666667 0 0 0 0-85.248z m0.128-127.914667c-35.584 0-68.608 10.88-96 29.482667l46.506667 46.506666c14.762667-7.68 31.573333-12.074667 49.365333-12.074666 17.962667 0 34.901333 4.437333 49.749333 12.288l46.592-46.549334a169.941333 169.941333 0 0 0-96.213333-29.653333z" /></svg>