<svg class="icon" style="width: 1em;height: 1em;vertical-align: middle;fill: currentColor;overflow: hidden;" viewBox="0 0 1024 1024" version="1.1" xmlns="http://www.w3.org/2000/svg"><path d="M981.333333 320a234.666667 234.666667 0 1 1-469.333333 0 234.666667 234.666667 0 0 1 469.333333 0z m-304.896-100.437333a21.333333 21.333333 0 0 0-30.208 30.208L716.501333 320l-70.272 70.229333a21.333333 21.333333 0 0 0 30.208 30.208L746.666667 350.165333l70.229333 70.272a21.333333 21.333333 0 0 0 30.208-30.208L776.832 320l70.272-70.229333a21.333333 21.333333 0 0 0-30.208-30.208L746.666667 289.834667l-70.229334-70.272zM569.429333 533.333333a278.869333 278.869333 0 0 1-56.490666-64H320a32 32 0 0 0 0 64h249.429333zM469.333333 320c0-22.016 2.56-43.434667 7.424-64H192a32 32 0 0 0 0 64H469.333333z m106.666667 362.666667a32 32 0 0 1 0 64h-128a32 32 0 0 1 0-64h128z" /></svg>