<svg class="icon" style="width: 1em;height: 1em;vertical-align: middle;fill: currentColor;overflow: hidden;" viewBox="0 0 1024 1024" version="1.1" xmlns="http://www.w3.org/2000/svg"><path d="M512 320a234.666667 234.666667 0 1 0 469.333333 0 234.666667 234.666667 0 0 0-469.333333 0zM874.666667 170.666667a21.333333 21.333333 0 0 1 21.333333 21.333333v85.333333a21.333333 21.333333 0 0 1-21.333333 21.333334h-85.333334a21.333333 21.333333 0 0 1 0-42.666667h42.666667a106.496 106.496 0 0 0-85.333333-42.666667c-35.541333 0-67.072 17.365333-86.485334 44.202667a21.333333 21.333333 0 0 1-34.56-25.002667A149.162667 149.162667 0 0 1 746.666667 170.666667c41.813333 0 79.573333 17.194667 106.666666 44.8V192a21.333333 21.333333 0 0 1 21.333334-21.333333zM640 424.533333v23.466667a21.333333 21.333333 0 0 1-42.666667 0v-85.333333a21.333333 21.333333 0 0 1 21.333334-21.333334h85.333333a21.333333 21.333333 0 0 1 0 42.666667h-42.666667c19.456 25.941333 50.474667 42.666667 85.333334 42.666667 32.682667 0 61.952-14.677333 81.536-37.888a21.333333 21.333333 0 1 1 32.597333 27.52A149.034667 149.034667 0 0 1 746.666667 469.333333 148.906667 148.906667 0 0 1 640 424.533333zM320 533.333333h249.429333a278.869333 278.869333 0 0 1-56.490666-64H320a32 32 0 0 0 0 64z m149.333333-213.333333c0-22.016 2.56-43.434667 7.424-64H192a32 32 0 0 0 0 64H469.333333z m106.666667 362.666667a32 32 0 0 1 0 64h-128a32 32 0 0 1 0-64h128z" /></svg>