<svg class="icon" style="width: 1em;height: 1em;vertical-align: middle;fill: currentColor;overflow: hidden;" viewBox="0 0 1024 1024" version="1.1" xmlns="http://www.w3.org/2000/svg"><path d="M633.941333 518.741333c23.893333 24.448 37.418667 54.101333 47.189334 95.061334l4.266666 19.456 7.637334 40.405333c3.797333 18.986667 6.741333 29.525333 10.837333 38.741333 12.8 28.714667 35.413333 58.197333 68.053333 88.106667a32 32 0 1 1-43.221333 47.189333c-38.741333-35.498667-66.56-71.808-83.285333-109.226666-6.357333-14.250667-10.24-27.733333-14.762667-50.346667l-8.96-46.933333-0.597333-2.56c-7.68-36.266667-17.237333-59.093333-32.938667-75.178667-30.421333-31.146667-100.565333-22.912-119.338667 6.741333-23.978667 37.930667-30.08 102.229333-11.050666 167.082667 14.72 50.090667 34.218667 99.413333 58.538666 147.925333a32 32 0 1 1-57.173333 28.672 950.272 950.272 0 0 1-62.762667-158.592c-23.978667-81.578667-16.042667-164.864 18.346667-219.306666 40.661333-64.256 159.658667-78.250667 219.221333-17.237334z m-100.949333 98.773334a32 32 0 0 1 33.066667 30.933333 338.176 338.176 0 0 0 61.610666 183.637333l8.362667 11.349334 12.8 16.64a32 32 0 0 1-47.530667 42.581333l-3.157333-3.541333-12.8-16.64a402.176 402.176 0 0 1-83.242667-231.893334 32 32 0 0 1 30.890667-33.066666zM374.741333 400.64c90.112-66.688 207.957333-63.061333 287.232-12.117333 39.68 25.514667 69.76 55.253333 89.728 89.301333a32 32 0 0 1-55.210666 32.426667c-14.592-24.917333-37.461333-47.573333-69.12-67.882667-58.112-37.376-147.2-40.106667-214.528 9.728-69.930667 51.754667-99.370667 140.416-90.581334 233.898667 4.906667 52.352 20.650667 105.258667 47.488 158.890666a32 32 0 0 1-57.258666 28.586667c-30.250667-60.458667-48.298667-121.045333-53.973334-181.504-10.666667-113.92 26.026667-224.554667 116.224-291.328z m391.68 183.509333a32 32 0 0 1 33.578667 30.293334c1.322667 25.770667 7.68 46.805333 18.858667 63.744 9.386667 14.208 17.664 22.4 24.021333 25.6l2.602667 1.024a32 32 0 0 1-18.517334 61.269333c-23.338667-7.04-43.392-25.088-61.568-52.693333-17.706667-26.88-27.392-58.965333-29.312-95.616a32 32 0 0 1 30.293334-33.621334zM448.426667 260.352a32 32 0 0 1-16.085334 42.325333c-78.506667 35.328-136.277333 85.674667-174.208 151.381334-47.488 82.261333-60.330667 178.389333-49.664 259.413333a32 32 0 1 1-63.488 8.362667c-12.288-93.909333 2.346667-203.861333 57.728-299.776C247.637333 344.362667 315.733333 285.013333 406.144 244.309333a32 32 0 0 1 42.325333 16.042667z m99.968-33.578667c78.08 1.578667 155.818667 37.461333 232.917333 106.069334 77.781333 69.205333 124.629333 163.285333 140.544 280.746666a32 32 0 1 1-63.402667 8.618667c-13.952-102.912-53.802667-182.912-119.68-241.536-66.56-59.221333-130.346667-88.661333-191.658666-89.898667a32 32 0 1 1 1.28-64z m-293.162667 0.597334a32 32 0 0 1-2.602667 45.226666c-11.477333 10.154667-23.466667 22.314667-36.010666 36.437334-11.776 13.312-23.893333 30.549333-36.096 51.754666a32 32 0 1 1-55.424-32 380.288 380.288 0 0 1 43.648-62.208c14.122667-15.957333 27.904-29.866667 41.301333-41.813333a32 32 0 0 1 45.184 2.602667z m280.96-126.549334c93.568 4.394667 171.946667 29.994667 235.946667 79.402667a32 32 0 0 1-39.125334 50.688c-53.12-41.045333-118.826667-62.336-199.808-66.133333-81.194667-3.84-147.669333 12.117333-201.130666 41.770666-16.384 9.088-34.773333 4.522667-44.032-10.538666a31.530667 31.530667 0 0 1 10.538666-43.989334c65.493333-38.570667 144.298667-55.552 237.653334-51.2z" /></svg>