<svg class="icon" style="width: 1em;height: 1em;vertical-align: middle;fill: currentColor;overflow: hidden;" viewBox="0 0 1024 1024" version="1.1" xmlns="http://www.w3.org/2000/svg"><path d="M192 200.021333c0-16.213333-14.336-29.354667-32-29.354666S128 183.808 128 200.021333v176c0 16.213333 14.336 29.312 32 29.312s32-13.141333 32-29.354666V320h288v56.021333c0 16.213333 14.336 29.312 32 29.312s32-13.141333 32-29.354666V320h288v56.021333c0 16.213333 14.336 29.312 32 29.312s32-13.141333 32-29.354666V200.064c0-16.213333-14.336-29.354667-32-29.354667s-32 13.141333-32 29.354667V256h-288V199.978667c0-16.213333-14.336-29.312-32-29.312s-32 13.141333-32 29.354666V256H192V199.978667zM245.333333 469.333333A117.333333 117.333333 0 0 0 128 586.666667v170.666666a117.333333 117.333333 0 0 0 117.333333 117.333334h533.333334A117.333333 117.333333 0 0 0 896 757.333333v-170.666666A117.333333 117.333333 0 0 0 778.666667 469.333333H245.333333z m234.666667 64V810.666667h-234.666667c-29.44 0-53.333333-23.893333-53.333333-53.333334v-170.666666c0-29.44 23.893333-53.333333 53.333333-53.333334h234.666667z m64 277.333334v-277.333334h234.666667c29.44 0 53.333333 23.893333 53.333333 53.333334v170.666666c0 29.44-23.893333 53.333333-53.333333 53.333334h-234.666667z" /></svg>