<svg class="icon" style="width: 1em;height: 1em;vertical-align: middle;fill: currentColor;overflow: hidden;" viewBox="0 0 1024 1024" version="1.1" xmlns="http://www.w3.org/2000/svg"><path d="M128 159.872a32 32 0 0 1 32-32h704.170667a32 32 0 0 1 25.6 51.2L712.106667 415.914667l177.664 236.885333a32 32 0 0 1-25.6 51.2H192v202.624a32 32 0 0 1-27.648 31.701333L160 938.666667a32 32 0 0 1-31.701333-27.648L128 906.624V159.872z m672.170667 32H192V640h608.170667l-153.685334-204.885333a32 32 0 0 1 0-38.4l153.685334-204.8z" /></svg>