<svg class="icon" style="width: 1em;height: 1em;vertical-align: middle;fill: currentColor;overflow: hidden;" viewBox="0 0 1024 1024" version="1.1" xmlns="http://www.w3.org/2000/svg"><path d="M106.666667 106.666667l768 768a32 32 0 0 1-45.226667 45.226666l-216.021333-215.978666L192 704v202.666667a32 32 0 0 1-27.648 31.658666L160 938.666667a32 32 0 0 1-31.701333-27.648L128 906.666667V218.496l-66.56-66.56A32 32 0 1 1 106.666667 106.666667z m111.658666 21.205333h645.845334a32 32 0 0 1 25.6 51.2L712.106667 416l177.664 236.8a32 32 0 0 1-25.6 51.2H794.453333l-64-64h69.717334l-153.685334-204.8a32 32 0 0 1 0-38.4l153.685334-204.842667-517.845334-0.042666-64-64zM192 282.453333V640l357.418667-0.085333L192 282.496z" /></svg>