<svg class="icon" style="width: 1em;height: 1em;vertical-align: middle;fill: currentColor;overflow: hidden;" viewBox="0 0 1024 1024" version="1.1" xmlns="http://www.w3.org/2000/svg"><path d="M278.485333 898.901333L353.877333 597.333333H245.333333a32 32 0 0 1-30.762666-40.789333l128-448A32 32 0 0 1 373.290667 85.333333h298.666666a32 32 0 0 1 30.378667 42.112L631.082667 341.333333h190.250666a32 32 0 0 1 23.04 54.186667l-71.978666 75.008a280.96 280.96 0 0 0-96.213334 7.850667L746.24 405.333333H586.666667a32 32 0 0 1-30.378667-42.112L627.626667 149.333333H397.482667l-109.738667 384h107.093333a32 32 0 0 1 31.061334 39.765334l-56.149334 224.597333 105.941334-110.421333a278.442667 278.442667 0 0 0-3.882667 96.512l-139.178667 145.066666c-22.741333 23.637333-62.122667 1.877333-54.186666-29.952zM746.666667 981.333333a234.666667 234.666667 0 1 0 0-469.333333 234.666667 234.666667 0 0 0 0 469.333333z m143.061333-304.896l-170.666667 170.666667a21.333333 21.333333 0 0 1-30.165333 0l-85.333333-85.333333a21.333333 21.333333 0 0 1 30.165333-30.208l70.272 70.272 155.562667-155.605334a21.333333 21.333333 0 0 1 30.165333 30.208z" /></svg>