<svg class="icon" style="width: 1em;height: 1em;vertical-align: middle;fill: currentColor;overflow: hidden;" viewBox="0 0 1024 1024" version="1.1" xmlns="http://www.w3.org/2000/svg"><path d="M406.613333 617.386667a32 32 0 0 1 0 45.226666l-64 64a32 32 0 0 1-45.226666-45.226666l64-64a32 32 0 0 1 45.226666 0zM139.946667 94.72a32 32 0 1 0-45.226667 45.226667l257.28 257.28v58.88l-222.72 222.677333a96 96 0 0 0 0 135.765333L209.493333 894.72a96 96 0 0 0 135.765334 0l222.72-222.72h58.794666l257.28 257.28a32 32 0 0 0 45.269334-45.226667L139.946667 94.72zM384 514.56L509.44 640l-209.493333 209.450667a32 32 0 0 1-45.226667 0L174.506667 769.28a32 32 0 0 1 0-45.226667L384 514.56z m377.344 86.826667l66.773333-66.773334a32 32 0 0 0 0-45.226666L534.613333 195.84a32 32 0 0 0-45.226666 0L422.570667 262.613333l-45.226667-45.226666 66.730667-66.773334a96 96 0 0 1 135.765333 0l293.461333 293.504a96 96 0 0 1 0 135.765334l-66.730666 66.773333-45.226667-45.269333z" /></svg>