<svg class="icon" style="width: 1em;height: 1em;vertical-align: middle;fill: currentColor;overflow: hidden;" viewBox="0 0 1024 1024" version="1.1" xmlns="http://www.w3.org/2000/svg"><path d="M353.877333 597.333333l-75.392 301.568c-7.978667 31.829333 31.402667 53.589333 54.144 29.909334L844.373333 395.52A32 32 0 0 0 821.333333 341.333333h-190.293333l71.338667-213.888A32 32 0 0 0 672 85.333333h-298.666667a32 32 0 0 0-30.762666 23.210667l-128 448A32 32 0 0 0 245.333333 597.333333h108.544z m202.453334-234.112a32 32 0 0 0 30.336 42.112h159.573333l-376.490667 392.362667 56.149334-224.597333a32 32 0 0 0-31.018667-39.765334h-107.093333l109.653333-384h230.144l-71.253333 213.888z" /></svg>