<svg class="icon" style="width: 1em;height: 1em;vertical-align: middle;fill: currentColor;overflow: hidden;" viewBox="0 0 1024 1024" version="1.1" xmlns="http://www.w3.org/2000/svg"><path d="M544 85.333333a32 32 0 0 1 31.488 37.973334l-1.109333 4.138666L503.082667 341.333333h190.293333a32 32 0 0 1 26.026667 50.645334l-2.986667 3.498666-511.786667 533.333334c-21.717333 22.613333-58.709333 3.712-54.912-25.813334l0.768-4.096L225.877333 597.333333H117.333333a32 32 0 0 1-31.658666-36.693333l0.896-4.096 128-448a32 32 0 0 1 26.112-22.869333L245.333333 85.333333h298.666667z m230.144 399.786667l2.133333 4.48 160 405.12a32 32 0 0 1-57.642666 27.434667l-1.877334-3.925334-42.581333-107.733333h-175.36l-42.496 107.733333a32 32 0 0 1-37.376 19.328l-4.138667-1.28a32 32 0 0 1-19.328-37.376l1.28-4.181333 160-405.12c10.026667-25.429333 44.501333-26.922667 57.386667-4.48zM499.626667 149.333333H269.482667l-109.696 384h107.093333c19.413333 0 34.048 17.066667 31.786667 35.754667l-0.725334 4.010667-56.149333 224.597333L618.24 405.333333h-159.573333a32 32 0 0 1-31.488-37.973333l1.109333-4.138667 71.253333-213.888z m246.869333 439.082667l-62.421333 158.08h124.842666l-62.421333-158.08z" /></svg>