<svg class="icon" style="width: 1em;height: 1em;vertical-align: middle;fill: currentColor;overflow: hidden;" viewBox="0 0 1024 1024" version="1.1" xmlns="http://www.w3.org/2000/svg"><path d="M353.877333 597.333333l-75.392 301.568c-7.936 31.829333 31.445333 53.589333 54.186667 29.909334l139.136-145.024a279.637333 279.637333 0 0 1 3.925333-96.512l-105.941333 110.421333 56.149333-224.597333a32 32 0 0 0-31.061333-39.765334h-107.093333l109.696-384h230.144l-71.296 213.888a32 32 0 0 0 30.378666 42.112h159.573334l-70.058667 73.045334a277.76 277.76 0 0 1 96.213333-7.850667l72.021334-75.050667A32 32 0 0 0 821.333333 341.333333h-190.250666l71.296-213.888A32 32 0 0 0 672.042667 85.333333h-298.666667a32 32 0 0 0-30.805333 23.210667l-128 448A32 32 0 0 0 245.333333 597.333333h108.544z m179.498667 69.504l19.072 18.346667a85.333333 85.333333 0 0 1 0 122.965333l-19.072 18.346667c8.533333 24.490667 20.906667 47.061333 36.352 66.986667l25.685333-7.594667a85.333333 85.333333 0 0 1 107.136 61.866667l7.381334 30.506666a220.842667 220.842667 0 0 0 73.514666 0l7.338667-30.549333a85.333333 85.333333 0 0 1 107.136-61.824l25.685333 7.594667c15.488-19.925333 27.861333-42.496 36.394667-66.986667l-19.072-18.346667a85.333333 85.333333 0 0 1 0-122.965333l19.072-18.346667a236.544 236.544 0 0 0-36.394667-66.986666l-25.685333 7.594666a85.333333 85.333333 0 0 1-107.093333-61.866666l-7.381334-30.506667a220.757333 220.757333 0 0 0-73.514666 0l-7.381334 30.549333a85.333333 85.333333 0 0 1-107.093333 61.824l-25.728-7.594666a236.544 236.544 0 0 0-36.352 66.986666z m213.333333 143.829334c-34.176 0-61.866667-28.672-61.866666-64S712.533333 682.666667 746.666667 682.666667c34.133333 0 61.824 28.672 61.824 64S780.8 810.666667 746.666667 810.666667z" /></svg>