<svg class="icon" style="width: 1em;height: 1em;vertical-align: middle;fill: currentColor;overflow: hidden;" viewBox="0 0 1024 1024" version="1.1" xmlns="http://www.w3.org/2000/svg"><path d="M91.605333 98.133333l3.114667-3.584a32 32 0 0 1 41.642667-3.114666l3.584 3.114666 789.333333 789.717334a32 32 0 0 1-41.642667 48.341333l-3.584-3.114667-281.728-281.813333-269.696 281.173333c-21.76 22.613333-58.709333 3.669333-54.912-25.856l0.768-4.096L353.877333 597.333333H245.333333a32 32 0 0 1-31.658666-36.693333l0.853333-4.096 65.92-230.912L94.72 139.776a32 32 0 0 1-3.114667-41.642667l3.114667-3.584-3.114667 3.584z m240.64 279.296L287.744 533.333333h107.093333c19.456 0 34.048 17.066667 31.829334 35.712l-0.768 4.053334-56.149334 224.597333 187.306667-195.328-224.810667-224.938667zM373.333333 85.333333h298.666667a32 32 0 0 1 31.445333 37.973334l-1.066666 4.138666L631.04 341.333333h190.250667a32 32 0 0 1 26.026666 50.645334l-2.944 3.498666-153.429333 159.829334-45.226667-45.269334L746.24 405.333333H586.666667a32 32 0 0 1-31.445334-37.973333l1.109334-4.138667 71.253333-213.888H397.482667L372.48 236.672 320.768 184.874667l21.76-76.373334a32 32 0 0 1 26.112-22.826666L373.333333 85.333333z" /></svg>