<svg class="icon" style="width: 1em;height: 1em;vertical-align: middle;fill: currentColor;overflow: hidden;" viewBox="0 0 1024 1024" version="1.1" xmlns="http://www.w3.org/2000/svg"><path d="M746.666667 85.333333A32 32 0 0 0 682.666667 85.333333v42.666667a32 32 0 0 0 64 0V85.333333z m171.946666 20.053334a32 32 0 0 0-45.226666 0l-85.333334 85.333333a32 32 0 0 0 45.226667 45.226667l85.333333-85.333334a32 32 0 0 0 0-45.226666zM342.613333 726.613333l64-64a32 32 0 1 0-45.226666-45.226666l-64 64a32 32 0 1 0 45.226666 45.226666zM352 256v200.106667l-222.72 222.677333a96 96 0 0 0 0 135.765333L209.493333 894.72a96 96 0 0 0 135.765334 0l222.72-222.72H768a32 32 0 0 0 22.613333-9.386667l82.773334-82.730666a96 96 0 0 0 0-135.765334L579.84 150.613333a96 96 0 0 0-135.765333 0l-82.773334 82.773334A32 32 0 0 0 352 256z m137.386667-60.117333a32 32 0 0 1 45.226666 0l293.504 293.504a32 32 0 0 1 0 45.226666L768 594.773333 429.226667 256l60.16-60.117333z m-73.386667 137.386666l274.773333 274.730667h-122.88l-151.893333-151.893333V333.226667zM384 514.56L509.44 640l-209.493333 209.450667a32 32 0 0 1-45.226667 0L174.506667 769.28a32 32 0 0 1 0-45.226667L384 514.56zM896 341.333333h42.666667a32 32 0 0 0 0-64h-42.666667A32 32 0 0 0 896 341.333333z" /></svg>