<svg class="icon" style="width: 1em;height: 1em;vertical-align: middle;fill: currentColor;overflow: hidden;" viewBox="0 0 1024 1024" version="1.1" xmlns="http://www.w3.org/2000/svg"><path d="M192 746.666667a32 32 0 0 1-28.117333-47.274667l266.666666-490.666667a32 32 0 0 1 60.117334 15.274667v490.666667a32 32 0 0 1-32 32H192zM859.52 731.008a32 32 0 0 1-27.52 15.658667h-266.666667a32 32 0 0 1-32-32V224a32 32 0 0 1 60.117334-15.274667l266.666666 490.666667a32 32 0 0 1-0.597333 31.616zM597.333333 349.909333V682.666667h180.864L597.333333 349.866667z" /></svg>