<svg class="icon" style="width: 1em;height: 1em;vertical-align: middle;fill: currentColor;overflow: hidden;" viewBox="0 0 1024 1024" version="1.1" xmlns="http://www.w3.org/2000/svg"><path d="M731.008 164.48a32 32 0 0 1 15.658667 27.52v266.666667a32 32 0 0 1-32 32H224a32 32 0 0 1-15.274667-60.117334l490.666667-266.666666a32 32 0 0 1 31.616 0.597333zM349.909333 426.666667H682.666667V245.802667L349.866667 426.666667zM746.666667 832a32 32 0 0 1-47.274667 28.117333l-490.666667-266.666666A32 32 0 0 1 224 533.333333h490.666667a32 32 0 0 1 32 32v266.666667z" /></svg>