<svg class="icon" style="width: 1em;height: 1em;vertical-align: middle;fill: currentColor;overflow: hidden;" viewBox="0 0 1024 1024" version="1.1" xmlns="http://www.w3.org/2000/svg"><path d="M223.872 127.786667a96 96 0 0 0-96 96v106.965333a96 96 0 0 0 96 96h21.461333v158.165333a53.845333 53.845333 0 0 0-5.76 4.949334l-119.125333 119.082666a53.333333 53.333333 0 0 0 0 75.434667l119.125333 119.125333a53.333333 53.333333 0 0 0 75.434667 0l119.082667-119.125333c1.834667-1.834667 3.456-3.712 4.949333-5.717333h158.464v21.504a96 96 0 0 0 96 96h106.410667a96 96 0 0 0 96-96v-106.88a96 96 0 0 0-96-96h-106.410667a96 96 0 0 0-96 96v21.376H439.04a53.418667 53.418667 0 0 0-4.949333-5.717334l-119.04-119.04a53.674667 53.674667 0 0 0-5.717334-4.992v-158.165333h21.504a96 96 0 0 0 96-96V223.786667a96 96 0 0 0-96-96H223.872z m-32 96a32 32 0 0 1 32-32h106.965333a32 32 0 0 1 32 32v106.965333a32 32 0 0 1-32 32H223.872a32 32 0 0 1-32-32V223.786667zM173.269333 746.666667l104.021334-104.021334L381.269333 746.666667 277.333333 850.773333 173.269333 746.666667z m520.234667-85.333334h106.410667a32 32 0 0 1 32 32v106.837334a32 32 0 0 1-32 32h-106.410667a32 32 0 0 1-32-32v-106.88a32 32 0 0 1 32-32z" /></svg>