<svg class="icon" style="width: 1em;height: 1em;vertical-align: middle;fill: currentColor;overflow: hidden;" viewBox="0 0 1024 1024" version="1.1" xmlns="http://www.w3.org/2000/svg"><path d="M309.333333 277.333333a32 32 0 0 0-32 32v106.666667c0 17.664 14.336 32 32 32h21.333334v114.773333l-75.946667 75.946667a32 32 0 0 0 0 45.226667l85.333333 85.333333a32 32 0 0 0 45.226667 0l75.946667-75.946667h114.773333v21.333334c0 17.664 14.336 32 32 32h106.666667a32 32 0 0 0 32-32v-106.666667a32 32 0 0 0-32-32h-106.666667a32 32 0 0 0-32 32v21.333333h-114.773333l-66.56-66.56V448h21.333333a32 32 0 0 0 32-32v-106.666667a32 32 0 0 0-32-32h-106.666667zM85.333333 512C85.333333 276.352 276.352 85.333333 512 85.333333s426.666667 191.018667 426.666667 426.666667-191.018667 426.666667-426.666667 426.666667S85.333333 747.648 85.333333 512z m426.666667-362.666667a362.666667 362.666667 0 1 0 0 725.333334 362.666667 362.666667 0 0 0 0-725.333334z" /></svg>