<svg class="icon" style="width: 1em;height: 1em;vertical-align: middle;fill: currentColor;overflow: hidden;" viewBox="0 0 1024 1024" version="1.1" xmlns="http://www.w3.org/2000/svg"><path d="M469.333333 213.333333h245.12a96 96 0 0 1 96 96V469.333333h-64V309.333333a32 32 0 0 0-32-32H469.333333V213.333333z m-192 256v245.12c0 17.664 14.336 32 32 32H469.333333v64H309.333333A96 96 0 0 1 213.333333 714.453333V469.333333h64zM85.333333 181.333333A96 96 0 0 1 181.333333 85.333333h149.333334A96 96 0 0 1 426.666667 181.333333v149.333334A96 96 0 0 1 330.666667 426.666667h-149.333334A96 96 0 0 1 85.333333 330.666667v-149.333334z m96-32a32 32 0 0 0-32 32v149.333334c0 17.664 14.336 32 32 32h149.333334a32 32 0 0 0 32-32v-149.333334a32 32 0 0 0-32-32h-149.333334zM512 608A96 96 0 0 1 608 512h234.666667A96 96 0 0 1 938.666667 608v234.666667A96 96 0 0 1 842.666667 938.666667h-234.666667A96 96 0 0 1 512 842.666667v-234.666667z m96-32a32 32 0 0 0-32 32v234.666667c0 17.664 14.336 32 32 32h234.666667a32 32 0 0 0 32-32v-234.666667a32 32 0 0 0-32-32h-234.666667z" /></svg>