<svg class="icon" style="width: 1em;height: 1em;vertical-align: middle;fill: currentColor;overflow: hidden;" viewBox="0 0 1024 1024" version="1.1" xmlns="http://www.w3.org/2000/svg"><path d="M350.165333 170.666667c19.626667 0 38.741333 6.016 54.784 17.152l6.656 5.12L512.938667 277.333333h329.728a96 96 0 0 1 95.104 82.688l0.682666 6.741334 0.213334 6.570666v130.56a278.101333 278.101333 0 0 0-64-45.994666V373.333333a32 32 0 0 0-27.648-31.701333L842.666667 341.333333h-329.770667L411.605333 425.770667a96 96 0 0 1-53.077333 21.845333l-8.362667 0.384-200.832-0.042667v309.376c0 16.213333 12.032 29.610667 27.648 31.701334l4.352 0.298666h301.354667c7.381333 22.784 17.578667 44.245333 30.250667 64H181.333333a96 96 0 0 1-95.786666-89.429333L85.333333 757.333333V266.666667a96 96 0 0 1 89.429334-95.786667L181.333333 170.666667h168.832z m0 64H181.333333a32 32 0 0 0-31.701333 27.648L149.333333 266.666667v117.290666L350.165333 384a32 32 0 0 0 16.853334-4.821333l3.626666-2.56 80.682667-67.328-80.64-67.2a32 32 0 0 0-16.085333-7.125334L350.165333 234.666667zM512 704a234.666667 234.666667 0 1 0 469.333333 0 234.666667 234.666667 0 0 0-469.333333 0z m362.666667-149.333333a21.333333 21.333333 0 0 1 21.333333 21.333333v85.333333a21.333333 21.333333 0 0 1-21.333333 21.333334h-85.333334a21.333333 21.333333 0 0 1 0-42.666667h42.666667a106.496 106.496 0 0 0-85.333333-42.666667c-35.541333 0-67.072 17.365333-86.485334 44.202667a21.333333 21.333333 0 0 1-34.56-25.002667A149.162667 149.162667 0 0 1 746.666667 554.666667c41.813333 0 79.573333 17.194667 106.666666 44.8v-23.466667a21.333333 21.333333 0 0 1 21.333334-21.333333zM640 808.533333v23.466667a21.333333 21.333333 0 0 1-42.666667 0v-85.333333a21.333333 21.333333 0 0 1 21.333334-21.333334h85.333333a21.333333 21.333333 0 0 1 0 42.666667h-42.666667c19.456 25.941333 50.474667 42.666667 85.333334 42.666667 32.682667 0 61.952-14.677333 81.536-37.888a21.333333 21.333333 0 0 1 32.597333 27.52A149.034667 149.034667 0 0 1 746.666667 853.333333a148.906667 148.906667 0 0 1-106.666667-44.8z" /></svg>