<svg class="icon" style="width: 1em;height: 1em;vertical-align: middle;fill: currentColor;overflow: hidden;" viewBox="0 0 1024 1024" version="1.1" xmlns="http://www.w3.org/2000/svg"><path d="M746.666667 469.333333a234.666667 234.666667 0 1 1 0 469.333334 234.666667 234.666667 0 0 1 0-469.333334zM350.165333 170.666667c19.626667 0 38.741333 6.016 54.784 17.152l6.656 5.12L512.938667 277.333333h329.728a96 96 0 0 1 95.104 82.688l0.682666 6.741334 0.213334 6.570666v130.56a278.058667 278.058667 0 0 0-63.957334-45.952L874.666667 373.333333a32 32 0 0 0-27.648-31.701333L842.666667 341.333333h-329.770667L411.605333 425.770667a96 96 0 0 1-53.077333 21.845333l-8.362667 0.384-200.832-0.042667v309.376c0 16.213333 12.032 29.610667 27.648 31.701334l4.352 0.298666h301.397334c7.338667 22.784 17.578667 44.288 30.250666 64.042667L181.333333 853.333333a96 96 0 0 1-95.786666-89.429333L85.333333 757.333333V266.666667a96 96 0 0 1 89.429334-95.786667L181.333333 170.666667h168.832z m408.96 407.253333l-3.242666 1.877333-2.986667 2.432-2.432 2.986667a21.333333 21.333333 0 0 0 0 24.234667l2.432 2.986666L823.125333 682.666667H597.333333l-3.84 0.341333a21.333333 21.333333 0 0 0-17.152 17.152l-0.341333 3.84 0.341333 3.84a21.333333 21.333333 0 0 0 17.152 17.152L597.333333 725.333333h225.792l-70.229333 70.229334-2.432 2.986666a21.333333 21.333333 0 0 0 29.653333 29.653334l2.986667-2.432 107.861333-108.032 1.962667-2.688 1.450667-2.901334 0.896-2.688 0.64-3.498666L896 704l-0.128-2.261333-0.597333-3.2-1.28-3.541334-1.792-3.157333-1.92-2.389333-107.178667-107.221334-2.986667-2.432a21.333333 21.333333 0 0 0-20.992-1.877333zM350.165333 234.666667H181.333333a32 32 0 0 0-31.701333 27.648L149.333333 266.666667v117.290666L350.165333 384a32 32 0 0 0 16.853334-4.821333l3.626666-2.56 80.682667-67.328-80.64-67.2a32 32 0 0 0-16.085333-7.125334L350.165333 234.666667z" /></svg>