<svg class="icon" style="width: 1em;height: 1em;vertical-align: middle;fill: currentColor;overflow: hidden;" viewBox="0 0 1024 1024" version="1.1" xmlns="http://www.w3.org/2000/svg"><path d="M853.333333 405.418667V373.333333a96 96 0 0 0-96-96h-244.266666l-101.546667-84.48A96 96 0 0 0 350.037333 170.666667H181.333333A96 96 0 0 0 85.333333 266.666667l-0.170666 490.666666A96 96 0 0 0 181.162667 853.333333H788.053333a74.666667 74.666667 0 0 0 72.448-56.533333l74.666667-298.581333a74.666667 74.666667 0 0 0-72.448-92.8H853.333333zM181.333333 234.666667h168.789334a32 32 0 0 1 20.48 7.381333l110.421333 91.904a32 32 0 0 0 20.48 7.381333h255.829333a32 32 0 0 1 32 32v32.085334H274.090667a96 96 0 0 0-93.141334 72.704l-31.744 127.061333L149.333333 266.666667a32 32 0 0 1 32-32z m61.738667 258.986666a32 32 0 0 1 31.018667-24.234666H862.72a10.666667 10.666667 0 0 1 10.325333 13.226666l-74.666666 298.624a10.666667 10.666667 0 0 1-10.325334 8.064H182.826667a10.666667 10.666667 0 0 1-10.368-13.226666l70.613333-282.453334z" /></svg>