<svg class="icon" style="width: 1em;height: 1em;vertical-align: middle;fill: currentColor;overflow: hidden;" viewBox="0 0 1024 1024" version="1.1" xmlns="http://www.w3.org/2000/svg"><path d="M350.165333 170.666667c19.626667 0 38.741333 6.016 54.784 17.152l6.656 5.12L512.938667 277.333333h329.728a96 96 0 0 1 95.104 82.688l0.682666 6.741334 0.213334 6.570666v353.194667l-64-64V373.333333a32 32 0 0 0-27.648-31.701333L842.666667 341.333333h-329.770667L411.605333 425.770667a96 96 0 0 1-53.077333 21.845333l-8.362667 0.384-200.832-0.042667v309.376c0 16.213333 12.032 29.610667 27.648 31.701334l4.352 0.298666h203.477334a74.624 74.624 0 0 0 21.12 63.786667l0.170666 0.213333H181.333333a96 96 0 0 1-95.786666-89.429333L85.333333 757.333333V266.666667a96 96 0 0 1 89.429334-95.786667L181.333333 170.666667h168.832z m0 64H181.333333a32 32 0 0 0-31.701333 27.648L149.333333 266.666667v117.290666L350.165333 384a32 32 0 0 0 16.853334-4.821333l3.626666-2.56 80.682667-67.328-80.64-67.2a32 32 0 0 0-16.085333-7.125334L350.165333 234.666667zM587.946667 716.373333a32 32 0 0 0-45.226667-45.312l-106.666667 106.624a32 32 0 0 0 0 45.226667l106.666667 106.538667a32 32 0 1 0 45.226667-45.269334L535.722667 832h293.674666l-52.010666 51.882667a32 32 0 1 0 45.226666 45.269333l106.666667-106.453333a32 32 0 0 0 0-45.269334l-106.666667-106.624a32 32 0 0 0-45.226666 45.312L829.312 768h-293.077333l51.712-51.712z" /></svg>