<svg class="icon" style="width: 1em;height: 1em;vertical-align: middle;fill: currentColor;overflow: hidden;" viewBox="0 0 1024 1024" version="1.1" xmlns="http://www.w3.org/2000/svg"><path d="M648.32 245.504a32 32 0 0 0 45.226667 2.133333l95.786666-87.04 95.786667 87.04a32 32 0 0 0 43.093333-47.317333l-117.333333-106.666667a32 32 0 0 0-43.093333 0l-117.333334 106.666667a32 32 0 0 0-2.133333 45.226667zM512 170.666667a32 32 0 0 1 29.738667 20.181333l245.333333 618.666667a32 32 0 0 1-59.477333 23.594666L651.008 640H372.992l-76.586667 193.109333a32 32 0 1 1-59.477333-23.594666l245.333333-618.666667A32 32 0 0 1 512 170.666667z m-113.621333 405.333333h227.242666L512 289.493333 398.378667 576z" /></svg>