<svg class="icon" style="width: 1em;height: 1em;vertical-align: middle;fill: currentColor;overflow: hidden;" viewBox="0 0 1024 1024" version="1.1" xmlns="http://www.w3.org/2000/svg"><path d="M829.696 688.938667l3.584 3.114666 96 96a32 32 0 0 1 3.114667 41.642667l-3.114667 3.584-96 96a32 32 0 0 1-48.341333-41.642667l3.114666-3.584 41.344-41.429333H194.56l41.386667 41.386667 3.072 3.626666a32 32 0 0 1-44.8 44.757334l-3.541334-3.114667-96-96-3.114666-3.584a32 32 0 0 1-0.298667-37.674667l3.413333-3.968 96-96 3.584-3.114666a32 32 0 0 1 37.632-0.298667l4.010667 3.413333 3.114667 3.584a32 32 0 0 1 0.298666 37.632l-3.413333 4.010667-41.386667 41.344H829.44l-41.386667-41.344a32 32 0 0 1-3.072-41.642667l3.114667-3.584a32 32 0 0 1 41.642667-3.114666zM334.336 97.237333l2.645333 3.925334 2.133334 4.522666 192 490.666667a32 32 0 0 1-57.728 27.264l-1.834667-3.968-52.736-134.656H199.808l-52.693333 134.656a32 32 0 0 1-37.290667 19.456l-4.138667-1.28a32 32 0 0 1-19.456-37.333333l1.28-4.138667 192-490.666667c9.386667-23.936 40.362667-26.752 54.826667-8.448z m544.384 4.522667a32 32 0 0 1 59.050667 23.082667l-1.28 4.138666-192 490.666667-2.176 4.522667a32.042667 32.042667 0 0 1-55.296 0l-2.133334-4.48-192-490.666667-1.322666-4.181333a32 32 0 0 1 15.146666-35.242667l4.266667-2.048 4.181333-1.28a32 32 0 0 1 35.242667 15.104l2.048 4.266667 162.218667 414.549333 162.218666-414.506667 1.834667-3.925333zM309.333333 205.141333L224.853333 420.992h168.917334L309.333333 205.098667z" /></svg>