<svg class="icon" style="width: 1em;height: 1em;vertical-align: middle;fill: currentColor;overflow: hidden;" viewBox="0 0 1024 1024" version="1.1" xmlns="http://www.w3.org/2000/svg"><path d="M693.546667 93.653333a32 32 0 0 0-43.093334 47.36l117.333334 106.666667a32 32 0 0 0 43.093333 0l117.333333-106.666667a32 32 0 1 0-43.093333-47.36L789.333333 180.736l-95.786666-87.04zM512 170.666667a32 32 0 0 1 29.738667 20.224l245.333333 618.666666a32 32 0 0 1-59.477333 23.552L651.008 640H372.992l-76.586667 193.109333a32 32 0 1 1-59.477333-23.594666l245.333333-618.666667A32 32 0 0 1 512 170.666667z m0 118.826666L398.378667 576h227.242666L512 289.493333z" /></svg>