<svg class="icon" style="width: 1em;height: 1em;vertical-align: middle;fill: currentColor;overflow: hidden;" viewBox="0 0 1024 1024" version="1.1" xmlns="http://www.w3.org/2000/svg"><path d="M358.314667 479.36a32 32 0 1 0-12.544-62.72c-38.528 7.68-67.626667 34.602667-83.114667 70.741333-15.36 35.797333-17.621333 80.469333-5.632 128.384a32 32 0 0 0 62.08-15.530666c-9.386667-37.418667-6.314667-67.413333 2.346667-87.637334 8.533333-19.84 22.101333-30.293333 36.864-33.237333zM233.472 145.92A221.056 221.056 0 0 0 293.973333 311.552a218.453333 218.453333 0 0 0-156.16 179.882667 446.293333 446.293333 0 0 0 58.538667 289.962666l14.933333 25.173334a31.573333 31.573333 0 0 0 1.834667 2.688l60.416 81.365333a147.712 147.712 0 0 0 225.066667 14.293333 18.645333 18.645333 0 0 1 26.88 0 147.712 147.712 0 0 0 225.066666-14.293333l60.416-81.365333a31.146667 31.146667 0 0 0 1.792-2.688l14.976-25.173334a446.293333 446.293333 0 0 0 58.581334-289.962666 218.453333 218.453333 0 0 0-260.693334-183.722667l-81.109333 16.810667-0.128 0.042666c1.28-33.28 6.485333-69.12 16.682667-99.797333 12.373333-37.034667 29.525333-59.306667 48.64-67.242667a32 32 0 1 0-24.618667-59.050666c-44.928 18.688-70.4 63.104-84.736 106.069333l-1.962667 6.058667c-10.24-19.797333-23.637333-38.4-40.234666-55.04a221.056 221.056 0 0 0-169.813334-64.469334A58.325333 58.325333 0 0 0 233.429333 145.92z m63.701333 8.832a157.013333 157.013333 0 0 1 115.712 46.08 157.013333 157.013333 0 0 1 46.08 115.712 158.72 158.72 0 0 1-23.168-1.066667l-26.325333-5.461333a156.8 156.8 0 0 1-66.218667-39.552 157.013333 157.013333 0 0 1-46.08-115.712z m88.277334 215.637333l8.618666 1.792c10.24 2.901333 20.650667 5.034667 31.146667 6.442667l41.386667 8.576a224 224 0 0 0 90.88 0l81.152-16.810667a154.453333 154.453333 0 0 1 184.32 129.877334 382.250667 382.250667 0 0 1-50.218667 248.405333l-14.122667 23.722667-59.434666 80.085333a83.712 83.712 0 0 1-127.573334 8.106667 82.645333 82.645333 0 0 0-119.125333 0 83.712 83.712 0 0 1-127.573333-8.106667l-59.434667-80.085333-14.165333-23.722667a382.293333 382.293333 0 0 1-50.133334-248.405333 154.453333 154.453333 0 0 1 184.277334-129.877334z" /></svg>