<svg class="icon" style="width: 1em;height: 1em;vertical-align: middle;fill: currentColor;overflow: hidden;" viewBox="0 0 1024 1024" version="1.1" xmlns="http://www.w3.org/2000/svg"><path d="M512 42.666667c-40.533333 0-67.626667 29.098667-82.645333 54.698666-15.402667 26.410667-24.021333 58.624-24.021334 83.968 0 21.077333 2.688 50.090667 18.432 74.496C441.258667 282.88 470.954667 298.666667 512 298.666667s70.741333-15.786667 88.234667-42.837334c15.786667-24.405333 18.432-53.418667 18.432-74.496 0-25.344-8.618667-57.6-24.021334-83.968C579.669333 71.765333 552.533333 42.666667 512 42.666667z m-42.666667 138.666666c0-13.226667 5.162667-34.346667 15.274667-51.626666 10.581333-18.090667 20.778667-23.04 27.392-23.04 6.613333 0 16.810667 4.949333 27.392 23.04 10.112 17.28 15.274667 38.4 15.274667 51.626666 0 17.493333-2.645333 31.146667-8.234667 39.765334-3.84 5.973333-11.52 13.568-34.432 13.568-22.954667 0-30.592-7.594667-34.432-13.568C472.021333 212.48 469.333333 198.826667 469.333333 181.333333zM874.666667 437.333333v352h32a32 32 0 0 1 0 64H117.333333a32 32 0 0 1 0-64h32v-352A96 96 0 0 1 245.333333 341.333333h533.333334a96 96 0 0 1 96 96z m-661.333334 0v89.216l104.405334 67.413334a53.333333 53.333333 0 0 0 57.856 0l74.538666-48.128a117.333333 117.333333 0 0 1 123.733334-2.133334l85.717333 51.157334a53.333333 53.333333 0 0 0 57.984-2.133334L810.666667 527.36v-90.026667a32 32 0 0 0-32-32H245.333333a32 32 0 0 0-32 32z m541.013334 207.786667a117.333333 117.333333 0 0 1-127.573334 4.693333l-85.674666-51.2a53.333333 53.333333 0 0 0-56.277334 0.981334l-74.538666 48.128a117.333333 117.333333 0 0 1-127.232 0L213.333333 602.709333V789.333333h597.333334v-183.765333l-56.32 39.509333z" /></svg>