<svg class="icon" style="width: 1em;height: 1em;vertical-align: middle;fill: currentColor;overflow: hidden;" viewBox="0 0 1024 1024" version="1.1" xmlns="http://www.w3.org/2000/svg"><path d="M384 468.906667a42.666667 42.666667 0 1 0 0-85.333334 42.666667 42.666667 0 0 0 0 85.333334z m213.333333 85.248a42.666667 42.666667 0 1 1-85.333333 0 42.666667 42.666667 0 0 1 85.333333 0z m-213.333333 170.581333a42.666667 42.666667 0 1 0 0-85.333333 42.666667 42.666667 0 0 0 0 85.333333zM213.333333 198.826667c0-63.872 52.48-119.68 120.32-112.981334A886.698667 886.698667 0 0 1 907.178667 377.173333c45.653333 50.901333 31.445333 126.464-20.437334 164.053334-67.498667 48.981333-168.106667 121.898667-225.408 163.541333-0.085333 18.645333-0.085333 30.762667-0.042666 46.592v26.794667a74.666667 74.666667 0 0 1-87.722667 73.557333c-8.704 35.242667-39.765333 65.152-82.944 65.152-29.866667 0-53.845333-14.293333-68.650667-34.773333l-56.533333 40.832c-63.488 45.824-152.32 0.469333-152.277333-77.909334L213.333333 198.869333z m114.048-49.28c-25.984-2.56-50.090667 18.901333-50.090666 49.28v22.186666c224.170667 9.429333 422.869333 117.290667 554.026666 281.344l17.877334-12.970666c24.661333-17.92 27.818667-50.048 10.325333-69.546667A822.698667 822.698667 0 0 0 327.381333 149.589333z m-50.218666 695.466666c0 26.112 29.610667 41.258667 50.773333 25.941334l90.794667-65.450667a32 32 0 0 1 50.688 26.026667c0 11.52 8.917333 21.333333 21.205333 21.333333a21.205333 21.205333 0 0 0 21.418667-21.333333v-53.418667a32 32 0 0 1 64 0c0 5.973333 4.736 10.666667 10.581333 10.666667a10.666667 10.666667 0 0 0 10.666667-10.666667v-26.538667c-0.042667-20.053333-0.085333-34.474667 0.213333-63.530666a32 32 0 0 1 13.141333-25.6c38.485333-27.989333 106.496-77.312 168.789334-122.453334a684.373333 684.373333 0 0 0-502.186667-254.890666l-0.085333 559.914666z" /></svg>