<svg class="icon" style="width: 1em;height: 1em;vertical-align: middle;fill: currentColor;overflow: hidden;" viewBox="0 0 1024 1024" version="1.1" xmlns="http://www.w3.org/2000/svg"><path d="M490.666667 522.666667a32 32 0 0 1 32-32 32 32 0 0 0 0-64A96 96 0 0 0 426.666667 522.666667a32 32 0 0 0 64 0zM298.666667 533.333333a234.666667 234.666667 0 1 1 469.333333 0 234.666667 234.666667 0 0 1-469.333333 0z m234.666666-170.666666a170.666667 170.666667 0 1 0 0 341.333333 170.666667 170.666667 0 0 0 0-341.333333zM265.173333 277.077333C328.021333 163.2 443.008 85.333333 576 85.333333c203.093333 0 362.666667 180.096 362.666667 395.733334 0 24.149333-2.005333 47.829333-5.802667 70.826666-2.432 14.677333-1.92 30.293333 1.024 46.208a288 288 0 0 1-410.282667 311.082667 187.605333 187.605333 0 0 0-109.525333-16.256A270.293333 270.293333 0 0 1 373.333333 896C211.925333 896 85.333333 755.029333 85.333333 586.666667c0-109.696 53.248-206.933333 134.826667-261.973334 19.029333-12.928 34.730667-29.056 45.013333-47.616zM576 149.333333c-106.709333 0-201.685333 62.464-254.805333 158.677334-16 28.928-39.338667 52.181333-65.28 69.674666C192.554667 420.565333 149.333333 497.664 149.333333 586.666667c0 137.941333 102.656 245.333333 224 245.333333 10.581333 0 20.949333-0.810667 31.146667-2.346667a251.562667 251.562667 0 0 1 147.370667 22.101334 224 224 0 0 0 319.061333-242.048 197.845333 197.845333 0 0 1-1.194667-68.266667c3.242667-19.541333 4.949333-39.722667 4.949334-60.373333 0-186.154667-136.533333-331.733333-298.666667-331.733334z" /></svg>