<svg class="icon" style="width: 1em;height: 1em;vertical-align: middle;fill: currentColor;overflow: hidden;" viewBox="0 0 1024 1024" version="1.1" xmlns="http://www.w3.org/2000/svg"><path d="M352 384a32 32 0 0 0-32 32v192c0 17.664 14.336 32 32 32h192a32 32 0 0 0 32-32v-192a32 32 0 0 0-32-32h-192zM384 576v-128h128v128H384zM85.333333 330.666667A202.666667 202.666667 0 0 1 288 128h448a202.666667 202.666667 0 0 1 149.333333 339.669333v332.330667A96 96 0 0 1 789.333333 896h-554.666666a96 96 0 0 1-96-96v-332.330667A202.026667 202.026667 0 0 1 85.333333 330.666667zM288 192a138.666667 138.666667 0 0 0-95.317333 239.36 32 32 0 0 1 9.984 23.253333v345.386667c0 17.664 14.336 32 32 32h426.666666a32 32 0 0 0 32-32v-328.192a32 32 0 0 1 13.994667-26.453333A138.666667 138.666667 0 0 0 629.333333 192h-341.333333zM832 330.666667a202.325333 202.325333 0 0 1-74.666667 157.141333v312.192c0 11.221333-1.92 21.973333-5.461333 32h37.461333a32 32 0 0 0 32-32v-345.386667a32 32 0 0 1 9.984-23.253333A138.709333 138.709333 0 0 0 785.066667 200.96 201.813333 201.813333 0 0 1 832 330.666667z" /></svg>