<svg class="icon" style="width: 1em;height: 1em;vertical-align: middle;fill: currentColor;overflow: hidden;" viewBox="0 0 1024 1024" version="1.1" xmlns="http://www.w3.org/2000/svg"><path d="M245.333333 128A117.333333 117.333333 0 0 0 128 245.333333v533.333334A117.333333 117.333333 0 0 0 245.333333 896h267.605334a276.096 276.096 0 0 1-30.250667-64H245.333333c-29.44 0-53.333333-23.893333-53.333333-53.333333V245.333333c0-29.44 23.893333-53.333333 53.333333-53.333333h533.333334c29.44 0 53.333333 23.893333 53.333333 53.333333v237.354667a276.096 276.096 0 0 1 64 30.250667V245.333333A117.333333 117.333333 0 0 0 778.666667 128H245.333333zM766.165333 470.016a31.957333 31.957333 0 0 0-29.994666-43.264H522.666667a32 32 0 0 0 0 64h116.992a276.48 276.48 0 0 1 126.506666-20.736zM352 362.752a96 96 0 1 0 0 192 96 96 0 0 0 0-192z m-32 96a32 32 0 1 1 64 0 32 32 0 0 1-64 0zM256 693.333333a96 96 0 1 1 192 0 96 96 0 0 1-192 0z m96-32a32 32 0 1 0 0 64 32 32 0 0 0 0-64zM736.170667 320h-448a32 32 0 1 1 0-64h448a32 32 0 0 1 0 64zM981.333333 746.666667a234.666667 234.666667 0 1 0-469.333333 0 234.666667 234.666667 0 0 0 469.333333 0z m-213.290666 128.128a21.333333 21.333333 0 1 1-42.666667 0V768h-106.88a21.333333 21.333333 0 1 1 0-42.666667H725.333333v-106.666666a21.333333 21.333333 0 1 1 42.666667 0V725.333333h106.794667a21.333333 21.333333 0 1 1 0 42.666667h-106.752v106.794667z" /></svg>