<svg class="icon" style="width: 1em;height: 1em;vertical-align: middle;fill: currentColor;overflow: hidden;" viewBox="0 0 1024 1024" version="1.1" xmlns="http://www.w3.org/2000/svg"><path d="M501.333333 640a96 96 0 0 1 6.570667 191.786667l-6.570667 0.213333H469.333333v74.666667a32 32 0 0 1-27.648 31.701333L437.333333 938.666667a32 32 0 0 1-31.701333-27.648L405.333333 906.666667v-234.666667a32 32 0 0 1 27.648-31.701333L437.333333 640h64zM768 640a85.333333 85.333333 0 0 1 85.333333 85.333333 32 32 0 0 1-63.701333 4.352L789.333333 725.333333a21.333333 21.333333 0 0 0-17.493333-20.992L768 704h-26.666667a26.666667 26.666667 0 0 0-3.925333 53.034667l3.925333 0.298666h21.333334a90.666667 90.666667 0 0 1 6.485333 181.12l-6.485333 0.213334h-26.666667a85.333333 85.333333 0 0 1-85.333333-85.333334 32 32 0 0 1 63.701333-4.352l0.298667 4.352a21.333333 21.333333 0 0 0 17.493333 20.992l3.84 0.341334h26.666667a26.666667 26.666667 0 0 0 3.925333-53.034667l-3.925333-0.298667h-21.333334a90.666667 90.666667 0 0 1-6.485333-181.12l6.485333-0.213333H768zM330.666667 640a32 32 0 0 1 4.352 63.701333l-4.352 0.298667H234.666667v64.085333l74.666666 0.042667a32 32 0 0 1 4.352 63.701333l-4.352 0.298667H234.666667v73.728a32 32 0 0 1-27.648 31.744l-4.352 0.256a32 32 0 0 1-31.701334-27.648L170.666667 905.856v-233.813333a32 32 0 0 1 27.648-31.744L202.666667 640h128z m170.666666 64H469.333333V768h32a32 32 0 0 0 4.352-63.701333l-4.352-0.298667zM341.333333 128.042667a128 128 0 0 1 127.829334 120.448l0.213333 7.509333v7.338667a32 32 0 0 1-63.701333 4.352l-0.256-4.352v-7.296l-0.298667-6.186667a64 64 0 0 0-127.488 0.085333l-0.298667 6.186667V315.733333a128 128 0 1 1-63.829333 118.442667L213.333333 426.666667 213.333333 256.128A128.085333 128.085333 0 0 1 341.333333 128z m298.922667 0a127.786667 127.786667 0 0 1 127.530667 120.32l0.213333 7.466666v171.093334a127.786667 127.786667 0 0 1-120.234667 127.573333l-7.509333 0.170667-8.021333-0.213334a127.786667 127.786667 0 0 1-120.021334-120.021333L512 426.922667v-171.093334a127.786667 127.786667 0 0 1 120.234667-127.573333l8.021333-0.170667zM341.333333 362.666667a64 64 0 0 0-63.744 57.898666L277.333333 426.666667A64.085333 64.085333 0 1 0 341.333333 362.666667z m298.922667-170.538667h-0.512c-33.109333 0-60.373333 25.258667-63.445333 57.6l-0.298667 6.144v171.093333c0 33.152 25.301333 60.373333 57.6 63.445334l6.144 0.298666 6.656-0.298666a63.786667 63.786667 0 0 0 57.301333-57.301334l0.298667-6.144v-171.093333c0-35.2-28.544-63.744-63.744-63.744z" /></svg>