<svg class="icon" style="width: 1em;height: 1em;vertical-align: middle;fill: currentColor;overflow: hidden;" viewBox="0 0 1024 1024" version="1.1" xmlns="http://www.w3.org/2000/svg"><path d="M362.666667 160a32 32 0 0 0-64 0v106.666667a32 32 0 0 1-32 32h-106.666667a32 32 0 0 0 0 64h106.666667A96 96 0 0 0 362.666667 266.666667v-106.666667zM362.666667 864a32 32 0 0 1-64 0v-106.666667a32 32 0 0 0-32-32h-106.666667a32 32 0 0 1 0-64h106.666667a96 96 0 0 1 96 96v106.666667zM693.333333 128a32 32 0 0 0-32 32v106.666667a96 96 0 0 0 96 96h106.666667a32 32 0 0 0 0-64h-106.666667a32 32 0 0 1-32-32v-106.666667a32 32 0 0 0-32-32zM661.333333 864a32 32 0 0 0 64 0v-106.666667a32 32 0 0 1 32-32h106.666667a32 32 0 0 0 0-64h-106.666667a96 96 0 0 0-96 96v106.666667z" /></svg>