<svg class="icon" style="width: 1em;height: 1em;vertical-align: middle;fill: currentColor;overflow: hidden;" viewBox="0 0 1024 1024" version="1.1" xmlns="http://www.w3.org/2000/svg"><path d="M192 245.333333c0-29.44 23.893333-53.333333 53.333333-53.333333h85.333334a32 32 0 0 0 0-64h-85.333334A117.333333 117.333333 0 0 0 128 245.333333v85.333334a32 32 0 0 0 64 0v-85.333334zM192 778.666667c0 29.44 23.893333 53.333333 53.333333 53.333333h85.333334a32 32 0 0 1 0 64h-85.333334A117.333333 117.333333 0 0 1 128 778.666667v-85.333334a32 32 0 0 1 64 0v85.333334zM778.666667 192c29.44 0 53.333333 23.893333 53.333333 53.333333v85.333334a32 32 0 0 0 64 0v-85.333334A117.333333 117.333333 0 0 0 778.666667 128h-85.333334a32 32 0 0 0 0 64h85.333334zM832 778.666667c0 29.44-23.893333 53.333333-53.333333 53.333333h-85.333334a32 32 0 0 0 0 64h85.333334A117.333333 117.333333 0 0 0 896 778.666667v-85.333334a32 32 0 0 0-64 0v85.333334z" /></svg>