<svg class="icon" style="width: 1em;height: 1em;vertical-align: middle;fill: currentColor;overflow: hidden;" viewBox="0 0 1024 1024" version="1.1" xmlns="http://www.w3.org/2000/svg"><path d="M639.914667 213.333333a298.666667 298.666667 0 0 1 10.24 597.162667l-10.24 0.170667H384.085333a298.666667 298.666667 0 0 1-10.24-597.162667L384.042667 213.333333h255.829333z m0 64H384.085333a234.666667 234.666667 0 0 0-9.429333 469.162667l9.429333 0.170667h255.829334a234.666667 234.666667 0 0 0 9.429333-469.162667l-9.429333-0.170667zM341.333333 384a32 32 0 0 1 32 32v63.914667h64a32 32 0 0 1 0 64h-64v64.085333a32 32 0 0 1-64 0v-64.085333h-64a32 32 0 1 1 0-64h64V416A32 32 0 0 1 341.333333 384z m288 149.333333a53.333333 53.333333 0 1 1 0 106.666667 53.333333 53.333333 0 0 1 0-106.666667z m85.333334-149.333333a53.333333 53.333333 0 1 1 0 106.666667 53.333333 53.333333 0 0 1 0-106.666667z" /></svg>