<svg class="icon" style="width: 1em;height: 1em;vertical-align: middle;fill: currentColor;overflow: hidden;" viewBox="0 0 1024 1024" version="1.1" xmlns="http://www.w3.org/2000/svg"><path d="M256 341.333333a42.666667 42.666667 0 0 0 0 85.333334h170.666667a42.666667 42.666667 0 1 0 0-85.333334H256z m213.333333 170.666667a42.666667 42.666667 0 0 1 42.666667-42.666667h170.666667a42.666667 42.666667 0 1 1 0 85.333334h-170.666667a42.666667 42.666667 0 0 1-42.666667-42.666667z m170.666667 85.333333a42.666667 42.666667 0 1 0 0 85.333334h128a42.666667 42.666667 0 1 0 0-85.333334h-128zM224 170.666667A138.666667 138.666667 0 0 0 85.333333 309.333333v405.333334A138.666667 138.666667 0 0 0 224 853.333333h576A138.666667 138.666667 0 0 0 938.666667 714.666667v-405.333334A138.666667 138.666667 0 0 0 800 170.666667H224zM341.333333 234.666667V298.666667h64V234.666667h213.333334V426.666667H682.666667V234.666667h117.333333c41.216 0 74.666667 33.450667 74.666667 74.666666v405.333334a74.666667 74.666667 0 0 1-74.666667 74.666666H682.666667V725.333333h-42.666667c-7.381333 0-14.506667-0.938667-21.333333-2.688V789.333333h-213.333334V469.333333H341.333333v320H224a74.666667 74.666667 0 0 1-74.666667-74.666666v-405.333334c0-41.216 33.450667-74.666667 74.666667-74.666666H341.333333z" /></svg>