<svg class="icon" style="width: 1em;height: 1em;vertical-align: middle;fill: currentColor;overflow: hidden;" viewBox="0 0 1024 1024" version="1.1" xmlns="http://www.w3.org/2000/svg"><path d="M350.72 436.053333a32 32 0 0 1 45.226667 0L512 552.106667l116.053333-116.053334a32 32 0 1 1 45.226667 45.226667L557.226667 597.333333l20.053333 20.010667 85.333333 85.333333 0.042667 0.085334 10.666667 10.624a32 32 0 1 1-45.269334 45.226666l-10.666666-10.624-85.333334-85.333333-20.053333-20.053333-116.053333 116.053333a32 32 0 0 1-45.226667-45.269333L466.773333 597.333333l-116.053333-116.053333a32 32 0 0 1 0-45.226667zM586.666667 85.333333a32 32 0 0 0-25.813334 13.056L445.312 256H384v-10.666667A138.666667 138.666667 0 0 0 245.333333 106.666667h-42.666666a32 32 0 0 0 0 64h42.666666c41.216 0 74.666667 33.450667 74.666667 74.666666V256h-32A117.333333 117.333333 0 0 0 170.666667 373.333333v448A117.333333 117.333333 0 0 0 288 938.666667h448A117.333333 117.333333 0 0 0 853.333333 821.333333V373.333333c0-36.608-16.768-69.333333-43.093333-90.88 0.298667-1.664 0.426667-3.370667 0.426667-5.12V117.333333a32 32 0 0 0-32-32h-192z m160 171.136A118.784 118.784 0 0 0 736 256h-211.328l78.208-106.666667h143.786667v107.136zM288 320h448c29.44 0 53.333333 23.893333 53.333333 53.333333v448c0 29.44-23.893333 53.333333-53.333333 53.333334H288c-29.44 0-53.333333-23.893333-53.333333-53.333334V373.333333c0-29.44 23.893333-53.333333 53.333333-53.333333z" /></svg>