<svg class="icon" style="width: 1em;height: 1em;vertical-align: middle;fill: currentColor;overflow: hidden;" viewBox="0 0 1024 1024" version="1.1" xmlns="http://www.w3.org/2000/svg"><path d="M330.666667 256a32 32 0 0 0-32 32v192c0 17.664 14.336 32 32 32h234.666666a32 32 0 0 0 32-32v-192a32 32 0 0 0-32-32h-234.666666z m32 192v-128h170.666666v128h-170.666666zM288 128A117.333333 117.333333 0 0 0 170.666667 245.333333V874.666667h-10.666667a32 32 0 0 0 0 64h576a32 32 0 0 0 0-64H725.333333v-76.928a117.12 117.12 0 0 0 170.666667-104.192v-249.088a117.333333 117.333333 0 0 0-23.466667-70.4L825.6 311.466667a32 32 0 0 0-51.2 38.4l46.933333 62.592c6.912 9.216 10.666667 20.48 10.666667 32v249.088a53.12 53.12 0 1 1-106.24 0V618.666667a32.341333 32.341333 0 0 0-0.426667-5.162667V245.333333A117.333333 117.333333 0 0 0 608 128h-320z m373.333333 746.666667h-426.666666V245.333333c0-29.44 23.893333-53.333333 53.333333-53.333333h320c29.44 0 53.333333 23.893333 53.333333 53.333333V874.666667z" /></svg>