<svg class="icon" style="width: 1em;height: 1em;vertical-align: middle;fill: currentColor;overflow: hidden;" viewBox="0 0 1024 1024" version="1.1" xmlns="http://www.w3.org/2000/svg"><path d="M338.517333 685.482667a32 32 0 1 1-45.226666 45.226666 309.333333 309.333333 0 0 1 290.048-519.722666 32 32 0 1 1-14.677334 62.293333 245.333333 245.333333 0 0 0-230.101333 412.202667z m424.704-295.424a32 32 0 0 1 40.746667 19.626666 309.333333 309.333333 0 0 1-73.216 321.024 32 32 0 1 1-45.269333-45.226666 245.333333 245.333333 0 0 0 58.112-254.677334 32 32 0 0 1 19.626666-40.746666z m-85.717333-105.6a26.666667 26.666667 0 0 1 41.045333 32.469333l-5.546666 10.666667a15133.482667 15133.482667 0 0 1-60.373334 115.754666 6604.8 6604.8 0 0 1-49.322666 92.032c-7.296 13.226667-13.909333 25.002667-19.285334 34.261334a211.797333 211.797333 0 0 1-13.653333 21.333333 80 80 0 0 1-125.44-99.285333c3.669333-4.650667 10.410667-11.306667 17.621333-18.133334 7.765333-7.381333 17.664-16.512 28.928-26.666666a6587.306667 6587.306667 0 0 1 78.165334-69.12 16007.466667 16007.466667 0 0 1 98.730666-85.461334l9.130667-7.850666zM938.666667 512c0 235.648-191.018667 426.666667-426.666667 426.666667S85.333333 747.648 85.333333 512 276.352 85.333333 512 85.333333s426.666667 191.018667 426.666667 426.666667zM149.333333 512a362.666667 362.666667 0 1 0 725.333334 0 362.666667 362.666667 0 0 0-725.333334 0z" /></svg>