<svg class="icon" style="width: 1em;height: 1em;vertical-align: middle;fill: currentColor;overflow: hidden;" viewBox="0 0 1024 1024" version="1.1" xmlns="http://www.w3.org/2000/svg"><path d="M603.306667 127.061333a96 96 0 0 0-145.578667-11.392L309.930667 263.509333a96 96 0 0 0 14.592 147.754667l85.76 57.130667-293.248 287.701333a107.093333 107.093333 0 1 0 150.698666 152.106667l293.205334-293.205334 51.882666 81.536a96 96 0 0 0 148.906667 16.341334l146.602667-146.602667a96 96 0 0 0-11.434667-145.536l-165.888-120.661333a32 32 0 0 1-7.082667-7.082667L603.306667 127.061333z m-100.266667 33.834667a32 32 0 0 1 48.469333 3.84l19.626667 26.965333L386.901333 375.893333l-26.88-17.92a32 32 0 0 1-4.864-49.237333l147.84-147.84zM441.173333 412.16l168.064-168.021333 62.933334 86.528c5.930667 8.106667 13.056 15.274667 21.162666 21.205333L776.96 412.586667l-164.352 164.309333-44.970667-70.698667a96 96 0 0 0-27.733333-28.330666L441.173333 412.16z m206.592 220.117333l181.546667-181.546666 29.952 21.76a32 32 0 0 1 3.84 48.554666l-146.645333 146.602667a32 32 0 0 1-49.621334-5.418667l-19.072-29.952z m-122.026666-72.533333l-303.274667 303.274667a43.093333 43.093333 0 1 1-60.586667-61.226667l302.762667-297.088 39.68 26.453333c3.754667 2.474667 6.869333 5.717333 9.258667 9.472l12.16 19.072zM629.333333 810.666667a32 32 0 1 0 0 64h-85.333333a32 32 0 1 0 0 64h362.666667a32 32 0 0 0 0-64h-85.333334a32 32 0 0 0 0-64h-192z" /></svg>