<svg class="icon" style="width: 1em;height: 1em;vertical-align: middle;fill: currentColor;overflow: hidden;" viewBox="0 0 1024 1024" version="1.1" xmlns="http://www.w3.org/2000/svg"><path d="M160 746.666667a32 32 0 1 1 0 64 32 32 0 0 1 0-64zM287.957333 170.88h448.213334a32 32 0 0 1 4.309333 63.701333l-4.352 0.298667h-277.418667L875.690667 396.8a32 32 0 0 1 6.826666 56.021333l-4.053333 2.432L260.266667 764.928a32 32 0 0 1-32.426667-55.04l3.754667-2.176 553.642666-277.333333L276.352 232.704c-31.573333-12.288-24.533333-57.642667 7.125333-61.568l4.48-0.256h448.213334H287.914667zM842.666667 170.666667a32 32 0 1 1 0 64 32 32 0 0 1 0-64z" /></svg>