<svg class="icon" style="width: 1em;height: 1em;vertical-align: middle;fill: currentColor;overflow: hidden;" viewBox="0 0 1024 1024" version="1.1" xmlns="http://www.w3.org/2000/svg"><path d="M800 149.376A138.666667 138.666667 0 0 1 938.666667 288.042667v448.128a138.666667 138.666667 0 0 1-138.666667 138.666666H224A138.666667 138.666667 0 0 1 85.333333 736.170667V288a138.666667 138.666667 0 0 1 138.666667-138.666667h576z m0 64H224a74.666667 74.666667 0 0 0-74.666667 74.666667v448.128c0 41.216 33.450667 74.666667 74.666667 74.666666h576a74.666667 74.666667 0 0 0 74.666667-74.666666V288a74.666667 74.666667 0 0 0-74.666667-74.666667zM341.973333 378.538667c25.429333 0 43.477333 3.498667 64.085334 13.397333a26.666667 26.666667 0 0 1-23.082667 48.085333c-12.8-6.144-23.04-8.106667-41.002667-8.106666-36.992 0-64.170667 33.962667-64.170666 79.872 0 45.952 27.221333 80.042667 64.170666 80.042666 18.261333 0 33.749333-7.68 41.813334-21.376L384 569.813333v-31.317333h-16.042667a26.666667 26.666667 0 0 1-26.368-22.698667L341.333333 511.872c0-13.397333 9.856-24.490667 22.741334-26.410667l3.925333-0.256h42.752c13.397333 0 24.448 9.813333 26.368 22.698667l0.298667 3.968-0.085334 66.005333-0.256 2.389334-0.896 3.84-0.853333 2.346666c-16.085333 37.973333-52.949333 58.709333-93.354667 58.709334-69.376 0-117.504-60.288-117.504-133.376 0-73.088 48.085333-133.248 117.504-133.248z m196.864 5.205333c13.397333 0 24.490667 9.898667 26.368 22.741333l0.298667 3.925334v203.221333a26.666667 26.666667 0 0 1-53.034667 3.925333l-0.298666-3.925333V410.410667c0-14.72 11.946667-26.666667 26.666666-26.666667z m127.829334 0l85.205333 0.298667a26.666667 26.666667 0 0 1 3.754667 53.077333l-3.925334 0.256-58.496-0.213333V512h47.914667c13.397333 0 24.490667 9.898667 26.368 22.784l0.298667 3.925333a26.666667 26.666667 0 0 1-22.741334 26.368l-3.925333 0.298667-47.914667-0.042667v47.573334a26.666667 26.666667 0 0 1-22.698666 26.410666l-3.925334 0.256a26.666667 26.666667 0 0 1-26.410666-22.698666l-0.256-3.968V410.325333a26.666667 26.666667 0 0 1 22.784-26.282666l3.968-0.298667z" /></svg>