<svg class="icon" style="width: 1em;height: 1em;vertical-align: middle;fill: currentColor;overflow: hidden;" viewBox="0 0 1024 1024" version="1.1" xmlns="http://www.w3.org/2000/svg"><path d="M85.333333 213.333333a128 128 0 0 1 128-128h597.333334a128 128 0 0 1 128 128v333.226667a278.101333 278.101333 0 0 0-64-45.994667V405.333333h-424.106667l73.386667 73.386667a32 32 0 1 1-45.226667 45.226667L405.333333 450.56v210.773333h77.354667c-6.570667 20.394667-10.88 41.813333-12.544 64H213.333333a128 128 0 0 1-128-128V213.333333z m128-64A64 64 0 0 0 149.333333 213.333333v128h51.541334A106.666667 106.666667 0 0 1 341.333333 200.874667V149.333333H213.333333z m192 0v51.541334A106.666667 106.666667 0 0 1 545.792 341.333333H874.666667V213.333333A64 64 0 0 0 810.666667 149.333333H405.333333zM341.333333 661.333333v-210.773333l-73.386666 73.386667a32 32 0 0 1-45.226667-45.226667L296.106667 405.333333H149.333333V597.333333A64 64 0 0 0 213.333333 661.333333h128zM448 341.333333a42.666667 42.666667 0 1 0-42.666667-42.666666v42.666666h42.666667zM341.333333 298.496A42.666667 42.666667 0 1 0 298.666667 341.333333h42.666666V298.496zM981.333333 746.666667a234.666667 234.666667 0 1 0-469.333333 0 234.666667 234.666667 0 0 0 469.333333 0z m-213.333333 21.333333l0.042667 106.794667a21.333333 21.333333 0 1 1-42.666667 0V768h-106.88a21.333333 21.333333 0 0 1 0-42.666667H725.333333v-106.666666a21.333333 21.333333 0 1 1 42.666667 0V725.333333h106.538667a21.333333 21.333333 0 0 1 0 42.666667H768z" /></svg>