<svg class="icon" style="width: 1em;height: 1em;vertical-align: middle;fill: currentColor;overflow: hidden;" viewBox="0 0 1024 1024" version="1.1" xmlns="http://www.w3.org/2000/svg"><path d="M618.666667 85.333333a138.666667 138.666667 0 0 1 116.864 213.333334h107.136c29.44 0 53.333333 23.893333 53.333333 53.333333v149.333333a53.333333 53.333333 0 0 1-42.666667 52.266667v246.4a138.666667 138.666667 0 0 1-130.816 138.453333L714.666667 938.666667h-405.333334a138.666667 138.666667 0 0 1-138.453333-130.816L170.666667 800v-246.4c-24.32-4.949333-42.666667-26.453333-42.666667-52.266667v-149.333333C128 322.56 151.893333 298.666667 181.333333 298.666667h107.136a138.666667 138.666667 0 0 1 223.573334-163.285334A138.24 138.24 0 0 1 618.666667 85.333333z m-138.666667 469.290667H234.666667v245.376a74.666667 74.666667 0 0 0 68.522666 74.410667l6.144 0.256h170.666667v-320.042667z m309.333333 0h-245.333333V874.666667h170.666667a74.666667 74.666667 0 0 0 74.410666-68.565334l0.256-6.101333v-245.376zM480 362.666667H192v128l288-0.042667V362.666667z m352 128v-128h-288v127.957333l288 0.042667z m-213.333333-341.333334a74.666667 74.666667 0 0 0-74.666667 74.666667v74.624h75.690667l5.12-0.213333A74.666667 74.666667 0 0 0 618.666667 149.333333z m-213.333334 0a74.666667 74.666667 0 0 0-6.144 149.077334l5.12 0.213333h75.690667V224l-0.256-6.144A74.666667 74.666667 0 0 0 405.333333 149.333333z" /></svg>