<svg class="icon" style="width: 1em;height: 1em;vertical-align: middle;fill: currentColor;overflow: hidden;" viewBox="0 0 1024 1024" version="1.1" xmlns="http://www.w3.org/2000/svg"><path d="M821.333333 469.418667c41.216 0 74.666667 33.408 74.666667 74.666666v277.333334a74.666667 74.666667 0 0 1-74.666667 74.666666h-192a74.666667 74.666667 0 0 1-74.666666-74.666666v-277.333334c0-41.258667 33.450667-74.666667 74.666666-74.666666h192z m-425.898666 171.178666c41.258667 0 74.666667 33.450667 74.666666 74.666667v106.154667a74.666667 74.666667 0 0 1-74.666666 74.666666H202.837333a74.666667 74.666667 0 0 1-74.666666-74.666666v-106.154667c0-41.216 33.408-74.666667 74.666666-74.666667h192.597334z m425.898666-107.178666h-192a10.666667 10.666667 0 0 0-10.666666 10.666666v277.333334c0 5.888 4.778667 10.666667 10.666666 10.666666h192a10.666667 10.666667 0 0 0 10.666667-10.666666v-277.333334a10.666667 10.666667 0 0 0-10.666667-10.666666z m-425.898666 171.178666H202.837333a10.666667 10.666667 0 0 0-10.666666 10.666667v106.154667c0 5.888 4.778667 10.666667 10.666666 10.666666h192.597334a10.666667 10.666667 0 0 0 10.666666-10.666666v-106.154667a10.666667 10.666667 0 0 0-10.666666-10.666667zM394.837333 128c41.216 0 74.666667 33.450667 74.666667 74.666667v277.333333a74.666667 74.666667 0 0 1-68.565333 74.410667L394.837333 554.666667h-192a74.666667 74.666667 0 0 1-74.666666-74.666667v-277.333333c0-41.216 33.408-74.666667 74.666666-74.666667h192z m0 64h-192a10.666667 10.666667 0 0 0-10.666666 10.666667v277.333333c0 5.888 4.778667 10.666667 10.666666 10.666667h192l2.432-0.298667a10.666667 10.666667 0 0 0 8.234667-10.368v-277.333333a10.666667 10.666667 0 0 0-10.666667-10.666667zM821.333333 128c41.216 0 74.666667 33.450667 74.666667 74.666667v106.666666A74.666667 74.666667 0 0 1 821.333333 384h-192A74.666667 74.666667 0 0 1 554.666667 309.333333v-106.666666c0-41.216 33.450667-74.666667 74.666666-74.666667h192z m-192 64a10.666667 10.666667 0 0 0-10.666666 10.666667v106.666666c0 5.888 4.778667 10.666667 10.666666 10.666667h192a10.666667 10.666667 0 0 0 10.666667-10.666667v-106.666666a10.666667 10.666667 0 0 0-10.666667-10.666667h-192z" /></svg>