<svg class="icon" style="width: 1em;height: 1em;vertical-align: middle;fill: currentColor;overflow: hidden;" viewBox="0 0 1024 1024" version="1.1" xmlns="http://www.w3.org/2000/svg"><path d="M337.450667 213.333333h57.173333a32 32 0 0 1 4.352 63.701334L394.666667 277.333333H337.493333a32 32 0 0 0-20.352 7.253334l-3.2 3.114666-88.490666 96.256h147.882666a96 96 0 0 1 95.445334 85.546667h86.485333A96 96 0 0 1 650.666667 384l148.352-0.042667-88.874667-96.341333a32 32 0 0 0-19.114667-9.984l-4.437333-0.298667h-57.386667a32 32 0 0 1-4.352-63.701333L629.205333 213.333333h57.429334a96 96 0 0 1 64.853333 25.258667l5.674667 5.632 155.392 168.405333c2.133333 2.346667 3.882667 4.906667 5.205333 7.594667 13.056 16.384 20.864 37.162667 20.864 59.733333v149.205334a138.666667 138.666667 0 0 1-138.666667 138.666666H693.333333a138.666667 138.666667 0 0 1-138.666666-138.666666l-0.042667-95.658667h-85.376v95.658667a138.666667 138.666667 0 0 1-138.666667 138.666666H224A138.666667 138.666667 0 0 1 85.333333 629.162667V480c0-23.978667 8.789333-45.909333 23.296-62.72l1.621334-2.346667 1.877333-2.218666 154.624-168.32a96 96 0 0 1 62.677333-30.72L337.450667 213.333333h57.173333-57.173333z m35.84 234.666667H181.333333a32 32 0 0 0-32 32v149.162667c0 41.258667 33.450667 74.666667 74.666667 74.666666h106.624a74.666667 74.666667 0 0 0 74.666667-74.666666V480a32 32 0 0 0-32-32z m469.333333 0H650.666667a32 32 0 0 0-32 32v149.162667c0 41.258667 33.450667 74.666667 74.666666 74.666666h106.624a74.666667 74.666667 0 0 0 74.666667-74.666666V480a32 32 0 0 0-32-32z" /></svg>