<svg class="icon" style="width: 1em;height: 1em;vertical-align: middle;fill: currentColor;overflow: hidden;" viewBox="0 0 1024 1024" version="1.1" xmlns="http://www.w3.org/2000/svg"><path d="M139.946667 94.72a32 32 0 1 0-45.226667 45.226667l139.648 139.690666-122.24 133.077334-1.877333 2.218666-1.621334 2.346667c-14.506667 16.810667-23.296 38.741333-23.296 62.72v149.162667a138.666667 138.666667 0 0 0 138.666667 138.666666h106.624a138.666667 138.666667 0 0 0 138.666667-138.666666l-0.042667-95.658667h18.986667L554.666667 599.936v29.226667a138.666667 138.666667 0 0 0 138.666666 138.666666h29.226667l161.450667 161.493334a32 32 0 0 0 45.269333-45.269334L139.946667 94.72zM338.773333 384l-113.322666-0.042667 54.272-59.050666L338.730667 384zM181.333333 448h191.957334a32 32 0 0 1 32 32v149.162667a74.666667 74.666667 0 0 1-74.666667 74.666666H224a74.666667 74.666667 0 0 1-74.666667-74.666666V480a32 32 0 0 1 32-32zM567.594667 431.829333l51.072 51.072v-2.901333a32 32 0 0 1 32-32h191.957333a32 32 0 0 1 32 32v149.162667a74.666667 74.666667 0 0 1-42.368 67.328l46.677333 46.677333a138.496 138.496 0 0 0 59.690667-114.005333V480c0-22.613333-7.808-43.392-20.864-59.733333a31.914667 31.914667 0 0 0-5.205333-7.637334l-155.392-168.405333-5.674667-5.632A96 96 0 0 0 686.634667 213.333333h-57.429334l-4.352 0.298667a32 32 0 0 0 4.352 63.701333h57.429334l4.394666 0.298667a32 32 0 0 1 19.114667 9.984L799.018667 384H650.666667c-35.456 0-66.432 19.285333-83.072 47.872z" /></svg>