<svg class="icon" style="width: 1em;height: 1em;vertical-align: middle;fill: currentColor;overflow: hidden;" viewBox="0 0 1024 1024" version="1.1" xmlns="http://www.w3.org/2000/svg"><path d="M512 85.290667c234.112 0 424.192 188.544 426.666667 422.058666a258.730667 258.730667 0 0 1-65.066667-24.149333 362.069333 362.069333 0 0 0-8.96-56.576h-82.858667a69.034667 69.034667 0 0 0-27.648 0h-32.810666c0.512 5.248 0.981333 10.496 1.365333 15.786667a335.274667 335.274667 0 0 1-61.781333 41.557333c-0.682667-19.626667-2.005333-38.741333-4.010667-57.301333H367.104a809.301333 809.301333 0 0 0 5.76 213.333333H512v64H386.56c27.861333 102.997333 76.202667 170.752 125.44 170.752 11.776 0 23.509333-3.882667 34.944-11.221333a296.021333 296.021333 0 0 0 51.072 66.56c-27.818667 5.674667-56.576 8.661333-86.016 8.661333-235.690667 0-426.752-191.061333-426.752-426.709333C85.248 276.352 276.309333 85.248 512 85.248zM320.341333 704.042667H204.16a364.032 364.032 0 0 0 174.72 145.493333c-22.314667-34.986667-40.704-78.762667-54.186667-128.64l-4.352-16.853333zM302.634667 426.666667H159.36l-0.170667 0.725333a363.690667 363.690667 0 0 0-9.941333 84.650667c0 45.056 8.234667 88.192 23.253333 128h135.381334a866.176 866.176 0 0 1-9.301334-128c0-29.184 1.408-57.770667 4.053334-85.376z m76.288-252.16l-0.981334 0.341333A363.989333 363.989333 0 0 0 181.333333 362.666667h130.048c13.354667-74.752 36.693333-139.861333 67.541334-188.16zM512 149.290667l-4.949333 0.213333C453.034667 154.453333 400.896 239.872 376.661333 362.666667h270.634667c-24.149333-122.453333-76.117333-207.744-129.92-213.12L512 149.333333z m133.12 25.173333l4.522667 7.466667c28.586667 47.445333 50.261333 109.738667 62.933333 180.778666h130.048a364.074667 364.074667 0 0 0-185.088-183.04l-12.416-5.162666z m314.88 379.221333c-81.365333-7.338667-146.517333-54.912-175.573333-79.786666a25.642667 25.642667 0 0 0-32.853334 0c-29.098667 24.874667-94.293333 72.448-175.616 79.786666a22.954667 22.954667 0 0 0-21.333333 22.314667V725.333333c0 180.181333 174.677333 243.882667 207.914667 254.378667a17.92 17.92 0 0 0 10.88 0c33.28-10.496 207.872-74.24 207.872-254.378667v-149.333333a22.954667 22.954667 0 0 0-21.333334-22.314667z" /></svg>