<svg class="icon" style="width: 1em;height: 1em;vertical-align: middle;fill: currentColor;overflow: hidden;" viewBox="0 0 1024 1024" version="1.1" xmlns="http://www.w3.org/2000/svg"><path d="M746.666667 512a234.666667 234.666667 0 1 1 0 469.333333 234.666667 234.666667 0 0 1 0-469.333333zM512.085333 85.333333c235.648 0 426.709333 191.061333 426.709334 426.752 0 11.221333-0.426667 22.357333-1.28 33.365334a278.101333 278.101333 0 0 0-62.976-44.928l0.170666 7.552-0.341333-13.568a362.368 362.368 0 0 0-9.685333-67.84l-0.597334 0.042666h-142.677333c1.365333 14.293333 2.432 28.8 3.114667 43.52a274.304 274.304 0 0 0-63.616 12.629334c-0.64-19.242667-1.962667-37.973333-3.882667-56.149334H367.146667a809.216 809.216 0 0 0 5.76 213.333334h117.674666c-8.448 20.266667-14.549333 41.685333-18.005333 64H386.688c25.514667 94.549333 68.352 159.36 113.28 169.386666 12.074667 23.509333 27.434667 45.056 45.482667 64.085334-11.008 0.853333-22.186667 1.28-33.365334 1.28C276.394667 938.794667 85.333333 747.733333 85.333333 512.085333 85.333333 276.394667 276.394667 85.333333 512.085333 85.333333zM746.666667 597.333333l-3.84 0.298667a21.333333 21.333333 0 0 0-17.152 17.152L725.333333 618.666667V725.333333L618.581333 725.333333l-3.84 0.341334a21.333333 21.333333 0 0 0-17.152 17.152l-0.341333 3.84 0.341333 3.84a21.333333 21.333333 0 0 0 17.152 17.152l3.84 0.341333H725.333333v106.794667l0.341334 3.84a21.333333 21.333333 0 0 0 17.152 17.152l3.84 0.341333 3.84-0.341333a21.333333 21.333333 0 0 0 17.152-17.152l0.341333-3.84V768l106.837333 0.042667 3.84-0.341334a21.333333 21.333333 0 0 0 17.152-17.152l0.341334-3.84-0.341334-3.84a21.333333 21.333333 0 0 0-17.194666-17.152l-3.84-0.341333H768v-106.666667l-0.341333-3.84a21.333333 21.333333 0 0 0-17.152-17.194666L746.666667 597.333333z m-426.24 106.752H204.245333a363.989333 363.989333 0 0 0 174.72 145.493334c-24.746667-38.826667-44.714667-88.576-58.538666-145.493334zM159.445333 426.666667l-0.170666 0.725333a363.733333 363.733333 0 0 0-9.941334 84.650667c0 45.056 8.234667 88.192 23.253334 128h135.381333a866.133333 866.133333 0 0 1-9.301333-128c0-29.184 1.365333-57.770667 4.053333-85.376H159.445333z m219.562667-252.16l-0.981333 0.341333a363.989333 363.989333 0 0 0-196.608 187.818667H311.466667c13.354667-74.752 36.693333-139.861333 67.541333-188.16z m133.077333-25.216l-4.949333 0.213333c-53.973333 4.949333-106.154667 90.368-130.389333 213.162667h270.634666C622.421333 236.16 567.808 149.333333 512.085333 149.333333z m133.12 25.173333l4.522667 7.466667c28.586667 47.445333 50.261333 109.738667 62.933333 180.778666h130.048a363.989333 363.989333 0 0 0-197.546666-188.202666z" /></svg>