<svg class="icon" style="width: 1em;height: 1em;vertical-align: middle;fill: currentColor;overflow: hidden;" viewBox="0 0 1024 1024" version="1.1" xmlns="http://www.w3.org/2000/svg"><path d="M938.794667 512.085333C938.794667 276.394667 747.733333 85.333333 512.085333 85.333333 276.394667 85.333333 85.333333 276.394667 85.333333 512.085333c0 235.648 191.061333 426.709333 426.752 426.709334 11.221333 0 22.357333-0.426667 33.322667-1.28a277.589333 277.589333 0 0 1-45.44-64.085334c-44.928-10.026667-87.765333-74.837333-113.28-169.386666h85.888c3.456-22.314667 9.557333-43.776 18.005333-64H372.906667a809.216 809.216 0 0 1-5.76-213.333334h289.834666c1.962667 18.176 3.285333 36.906667 3.925334 56.149334a274.304 274.304 0 0 1 63.573333-12.629334 869.546667 869.546667 0 0 0-3.072-43.52H864.682667c5.290667 21.888 8.576 44.544 9.685333 67.84l0.341333 13.525334-0.170666-7.552c23.082667 11.989333 44.245333 27.178667 62.976 44.928 0.853333-11.008 1.28-22.186667 1.28-33.365334z m-734.549334 192H320.426667c13.824 56.917333 33.749333 106.666667 58.538666 145.493334a363.989333 363.989333 0 0 1-174.72-145.493334z m-44.970666-276.650666l0.170666-0.725334h143.274667A889.386667 889.386667 0 0 0 298.666667 512c0 44.501333 3.2 87.509333 9.301333 128H172.586667a361.941333 361.941333 0 0 1-23.253334-128c0-29.098667 3.413333-57.429333 9.941334-84.608zM378.026667 174.933333l0.981333-0.341333C348.16 222.848 324.821333 287.957333 311.466667 362.666667H181.418667c38.570667-85.333333 109.226667-153.045333 196.608-187.818667z m129.109333-25.344l4.949333-0.213333c55.722667 0 110.336 86.826667 135.253334 213.376H376.746667c24.234667-122.794667 76.373333-208.213333 130.389333-213.162667z m142.592 32.426667l-4.522667-7.424a363.989333 363.989333 0 0 1 197.546667 188.16h-130.090667c-12.672-70.997333-34.346667-133.290667-62.933333-180.736zM981.333333 746.666667a234.666667 234.666667 0 1 0-469.333333 0 234.666667 234.666667 0 0 0 469.333333 0z m-234.666666 0h85.333333a21.333333 21.333333 0 0 1 0 42.666666H725.333333a21.333333 21.333333 0 0 1-21.333333-20.949333v-128.426667a21.333333 21.333333 0 0 1 42.666667 0V746.666667z" /></svg>