<svg class="icon" style="width: 1em;height: 1em;vertical-align: middle;fill: currentColor;overflow: hidden;" viewBox="0 0 1024 1024" version="1.1" xmlns="http://www.w3.org/2000/svg"><path d="M512 85.290667c235.690667 0 426.752 191.061333 426.752 426.752 0 28.288-2.773333 55.978667-8.021333 82.773333a128.426667 128.426667 0 0 0-56.32-66.56A363.648 363.648 0 0 0 864.597333 426.666667h-143.274666a889.6 889.6 0 0 1 3.456 117.76A127.658667 127.658667 0 0 0 682.666667 639.274667c0 25.258667 7.338667 48.853333 20.010666 68.693333-1.408 5.674667-2.901333 11.264-4.437333 16.768a106.666667 106.666667 0 0 0-88.661333 56.832c10.624-22.613333 20.053333-48.725333 27.818666-77.610667H386.602667c27.818667 102.997333 76.202667 170.752 125.44 170.752 33.92 0 67.498667-32.256 94.165333-86.144a106.325333 106.325333 0 0 0-8.874667 42.666667 187.733333 187.733333 0 0 0 23.722667 93.44c-34.816 9.173333-71.338667 14.08-109.056 14.08C276.309333 938.752 85.333333 747.648 85.333333 512 85.290667 276.352 276.309333 85.290667 512 85.290667zM320.341333 704.042667H204.202667a364.032 364.032 0 0 0 174.677333 145.493333c-22.272-34.986667-40.661333-78.762667-54.186667-128.64l-4.352-16.853333zM302.677333 426.666667H159.402667l-0.213334 0.725333a363.690667 363.690667 0 0 0-9.898666 84.650667c0 45.056 8.192 88.192 23.210666 128h135.381334A866.133333 866.133333 0 0 1 298.666667 512c0-29.184 1.365333-57.770667 4.053333-85.376z m64.426667 0a809.344 809.344 0 0 0 5.717333 213.333333h278.357334a809.557333 809.557333 0 0 0 5.76-213.333333H367.061333z m11.818667-252.16l-0.981334 0.341333A363.989333 363.989333 0 0 0 181.333333 362.666667h130.048c13.397333-74.752 36.693333-139.861333 67.541334-188.16z m133.12-25.216l-4.992 0.213333C453.12 154.453333 400.938667 239.872 376.746667 362.666667h270.592c-24.149333-122.453333-76.074667-207.744-129.92-213.12L512 149.333333z m133.12 25.173333l4.522666 7.466667c28.586667 47.445333 50.218667 109.738667 62.933334 180.778666h130.048a364.074667 364.074667 0 0 0-185.130667-183.04l-12.373333-5.162666zM917.333333 767.36a64 64 0 0 1 64 64c0 47.616-19.584 85.76-51.712 111.530667-31.616 25.386667-74.026667 37.802667-118.954666 37.802666-44.928 0-87.338667-12.373333-118.954667-37.802666a137.386667 137.386667 0 0 1-28.842667-31.530667c-14.592-22.144-22.869333-49.066667-22.869333-80a64 64 0 0 1 64-64h213.333333z m-21.333333-128A85.333333 85.333333 0 0 1 725.333333 640v-0.725333a85.333333 85.333333 0 0 1 170.666667 0z" /></svg>