<svg class="icon" style="width: 1em;height: 1em;vertical-align: middle;fill: currentColor;overflow: hidden;" viewBox="0 0 1024 1024" version="1.1" xmlns="http://www.w3.org/2000/svg"><path d="M512 85.290667c235.690667 0 426.752 191.061333 426.752 426.752 0 16.682667-0.981333 33.152-2.858667 49.365333a235.434667 235.434667 0 0 0-61.184-45.141333V512c0-29.397333-3.456-58.026667-10.069333-85.333333h-143.274667c2.133333 22.101333 3.413333 44.8 3.84 67.882666-22.570667 4.181333-43.989333 11.52-63.829333 21.674667v-4.181333c0-29.482667-1.536-58.026667-4.437333-85.376H367.061333a809.344 809.344 0 0 0 5.76 213.333333h176.512a233.130667 233.130667 0 0 0-15.018666 64H386.56c27.818667 102.997333 76.202667 170.752 125.44 170.752 19.370667 0 38.656-10.538667 56.576-29.610667 15.402667 26.282667 35.498667 52.138667 59.690667 77.568-36.992 10.453333-75.989333 16.042667-116.309334 16.042667C276.309333 938.752 85.333333 747.690667 85.333333 512.042667 85.290667 276.352 276.309333 85.290667 512 85.290667zM320.341333 704.042667H204.202667a364.032 364.032 0 0 0 174.677333 145.493333c-22.272-34.986667-40.661333-78.762667-54.186667-128.64l-4.352-16.853333zM302.677333 426.666667H159.402667l-0.213334 0.725333a363.690667 363.690667 0 0 0-9.898666 84.650667c0 45.056 8.192 88.192 23.210666 128h135.381334A866.133333 866.133333 0 0 1 298.666667 512c0-29.184 1.365333-57.770667 4.053333-85.376zM378.88 174.506667l-0.981333 0.341333A363.989333 363.989333 0 0 0 181.333333 362.666667h130.048c13.397333-74.752 36.693333-139.861333 67.541334-188.16z m133.12-25.216l-4.992 0.213333C453.12 154.453333 400.938667 239.872 376.746667 362.666667h270.592c-24.149333-122.453333-76.074667-207.744-129.92-213.12L512 149.333333z m133.12 25.173333l4.522667 7.466667c28.586667 47.445333 50.218667 109.738667 62.933333 180.778666h130.048a364.074667 364.074667 0 0 0-185.130667-183.04l-12.373333-5.162666zM960 725.333333a192 192 0 0 0-384 0c0 79.488 60.586667 162.773333 179.2 251.733334a21.333333 21.333333 0 0 0 25.6 0c118.613333-88.96 179.2-172.245333 179.2-251.733334z m-256 0a64 64 0 1 1 128 0 64 64 0 0 1-128 0z" /></svg>