<svg class="icon" style="width: 1em;height: 1em;vertical-align: middle;fill: currentColor;overflow: hidden;" viewBox="0 0 1024 1024" version="1.1" xmlns="http://www.w3.org/2000/svg"><path d="M146.816 424.746667a210.176 210.176 0 0 0 265.941333 323.029333l181.589334 181.632a32.981333 32.981333 0 0 0 49.877333-42.965333l-3.2-3.712-179.968-179.968a210.218667 210.218667 0 0 0-314.24-278.016z m366.293333-339.498667c-202.922667 0-372.736 141.610667-416.042666 331.392a252.245333 252.245333 0 0 1 95.36-74.24A363.733333 363.733333 0 0 1 379.989333 174.506667l-4.565333 7.424c-22.954667 38.101333-41.429333 85.802667-54.4 139.946666 21.290667 2.133333 42.24 6.997333 62.506667 14.506667 26.965333-112.128 77.781333-187.093333 129.578666-187.093333l4.906667 0.213333c54.016 4.949333 106.154667 90.368 130.389333 213.162667h-213.248a254.08 254.08 0 0 1 66.133334 63.957333l156.757333 0.042667a809.557333 809.557333 0 0 1-5.802667 213.333333h-112.853333a251.52 251.52 0 0 1-12.757333 35.925333l-5.504 11.605334-5.205334 9.770666 6.741334 6.698667h115.84c-8.661333 31.957333-19.242667 60.501333-31.232 84.693333l47.146666 47.232c20.992-36.608 38.058667-81.408 50.346667-131.84l116.138667-0.085333a364.245333 364.245333 0 0 1-159.317334 139.093333l9.6 9.514667 5.333334 5.973333c9.386667 12.629333 14.677333 26.666667 16.128 40.661334A426.752 426.752 0 0 0 939.818667 512c0-235.690667-191.061333-426.752-426.709334-426.752z m-115.712 386.133333a144.213333 144.213333 0 1 1-203.946666 203.946667 144.213333 144.213333 0 0 1 203.946666-203.946667zM722.432 426.666667l143.274667-0.042667 0.341333 1.28c6.4 27.008 9.813333 55.125333 9.813333 84.053333a361.813333 361.813333 0 0 1-23.253333 128l-135.424 0.085334c6.101333-40.533333 9.301333-83.541333 9.301333-128.042667 0-29.184-1.365333-57.728-4.053333-85.333333z m-76.245333-252.202667l0.981333 0.341333A363.946667 363.946667 0 0 1 843.776 362.666667h-130.090667c-13.354667-74.794667-36.693333-139.861333-67.498666-188.16z" /></svg>