<svg class="icon" style="width: 1em;height: 1em;vertical-align: middle;fill: currentColor;overflow: hidden;" viewBox="0 0 1024 1024" version="1.1" xmlns="http://www.w3.org/2000/svg"><path d="M874.666667 448a362.666667 362.666667 0 1 0-725.333334 0 362.666667 362.666667 0 0 0 725.333334 0z m-299.904 229.205333C546.346667 737.578667 519.765333 746.666667 512 746.666667c-7.765333 0-34.346667-9.088-62.762667-69.461334-13.098667-27.861333-24.149333-62.165333-31.872-101.205333h189.269334c-7.722667 39.04-18.773333 73.386667-31.872 101.205333zM405.333333 448c0-22.058667 1.024-43.477333 2.901334-64h207.530666a700.672 700.672 0 0 1 0 128H408.234667a700.714667 700.714667 0 0 1-2.901334-64z m216.32 277.888c22.229333-39.68 39.68-91.136 50.090667-149.888h110.165333a299.733333 299.733333 0 0 1-160.256 149.888zM680.021333 512a767.146667 767.146667 0 0 0 0-128h123.733334a299.776 299.776 0 0 1 0 128h-123.733334zM220.16 512a299.776 299.776 0 0 1 0-128h123.776a767.146667 767.146667 0 0 0 0 128h-123.733333z m132.053333 64c10.453333 58.752 27.861333 110.250667 50.090667 149.888A299.733333 299.733333 0 0 1 242.090667 576h110.165333z m254.378667-256H417.365333c7.722667-39.04 18.773333-73.386667 31.872-101.205333C477.653333 158.421333 504.234667 149.333333 512 149.333333c7.765333 0 34.346667 9.088 62.762667 69.461334 13.098667 27.861333 24.149333 62.165333 31.872 101.205333z m175.274667 0h-110.165334c-10.453333-58.752-27.861333-110.250667-50.090666-149.888A299.733333 299.733333 0 0 1 781.909333 320z m-429.653334 0H242.090667A299.733333 299.733333 0 0 1 402.346667 170.112c-22.229333 39.68-39.68 91.136-50.090667 149.888zM170.666667 682.666667h10.794666a407.466667 407.466667 0 0 0 56.490667 64H194.986667l-35.541334 128h705.109334l-35.541334-128h-42.965333a407.296 407.296 0 0 0 56.490667-64H853.333333a32 32 0 0 1 30.848 23.466666l53.333334 192a32 32 0 0 1-30.848 40.533334H117.333333a32 32 0 0 1-30.848-40.533334l53.333334-192A32 32 0 0 1 170.666667 682.666667z" /></svg>