<svg class="icon" style="width: 1em;height: 1em;vertical-align: middle;fill: currentColor;overflow: hidden;" viewBox="0 0 1024 1024" version="1.1" xmlns="http://www.w3.org/2000/svg"><path d="M512 85.333333c235.690667 0 426.752 191.061333 426.752 426.709334 0 22.741333-1.792 45.056-5.205333 66.858666a66.602667 66.602667 0 0 0-9.045334 5.077334l-40.96 27.306666a106.965333 106.965333 0 0 0-16.768-23.296 364.16 364.16 0 0 0-2.133333-161.322666h-143.274667a889.514667 889.514667 0 0 1 3.072 128h-64.128a822.784 822.784 0 0 0-3.370666-128H367.146667a809.301333 809.301333 0 0 0 5.76 213.376h98.645333c-1.408 6.869333-2.133333 13.994667-2.133333 21.333333v42.666667H386.645333c19.626667 72.704 49.493333 127.872 82.730667 154.026666v59.306667c0 6.613333 0.597333 13.141333 1.792 19.456C254.677333 916.224 85.333333 733.866667 85.333333 512 85.333333 276.394667 276.394667 85.333333 512 85.333333zM320.426667 704.042667H204.202667a363.989333 363.989333 0 0 0 174.677333 145.493333c-22.272-34.986667-40.661333-78.762667-54.186667-128.64l-4.352-16.853333z m-17.706667-277.333334H159.445333l-0.213333 0.725334A363.690667 363.690667 0 0 0 149.333333 512c0 45.056 8.192 88.192 23.210667 128h135.381333A866.133333 866.133333 0 0 1 298.666667 512c0-29.184 1.365333-57.728 4.053333-85.333333z m76.245333-252.16l-0.981333 0.341334a363.946667 363.946667 0 0 0-196.565333 187.818666h130.005333c13.397333-74.752 36.693333-139.861333 67.541333-188.16z m133.077334-25.216l-4.949334 0.213334c-53.973333 4.949333-106.154667 90.368-130.346666 213.162666h270.592c-24.149333-122.453333-76.074667-207.744-129.92-213.12l-5.376-0.256z m133.12 25.173334l4.522666 7.466666c28.586667 47.445333 50.261333 109.738667 62.933334 180.736h130.048a364.074667 364.074667 0 0 0-185.088-183.04l-12.416-5.12zM512 661.333333a64 64 0 0 1 64-64h213.333333a64 64 0 0 1 64 64v21.333334l94.805334-63.189334a21.333333 21.333333 0 0 1 33.152 17.749334v304.213333a21.333333 21.333333 0 0 1-33.152 17.792L853.333333 896v21.333333a64 64 0 0 1-64 64h-213.333333a64 64 0 0 1-64-64v-256z" /></svg>