<svg class="icon" style="width: 1em;height: 1em;vertical-align: middle;fill: currentColor;overflow: hidden;" viewBox="0 0 1024 1024" version="1.1" xmlns="http://www.w3.org/2000/svg"><path d="M938.752 512C938.752 276.352 747.690667 85.333333 512 85.333333 276.309333 85.290667 85.333333 276.352 85.333333 512.042667c0 221.269333 168.405333 403.2 384.042667 424.618666V858.026667c-33.194667-26.112-63.061333-81.28-82.730667-154.026667h82.773334V640H372.778667a809.344 809.344 0 0 1-5.76-213.333333h289.877333c2.901333 27.306667 4.48 55.893333 4.48 85.333333h64c0-29.184-1.408-57.728-4.053333-85.333333h143.274666c6.570667 27.306667 10.112 55.893333 10.112 85.333333h64zM204.202667 704h116.138666l4.352 16.896c13.525333 49.92 31.914667 93.653333 54.186667 128.64a364.032 364.032 0 0 1-174.677333-145.493333zM159.402667 426.666667h143.274666a889.472 889.472 0 0 0-4.053333 85.333333c0 44.501333 3.2 87.509333 9.258667 128H172.501333a361.941333 361.941333 0 0 1-23.210666-128c0-29.098667 3.413333-57.472 9.898666-84.608L159.402667 426.666667z m218.538666-251.818667l0.981334-0.341333C348.16 222.805333 324.736 287.914667 311.381333 362.666667H181.333333c38.613333-85.333333 109.226667-153.045333 196.608-187.818667z m129.109334-25.344L512 149.333333l5.376 0.256c53.845333 5.376 105.813333 90.666667 129.92 213.12H376.746667c24.234667-122.794667 76.373333-208.213333 130.346666-213.162666z m142.634666 32.426667l-4.565333-7.424 12.416 5.162666a364.074667 364.074667 0 0 1 185.130667 183.04h-130.048c-12.714667-71.04-34.389333-133.333333-62.933334-180.778666zM512 810.666667a42.666667 42.666667 0 0 0 42.666667 42.666666h128v85.333334h-21.333334a21.333333 21.333333 0 1 0 0 42.666666h170.666667a21.333333 21.333333 0 0 0 0-42.666666H810.666667v-85.333334h128a42.666667 42.666667 0 0 0 42.666666-42.666666v-213.333334a42.666667 42.666667 0 0 0-42.666666-42.666666h-384a42.666667 42.666667 0 0 0-42.666667 42.666666v213.333334z" /></svg>