<svg class="icon" style="width: 1em;height: 1em;vertical-align: middle;fill: currentColor;overflow: hidden;" viewBox="0 0 1024 1024" version="1.1" xmlns="http://www.w3.org/2000/svg"><path d="M213.333333 298.666667a85.333333 85.333333 0 1 0 0-170.666667 85.333333 85.333333 0 0 0 0 170.666667zM810.666667 298.666667a85.333333 85.333333 0 1 0 0-170.666667 85.333333 85.333333 0 0 0 0 170.666667zM896 810.666667a85.333333 85.333333 0 1 1-170.666667 0 85.333333 85.333333 0 0 1 170.666667 0zM213.333333 896a85.333333 85.333333 0 1 0 0-170.666667 85.333333 85.333333 0 0 0 0 170.666667zM339.584 234.666667a128.853333 128.853333 0 0 0-5.546667-64H533.333333A106.666667 106.666667 0 0 1 640 277.333333V384h106.666667a106.666667 106.666667 0 0 1 106.666666 106.666667v199.253333a127.872 127.872 0 0 0-64-5.504V490.666667a42.666667 42.666667 0 0 0-42.666666-42.666667H640v85.333333a106.666667 106.666667 0 0 1-106.666667 106.666667h-85.333333v106.666667a42.666667 42.666667 0 0 0 42.666667 42.666666h193.749333a128.768 128.768 0 0 0 5.546667 64H490.666667A106.666667 106.666667 0 0 1 384 746.666667V640H277.333333A106.666667 106.666667 0 0 1 170.666667 533.333333V334.08a127.786667 127.786667 0 0 0 64 5.504V533.333333a42.666667 42.666667 0 0 0 42.666666 42.666667H384v-85.333333A106.666667 106.666667 0 0 1 490.666667 384h85.333333V277.333333a42.666667 42.666667 0 0 0-42.666667-42.666666H339.584z m193.749333 341.333333a42.666667 42.666667 0 0 0 42.666667-42.666667v-85.333333h-85.333333a42.666667 42.666667 0 0 0-42.666667 42.666667v85.333333h85.333333z" /></svg>