<svg class="icon" style="width: 1em;height: 1em;vertical-align: middle;fill: currentColor;overflow: hidden;" viewBox="0 0 1024 1024" version="1.1" xmlns="http://www.w3.org/2000/svg"><path d="M117.461333 511.829333l106.666667 0.469334a32 32 0 0 1 4.053333 63.744l-4.352 0.256-74.496-0.384v234.709333L224 810.666667a32 32 0 0 1 31.658667 27.648L256 842.666667a32 32 0 0 1-27.648 31.701333l-4.352 0.298667h-106.666667a32 32 0 0 1-31.658666-27.648L85.333333 842.666667v-298.837334a32 32 0 0 1 27.776-31.744l4.352-0.256zM906.453333 746.666667a32 32 0 0 1 4.352 63.701333l-4.352 0.298667H330.581333a32 32 0 0 1-4.309333-63.701334l4.309333-0.298666h575.872z m0-170.666667a32 32 0 0 1 4.352 63.701333l-4.352 0.298667H330.581333a32 32 0 0 1-4.309333-63.701333l4.309333-0.298667h575.872zM117.461333 106.666667l106.666667 0.469333a32 32 0 0 1 4.053333 63.744l-4.352 0.256L149.333333 170.794667v234.325333h74.666667a32 32 0 0 1 31.658667 27.648l0.298666 4.352a32 32 0 0 1-27.648 31.701333l-4.352 0.298667h-106.666666a32 32 0 0 1-31.658667-27.648L85.333333 437.12V138.666667a32 32 0 0 1 27.776-31.744l4.352-0.256z m788.992 234.837333a32 32 0 0 1 4.352 63.701333l-4.352 0.298667H330.581333a32 32 0 0 1-4.309333-63.701333l4.309333-0.298667h575.872z m0.213334-170.666667a32 32 0 0 1 4.352 63.701334l-4.352 0.298666H330.837333a32 32 0 0 1-4.352-63.701333l4.352-0.298667H906.666667z" /></svg>