<svg class="icon" style="width: 1em;height: 1em;vertical-align: middle;fill: currentColor;overflow: hidden;" viewBox="0 0 1024 1024" version="1.1" xmlns="http://www.w3.org/2000/svg"><path d="M298.666667 213.333333a85.333333 85.333333 0 1 1-170.666667 0 85.333333 85.333333 0 0 1 170.666667 0z m597.333333 0a85.333333 85.333333 0 1 1-170.666667 0 85.333333 85.333333 0 0 1 170.666667 0zM298.666667 810.666667a85.333333 85.333333 0 1 1-170.666667 0 85.333333 85.333333 0 0 1 170.666667 0zM341.333333 213.333333c0 7.253333-0.597333 14.378667-1.749333 21.333334H533.333333a42.666667 42.666667 0 0 1 42.666667 42.666666V384h-85.333333A106.666667 106.666667 0 0 0 384 490.666667v85.333333H277.333333a42.666667 42.666667 0 0 1-42.666666-42.666667V339.584a128.853333 128.853333 0 0 1-64-5.546667V533.333333A106.666667 106.666667 0 0 0 277.333333 640H384v106.666667a106.666667 106.666667 0 0 0 106.581333 106.666666 275.242667 275.242667 0 0 1-18.602666-68.266666 42.666667 42.666667 0 0 1-23.978667-38.4v-256a42.666667 42.666667 0 0 1 42.666667-42.666667h256a42.666667 42.666667 0 0 1 38.4 23.978667c23.850667 3.285333 46.72 9.642667 68.266666 18.602666A106.666667 106.666667 0 0 0 746.666667 384H640V277.333333A106.666667 106.666667 0 0 0 533.333333 170.666667H334.08c4.693333 13.354667 7.253333 27.733333 7.253333 42.666666z m640 533.333334a234.666667 234.666667 0 1 1-469.333333 0 234.666667 234.666667 0 0 1 469.333333 0zM670.165333 682.666667l27.605334-27.562667a21.333333 21.333333 0 0 0-30.208-30.208l-64 64a21.333333 21.333333 0 0 0 0 30.208l64 64a21.333333 21.333333 0 0 0 30.208-30.208L670.165333 725.333333h87.168A96 96 0 0 1 853.333333 821.333333v10.666667a21.333333 21.333333 0 0 0 42.666667 0v-10.666667A138.666667 138.666667 0 0 0 757.333333 682.666667h-87.168z" /></svg>