<svg class="icon" style="width: 1em;height: 1em;vertical-align: middle;fill: currentColor;overflow: hidden;" viewBox="0 0 1024 1024" version="1.1" xmlns="http://www.w3.org/2000/svg"><path d="M448 213.333333a128 128 0 1 1-256 0 128 128 0 0 1 256 0zM384 213.333333a64 64 0 1 0-128 0 64 64 0 0 0 128 0z m426.666667 106.666667a106.666667 106.666667 0 1 1-213.333334 0 106.666667 106.666667 0 0 1 213.333334 0z m-64 0a42.666667 42.666667 0 1 0-85.333334 0 42.666667 42.666667 0 0 0 85.333334 0z m-175.104 138.666667a117.376 117.376 0 0 0-112.896-85.333334h-256A117.333333 117.333333 0 0 0 85.333333 490.666667v128a85.333333 85.333333 0 0 0 106.666667 82.645333V853.333333a85.333333 85.333333 0 0 0 138.666667 66.602667A85.333333 85.333333 0 0 0 469.333333 853.333333v-152.021333A85.546667 85.546667 0 0 0 573.312 640h2.688v213.333333a85.333333 85.333333 0 0 0 138.666667 66.602667A85.333333 85.333333 0 0 0 853.333333 853.333333v-120.021333a85.333333 85.333333 0 0 0 106.666667-82.645333V576a117.333333 117.333333 0 0 0-117.333333-117.333333h-271.104zM469.333333 618.666667V512a32 32 0 0 0-64 0v341.333333a21.333333 21.333333 0 0 1-42.666666 0v-149.333333a32 32 0 0 0-64 0V853.333333a21.333333 21.333333 0 0 1-42.666667 0v-341.333333a32 32 0 0 0-64 0v106.666667a21.333333 21.333333 0 0 1-42.666667 0v-128c0-29.44 23.893333-53.333333 53.333334-53.333334h256c29.44 0 53.333333 23.893333 53.333333 53.333334v128a21.333333 21.333333 0 0 1-42.666667 0z m106.666667-96h266.666667c29.44 0 53.333333 23.893333 53.333333 53.333333v74.666667a21.333333 21.333333 0 0 1-42.666667 0V597.333333a32 32 0 0 0-64 0v256a21.333333 21.333333 0 0 1-42.666666 0v-106.666666a32 32 0 0 0-64 0V853.333333a21.333333 21.333333 0 0 1-42.666667 0v-245.333333a32 32 0 0 0-32-32h-32v-53.333333z" /></svg>