<svg class="icon" style="width: 1em;height: 1em;vertical-align: middle;fill: currentColor;overflow: hidden;" viewBox="0 0 1024 1024" version="1.1" xmlns="http://www.w3.org/2000/svg"><path d="M586.794667 85.333333c49.408 0 90.069333 37.333333 95.317333 85.333334h75.221333a96 96 0 0 1 95.786667 89.429333L853.333333 266.666667v576.213333a96 96 0 0 1-89.429333 95.744l-6.570667 0.256H266.666667a96 96 0 0 1-95.786667-89.429333L170.666667 842.88V266.666667a96 96 0 0 1 89.429333-95.786667L266.666667 170.666667h75.221333a95.872 95.872 0 0 1 95.317333-85.333334h149.589334z m0 191.701334h-149.589334c-33.152 0-62.336-16.768-79.573333-42.325334L266.666667 234.666667a32 32 0 0 0-31.701334 27.648L234.666667 266.666667v576.213333c0 16.213333 12.032 29.568 27.648 31.701333l4.352 0.298667h490.666666a32 32 0 0 0 31.701334-27.690667l0.298666-4.309333V266.666667a32 32 0 0 0-27.648-31.701334L757.333333 234.666667h-90.965333a95.744 95.744 0 0 1-79.573333 42.368z m42.538666 320.085333c29.44 0 53.333333 23.893333 53.333334 53.333333v21.333334c0 78.762667-62.805333 117.504-170.666667 117.504s-170.666667-38.784-170.666667-117.589334v-21.248c0-29.44 23.893333-53.333333 53.333334-53.333333h234.666666z m-10.666666 64h-213.333334v10.581333c0 35.285333 29.653333 53.589333 106.666667 53.589334 77.013333 0 106.666667-18.261333 106.666667-53.504v-10.666667z m-106.666667-320a106.666667 106.666667 0 1 1 0 213.333333 106.666667 106.666667 0 0 1 0-213.333333z m0 64a42.666667 42.666667 0 1 0 0 85.333333 42.666667 42.666667 0 0 0 0-85.333333zM586.794667 149.333333h-149.589334a31.872 31.872 0 1 0 0 63.701334h149.589334a31.872 31.872 0 1 0 0-63.701334z" /></svg>