<svg class="icon" style="width: 1em;height: 1em;vertical-align: middle;fill: currentColor;overflow: hidden;" viewBox="0 0 1024 1024" version="1.1" xmlns="http://www.w3.org/2000/svg"><path d="M544.128 85.333333c49.408 0 90.069333 37.333333 95.317333 85.333334h75.221334a96 96 0 0 1 95.786666 89.429333L810.666667 266.666667v210.090666A278.186667 278.186667 0 0 0 746.666667 469.333333V266.666667a32 32 0 0 0-27.648-31.701334L714.666667 234.666667h-90.965334a95.744 95.744 0 0 1-79.573333 42.368H394.538667c-33.152 0-62.336-16.768-79.573334-42.325334L224 234.666667a32 32 0 0 0-31.701333 27.648L192 266.666667v576.213333c0 16.213333 12.032 29.568 27.648 31.701333l4.352 0.298667h276.693333a278.144 278.144 0 0 0 46.037334 64H224a96 96 0 0 1-95.786667-89.429333L128 842.88V266.666667a96 96 0 0 1 89.429333-95.786667L224 170.666667h75.221333a95.872 95.872 0 0 1 95.317334-85.333334h149.589333z m0 64H394.538667a31.872 31.872 0 0 0 0 63.701334h149.589333a31.872 31.872 0 1 0 0-63.701334zM352 597.12h161.066667a276.138667 276.138667 0 0 0-30.293334 64H362.666667v10.581333c0 35.285333 29.653333 53.589333 106.666666 53.589334h0.810667a281.173333 281.173333 0 0 0 2.432 64H469.333333c-107.861333 0-170.666667-38.784-170.666666-117.589334v-21.248c0-29.44 23.893333-53.333333 53.333333-53.333333zM469.333333 341.162667a106.666667 106.666667 0 1 1 0 213.333333 106.666667 106.666667 0 0 1 0-213.333333z m0 64a42.666667 42.666667 0 1 0 0 85.333333 42.666667 42.666667 0 0 0 0-85.333333zM981.333333 746.666667a234.666667 234.666667 0 1 0-469.333333 0 234.666667 234.666667 0 0 0 469.333333 0z m-213.333333 21.333333l0.042667 106.794667a21.333333 21.333333 0 1 1-42.666667 0V768h-106.88a21.333333 21.333333 0 1 1 0-42.666667H725.333333v-106.666666a21.333333 21.333333 0 1 1 42.666667 0V725.333333h106.794667a21.333333 21.333333 0 1 1 0 42.666667h-106.752z" /></svg>