<svg class="icon" style="width: 1em;height: 1em;vertical-align: middle;fill: currentColor;overflow: hidden;" viewBox="0 0 1024 1024" version="1.1" xmlns="http://www.w3.org/2000/svg"><path d="M496.384 600.96a53.333333 53.333333 0 1 1-75.434667-75.392 53.333333 53.333333 0 0 1 75.434667 75.392z m277.845333-485.077333a74.666667 74.666667 0 0 1 105.6 0l30.165334 30.165333a74.666667 74.666667 0 0 1 0 105.6l-217.6 217.6a117.418667 117.418667 0 0 1-44.885334 170.624l-35.498666 17.749333a25.941333 25.941333 0 0 0-13.866667 28.330667l0.64 3.072a200.874667 200.874667 0 0 1-76.458667 200.106667 257.152 257.152 0 0 1-336.128-23.893334l-25.557333-25.557333a257.152 257.152 0 0 1-23.893333-336.128 200.874667 200.874667 0 0 1 200.106666-76.416l3.072 0.597333c11.52 2.304 23.082667-3.413333 28.330667-13.824l17.749333-35.541333a117.418667 117.418667 0 0 1 170.581334-44.842667l217.642666-217.6z m60.330667 45.226666a10.666667 10.666667 0 0 0-15.061333 0l-50.56 50.56 45.226666 45.269334 50.56-50.56a10.666667 10.666667 0 0 0 0-15.061334l-30.165333-30.165333z m-65.621333 141.098667l-45.226667-45.226667-142.976 142.933334a32 32 0 0 1-45.269333 0l-6.826667-6.826667a53.333333 53.333333 0 0 0-85.376 13.909333l-17.792 35.498667a89.941333 89.941333 0 0 1-98.090667 48l-3.072-0.64a136.874667 136.874667 0 0 0-136.362666 52.096 193.152 193.152 0 0 0 17.962666 252.501333l25.557334 25.514667a193.152 193.152 0 0 0 252.458666 17.92 136.874667 136.874667 0 0 0 52.053334-136.32l-0.597334-3.072a89.941333 89.941333 0 0 1 48-98.133333l35.541334-17.749334a53.333333 53.333333 0 0 0 13.824-85.418666l-6.784-6.784a32 32 0 0 1 0-45.226667l142.976-142.976z" /></svg>