<svg class="icon" style="width: 1em;height: 1em;vertical-align: middle;fill: currentColor;overflow: hidden;" viewBox="0 0 1024 1024" version="1.1" xmlns="http://www.w3.org/2000/svg"><path d="M522.24 126.464a31.914667 31.914667 0 0 0-24.746667 11.776l-2.474666 1.834667a268.586667 268.586667 0 0 0-267.349334 66.261333 264.32 264.32 0 0 0-74.069333 235.093333l-0.64 0.64-40.874667 40.576a89.941333 89.941333 0 0 0 0 127.786667 91.136 91.136 0 0 0 76.501334 25.642667 90.837333 90.837333 0 0 0 80.341333 66.474666 90.88 90.88 0 0 0 86.058667 82.858667c1.109333 21.632 9.941333 42.88 26.538666 59.349333 32.426667 32.256 83.285333 35.029333 118.912 8.405334l16.512 16.384a91.776 91.776 0 0 0 129.194667 0c15.786667-15.701333 24.618667-35.754667 26.453333-56.234667a90.794667 90.794667 0 0 0 82.773334-82.432 90.794667 90.794667 0 0 0 79.786666-68.437333 91.136 91.136 0 0 0 75.093334-25.856 89.941333 89.941333 0 0 0 0-127.744l-35.541334-35.370667 7.338667-28.416a253.952 253.952 0 0 0-22.4-183.594667 256.853333 256.853333 0 0 0-226.261333-134.826666h-68.565334a181.376 181.376 0 0 0-8.789333-0.170667h-33.749333z m124.8 210.986667l147.797333 146.858666 0.128 0.170667 0.597334 0.554667 69.333333 68.906666a26.453333 26.453333 0 0 1 0 37.546667 26.88 26.88 0 0 1-37.802667 0l-69.333333-68.906667a32.256 32.256 0 0 0-45.397333 0l-0.682667 0.725334a31.744 31.744 0 0 0 0 45.098666l54.016 53.717334a26.453333 26.453333 0 0 1 0 37.546666 26.88 26.88 0 0 1-34.944 2.56 32.256 32.256 0 0 0-42.112 2.986667 31.744 31.744 0 0 0-2.645333 41.898667 26.453333 26.453333 0 0 1-2.346667 34.944 26.88 26.88 0 0 1-35.413333 2.133333 32.256 32.256 0 0 0-42.453334 2.432 31.744 31.744 0 0 0-2.730666 42.197333 26.88 26.88 0 0 1-2.304 35.584 27.306667 27.306667 0 0 1-38.4 0l-15.872-15.744 4.48-4.48a89.941333 89.941333 0 0 0 0-127.744 90.88 90.88 0 0 0-59.733334-26.368 90.837333 90.837333 0 0 0-83.370666-85.504 89.770667 89.770667 0 0 0-26.325334-56.490666 91.136 91.136 0 0 0-76.501333-25.642667 91.008 91.008 0 0 0-90.368-66.773333A200.746667 200.746667 0 0 1 273.066667 251.392a203.392 203.392 0 0 1 152.789333-58.88L361.984 240.853333a98.730667 98.730667 0 0 0-18.773333 138.794667 99.541333 99.541333 0 0 0 139.008 18.816l80.597333-61.056h84.224zM400.597333 291.925333l133.930667-101.461333h21.504a117.418667 117.418667 0 0 1 7.978667 0.213333h69.376a192.853333 192.853333 0 0 1 169.898666 101.12c21.12 39.253333 27.733333 84.394667 18.944 127.786667L685.226667 283.221333a32 32 0 0 0-22.997334-9.770666h-110.122666a32 32 0 0 0-19.328 6.485333l-89.173334 67.541333a35.541333 35.541333 0 0 1-49.578666-6.698666 34.730667 34.730667 0 0 1 6.613333-48.853334z m-143.104 339.413334a26.453333 26.453333 0 0 1 0-37.546667l40.832-40.618667a26.88 26.88 0 0 1 37.802667 0 26.453333 26.453333 0 0 1 0.341333 37.205334l-0.341333 0.341333-40.832 40.576-0.384 0.384a26.88 26.88 0 0 1-37.418667-0.341333z m-20.949333-143.744a26.368 26.368 0 0 1-0.426667 37.12l-40.832 40.618666a26.88 26.88 0 0 1-37.802666 0 26.453333 26.453333 0 0 1 0-37.546666l40.874666-40.576a26.88 26.88 0 0 1 37.802667 0l0.384 0.384z m228.181333 312.064a26.88 26.88 0 0 1-37.802666 0 26.453333 26.453333 0 0 1 0-37.546667l40.832-40.576a26.88 26.88 0 0 1 37.802666 0 26.453333 26.453333 0 0 1 0 37.546667l-40.832 40.576z m-86.229333-85.674667a26.837333 26.837333 0 0 1-37.802667 0 26.453333 26.453333 0 0 1-0.384-37.205333l0.384-0.341334 40.832-40.576 0.341334-0.384a26.88 26.88 0 0 1 37.461333 0.384 26.453333 26.453333 0 0 1 0 37.546667l-40.832 40.576z" /></svg>