<svg class="icon" style="width: 1em;height: 1em;vertical-align: middle;fill: currentColor;overflow: hidden;" viewBox="0 0 1024 1024" version="1.1" xmlns="http://www.w3.org/2000/svg"><path d="M511.914667 170.538667v266.794666a32 32 0 0 0 64 0V222.848c0-10.197333 8.704-20.266667 21.248-20.352a22.485333 22.485333 0 0 1 21.504 21.504v320a32 32 0 0 0 55.253333 21.973333l0.170667-0.128a83.541333 83.541333 0 0 1 5.290666-5.077333 188.586667 188.586667 0 0 1 17.109334-13.653333c15.018667-10.666667 34.56-21.162667 55.594666-24.832 22.912-4.010667 44.672-1.578667 59.093334 5.888a34.944 34.944 0 0 1 19.029333 22.528l-70.784 53.205333a32.597333 32.597333 0 0 0-3.413333 2.944l-92.757334 92.714667a523.306667 523.306667 0 0 0-98.261333 136.277333c-11.946667 23.808-36.266667 38.869333-62.933333 38.869333H385.706667c-24.362667 0-45.568-11.648-56.533334-30.421333C297.728 790.528 256 704 256 629.504V298.666667a21.333333 21.333333 0 0 1 21.376-21.333334c12.373333 0 21.461333 9.813333 21.461333 21.333334v149.333333a32 32 0 0 0 64 0V224c0-11.861333 9.173333-21.504 21.162667-21.504 12.245333 0 21.333333 9.6 21.333333 21.504v213.333333a32 32 0 0 0 64 0V170.538667c0-11.648 9.045333-21.333333 21.290667-21.333334 12.373333 0 21.333333 9.514667 21.333333 21.333334z m84.864-32.042667a86.528 86.528 0 0 0-25.6 3.968l25.6-3.968z m-25.6 3.968a84.352 84.352 0 0 0-80.64-57.258667c-39.04 0-69.205333 25.002667-80.426667 57.216A86.698667 86.698667 0 0 0 384 138.496c-47.317333 0-80.896 36.522667-84.778667 77.568A87.168 87.168 0 0 0 277.333333 213.333333C227.456 213.333333 192 254.293333 192 298.666667v330.837333c0 93.013333 49.962667 192.469333 81.834667 247.04 23.765333 40.704 67.413333 62.165333 111.829333 62.165333h116.394667a134.357333 134.357333 0 0 0 120.192-74.24 459.264 459.264 0 0 1 86.186666-119.637333l91.264-91.136L883.2 590.933333a32 32 0 0 0 12.757333-25.6c0-45.312-22.656-77.098667-55.466666-94.037333-30.506667-15.786667-67.456-17.664-99.498667-12.074667a190.464 190.464 0 0 0-58.368 21.12V224c0-45.226667-37.888-85.76-85.888-85.504" /></svg>