<svg class="icon" style="width: 1em;height: 1em;vertical-align: middle;fill: currentColor;overflow: hidden;" viewBox="0 0 1024 1024" version="1.1" xmlns="http://www.w3.org/2000/svg"><path d="M827.946667 110.805333c13.482667 10.794667 25.386667 27.136 25.386666 49.152 0 33.493333-21.333333 55.296-45.568 68.010667-23.253333 12.202667-53.674667 18.901333-85.76 22.954667-61.866667 7.808-142.72 7.125333-221.226666 6.485333l-10.368-0.085333c-83.456-0.682667-163.370667-0.896-222.378667 7.850666-29.781333 4.394667-50.773333 10.624-63.573333 18.048-11.434667 6.613333-12.458667 11.52-12.458667 15.36L192.042667 298.666667c0.213333 0.426667 0.981333 1.664 3.2 3.584 4.693333 4.138667 13.397333 9.045333 27.136 13.909333 27.221333 9.685333 65.450667 16.042667 106.069333 19.968 4.266667 0.426667 8.576 0.853333 12.885333 1.194667V401.493333a1069.952 1069.952 0 0 1-19.072-1.706666c-42.069333-4.053333-86.528-11.008-121.301333-23.338667-17.28-6.144-34.432-14.378667-47.786667-25.984C139.306667 338.389333 128 321.066667 128 298.666667c0-33.450667 19.712-56.533333 44.373333-70.826667 23.381333-13.568 54.016-21.248 86.272-26.026667 64.981333-9.557333 150.4-9.130667 232.277334-8.490666l7.765333 0.085333c80.768 0.64 157.781333 1.28 215.296-5.973333 29.952-3.84 51.2-9.386667 64.085333-16.128 8.277333-4.352 10.496-7.552 11.093334-9.514667a20.650667 20.650667 0 0 0-1.194667-0.981333c-4.181333-3.370667-12.245333-7.594667-25.514667-11.818667-26.24-8.362667-63.573333-13.824-104.96-17.066667-68.053333-5.418667-140.288-4.565333-179.114666-4.096L458.666667 128a32 32 0 0 1 0-64l17.834666-0.170667c38.144-0.426667 114.56-1.408 186.026667 4.266667 42.666667 3.413333 85.930667 9.258667 119.338667 19.925333 16.597333 5.248 33.109333 12.416 46.08 22.784z m-230.826667 287.232C594.261333 340.010667 558.848 298.666667 501.290667 298.666667 441.258667 298.666667 405.333333 343.68 405.333333 405.674667v177.834666l-11.050666-3.413333c-50.816-14.805333-90.624-15.658667-120.576-0.682667-40.661333 20.352-61.610667 56.832-60.544 104.106667a32 32 0 0 0 17.749333 27.989333l100.821333 50.133334 4.138667 2.218666 4.010667 2.517334 80.384 53.589333 8.234666 5.888c18.773333 14.464 33.792 33.194667 43.818667 54.741333l1.237333 2.688 3.370667 6.613334a96 96 0 0 0 97.28 47.914666l103.168-14.805333 7.082667-1.28a96 96 0 0 0 72.064-68.949333l44.714666-167.381334 1.792-7.68a138.666667 138.666667 0 0 0-110.976-164.565333l-94.72-17.194667V405.674667l-0.170666-7.68z m-127.658667 1.578667c1.450667-25.216 12.202667-36.949333 31.829334-36.949333 21.162667 0 32 13.610667 32 43.008v116.992l0.341333 4.565333a32 32 0 0 0 25.941333 26.922667l123.946667 22.570666 2.986667 0.725334a74.666667 74.666667 0 0 1 52.864 91.392L694.613333 836.266667l-1.536 4.522666a32 32 0 0 1-24.832 18.901334l-103.168 14.805333-4.608 0.341333a32 32 0 0 1-28.928-18.517333l-1.28-2.645333-5.162666-10.453334a211.882667 211.882667 0 0 0-69.376-76.501333l-80.384-53.546667-7.424-4.650666-7.722667-4.138667-81.28-40.448 1.621333-5.12c3.84-9.685333 10.922667-16.682667 21.76-22.101333 18.645333-9.344 60.501333-3.328 122.794667 22.357333A32 32 0 0 0 469.333333 629.418667V405.674667l0.170667-6.058667z" /></svg>