<svg class="icon" style="width: 1em;height: 1em;vertical-align: middle;fill: currentColor;overflow: hidden;" viewBox="0 0 1024 1024" version="1.1" xmlns="http://www.w3.org/2000/svg"><path d="M512.085333 170.666667v266.709333a32 32 0 0 1-64 0V222.976a21.034667 21.034667 0 0 0-21.248-20.394667 22.485333 22.485333 0 0 0-21.504 21.504v319.957334a32 32 0 0 1-55.253333 21.973333v-0.042667l-0.170667-0.128a187.136 187.136 0 0 0-22.442666-18.730666c-14.933333-10.624-34.474667-21.12-55.552-24.832-22.912-4.010667-44.672-1.536-59.093334 5.930666a34.944 34.944 0 0 0-19.029333 22.528l70.784 53.205334a31.573333 31.573333 0 0 1 3.413333 2.901333l92.757334 92.714667a523.178667 523.178667 0 0 1 98.261333 136.234666c11.946667 23.850667 36.266667 38.869333 62.933333 38.869334h116.394667c24.362667 0 45.568-11.605333 56.533333-30.421334C726.272 790.485333 768 704 768 629.504V298.752a21.333333 21.333333 0 0 0-21.376-21.333333 21.290667 21.290667 0 0 0-21.461333 21.333333v149.333333a32 32 0 0 1-64 0v-224A21.12 21.12 0 0 0 640 202.581333c-12.245333 0-21.333333 9.642667-21.333333 21.504v213.333334a32 32 0 0 1-64 0V170.581333c0-11.605333-9.045333-21.333333-21.290667-21.333333a20.906667 20.906667 0 0 0-21.333333 21.333333z m-84.864-32.042667c9.045333 0 17.621333 1.450667 25.6 3.968l-25.6-3.968z m25.6 3.968A84.352 84.352 0 0 1 533.461333 85.333333c39.04 0 69.205333 25.002667 80.426667 57.216 8.106667-2.56 16.853333-3.925333 26.112-3.925333 47.274667 0 80.896 36.48 84.778667 77.525333 6.912-1.749333 14.208-2.730667 21.845333-2.730666 49.92 0 85.376 40.96 85.376 85.333333v330.752c0 93.013333-49.962667 192.426667-81.834667 247.04-23.765333 40.618667-67.413333 62.122667-111.829333 62.122667h-116.394667a134.357333 134.357333 0 0 1-120.192-74.24 459.178667 459.178667 0 0 0-86.186666-119.594667L224.256 653.653333 140.8 590.933333a32 32 0 0 1-12.757333-25.6c0-45.226667 22.656-77.056 55.466666-93.994666 30.506667-15.786667 67.498667-17.664 99.498667-12.074667 22.144 3.882667 41.941333 12.117333 58.368 21.12V224.085333c0-45.226667 37.888-85.76 85.888-85.461333" /></svg>