<svg class="icon" style="width: 1em;height: 1em;vertical-align: middle;fill: currentColor;overflow: hidden;" viewBox="0 0 1024 1024" version="1.1" xmlns="http://www.w3.org/2000/svg"><path d="M422.784 157.866667a165.333333 165.333333 0 0 1 178.432 0l344.064 220.544a32 32 0 0 1 0.213333 53.717333L810.666667 520.234667v237.098666a32 32 0 0 1-6.4 19.2l-0.042667 0.042667-0.042667 0.085333-0.128 0.170667-0.384 0.426667-0.64 0.853333a316.928 316.928 0 0 1-70.912 59.776C684.202667 867.413333 611.797333 896 512 896s-172.202667-28.586667-220.117333-58.069333a316.885333 316.885333 0 0 1-53.333334-40.832 226.858667 226.858667 0 0 1-13.482666-14.08 116.010667 116.010667 0 0 1-5.290667-6.4L219.733333 776.533333a32 32 0 0 1-6.4-19.2v-237.098666l-85.333333-55.765334v228.864a32 32 0 0 1-64 0V405.333333a32 32 0 0 1 15.274667-27.306666l343.466666-220.16z m179.626667 498.389333a165.333333 165.333333 0 0 1-180.821334 0L277.333333 562.005333v183.338667a253.184 253.184 0 0 0 48.085334 38.101333C364.202667 807.253333 425.130667 832 512 832s147.797333-24.746667 186.581333-48.597333a253.226667 253.226667 0 0 0 48.085334-38.058667v-183.338667l-144.213334 94.293334z m-35.712-444.544c-33.322667-21.333333-76.074667-21.333333-109.397334 0L154.88 405.589333l301.696 197.12c33.706667 21.973333 77.184 21.973333 110.848 0l301.653333-197.12-302.378666-193.877333z" /></svg>