<svg class="icon" style="width: 1em;height: 1em;vertical-align: middle;fill: currentColor;overflow: hidden;" viewBox="0 0 1024 1024" version="1.1" xmlns="http://www.w3.org/2000/svg"><path d="M309.333333 341.333333a32 32 0 0 1 32 32v117.333334h85.333334V373.333333a32 32 0 0 1 64 0v277.333334a32 32 0 0 1-64 0V554.666667H341.333333v96a32 32 0 0 1-64 0v-277.333334A32 32 0 0 1 309.333333 341.333333zM586.666667 341.333333a32 32 0 0 0-32 32v277.333334c0 17.664 14.336 32 32 32h42.666666A138.666667 138.666667 0 0 0 768 544v-64A138.666667 138.666667 0 0 0 629.333333 341.333333h-42.666666z m32 277.333334v-213.333334h10.666666c41.216 0 74.666667 33.450667 74.666667 74.666667v64a74.666667 74.666667 0 0 1-74.666667 74.666667h-10.666666zM128 266.666667A138.666667 138.666667 0 0 1 266.666667 128h490.666666A138.666667 138.666667 0 0 1 896 266.666667v490.666666A138.666667 138.666667 0 0 1 757.333333 896H266.666667A138.666667 138.666667 0 0 1 128 757.333333V266.666667zM266.666667 192A74.666667 74.666667 0 0 0 192 266.666667v490.666666c0 41.216 33.450667 74.666667 74.666667 74.666667h490.666666a74.666667 74.666667 0 0 0 74.666667-74.666667V266.666667a74.666667 74.666667 0 0 0-74.666667-74.666667H266.666667z" /></svg>