<svg class="icon" style="width: 1em;height: 1em;vertical-align: middle;fill: currentColor;overflow: hidden;" viewBox="0 0 1024 1024" version="1.1" xmlns="http://www.w3.org/2000/svg"><path d="M800 149.376A138.666667 138.666667 0 0 1 938.666667 288.042667v448.128a138.666667 138.666667 0 0 1-138.666667 138.666666H224A138.666667 138.666667 0 0 1 85.333333 736.170667V288a138.666667 138.666667 0 0 1 138.666667-138.666667h576z m0 64H224a74.666667 74.666667 0 0 0-74.666667 74.666667v448.128c0 41.216 33.450667 74.666667 74.666667 74.666666h576a74.666667 74.666667 0 0 0 74.666667-74.666666V288a74.666667 74.666667 0 0 0-74.666667-74.666667zM357.461333 383.744c13.397333 0 24.490667 9.813333 26.410667 22.698667l0.256 3.968v202.752a26.666667 26.666667 0 0 1-53.034667 3.925333l-0.298666-3.925333v-73.984H267.605333v74.666666a26.666667 26.666667 0 0 1-53.034666 3.968l-0.298667-3.925333V411.136a26.666667 26.666667 0 0 1 53.034667-3.968l0.298666 3.968v74.666667h63.146667l0.042667-75.392c0-14.762667 11.946667-26.666667 26.666666-26.666667z m376.448 0.938667a76.970667 76.970667 0 0 1 43.52 140.501333l31.573334 78.208a26.666667 26.666667 0 0 1-47.573334 23.808l-1.92-3.84-34.133333-84.736h-31.658667v74.752c0 32.213333-43.818667 35.242667-52.053333 9.045333l-0.938667-4.394666-0.341333-4.608-0.213333-202.026667c0-13.397333 9.813333-24.490667 22.698666-26.453333l3.968-0.256H733.866667z m-248.576-0.426667a112 112 0 0 1 111.786667 104.96l0.213333 7.04v31.658667a112 112 0 0 1-104.917333 111.786666l-7.082667 0.213334h-32a26.666667 26.666667 0 0 1-26.410666-22.741334L426.666667 613.248V410.922667c0-13.354667 9.813333-24.448 22.698666-26.368l3.968-0.298667h32z m0 53.333333h-5.376v148.949334l5.376 0.042666c30.506667 0 55.594667-23.253333 58.453334-52.992l0.213333-5.674666v-31.658667c0-30.464-23.253333-55.552-52.992-58.368l-5.674667-0.298667z m208.213334 0.426667v47.274667h40.362666a23.637333 23.637333 0 0 0 3.84-46.933334l-3.84-0.341333h-40.405333z" /></svg>