<svg class="icon" style="width: 1em;height: 1em;vertical-align: middle;fill: currentColor;overflow: hidden;" viewBox="0 0 1024 1024" version="1.1" xmlns="http://www.w3.org/2000/svg"><path d="M149.333333 512a362.666667 362.666667 0 0 1 725.333334 0v85.333333h-96a32 32 0 0 0-32 32v277.333334c0 17.664 14.336 32 32 32H810.666667a128 128 0 0 0 128-128v-298.666667c0-235.648-191.018667-426.666667-426.666667-426.666667S85.333333 276.352 85.333333 512v298.666667a128 128 0 0 0 128 128h32a32 32 0 0 0 32-32v-277.333334a32 32 0 0 0-32-32H149.333333v-85.333333z m725.333334 149.333333V810.666667a64 64 0 0 1-64 64v-213.333334h64zM149.333333 810.666667v-149.333334H213.333333v213.333334A64 64 0 0 1 149.333333 810.666667z m394.666667-309.333334a32 32 0 0 0-64 0v448a32 32 0 0 0 64 0v-448z m-170.666667 96a32 32 0 0 1 32 32v192a32 32 0 0 1-64 0v-192a32 32 0 0 1 32-32z m309.333334 32a32 32 0 0 0-64 0v192a32 32 0 0 0 64 0v-192z" /></svg>