<svg class="icon" style="width: 1em;height: 1em;vertical-align: middle;fill: currentColor;overflow: hidden;" viewBox="0 0 1024 1024" version="1.1" xmlns="http://www.w3.org/2000/svg"><path d="M512 789.333333a32 32 0 1 0 0 64 32 32 0 0 0 0-64z m234.666667-362.666666V384a234.666667 234.666667 0 1 0-469.333334 0v42.666667H384a42.666667 42.666667 0 0 1 42.666667 42.666666v170.666667a42.666667 42.666667 0 0 1-42.666667 42.666667H277.333333v10.666666a96 96 0 0 0 89.429334 95.786667l6.570666 0.213333h48.128a96.042667 96.042667 0 1 1 0 64H373.333333a160 160 0 0 1-159.786666-151.466666L213.333333 693.333333V384a298.666667 298.666667 0 0 1 597.333334 0v213.333333a85.333333 85.333333 0 0 1-78.933334 85.12L725.333333 682.666667h-85.333333a42.666667 42.666667 0 0 1-42.368-37.674667L597.333333 640v-170.666667a42.666667 42.666667 0 0 1 37.674667-42.368L640 426.666667h106.666667z m-384 64h-85.333334v128h85.333334v-128z m384 0h-85.333334v128H725.333333a21.333333 21.333333 0 0 0 20.992-17.493334L746.666667 597.333333v-106.666666z" /></svg>