<svg class="icon" style="width: 1em;height: 1em;vertical-align: middle;fill: currentColor;overflow: hidden;" viewBox="0 0 1024 1024" version="1.1" xmlns="http://www.w3.org/2000/svg"><path d="M938.666667 512v298.666667a128 128 0 0 1-120.490667 127.786666L810.666667 938.666667h-128a42.666667 42.666667 0 0 1-42.368-37.674667L640 896v-256a42.666667 42.666667 0 0 1 37.674667-42.368L682.666667 597.333333h192v-85.333333a362.666667 362.666667 0 0 0-725.333334 0v85.333333H341.333333a42.666667 42.666667 0 0 1 42.666667 42.666667v256a42.666667 42.666667 0 0 1-42.666667 42.666667H213.333333a128 128 0 0 1-128-128v-298.666667C85.333333 276.352 276.352 85.333333 512 85.333333s426.666667 191.018667 426.666667 426.666667v298.666667-298.666667zM320 661.333333h-170.666667V810.666667A64 64 0 0 0 213.333333 874.666667h106.666667v-213.333334z m554.666667 0h-170.666667v213.333334H810.666667a64 64 0 0 0 63.701333-57.813334L874.666667 810.666667v-149.333334z" /></svg>