<svg class="icon" style="width: 1em;height: 1em;vertical-align: middle;fill: currentColor;overflow: hidden;" viewBox="0 0 1024 1024" version="1.1" xmlns="http://www.w3.org/2000/svg"><path d="M981.333333 277.333333a234.666667 234.666667 0 1 0-469.333333 0 234.666667 234.666667 0 0 0 469.333333 0zM768 298.666667l0.042667 106.837333a21.333333 21.333333 0 1 1-42.666667 0V298.666667h-106.88a21.333333 21.333333 0 0 1 0-42.666667H725.333333V149.333333a21.333333 21.333333 0 0 1 42.666667 0V256h106.538667a21.333333 21.333333 0 0 1 0 42.666667H768z m-21.333333 256a278.186667 278.186667 0 0 0 64-7.424V640a85.333333 85.333333 0 0 1-78.933334 85.077333L725.333333 725.333333h-85.333333a42.666667 42.666667 0 0 1-42.368-37.674666L597.333333 682.666667v-171.605334c19.754667 12.672 41.258667 22.869333 64 30.250667V661.333333H725.333333a21.333333 21.333333 0 0 0 20.992-17.493333L746.666667 640v-85.333333zM512.938667 128c-13.013333 20.309333-23.466667 42.410667-30.848 65.877333A234.709333 234.709333 0 0 0 277.333333 426.666667v42.666666H384a42.666667 42.666667 0 0 1 42.666667 42.666667v170.666667a42.666667 42.666667 0 0 1-42.666667 42.666666H277.333333v10.666667a96 96 0 0 0 89.429334 95.786667l6.570666 0.213333h48.128a96.042667 96.042667 0 1 1 0 64H373.333333a160 160 0 0 1-159.786666-151.466667L213.333333 736V426.666667a298.666667 298.666667 0 0 1 298.666667-298.666667h0.938667zM512 832a32 32 0 1 0 0 64 32 32 0 0 0 0-64z m-149.333333-298.666667h-85.333334v128h85.333334v-128z" /></svg>