<svg class="icon" style="width: 1em;height: 1em;vertical-align: middle;fill: currentColor;overflow: hidden;" viewBox="0 0 1024 1024" version="1.1" xmlns="http://www.w3.org/2000/svg"><path d="M512 256c123.221333 0 246.613333 15.36 370.005333 46.08a74.666667 74.666667 0 0 1 56.405334 66.048l0.256 6.4v132.010667a176 176 0 0 1-167.210667 175.786666l-8.789333 0.213334h-105.386667a117.333333 117.333333 0 0 1-82.346667-33.749334l-5.76-6.144-27.861333-31.658666-3.541333-3.541334a38.997333 38.997333 0 0 0-51.626667 0.085334l-3.413333 3.456-27.861334 31.658666a117.333333 117.333333 0 0 1-79.701333 39.594667l-8.405333 0.298667h-105.386667a176.042667 176.042667 0 0 1-175.786667-167.253334L85.333333 506.496V374.485333A74.666667 74.666667 0 0 1 141.994667 302.08 1528.448 1528.448 0 0 1 512 256z m0 64c-117.973333 0-236.16 14.72-354.56 44.16a10.666667 10.666667 0 0 0-7.722667 7.509333l-0.384 2.816v132.010667a112.042667 112.042667 0 0 0 104.96 111.786667l7.04 0.256h105.386667c13.44 0 26.325333-5.077333 36.096-14.08l4.010667-4.053334 27.818666-31.658666a102.997333 102.997333 0 0 1 145.365334-9.386667l4.821333 4.522667 4.522667 4.821333 27.861333 31.701333c8.874667 10.069333 21.12 16.384 34.346667 17.792l5.717333 0.341334h105.386667a112 112 0 0 0 111.786666-104.96l0.213334-7.04V374.485333a10.666667 10.666667 0 0 0-8.106667-10.325333A1464.490667 1464.490667 0 0 0 512 320zM714.752 384l64 0.170667a32 32 0 0 1 4.181333 63.701333l-4.352 0.298667-64-0.170667a32 32 0 0 1-4.181333-63.701333L714.752 384zM309.333333 384a32 32 0 0 1 4.352 63.701333l-4.352 0.298667H245.205333a32 32 0 0 1-4.352-63.701333L245.205333 384H309.333333zM512 362.666667a32 32 0 1 1 0 64 32 32 0 0 1 0-64z" /></svg>