<svg class="icon" style="width: 1em;height: 1em;vertical-align: middle;fill: currentColor;overflow: hidden;" viewBox="0 0 1024 1024" version="1.1" xmlns="http://www.w3.org/2000/svg"><path d="M546.986667 238.08l-34.986667 35.072-35.157333-35.157333a229.333333 229.333333 0 1 0-324.309334 324.352l336.853334 336.853333a32 32 0 0 0 45.226666 0l337.152-336.938667a229.376 229.376 0 0 0-0.042666-324.224 229.546667 229.546667 0 0 0-324.736 0z m279.381333 279.04L512 831.36 197.76 517.12a165.333333 165.333333 0 1 1 233.813333-233.813333l57.941334 57.898666a32 32 0 0 0 45.781333-0.512L592.213333 283.306667a165.546667 165.546667 0 0 1 234.112 233.813333z" /></svg>