<svg class="icon" style="width: 1em;height: 1em;vertical-align: middle;fill: currentColor;overflow: hidden;" viewBox="0 0 1024 1024" version="1.1" xmlns="http://www.w3.org/2000/svg"><path d="M546.986667 238.08l-34.986667 35.072-35.157333-35.157333A229.333333 229.333333 0 0 0 95.957333 469.333333h68.48a165.376 165.376 0 0 1 267.136-186.026666l57.941334 57.898666a32 32 0 0 0 45.781333-0.512L592.213333 283.306667A165.546667 165.546667 0 0 1 859.690667 469.333333h68.48a229.546667 229.546667 0 0 0-381.184-231.253333zM489.386667 899.2L208.810667 618.666667h83.754666c2.176 0 4.352-0.128 6.485334-0.298667L512 831.317333l212.821333-212.693333h90.538667l-280.746667 280.576a32 32 0 0 1-45.226666 0zM401.92 358.997333a32 32 0 0 0-57.514667 0.64l-72.106666 152.32H117.333333a32 32 0 0 0 0 64h175.232a32 32 0 0 0 28.928-18.304l52.650667-111.189333 109.226667 218.453333a32 32 0 0 0 54.570666 4.48l115.114667-159.402666 48.213333 55.04A32 32 0 0 0 725.333333 576h181.333334a32 32 0 0 0 0-64h-166.826667l-65.109333-74.368a32 32 0 0 0-50.005334 2.304l-107.733333 149.162667-115.029333-230.058667z" /></svg>