<svg class="icon" style="width: 1em;height: 1em;vertical-align: middle;fill: currentColor;overflow: hidden;" viewBox="0 0 1024 1024" version="1.1" xmlns="http://www.w3.org/2000/svg"><path d="M499.029333 719.189333L323.84 514.730667a104.96 104.96 0 0 1 152.874667-143.658667L512 405.333333l35.285333-34.261333a105.002667 105.002667 0 0 1 152.874667 143.701333l-175.189333 204.373334a17.066667 17.066667 0 0 1-25.941334 0zM938.666667 512c0 235.648-191.018667 426.666667-426.666667 426.666667S85.333333 747.648 85.333333 512 276.352 85.333333 512 85.333333s426.666667 191.018667 426.666667 426.666667z m-64 0a362.666667 362.666667 0 1 0-725.333334 0 362.666667 362.666667 0 0 0 725.333334 0z" /></svg>