<svg class="icon" style="width: 1em;height: 1em;vertical-align: middle;fill: currentColor;overflow: hidden;" viewBox="0 0 1024 1024" version="1.1" xmlns="http://www.w3.org/2000/svg"><path d="M864.384 85.504a32 32 0 0 1 31.658667 27.690667l0.298666 4.352-0.170666 191.872a96.170667 96.170667 0 0 1-85.376 95.317333v96.426667a96 96 0 0 1-89.429334 95.786666l-6.570666 0.213334H704v119.125333a96 96 0 0 1-48.64 83.541333l-6.613333 3.413334-283.093334 132.522666a32 32 0 0 1-45.269333-24.704l-0.298667-4.266666v-309.632H309.333333A96 96 0 0 1 213.546667 507.733333L213.333333 501.162667v-96.426667a96 96 0 0 1-85.077333-88.405333L128 309.333333V117.504a32 32 0 0 1 63.701333-4.352l0.298667 4.352V309.333333c0 16.213333 12.032 29.610667 27.648 31.744L224 341.333333h576.042667c16.213333 0 29.653333-12.074667 31.829333-27.690666l0.298667-4.309334 0.170666-191.872a32 32 0 0 1 32-32zM640 597.162667H384.128v259.285333l237.525333-111.189333a32 32 0 0 0 18.090667-24.405334l0.341333-4.565333L640 597.162667zM746.752 405.333333H277.333333v95.829334c0 16.213333 12.032 29.610667 27.648 31.701333l4.352 0.298667h405.461334a32 32 0 0 0 31.701333-27.648l0.298667-4.352-0.042667-95.829334z" /></svg>