<svg class="icon" style="width: 1em;height: 1em;vertical-align: middle;fill: currentColor;overflow: hidden;" viewBox="0 0 1024 1024" version="1.1" xmlns="http://www.w3.org/2000/svg"><path d="M450.133333 108.032a96 96 0 0 1 123.733334 0l288 242.858667c21.632 18.261333 34.133333 45.098667 34.133333 73.386666v120.32a127.573333 127.573333 0 0 0-64-30.848V424.277333a32 32 0 0 0-11.392-24.448l-288-242.858666a32 32 0 0 0-41.216 0L203.392 399.786667a32 32 0 0 0-11.392 24.448v418.261333c0 5.888 4.778667 10.666667 10.666667 10.666667h149.333333a10.666667 10.666667 0 0 0 10.666667-10.666667v-234.666667c0-41.216 33.450667-74.666667 74.666666-74.666666h149.333334c41.216 0 74.666667 33.450667 74.666666 74.666666v122.922667A96.042667 96.042667 0 0 0 597.333333 821.333333v-213.461333a10.666667 10.666667 0 0 0-10.666666-10.666667h-149.333334a10.666667 10.666667 0 0 0-10.666666 10.666667v234.666667a74.666667 74.666667 0 0 1-74.666667 74.666666h-149.333333A74.666667 74.666667 0 0 1 128 842.538667V424.277333c0-28.288 12.501333-55.125333 34.133333-73.386666l288-242.858667zM810.666667 554.666667a85.333333 85.333333 0 1 0 0 170.666666 85.333333 85.333333 0 0 0 0-170.666666z m-170.666667 266.666666c0-29.44 23.893333-53.333333 53.333333-53.333333h234.666667c29.44 0 53.333333 23.893333 53.333333 53.333333v3.754667c0.042667 3.029333 0.085333 6.058667-0.042666 9.088a116.650667 116.650667 0 0 1-2.816 19.328 127.573333 127.573333 0 0 1-19.626667 44.074667c-23.338667 33.28-67.712 62.421333-148.181333 62.421333s-124.842667-29.141333-148.138667-62.421333a127.573333 127.573333 0 0 1-22.144-58.88 86.741333 86.741333 0 0 1-0.341333-4.522667L640 821.461333v-0.128z" /></svg>