<svg class="icon" style="width: 1em;height: 1em;vertical-align: middle;fill: currentColor;overflow: hidden;" viewBox="0 0 1024 1024" version="1.1" xmlns="http://www.w3.org/2000/svg"><path d="M981.333333 277.333333a234.666667 234.666667 0 1 0-469.333333 0 234.666667 234.666667 0 0 0 469.333333 0zM768 298.666667l0.042667 106.837333a21.333333 21.333333 0 1 1-42.666667 0V298.666667h-106.88a21.333333 21.333333 0 0 1 0-42.666667H725.333333V149.333333a21.333333 21.333333 0 0 1 42.666667 0V256h106.794667a21.333333 21.333333 0 1 1 0 42.666667h-106.752zM832 842.538667v-301.226667a276.096 276.096 0 0 0 64-30.250667v331.477334a74.666667 74.666667 0 0 1-74.666667 74.666666h-149.333333a74.666667 74.666667 0 0 1-74.666667-74.666666v-234.666667a10.666667 10.666667 0 0 0-10.666666-10.666667h-149.333334a10.666667 10.666667 0 0 0-10.666666 10.666667v234.666667a74.666667 74.666667 0 0 1-74.666667 74.666666h-149.333333A74.666667 74.666667 0 0 1 128 842.538667V424.277333c0-28.288 12.501333-55.125333 34.133333-73.386666l288-242.858667a96 96 0 0 1 91.818667-17.834667A277.76 277.76 0 0 0 499.2 152.106667a31.957333 31.957333 0 0 0-7.765333 4.864L203.392 399.786667a32 32 0 0 0-11.392 24.448v418.261333c0 5.888 4.778667 10.666667 10.666667 10.666667h149.333333a10.666667 10.666667 0 0 0 10.666667-10.666667v-234.666667c0-41.216 33.450667-74.666667 74.666666-74.666666h149.333334c41.216 0 74.666667 33.450667 74.666666 74.666666v234.666667c0 5.888 4.778667 10.666667 10.666667 10.666667h149.333333a10.666667 10.666667 0 0 0 10.666667-10.666667z" /></svg>