<svg class="icon" style="width: 1em;height: 1em;vertical-align: middle;fill: currentColor;overflow: hidden;" viewBox="0 0 1024 1024" version="1.1" xmlns="http://www.w3.org/2000/svg"><path d="M449.578667 108.117333a96 96 0 0 1 123.861333-0.085333L861.866667 351.146667c21.632 18.218667 34.133333 45.098667 34.133333 73.386666v418.090667a74.666667 74.666667 0 0 1-74.666667 74.666667H202.666667A74.666667 74.666667 0 0 1 128 842.666667v-418.133334c0-28.245333 12.458667-55.04 34.005333-73.301333l287.573334-243.114667z m82.602666 48.853334a32 32 0 0 0-41.301333 0l-287.573333 243.114666a32 32 0 0 0-11.306667 24.448v418.133334c0 5.888 4.778667 10.666667 10.666667 10.666666h618.666666a10.666667 10.666667 0 0 0 10.666667-10.666666V424.533333a32 32 0 0 0-11.392-24.448l-288.426667-243.2zM673.450667 457.216a32 32 0 0 1 0 45.226667L481.28 694.613333a32 32 0 0 1-45.226667 0l-85.333333-85.333333a32 32 0 0 1 45.226667-45.226667l62.72 62.72 169.514666-169.557333a32 32 0 0 1 45.226667 0z" /></svg>