<svg class="icon" style="width: 1em;height: 1em;vertical-align: middle;fill: currentColor;overflow: hidden;" viewBox="0 0 1024 1024" version="1.1" xmlns="http://www.w3.org/2000/svg"><path d="M554.666667 149.333333a149.333333 149.333333 0 0 0-113.877334 245.930667 32 32 0 0 1-24.362666 52.736H160a10.666667 10.666667 0 0 0-10.666667 10.666667v42.666666c0 123.733333 100.266667 224 224 224h137.301334c6.4 4.693333 13.610667 8.362667 21.504 10.88a389.504 389.504 0 0 0-31.018667 53.12H373.333333A288 288 0 0 1 85.333333 501.333333v-42.666666C85.333333 417.450667 118.784 384 160 384h199.082667a213.333333 213.333333 0 0 1 391.168-170.666667h71.082666c41.216 0 74.666667 33.450667 74.666667 74.666667a117.333333 117.333333 0 0 1-117.333333 117.333333h-39.253334c-5.76 10.026667-12.373333 19.541333-19.669333 28.458667 6.698667 5.845333 13.013333 12.117333 18.858667 18.773333-7.509333 0.810667-15.189333 1.706667-23.04 2.773334a299.093333 299.093333 0 0 0-56.448 13.056 130.005333 130.005333 0 0 0-4.266667-2.474667 32 32 0 0 1-4.693333-52.48A149.418667 149.418667 0 0 0 697.813333 341.333333h80.853334c29.44 0 53.333333-23.893333 53.333333-53.333333a10.666667 10.666667 0 0 0-10.666667-10.666667h-118.826666A149.333333 149.333333 0 0 0 554.666667 149.333333zM721.109333 497.621333c119.509333-15.786667 193.664-2.56 237.354667 9.685334a32 32 0 0 1 9.045333 57.514666c-2.432 1.621333-6.4 5.546667-11.093333 14.506667-4.693333 8.874667-9.088 20.48-13.653333 35.2-3.754667 12.117333-7.253333 25.173333-11.136 39.466667l-2.432 9.045333c-4.778667 17.493333-9.984 36.266667-16.298667 54.869333-12.458667 36.778667-30.037333 76.032-59.605333 106.154667-30.72 31.274667-72.32 50.773333-128 50.773333-56.661333 0-96.256-22.997333-121.6-49.450666-17.194667 31.573333-26.154667 61.312-27.52 83.242666a32 32 0 0 1-63.872-3.882666c2.986667-48.64 28.373333-109.824 70.912-164.010667 43.050667-54.784 105.813333-105.258667 186.922666-129.706667a32 32 0 0 1 18.474667 61.269334c-61.781333 18.645333-111.36 55.978667-147.285333 98.474666 13.226667 18.858667 39.338667 40.064 84.010666 40.064 38.869333 0 63.914667-12.885333 82.261334-31.573333 19.498667-19.882667 33.28-48.213333 44.672-81.92 5.632-16.597333 10.453333-33.749333 15.146666-51.072l2.346667-8.576c3.84-14.293333 7.722667-28.757333 11.861333-42.112 3.84-12.416 8.192-24.874667 13.397334-36.394667-38.101333-5.546667-91.733333-7.850667-165.504 1.877334-85.248 11.306667-133.290667 73.514667-144 112.426666a32 32 0 0 1-61.696-16.981333c16.896-61.525333 84.394667-143.914667 197.290666-158.890667z" /></svg>