<svg class="icon" style="width: 1em;height: 1em;vertical-align: middle;fill: currentColor;overflow: hidden;" viewBox="0 0 1024 1024" version="1.1" xmlns="http://www.w3.org/2000/svg"><path d="M192.298667 256.341333A138.368 138.368 0 0 0 128 373.333333v277.333334c0 123.733333 100.266667 224 224 224h277.333333a138.538667 138.538667 0 0 0 117.077334-64.341334l-5.205334 0.256-5.205333 0.085334h-384a160 160 0 0 1-160-160v-384c0-3.456 0.085333-6.912 0.298667-10.325334zM373.333333 128A138.666667 138.666667 0 0 0 234.666667 266.666667v362.666666A138.666667 138.666667 0 0 0 373.333333 768h362.666667a138.666667 138.666667 0 0 0 138.666667-138.666667v-362.666666A138.666667 138.666667 0 0 0 736 128h-362.666667z m199.68 389.845333l3.968 3.285334 183.722667 178.688a74.581333 74.581333 0 0 1-24.704 4.181333h-362.666667c-8.661333 0-16.981333-1.493333-24.746666-4.181333l183.765333-178.688a32 32 0 0 1 40.704-3.285334zM373.333333 192h362.666667c41.216 0 74.666667 33.450667 74.666667 74.666667v362.666666c0 8.917333-1.578667 17.450667-4.437334 25.386667l-184.618666-179.498667a96 96 0 0 0-128.128-5.12l-5.717334 5.12-184.661333 179.541334A74.538667 74.538667 0 0 1 298.666667 629.333333v-362.666666c0-41.216 33.450667-74.666667 74.666666-74.666667z m74.666667 96.042667a53.333333 53.333333 0 1 0 0 106.624 53.333333 53.333333 0 0 0 0-106.624z" /></svg>