<svg class="icon" style="width: 1em;height: 1em;vertical-align: middle;fill: currentColor;overflow: hidden;" viewBox="0 0 1024 1024" version="1.1" xmlns="http://www.w3.org/2000/svg"><path d="M42.666667 128a85.333333 85.333333 0 0 1 85.333333-85.333333h298.666667a85.333333 85.333333 0 0 1 85.333333 85.333333v256a85.333333 85.333333 0 0 1-85.333333 85.333333H128a85.333333 85.333333 0 0 1-85.333333-85.333333V128z m106.666666 42.666667a21.333333 21.333333 0 0 0 0 42.666666h256a21.333333 21.333333 0 0 0 0-42.666666h-256z m0 128a21.333333 21.333333 0 0 0 0 42.666666h256a21.333333 21.333333 0 0 0 0-42.666666h-256zM170.666667 512h64v288c0 8.874667 1.536 17.408 4.394666 25.344l248.448-243.242667a96 96 0 0 1 128.853334-4.949333l5.461333 4.949333 248.405333 243.285334c2.858667-7.936 4.437333-16.469333 4.437334-25.386667V309.333333a74.666667 74.666667 0 0 0-74.666667-74.666666H554.666667V170.666667h245.333333A138.666667 138.666667 0 0 1 938.666667 309.333333v490.666667A138.666667 138.666667 0 0 1 800 938.666667H309.333333A138.666667 138.666667 0 0 1 170.666667 800V512z m654.08 358.442667l-247.68-242.602667a32 32 0 0 0-41.216-3.029333l-3.584 2.986666-247.765334 242.645334c7.765333 2.730667 16.128 4.224 24.832 4.224h490.666667c8.661333 0 17.024-1.493333 24.746667-4.224zM693.418667 320a96.085333 96.085333 0 1 1 0 192.170667 96.085333 96.085333 0 0 1 0-192.170667z m0 64a32.085333 32.085333 0 1 0 0 64.170667 32.085333 32.085333 0 0 0 0-64.170667z" /></svg>