<svg class="icon" style="width: 1em;height: 1em;vertical-align: middle;fill: currentColor;overflow: hidden;" viewBox="0 0 1024 1024" version="1.1" xmlns="http://www.w3.org/2000/svg"><path d="M693.333333 330.666667a53.333333 53.333333 0 1 1-106.666666 0 53.333333 53.333333 0 0 1 106.666666 0z m28.458667 394.325333a75.946667 75.946667 0 0 1-7.125333 0.341333h-42.666667a32 32 0 0 0 0 64h42.666667c41.216 0 74.666667 33.450667 74.666666 74.666667V896a32 32 0 0 0 64 0v-32a138.410667 138.410667 0 0 0-50.048-106.666667A138.410667 138.410667 0 0 0 853.333333 650.666667v-384A138.666667 138.666667 0 0 0 714.666667 128h-405.333334A138.666667 138.666667 0 0 0 170.666667 266.666667v384c0 42.88 19.456 81.237333 50.048 106.666666A138.368 138.368 0 0 0 170.666667 864V896a32 32 0 0 0 64 0v-32c0-41.216 33.450667-74.666667 74.666666-74.666667h42.666667a32 32 0 0 0 0-64h-42.666667c-2.432 0-4.821333-0.128-7.168-0.341333l187.477334-182.784a32 32 0 0 1 44.672 0l187.477333 182.784zM309.333333 192h405.333334c41.216 0 74.666667 33.450667 74.666666 74.666667v384c0 14.592-4.181333 28.16-11.392 39.68l-198.954666-193.962667a96 96 0 0 0-133.973334 0l-198.954666 193.92a74.325333 74.325333 0 0 1-11.392-39.637333v-384c0-41.216 33.450667-74.666667 74.666666-74.666667z m170.666667 533.333333a32 32 0 0 0 0 64h64a32 32 0 0 0 0-64h-64z" /></svg>