<svg class="icon" style="width: 1em;height: 1em;vertical-align: middle;fill: currentColor;overflow: hidden;" viewBox="0 0 1024 1024" version="1.1" xmlns="http://www.w3.org/2000/svg"><path d="M586.581333 383.829333a53.248 53.248 0 1 0 0-106.496 53.248 53.248 0 0 0 0 106.496zM266.666667 128A138.666667 138.666667 0 0 0 128 266.666667v384a138.666667 138.666667 0 0 0 138.666667 138.666666h384a138.666667 138.666667 0 0 0 138.666666-138.666666v-384A138.666667 138.666667 0 0 0 650.666667 128h-384zM192 266.666667c0-41.216 33.450667-74.666667 74.666667-74.666667h384c41.216 0 74.666667 33.450667 74.666666 74.666667v384c0 9.856-1.92 19.285333-5.376 27.904l-195.712-183.082667a96 96 0 0 0-131.157333 0l-195.712 183.04a74.453333 74.453333 0 0 1-5.376-27.861333v-384z m288.512 275.541333l192.213333 179.797333c-6.954667 2.133333-14.378667 3.328-22.058666 3.328h-384c-7.68 0-15.104-1.152-22.058667-3.328l192.170667-179.797333a32 32 0 0 1 43.733333 0zM373.333333 896a138.538667 138.538667 0 0 1-116.906666-64h415.573333a160 160 0 0 0 160-160V256.469333a138.581333 138.581333 0 0 1 64 116.906667v298.666667C896 795.733333 795.733333 896 672 896h-298.666667z" /></svg>