<svg class="icon" style="width: 1em;height: 1em;vertical-align: middle;fill: currentColor;overflow: hidden;" viewBox="0 0 1024 1024" version="1.1" xmlns="http://www.w3.org/2000/svg"><path d="M512 277.333333a234.666667 234.666667 0 1 0-469.333333 0 234.666667 234.666667 0 0 0 469.333333 0z m-341.333333-128v23.509334a149.333333 149.333333 0 1 1-7.978667 200.149333C151.466667 359.552 162.602667 341.333333 180.096 341.333333c7.509333 0 14.464 3.626667 19.626667 9.088A106.666667 106.666667 0 1 0 192 213.333333H234.666667a21.333333 21.333333 0 0 1 0 42.666667h-85.333334a21.333333 21.333333 0 0 1-21.333333-21.333333v-85.333334a21.333333 21.333333 0 0 1 42.666667 0zM800 234.666667h-248.576a275.242667 275.242667 0 0 0-18.005333-64h266.581333A138.666667 138.666667 0 0 1 938.666667 309.333333v490.666667A138.666667 138.666667 0 0 1 800 938.666667H309.333333A138.666667 138.666667 0 0 1 170.666667 800v-266.581333c20.224 8.448 41.685333 14.506667 64 18.005333v248.576c0 8.874667 1.536 17.408 4.394666 25.344l248.448-243.242667a96 96 0 0 1 128.853334-4.949333l5.461333 4.949333 248.405333 243.285334c2.858667-7.936 4.437333-16.469333 4.437334-25.386667V309.333333a74.666667 74.666667 0 0 0-74.666667-74.666666z m24.746667 635.776l-247.68-242.602667a32 32 0 0 0-41.216-3.029333l-3.584 2.986666-247.765334 242.645334c7.765333 2.730667 16.128 4.224 24.832 4.224h490.666667c8.661333 0 17.024-1.493333 24.746667-4.224zM693.418667 320a96.085333 96.085333 0 1 1 0 192.170667 96.085333 96.085333 0 0 1 0-192.170667z m0 64a32.085333 32.085333 0 1 0 0 64.170667 32.085333 32.085333 0 0 0 0-64.170667z" /></svg>