<svg class="icon" style="width: 1em;height: 1em;vertical-align: middle;fill: currentColor;overflow: hidden;" viewBox="0 0 1024 1024" version="1.1" xmlns="http://www.w3.org/2000/svg"><path d="M895.914667 266.666667A138.666667 138.666667 0 0 0 757.248 128H266.666667A138.666667 138.666667 0 0 0 128 266.666667v490.624a138.666667 138.666667 0 0 0 138.666667 138.666666h209.664l15.189333-60.757333 0.853333-3.242667H266.666667c-8.704 0-17.066667-1.493333-24.832-4.266666l247.765333-242.56 3.541333-2.986667a32 32 0 0 1 41.216 2.986667l88.704 86.869333 45.226667-45.226667-89.173333-87.381333-5.461334-4.949333a96 96 0 0 0-128.853333 4.949333l-248.405333 243.2a74.496 74.496 0 0 1-4.394667-25.301333v-490.666667c0-41.216 33.408-74.666667 74.666667-74.666667h490.624c41.216 0 74.666667 33.450667 74.666666 74.666667v212.608c20.394667-8.106667 42.368-11.264 64-9.386667V266.666667z m-149.12 106.752a96.085333 96.085333 0 1 0-192.170667 0 96.085333 96.085333 0 0 0 192.170667 0z m-128.170667 0a32.085333 32.085333 0 1 1 64.170667 0 32.085333 32.085333 0 0 1-64.170667 0z m196.266667 167.125333l-251.818667 251.776a114.56 114.56 0 0 0-30.165333 53.248l-19.498667 78.08c-8.533333 34.005333 22.272 64.768 56.234667 56.277333l78.08-19.541333a114.56 114.56 0 0 0 53.248-30.122667L952.746667 678.4a97.536 97.536 0 0 0-137.941334-137.898667z" /></svg>