<svg class="icon" style="width: 1em;height: 1em;vertical-align: middle;fill: currentColor;overflow: hidden;" viewBox="0 0 1024 1024" version="1.1" xmlns="http://www.w3.org/2000/svg"><path d="M213.632 256c1.706667-60.373333 10.581333-113.877333 23.594667-152.96 7.296-21.888 15.530667-38.101333 23.637333-48.384C269.226667 44.117333 274.901333 42.666667 277.333333 42.666667c2.432 0 8.149333 1.450667 16.469334 11.989333 8.106667 10.282667 16.341333 26.453333 23.637333 48.384 13.013333 39.082667 21.888 92.586667 23.594667 152.96H213.632z m-16.896-166.4c4.608-13.781333 9.813333-26.538667 15.701333-37.845333A234.837333 234.837333 0 0 0 43.605333 256h127.36c1.706667-64 11.093333-122.24 25.770667-166.4z m161.194667 0a261.376 261.376 0 0 0-15.701334-37.845333A234.837333 234.837333 0 0 1 511.061333 256H383.701333c-1.706667-64-11.093333-122.24-25.770666-166.4zM383.701333 298.666667h127.36a234.837333 234.837333 0 0 1-168.832 204.245333 261.546667 261.546667 0 0 0 15.701334-37.802667c14.72-44.202667 24.064-102.4 25.770666-166.442666z m-89.898666 201.344c-8.32 10.538667-14.037333 11.989333-16.469334 11.989333-2.432 0-8.149333-1.450667-16.469333-11.989333-8.106667-10.282667-16.341333-26.453333-23.637333-48.384-13.013333-39.082667-21.888-92.586667-23.594667-152.96h127.402667c-1.706667 60.373333-10.581333 113.877333-23.594667 152.96-7.296 21.888-15.530667 38.101333-23.637333 48.384zM43.605333 298.666667a234.88 234.88 0 0 0 168.832 204.245333 261.546667 261.546667 0 0 1-15.701333-37.802667C182.016 420.906667 172.672 362.666667 170.965333 298.666667H43.605333zM757.333333 192h-216.021333a276.138667 276.138667 0 0 0-30.250667-64h246.272A138.666667 138.666667 0 0 1 896 266.666667v490.666666A138.666667 138.666667 0 0 1 757.333333 896H266.666667A138.666667 138.666667 0 0 1 128 757.333333v-246.272c19.754667 12.672 41.258667 22.869333 64 30.250667v216.021333c0 8.874667 1.536 17.408 4.394667 25.344l248.448-243.242666a96 96 0 0 1 128.853333-4.949334l5.461333 4.949334 248.405334 243.285333c2.858667-7.936 4.437333-16.469333 4.437333-25.386667V266.666667a74.666667 74.666667 0 0 0-74.666667-74.666667z m24.746667 635.776l-247.68-242.602667a32 32 0 0 0-41.216-3.029333l-3.584 2.986667-247.765333 242.645333c7.765333 2.730667 16.128 4.224 24.832 4.224h490.666666c8.661333 0 17.024-1.493333 24.746667-4.224zM650.794667 277.333333a96.085333 96.085333 0 1 1 0 192.170667 96.085333 96.085333 0 0 1 0-192.170667z m0 64a32.085333 32.085333 0 1 0 0 64.170667 32.085333 32.085333 0 0 0 0-64.170667z" /></svg>