<svg class="icon" style="width: 1em;height: 1em;vertical-align: middle;fill: currentColor;overflow: hidden;" viewBox="0 0 1024 1024" version="1.1" xmlns="http://www.w3.org/2000/svg"><path d="M139.946667 94.72a32 32 0 1 0-45.226667 45.226667l53.888 53.930666A138.026667 138.026667 0 0 0 128 266.666667v490.666666A138.666667 138.666667 0 0 0 266.666667 896h490.666666c26.709333 0 51.626667-7.552 72.789334-20.608l53.888 53.930667a32 32 0 0 0 45.269333-45.269334L139.946667 94.72z m374.954666 465.450667l264.789334 264.789333 2.389333 2.816a74.496 74.496 0 0 1-24.746667 4.224H266.666667c-8.704 0-17.066667-1.493333-24.832-4.224l247.765333-242.602667 25.301333-25.002666z m-40.533333-40.533334a95.786667 95.786667 0 0 0-29.525333 19.797334l-248.448 243.2a74.538667 74.538667 0 0 1-4.394667-25.301334V266.666667c0-8.789333 1.536-17.237333 4.309333-25.088l278.101334 278.101333zM832 696.234667V266.666667a74.666667 74.666667 0 0 0-74.666667-74.666667H327.765333L263.765333 128H757.333333A138.666667 138.666667 0 0 1 896 266.666667v493.568l-64-64zM650.752 277.333333a96.085333 96.085333 0 1 1 0 192.170667 96.085333 96.085333 0 0 1 0-192.170667z m0 64a32.085333 32.085333 0 1 0 0 64.170667 32.085333 32.085333 0 0 0 0-64.170667z" /></svg>