<svg class="icon" style="width: 1em;height: 1em;vertical-align: middle;fill: currentColor;overflow: hidden;" viewBox="0 0 1024 1024" version="1.1" xmlns="http://www.w3.org/2000/svg"><path d="M896 266.666667A138.666667 138.666667 0 0 0 757.333333 128H266.666667A138.666667 138.666667 0 0 0 128 266.666667v192.298666a234.453333 234.453333 0 0 1 64-37.632V266.666667c0-41.216 33.450667-74.666667 74.666667-74.666667h490.666666c41.216 0 74.666667 33.450667 74.666667 74.666667v490.666666c0 8.917333-1.578667 17.450667-4.437333 25.386667l-248.405334-243.285333-5.461333-4.949334a96.042667 96.042667 0 0 0-95.701333-16.213333c11.050667 18.133333 19.669333 37.930667 25.514666 58.88a32 32 0 0 1 30.890667 8.021333L782.08 827.733333a74.496 74.496 0 0 1-24.789333 4.224h-203.733334l21.845334 21.888c11.861333 11.818667 18.901333 26.709333 21.12 42.112h160.768A138.666667 138.666667 0 0 0 896 757.333333V266.666667zM746.837333 373.418667a96.085333 96.085333 0 1 0-192.170666 0 96.085333 96.085333 0 0 0 192.170666 0z m-128.170666 0a32.085333 32.085333 0 1 1 64.170666 0 32.085333 32.085333 0 0 1-64.170666 0zM424.533333 763.306667a192 192 0 1 0-48.853333 41.642666l124.373333 124.330667a32 32 0 1 0 45.226667-45.226667l-120.746667-120.746666zM277.333333 768a128 128 0 1 1 0-256 128 128 0 0 1 0 256z" /></svg>