<svg class="icon" style="width: 1em;height: 1em;vertical-align: middle;fill: currentColor;overflow: hidden;" viewBox="0 0 1024 1024" version="1.1" xmlns="http://www.w3.org/2000/svg"><path d="M277.333333 512a234.666667 234.666667 0 1 0 0-469.333333 234.666667 234.666667 0 0 0 0 469.333333z m0-64a169.856 169.856 0 0 1-95.914666-29.482667l237.098666-237.098666A170.666667 170.666667 0 0 1 277.333333 448zM136.149333 373.248a170.666667 170.666667 0 0 1 237.098667-237.098667L136.149333 373.248zM192 541.312a276.138667 276.138667 0 0 1-64-30.250667v246.272A138.666667 138.666667 0 0 0 266.666667 896h490.666666A138.666667 138.666667 0 0 0 896 757.333333V266.666667A138.666667 138.666667 0 0 0 757.333333 128h-246.272c12.672 19.754667 22.869333 41.258667 30.250667 64h216.021333c41.216 0 74.666667 33.450667 74.666667 74.666667v490.666666c0 8.917333-1.578667 17.450667-4.437333 25.386667l-248.405334-243.285333-5.461333-4.949334a96 96 0 0 0-128.853333 4.949334l-248.448 243.2a74.538667 74.538667 0 0 1-4.394667-25.301334v-216.021333z m342.4 43.861333L782.08 827.733333a74.496 74.496 0 0 1-24.789333 4.224H266.666667c-8.704 0-17.066667-1.493333-24.832-4.224l247.765333-242.602666 3.584-3.029334a32 32 0 0 1 41.216 2.986667z m212.48-211.754666a96.085333 96.085333 0 1 0-192.213333 0 96.085333 96.085333 0 0 0 192.170666 0z m-128.213333 0a32.085333 32.085333 0 1 1 64.170666 0 32.085333 32.085333 0 0 1-64.170666 0z" /></svg>