<svg class="icon" style="width: 1em;height: 1em;vertical-align: middle;fill: currentColor;overflow: hidden;" viewBox="0 0 1024 1024" version="1.1" xmlns="http://www.w3.org/2000/svg"><path d="M800 170.666667A138.666667 138.666667 0 0 1 938.666667 309.333333v490.666667A138.666667 138.666667 0 0 1 800 938.666667H309.333333A138.666667 138.666667 0 0 1 170.666667 800v-266.581333c20.224 8.448 41.685333 14.506667 64 18.005333v248.576c0 8.874667 1.536 17.408 4.394666 25.344l248.448-243.242667a96 96 0 0 1 128.853334-4.949333l5.461333 4.949333 248.405333 243.285334c2.858667-7.936 4.437333-16.469333 4.437334-25.386667V309.333333a74.666667 74.666667 0 0 0-74.666667-74.666666h-248.576a275.498667 275.498667 0 0 0-18.005333-64h266.581333z m-264.149333 454.144l-3.584 2.986666-247.765334 242.645334c7.765333 2.730667 16.128 4.224 24.832 4.224h490.666667c8.661333 0 17.024-1.493333 24.746667-4.224l-247.68-242.602667a32 32 0 0 0-41.216-3.029333zM693.418667 320a96.085333 96.085333 0 1 1 0 192.170667 96.085333 96.085333 0 0 1 0-192.170667zM277.333333 42.666667a234.666667 234.666667 0 1 1 0 469.333333 234.666667 234.666667 0 0 1 0-469.333333z m416.085334 341.333333a32.085333 32.085333 0 1 0 0 64.170667 32.085333 32.085333 0 0 0 0-64.170667zM277.333333 128l-3.84 0.298667a21.333333 21.333333 0 0 0-17.152 17.152L256 149.333333V256L149.248 256l-3.84 0.341333a21.333333 21.333333 0 0 0-17.152 17.152l-0.341333 3.84 0.341333 3.84a21.333333 21.333333 0 0 0 17.152 17.152l3.84 0.341334H256v106.794666l0.341333 3.84a21.333333 21.333333 0 0 0 17.152 17.152l3.84 0.384 3.84-0.384a21.333333 21.333333 0 0 0 17.152-17.152l0.341334-3.84V298.666667L405.546667 298.666667l3.84-0.341334a21.333333 21.333333 0 0 0 17.152-17.152l0.341333-3.84-0.341333-3.84a21.333333 21.333333 0 0 0-17.194667-17.152L405.504 256H298.666667V149.333333l-0.341334-3.84a21.333333 21.333333 0 0 0-17.152-17.194666L277.333333 128z" /></svg>