<svg class="icon" style="width: 1em;height: 1em;vertical-align: middle;fill: currentColor;overflow: hidden;" viewBox="0 0 1024 1024" version="1.1" xmlns="http://www.w3.org/2000/svg"><path d="M42.666667 277.333333a234.666667 234.666667 0 1 0 469.333333 0 234.666667 234.666667 0 0 0-469.333333 0z m283.562666-91.562666a21.333333 21.333333 0 1 1 30.208-30.208l64 64a21.333333 21.333333 0 0 1 0 30.208l-64 64a21.333333 21.333333 0 1 1-30.208-30.208L353.834667 256H266.666667A96 96 0 0 0 170.666667 352v10.666667a21.333333 21.333333 0 0 1-42.666667 0v-10.666667A138.666667 138.666667 0 0 1 266.666667 213.333333h87.168l-27.605334-27.562666zM128 511.061333c19.754667 12.672 41.258667 22.869333 64 30.250667v216.021333c0 8.874667 1.536 17.408 4.394667 25.344l248.448-243.242666a96 96 0 0 1 128.853333-4.949334l5.461333 4.949334 248.405334 243.285333c2.858667-7.936 4.437333-16.469333 4.437333-25.386667V266.666667a74.666667 74.666667 0 0 0-74.666667-74.666667h-216.021333a276.138667 276.138667 0 0 0-30.250667-64h246.272A138.666667 138.666667 0 0 1 896 266.666667v490.666666A138.666667 138.666667 0 0 1 757.333333 896H266.666667A138.666667 138.666667 0 0 1 128 757.333333v-246.272z m654.08 316.714667l-247.68-242.602667a32 32 0 0 0-41.216-3.029333l-3.584 2.986667-247.765333 242.645333c7.765333 2.730667 16.128 4.224 24.832 4.224h490.666666c8.661333 0 17.024-1.493333 24.746667-4.224zM650.794667 277.333333a96.085333 96.085333 0 1 1 0 192.170667 96.085333 96.085333 0 0 1 0-192.170667z m0 64a32.085333 32.085333 0 1 0 0 64.170667 32.085333 32.085333 0 0 0 0-64.170667z" /></svg>