<svg class="icon" style="width: 1em;height: 1em;vertical-align: middle;fill: currentColor;overflow: hidden;" viewBox="0 0 1024 1024" version="1.1" xmlns="http://www.w3.org/2000/svg"><path d="M475.050667 832H160A74.666667 74.666667 0 0 1 85.333333 757.333333v-554.666666C85.333333 161.450667 118.784 128 160 128h256c33.621333 0 63.957333 14.122667 85.333333 36.821333a116.992 116.992 0 0 1 85.333334-36.821333h256c41.216 0 74.666667 33.450667 74.666666 74.666667v316.501333a74.88 74.88 0 0 0-64 0V202.666667a10.666667 10.666667 0 0 0-10.666666-10.666667h-256c-29.44 0-53.333333 23.893333-53.333334 53.333333V640H512a42.666667 42.666667 0 0 0-42.666667 42.666667V245.333333c0-29.44-23.893333-53.333333-53.333333-53.333333h-256a10.666667 10.666667 0 0 0-10.666667 10.666667v554.666666c0 5.888 4.778667 10.666667 10.666667 10.666667h256c0.981333 0 1.962667 0 2.944-0.085333V768H469.333333v42.666667c0 7.765333 2.090667 15.061333 5.717334 21.333333zM905.813333 562.090667c10.581333 8.832 24.96 24.746667 38.954667 48.128 22.869333 38.101333 36.565333 83.712 36.565333 136.448s-13.653333 98.346667-36.565333 136.448c-13.994667 23.338667-28.373333 39.296-38.954667 48.128a32 32 0 1 1-40.96-49.152c5.418667-4.522667 15.061333-15.232 25.045334-31.872 17.109333-28.586667 27.434667-62.933333 27.434666-103.552s-10.325333-75.008-27.434666-103.552c-9.984-16.64-19.626667-27.349333-25.045334-31.872a32 32 0 1 1 40.96-49.152zM819.2 625.066667c8.064 6.016 18.56 16.554667 28.757333 31.829333 16.682667 25.045333 26.709333 55.125333 26.709334 89.770667s-10.026667 64.725333-26.709334 89.770666c-10.197333 15.274667-20.693333 25.813333-28.757333 31.829334a32 32 0 0 1-41.984-48.085334l3.584-3.114666a71.68 71.68 0 0 0 13.909333-16.128C804.693333 785.92 810.666667 768 810.666667 746.666667s-5.973333-39.253333-15.957334-54.229334a71.808 71.808 0 0 0-13.909333-16.170666 32 32 0 0 1 38.4-51.2zM704.597333 599.381333a32 32 0 0 1 20.736 29.952v234.666667a32 32 0 0 1-56.064 21.077333L604.16 810.666667h-60.16a32 32 0 0 1-32-32v-64a32 32 0 0 1 32-32h60.16l65.109333-74.410667a32 32 0 0 1 35.328-8.874667z" /></svg>