<svg class="icon" style="width: 1em;height: 1em;vertical-align: middle;fill: currentColor;overflow: hidden;" viewBox="0 0 1024 1024" version="1.1" xmlns="http://www.w3.org/2000/svg"><path d="M512 85.418667a165.333333 165.333333 0 0 0-165.333333 165.333333c0 124.586667 51.498667 279.552 77.354666 349.824a93.312 93.312 0 0 0 88.064 60.714667c38.570667 0 74.197333-23.125333 88.021334-60.501334 25.856-69.973333 77.226667-224.170667 77.226666-350.037333A165.333333 165.333333 0 0 0 512 85.418667zM410.666667 250.752a101.333333 101.333333 0 0 1 202.666666 0c0 113.28-47.402667 257.834667-73.258666 327.850667a29.269333 29.269333 0 0 1-27.946667 18.688 29.312 29.312 0 0 1-28.032-18.773334c-25.898667-70.485333-73.429333-215.808-73.429333-327.765333zM512.042667 725.376a106.709333 106.709333 0 1 0 0 213.418667 106.709333 106.709333 0 0 0 0-213.418667zM469.333333 832.085333a42.709333 42.709333 0 1 1 85.418667 0 42.709333 42.709333 0 0 1-85.418667 0z" /></svg>