<svg class="icon" style="width: 1em;height: 1em;vertical-align: middle;fill: currentColor;overflow: hidden;" viewBox="0 0 1024 1024" version="1.1" xmlns="http://www.w3.org/2000/svg"><path d="M746.666667 512a192 192 0 1 1-187.221334 234.752h-94.890666A192.085333 192.085333 0 0 1 85.333333 704a192 192 0 0 1 382.848-21.333333h87.637334a192 192 0 0 1 190.848-170.666667z m-469.333334 64a128 128 0 1 0 0 256 128 128 0 0 0 0-256z m469.333334 0a128 128 0 1 0 0 256 128 128 0 0 0 0-256zM512 394.666667c144.64 0 278.613333 14.506667 402.005333 43.52a32 32 0 0 1-14.677333 62.293333c-118.4-27.861333-247.466667-41.813333-387.328-41.813333-139.818667 0-268.928 13.952-387.328 41.813333a32 32 0 0 1-14.677333-62.293333C233.386667 409.173333 367.402667 394.666667 512 394.666667z m157.866667-256a117.333333 117.333333 0 0 1 103.68 62.378666l3.541333 7.296 62.805333 141.312a32 32 0 0 1-56.448 29.866667l-2.005333-3.84-62.805333-141.354667a53.333333 53.333333 0 0 0-43.093334-31.36L669.866667 202.666667H354.133333c-19.2 0-36.693333 10.24-46.165333 26.581333l-2.56 5.12-62.848 141.312A32 32 0 0 1 182.613333 353.706667l1.493334-4.096 62.805333-141.312a117.333333 117.333333 0 0 1 99.072-69.376l8.106667-0.298667H669.866667z" /></svg>