<svg class="icon" style="width: 1em;height: 1em;vertical-align: middle;fill: currentColor;overflow: hidden;" viewBox="0 0 1024 1024" version="1.1" xmlns="http://www.w3.org/2000/svg"><path d="M138.794667 125.013333a32 32 0 0 1 34.858666-28.885333l159.786667 14.933333c113.152 11.221333 221.568 24.746667 310.528 40.064 87.338667 15.061333 160.597333 32.512 200.021333 53.333334a98.133333 98.133333 0 0 1 28.245334 20.992c8.192 9.386667 15.445333 23.552 12.373333 40.832-2.816 15.872-13.098667 26.965333-22.186667 34.133333a148.821333 148.821333 0 0 1-34.901333 19.285333c-52.650667 21.802667-153.386667 42.88-312.661333 63.701334-101.546667 13.312-166.186667 26.24-203.008 37.973333l3.285333 0.981333c17.493333 5.162667 39.850667 10.24 66.048 15.061334 52.309333 9.6 118.101333 17.834667 187.904 24.064 52.906667 4.693333 109.525333 12.245333 157.738667 21.76 24.064 4.778667 46.506667 10.112 65.621333 16.042666 18.346667 5.717333 36.181333 12.757333 49.152 21.76 6.4 4.437333 14.293333 11.093333 19.370667 20.864 5.888 11.221333 6.954667 24.746667 1.28 37.546667a57.173333 57.173333 0 0 1-20.906667 23.466667c-7.68 5.205333-16.938667 9.6-27.050667 13.482666-39.552 15.274667-111.104 29.525333-223.445333 42.922667-111.701333 13.354667-179.925333 30.336-218.026667 47.658667-19.114667 8.661333-27.733333 16.128-31.146666 20.608-2.133333 2.730667-1.834667 3.541333-1.664 4.138666l0.085333 0.170667c0.64 2.56 3.456 8.234667 12.245333 16.64 8.490667 8.149333 20.48 16.853333 35.498667 25.728 29.952 17.706667 68.309333 34.005333 105.216 46.592l138.496 44.672a32 32 0 0 1-19.626667 60.928l-139.349333-44.928c-39.381333-13.482667-82.261333-31.445333-117.290667-52.138667a259.712 259.712 0 0 1-47.189333-34.56c-12.928-12.373333-25.045333-28.032-29.952-46.805333-5.376-20.693333-0.938667-41.429333 12.672-59.306667 12.501333-16.384 31.914667-29.312 55.552-40.021333 47.402667-21.546667 123.733333-39.424 236.885333-52.906667 97.578667-11.648 158.890667-23.466667 193.834667-34.218666a590.933333 590.933333 0 0 0-62.72-15.530667 1503.36 1503.36 0 0 0-151.04-20.821333c-70.869333-6.357333-138.794667-14.762667-193.706667-24.874667a719.36 719.36 0 0 1-72.661333-16.64c-19.669333-5.845333-38.4-12.970667-51.712-22.4a55.637333 55.637333 0 0 1-19.626667-23.125333 42.496 42.496 0 0 1 2.56-38.442667c5.717333-9.898667 14.421333-16.64 22.016-21.333333 7.978667-4.949333 17.536-9.301333 28.16-13.226667 41.685333-15.488 115.413333-30.464 228.181334-45.226667 159.914667-20.906667 252.672-41.216 296.533333-59.392l5.333333-2.346666c-31.232-14.506667-92.16-29.696-175.274666-44.032-86.912-14.933333-193.578667-28.288-305.92-39.424l-159.530667-14.933334a32 32 0 0 1-28.885333-34.816z" /></svg>