<svg class="icon" style="width: 1em;height: 1em;vertical-align: middle;fill: currentColor;overflow: hidden;" viewBox="0 0 1024 1024" version="1.1" xmlns="http://www.w3.org/2000/svg"><path d="M863.957333 85.248a32 32 0 0 1 31.701334 27.648l0.298666 4.352v149.333333a74.666667 74.666667 0 0 1-68.565333 74.410667l-6.101333 0.256h-11.221334l-169.514666 382.378667a74.666667 74.666667 0 0 1-46.592 41.216c5.888 35.413333 4.992 68.778667-2.944 99.797333a185.770667 185.770667 0 0 1-10.410667 29.952 74.666667 74.666667 0 0 1-137.002667-1.664 201.088 201.088 0 0 1-9.429333-28.373333 234.24 234.24 0 0 1-2.986667-100.608 74.154667 74.154667 0 0 1-40.96-33.792l-2.986666-5.973334-173.226667-382.933333H202.666667a74.666667 74.666667 0 0 1-74.410667-68.522667L128 266.581333v-149.333333a32 32 0 0 1 63.701333-4.352l0.298667 4.352v149.333333a10.666667 10.666667 0 0 0 8.234667 10.368l2.432 0.298667H821.333333a10.666667 10.666667 0 0 0 10.368-8.234667l0.298667-2.432v-149.333333a32 32 0 0 1 32-32zM529.450667 768h-33.792l-1.621334 7.893333c-4.522667 25.173333-3.797333 49.408 2.176 72.96 1.706667 6.826667 3.84 13.269333 6.4 19.328a10.666667 10.666667 0 0 0 19.584 0.256c2.816-6.272 5.077333-12.8 6.826667-19.626666 5.589333-21.888 6.272-46.08 1.92-72.874667L529.408 768z m210.602666-426.752H284.245333l161.28 356.522667a10.666667 10.666667 0 0 0 7.253334 5.973333l2.474666 0.298667h117.034667a10.666667 10.666667 0 0 0 8.490667-4.224l1.28-2.133334 157.994666-356.437333z" /></svg>