<svg class="icon" style="width: 1em;height: 1em;vertical-align: middle;fill: currentColor;overflow: hidden;" viewBox="0 0 1024 1024" version="1.1" xmlns="http://www.w3.org/2000/svg"><path d="M757.504 597.333333c51.541333 0 93.610667 40.661333 95.872 91.648L853.333333 693.333333h-341.333333v-32.042666H266.709333a31.957333 31.957333 0 0 0-31.914666 32v24.661333c0 22.826667 8.106667 44.928 22.997333 62.293333 53.461333 62.634667 137.344 94.464 254.165333 94.464v-32.042666l283.392 0.042666c-66.56 64.256-161.706667 96-283.392 96-134.229333 0-236.032-38.613333-302.848-116.906666a160 160 0 0 1-38.314666-103.850667v-24.661333a95.957333 95.957333 0 0 1 95.914666-96h490.752z m73.216 202.709334L512 800v-64h340.437333a160.042667 160.042667 0 0 1-21.717333 64.042667zM512 85.333333c69.802667 0 131.754667 33.493333 170.666667 85.333334h-170.666667v-21.333334a149.333333 149.333333 0 1 0 0 298.666667V426.666667l170.666667 0.042666A213.333333 213.333333 0 1 1 512 85.333333z m212.266667 234.666667a211.84 211.84 0 0 1-16.682667 64H512V320h212.266667z m-16.64-106.666667c8.661333 19.968 14.421333 41.472 16.64 64H512V213.333333h195.584z" /></svg>