<svg class="icon" style="width: 1em;height: 1em;vertical-align: middle;fill: currentColor;overflow: hidden;" viewBox="0 0 1024 1024" version="1.1" xmlns="http://www.w3.org/2000/svg"><path d="M810.666667 191.616a106.666667 106.666667 0 0 1-128.512 104.448l-54.613334 90.325333A170.24 170.24 0 0 1 682.666667 514.474667l55.296 11.136a106.666667 106.666667 0 1 1-11.904 62.890666l-56.277334-11.306666a171.306667 171.306667 0 0 1-74.410666 83.754666l21.12 64.512h2.176a106.666667 106.666667 0 1 1-62.805334 20.394667l-21.205333-64.682667a170.410667 170.410667 0 0 1-160.085333-67.925333l-76.544 36.138667a106.666667 106.666667 0 1 1-25.941334-58.538667l74.837334-35.328a170.965333 170.965333 0 0 1 33.450666-152.192l-42.282666-48.213333a106.666667 106.666667 0 1 1 49.664-40.448l41.898666 47.786666A169.898667 169.898667 0 0 1 512 341.333333c21.546667 0 42.197333 4.010667 61.184 11.306667l53.12-87.893333A106.666667 106.666667 0 1 1 810.666667 191.658667z m-64 0a42.666667 42.666667 0 1 0-85.333334 0 42.666667 42.666667 0 0 0 85.333334 0zM298.666667 298.666667a42.666667 42.666667 0 1 0 0-85.333334 42.666667 42.666667 0 0 0 0 85.333334z m213.333333 320a106.666667 106.666667 0 1 0 0-213.333334 106.666667 106.666667 0 0 0 0 213.333334z m-277.333333 42.666666a42.666667 42.666667 0 1 0-85.333334 0 42.666667 42.666667 0 0 0 85.333334 0z m426.666666 170.752a42.666667 42.666667 0 1 0-85.333333 0 42.666667 42.666667 0 0 0 85.333333 0z m170.666667-213.418666a42.666667 42.666667 0 1 0 0-85.333334 42.666667 42.666667 0 0 0 0 85.333334z" /></svg>