<svg class="icon" style="width: 1em;height: 1em;vertical-align: middle;fill: currentColor;overflow: hidden;" viewBox="0 0 1024 1024" version="1.1" xmlns="http://www.w3.org/2000/svg"><path d="M597.333333 480c0-41.216 33.450667-74.666667 74.666667-74.666667h64a32 32 0 0 1 0 64h-64a10.666667 10.666667 0 0 0-10.666667 10.666667v64c0 5.888 4.778667 10.666667 10.666667 10.666667h21.333333c41.216 0 74.666667 33.450667 74.666667 74.666666v64A74.666667 74.666667 0 0 1 693.333333 768h-64a32 32 0 0 1 0-64h64a10.666667 10.666667 0 0 0 10.666667-10.666667v-64a10.666667 10.666667 0 0 0-10.666667-10.666666h-21.333333A74.666667 74.666667 0 0 1 597.333333 544v-64zM544 437.333333a32 32 0 0 0-64 0v256a10.666667 10.666667 0 0 1-10.666667 10.666667H416a32 32 0 0 0 0 64H469.333333a74.666667 74.666667 0 0 0 74.666667-74.666667v-256zM128 266.666667v490.666666A138.666667 138.666667 0 0 0 266.666667 896h490.666666A138.666667 138.666667 0 0 0 896 757.333333V266.666667A138.666667 138.666667 0 0 0 757.333333 128H266.666667A138.666667 138.666667 0 0 0 128 266.666667zM266.666667 192h490.666666c41.216 0 74.666667 33.450667 74.666667 74.666667v490.666666a74.666667 74.666667 0 0 1-74.666667 74.666667H266.666667a74.666667 74.666667 0 0 1-74.666667-74.666667V266.666667c0-41.216 33.450667-74.666667 74.666667-74.666667z" /></svg>