<svg class="icon" style="width: 1em;height: 1em;vertical-align: middle;fill: currentColor;overflow: hidden;" viewBox="0 0 1024 1024" version="1.1" xmlns="http://www.w3.org/2000/svg"><path d="M778.666667 298.666667a53.333333 53.333333 0 1 1-106.666667 0 53.333333 53.333333 0 0 1 106.666667 0zM661.333333 87.466667A279.637333 279.637333 0 0 0 381.866667 366.933333c0 16.512 2.133333 32.426667 4.693333 47.104a11.733333 11.733333 0 0 1-2.986667 10.410667l-266.026666 266.069333a117.333333 117.333333 0 0 0-34.389334 82.944V866.133333c0 41.216 33.450667 74.666667 74.666667 74.666667h106.666667a74.666667 74.666667 0 0 0 74.666666-74.666667v-53.333333H413.866667c29.44 0 53.333333-23.893333 53.333333-53.333333v-74.666667h74.666667a53.333333 53.333333 0 0 0 53.333333-51.370667c21.162667 5.461333 43.52 8.704 66.133333 8.704a279.637333 279.637333 0 0 0 279.466667-279.466666c0-154.922667-125.994667-275.2-279.466667-275.2zM445.866667 366.933333a215.637333 215.637333 0 0 1 215.466666-215.466666c119.552 0 215.466667 93.056 215.466667 211.2a215.637333 215.637333 0 0 1-215.466667 215.466666c-29.013333 0-58.88-7.296-85.546666-18.773333a32 32 0 0 0-44.629334 29.44v32H456.533333c-29.44 0-53.333333 23.893333-53.333333 53.333333v74.666667H328.533333c-29.44 0-53.333333 23.893333-53.333333 53.333333v64a10.666667 10.666667 0 0 1-10.666667 10.666667H157.866667a10.666667 10.666667 0 0 1-10.666667-10.666667v-92.672c0-14.122667 5.632-27.733333 15.616-37.717333l266.069333-266.026667a75.690667 75.690667 0 0 0 20.736-66.730666 209.792 209.792 0 0 1-3.754666-36.053334z" /></svg>