<svg class="icon" style="width: 1em;height: 1em;vertical-align: middle;fill: currentColor;overflow: hidden;" viewBox="0 0 1024 1024" version="1.1" xmlns="http://www.w3.org/2000/svg"><path d="M565.333333 448a96 96 0 0 1 95.786667 89.429333l0.213333 6.570667v298.666667a96 96 0 0 1-89.429333 95.786666L565.333333 938.666667h-384a96 96 0 0 1-95.786666-89.429334L85.333333 842.666667v-298.666667a96 96 0 0 1 89.429334-95.786667l6.570666-0.213333h384z m341.333334 0a32 32 0 0 1 31.701333 27.648l0.298667 4.352v362.666667a96 96 0 0 1-89.429334 95.786666L842.666667 938.666667h-85.333334a32 32 0 0 1-4.352-63.701334l4.352-0.298666h85.333334a32 32 0 0 0 31.701333-27.648l0.298667-4.352v-362.666667a32 32 0 0 1 32-32z m-341.333334 64h-384a32 32 0 0 0-31.701333 27.648l-0.298667 4.352v298.666667c0 16.213333 12.032 29.610667 27.648 31.701333l4.352 0.298667h384a32 32 0 0 0 31.701334-27.648L597.333333 842.666667v-298.666667a32 32 0 0 0-32-32z m-106.666666 234.666667a32 32 0 0 1 32 32c0 16.213333-14.506667 32-32 32h-170.666667a32 32 0 0 1-32-32c0-16.213333 14.506667-32 32-32h170.666667zM256 576a42.666667 42.666667 0 1 1 0 85.333333 42.666667 42.666667 0 0 1 0-85.333333z m234.666667 0a42.666667 42.666667 0 1 1 0 85.333333 42.666667 42.666667 0 0 1 0-85.333333z m-117.333334 0a42.666667 42.666667 0 1 1 0 85.333333 42.666667 42.666667 0 0 1 0-85.333333zM906.666667 85.333333a32.213333 32.213333 0 0 1 13.909333 3.157334l1.834667 0.981333a32 32 0 0 1 3.498666 2.304l3.413334 2.944 2.176 2.432 0.426666 0.597333 1.493334 2.048a31.786667 31.786667 0 0 1 4.949333 13.226667L938.666667 117.333333v213.333334a32 32 0 0 1-63.701334 4.352L874.666667 330.666667V194.56l-190.72 190.72a32 32 0 0 1-48.341334-41.642667l3.114667-3.584 190.634667-190.72H693.333333a32 32 0 0 1-31.701333-27.648L661.333333 117.333333a32 32 0 0 1 27.648-31.701333L693.333333 85.333333h213.333334z m-362.666667 0a32 32 0 0 1 4.352 63.701334l-4.352 0.298666h-362.666667a32 32 0 0 0-31.701333 27.648L149.333333 181.333333v170.666667a32 32 0 0 1-63.701333 4.352L85.333333 352v-170.666667a96 96 0 0 1 89.429334-95.786666L181.333333 85.333333h362.666667z" /></svg>