<svg class="icon" style="width: 1em;height: 1em;vertical-align: middle;fill: currentColor;overflow: hidden;" viewBox="0 0 1024 1024" version="1.1" xmlns="http://www.w3.org/2000/svg"><path d="M693.333333 874.666667a32 32 0 0 1 4.352 63.701333L693.333333 938.666667h-362.666666a32 32 0 0 1-4.352-63.744l4.352-0.256h362.666666zM469.632 101.12a74.666667 74.666667 0 0 1 95.146667 8.661333l4.565333 5.034667 335.573333 402.688a74.666667 74.666667 0 0 1-51.2 122.24l-6.144 0.213333h-122.282666L725.333333 736a74.666667 74.666667 0 0 1-62.208 73.642667l-6.357333 0.810666-6.101333 0.256h-277.333334a74.666667 74.666667 0 0 1-74.410666-68.565333L298.666667 736 298.624 640H176.426667a74.666667 74.666667 0 0 1-35.498667-9.002667l-6.357333-3.84-5.973334-4.48a74.666667 74.666667 0 0 1-13.653333-99.754666l4.138667-5.418667 335.573333-402.688 4.565333-4.992 4.992-4.565333 5.418667-4.096z m50.56 54.698667a10.666667 10.666667 0 0 0-12.586667-2.901334l-2.432 1.536-1.365333 1.365334-335.573333 402.688a10.666667 10.666667 0 0 0 5.76 17.194666l2.432 0.256H330.666667a32 32 0 0 1 31.701333 27.690667l0.298667 4.309333v128a10.666667 10.666667 0 0 0 8.234666 10.410667l2.432 0.298667h277.333334a10.666667 10.666667 0 0 0 10.368-8.234667l0.298666-2.432v-128a32 32 0 0 1 27.648-31.744l4.352-0.298667h154.24a10.666667 10.666667 0 0 0 9.557334-15.402666l-1.365334-2.090667-335.573333-402.645333z" /></svg>