<svg class="icon" style="width: 1em;height: 1em;vertical-align: middle;fill: currentColor;overflow: hidden;" viewBox="0 0 1024 1024" version="1.1" xmlns="http://www.w3.org/2000/svg"><path d="M906.666667 832a32 32 0 0 1 4.352 63.701333L906.666667 896H117.333333a32 32 0 0 1-4.352-63.701333l4.352-0.298667h789.333334zM842.453333 128a96 96 0 0 1 96 96v405.546667a96 96 0 0 1-96 96h-278.229333a53.333333 53.333333 0 0 1-104.448 0H181.333333A96 96 0 0 1 85.333333 629.546667V224A96 96 0 0 1 181.333333 128h661.12z m0 64H181.333333a32 32 0 0 0-32 32v405.546667c0 17.664 14.336 32 32 32h661.12a32 32 0 0 0 32-32V224a32 32 0 0 0-32-32z m-106.453333 341.333333a32 32 0 0 1 4.352 63.701334L736 597.333333H288a32 32 0 0 1-4.352-63.701333l4.352-0.298667h448zM704 384a42.666667 42.666667 0 1 1 0 85.333333 42.666667 42.666667 0 0 1 0-85.333333z m-255.786667 0a42.666667 42.666667 0 1 1 0 85.333333 42.666667 42.666667 0 0 1 0-85.333333z m-128 0a42.666667 42.666667 0 1 1 0 85.333333 42.666667 42.666667 0 0 1 0-85.333333z m256 0a42.666667 42.666667 0 1 1 0 85.333333 42.666667 42.666667 0 0 1 0-85.333333zM256 256a42.666667 42.666667 0 1 1 0 85.333333 42.666667 42.666667 0 0 1 0-85.333333z m127.786667 0a42.666667 42.666667 0 1 1 0 85.333333 42.666667 42.666667 0 0 1 0-85.333333z m128 0a42.666667 42.666667 0 1 1 0 85.333333 42.666667 42.666667 0 0 1 0-85.333333z m128 0a42.666667 42.666667 0 1 1 0 85.333333 42.666667 42.666667 0 0 1 0-85.333333z m128 0a42.666667 42.666667 0 1 1 0 85.333333 42.666667 42.666667 0 0 1 0-85.333333z" /></svg>