<svg class="icon" style="width: 1em;height: 1em;vertical-align: middle;fill: currentColor;overflow: hidden;" viewBox="0 0 1024 1024" version="1.1" xmlns="http://www.w3.org/2000/svg"><path d="M769.28 489.386667l-277.333333-277.333334a32 32 0 0 0-48.341334 41.642667l3.114667 3.584 222.72 222.72H160a32 32 0 0 0-31.701333 27.648L128 512c0 16.213333 12.032 29.610667 27.648 31.701333l4.352 0.298667h509.44l-222.72 222.72a32 32 0 0 0-3.114667 41.642667l3.114667 3.584a32 32 0 0 0 41.642667 3.114666l3.584-3.114666 277.333333-277.333334a32 32 0 0 0 3.114667-41.642666l-3.114667-3.584-277.333333-277.333334 277.333333 277.333334zM896 789.333333v-554.666666a32 32 0 0 0-64 0v554.666666a32 32 0 0 0 64 0z" /></svg>