<svg class="icon" style="width: 1em;height: 1em;vertical-align: middle;fill: currentColor;overflow: hidden;" viewBox="0 0 1024 1024" version="1.1" xmlns="http://www.w3.org/2000/svg"><path d="M842.453333 213.333333a96 96 0 0 1 96 96v405.546667a96 96 0 0 1-96 96H181.333333A96 96 0 0 1 85.333333 714.88V309.333333A96 96 0 0 1 181.333333 213.333333h661.12z m0 64H181.333333a32 32 0 0 0-32 32v405.546667c0 17.664 14.336 32 32 32h661.12a32 32 0 0 0 32-32V309.333333a32 32 0 0 0-32-32zM277.333333 682.666667H426.666667a32 32 0 0 0 0-64H277.333333a32 32 0 0 0 0 64z m320 0h149.333334a32 32 0 0 0 0-64H597.333333a32 32 0 0 0 0 64z m149.333334-213.333334a42.666667 42.666667 0 1 1 0 85.333334 42.666667 42.666667 0 0 1 0-85.333334z m-341.12 0a42.666667 42.666667 0 1 1 0 85.333334 42.666667 42.666667 0 0 1 0-85.333334z m-128 0a42.666667 42.666667 0 1 1 0 85.333334 42.666667 42.666667 0 0 1 0-85.333334z m341.333333 0a42.666667 42.666667 0 1 1 0 85.333334 42.666667 42.666667 0 0 1 0-85.333334zM256 341.333333a42.666667 42.666667 0 1 1 0 85.333334 42.666667 42.666667 0 0 1 0-85.333334z m127.786667 0a42.666667 42.666667 0 1 1 0 85.333334 42.666667 42.666667 0 0 1 0-85.333334z m256 0a42.666667 42.666667 0 1 1 0 85.333334 42.666667 42.666667 0 0 1 0-85.333334z m128 0a42.666667 42.666667 0 1 1 0 85.333334 42.666667 42.666667 0 0 1 0-85.333334z" /></svg>