<svg class="icon" style="width: 1em;height: 1em;vertical-align: middle;fill: currentColor;overflow: hidden;" viewBox="0 0 1024 1024" version="1.1" xmlns="http://www.w3.org/2000/svg"><path d="M220.373333 177.92a32 32 0 0 0 42.624-13.653333l0.085334-0.170667a49.92 49.92 0 0 1 10.24-11.093333c8.106667-6.485333 22.442667-14.336 46.677333-14.336 20.992 0 33.28 10.112 38.058667 19.626666 4.394667 8.832 4.394667 20.650667-7.338667 32.426667-8.32 8.277333-19.029333 15.488-32.682667 23.381333-3.754667 2.176-7.936 4.522667-12.373333 6.997334-10.24 5.76-21.845333 12.245333-32.128 18.986666-32.298667 21.077333-63.744 51.669333-70.613333 108.032A32 32 0 0 0 234.666667 384h160a32 32 0 1 0 0-64H279.381333c7.253333-10.368 17.152-18.517333 29.141334-26.368 8.490667-5.546667 16.725333-10.112 25.898666-15.274667 4.906667-2.730667 10.112-5.632 15.744-8.874666 14.890667-8.661333 31.488-19.2 45.781334-33.536 30.933333-30.890667 36.266667-72.405333 19.328-106.24-16.554667-33.152-52.266667-55.04-95.274667-55.04-39.765333 0-68.053333 13.482667-86.613333 28.330666a113.877333 113.877333 0 0 0-25.045334 27.904 69.12 69.12 0 0 0-1.450666 2.56l-0.512 0.853334-0.170667 0.426666-0.085333 0.128v0.085334l-0.085334 0.085333a32 32 0 0 0 14.336 42.922667z m392.96 13.397333c-5.76 5.376-17.066667 11.349333-37.333333 11.349334a32 32 0 0 0 0 64c20.224 0 31.573333 5.973333 37.333333 11.349333s8.106667 12.074667 7.68 18.773333c-0.64 11.221333-12.032 33.877333-55.68 33.877334-19.84 0-32.426667-5.845333-39.594666-10.624a44.586667 44.586667 0 0 1-8.874667-7.765334 32 32 0 0 0-43.946667-8.234666c-24.917333 16-8.874667 44.373333-8.874666 44.373333l0.042666 0.042667 0.042667 0.085333 0.085333 0.128 0.213334 0.341333 0.554666 0.768 1.536 2.048a108.458667 108.458667 0 0 0 23.722667 21.461334c16.810667 11.221333 41.6 21.376 75.093333 21.376 69.205333 0 116.48-41.344 119.594667-94.122667A87.125333 87.125333 0 0 0 660.48 234.666667c17.536-18.218667 25.856-42.069333 24.448-65.877334-3.157333-52.778667-50.389333-94.122667-119.594667-94.122666-33.493333 0-58.282667 10.154667-75.093333 21.376a108.458667 108.458667 0 0 0-23.722667 21.461333 62.634667 62.634667 0 0 0-1.536 2.048l-0.554666 0.768-0.213334 0.341333-0.085333 0.128-0.042667 0.085334-0.042666 0.042666a32 32 0 0 0 52.821333 36.138667 44.586667 44.586667 0 0 1 8.874667-7.765333c7.210667-4.778667 19.754667-10.624 39.594666-10.624 43.648 0 55.04 22.656 55.722667 33.877333a23.296 23.296 0 0 1-7.722667 18.773333z m-96.042666 121.6l-0.298667-0.469333v0.085333l0.170667 0.170667 0.042666 0.085333 0.085334 0.085334z m0-156.458666l-0.298667 0.426666v-0.085333l0.170667-0.170667 0.042666-0.085333 0.085334-0.085333zM149.12 113.024l0.298667 4.266667v234.538666a32 32 0 0 1-63.744 4.352l-0.256-4.352V161.792l-21.888 7.381333a32 32 0 0 1-38.826667-16.128l-1.706667-4.053333a32 32 0 0 1 16.128-38.826667l4.053334-1.706666 64.042666-21.461334a32 32 0 0 1 41.898667 26.026667zM726.485333 277.333333h115.968a32 32 0 0 1 32 32v405.546667a32 32 0 0 1-32 32H181.333333a32 32 0 0 1-32-32V418.304A74.368 74.368 0 0 1 85.333333 420.266667v294.613333a96 96 0 0 0 96 96h661.12a96 96 0 0 0 96-96V309.333333A96 96 0 0 0 842.453333 213.333333h-120.832a129.536 129.536 0 0 1-8.96 21.333334c7.125333 13.44 11.776 27.861333 13.824 42.666666z m9.514667 341.333334H288l-4.352 0.298666A32 32 0 0 0 288 682.666667h448l4.352-0.298667a32 32 0 0 0-4.352-63.701333z m10.666667-106.666667a42.666667 42.666667 0 1 0-85.333334 0 42.666667 42.666667 0 0 0 85.333334 0z m-255.786667 0a42.666667 42.666667 0 1 0-85.333333 0 42.666667 42.666667 0 0 0 85.333333 0z m-128 0a42.666667 42.666667 0 1 0-85.333333 0 42.666667 42.666667 0 0 0 85.333333 0z m256 0a42.666667 42.666667 0 1 0-85.333333 0 42.666667 42.666667 0 0 0 85.333333 0z m191.573333-128a42.666667 42.666667 0 1 0-85.333333 0 42.666667 42.666667 0 0 0 85.333333 0z" /></svg>