<svg class="icon" style="width: 1em;height: 1em;vertical-align: middle;fill: currentColor;overflow: hidden;" viewBox="0 0 1024 1024" version="1.1" xmlns="http://www.w3.org/2000/svg"><path d="M736.085333 512h-448l-4.309333 0.298667a32 32 0 0 0 4.309333 63.701333h448l4.352-0.298667A32 32 0 0 0 736.085333 512zM746.752 405.333333a42.666667 42.666667 0 1 0-85.333333 0 42.666667 42.666667 0 0 0 85.333333 0zM490.965333 405.333333a42.666667 42.666667 0 1 0-85.333333 0 42.666667 42.666667 0 0 0 85.333333 0zM362.965333 405.333333a42.666667 42.666667 0 1 0-85.333333 0 42.666667 42.666667 0 0 0 85.333333 0zM618.965333 405.333333a42.666667 42.666667 0 1 0-85.333333 0 42.666667 42.666667 0 0 0 85.333333 0zM298.752 277.333333a42.666667 42.666667 0 1 0-85.333333 0 42.666667 42.666667 0 0 0 85.333333 0zM426.538667 277.333333a42.666667 42.666667 0 1 0-85.333334 0 42.666667 42.666667 0 0 0 85.333334 0zM554.538667 277.333333a42.666667 42.666667 0 1 0-85.333334 0 42.666667 42.666667 0 0 0 85.333334 0zM682.538667 277.333333a42.666667 42.666667 0 1 0-85.333334 0 42.666667 42.666667 0 0 0 85.333334 0zM810.538667 277.333333a42.666667 42.666667 0 1 0-85.333334 0 42.666667 42.666667 0 0 0 85.333334 0zM938.581333 202.666667a96 96 0 0 0-96-96H181.418667a96 96 0 0 0-96 96v405.546666a96 96 0 0 0 96 96h298.581333V768h0.085333v61.44l-35.84-35.925333-3.626666-3.072a32 32 0 0 0-41.642667 48.341333l90.496 90.496 3.584 3.114667a31.872 31.872 0 0 0 16.810667 6.186666h4.48l4.394666-0.597333a31.872 31.872 0 0 0 16-8.704l90.496-90.496 3.114667-3.584a32 32 0 0 0-3.114667-41.685333l-3.584-3.072a32 32 0 0 0-41.685333 3.072l-35.84 35.882666v-125.184h298.453333a96 96 0 0 0 96-96V202.666667zM544 640.213333V640h-64v0.213333H181.418667a32 32 0 0 1-32-32V202.666667a32 32 0 0 1 32-32h661.162666a32 32 0 0 1 32 32v405.546666a32 32 0 0 1-32 32H544z" /></svg>