<svg class="icon" style="width: 1em;height: 1em;vertical-align: middle;fill: currentColor;overflow: hidden;" viewBox="0 0 1024 1024" version="1.1" xmlns="http://www.w3.org/2000/svg"><path d="M464.213333 105.258667a74.837333 74.837333 0 0 0-9.557333 9.557333L119.04 517.546667a74.666667 74.666667 0 0 0 9.557333 105.173333l5.973334 4.48c12.288 8.32 26.88 12.8 41.813333 12.8h122.197333L298.666667 864c0 41.258667 33.450667 74.666667 74.666666 74.666667h277.333334l6.101333-0.213334A74.666667 74.666667 0 0 0 725.333333 864L725.290667 640h122.282666a74.666667 74.666667 0 0 0 57.344-122.453333L569.344 114.773333a74.666667 74.666667 0 0 0-99.712-13.653333l-5.418667 4.096z m55.978667 50.56l335.573333 402.688a10.666667 10.666667 0 0 1-8.192 17.493333H693.333333a32 32 0 0 0-32 32v256a10.666667 10.666667 0 0 1-10.666666 10.666667h-277.333334a10.666667 10.666667 0 0 1-10.666666-10.666667v-256a32 32 0 0 0-32-32H176.426667a10.666667 10.666667 0 0 1-8.192-17.493333l335.573333-402.688a10.666667 10.666667 0 0 1 16.384 0z" /></svg>