<svg class="icon" style="width: 1em;height: 1em;vertical-align: middle;fill: currentColor;overflow: hidden;" viewBox="0 0 1024 1024" version="1.1" xmlns="http://www.w3.org/2000/svg"><path d="M117.333333 704h789.333334a32 32 0 0 1 4.309333 63.701333L906.666667 768H117.376a32 32 0 0 1-4.352-63.744l4.352-0.256h789.248H117.376zM778.666667 213.333333c41.216 0 74.666667 33.450667 74.666666 74.666667v320A74.666667 74.666667 0 0 1 778.666667 682.666667H245.333333A74.666667 74.666667 0 0 1 170.666667 608v-320C170.666667 246.784 204.074667 213.333333 245.333333 213.333333h533.333334z m0 64H245.333333a10.666667 10.666667 0 0 0-10.666666 10.666667v320c0 5.888 4.778667 10.666667 10.666666 10.666667h533.333334a10.666667 10.666667 0 0 0 10.666666-10.666667v-320a10.666667 10.666667 0 0 0-10.666666-10.666667z" /></svg>