<svg class="icon" style="width: 1em;height: 1em;vertical-align: middle;fill: currentColor;overflow: hidden;" viewBox="0 0 1024 1024" version="1.1" xmlns="http://www.w3.org/2000/svg"><path d="M413.994667 96.64A427.776 427.776 0 0 1 512 85.333333c33.706667 0 66.517333 3.925333 98.005333 11.306667a32 32 0 1 1-14.634666 62.293333A363.818667 363.818667 0 0 0 512 149.333333c-28.714667 0-56.618667 3.328-83.370667 9.6a32 32 0 1 1-14.634666-62.293333zM331.648 159.402667a32 32 0 0 1-10.325333 44.032 364.714667 364.714667 0 0 0-117.888 117.888 32 32 0 1 1-54.4-33.706667 428.714667 428.714667 0 0 1 138.581333-138.581333 32 32 0 0 1 44.032 10.368zM692.352 159.402667a32 32 0 0 1 44.032-10.368 428.714667 428.714667 0 0 1 138.581333 138.581333 32 32 0 1 1-54.4 33.706667 364.8 364.8 0 0 0-117.888-117.888 32 32 0 0 1-10.325333-44.032zM135.125333 390.144a32 32 0 0 1 23.808 38.485333A363.818667 363.818667 0 0 0 149.333333 512c0 28.714667 3.328 56.618667 9.6 83.370667a32 32 0 1 1-62.293333 14.634666A427.776 427.776 0 0 1 85.333333 512c0-33.706667 3.925333-66.517333 11.306667-98.005333a32 32 0 0 1 38.485333-23.850667zM888.874667 390.144a32 32 0 0 1 38.485333 23.850667C934.741333 445.44 938.666667 478.293333 938.666667 512c0 33.706667-3.925333 66.517333-11.306667 98.005333a32 32 0 1 1-62.293333-14.634666c6.272-26.752 9.6-54.613333 9.6-83.370667 0-28.714667-3.328-56.618667-9.642667-83.370667a32 32 0 0 1 23.850667-38.485333zM159.402667 692.352a32 32 0 0 1 44.032 10.325333 364.714667 364.714667 0 0 0 117.888 117.888 32 32 0 0 1-33.706667 54.4 428.714667 428.714667 0 0 1-138.581333-138.581333 32 32 0 0 1 10.368-44.032zM871.253333 728.96a32 32 0 1 0-57.173333-28.586667l-0.128 0.170667-0.64 1.237333a341.504 341.504 0 0 1-15.274667 25.173334 408.746667 408.746667 0 0 1-41.173333 51.968c-49.92-45.781333-117.589333-85.589333-202.24-85.589334-100.138667 0-170.24 51.328-170.24 122.666667S454.528 938.666667 554.666667 938.666667c82.858667 0 149.12-32 198.741333-70.186667a500.48 500.48 0 0 1 56.106667 85.76c1.408 2.773333 2.474667 4.949333 3.114666 6.357333l0.725334 1.493334 0.170666 0.384a32 32 0 0 0 58.368-26.24c-3.712-7.808 0-0.042667 0-0.042667v-0.085333l-0.128-0.170667-0.298666-0.64a506.624 506.624 0 0 0-19.797334-37.12 563.157333 563.157333 0 0 0-50.730666-72.661333 471.765333 471.765333 0 0 0 65.066666-86.698667l3.84-6.912 1.024-2.005333 0.298667-0.597334 0.085333-0.213333 0.085334-0.128zM554.666667 757.333333c61.141333 0 112.810667 27.818667 154.282666 64.512-40.533333 29.866667-91.946667 52.821333-154.282666 52.821334-84.181333 0-106.24-39.338667-106.24-58.666667 0-19.328 22.058667-58.666667 106.24-58.666667z" /></svg>