<svg class="icon" style="width: 1em;height: 1em;vertical-align: middle;fill: currentColor;overflow: hidden;" viewBox="0 0 1024 1024" version="1.1" xmlns="http://www.w3.org/2000/svg"><path d="M854.442667 520.192a85.418667 85.418667 0 0 1-24.618667 25.514667l-258.133333 174.250666a106.666667 106.666667 0 0 1-119.381334 0l-258.133333-174.250666a85.333333 85.333333 0 0 1-33.237333-97.706667l291.882666 194.56a106.666667 106.666667 0 0 0 111.488 4.181333l6.826667-4.181333 291.882667-194.56a85.162667 85.162667 0 0 1-8.576 72.192z m8.576 66.474667a85.162667 85.162667 0 0 1-33.194667 97.706666l-258.133333 174.250667a106.666667 106.666667 0 0 1-119.381334 0l-258.133333-174.250667a85.333333 85.333333 0 0 1-33.237333-97.706666l291.882666 194.56a106.666667 106.666667 0 0 0 111.488 4.181333l6.826667-4.181333 291.882667-194.56z m-291.84-440.533334l271.573333 181.034667a42.666667 42.666667 0 0 1 0 70.997333l-271.573333 181.077334a106.666667 106.666667 0 0 1-118.357334 0L181.248 398.165333a42.666667 42.666667 0 0 1 0-70.997333l271.573333-181.034667a106.666667 106.666667 0 0 1 118.357334 0zM493.226667 196.522667l-4.949334 2.858666L243.413333 362.666667l244.906667 163.328a42.666667 42.666667 0 0 0 42.410667 2.816l4.949333-2.816L780.544 362.666667l-244.906667-163.285334a42.666667 42.666667 0 0 0-42.368-2.858666z" /></svg>