<svg class="icon" style="width: 1em;height: 1em;vertical-align: middle;fill: currentColor;overflow: hidden;" viewBox="0 0 1024 1024" version="1.1" xmlns="http://www.w3.org/2000/svg"><path d="M85.418667 200.746667V384a256 256 0 0 0 268.501333 255.701333 297.813333 297.813333 0 0 0 53.717333 102.144l-99.413333 99.370667a32 32 0 0 0 45.226667 45.226667l99.413333-99.370667a298.624 298.624 0 0 0 485.930667-232.576V330.581333a74.666667 74.666667 0 0 0-74.666667-74.666666h-223.957333c-24.874667 0-49.066667 3.029333-72.192 8.746666A256 256 0 0 0 341.418667 128H158.165333c-40.149333 0-72.746667 32.554667-72.746666 72.746667z m413.056 540.757333l174.805333-174.677333a32 32 0 0 0-45.226667-45.226667l-174.805333 174.677333a234.624 234.624 0 0 1 186.965333-376.362666h223.914667a10.666667 10.666667 0 0 1 10.666667 10.666666v223.914667a234.624 234.624 0 0 1-376.32 187.008zM341.504 192c70.656 0 132.437333 38.186667 165.76 95.061333a299.946667 299.946667 0 0 0-115.626667 101.973334L310.613333 308.053333a32 32 0 0 0-45.226666 45.226667l95.445333 95.488a297.941333 297.941333 0 0 0-18.474667 127.232h-0.938666a192 192 0 0 1-192-192V200.746667c0-4.821333 3.925333-8.746667 8.746666-8.746667h183.253334z" /></svg>