<svg class="icon" style="width: 1em;height: 1em;vertical-align: middle;fill: currentColor;overflow: hidden;" viewBox="0 0 1024 1024" version="1.1" xmlns="http://www.w3.org/2000/svg"><path d="M564.821333 139.605333a74.666667 74.666667 0 0 0-105.6 0L300.8 297.984A298.624 298.624 0 0 0 480 805.973333v100.650667a32 32 0 0 0 64 0V805.973333a298.624 298.624 0 0 0 179.157333-508.032l-158.378666-158.378666zM544 741.546667v-240.213334a32 32 0 0 0-64 0v240.213334a234.624 234.624 0 0 1-133.888-398.336l158.336-158.336a10.666667 10.666667 0 0 1 15.104 0l158.336 158.336a234.624 234.624 0 0 1-133.888 398.336z" /></svg>