<svg class="icon" style="width: 1em;height: 1em;vertical-align: middle;fill: currentColor;overflow: hidden;" viewBox="0 0 1024 1024" version="1.1" xmlns="http://www.w3.org/2000/svg"><path d="M810.666667 320c0 22.186667-3.072 43.648-8.832 64h69.12C908.373333 384 938.666667 414.293333 938.666667 451.669333V661.333333a277.333333 277.333333 0 0 1-449.493334 217.429334L438.613333 929.28a32 32 0 1 1-45.226666-45.226667l50.517333-50.56a277.077333 277.077333 0 0 1-40.704-70.613333A256 256 0 0 1 96 512V320.597333C96 284.928 124.928 256 160.597333 256h189.568A234.752 234.752 0 0 1 576 85.333333h173.226667c33.92 0 61.44 27.52 61.44 61.44V320zM414.805333 263.765333a256.554667 256.554667 0 0 1 165.504 132.266667A277.290667 277.290667 0 0 1 661.333333 384h72.96c7.978667-19.754667 12.373333-41.386667 12.373334-64v-170.666667h-170.666667a170.752 170.752 0 0 0-161.194667 114.432z m120.021334 569.344A213.333333 213.333333 0 0 0 874.666667 661.333333v-209.664a3.669333 3.669333 0 0 0-3.669334-3.669333H661.333333a213.333333 213.333333 0 0 0-171.776 339.84l181.162667-181.12a32 32 0 1 1 45.226667 45.226667l-181.12 181.162666zM384 661.333333c0-25.258667 3.413333-49.749333 9.728-73.002666L276.053333 470.613333a32 32 0 1 1 45.226667-45.226666l98.901333 98.858666a278.698667 278.698667 0 0 1 101.333334-102.485333A192 192 0 0 0 352 320H160.384l-0.213333 0.170667a0.938667 0.938667 0 0 0-0.128 0.213333l-0.042667 0.213333V512a192 192 0 0 0 226.816 188.842667A279.765333 279.765333 0 0 1 384 661.333333z" /></svg>