<svg class="icon" style="width: 1em;height: 1em;vertical-align: middle;fill: currentColor;overflow: hidden;" viewBox="0 0 1024 1024" version="1.1" xmlns="http://www.w3.org/2000/svg"><path d="M234.666667 85.333333A106.666667 106.666667 0 0 0 128 192v640A106.666667 106.666667 0 0 0 234.666667 938.666667h311.893333a278.101333 278.101333 0 0 1-45.994667-64H234.666667a42.666667 42.666667 0 0 1-42.666667-42.666667h290.688a276.266667 276.266667 0 0 1-12.544-64H192V192a42.666667 42.666667 0 0 1 42.666667-42.666667H725.333333a42.666667 42.666667 0 0 1 42.666667 42.666667v278.144c22.186667 1.706667 43.605333 5.973333 64 12.544V192A106.666667 106.666667 0 0 0 725.333333 85.333333H234.666667zM981.333333 746.666667a234.666667 234.666667 0 1 0-469.333333 0 234.666667 234.666667 0 0 0 469.333333 0z m-259.669333-102.528l119.722667 78.506666a25.984 25.984 0 0 1 11.946666 22.186667 27.904 27.904 0 0 1-3.072 12.757333 24.490667 24.490667 0 0 1-8.448 9.642667l-119.765333 81.706667a27.093333 27.093333 0 0 1-6.741333 3.285333 23.509333 23.509333 0 0 1-16.853334-0.981333 29.269333 29.269333 0 0 1-8.234666-5.76 30.72 30.72 0 0 1-5.546667-8.533334 26.154667 26.154667 0 0 1-2.005333-10.112v-160.341333a26.538667 26.538667 0 0 1 15.658666-24.32 23.552 23.552 0 0 1 23.338667 1.92zM256 256a42.666667 42.666667 0 0 1 42.666667-42.666667h341.333333a42.666667 42.666667 0 0 1 42.666667 42.666667v85.333333a42.666667 42.666667 0 0 1-42.666667 42.666667H298.666667a42.666667 42.666667 0 0 1-42.666667-42.666667V256z m64 64h298.666667v-42.666667h-298.666667v42.666667z" /></svg>