<svg class="icon" style="width: 1em;height: 1em;vertical-align: middle;fill: currentColor;overflow: hidden;" viewBox="0 0 1024 1024" version="1.1" xmlns="http://www.w3.org/2000/svg"><path d="M512 85.333333c235.648 0 426.666667 191.018667 426.666667 426.666667s-191.018667 426.666667-426.666667 426.666667S85.333333 747.648 85.333333 512 276.352 85.333333 512 85.333333z m0 64a362.666667 362.666667 0 1 0 0 725.333334 362.666667 362.666667 0 0 0 0-725.333334z m0 72.618667a213.333333 213.333333 0 0 1 132.693333 380.373333l1.365334-1.194666-32.64 143.658666a73.984 73.984 0 0 1-58.88 55.936l-6.4 0.981334-6.656 0.341333h-58.965334c-31.317333 0-59.136-19.754667-70.144-50.858667l-1.834666-6.485333-32.682667-143.616-6.613333-5.504a213.333333 213.333333 0 0 1-71.338667-137.813333l-0.896-10.922667L298.666667 435.285333a213.333333 213.333333 0 0 1 213.333333-213.333333zM561.92 682.666667h-99.925333l10.453333 45.994666 0.810667 2.858667a9.813333 9.813333 0 0 0 9.258666 6.528l57.173334 0.042667 2.944-0.085334a9.813333 9.813333 0 0 0 8.405333-7.466666L561.92 682.666667zM512 285.952c-82.474667 0-149.333333 66.858667-149.333333 148.394667l0.256 9.728a149.034667 149.034667 0 0 0 62.250666 112.682666 32 32 0 0 1 12.544 18.944l9.770667 43.050667 1.706667-0.085333h125.568l1.664 0.085333 9.813333-43.008a32 32 0 0 1 8.490667-15.488l3.413333-2.944 7.210667-5.461333A149.333333 149.333333 0 0 0 512 285.952z" /></svg>