<svg class="icon" style="width: 1em;height: 1em;vertical-align: middle;fill: currentColor;overflow: hidden;" viewBox="0 0 1024 1024" version="1.1" xmlns="http://www.w3.org/2000/svg"><path d="M512 85.376a309.333333 309.333333 0 0 1 309.333333 309.333333c0 89.429333-38.4 171.52-113.621333 244.992a32 32 0 0 0-7.466667 11.306667l-1.365333 4.394667-48.213333 208.853333a96 96 0 0 1-86.186667 74.112l-7.381333 0.298667h-90.197334a96 96 0 0 1-91.605333-67.285334l-1.92-7.125333-48.213333-208.853333a32 32 0 0 0-8.789334-15.701334c-71.68-69.973333-109.952-147.754667-113.450666-232.277333l-0.256-12.714667 0.170666-10.24A309.333333 309.333333 0 0 1 512 85.418667z m90.24 703.914667H421.717333l14.037334 60.586666a32 32 0 0 0 26.752 24.448l4.394666 0.341334h90.197334a32 32 0 0 0 29.866666-20.608l1.28-4.224 13.994667-60.544zM512 149.376a245.333333 245.333333 0 0 0-245.162667 235.946667l-0.170666 9.386666 0.298666 11.818667c3.242667 66.688 34.133333 128.853333 94.122667 187.392 11.264 11.008 19.626667 24.576 24.362667 39.509333l2.090666 7.594667 19.413334 84.266667h210.048l19.541333-84.309334a96 96 0 0 1 21.034667-41.386666l5.418666-5.674667c59.904-58.581333 90.794667-120.661333 94.037334-187.392l0.298666-11.818667-0.170666-9.386666A245.333333 245.333333 0 0 0 512 149.333333z" /></svg>