<svg class="icon" style="width: 1em;height: 1em;vertical-align: middle;fill: currentColor;overflow: hidden;" viewBox="0 0 1024 1024" version="1.1" xmlns="http://www.w3.org/2000/svg"><path d="M458.666667 352a42.666667 42.666667 0 1 1-85.333334 0 42.666667 42.666667 0 0 1 85.333334 0zM576 352a42.666667 42.666667 0 1 1-85.333333 0 42.666667 42.666667 0 0 1 85.333333 0zM704 352a42.666667 42.666667 0 1 1-85.333333 0 42.666667 42.666667 0 0 1 85.333333 0zM832 352a42.666667 42.666667 0 1 1-85.333333 0 42.666667 42.666667 0 0 1 85.333333 0zM416 714.666667a42.666667 42.666667 0 1 0 0-85.333334 42.666667 42.666667 0 0 0 0 85.333334zM533.333333 714.666667a42.666667 42.666667 0 1 0 0-85.333334 42.666667 42.666667 0 0 0 0 85.333334zM661.333333 714.666667a42.666667 42.666667 0 1 0 0-85.333334 42.666667 42.666667 0 0 0 0 85.333334zM789.333333 714.666667a42.666667 42.666667 0 1 0 0-85.333334 42.666667 42.666667 0 0 0 0 85.333334zM213.333333 170.666667a128 128 0 0 0-128 128v426.666666a128 128 0 0 0 128 128h597.333334a128 128 0 0 0 128-128V298.666667a128 128 0 0 0-128-128H213.333333z m597.333334 64A64 64 0 0 1 874.666667 298.666667v181.333333h-554.666667V234.666667H810.666667z m64 309.333333V725.333333a64 64 0 0 1-64 64H320v-245.333333h554.666667zM256 480H149.333333V298.666667A64 64 0 0 1 213.333333 234.666667h42.666667v245.333333z m-106.666667 64H256v245.333333H213.333333A64 64 0 0 1 149.333333 725.333333v-181.333333z" /></svg>