<svg class="icon" style="width: 1em;height: 1em;vertical-align: middle;fill: currentColor;overflow: hidden;" viewBox="0 0 1024 1024" version="1.1" xmlns="http://www.w3.org/2000/svg"><path d="M117.333333 213.333333a32 32 0 0 0 0 64h149.333334a32 32 0 0 0 0-64h-149.333334z m0.085334 277.461334h789.333333a32 32 0 0 1 4.352 63.701333l-4.352 0.298667h-789.333333a32 32 0 0 1-4.309334-63.701334l4.309334-0.298666zM85.333333 778.666667c0-29.44 23.893333-53.333333 53.333334-53.333334h746.666666a53.333333 53.333333 0 1 1 0 106.666667H138.666667c-29.44 0-53.333333-23.893333-53.333334-53.333333z m330.666667-533.333334A32 32 0 0 1 448 213.333333h128a32 32 0 0 1 0 64h-128a32 32 0 0 1-32-32z m341.333333-32a32 32 0 0 0 0 64h149.333334a32 32 0 0 0 0-64h-149.333334z" /></svg>