<svg class="icon" style="width: 1em;height: 1em;vertical-align: middle;fill: currentColor;overflow: hidden;" viewBox="0 0 1024 1024" version="1.1" xmlns="http://www.w3.org/2000/svg"><path d="M394.666667 298.666667a32 32 0 0 1 4.693333 63.658666l-4.693333 0.341334H298.666667a149.333333 149.333333 0 0 0-8.789334 298.410666L298.666667 661.333333h96a32 32 0 0 1 4.693333 63.658667L394.666667 725.333333H298.666667a213.333333 213.333333 0 0 1-10.666667-426.410666L298.666667 298.666667h96zM725.333333 298.666667a213.333333 213.333333 0 0 1 10.666667 426.410666L725.333333 725.333333h-96a32 32 0 0 1-4.693333-63.658666l4.693333-0.341334H725.333333a149.333333 149.333333 0 0 0 8.789334-298.410666L725.333333 362.666667h-96a32 32 0 0 1-4.693333-63.658667L629.333333 298.666667H725.333333zM298.666667 480h426.666666a32 32 0 0 1 4.352 63.701333L725.333333 544H298.666667a32 32 0 0 1-4.352-63.701333L298.666667 480h426.666666H298.666667z" /></svg>