<svg class="icon" style="width: 1em;height: 1em;vertical-align: middle;fill: currentColor;overflow: hidden;" viewBox="0 0 1024 1024" version="1.1" xmlns="http://www.w3.org/2000/svg"><path d="M426.666667 245.333333A32 32 0 0 0 394.666667 213.333333H298.666667l-10.666667 0.256A213.333333 213.333333 0 0 0 298.666667 640h96l4.693333-0.341333a32 32 0 0 0-4.693333-63.658667H298.666667l-8.789334-0.256A149.333333 149.333333 0 0 1 298.666667 277.333333h96l4.693333-0.341333A32 32 0 0 0 426.666667 245.333333zM938.538667 426.666667a213.333333 213.333333 0 0 0-213.333334-213.333334h-96l-4.693333 0.341334a32 32 0 0 0 4.693333 63.658666h96l8.789334 0.256a149.333333 149.333333 0 0 1 140.501333 153.088c22.101333 5.376 43.093333 16.213333 60.928 32.426667a214.613333 214.613333 0 0 0 3.114667-36.48z m-213.333334-32H298.666667l-4.352 0.256A32 32 0 0 0 298.666667 458.666667h426.624l4.309333-0.256A32 32 0 0 0 725.333333 394.666667z m46.933334 103.210666l-251.776 251.818667a114.56 114.56 0 0 0-30.165334 53.205333l-19.498666 78.08c-8.533333 34.005333 22.272 64.768 56.234666 56.277334l78.08-19.541334a114.56 114.56 0 0 0 53.248-30.122666L910.08 635.733333a97.493333 97.493333 0 0 0-137.941333-137.898666z" /></svg>