<svg class="icon" style="width: 1em;height: 1em;vertical-align: middle;fill: currentColor;overflow: hidden;" viewBox="0 0 1024 1024" version="1.1" xmlns="http://www.w3.org/2000/svg"><path d="M266.666667 128A138.666667 138.666667 0 0 0 128 266.666667v256a138.666667 138.666667 0 0 0 138.666667 138.666666H320V597.333333H266.666667a74.666667 74.666667 0 0 1-74.666667-74.666666v-256c0-41.216 33.450667-74.666667 74.666667-74.666667h256c41.216 0 74.666667 33.450667 74.666666 74.666667v256A74.666667 74.666667 0 0 1 522.666667 597.333333H469.333333v64h53.333334a138.666667 138.666667 0 0 0 138.666666-138.666666v-256A138.666667 138.666667 0 0 0 522.666667 128h-256zM426.666667 501.333333c0-41.216 33.450667-74.666667 74.666666-74.666666h53.248V362.666667H501.333333a138.666667 138.666667 0 0 0-138.666666 138.666666v256A138.666667 138.666667 0 0 0 501.333333 896h256A138.666667 138.666667 0 0 0 896 757.333333v-256a138.666667 138.666667 0 0 0-138.666667-138.666666H704V426.666667h53.333333c41.216 0 74.666667 33.450667 74.666667 74.666666v256a74.666667 74.666667 0 0 1-74.666667 74.666667h-256A74.666667 74.666667 0 0 1 426.666667 757.333333v-256z" /></svg>