<svg class="icon" style="width: 1em;height: 1em;vertical-align: middle;fill: currentColor;overflow: hidden;" viewBox="0 0 1024 1024" version="1.1" xmlns="http://www.w3.org/2000/svg"><path d="M394.666667 213.333333a32 32 0 0 1 4.693333 63.658667l-4.693333 0.341333H298.666667a149.333333 149.333333 0 0 0-8.789334 298.410667L298.666667 576h96a32 32 0 0 1 4.693333 63.658667L394.666667 640H298.666667a213.333333 213.333333 0 0 1-10.666667-426.410667L298.666667 213.333333h96zM725.333333 213.333333a213.333333 213.333333 0 0 1 189.013334 312.405334 277.162667 277.162667 0 0 0-55.210667-32.64 149.333333 149.333333 0 0 0-125.013333-215.466667L725.333333 277.290667h-96a32 32 0 0 1-4.693333-63.658667L629.333333 213.333333H725.333333zM298.666667 394.666667h426.666666a32 32 0 0 1 4.352 63.701333L725.333333 458.666667H298.666667a32 32 0 0 1-4.352-63.701334L298.666667 394.666667z m682.666666 352a234.666667 234.666667 0 1 1-469.333333 0 234.666667 234.666667 0 0 1 469.333333 0z m-304.896-100.437334a21.333333 21.333333 0 0 0-30.208 30.208l70.272 70.229334-70.272 70.229333a21.333333 21.333333 0 0 0 30.208 30.208l70.229334-70.272 70.229333 70.272a21.333333 21.333333 0 0 0 30.208-30.208L776.832 746.666667l70.272-70.229334a21.333333 21.333333 0 0 0-30.208-30.208L746.666667 716.501333l-70.229334-70.272z" /></svg>