<svg class="icon" style="width: 1em;height: 1em;vertical-align: middle;fill: currentColor;overflow: hidden;" viewBox="0 0 1024 1024" version="1.1" xmlns="http://www.w3.org/2000/svg"><path d="M117.333333 768h533.333334a32 32 0 0 1 4.352 63.701333l-4.352 0.298667H117.333333a32 32 0 0 1-4.352-63.744L117.333333 768h533.333334-533.333334z m0-277.333333h789.333334a32 32 0 0 1 4.352 63.701333L906.666667 554.666667H117.333333a32 32 0 0 1-4.352-63.701334l4.352-0.298666h789.333334-789.333334z m0-277.205334h661.333334a32 32 0 0 1 4.352 63.701334l-4.352 0.298666H117.333333a32 32 0 0 1-4.352-63.701333l4.352-0.298667h661.333334-661.333334z" /></svg>