<svg class="icon" style="width: 1em;height: 1em;vertical-align: middle;fill: currentColor;overflow: hidden;" viewBox="0 0 1024 1024" version="1.1" xmlns="http://www.w3.org/2000/svg"><path d="M139.946667 94.72a32 32 0 1 0-45.226667 45.226667L188.501333 233.813333c-144.469333 167.637333-137.216 420.906667 21.76 579.925334a32 32 0 1 0 45.312-45.226667 362.666667 362.666667 0 0 1-21.674666-489.301333L309.76 355.029333a256.042667 256.042667 0 0 0 21.205333 338.005334 32 32 0 0 0 45.269334-45.269334 192.042667 192.042667 0 0 1-20.736-247.04l94.677333 94.72A64.128 64.128 0 0 0 512 576c5.717333 0 11.264-0.768 16.554667-2.133333l355.456 355.413333a32 32 0 0 0 45.269333-45.226667L139.946667 94.72zM827.264 691.498667l46.634667 46.677333c103.168-164.736 83.072-384.597333-60.16-527.872a32 32 0 0 0-45.312 45.226667 362.837333 362.837333 0 0 1 58.794666 435.968zM697.472 561.706667l50.261333 50.261333a256.085333 256.085333 0 0 0-54.698666-281.002667 32 32 0 1 0-45.269334 45.269334 191.914667 191.914667 0 0 1 49.706667 185.514666z" /></svg>