<svg class="icon" style="width: 1em;height: 1em;vertical-align: middle;fill: currentColor;overflow: hidden;" viewBox="0 0 1024 1024" version="1.1" xmlns="http://www.w3.org/2000/svg"><path d="M139.946667 94.72a32 32 0 1 0-45.226667 45.226667l109.482667 109.525333a371.626667 371.626667 0 0 0 45.098666 470.826667c12.629333 12.629333 28.288 28.16 47.018667 46.506666l148.949333 144.896a96 96 0 0 0 133.461334 0 28010.410667 28010.410667 0 0 0 145.322666-141.312l0.554667-0.512 159.402667 159.402667a32 32 0 0 0 45.269333-45.226667L139.946667 94.72z m539.392 629.888l-0.256 0.213333-144.853334 140.885334a32 32 0 0 1-44.458666 0 32169.813333 32169.813333 0 0 1-131.754667-128l-63.445333-62.634667a307.626667 307.626667 0 0 1-44.117334-379.306667l138.410667 138.325334a128.128 128.128 0 0 0 158.378667 158.421333l132.096 132.096zM480.853333 345.088l155.392 155.392A128.256 128.256 0 0 0 512 341.333333c-10.752 0-21.162667 1.28-31.146667 3.84zM729.429333 240.170667a307.626667 307.626667 0 0 1 36.906667 390.4l45.909333 45.909333A371.626667 371.626667 0 0 0 293.12 157.354667l45.909333 45.909333a307.626667 307.626667 0 0 1 390.4 36.906667z" /></svg>