<svg class="icon" style="width: 1em;height: 1em;vertical-align: middle;fill: currentColor;overflow: hidden;" viewBox="0 0 1024 1024" version="1.1" xmlns="http://www.w3.org/2000/svg"><path d="M736 42.666667a32 32 0 0 1 32 32V128h192a32 32 0 0 1 32 32v64a32 32 0 0 1-64 0V192h-405.333333v32a32 32 0 0 1-64 0v-64A32 32 0 0 1 490.666667 128h213.333333V74.666667a32 32 0 0 1 32-32z m-149.333333 213.333333a32 32 0 0 0 0 64h188.928L715.52 370.090667a32 32 0 0 0-11.52 24.576v10.666666h-202.666667a32 32 0 0 0 0 64h202.666667v116.650667a32 32 0 0 1-41.216 30.634667l-24.277333-7.253334a32 32 0 0 0-18.346667 61.269334l24.277333 7.296A96 96 0 0 0 768 585.984V469.333333h181.333333a32 32 0 0 0 0-64h-176.128l111.274667-92.757333A32 32 0 0 0 864 256h-277.333333z m-228.736 20.352l-2.090667-4.437333a31.146667 31.146667 0 0 0-56.106667 3.712l-254.464 618.666666-1.365333 4.096a32.170667 32.170667 0 0 0 18.176 37.802667 31.146667 31.146667 0 0 0 41.088-17.152l66.005333-160.426667 4.010667 0.256h302.378667l61.141333 159.445334 1.792 3.925333a31.146667 31.146667 0 0 0 38.826667 14.250667 32.213333 32.213333 0 0 0 17.834666-41.472l-237.226666-618.666667z m-159.573334 418.517333L333.226667 373.205333l125.738666 321.664h-260.693333z" /></svg>