<svg class="icon" style="width: 1em;height: 1em;vertical-align: middle;fill: currentColor;overflow: hidden;" viewBox="0 0 1024 1024" version="1.1" xmlns="http://www.w3.org/2000/svg"><path d="M249.301333 194.56a371.498667 371.498667 0 0 1 533.930667 516.522667l-8.533333 8.832c-39.04 39.04-104.32 102.826667-195.968 191.402666a96 96 0 0 1-133.461334 0l-164.266666-159.957333c-12.117333-11.946667-22.698667-22.442667-31.701334-31.445333a371.498667 371.498667 0 0 1 0-525.397334z m480.128 45.226667A307.498667 307.498667 0 1 0 294.570667 674.645333L366.933333 745.984c33.408 32.64 74.325333 72.448 122.837334 119.338667a32 32 0 0 0 44.501333 0l126.890667-123.306667c28.074667-27.477333 50.858667-49.92 68.266666-67.370667a307.498667 307.498667 0 0 0 0-434.858666z m-91.733333 85.034666l3.584 3.114667a32 32 0 0 1 3.114667 41.642667l-3.114667 3.584-84.010667 84.053333 84.053334 84.053333a32 32 0 0 1 3.072 41.642667l-3.114667 3.584a32 32 0 0 1-41.642667 3.114667l-3.584-3.114667L512 502.485333l-84.053333 84.053334a32 32 0 0 1-41.642667 3.072l-3.584-3.114667a32 32 0 0 1-3.114667-41.642667l3.114667-3.584 84.010667-84.053333-84.053334-84.053333a32 32 0 0 1-3.072-41.642667l3.114667-3.584a32 32 0 0 1 41.642667-3.114667l3.584 3.114667L512 411.989333l84.053333-84.053333a32 32 0 0 1 41.642667-3.114667z" /></svg>