<svg class="icon" style="width: 1em;height: 1em;vertical-align: middle;fill: currentColor;overflow: hidden;" viewBox="0 0 1024 1024" version="1.1" xmlns="http://www.w3.org/2000/svg"><path d="M398.506667 271.872l2.133333 4.48 237.226667 618.666667a32.213333 32.213333 0 0 1-17.834667 41.429333 31.146667 31.146667 0 0 1-38.826667-14.208l-1.834666-3.925333-61.141334-159.445334H215.893333l-4.010666-0.256-65.962667 160.426667a31.146667 31.146667 0 0 1-41.088 17.109333 32.170667 32.170667 0 0 1-18.218667-37.76l1.408-4.096 254.464-618.666666a31.146667 31.146667 0 0 1 56.064-3.754667z m401.322666-186.453333a32 32 0 0 1 31.701334 27.733333l0.298666 4.266667V320h74.666667a32 32 0 0 1 31.701333 27.690667l0.298667 4.352a32 32 0 0 1-27.648 31.701333L906.453333 384l-74.666666-0.042667v309.333334a32 32 0 0 1-27.648 31.744l-4.352 0.298666a32 32 0 0 1-31.701334-27.648l-0.298666-4.352V117.461333a32 32 0 0 1 32-32zM375.893333 373.248L241.066667 694.869333h260.693333L375.893333 373.205333z m82.645334-287.744h234.581333a32 32 0 0 1 31.701333 27.648l0.256 4.352v128.170667c0 100.010667-81.066667 181.12-181.12 181.12a32 32 0 0 1 0-64c62.293333 0 113.237333-48.64 116.906667-109.994667l0.213333-7.125333V149.461333h-202.538666a32 32 0 0 1-4.352-63.701333l4.352-0.298667h234.581333-234.581333z" /></svg>