<svg class="icon" style="width: 1em;height: 1em;vertical-align: middle;fill: currentColor;overflow: hidden;" viewBox="0 0 1024 1024" version="1.1" xmlns="http://www.w3.org/2000/svg"><path d="M249.301333 194.901333a371.498667 371.498667 0 1 1 525.397334 525.397334l-50.645334 50.090666c-37.333333 36.608-85.76 83.712-145.322666 141.312a96 96 0 0 1-133.461334 0l-148.949333-144.896c-18.730667-18.389333-34.389333-33.877333-47.018667-46.506666a371.498667 371.498667 0 0 1 0-525.397334z m480.128 45.226667A307.498667 307.498667 0 1 0 294.570667 675.072L357.973333 737.706667a32169.813333 32169.813333 0 0 0 131.754667 128 32 32 0 0 0 44.501333 0l144.810667-140.8c20.053333-19.669333 36.821333-36.266667 50.346667-49.834667a307.498667 307.498667 0 0 0 0-434.858667zM512 341.290667a128.085333 128.085333 0 1 1 0 256.170666 128.085333 128.085333 0 0 1 0-256.128z m0 64a64.042667 64.042667 0 1 0 0 128.170666 64.042667 64.042667 0 0 0 0-128.128z" /></svg>