<svg class="icon" style="width: 1em;height: 1em;vertical-align: middle;fill: currentColor;overflow: hidden;" viewBox="0 0 1024 1024" version="1.1" xmlns="http://www.w3.org/2000/svg"><path d="M418.090667 86.442667A32 32 0 0 0 413.866667 150.314667c223.658667 14.72 402.517333 193.621333 417.152 417.28a32 32 0 1 0 63.872-4.181334C878.122667 307.626667 673.749333 103.253333 418.090667 86.442667zM362.538667 666.538667a48 48 0 1 0 0-96 48 48 0 0 0 0 96zM340.309333 928.938667l-16.554666-16.469334a183795.968 183795.968 0 0 1-126.72-126.037333 234.496 234.496 0 1 1 331.648 0c-18.944 18.944-54.784 54.613333-85.845334 85.461333l-57.429333 57.045334a32 32 0 0 1-45.098667 0zM242.346667 500.053333a170.496 170.496 0 0 0 0 241.109334c20.565333 20.565333 56.32 56.149333 86.997333 86.613333l33.578667 33.365333 34.816-34.645333c31.104-30.890667 66.858667-66.432 85.76-85.333333a170.496 170.496 0 1 0-241.152-241.109334zM418.901333 234.794667a32 32 0 0 0-5.717333 63.744 298.112 298.112 0 0 1 269.610667 269.482666 32 32 0 1 0 63.744-5.76 362.112 362.112 0 0 0-327.637334-327.466666z" /></svg>