<svg class="icon" style="width: 1em;height: 1em;vertical-align: middle;fill: currentColor;overflow: hidden;" viewBox="0 0 1024 1024" version="1.1" xmlns="http://www.w3.org/2000/svg"><path d="M512 85.504c80 0 142.250667 51.456 167.594667 128.128a32 32 0 1 1-60.8 20.053333C601.685333 181.845333 562.56 149.504 512 149.504c-60.032 0-103.253333 40.874667-106.496 108.842667l-0.213333 8.32v74.624h352.042666a96 96 0 0 1 95.786667 89.472l0.213333 6.570666v405.162667a96 96 0 0 1-89.429333 95.786667l-6.570667 0.213333H266.666667A96 96 0 0 1 170.88 849.066667L170.666667 842.496V437.333333a96 96 0 0 1 89.429333-95.786666L266.666667 341.333333l74.624-0.042666v-74.666667C341.333333 158.378667 414.293333 85.546667 512 85.546667zM757.333333 405.333333H266.666667a32 32 0 0 0-31.701334 27.648l-0.298666 4.352v405.162667c0 16.213333 12.032 29.568 27.648 31.701333l4.352 0.298667h490.666666a32 32 0 0 0 31.701334-27.648l0.298666-4.352V437.333333a32 32 0 0 0-27.648-31.744L757.333333 405.333333z m-245.333333 170.666667a63.957333 63.957333 0 1 1 0 127.829333 63.957333 63.957333 0 0 1 0-127.872z" /></svg>