<svg class="icon" style="width: 1em;height: 1em;vertical-align: middle;fill: currentColor;overflow: hidden;" viewBox="0 0 1024 1024" version="1.1" xmlns="http://www.w3.org/2000/svg"><path d="M458.666667 586.666667a53.333333 53.333333 0 1 0 0-106.666667 53.333333 53.333333 0 0 0 0 106.666667zM309.333333 234.666667a149.333333 149.333333 0 1 1 298.666667 0v42.666666h42.666667a96 96 0 0 1 96 96v320a96 96 0 0 1-96 96h-384A96 96 0 0 1 170.666667 693.333333v-320A96 96 0 0 1 266.666667 277.333333h42.666666v-42.666666z m234.666667 0a85.333333 85.333333 0 1 0-170.666667 0v42.666666h170.666667v-42.666666zM234.666667 373.333333v320c0 17.664 14.336 32 32 32h384a32 32 0 0 0 32-32v-320a32 32 0 0 0-32-32h-384a32 32 0 0 0-32 32zM416 896a96 96 0 0 1-90.538667-64h346.538667a117.333333 117.333333 0 0 0 117.333333-117.333333v-282.538667A96 96 0 0 1 853.333333 522.666667v192A181.333333 181.333333 0 0 1 672 896h-256z" /></svg>