<svg class="icon" style="width: 1em;height: 1em;vertical-align: middle;fill: currentColor;overflow: hidden;" viewBox="0 0 1024 1024" version="1.1" xmlns="http://www.w3.org/2000/svg"><path d="M426.666667 85.333333a170.666667 170.666667 0 0 1 170.666666 170.666667v85.333333h74.666667A96 96 0 0 1 768 437.333333V469.333333c-13.610667 0-27.178667 4.693333-38.229333 14.037334l-4.565334 4.266666c-6.997333 7.253333-14.08 13.781333-21.162666 19.498667L704 437.333333a32 32 0 0 0-32-32H181.333333a32 32 0 0 0-32 32v405.333334c0 17.664 14.336 32 32 32h421.888a257.024 257.024 0 0 0 65.706667 64H181.333333A96 96 0 0 1 85.333333 842.666667v-405.333334A96 96 0 0 1 181.333333 341.333333H256V256a170.666667 170.666667 0 0 1 170.666667-170.666667z m353.450666 431.872c42.325333 44.202667 89.216 65.92 141.482667 65.92 8.234667 0 15.146667 6.101333 16.725333 14.165334l0.341334 3.584v106.709333c0 114.432-56.021333 192.256-165.248 230.186667a16.426667 16.426667 0 0 1-10.794667 0c-105.642667-36.693333-161.493333-110.592-165.12-218.88L597.333333 707.626667v-106.666667c0-9.813333 7.68-17.792 17.066667-17.792 52.181333 0 99.114667-21.76 141.568-65.92a16.597333 16.597333 0 0 1 24.149333 0zM426.666667 576a64 64 0 1 1 0 128 64 64 0 0 1 0-128z m0-426.666667A106.666667 106.666667 0 0 0 320 256v85.333333h213.333333V256A106.666667 106.666667 0 0 0 426.666667 149.333333z" /></svg>