<svg class="icon" style="width: 1em;height: 1em;vertical-align: middle;fill: currentColor;overflow: hidden;" viewBox="0 0 1024 1024" version="1.1" xmlns="http://www.w3.org/2000/svg"><path d="M512 85.333333a170.666667 170.666667 0 0 1 170.666667 170.666667v85.333333h74.666666A96 96 0 0 1 853.333333 437.333333v405.333334A96 96 0 0 1 757.333333 938.666667H266.666667A96 96 0 0 1 170.666667 842.666667v-405.333334A96 96 0 0 1 266.666667 341.333333H341.333333V256a170.666667 170.666667 0 0 1 170.666667-170.666667z m245.333333 320H266.666667a32 32 0 0 0-32 32v405.333334c0 17.664 14.336 32 32 32h490.666666a32 32 0 0 0 32-32v-405.333334a32 32 0 0 0-32-32z m-245.333333 170.666667a64 64 0 1 1 0 128 64 64 0 0 1 0-128z m0-426.666667A106.666667 106.666667 0 0 0 405.333333 256v85.333333h213.333334V256A106.666667 106.666667 0 0 0 512 149.333333z" /></svg>