<svg class="icon" style="width: 1em;height: 1em;vertical-align: middle;fill: currentColor;overflow: hidden;" viewBox="0 0 1024 1024" version="1.1" xmlns="http://www.w3.org/2000/svg"><path d="M603.648 201.386667a106.624 106.624 0 0 0-183.296 0 254.293333 254.293333 0 0 0-60.245333-23.296 170.666667 170.666667 0 0 1 303.786666 0 254.250667 254.250667 0 0 0-60.245333 23.296zM400.384 317.312a339.2 339.2 0 0 1 70.741333-16.213333 213.333333 213.333333 0 1 0-298.069333 298.069333 339.285333 339.285333 0 0 1 16.256-70.784 149.333333 149.333333 0 0 1 211.072-211.072zM850.901333 599.125333a213.333333 213.333333 0 1 0-298.069333-298.069333 339.285333 339.285333 0 0 1 70.784 16.256 149.333333 149.333333 0 0 1 211.072 211.072c7.808 22.613333 13.312 46.293333 16.213333 70.741333zM405.333333 565.333333a32 32 0 0 1 32-32h181.333334a32 32 0 0 1 21.12 56.021334v0.042666l-0.554667 0.469334-2.261333 2.133333a407.381333 407.381333 0 0 0-39.466667 44.714667c-23.765333 31.189333-50.688 75.52-65.28 129.024a32 32 0 1 1-61.781333-16.810667c17.408-63.829333 49.152-115.498667 76.074666-150.954667L546.986667 597.333333h-109.653334a32 32 0 0 1-32-32zM512 938.666667a298.666667 298.666667 0 1 0 0-597.333334 298.666667 298.666667 0 0 0 0 597.333334z m0-64a234.666667 234.666667 0 1 1 0-469.333334 234.666667 234.666667 0 0 1 0 469.333334z" /></svg>