<svg class="icon" style="width: 1em;height: 1em;vertical-align: middle;fill: currentColor;overflow: hidden;" viewBox="0 0 1024 1024" version="1.1" xmlns="http://www.w3.org/2000/svg"><path d="M298.666667 437.333333a32 32 0 0 1 32-32h362.666666a32 32 0 0 1 0 64h-362.666666a32 32 0 0 1-32-32zM384 149.333333h-10.666667a32 32 0 0 1 0-64h277.333334a32 32 0 0 1 0 64H640V213.333333h74.666667A138.666667 138.666667 0 0 1 853.333333 352v384a138.666667 138.666667 0 0 1-128 138.24v32.426667a32 32 0 0 1-64 0v-32h-298.666666v32a32 32 0 0 1-64 0v-32.426667a138.666667 138.666667 0 0 1-128-138.24v-384A138.666667 138.666667 0 0 1 309.333333 213.333333H384V149.333333z m64 0V213.333333h128V149.333333h-128zM714.666667 810.666667a74.666667 74.666667 0 0 0 74.666666-74.666667v-384a74.666667 74.666667 0 0 0-74.666666-74.666667h-405.333334A74.666667 74.666667 0 0 0 234.666667 352v384c0 41.216 33.450667 74.666667 74.666666 74.666667h405.333334z" /></svg>