<svg class="icon" style="width: 1em;height: 1em;vertical-align: middle;fill: currentColor;overflow: hidden;" viewBox="0 0 1024 1024" version="1.1" xmlns="http://www.w3.org/2000/svg"><path d="M447.957333 170.666667a275.370667 275.370667 0 0 0-18.048 64H266.666667a74.666667 74.666667 0 0 0-74.410667 68.522666L192 309.333333V597.333333H384a32 32 0 0 1 31.701333 27.648l0.298667 4.352a96 96 0 0 0 192 0 32 32 0 0 1 27.648-31.701333L640 597.333333h192l0.042667-73.941333a278.058667 278.058667 0 0 0 64-45.952L896 800a138.666667 138.666667 0 0 1-130.816 138.453333L757.333333 938.666667H266.666667a138.666667 138.666667 0 0 1-138.453334-130.816L128 800V309.333333a138.666667 138.666667 0 0 1 130.816-138.453333L266.666667 170.666667h181.290666zM355.2 661.333333H192v138.666667a74.666667 74.666667 0 0 0 68.522667 74.410667l6.144 0.256h490.666666a74.666667 74.666667 0 0 0 74.410667-68.565334l0.256-6.101333V661.333333h-163.2a160.085333 160.085333 0 0 1-148.266667 127.786667l-8.533333 0.213333a160.085333 160.085333 0 0 1-154.965333-119.978666l-1.834667-8.021334zM704 42.666667a234.666667 234.666667 0 1 1 0 469.333333 234.666667 234.666667 0 0 1 0-469.333333z m5.461333 86.058666l-3.669333-0.64L703.488 128l-2.389333 0.213333-2.56 0.512-3.541334 1.28-3.157333 1.792-2.389333 1.92-107.221334 107.178667-2.432 2.986667a21.333333 21.333333 0 0 0 0 24.234666l2.432 2.986667 2.986667 2.432a21.333333 21.333333 0 0 0 24.234667 0l2.986666-2.432 70.186667-70.229333L682.666667 426.666667l0.341333 3.84a21.333333 21.333333 0 0 0 17.152 17.152l3.84 0.341333 3.84-0.341333a21.333333 21.333333 0 0 0 17.152-17.152L725.333333 426.666667l-0.042666-225.877334 70.272 70.314667 2.986666 2.432a21.333333 21.333333 0 0 0 29.653334-29.653333l-2.432-2.986667-108.714667-108.458667-2.005333-1.365333-2.901334-1.450667-2.688-0.896z" /></svg>