<svg class="icon" style="width: 1em;height: 1em;vertical-align: middle;fill: currentColor;overflow: hidden;" viewBox="0 0 1024 1024" version="1.1" xmlns="http://www.w3.org/2000/svg"><path d="M800 128H224l-7.850667 0.213333A138.666667 138.666667 0 0 0 85.333333 266.666667v405.333333l0.213334 7.850667A138.666667 138.666667 0 0 0 224 810.666667h275.925333c7.850667-18.005333 18.986667-34.432 32.981334-48.426667l15.573333-15.573333H224l-6.144-0.256A74.666667 74.666667 0 0 1 149.333333 672V357.290667l347.733334 183.04 4.138666 1.792a32 32 0 0 0 25.685334-1.792L874.666667 357.248v112.384a140.544 140.544 0 0 1 64 10.794667V266.666667l-0.213334-7.850667A138.666667 138.666667 0 0 0 800 128zM224 192h576l6.101333 0.256A74.666667 74.666667 0 0 1 874.666667 266.666667v18.261333L512 475.818667 149.333333 285.013333V266.666667l0.256-6.144A74.666667 74.666667 0 0 1 224 192z m590.933333 348.586667l-251.861333 251.818666a114.602667 114.602667 0 0 0-30.122667 53.205334l-19.541333 78.122666a46.378667 46.378667 0 0 0 56.277333 56.234667l78.08-19.498667a114.56 114.56 0 0 0 53.248-30.165333l251.818667-251.818667A97.536 97.536 0 0 0 814.933333 540.586667z" /></svg>