<svg class="icon" style="width: 1em;height: 1em;vertical-align: middle;fill: currentColor;overflow: hidden;" viewBox="0 0 1024 1024" version="1.1" xmlns="http://www.w3.org/2000/svg"><path d="M981.333333 288A160 160 0 0 0 821.333333 128l-4.352 0.298667A32 32 0 0 0 821.333333 192l6.570667 0.213333A96 96 0 0 1 821.333333 384l-0.128 0.213333-4.352 0.298667a32 32 0 0 0 4.608 63.701333V448l8.533334-0.213333A160 160 0 0 0 981.333333 288z m-277.333333-128a32 32 0 0 0-32-32l-8.533333 0.213333a160 160 0 0 0 8.533333 319.786667l4.352-0.298667A32 32 0 0 0 672 384l-6.570667-0.213333A96 96 0 0 1 672 192l4.352-0.298667a32 32 0 0 0 27.648-31.701333z m149.333333 128a32 32 0 0 0-32-32h-149.333333l-4.352 0.298667A32 32 0 0 0 672 320h149.333333l4.352-0.298667A32 32 0 0 0 853.333333 288zM224 170.666667h282.752a201.728 201.728 0 0 0-30.293333 64H224a74.666667 74.666667 0 0 0-74.410667 68.522666L149.333333 309.333333v18.304l362.666667 190.848 82.261333-43.264a202.026667 202.026667 0 0 0 77.738667 15.445334h30.293333l-175.36 92.330666a32 32 0 0 1-25.728 1.792l-4.096-1.792L149.333333 399.957333v314.709334a74.666667 74.666667 0 0 0 68.522667 74.410666l6.144 0.256h576a74.666667 74.666667 0 0 0 74.410667-68.565333l0.256-6.101333v-231.082667a201.728 201.728 0 0 0 64-30.293333v261.376a138.666667 138.666667 0 0 1-130.816 138.453333L800 853.333333H224a138.666667 138.666667 0 0 1-138.453333-130.816L85.333333 714.666667v-405.333334a138.666667 138.666667 0 0 1 130.816-138.453333L224 170.666667z" /></svg>