<svg class="icon" style="width: 1em;height: 1em;vertical-align: middle;fill: currentColor;overflow: hidden;" viewBox="0 0 1024 1024" version="1.1" xmlns="http://www.w3.org/2000/svg"><path d="M938.666667 277.333333a234.666667 234.666667 0 1 0-469.333334 0 234.666667 234.666667 0 0 0 469.333334 0zM725.333333 298.666667l0.042667 106.837333a21.333333 21.333333 0 1 1-42.666667 0V298.666667h-106.88a21.333333 21.333333 0 0 1 0-42.666667H682.666667V149.333333a21.333333 21.333333 0 0 1 42.666666 0V256h106.794667a21.333333 21.333333 0 1 1 0 42.666667h-106.752zM832 597.333333v-73.898666A278.101333 278.101333 0 0 0 896 477.44v322.56a138.666667 138.666667 0 0 1-130.816 138.453333L757.333333 938.666667H266.666667a138.666667 138.666667 0 0 1-138.453334-130.816L128 800V309.333333a138.666667 138.666667 0 0 1 130.816-138.453333L266.666667 170.666667h181.248a275.242667 275.242667 0 0 0-18.005334 64H266.666667a74.666667 74.666667 0 0 0-74.410667 68.522666L192 309.333333V597.333333H384a32 32 0 0 1 31.701333 27.648l0.298667 4.352a96 96 0 0 0 191.786667 6.570667l0.213333-6.570667a32 32 0 0 1 27.648-31.701333L640 597.333333h192z m-640 64v138.666667a74.666667 74.666667 0 0 0 68.522667 74.410667l6.144 0.256h490.666666a74.666667 74.666667 0 0 0 74.410667-68.565334l0.256-6.101333V661.333333h-163.2a160.085333 160.085333 0 0 1-148.266667 127.786667l-8.533333 0.213333a160.085333 160.085333 0 0 1-154.965333-119.978666l-1.834667-8.021334H192z" /></svg>