<svg class="icon" style="width: 1em;height: 1em;vertical-align: middle;fill: currentColor;overflow: hidden;" viewBox="0 0 1024 1024" version="1.1" xmlns="http://www.w3.org/2000/svg"><path d="M447.957333 170.666667a275.242667 275.242667 0 0 0-18.005333 64H266.666667a74.666667 74.666667 0 0 0-74.410667 68.522666L192 309.333333V597.333333H384a32 32 0 0 1 31.701333 27.648l0.298667 4.352a96 96 0 0 0 191.786667 6.570667l0.213333-6.570667a32 32 0 0 1 27.648-31.701333L640 597.333333h192l0.042667-73.941333a278.058667 278.058667 0 0 0 64-45.952L896 800a138.666667 138.666667 0 0 1-130.816 138.453333L757.333333 938.666667H266.666667a138.666667 138.666667 0 0 1-138.453334-130.816L128 800V309.333333a138.666667 138.666667 0 0 1 130.816-138.453333L266.666667 170.666667h181.290666zM832 661.333333h-163.2a160.085333 160.085333 0 0 1-148.266667 127.786667l-8.533333 0.213333a160.042667 160.042667 0 0 1-156.8-128H192v138.666667a74.666667 74.666667 0 0 0 68.522667 74.410667l6.144 0.256h490.666666a74.666667 74.666667 0 0 0 74.410667-68.565334l0.256-6.101333V661.333333zM704 42.666667a234.666667 234.666667 0 1 1 0 469.333333 234.666667 234.666667 0 0 1 0-469.333333z m9.216 110.464l-2.986667 2.432-2.432 2.986666a21.333333 21.333333 0 0 0 0 24.234667l2.432 2.986667L780.458667 256H554.666667l-3.84 0.341333a21.333333 21.333333 0 0 0-17.152 17.152l-0.341334 3.84 0.341334 3.84a21.333333 21.333333 0 0 0 17.152 17.152L554.666667 298.666667h225.792l-70.229334 70.229333-2.432 2.986667a21.333333 21.333333 0 0 0 29.653334 29.653333l2.986666-2.432 108.416-108.714667 1.408-2.048 1.450667-2.858666 0.896-2.688 0.64-3.498667L853.333333 277.333333l-0.128-2.261333-0.597333-3.2-1.28-3.541333-1.792-3.157334-1.92-2.389333-107.178667-107.221333-2.986666-2.432a21.333333 21.333333 0 0 0-24.234667 0z" /></svg>