<svg class="icon" style="width: 1em;height: 1em;vertical-align: middle;fill: currentColor;overflow: hidden;" viewBox="0 0 1024 1024" version="1.1" xmlns="http://www.w3.org/2000/svg"><path d="M128 320.469333a138.538667 138.538667 0 0 0-64 116.864v256c0 123.733333 100.266667 224 224 224h384c49.066667 0 92.202667-25.514667 116.864-64H288A160 160 0 0 1 128 693.333333V320.469333zM800 170.666667H309.333333a138.666667 138.666667 0 0 0-138.453333 130.816L170.666667 309.333333v362.666667a138.666667 138.666667 0 0 0 130.816 138.453333L309.333333 810.666667h490.666667a138.666667 138.666667 0 0 0 138.453333-130.816L938.666667 672v-362.666667a138.666667 138.666667 0 0 0-130.816-138.453333L800 170.666667zM234.666667 379.690667l305.066666 160.64a32 32 0 0 0 25.728 1.792l4.096-1.792L874.666667 379.733333v292.266667a74.666667 74.666667 0 0 1-68.565334 74.410667l-6.101333 0.256H309.333333a74.666667 74.666667 0 0 1-74.410666-68.565334L234.666667 672V379.690667zM309.333333 234.666667h490.666667a74.666667 74.666667 0 0 1 74.410667 68.522666l0.170666 4.266667L554.666667 475.818667 234.666667 307.413333A74.666667 74.666667 0 0 1 309.333333 234.666667z" /></svg>