<svg class="icon" style="width: 1em;height: 1em;vertical-align: middle;fill: currentColor;overflow: hidden;" viewBox="0 0 1024 1024" version="1.1" xmlns="http://www.w3.org/2000/svg"><path d="M266.666667 128h490.666666a138.666667 138.666667 0 0 1 138.453334 130.816L896 266.666667v490.666666a138.666667 138.666667 0 0 1-130.816 138.453334L757.333333 896H266.666667a138.666667 138.666667 0 0 1-138.453334-130.816L128 757.333333V266.666667a138.666667 138.666667 0 0 1 130.816-138.453334L266.666667 128h490.666666-490.666666zM192 618.666667v138.666666a74.666667 74.666667 0 0 0 68.522667 74.410667l6.144 0.256h490.666666a74.666667 74.666667 0 0 0 74.410667-68.565333l0.256-6.101334V618.666667h-163.2a160.085333 160.085333 0 0 1-148.266667 127.786666l-8.533333 0.213334a160.085333 160.085333 0 0 1-154.965333-119.978667l-1.834667-8.021333H192v138.666666-138.666666z m565.333333-426.666667H266.666667a74.666667 74.666667 0 0 0-74.410667 68.522667L192 266.666667V554.666667H384a32 32 0 0 1 31.701333 27.648l0.298667 4.352a96 96 0 0 0 191.786667 6.570666l0.213333-6.570666a32 32 0 0 1 27.648-31.701334L640 554.666667h192V266.666667a74.666667 74.666667 0 0 0-68.565333-74.410667L757.333333 192z" /></svg>