<svg class="icon" style="width: 1em;height: 1em;vertical-align: middle;fill: currentColor;overflow: hidden;" viewBox="0 0 1024 1024" version="1.1" xmlns="http://www.w3.org/2000/svg"><path d="M682.666667 277.333333H224a74.666667 74.666667 0 0 0-74.410667 68.522667l-0.170666 4.266667L469.333333 518.528l257.28-135.424a148.864 148.864 0 0 0 126.72 42.026667v289.536a138.666667 138.666667 0 0 1-130.816 138.453333L714.666667 853.333333H224a138.666667 138.666667 0 0 1-138.453333-130.816L85.333333 714.666667v-362.666667a138.666667 138.666667 0 0 1 130.816-138.453333L224 213.333333h473.045333A148.778667 148.778667 0 0 0 682.666667 277.333333z m106.666666 145.024l-305.066666 160.64a32 32 0 0 1-25.728 1.792l-4.096-1.792L149.333333 422.4v292.266667a74.666667 74.666667 0 0 0 68.522667 74.410666l6.144 0.256h490.666667a74.666667 74.666667 0 0 0 74.410666-68.565333l0.256-6.101333V422.357333zM832 170.666667a106.666667 106.666667 0 1 1 0 213.333333 106.666667 106.666667 0 0 1 0-213.333333z" /></svg>