<svg class="icon" style="width: 1em;height: 1em;vertical-align: middle;fill: currentColor;overflow: hidden;" viewBox="0 0 1024 1024" version="1.1" xmlns="http://www.w3.org/2000/svg"><path d="M132.266667 348.586667l363.392-216.106667a32 32 0 0 1 28.245333-2.176l4.437333 2.176L891.733333 348.586667a96 96 0 0 1 46.677334 75.306666l0.256 7.253334v326.229333a138.666667 138.666667 0 0 1-130.816 138.453333L800 896H224a138.666667 138.666667 0 0 1-138.453333-130.816L85.333333 757.333333v-326.272c0-31.445333 15.36-60.714667 40.874667-78.592L132.266667 348.586667l363.392-216.064L132.266667 348.586667z m742.4 116.906666l-347.861334 181.546667a32 32 0 0 1-24.832 2.005333l-4.778666-2.005333L149.333333 465.493333v291.84a74.666667 74.666667 0 0 0 68.522667 74.410667l6.144 0.256h576a74.666667 74.666667 0 0 0 74.410667-68.565333l0.256-6.101334v-291.84zM512 197.248l-345.258667 205.226667L512 582.570667l345.173333-180.138667L512 197.205333z" /></svg>