<svg class="icon" style="width: 1em;height: 1em;vertical-align: middle;fill: currentColor;overflow: hidden;" viewBox="0 0 1024 1024" version="1.1" xmlns="http://www.w3.org/2000/svg"><path d="M896 320.469333a138.538667 138.538667 0 0 1 64 116.864v256c0 123.733333-100.266667 224-224 224h-384A138.538667 138.538667 0 0 1 235.136 853.333333H736A160 160 0 0 0 896 693.333333V320.469333zM224 170.666667h490.666667a138.666667 138.666667 0 0 1 138.453333 130.816L853.333333 309.333333v362.666667a138.666667 138.666667 0 0 1-130.816 138.453333L714.666667 810.666667H224a138.666667 138.666667 0 0 1-138.453333-130.816L85.333333 672v-362.666667a138.666667 138.666667 0 0 1 130.816-138.453333L224 170.666667zM789.333333 379.690667l-305.066666 160.64a32 32 0 0 1-25.728 1.792l-4.096-1.792L149.333333 379.733333v292.266667a74.666667 74.666667 0 0 0 68.522667 74.410667l6.144 0.256h490.666667a74.666667 74.666667 0 0 0 74.410666-68.565334l0.256-6.101333V379.690667zM714.666667 234.666667H224a74.666667 74.666667 0 0 0-74.410667 68.522666l-0.170666 4.266667L469.333333 475.818667l320-168.405334A74.666667 74.666667 0 0 0 714.666667 234.666667z" /></svg>