<svg class="icon" style="width: 1em;height: 1em;vertical-align: middle;fill: currentColor;overflow: hidden;" viewBox="0 0 1024 1024" version="1.1" xmlns="http://www.w3.org/2000/svg"><path d="M981.333333 277.333333a234.666667 234.666667 0 1 1-469.333333 0 234.666667 234.666667 0 0 1 469.333333 0z m-405.333333 0c0 35.584 10.88 68.608 29.482667 95.914667l237.098666-237.098667A170.666667 170.666667 0 0 0 576 277.333333z m170.666667 170.666667a170.666667 170.666667 0 0 0 141.184-266.581333l-237.098667 237.098666c27.306667 18.602667 60.330667 29.482667 95.914667 29.482667z m128 266.666667v-191.232A278.101333 278.101333 0 0 0 938.666667 477.44v237.226667a138.666667 138.666667 0 0 1-130.816 138.453333L800 853.333333H224a138.666667 138.666667 0 0 1-138.453333-130.816L85.333333 714.666667v-405.333334a138.666667 138.666667 0 0 1 130.816-138.453333L224 170.666667h266.581333a275.242667 275.242667 0 0 0-18.005333 64H224a74.666667 74.666667 0 0 0-74.410667 68.522666L149.333333 309.333333v18.304l362.666667 190.848 55.68-29.312c18.730667 15.829333 39.552 29.226667 62.037333 39.68l-102.826666 54.144a32 32 0 0 1-25.685334 1.792l-4.096-1.792L149.333333 399.957333v314.709334a74.666667 74.666667 0 0 0 68.522667 74.410666l6.144 0.256h576a74.666667 74.666667 0 0 0 74.410667-68.565333l0.256-6.101333z" /></svg>