<svg class="icon" style="width: 1em;height: 1em;vertical-align: middle;fill: currentColor;overflow: hidden;" viewBox="0 0 1024 1024" version="1.1" xmlns="http://www.w3.org/2000/svg"><path d="M139.946667 94.72a32 32 0 1 0-45.226667 45.226667l53.333333 53.333333A138.538667 138.538667 0 0 0 85.333333 309.333333v405.333334l0.213334 7.850666A138.666667 138.666667 0 0 0 224 853.333333h576l7.850667-0.213333 76.16 76.16a32 32 0 0 0 45.269333-45.226667L139.946667 94.72zM744.106667 789.333333H224l-6.144-0.256A74.666667 74.666667 0 0 1 149.333333 714.666667V399.957333l347.733334 183.04 4.138666 1.792a32 32 0 0 0 25.685334-1.792l7.082666-3.754666L744.106667 789.333333z m-313.898667-313.898666L149.333333 327.68V309.333333l0.256-6.144a74.709333 74.709333 0 0 1 45.568-62.72l235.008 234.965334zM874.666667 327.594667l-269.482667 141.866666 47.36 47.36 222.122667-116.906666v314.752l-0.256 6.101333c-0.426667 5.205333-1.365333 10.24-2.816 15.104l48.384 48.341333c11.861333-20.437333 18.688-44.202667 18.688-69.546666v-405.333334l-0.213334-7.850666A138.666667 138.666667 0 0 0 800 170.666667H306.432l64 64H800l6.101333 0.256A74.666667 74.666667 0 0 1 874.666667 309.333333v18.261334z" /></svg>