<svg class="icon" style="width: 1em;height: 1em;vertical-align: middle;fill: currentColor;overflow: hidden;" viewBox="0 0 1024 1024" version="1.1" xmlns="http://www.w3.org/2000/svg"><path d="M938.666667 277.333333a234.666667 234.666667 0 1 1-469.333334 0 234.666667 234.666667 0 0 1 469.333334 0z m-91.562667-100.437333a21.333333 21.333333 0 0 0-30.208 0L661.333333 332.501333l-70.229333-70.272a21.333333 21.333333 0 0 0-30.208 30.208l85.333333 85.333334a21.333333 21.333333 0 0 0 30.208 0l170.666667-170.666667a21.333333 21.333333 0 0 0 0-30.208z m-15.104 346.538667V597.333333H640l-4.352 0.298667a32 32 0 0 0-27.648 31.701333l-0.213333 6.570667a96 96 0 0 1-191.786667-6.570667l-0.298667-4.352A32 32 0 0 0 384 597.333333H192V309.333333l0.256-6.144A74.666667 74.666667 0 0 1 266.666667 234.666667h163.242666c3.456-22.314667 9.557333-43.776 18.005334-64H266.666667l-7.850667 0.213333A138.666667 138.666667 0 0 0 128 309.333333v490.666667l0.213333 7.850667A138.666667 138.666667 0 0 0 266.666667 938.666667h490.666666l7.850667-0.213334A138.666667 138.666667 0 0 0 896 800v-322.56c-18.944 18.218667-40.490667 33.706667-64 45.994667z m-640 276.565333V661.333333h163.2l1.834667 8.021334A160.085333 160.085333 0 0 0 512 789.333333l8.533333-0.213333a160.085333 160.085333 0 0 0 148.266667-127.786667H832v138.666667l-0.256 6.101333A74.666667 74.666667 0 0 1 757.333333 874.666667H266.666667l-6.144-0.256A74.666667 74.666667 0 0 1 192 800z" /></svg>