<svg class="icon" style="width: 1em;height: 1em;vertical-align: middle;fill: currentColor;overflow: hidden;" viewBox="0 0 1024 1024" version="1.1" xmlns="http://www.w3.org/2000/svg"><path d="M981.333333 277.333333a234.666667 234.666667 0 1 0-469.333333 0 234.666667 234.666667 0 0 0 469.333333 0zM768 298.666667l0.042667 106.837333a21.333333 21.333333 0 1 1-42.666667 0V298.666667h-106.88a21.333333 21.333333 0 0 1 0-42.666667H725.333333V149.333333a21.333333 21.333333 0 0 1 42.666667 0V256h106.538667a21.333333 21.333333 0 0 1 0 42.666667H768z m106.666667 416v-191.232A278.101333 278.101333 0 0 0 938.666667 477.44v237.226667a138.666667 138.666667 0 0 1-130.816 138.453333L800 853.333333H224a138.666667 138.666667 0 0 1-138.453333-130.816L85.333333 714.666667v-405.333334a138.666667 138.666667 0 0 1 130.816-138.453333L224 170.666667h266.581333a275.242667 275.242667 0 0 0-18.005333 64H224a74.666667 74.666667 0 0 0-74.410667 68.522666L149.333333 309.333333v18.304l362.666667 190.848 55.68-29.312c18.730667 15.829333 39.552 29.226667 62.037333 39.68l-102.826666 54.144a32 32 0 0 1-25.685334 1.792l-4.096-1.792L149.333333 399.957333v314.709334a74.666667 74.666667 0 0 0 68.522667 74.410666l6.144 0.256h576a74.666667 74.666667 0 0 0 74.410667-68.565333l0.256-6.101333z" /></svg>