<svg class="icon" style="width: 1em;height: 1em;vertical-align: middle;fill: currentColor;overflow: hidden;" viewBox="0 0 1024 1024" version="1.1" xmlns="http://www.w3.org/2000/svg"><path d="M392.661333 170.666667l2.005334-0.085334 1.962666 0.042667a31.146667 31.146667 0 0 1 2.858667 0.298667l0.682667 0.170666c3.669333 0.597333 7.253333 1.877333 10.752 3.925334l2.176 1.450666 216.32 152.106667L845.653333 176.64a32 32 0 0 1 50.090667 21.76l0.298667 4.437333v453.632a32 32 0 0 1-10.154667 23.381334l-3.413333 2.816-234.666667 164.949333a31.744 31.744 0 0 1-35.328 0.981333L394.666667 695.338667l-216.32 152.106666a32 32 0 0 1-50.090667-21.76l-0.298667-4.437333V367.616a32 32 0 0 1 10.154667-23.381333l3.413333-2.816 234.666667-164.949334a32.512 32.512 0 0 1 8.533333-4.309333l5.205334-1.194667 2.730666-0.341333z m439.381334 93.738666l-170.666667 119.978667v375.424l170.666667-119.978667v-375.466666zM362.666667 264.234667l-170.666667 119.978666v375.466667l170.666667-120.021333V264.234667z m64.085333 0v375.466666l170.666667 119.936V384.213333l-170.666667-119.978666z" /></svg>