<svg class="icon" style="width: 1em;height: 1em;vertical-align: middle;fill: currentColor;overflow: hidden;" viewBox="0 0 1024 1024" version="1.1" xmlns="http://www.w3.org/2000/svg"><path d="M767.914667 341.418667a42.752 42.752 0 1 0 0-85.504 42.752 42.752 0 0 0 0 85.504zM181.333333 128A96 96 0 0 0 85.333333 224v213.333333c0 17.664 14.336 32 32 32h362.666667v85.376h-42.666667a32 32 0 0 0-32 32v96.170667H330.752a32 32 0 0 0-32 32v31.786667H117.333333a32 32 0 0 0 0 64h181.376v53.461333c0 17.706667 14.336 32 32 32h362.581334a32 32 0 0 0 32-32V810.666667h181.376a32 32 0 0 0 0-64H725.333333v-31.786667a32 32 0 0 0-32-32H618.666667V586.666667a32 32 0 0 0-32-32h-42.666667V469.333333h362.666667a32 32 0 0 0 32-32v-213.333333A96 96 0 0 0 842.666667 128H181.333333zM149.333333 224a32 32 0 0 1 32-32h661.333334a32 32 0 0 1 32 32V405.333333h-725.333334V224z m320 394.709333h85.333334v96.170667c0 17.664 14.293333 32 32 32h74.666666v85.248H362.666667v-85.248h74.666666a32 32 0 0 0 32-32V618.666667z" /></svg>