<svg class="icon" style="width: 1em;height: 1em;vertical-align: middle;fill: currentColor;overflow: hidden;" viewBox="0 0 1024 1024" version="1.1" xmlns="http://www.w3.org/2000/svg"><path d="M396.032 341.333333c41.216 0 74.666667 33.450667 74.666667 74.666667v192A74.666667 74.666667 0 0 1 396.032 682.666667H160A74.666667 74.666667 0 0 1 85.333333 608v-192a74.666667 74.666667 0 0 1 68.522667-74.410667L160 341.333333h236.032zM864 341.333333c41.216 0 74.666667 33.450667 74.666667 74.666667v192A74.666667 74.666667 0 0 1 864 682.666667h-236.032a74.666667 74.666667 0 0 1-74.666667-74.666667v-192c0-41.216 33.450667-74.666667 74.666667-74.666667h236.032zM396.032 405.333333H160l-2.432 0.298667a10.666667 10.666667 0 0 0-8.234667 10.368v192c0 5.888 4.778667 10.666667 10.666667 10.666667h236.032a10.666667 10.666667 0 0 0 10.666667-10.666667v-192a10.666667 10.666667 0 0 0-10.666667-10.666667z m467.968 0h-236.032a10.666667 10.666667 0 0 0-10.666667 10.666667v192c0 5.888 4.778667 10.666667 10.666667 10.666667h236.032a10.666667 10.666667 0 0 0 10.666667-10.666667v-192a10.666667 10.666667 0 0 0-10.666667-10.666667z" /></svg>