<svg class="icon" style="width: 1em;height: 1em;vertical-align: middle;fill: currentColor;overflow: hidden;" viewBox="0 0 1024 1024" version="1.1" xmlns="http://www.w3.org/2000/svg"><path d="M468.821333 178.346667a32 32 0 0 0-41.642666 0l-74.666667 64a32 32 0 1 0 41.642667 48.64L448 244.778667l53.845333 46.122666a32 32 0 0 0 41.642667-48.554666l-74.666667-64z m109.738667 228.821333a32 32 0 0 1 49.152 9.386667l50.986667 96.853333-157.312 157.312a32 32 0 1 0 45.226666 45.226667l143.274667-143.232 56.405333 107.178666a96 96 0 0 0 147.456 28.16l13.738667-11.776a32 32 0 1 0-41.642667-48.554666l-13.738666 11.776a32 32 0 0 1-49.152-9.386667l-65.706667-124.8L886.613333 395.946667a32 32 0 0 0-45.226666-45.226667l-115.328 115.285333-41.685334-79.232a96 96 0 0 0-147.456-28.16l-13.738666 11.776a32 32 0 1 0 41.642666 48.554667l13.738667-11.776zM153.002667 574.72c39.509333-0.554667 80.725333-2.730667 117.76-10.752 44.8-9.642667 89.045333-28.928 115.925333-69.589333 24.064-36.352 24.789333-79.829333 2.432-112.298667-22.741333-33.024-64.426667-47.872-110.933333-37.333333a214.016 214.016 0 0 0-88.533334 43.093333c-35.2 28.586667-69.461333 73.898667-91.861333 145.450667-16.64 53.077333-16.512 99.413333-0.298667 136.490666 16.512 37.674667 47.786667 61.312 83.968 71.253334 70.4 19.456 159.018667-11.690667 215.637334-83.2a32 32 0 0 0-50.176-39.68c-43.477333 54.869333-106.88 72.704-148.437334 61.226666-19.84-5.504-34.474667-17.28-42.368-35.285333-6.656-15.232-9.685333-37.845333-3.114666-69.418667z m183.424-156.373333c5.930667 8.661333 8.192 23.637333-3.114667 40.704-13.525333 20.437333-38.4 34.218667-76.032 42.368-24.704 5.333333-52.565333 7.722667-82.048 8.746666 16.768-35.285333 36.565333-57.856 54.741333-72.618666a149.973333 149.973333 0 0 1 62.378667-30.378667c25.216-5.717333 38.528 3.157333 44.074667 11.178667z" /></svg>