<svg class="icon" style="width: 1em;height: 1em;vertical-align: middle;fill: currentColor;overflow: hidden;" viewBox="0 0 1024 1024" version="1.1" xmlns="http://www.w3.org/2000/svg"><path d="M532.565333 163.285333c-47.488-35.157333-115.029333-3.882667-118.954666 55.04L406.826667 320h115.84a32 32 0 0 1 0 64H402.56l-25.6 384.256c-7.68 114.56-143.274667 170.752-229.674667 95.146667l-8.362666-7.338667a32 32 0 0 1 42.154666-48.170667l8.32 7.296c46.549333 40.746667 119.594667 10.496 123.690667-51.2L338.432 384H245.333333a32 32 0 0 1 0-64h97.365334l7.04-105.941333c7.296-109.44 132.778667-167.509333 220.928-102.186667l15.829333 11.733333a32 32 0 1 1-38.058667 51.413334l-15.872-11.733334zM585.045333 544.554667a32 32 0 0 0-49.152-9.386667l-13.738666 11.776a32 32 0 1 1-41.642667-48.597333l13.738667-11.776a96 96 0 0 1 147.456 28.16l41.685333 79.274666 115.328-115.328a32 32 0 1 1 45.226667 45.269334l-129.322667 129.365333 65.664 124.757333a32 32 0 0 0 49.152 9.386667l13.738667-11.776a32 32 0 0 1 41.642666 48.64l-13.738666 11.733333a96 96 0 0 1-147.456-28.16l-56.405334-107.221333-143.274666 143.274667a32 32 0 1 1-45.226667-45.226667l157.312-157.312-50.986667-96.853333z" /></svg>