<svg class="icon" style="width: 1em;height: 1em;vertical-align: middle;fill: currentColor;overflow: hidden;" viewBox="0 0 1024 1024" version="1.1" xmlns="http://www.w3.org/2000/svg"><path d="M668.245333 206.08a32 32 0 0 0-46.506666-10.453333l-16.469334 11.733333a32 32 0 1 1-37.205333-52.053333l16.426667-11.776a96 96 0 0 1 139.648 31.36l28.586666 51.2 88.661334-88.746667a32 32 0 0 1 45.226666 45.269333L785.066667 284.16l37.802666 67.669333a32 32 0 0 0 48.085334 9.258667l15.530666-12.586667a32 32 0 1 1 40.362667 49.664l-15.573333 12.629334a96 96 0 0 1-144.298667-27.776l-28.928-51.797334L651.946667 417.28a32 32 0 0 1-45.226667-45.226667l98.901333-98.986666-37.376-66.986667z m-312.064 386.645333c-61.952 12.117333-131.968 14.762667-199.509333 15.189334-14.634667 53.333333-10.154667 92.117333 2.858667 118.954666 14.506667 29.994667 42.368 50.474667 79.872 59.861334 76.714667 19.114667 186.325333-11.221333 259.2-94.378667a32 32 0 0 1 48.128 42.197333c-87.125333 99.413333-220.586667 139.776-322.816 114.261334-51.925333-12.970667-97.536-43.605333-122.026667-94.037334-24.277333-50.133333-24.96-114.304 0.981333-189.269333 35.157333-101.376 88.405333-164.352 141.568-203.349333a337.536 337.536 0 0 1 133.12-58.581334c66.389333-13.568 124.032 5.333333 155.776 47.018667 32.170667 42.197333 31.573333 100.096-4.053333 148.778667-39.424 53.845333-104.448 79.957333-173.098667 93.354666z m34.218667-226.432a273.578667 273.578667 0 0 0-108.117333 47.488c-35.114667 25.770667-72.405333 65.962667-101.802667 129.877334 58.112-0.938667 114.261333-4.138667 163.456-13.738667 63.061333-12.288 108.544-33.962667 133.717333-68.352 20.864-28.458667 17.834667-55.04 4.778667-72.192-13.482667-17.706667-43.776-32.981333-92.032-23.082667z" /></svg>