<svg class="icon" style="width: 1em;height: 1em;vertical-align: middle;fill: currentColor;overflow: hidden;" viewBox="0 0 1024 1024" version="1.1" xmlns="http://www.w3.org/2000/svg"><path d="M288 277.333333A96 96 0 0 0 192 373.333333v277.333334a96 96 0 0 0 96 96h277.333333a96 96 0 0 0 96-96v-30.933334l144.469334 80.213334A32 32 0 0 0 853.333333 672V352.213333a32 32 0 0 0-47.530666-27.989333L661.333333 404.352V373.333333a96 96 0 0 0-96-96h-277.333333z m373.333333 200.192l128-70.997333v211.072l-128-71.082667v-68.992zM597.333333 373.333333v277.333334a32 32 0 0 1-32 32h-277.333333a32 32 0 0 1-32-32v-277.333334A32 32 0 0 1 288 341.333333h277.333333a32 32 0 0 1 32 32zM273.749333 892.672h0.085334l0.128 0.085333 0.341333 0.170667 1.024 0.469333 3.584 1.664c2.986667 1.322667 7.338667 3.2 12.928 5.376 11.093333 4.352 27.178667 10.026667 47.658667 15.658667 41.002667 11.306667 99.84 22.485333 172.458666 22.570667a646.4 646.4 0 0 0 172.586667-22.4c20.48-5.674667 36.565333-11.434667 47.701333-15.786667a294.144 294.144 0 0 0 16.512-7.125333c14.378667-6.912 23.210667-29.013333 15.829334-43.733334a32 32 0 0 0-42.922667-14.208l-0.426667 0.170667-2.304 1.066667c-2.133333 0.981333-5.589333 2.474667-10.197333 4.266666a412.288 412.288 0 0 1-41.258667 13.653334A582.826667 582.826667 0 0 1 512 874.666667a592 592 0 0 1-155.562667-20.266667 417.877333 417.877333 0 0 1-41.301333-13.568 245.461333 245.461333 0 0 1-12.544-5.290667l-0.426667-0.213333a32 32 0 0 0-28.458666 57.344zM339.456 107.690667c41.045333-11.392 99.925333-22.613333 172.586667-22.528 72.618667 0.128 131.498667 11.306667 172.501333 22.613333 20.48 5.717333 36.565333 11.392 47.658667 15.786667a306.773333 306.773333 0 0 1 16.512 7.04l1.066666 0.512 0.341334 0.170666 0.085333 0.042667h0.042667s25.472 14.933333 14.378666 42.965333a32 32 0 0 1-42.837333 14.378667h-0.085333l-0.426667-0.213333a240.981333 240.981333 0 0 0-12.501333-5.333334 417.152 417.152 0 0 0-41.301334-13.653333A589.781333 589.781333 0 0 0 512 149.205333a580.437333 580.437333 0 0 0-155.392 20.181334 411.221333 411.221333 0 0 0-41.258667 13.653333 238.549333 238.549333 0 0 0-12.501333 5.376l-0.426667 0.213333a32 32 0 1 1-28.8-57.173333h0.128l0.085334-0.085333 0.341333-0.170667 1.066667-0.512 3.584-1.664c2.986667-1.365333 7.381333-3.242667 12.928-5.461333 11.093333-4.394667 27.221333-10.154667 47.744-15.829334z" /></svg>