<svg class="icon" style="width: 1em;height: 1em;vertical-align: middle;fill: currentColor;overflow: hidden;" viewBox="0 0 1024 1024" version="1.1" xmlns="http://www.w3.org/2000/svg"><path d="M934.698667 239.872c2.645333 8.874667 3.968 18.090667 3.968 27.349333V756.906667a96 96 0 0 1-123.349334 91.989333l-235.264-69.973333a170.752 170.752 0 0 1-323.84-66.389334L256 704l-0.042667-21.333333-101.973333-30.336A96 96 0 0 1 85.333333 560.256V463.786667a96 96 0 0 1 68.693334-91.989334l661.333333-196.522666a96 96 0 0 1 119.338667 64.64zM319.957333 701.653333l0.042667 2.304a106.666667 106.666667 0 0 0 197.290667 56.362667l-197.333334-58.666667z m513.578667-465.066666l-661.333333 196.48a32 32 0 0 0-22.869334 30.72v96.469333a32 32 0 0 0 22.869334 30.72l661.333333 196.565333a32 32 0 0 0 41.130667-30.72V267.264a32 32 0 0 0-41.130667-30.677333z" /></svg>