<svg class="icon" style="width: 1em;height: 1em;vertical-align: middle;fill: currentColor;overflow: hidden;" viewBox="0 0 1024 1024" version="1.1" xmlns="http://www.w3.org/2000/svg"><path d="M139.946667 94.72a32 32 0 1 0-45.226667 45.226667l192.213333 192.256-132.949333 39.509333A96 96 0 0 0 85.333333 463.786667v96.512a96 96 0 0 0 68.650667 92.032l101.973333 30.293333L256 704l0.213333 8.533333a170.666667 170.666667 0 0 0 323.84 66.389334l218.581334 65.024 85.376 85.418666a32 32 0 0 0 45.269333-45.269333L139.946667 94.72z m563.669333 654.165333L172.202667 590.933333a32 32 0 0 1-22.869334-30.677333v-96.512a32 32 0 0 1 22.869334-30.677333l166.229333-49.365334 365.226667 365.226667zM320 701.610667l197.333333 58.709333A106.666667 106.666667 0 0 1 320 704l-0.042667-2.389333zM874.666667 267.221333v471.68l56.106666 56.106667c5.077333-11.690667 7.893333-24.618667 7.893334-38.186667V267.221333a96 96 0 0 0-123.306667-92.032L426.453333 290.730667l51.498667 51.498666 355.541333-105.685333a32 32 0 0 1 41.130667 30.677333z" /></svg>