<svg class="icon" style="width: 1em;height: 1em;vertical-align: middle;fill: currentColor;overflow: hidden;" viewBox="0 0 1024 1024" version="1.1" xmlns="http://www.w3.org/2000/svg"><path d="M734.378667 95.445333a32 32 0 0 0-60.714667-20.224l-32 95.957334a32 32 0 0 0 60.714667 20.224l32-95.957334z m194.901333-0.725333a32 32 0 0 1 0 45.226667l-106.666667 106.666666a32 32 0 1 1-45.226666-45.226666l106.666666-106.666667a32 32 0 0 1 45.226667 0zM387.242667 184.234667a99.2 99.2 0 0 1 161.92-24.618667l298.922666 320.256a99.2 99.2 0 0 1-32.341333 158.378667l-145.92 64.64a170.666667 170.666667 0 0 1-312.064 138.24l-60.458667 26.837333a76.8 76.8 0 0 1-83.797333-14.378667L152.106667 795.733333a76.8 76.8 0 0 1-16.512-89.216l251.648-522.24z m29.098666 630.997333a106.666667 106.666667 0 0 0 194.944-86.4l-194.986666 86.4z m86.016-611.968a35.2 35.2 0 0 0-57.429333 8.746667L193.28 734.293333a12.8 12.8 0 0 0 2.730667 14.933334l61.397333 57.856a12.8 12.8 0 0 0 13.952 2.389333l518.442667-229.674667a35.2 35.2 0 0 0 11.52-56.234666l-298.965334-320.256zM810.666667 352a32 32 0 0 1 32-32h85.333333a32 32 0 0 1 0 64h-85.333333a32 32 0 0 1-32-32z" /></svg>