<svg class="icon" style="width: 1em;height: 1em;vertical-align: middle;fill: currentColor;overflow: hidden;" viewBox="0 0 1024 1024" version="1.1" xmlns="http://www.w3.org/2000/svg"><path d="M128 288A32 32 0 0 1 160 256h192a32 32 0 0 1 22.613333 9.386667L578.56 469.333333h250.794667L670.72 310.613333a32 32 0 1 1 45.226667-45.226666l213.248 213.333333a32 32 0 0 1 0 45.226667l-213.248 213.333333a32 32 0 1 1-45.226667-45.226667l158.634667-158.72H578.56l-203.946667 203.946667a32 32 0 0 1-22.656 9.386667h-192a32 32 0 0 1 0-64h178.773334l181.333333-181.333334L338.773333 320H160A32 32 0 0 1 128 288z" /></svg>