<svg class="icon" style="width: 1em;height: 1em;vertical-align: middle;fill: currentColor;overflow: hidden;" viewBox="0 0 1024 1024" version="1.1" xmlns="http://www.w3.org/2000/svg"><path d="M139.946667 94.72a32 32 0 1 0-45.226667 45.226667L341.333333 386.56V512a170.666667 170.666667 0 0 0 266.581334 141.184l48.896 48.896A223.018667 223.018667 0 0 1 522.666667 746.666667h-21.333334l-9.216-0.170667A224 224 0 0 1 277.333333 522.666667v-21.333334l-0.298666-4.352A32 32 0 0 0 213.333333 501.333333v21.333334l0.170667 10.069333a288 288 0 0 0 266.496 277.162667v96.768l0.298667 4.352a32 32 0 0 0 63.701333-4.352l0.042667-96.768a286.634667 286.634667 0 0 0 158.378666-62.208l181.589334 181.589333a32 32 0 0 0 45.269333-45.226667L139.946667 94.72z m421.376 511.872A106.666667 106.666667 0 0 1 405.333333 512v-61.44l155.989334 156.032zM618.666667 256v226.901333l61.013333 61.013334c1.962667-10.325333 2.986667-20.992 2.986667-31.914667V256a170.666667 170.666667 0 0 0-335.445334-44.544L405.333333 269.568V256a106.666667 106.666667 0 0 1 213.333334 0zM733.696 597.930667l48.896 48.896A286.933333 286.933333 0 0 0 810.666667 522.666667v-21.333334l-0.298667-4.352a32 32 0 0 0-63.701333 4.352v21.333334l-0.170667 9.216a223.274667 223.274667 0 0 1-12.8 66.048z" /></svg>