<svg class="icon" style="width: 1em;height: 1em;vertical-align: middle;fill: currentColor;overflow: hidden;" viewBox="0 0 1024 1024" version="1.1" xmlns="http://www.w3.org/2000/svg"><path d="M469.333333 746.666667c0 46.762667 11.562667 90.837333 32 129.493333v30.506667a32 32 0 0 1-63.701333 4.352l-0.298667-4.352v-96.768a288 288 0 0 1-266.496-277.162667L170.666667 522.666667v-21.333334a32 32 0 0 1 63.701333-4.352l0.298667 4.352v21.333334a224 224 0 0 0 214.784 223.829333l9.216 0.170667H469.333333zM640 256v234.581333a277.077333 277.077333 0 0 0-65.365333 38.528c0.896-5.546667 1.365333-11.264 1.365333-17.109333V256a106.666667 106.666667 0 0 0-213.333333 0v256a106.666667 106.666667 0 0 0 140.928 101.034667 275.626667 275.626667 0 0 0-26.794667 69.461333A170.666667 170.666667 0 0 1 298.666667 512V256a170.666667 170.666667 0 1 1 341.333333 0z m-30.805333 340.266667a85.333333 85.333333 0 0 1-61.482667 106.538666l-24.917333 6.144a244.437333 244.437333 0 0 0 0.256 77.098667l23.04 5.546667a85.333333 85.333333 0 0 1 61.866666 107.093333l-7.978666 26.965333c18.773333 16.469333 40.106667 29.824 63.317333 39.296l21.077333-22.101333a85.333333 85.333333 0 0 1 123.690667 0l21.248 22.4a225.322667 225.322667 0 0 0 63.274667-38.954667l-8.448-29.269333a85.333333 85.333333 0 0 1 61.482666-106.496l24.917334-6.144a243.882667 243.882667 0 0 0-0.256-77.141333l-23.04-5.546667a85.333333 85.333333 0 0 1-61.866667-107.093333l7.978667-26.88a225.194667 225.194667 0 0 0-63.317334-39.381334l-21.034666 22.144a85.333333 85.333333 0 0 1-123.733334 0l-21.248-22.4c-23.210667 9.386667-44.544 22.613333-63.274666 38.912l8.448 29.269334zM746.666667 810.666667c-34.133333 0-61.866667-28.672-61.866667-64 0-35.370667 27.733333-64 61.866667-64 34.133333 0 61.866667 28.629333 61.866666 64 0 35.328-27.733333 64-61.866666 64z" /></svg>