<svg class="icon" style="width: 1em;height: 1em;vertical-align: middle;fill: currentColor;overflow: hidden;" viewBox="0 0 1024 1024" version="1.1" xmlns="http://www.w3.org/2000/svg"><path d="M640 256v234.581333a277.077333 277.077333 0 0 0-65.365333 38.528c0.896-5.546667 1.365333-11.264 1.365333-17.109333V256a106.666667 106.666667 0 0 0-213.333333 0v256a106.666667 106.666667 0 0 0 140.928 101.034667 275.626667 275.626667 0 0 0-26.794667 69.461333A170.666667 170.666667 0 0 1 298.666667 512V256a170.666667 170.666667 0 1 1 341.333333 0zM469.333333 746.666667c0 46.762667 11.562667 90.837333 32 129.493333v30.506667a32 32 0 0 1-63.701333 4.352l-0.298667-4.352v-96.768a288 288 0 0 1-266.496-277.162667L170.666667 522.666667v-21.333334a32 32 0 0 1 63.701333-4.352l0.298667 4.352v21.333334a224 224 0 0 0 214.784 223.829333l9.216 0.170667H469.333333zM981.333333 746.666667a234.666667 234.666667 0 1 1-469.333333 0 234.666667 234.666667 0 0 1 469.333333 0z m-405.333333 0c0 35.584 10.88 68.608 29.482667 95.914666l237.098666-237.098666A170.666667 170.666667 0 0 0 576 746.666667z m170.666667 170.666666a170.666667 170.666667 0 0 0 141.184-266.581333l-237.098667 237.098667c27.306667 18.602667 60.330667 29.482667 95.914667 29.482666z" /></svg>