<svg class="icon" style="width: 1em;height: 1em;vertical-align: middle;fill: currentColor;overflow: hidden;" viewBox="0 0 1024 1024" version="1.1" xmlns="http://www.w3.org/2000/svg"><path d="M591.104 646.229333a121.386667 121.386667 0 0 1 29.226667 47.530667l19.114666 58.752a23.210667 23.210667 0 0 0 43.776 0l19.114667-58.752a121.045333 121.045333 0 0 1 76.714667-76.629333l58.794666-19.114667a23.253333 23.253333 0 0 0 0-43.733333l-1.194666-0.298667-58.794667-19.114667a121.173333 121.173333 0 0 1-76.714667-76.629333l-19.072-58.752a23.210667 23.210667 0 0 0-43.818666 0l-19.114667 58.752-0.469333 1.450667a121.002667 121.002667 0 0 1-75.050667 75.178666l-58.794667 19.114667a23.253333 23.253333 0 0 0 0 43.733333l58.794667 19.114667c17.92 5.973333 34.133333 16.042667 47.488 29.397333zM682.666667 256v89.301333a65.877333 65.877333 0 0 0-64 10.752V256a106.666667 106.666667 0 0 0-213.333334 0v256c0 24.021333 7.936 46.165333 21.333334 64a65.877333 65.877333 0 0 0 43.946666 61.994667l0.554667 0.170666 59.093333 19.2c11.264 3.754667 21.546667 10.069333 30.037334 18.346667A170.666667 170.666667 0 0 1 341.333333 512V256.042667a170.666667 170.666667 0 1 1 341.333334 0z m-160 490.666667c23.210667 0 45.653333-3.541333 66.730666-10.112l9.642667 29.653333 0.170667 0.512c3.797333 10.752 10.325333 20.309333 18.858666 27.733333a286.677333 286.677333 0 0 1-74.026666 15.445334l-0.042667 96.768a32 32 0 0 1-63.701333 4.352l-0.298667-4.352v-96.768a288 288 0 0 1-266.496-277.162667L213.333333 522.666667v-21.333334a32 32 0 0 1 63.701334-4.352l0.298666 4.352v21.333334a224 224 0 0 0 214.784 223.829333l9.216 0.170667h21.333334z m416.725333 62.506666l32.682667 10.581334 0.64 0.170666a12.928 12.928 0 0 1 6.272 19.626667 12.885333 12.885333 0 0 1-6.272 4.693333l-32.64 10.581334a67.328 67.328 0 0 0-42.666667 42.581333l-10.581333 32.64a12.885333 12.885333 0 0 1-24.32 0l-10.624-32.597333a67.2 67.2 0 0 0-42.624-42.752l-32.64-10.624a12.928 12.928 0 0 1-6.272-19.626667 12.885333 12.885333 0 0 1 6.272-4.693333l32.64-10.581334a67.285333 67.285333 0 0 0 41.984-42.581333l10.624-32.64a12.885333 12.885333 0 0 1 24.32 0l10.624 32.597333a67.2 67.2 0 0 0 42.581333 42.624z" /></svg>