<svg class="icon" style="width: 1em;height: 1em;vertical-align: middle;fill: currentColor;overflow: hidden;" viewBox="0 0 1024 1024" version="1.1" xmlns="http://www.w3.org/2000/svg"><path d="M778.666667 469.333333a32 32 0 0 1 31.701333 27.648l0.298667 4.352v21.333334a288 288 0 0 1-266.624 287.232l-0.042667 96.768a32 32 0 0 1-63.701333 4.352l-0.298667-4.352v-96.768a288 288 0 0 1-266.496-277.162667L213.333333 522.666667v-21.333334a32 32 0 0 1 63.701334-4.352l0.298666 4.352v21.333334a224 224 0 0 0 214.784 223.829333l9.216 0.170667h21.333334a224 224 0 0 0 223.829333-214.784l0.170667-9.216v-21.333334a32 32 0 0 1 32-32zM512 85.333333a170.666667 170.666667 0 0 1 170.666667 170.666667v256a170.666667 170.666667 0 0 1-341.333334 0V256a170.666667 170.666667 0 0 1 170.666667-170.666667z m0 64A106.666667 106.666667 0 0 0 405.333333 256v256a106.666667 106.666667 0 0 0 213.333334 0V256A106.666667 106.666667 0 0 0 512 149.333333z" /></svg>