<svg class="icon" style="width: 1em;height: 1em;vertical-align: middle;fill: currentColor;overflow: hidden;" viewBox="0 0 1024 1024" version="1.1" xmlns="http://www.w3.org/2000/svg"><path d="M341.333333 117.333333A32 32 0 0 1 373.333333 85.333333h64a32 32 0 0 1 32 32V128h53.333334a32 32 0 0 1 32 32v76.16c0.341333 0 0.725333 0 1.066666 0.085333A352 352 0 0 1 725.077333 874.666667h138.922667a32 32 0 0 1 0 64H160a32 32 0 0 1 0-64h363.818667A288 288 0 0 0 554.666667 300.458667v222.208a32 32 0 0 1-32 32h-32v42.666666a85.333333 85.333333 0 1 1-170.666667 0v-42.666666h-32a32 32 0 0 1-32-32v-362.666667A32 32 0 0 1 288 128H341.333333v-10.666667zM384 554.666667v42.666666a21.333333 21.333333 0 0 0 42.666667 0v-42.666666H384z m-64-64h170.666667v-298.666667h-170.666667v298.666667z m-74.666667 256a32 32 0 0 0 0 64h320a32 32 0 0 0 0-64h-320z" /></svg>