<svg class="icon" style="width: 1em;height: 1em;vertical-align: middle;fill: currentColor;overflow: hidden;" viewBox="0 0 1024 1024" version="1.1" xmlns="http://www.w3.org/2000/svg"><path d="M906.666667 170.752a32 32 0 0 1 31.701333 27.648l0.298667 4.352v618.666667a32 32 0 0 1-27.648 31.701333l-4.352 0.298667H117.333333a32 32 0 0 1-31.701333-27.648L85.333333 821.418667v-618.666667a32 32 0 0 1 27.648-31.701333l4.352-0.298667h789.333334zM256 533.333333H149.333333v256h725.333334v-256H768v159.957334a32 32 0 0 1-63.701333 4.352l-0.298667-4.352V533.333333h-85.333333v159.957334a32 32 0 0 1-63.701334 4.352L554.666667 693.333333V533.333333h-85.333334v159.957334a32 32 0 0 1-63.701333 4.352L405.333333 693.333333V533.333333h-85.333333v159.957334a32 32 0 0 1-63.701333 4.352L256 693.333333V533.333333z m618.666667-298.666666h-725.333334v234.666666h725.333334V234.666667z m-480 85.333333a32 32 0 1 1 0 64 32 32 0 0 1 0-64z m341.333333 0a32 32 0 0 1 4.352 63.701333l-4.352 0.298667h-106.666667a32 32 0 0 1-4.352-63.701333l4.352-0.298667h106.666667z m-469.333333-0.042667a32 32 0 1 1 0 64 32 32 0 0 1 0-64z" /></svg>