<svg class="icon" style="width: 1em;height: 1em;vertical-align: middle;fill: currentColor;overflow: hidden;" viewBox="0 0 1024 1024" version="1.1" xmlns="http://www.w3.org/2000/svg"><path d="M821.333333 789.333333h85.333334a32 32 0 0 1 4.352 63.701334L906.666667 853.333333H853.333333v53.333334a32 32 0 0 1-63.701333 4.352l-0.298667-4.352v-85.333334a32 32 0 0 1 27.648-31.701333l4.352-0.298667h85.333334-85.333334z m-704 0h85.333334a32 32 0 0 1 31.701333 27.648l0.298667 4.352v85.333334a32 32 0 0 1-63.701334 4.352L170.666667 906.666667V853.333333H117.333333a32 32 0 0 1-4.352-63.701333l4.352-0.298667h85.333334-85.333334z m597.333334-554.538666a32 32 0 0 1 32 32V757.333333a32 32 0 0 1-32 32H309.418667a32 32 0 0 1-32-32V266.794667a32 32 0 0 1 32-32h405.333333z m-32 64H341.418667V725.333333h341.333333V298.794667z m-266.666667 235.136h106.752a32 32 0 0 1 4.352 63.701333l-4.352 0.298667H416a32 32 0 0 1-4.352-63.701334l4.352-0.298666h106.752H416z m0-128.597334h192.085333a32 32 0 0 1 4.352 63.701334l-4.352 0.298666H416a32 32 0 0 1-4.352-63.701333L416 405.333333h192.085333H416z m-213.333333-320a32 32 0 0 1 31.701333 27.648l0.298667 4.352v85.333334a32 32 0 0 1-27.648 31.701333L202.666667 234.666667h-85.333334a32 32 0 0 1-4.352-63.701334L117.333333 170.666667H170.666667V117.333333A32 32 0 0 1 202.666667 85.333333z m618.666666 0a32 32 0 0 1 31.701334 27.648L853.333333 117.333333V170.666667h53.333334a32 32 0 0 1 4.352 63.701333l-4.352 0.298667h-85.333334a32 32 0 0 1-31.701333-27.648L789.333333 202.666667v-85.333334a32 32 0 0 1 32-32z" /></svg>