<svg class="icon" style="width: 1em;height: 1em;vertical-align: middle;fill: currentColor;overflow: hidden;" viewBox="0 0 1024 1024" version="1.1" xmlns="http://www.w3.org/2000/svg"><path d="M682.666667 512a213.333333 213.333333 0 1 0-185.045334-107.093333l-115.797333 77.141333a170.666667 170.666667 0 1 0 9.813333 218.88l165.845334 82.901333a128 128 0 1 0 28.629333-57.216l-165.802667-82.901333a170.837333 170.837333 0 0 0-4.821333-107.221333l122.154667-81.365334A212.565333 212.565333 0 0 0 682.666667 512z m0-64a149.333333 149.333333 0 1 1 0-298.666667 149.333333 149.333333 0 0 1 0 298.666667z m-426.666667 256a106.666667 106.666667 0 1 1 0-213.333333 106.666667 106.666667 0 0 1 0 213.333333zM746.666667 810.666667a64 64 0 1 1-128 0 64 64 0 0 1 128 0z" /></svg>