<svg class="icon" style="width: 1em;height: 1em;vertical-align: middle;fill: currentColor;overflow: hidden;" viewBox="0 0 1024 1024" version="1.1" xmlns="http://www.w3.org/2000/svg"><path d="M448 341.333333a128 128 0 1 0 0 256 128 128 0 0 0 0-256zM384 469.333333a64 64 0 1 1 128 0 64 64 0 0 1-128 0zM85.333333 309.333333A96 96 0 0 1 181.333333 213.333333h533.333334A96 96 0 0 1 810.666667 309.333333v167.424A278.186667 278.186667 0 0 0 746.666667 469.333333V405.333333h-32a96 96 0 0 1-96-96V277.333333h-341.333334v32A96 96 0 0 1 181.333333 405.333333H149.333333v128h32a96 96 0 0 1 96 96v32h205.354667c-6.570667 20.394667-10.88 41.813333-12.544 64H181.333333A96 96 0 0 1 85.333333 629.333333v-320z m96-32a32 32 0 0 0-32 32V341.333333h32A32 32 0 0 0 213.333333 309.333333V277.333333h-32zM746.666667 341.333333v-32a32 32 0 0 0-32-32H682.666667v32c0 17.664 14.336 32 32 32h32z m-597.333334 288c0 17.664 14.336 32 32 32H213.333333v-32a32 32 0 0 0-32-32H149.333333v32z m38.442667 160h284.8c3.456 22.314667 9.557333 43.776 18.005333 64H298.666667c-47.36 0-88.746667-25.728-110.890667-64zM874.666667 500.565333A278.016 278.016 0 0 1 938.666667 546.56V426.666667c0-47.36-25.728-88.746667-64-110.890667v184.789333zM981.333333 746.666667a234.666667 234.666667 0 1 1-469.333333 0 234.666667 234.666667 0 0 1 469.333333 0z m-304.896-100.437334a21.333333 21.333333 0 0 0-30.208 30.208l70.272 70.229334-70.272 70.229333a21.333333 21.333333 0 0 0 30.208 30.208l70.229334-70.272 70.229333 70.272a21.333333 21.333333 0 0 0 30.208-30.208L776.832 746.666667l70.272-70.229334a21.333333 21.333333 0 0 0-30.208-30.208L746.666667 716.501333l-70.229334-70.272z" /></svg>