<svg class="icon" style="width: 1em;height: 1em;vertical-align: middle;fill: currentColor;overflow: hidden;" viewBox="0 0 1024 1024" version="1.1" xmlns="http://www.w3.org/2000/svg"><path d="M448 341.333333a128 128 0 1 0 0 256 128 128 0 0 0 0-256zM384 469.333333a64 64 0 1 1 128 0 64 64 0 0 1-128 0zM85.333333 309.333333A96 96 0 0 1 181.333333 213.333333h533.333334A96 96 0 0 1 810.666667 309.333333v320A96 96 0 0 1 714.666667 725.333333H181.333333A96 96 0 0 1 85.333333 629.333333v-320z m96-32a32 32 0 0 0-32 32V341.333333h32A32 32 0 0 0 213.333333 309.333333V277.333333h-32z m-32 256h32a96 96 0 0 1 96 96v32h341.333334v-32a96 96 0 0 1 96-96h32v-128h-32a96 96 0 0 1-96-96V277.333333h-341.333334v32A96 96 0 0 1 181.333333 405.333333H149.333333v128z m597.333334-192v-32a32 32 0 0 0-32-32H682.666667v32c0 17.664 14.336 32 32 32h32z m0 256h-32a32 32 0 0 0-32 32v32h32a32 32 0 0 0 32-32V597.333333z m-597.333334 32c0 17.664 14.336 32 32 32H213.333333v-32a32 32 0 0 0-32-32H149.333333v32zM187.776 789.333333A127.957333 127.957333 0 0 0 298.666667 853.333333h437.333333A202.666667 202.666667 0 0 0 938.666667 650.666667V426.666667c0-47.36-25.728-88.746667-64-110.890667v334.890667a138.666667 138.666667 0 0 1-138.666667 138.666666H187.776z" /></svg>