<svg class="icon" style="width: 1em;height: 1em;vertical-align: middle;fill: currentColor;overflow: hidden;" viewBox="0 0 1024 1024" version="1.1" xmlns="http://www.w3.org/2000/svg"><path d="M448 298.666667a128 128 0 1 0 0 256 128 128 0 0 0 0-256zM384 426.666667a64 64 0 1 1 128 0 64 64 0 0 1-128 0zM85.333333 266.666667A96 96 0 0 1 181.333333 170.666667h533.333334A96 96 0 0 1 810.666667 266.666667V469.333333h-64V362.666667h-32a96 96 0 0 1-96-96V234.666667h-341.333334v32A96 96 0 0 1 181.333333 362.666667H149.333333v128h32a96 96 0 0 1 96 96v32H597.333333V682.666667H181.333333A96 96 0 0 1 85.333333 586.666667v-320z m96-32a32 32 0 0 0-32 32V298.666667h32A32 32 0 0 0 213.333333 266.666667V234.666667h-32zM746.666667 298.666667v-32a32 32 0 0 0-32-32H682.666667v32c0 17.664 14.336 32 32 32h32z m-597.333334 288c0 17.664 14.336 32 32 32H213.333333v-32a32 32 0 0 0-32-32H149.333333v32z m38.442667 160H597.333333V810.666667H298.666667c-47.36 0-88.746667-25.728-110.890667-64zM938.666667 469.333333V384c0-47.36-25.728-88.746667-64-110.890667V469.333333H938.666667z m-234.666667 42.666667a64 64 0 0 0-64 64v341.333333a64 64 0 0 0 64 64h213.333333a64 64 0 0 0 64-64v-341.333333a64 64 0 0 0-64-64h-213.333333z m21.333333 192h42.666667a21.333333 21.333333 0 0 1 0 42.666667h-42.666667a21.333333 21.333333 0 0 1 0-42.666667z m128 0h42.666667a21.333333 21.333333 0 0 1 0 42.666667h-42.666667a21.333333 21.333333 0 0 1 0-42.666667z m-128 85.333333h42.666667a21.333333 21.333333 0 0 1 0 42.666667h-42.666667a21.333333 21.333333 0 0 1 0-42.666667z m128 0h42.666667a21.333333 21.333333 0 0 1 0 42.666667h-42.666667a21.333333 21.333333 0 0 1 0-42.666667z m-128 85.333334h42.666667a21.333333 21.333333 0 0 1 0 42.666666h-42.666667a21.333333 21.333333 0 0 1 0-42.666666z m128 0h42.666667a21.333333 21.333333 0 0 1 0 42.666666h-42.666667a21.333333 21.333333 0 0 1 0-42.666666zM704 597.333333a21.333333 21.333333 0 0 1 21.333333-21.333333h170.666667a21.333333 21.333333 0 0 1 21.333333 21.333333v42.666667a21.333333 21.333333 0 0 1-21.333333 21.333333h-170.666667a21.333333 21.333333 0 0 1-21.333333-21.333333v-42.666667z" /></svg>