<svg class="icon" style="width: 1em;height: 1em;vertical-align: middle;fill: currentColor;overflow: hidden;" viewBox="0 0 1024 1024" version="1.1" xmlns="http://www.w3.org/2000/svg"><path d="M139.946667 94.72a32 32 0 0 0-45.226667 45.226667L168.874667 214.186667A96 96 0 0 0 85.333333 309.333333v320A96 96 0 0 0 181.333333 725.333333h498.773334l63.744 63.786667c-2.56 0.128-5.205333 0.213333-7.850667 0.213333H187.776A127.957333 127.957333 0 0 0 298.666667 853.333333h437.333333c21.76 0 42.666667-3.413333 62.293333-9.770666l85.76 85.76a32 32 0 1 0 45.226667-45.269334L139.946667 94.72zM616.106667 661.333333H277.333333v-32a96 96 0 0 0-96-96H149.333333v-128h32a96 96 0 0 0 95.189334-83.541333l69.802666 69.802667a128 128 0 0 0 179.456 179.456l90.282667 90.282666z m-223.701334-223.701333l87.296 87.296a64 64 0 0 1-87.296-87.296zM149.333333 309.333333a32 32 0 0 1 32-32H213.333333v32a32 32 0 0 1-32 32H149.333333v-32z m32 352a32 32 0 0 1-32-32V597.333333h32a32 32 0 0 1 32 32v32h-32z m533.333334-128c-13.44 0-26.24 2.773333-37.845334 7.765334L733.013333 597.333333h13.610667v13.653334l56.234667 56.192c4.992-11.605333 7.765333-24.405333 7.765333-37.845334v-320A96 96 0 0 0 714.666667 213.333333H349.013333l64 64h205.653334v32a96 96 0 0 0 96 96h32v128h-32z m32-224V341.333333h-32a32 32 0 0 1-32-32V277.333333h32a32 32 0 0 1 32 32z m109.312 410.922667l46.293333 46.293333c22.954667-32.853333 36.394667-72.789333 36.394667-115.882666V426.666667c0-47.36-25.728-88.746667-64-110.890667v334.890667c0 25.386667-6.826667 49.152-18.688 69.589333z" /></svg>