<svg class="icon" style="width: 1em;height: 1em;vertical-align: middle;fill: currentColor;overflow: hidden;" viewBox="0 0 1024 1024" version="1.1" xmlns="http://www.w3.org/2000/svg"><path d="M841.770667 167.125333l2.133333 6.826667 23.552 82.005333a32 32 0 0 1-17.834667 38.101334l-4.096 1.493333L387.84 426.752h476.117333a32 32 0 0 1 31.701334 27.733333l0.298666 4.266667v362.624a117.333333 117.333333 0 0 1-110.208 117.12L778.666667 938.666667H245.333333a117.333333 117.333333 0 0 1-117.12-110.165334L128 821.333333v-358.058666l-22.272-77.696a117.333333 117.333333 0 0 1 73.642667-142.933334l6.826666-2.218666 512.597334-146.986667a117.333333 117.333333 0 0 1 142.933333 73.642667z m-9.813334 323.626667H192v330.624c0 25.770667 18.304 47.274667 42.581333 52.224l5.290667 0.853333 5.461333 0.256H778.666667a53.333333 53.333333 0 0 0 53.077333-47.872l0.256-5.461333v-330.624zM267.605333 283.690667l-63.829333 18.346666a53.333333 53.333333 0 0 0-37.802667 60.586667l1.237334 5.333333 14.677333 51.242667 12.586667-3.626667 73.130666-131.84z m202.922667-58.154667l-115.925333 33.237333-73.130667 131.84 115.968-33.194666 73.088-131.882667z m202.965333-58.24l-115.925333 33.28-73.130667 131.84 115.925334-33.194667 73.130666-131.925333z m78.848-9.941333l-64.896 116.906666 109.568-31.445333-14.634666-51.2a53.248 53.248 0 0 0-30.037334-34.261333z" /></svg>