<svg class="icon" style="width: 1em;height: 1em;vertical-align: middle;fill: currentColor;overflow: hidden;" viewBox="0 0 1024 1024" version="1.1" xmlns="http://www.w3.org/2000/svg"><path d="M232.661333 299.861333A32 32 0 0 1 256 330.666667v362.666666a32 32 0 0 1-64 0V419.541333c-16.298667 15.786667-35.84 31.829333-58.197333 45.226667a32 32 0 0 1-32.938667-54.869333c28.842667-17.28 52.906667-41.173333 70.058667-61.397334a352.597333 352.597333 0 0 0 25.514666-34.133333l0.213334-0.341333h0.042666a31.957333 31.957333 0 0 1 35.968-14.165334z m211.84 137.301334a32 32 0 0 0 35.413334-28.842667 57.941333 57.941333 0 0 1 9.557333-21.504c7.552-10.410667 23.04-24.149333 58.794667-24.149333 32.981333 0 51.2 10.069333 60.757333 22.186666 9.898667 12.586667 15.957333 34.261333 10.112 68.394667-3.242667 18.773333-12.074667 29.44-26.154667 38.656-11.946667 7.850667-25.173333 13.269333-41.642666 20.053333-6.826667 2.816-14.250667 5.888-22.357334 9.386667-25.258667 11.093333-54.613333 26.197333-77.013333 53.888-23.04 28.416-35.968 66.474667-35.968 118.101333a32 32 0 0 0 32 32h202.666667a32 32 0 0 0 0-64h-168.192c3.626667-21.418667 10.965333-35.626667 19.2-45.824 12.458667-15.36 30.037333-25.472 52.906666-35.498666 4.906667-2.133333 10.282667-4.352 16-6.698667 18.346667-7.509333 39.978667-16.384 57.514667-27.904 25.813333-16.896 47.274667-41.728 54.101333-81.322667 7.68-44.8 2.048-87.125333-22.912-118.826666C634.026667 313.173333 594.176 298.666667 548.266667 298.666667c-56.32 0-91.008 23.594667-110.592 50.517333a121.984 121.984 0 0 0-21.205334 50.56 61.738667 61.738667 0 0 0-0.213333 1.28v0.469333l-0.042667 0.213334v0.085333c-0.042667 0.085333-1.877333 17.066667 0 0.085333a32 32 0 0 0 28.288 35.285334z m335.488 84.224a32 32 0 0 0-45.269333 45.226666l52.053333 52.053334-52.053333 52.053333a32 32 0 0 0 45.226667 45.226667l52.053333-52.053334 52.053333 52.053334a32 32 0 0 0 45.226667-45.226667l-52.053333-52.053333 52.053333-52.053334a32 32 0 1 0-45.226667-45.226666l-52.053333 52.053333-52.053333-52.053333zM362.666667 693.333333a32 32 0 1 1-64.042667 0 32 32 0 0 1 64 0z" /></svg>