<svg class="icon" style="width: 1em;height: 1em;vertical-align: middle;fill: currentColor;overflow: hidden;" viewBox="0 0 1024 1024" version="1.1" xmlns="http://www.w3.org/2000/svg"><path d="M262.912 437.12a32 32 0 0 0 35.669333-28.501333 59.008 59.008 0 0 1 9.813334-21.632c7.765333-10.538667 23.466667-24.32 59.264-24.32 33.109333 0 54.826667 10.197333 67.072 23.808 11.946667 13.226667 19.242667 34.602667 13.738666 66.773333-3.114667 18.133333-12.032 28.8-27.221333 38.272-12.757333 7.978667-26.965333 13.525333-44.501333 20.352-7.125333 2.816-14.805333 5.802667-23.168 9.258667-26.453333 10.965333-57.173333 25.941333-80.682667 53.418666-24.362667 28.458667-38.229333 66.730667-38.229333 118.784a32 32 0 0 0 32 32h213.333333a32 32 0 0 0 0-64H301.312c3.84-20.992 11.52-34.986667 20.181333-45.141333 13.312-15.530667 32.170667-25.813333 56.576-35.925333 5.205333-2.133333 10.922667-4.394667 16.938667-6.741334 19.370667-7.552 41.898667-16.298667 60.16-27.733333 26.752-16.682667 49.493333-41.514667 56.362667-81.706667 8.064-46.762667-1.28-89.386667-29.226667-120.405333C454.741333 313.002667 413.482667 298.666667 367.658667 298.666667c-56.32 0-91.093333 23.552-110.805334 50.346666a123.008 123.008 0 0 0-21.674666 50.432 65.066667 65.066667 0 0 0-0.170667 1.28l-0.085333 0.426667v0.341333c0 0.085333-2.005333 16.554667 0 0.042667a32 32 0 0 0 27.989333 35.584z m346.410667 84.266667a32 32 0 0 0-45.269334 45.226666l52.053334 52.053334-52.053334 52.053333a32 32 0 1 0 45.226667 45.226667l52.053333-52.053334 52.053334 52.053334a32 32 0 1 0 45.226666-45.226667l-52.053333-52.053333 52.053333-52.053334a32 32 0 0 0-45.226666-45.226666l-52.053334 52.053333-52.053333-52.053333z" /></svg>