<svg class="icon" style="width: 1em;height: 1em;vertical-align: middle;fill: currentColor;overflow: hidden;" viewBox="0 0 1024 1024" version="1.1" xmlns="http://www.w3.org/2000/svg"><path d="M426.666667 330.666667a32 32 0 0 0-59.306667-16.64l-0.256 0.384a352.64 352.64 0 0 1-25.514667 34.133333c-17.152 20.181333-41.216 44.074667-70.058666 61.354667a32 32 0 1 0 32.938666 54.869333A326.613333 326.613333 0 0 0 362.666667 419.541333v273.792a32 32 0 0 0 64 0v-362.666666z m139.946666 190.72a32 32 0 0 0-45.226666 45.226666l52.053333 52.053334-52.053333 52.053333a32 32 0 1 0 45.226666 45.226667l52.053334-52.053334 52.053333 52.053334a32 32 0 0 0 45.226667-45.226667l-52.053334-52.053333 52.053334-52.053334a32 32 0 1 0-45.226667-45.226666l-52.053333 52.053333-52.053334-52.053333z" /></svg>