<svg class="icon" style="width: 1em;height: 1em;vertical-align: middle;fill: currentColor;overflow: hidden;" viewBox="0 0 1024 1024" version="1.1" xmlns="http://www.w3.org/2000/svg"><path d="M289.28 203.946667a32 32 0 0 0-45.226667-45.226667L160 242.773333l-20.053333-20.053333a32 32 0 0 0-45.226667 45.226667l42.666667 42.666666a32 32 0 0 0 45.226666 0l106.666667-106.666666z m126.72 564.352h490.666667a32 32 0 0 1 4.352 63.701333l-4.352 0.298667H416a32 32 0 0 1-4.352-63.701334l4.352-0.298666z m0-277.632h490.666667a32 32 0 0 1 4.352 63.701333L906.666667 554.666667H416a32 32 0 0 1-4.352-63.701334l4.352-0.298666z m0-277.333334h490.666667a32 32 0 0 1 4.352 63.701334l-4.352 0.298666H416a32 32 0 0 1-4.352-63.701333L416 213.333333zM289.28 713.386667a32 32 0 0 1 0 45.226666l-106.666667 106.666667a32 32 0 0 1-45.226666 0l-42.666667-42.666667a32 32 0 1 1 45.226667-45.226666l20.053333 20.053333 84.053333-84.053333a32 32 0 0 1 45.226667 0z" /></svg>