<svg class="icon" style="width: 1em;height: 1em;vertical-align: middle;fill: currentColor;overflow: hidden;" viewBox="0 0 1024 1024" version="1.1" xmlns="http://www.w3.org/2000/svg"><path d="M682.666667 405.333333a110.933333 110.933333 0 0 1-36.693334 82.304c34.858667 24.874667 58.026667 63.957333 58.026667 109.696 0 79.36-69.802667 138.666667-149.333333 138.666667S405.333333 676.693333 405.333333 597.333333c0-45.738667 23.168-84.821333 58.026667-109.696A110.933333 110.933333 0 0 1 426.666667 405.333333c0-68.266667 60.970667-117.333333 128-117.333333 67.072 0 128 49.066667 128 117.333333z m-128-53.333333c-38.997333 0-64 27.306667-64 53.333333s25.002667 53.333333 64 53.333334 64-27.306667 64-53.333334-25.002667-53.333333-64-53.333333zM469.333333 597.333333c0 38.4 35.285333 74.666667 85.333334 74.666667 50.090667 0 85.333333-36.266667 85.333333-74.666667s-35.242667-74.666667-85.333333-74.666666c-50.048 0-85.333333 36.266667-85.333334 74.666666z m310.613334-75.946666a32 32 0 0 0-45.226667 45.226666l52.053333 52.053334-52.053333 52.053333a32 32 0 1 0 45.226667 45.226667l52.053333-52.053334 52.053333 52.053334a32 32 0 0 0 45.226667-45.226667l-52.053333-52.053333 52.053333-52.053334a32 32 0 1 0-45.226667-45.226666l-52.053333 52.053333-52.053333-52.053333zM362.666667 693.333333a32 32 0 1 1-64 0 32 32 0 0 1 64 0zM232.661333 299.861333A32 32 0 0 1 256 330.666667v362.666666a32 32 0 0 1-64 0V419.541333c-16.298667 15.744-35.84 31.829333-58.197333 45.226667a32 32 0 0 1-32.938667-54.869333c28.842667-17.28 52.906667-41.173333 70.058667-61.44a352.597333 352.597333 0 0 0 25.514666-34.048l0.213334-0.384 0.042666-0.042667a31.957333 31.957333 0 0 1 35.968-14.122667z" /></svg>