<svg class="icon" style="width: 1em;height: 1em;vertical-align: middle;fill: currentColor;overflow: hidden;" viewBox="0 0 1024 1024" version="1.1" xmlns="http://www.w3.org/2000/svg"><path d="M298.752 328.533333A32 32 0 0 1 330.666667 298.666667h192a32 32 0 0 1 0 64H360.618667l-6.058667 90.752 54.869333-7.850667a145.92 145.92 0 1 1 20.608 290.432h-15.146666a161.109333 161.109333 0 0 1-119.296-52.906667l-9.984-10.922666a32 32 0 0 1 47.445333-43.008l9.941333 10.965333a97.066667 97.066667 0 0 0 71.893334 31.872h15.146666a81.92 81.92 0 1 0-11.562666-163.072l-93.952 13.397333a32 32 0 0 1-36.437334-33.792l10.666667-160z m307.968 192.853334a32 32 0 0 1 45.226667 0l52.053333 52.053333 52.053333-52.053333a32 32 0 0 1 45.226667 45.226666l-52.053333 52.053334 52.053333 52.053333a32 32 0 1 1-45.226667 45.226667l-52.053333-52.053334-52.053333 52.053334a32 32 0 0 1-45.226667-45.226667l52.053333-52.053333-52.053333-52.053334a32 32 0 0 1 0-45.226666zM202.666667 725.333333a32 32 0 1 0 0-64 32 32 0 0 0 0 64z" /></svg>