<svg class="icon" style="width: 1em;height: 1em;vertical-align: middle;fill: currentColor;overflow: hidden;" viewBox="0 0 1024 1024" version="1.1" xmlns="http://www.w3.org/2000/svg"><path d="M491.221333 87.381333a32 32 0 0 0-43.221333 29.952v517.418667a170.666667 170.666667 0 1 0 62.976 151.893333 31.957333 31.957333 0 0 0 1.024-7.978666V376.832l298.112 111.786667A32 32 0 0 0 853.333333 458.666667V319.274667a138.666667 138.666667 0 0 0-89.984-129.877334l-272.128-102.016zM448 768a106.666667 106.666667 0 1 1-213.333333 0 106.666667 106.666667 0 0 1 213.333333 0z m341.333333-355.498667L512 308.48V163.498667l228.864 85.845333A74.666667 74.666667 0 0 1 789.333333 319.274667v93.226666z" /></svg>