<svg class="icon" style="width: 1em;height: 1em;vertical-align: middle;fill: currentColor;overflow: hidden;" viewBox="0 0 1024 1024" version="1.1" xmlns="http://www.w3.org/2000/svg"><path d="M840.448 91.648A32 32 0 0 1 853.333333 117.333333v576a32.597333 32.597333 0 0 1-0.170666 3.370667 149.333333 149.333333 0 1 1-63.829334-115.285333V331.008l-362.666666 108.8v338.858667a32.256 32.256 0 0 1-0.170667 3.370666A149.333333 149.333333 0 1 1 362.666667 666.752V245.333333a32 32 0 0 1 22.784-30.634666l426.666666-128a32 32 0 0 1 28.330667 4.949333zM426.666667 372.992l362.666666-108.8V160.341333L426.666667 269.141333v103.850667zM277.333333 704a85.333333 85.333333 0 1 0 0 170.666667 85.333333 85.333333 0 0 0 0-170.666667z m341.333334 0a85.333333 85.333333 0 1 0 170.666666 0 85.333333 85.333333 0 0 0-170.666666 0z" /></svg>