<svg class="icon" style="width: 1em;height: 1em;vertical-align: middle;fill: currentColor;overflow: hidden;" viewBox="0 0 1024 1024" version="1.1" xmlns="http://www.w3.org/2000/svg"><path d="M512 85.333333a32 32 0 0 1 31.701333 27.648l0.298667 4.352v76.288a320 320 0 0 1 286.421333 286.464l1.578667-0.085333h74.666667a32 32 0 0 1 4.352 63.701333l-4.352 0.298667-76.288-0.042667a320 320 0 0 1-286.464 286.464l0.085333 1.578667v74.666667a32 32 0 0 1-63.701333 4.352l-0.298667-4.352 0.042667-76.288a320 320 0 0 1-286.464-286.464l-1.578667 0.085333H117.333333a32 32 0 0 1-4.352-63.701333l4.352-0.298667h76.288a320 320 0 0 1 286.464-286.421333L480 192V117.333333A32 32 0 0 1 512 85.333333z m0 170.666667a256 256 0 1 0 0 512 256 256 0 0 0 0-512z m0 85.333333a170.666667 170.666667 0 1 1 0 341.333334 170.666667 170.666667 0 0 1 0-341.333334z" /></svg>