<svg class="icon" style="width: 1em;height: 1em;vertical-align: middle;fill: currentColor;overflow: hidden;" viewBox="0 0 1024 1024" version="1.1" xmlns="http://www.w3.org/2000/svg"><path d="M117.461333 768h789.333334a32 32 0 0 1 4.352 63.701333l-4.352 0.298667h-789.333334a32 32 0 0 1-4.352-63.701333L117.461333 768h789.333334-789.333334z m0-277.205333h789.333334a32 32 0 0 1 4.352 63.701333l-4.352 0.298667h-789.333334a32 32 0 0 1-4.352-63.701334l4.352-0.298666h789.333334-789.333334z m-0.042666-277.333334h789.333333a32 32 0 0 1 4.352 63.701334l-4.352 0.298666h-789.333333A32 32 0 0 1 113.066667 213.76l4.352-0.298667h789.333333-789.333333z" /></svg>