<svg class="icon" style="width: 1em;height: 1em;vertical-align: middle;fill: currentColor;overflow: hidden;" viewBox="0 0 1024 1024" version="1.1" xmlns="http://www.w3.org/2000/svg"><path d="M821.333333 362.666667a117.333333 117.333333 0 1 0 0-234.666667 117.333333 117.333333 0 0 0 0 234.666667zM664.576 277.461333a160.768 160.768 0 0 1-0.085333-64H117.418667l-4.352 0.298667a32 32 0 0 0 4.352 63.701333h547.157333zM906.794667 768h-789.333334l-4.352 0.298667a32 32 0 0 0 4.352 63.701333h789.333334l4.352-0.298667A32 32 0 0 0 906.794667 768zM117.461333 490.794667h789.333334a32 32 0 0 1 4.352 63.701333l-4.352 0.298667h-789.333334a32 32 0 0 1-4.352-63.701334l4.352-0.298666z" /></svg>