<svg class="icon" style="width: 1em;height: 1em;vertical-align: middle;fill: currentColor;overflow: hidden;" viewBox="0 0 1024 1024" version="1.1" xmlns="http://www.w3.org/2000/svg"><path d="M428.8 657.92l266.922667-361.642667a29.610667 29.610667 0 0 1 52.693333 24.32l-1.28 4.181334-165.12 418.133333a88.32 88.32 0 1 1-159.445333-75.349333l2.944-4.906667 3.242666-4.693333 266.965334-361.685334-266.965334 361.642667z m162.133333-111.914667l-110.677333 149.930667-1.706667 2.688a24.32 24.32 0 0 0 9.514667 33.066667l2.816 1.365333a24.32 24.32 0 0 0 29.866667-10.154667l1.706666-3.541333 68.48-173.354667z m-74.666666-82.176l-52.309334 70.826667a141.653333 141.653333 0 0 0-97.706666 129.024 32 32 0 0 1-64-2.688A205.610667 205.610667 0 0 1 389.973333 500.906667c38.4-26.922667 82.858667-38.869333 126.336-37.12z m177.792 117.418667c11.946667 25.002667 18.602667 52.053333 19.754666 79.616a32 32 0 0 1-58.709333 18.944l38.954667-98.56z m-95.274667-229.12l-41.344 55.936a265.386667 265.386667 0 0 0-202.069333 43.52 264.874667 264.874667 0 0 0-103.210667 144.64 32 32 0 0 1-61.525333-17.578667 328.874667 328.874667 0 0 1 128-179.498666 329.557333 329.557333 0 0 1 280.149333-47.018667z m149.76 91.221333c10.666667 11.392 20.736 23.722667 29.952 36.906667a329.685333 329.685333 0 0 1 46.805333 97.621333 32 32 0 0 1-61.44 17.792 265.813333 265.813333 0 0 0-37.76-78.72l-4.352-5.888 26.752-67.712zM681.813333 249.685333l-3.754666 2.304c-5.248 3.498667-10.069333 7.68-14.378667 12.586667l-4.096 5.12-23.04 31.232a389.888 389.888 0 0 0-352.469333 48.896A388.394667 388.394667 0 0 0 144.213333 527.786667a32 32 0 1 1-59.648-23.168A452.394667 452.394667 0 0 1 247.424 297.386667 454.058667 454.058667 0 0 1 681.813333 249.685333z m112.170667 66.645334a454.229333 454.229333 0 0 1 86.272 92.629333c20.906667 29.952 38.058667 61.909333 51.157333 95.36a32 32 0 1 1-59.605333 23.338667 392.021333 392.021333 0 0 0-99.285333-145.28l16.256-41.130667c3.242667-8.106667 4.906667-16.554667 5.205333-24.917333z" /></svg>