<svg class="icon" style="width: 1em;height: 1em;vertical-align: middle;fill: currentColor;overflow: hidden;" viewBox="0 0 1024 1024" version="1.1" xmlns="http://www.w3.org/2000/svg"><path d="M778.666667 170.666667a32 32 0 0 1 32 32v362.666666a32 32 0 0 1-64 0v-362.666666a32 32 0 0 1 32-32zM170.666667 778.666667a32 32 0 0 1 32-32h362.666666a32 32 0 0 1 0 64h-362.666666a32 32 0 0 1-32-32zM353.28 308.053333a32 32 0 0 0-45.226667 45.226667l277.333334 277.333333a32 32 0 1 0 45.226666-45.226666l-277.333333-277.333334z" /></svg>