<svg class="icon" style="width: 1em;height: 1em;vertical-align: middle;fill: currentColor;overflow: hidden;" viewBox="0 0 1024 1024" version="1.1" xmlns="http://www.w3.org/2000/svg"><path d="M896 160a32 32 0 0 0-64 0v704a32 32 0 0 0 64 0V160zM246.186667 150.4C196.778667 114.986667 128 150.314667 128 211.072V817.92c0 59.050667 65.28 94.72 114.986667 62.848l446.72-286.549333a74.666667 74.666667 0 0 0 3.157333-123.52L246.186667 150.4zM192 211.072a10.666667 10.666667 0 0 1 16.896-8.661333l446.72 320.298666a10.666667 10.666667 0 0 1-0.469333 17.621334l-446.72 286.592a10.666667 10.666667 0 0 1-16.426667-8.96V211.029333z" /></svg>