<svg class="icon" style="width: 1em;height: 1em;vertical-align: middle;fill: currentColor;overflow: hidden;" viewBox="0 0 1024 1024" version="1.1" xmlns="http://www.w3.org/2000/svg"><path d="M128 757.333333A138.666667 138.666667 0 0 0 266.666667 896h209.706666l15.189334-60.714667 0.853333-3.285333H266.666667a74.666667 74.666667 0 0 1-74.666667-74.666667V469.333333h138.666667l7.850666-0.213333A138.666667 138.666667 0 0 0 469.333333 330.666667V192h288c41.216 0 74.666667 33.450667 74.666667 74.666667v212.565333c20.437333-8.106667 42.410667-11.221333 64-9.386667V266.666667A138.666667 138.666667 0 0 0 757.333333 128h-293.504a96 96 0 0 0-67.84 28.117333L156.074667 395.946667A96 96 0 0 0 128 463.829333v293.504zM330.666667 405.333333H237.269333L405.333333 237.269333V330.666667l-0.256 6.144A74.666667 74.666667 0 0 1 330.666667 405.333333z m484.266666 135.253334l-251.861333 251.818666a114.602667 114.602667 0 0 0-30.122667 53.205334l-19.541333 78.122666a46.378667 46.378667 0 0 0 56.277333 56.234667l78.08-19.498667a114.56 114.56 0 0 0 53.248-30.165333l251.818667-251.818667A97.536 97.536 0 0 0 814.933333 540.586667z" /></svg>