<svg class="icon" style="width: 1em;height: 1em;vertical-align: middle;fill: currentColor;overflow: hidden;" viewBox="0 0 1024 1024" version="1.1" xmlns="http://www.w3.org/2000/svg"><path d="M667.648 85.632L672 85.333333a32 32 0 0 1 31.701333 27.648l0.298667 4.352v355.242667a275.285333 275.285333 0 0 0-64 18.005333V234.666667H394.666667a32 32 0 0 0-32 32v490.496c0 17.664 14.336 32 32 32h77.909333c3.413333 22.314667 9.514667 43.776 17.92 64H394.666667A96 96 0 0 1 298.666667 757.162667V266.666667A96 96 0 0 1 394.666667 170.666667L640 170.624v-53.333333a32 32 0 0 1 27.648-31.658667zM981.333333 746.666667a234.666667 234.666667 0 1 1-469.333333 0 234.666667 234.666667 0 0 1 469.333333 0z m-362.666666-21.333334a21.333333 21.333333 0 0 0 0 42.666667h204.501333l-70.272 70.229333a21.333333 21.333333 0 0 0 30.208 30.208l106.666667-106.666666a21.333333 21.333333 0 0 0 0-30.208l-106.666667-106.666667a21.333333 21.333333 0 0 0-30.208 30.208L823.168 725.333333H618.666667z" /></svg>