<svg class="icon" style="width: 1em;height: 1em;vertical-align: middle;fill: currentColor;overflow: hidden;" viewBox="0 0 1024 1024" version="1.1" xmlns="http://www.w3.org/2000/svg"><path d="M714.624 85.333333a96 96 0 0 1 96 96v661.333334a96 96 0 0 1-96 96H266.666667A96 96 0 0 1 170.666667 842.666667V181.333333A96 96 0 0 1 266.666667 85.333333h447.957333z m0 64H266.666667a32 32 0 0 0-32 32v661.333334c0 17.664 14.336 32 32 32h447.957333a32 32 0 0 0 32-32V181.333333a32 32 0 0 0-32-32zM853.333333 640.085333h32a32 32 0 0 1 31.701334 27.648l0.298666 4.352v63.914667a32 32 0 0 1-27.648 31.701333L885.333333 768H853.333333v-127.914667h32H853.333333z m0-170.666666h32a32 32 0 0 1 31.701334 27.648l0.298666 4.352v63.914666a32 32 0 0 1-27.648 31.701334L885.333333 597.333333H853.333333v-127.914666h32H853.333333z m0-170.666667h32a32 32 0 0 1 31.701334 27.648l0.298666 4.352V394.666667a32 32 0 0 1-27.648 31.701333L885.333333 426.666667H853.333333V298.752h32H853.333333zM650.624 213.333333a32 32 0 0 1 32 32v106.581334a32 32 0 0 1-32 32H330.666667a32 32 0 0 1-32-32V245.333333A32 32 0 0 1 330.666667 213.333333h319.957333z m-32 64H362.666667v42.581334h255.957333V277.333333z" /></svg>