<svg class="icon" style="width: 1em;height: 1em;vertical-align: middle;fill: currentColor;overflow: hidden;" viewBox="0 0 1024 1024" version="1.1" xmlns="http://www.w3.org/2000/svg"><path d="M384 85.333333a192 192 0 0 0-192 192v401.066667c0 41.813333 26.709333 77.354667 64 90.538667V277.333333a128 128 0 0 1 128-128h213.418667A96.042667 96.042667 0 0 0 506.88 85.333333H384zM298.666667 288A96 96 0 0 1 394.666667 192H640V117.333333a32 32 0 0 1 64 0v789.333334a32 32 0 0 1-64 0V853.333333H394.666667A96 96 0 0 1 298.666667 757.333333v-469.333333z m341.333333 501.333333V256H394.666667a32 32 0 0 0-32 32v469.333333c0 17.664 14.336 32 32 32H640z" /></svg>