<svg class="icon" style="width: 1em;height: 1em;vertical-align: middle;fill: currentColor;overflow: hidden;" viewBox="0 0 1024 1024" version="1.1" xmlns="http://www.w3.org/2000/svg"><path d="M667.648 85.632L672 85.333333a32 32 0 0 1 31.701333 27.648l0.298667 4.352v789.333334a32 32 0 0 1-63.701333 4.352L640 906.666667v-53.504H394.666667A96 96 0 0 1 298.666667 757.162667V266.666667A96 96 0 0 1 394.666667 170.666667L640 170.624V117.333333a32 32 0 0 1 27.648-31.701333L672 85.333333l-4.352 0.298667zM640 234.666667H394.666667a32 32 0 0 0-32 32v490.496c0 17.706667 14.336 32 32 32H640V234.666667z" /></svg>