<svg class="icon" style="width: 1em;height: 1em;vertical-align: middle;fill: currentColor;overflow: hidden;" viewBox="0 0 1024 1024" version="1.1" xmlns="http://www.w3.org/2000/svg"><path d="M512 277.333333a234.666667 234.666667 0 1 0-469.333333 0 234.666667 234.666667 0 0 0 469.333333 0zM298.666667 298.666667l0.042666 106.837333a21.333333 21.333333 0 0 1-42.666666 0V298.666667H149.162667a21.333333 21.333333 0 0 1 0-42.666667H256V149.333333a21.333333 21.333333 0 0 1 42.666667 0V256h106.794666a21.333333 21.333333 0 0 1 0 42.666667H298.709333zM757.333333 192h-216.021333a276.138667 276.138667 0 0 0-30.250667-64h246.272A138.666667 138.666667 0 0 1 896 266.666667v293.504a96 96 0 0 1-28.117333 67.84l-239.829334 239.872a96 96 0 0 1-67.882666 28.117333H266.666667A138.666667 138.666667 0 0 1 128 757.333333v-246.272c19.754667 12.672 41.258667 22.869333 64 30.250667v216.021333c0 41.216 33.450667 74.666667 74.666667 74.666667H554.666667v-138.666667a138.666667 138.666667 0 0 1 130.816-138.453333L693.333333 554.666667h138.666667V266.666667a74.666667 74.666667 0 0 0-74.666667-74.666667z m29.397334 426.666667H693.333333a74.666667 74.666667 0 0 0-74.410666 68.565333l-0.256 6.101333v93.397334l168.064-168.064z" /></svg>