<svg class="icon" style="width: 1em;height: 1em;vertical-align: middle;fill: currentColor;overflow: hidden;" viewBox="0 0 1024 1024" version="1.1" xmlns="http://www.w3.org/2000/svg"><path d="M277.333333 512a234.666667 234.666667 0 1 1 0 469.333333 234.666667 234.666667 0 0 1 0-469.333333zM714.624 85.333333a96 96 0 0 1 96 96v661.333334a96 96 0 0 1-96 96h-237.226667c18.218667-18.901333 33.749333-40.448 45.994667-63.957334l191.232-0.042666a32 32 0 0 0 32-32V181.333333a32 32 0 0 0-32-32H266.666667a32 32 0 0 0-32 32v291.242667a275.498667 275.498667 0 0 0-64 18.005333V181.333333A96 96 0 0 1 266.666667 85.333333h447.957333zM320.170667 597.418667H256.256a21.333333 21.333333 0 0 0-20.224 14.549333l-42.922667 127.914667A21.333333 21.333333 0 0 0 213.333333 768h34.218667l-33.152 99.84c-7.936 23.936 25.002667 39.424 38.357333 18.005333l106.538667-170.538666A21.333333 21.333333 0 0 0 341.205333 682.666667h-18.986666l18.261333-57.429334a21.333333 21.333333 0 0 0-20.309333-27.818666z m565.162666 42.666666a32 32 0 0 1 31.701334 27.648l0.298666 4.352v63.914667a32 32 0 0 1-27.648 31.701333L885.333333 768H853.333333v-127.914667h32z m0-170.666666a32 32 0 0 1 31.701334 27.648l0.298666 4.352v63.914666a32 32 0 0 1-27.648 31.701334L885.333333 597.333333H853.333333v-127.914666h32z m0-170.666667a32 32 0 0 1 31.701334 27.648l0.298666 4.352V394.666667a32 32 0 0 1-27.648 31.701333L885.333333 426.666667H853.333333V298.752h32zM650.624 213.333333a32 32 0 0 1 32 32v106.581334a32 32 0 0 1-32 32H330.666667a32 32 0 0 1-32-32V245.333333A32 32 0 0 1 330.666667 213.333333h319.957333z m-32 64H362.666667v42.581334h255.957333V277.333333z" /></svg>