<svg class="icon" style="width: 1em;height: 1em;vertical-align: middle;fill: currentColor;overflow: hidden;" viewBox="0 0 1024 1024" version="1.1" xmlns="http://www.w3.org/2000/svg"><path d="M714.624 85.333333a96 96 0 0 1 96 96v661.333334a96 96 0 0 1-96 96H477.44c18.218667-18.944 33.706667-40.490667 45.994667-64h191.146666a32 32 0 0 0 32-32V181.333333a32 32 0 0 0-32-32H266.666667a32 32 0 0 0-32 32v291.242667a275.242667 275.242667 0 0 0-64 18.005333V181.333333A96 96 0 0 1 266.666667 85.333333h447.957333zM853.333333 640.085333h32a32 32 0 0 1 31.701334 27.648l0.298666 4.352v63.914667a32 32 0 0 1-27.648 31.701333L885.333333 768H853.333333v-127.914667z m0-170.666666h32a32 32 0 0 1 31.701334 27.648l0.298666 4.352v63.914666a32 32 0 0 1-27.648 31.701334L885.333333 597.333333H853.333333v-127.914666z m0-170.666667h32a32 32 0 0 1 31.701334 27.648l0.298666 4.352V394.666667a32 32 0 0 1-27.648 31.701333L885.333333 426.666667H853.333333V298.752zM650.624 213.333333a32 32 0 0 1 32 32v106.581334a32 32 0 0 1-32 32H330.666667a32 32 0 0 1-32-32V245.333333A32 32 0 0 1 330.666667 213.333333h319.957333z m-32 64H362.666667v42.581334h255.957333V277.333333zM42.666667 746.666667a234.666667 234.666667 0 1 0 469.333333 0 234.666667 234.666667 0 0 0-469.333333 0zM405.333333 597.333333a21.333333 21.333333 0 0 1 21.333334 21.333334v85.333333a21.333333 21.333333 0 0 1-21.333334 21.333333h-85.333333a21.333333 21.333333 0 0 1 0-42.666666h42.666667a106.496 106.496 0 0 0-85.333334-42.666667c-35.541333 0-67.072 17.365333-86.485333 44.202667a21.333333 21.333333 0 1 1-34.56-25.002667A149.162667 149.162667 0 0 1 277.333333 597.333333c41.813333 0 79.573333 17.194667 106.666667 44.8v-23.466666a21.333333 21.333333 0 0 1 21.333333-21.333334zM170.666667 851.2v23.466667a21.333333 21.333333 0 0 1-42.666667 0v-85.333334a21.333333 21.333333 0 0 1 21.333333-21.333333h85.333334a21.333333 21.333333 0 0 1 0 42.666667h-42.666667c19.456 25.941333 50.474667 42.666667 85.333333 42.666666 32.682667 0 61.952-14.677333 81.536-37.888a21.333333 21.333333 0 0 1 32.597334 27.52A149.034667 149.034667 0 0 1 277.333333 896 148.906667 148.906667 0 0 1 170.666667 851.2z" /></svg>