<svg class="icon" style="width: 1em;height: 1em;vertical-align: middle;fill: currentColor;overflow: hidden;" viewBox="0 0 1024 1024" version="1.1" xmlns="http://www.w3.org/2000/svg"><path d="M245.418667 938.88a96 96 0 0 1-96-96L149.333333 245.333333A96 96 0 0 1 245.333333 149.333333l31.872-0.042666V117.333333a32 32 0 0 1 27.733334-31.701333L309.205333 85.333333a32 32 0 0 1 31.701334 27.648l0.298666 4.352v31.957334H469.333333V117.333333a32 32 0 0 1 27.690667-31.701333L501.333333 85.333333a32 32 0 0 1 31.701334 27.648l0.298666 4.352v31.957334h127.914667V117.333333a32 32 0 0 1 27.648-31.701333L693.333333 85.333333a32 32 0 0 1 31.701334 27.648L725.333333 117.333333v31.957334h31.957334a96 96 0 0 1 96 96v184.661333a159.018667 159.018667 0 0 0-64-23.210667V245.333333a32 32 0 0 0-32-32H244.906667a32 32 0 0 0-31.573334 32l0.042667 597.504c0 17.706667 14.378667 32 32 32h278.101333c8.533333 23.082667 21.546667 44.757333 38.528 64h-316.586666z m543.829333-488.96c25.045333 4.608 47.274667 17.066667 64 34.858667a116.906667 116.906667 0 0 1 32.085333 80.554666 116.906667 116.906667 0 0 1-32 80.554667A117.162667 117.162667 0 0 1 768 682.666667a117.333333 117.333333 0 1 1 21.248-232.746667zM617.984 725.333333H917.333333A64 64 0 0 1 981.333333 789.333333v21.333334c0 84.096-79.36 170.666667-213.333333 170.666666-58.837333 0-107.093333-16.64-142.762667-42.453333a176.213333 176.213333 0 0 1-55.168-64.042667A144.64 144.64 0 0 1 554.666667 810.666667v-21.333334a64 64 0 0 1 63.402666-64z m-308.736-213.333333h307.797333a159.744 159.744 0 0 0-8.746666 64H309.248a32 32 0 0 1-4.352-63.701333L309.248 512z m0 170.666667h170.624a32 32 0 0 1 4.352 63.701333l-4.352 0.298667H309.248a32 32 0 0 1-4.352-63.701334L309.248 682.666667z m0-341.333334h384a32 32 0 0 1 4.309333 63.701334l-4.309333 0.298666h-384a32 32 0 0 1-4.352-63.701333L309.248 341.333333z" /></svg>