<svg class="icon" style="width: 1em;height: 1em;vertical-align: middle;fill: currentColor;overflow: hidden;" viewBox="0 0 1024 1024" version="1.1" xmlns="http://www.w3.org/2000/svg"><path d="M277.333333 512a234.666667 234.666667 0 1 1 0 469.333333 234.666667 234.666667 0 0 1 0-469.333333zM714.624 85.333333a96 96 0 0 1 96 96v661.333334a96 96 0 0 1-96 96h-237.226667c18.218667-18.901333 33.749333-40.448 45.994667-63.957334l191.232-0.042666a32 32 0 0 0 32-32V181.333333a32 32 0 0 0-32-32H266.666667a32 32 0 0 0-32 32v291.242667a275.498667 275.498667 0 0 0-64 18.005333V181.333333A96 96 0 0 1 266.666667 85.333333h447.957333zM277.333333 848.213333a26.666667 26.666667 0 1 0 0 53.290667 26.666667 26.666667 0 0 0 0-53.290667z m0-250.752c-44.714667 0-79.530667 34.858667-79.061333 83.370667a21.333333 21.333333 0 0 0 42.666667-0.426667c-0.256-24.661333 15.36-40.277333 36.394666-40.277333 20.138667 0 36.394667 16.725333 36.394667 40.533333 0 9.557333-3.2 16.64-13.525333 28.885334l-4.266667 4.821333-11.306667 12.373333c-20.650667 23.125333-28.629333 38.058667-28.629333 62.634667a21.333333 21.333333 0 0 0 42.666667 0c0-9.941333 3.242667-17.194667 13.824-29.653333l4.266666-4.906667 11.349334-12.373333c20.394667-22.826667 28.288-37.632 28.288-61.781334 0-47.104-35.072-83.2-79.061334-83.2z m608 42.624a32 32 0 0 1 31.701334 27.648l0.298666 4.352v63.914667a32 32 0 0 1-27.648 31.701333L885.333333 768H853.333333v-127.914667h32z m0-170.666666a32 32 0 0 1 31.701334 27.648l0.298666 4.352v63.914666a32 32 0 0 1-27.648 31.701334L885.333333 597.333333H853.333333v-127.914666h32z m0-170.666667a32 32 0 0 1 31.701334 27.648l0.298666 4.352V394.666667a32 32 0 0 1-27.648 31.701333L885.333333 426.666667H853.333333V298.752h32zM650.624 213.333333a32 32 0 0 1 32 32v106.581334a32 32 0 0 1-32 32H330.666667a32 32 0 0 1-32-32V245.333333A32 32 0 0 1 330.666667 213.333333h319.957333z m-32 64H362.666667v42.581334h255.957333V277.333333z" /></svg>