<svg class="icon" style="width: 1em;height: 1em;vertical-align: middle;fill: currentColor;overflow: hidden;" viewBox="0 0 1024 1024" version="1.1" xmlns="http://www.w3.org/2000/svg"><path d="M468.778667 123.306667a32 32 0 1 0-62.890667-11.946667L362.410667 341.290667 160 341.333333a32 32 0 1 0 0 64l190.293333-0.085333-40.362666 213.333333-192.597334 0.085334a32 32 0 0 0 0 64l180.48-0.085334-41.258666 218.282667a32 32 0 1 0 62.890666 11.861333l43.52-230.186666 233.557334-0.085334-41.301334 218.410667a32 32 0 1 0 62.890667 11.861333l43.562667-230.314666 202.325333-0.085334a32 32 0 1 0 0-64l-190.208 0.085334 40.362667-213.333334 192.512-0.085333a32 32 0 1 0 0-64l-180.437334 0.085333 41.216-217.770666a32 32 0 0 0-62.890666-11.946667l-43.434667 229.76-233.557333 0.085333 41.216-217.898666z m-53.333334 281.941333l233.557334-0.128-40.362667 213.333333-233.557333 0.085334 40.362666-213.333334z" /></svg>