<svg class="icon" style="width: 1em;height: 1em;vertical-align: middle;fill: currentColor;overflow: hidden;" viewBox="0 0 1024 1024" version="1.1" xmlns="http://www.w3.org/2000/svg"><path d="M464.981333 320.64a32 32 0 0 1 25.088 37.632l-9.386666 47.061333h105.386666l11.946667-59.605333a32 32 0 0 1 62.72 12.544l-9.386667 47.061333h41.984a32 32 0 0 1 0 64h-54.826666l-17.066667 85.333334h50.56a32 32 0 0 1 0 64h-63.36l-11.946667 59.648a32 32 0 0 1-62.72-12.586667l9.386667-47.061333h-105.386667l-11.946666 59.648a32 32 0 0 1-62.72-12.586667l9.386666-47.061333H330.666667a32 32 0 0 1 0-64h54.869333l17.066667-85.333334H352a32 32 0 0 1 0-64h63.402667l11.946666-59.605333a32 32 0 0 1 37.632-25.088zM450.773333 554.666667h105.386667l17.066667-85.333334h-105.386667l-17.066667 85.333334zM128 266.666667A138.666667 138.666667 0 0 1 266.666667 128h490.666666A138.666667 138.666667 0 0 1 896 266.666667v490.666666A138.666667 138.666667 0 0 1 757.333333 896H266.666667A138.666667 138.666667 0 0 1 128 757.333333V266.666667zM266.666667 192A74.666667 74.666667 0 0 0 192 266.666667v490.666666c0 41.216 33.450667 74.666667 74.666667 74.666667h490.666666a74.666667 74.666667 0 0 0 74.666667-74.666667V266.666667a74.666667 74.666667 0 0 0-74.666667-74.666667H266.666667z" /></svg>