<svg class="icon" style="width: 1em;height: 1em;vertical-align: middle;fill: currentColor;overflow: hidden;" viewBox="0 0 1024 1024" version="1.1" xmlns="http://www.w3.org/2000/svg"><path d="M373.333333 170.666667a117.333333 117.333333 0 0 1 117.333334 117.333333v448A117.333333 117.333333 0 0 1 373.333333 853.333333h-170.666666A117.333333 117.333333 0 0 1 85.333333 736V288A117.333333 117.333333 0 0 1 202.666667 170.666667h170.666666z m0 64h-170.666666c-29.44 0-53.333333 23.893333-53.333334 53.333333v448c0 29.44 23.893333 53.333333 53.333334 53.333333h170.666666c29.44 0 53.333333-23.893333 53.333334-53.333333V288c0-29.44-23.893333-53.333333-53.333334-53.333333zM821.333333 170.666667A117.333333 117.333333 0 0 1 938.666667 288v448A117.333333 117.333333 0 0 1 821.333333 853.333333h-170.666666a117.333333 117.333333 0 0 1-117.333334-117.333333V288A117.333333 117.333333 0 0 1 650.666667 170.666667h170.666666z m0 64h-170.666666c-29.44 0-53.333333 23.893333-53.333334 53.333333v448c0 29.44 23.893333 53.333333 53.333334 53.333333h170.666666c29.44 0 53.333333-23.893333 53.333334-53.333333V288c0-29.44-23.893333-53.333333-53.333334-53.333333zM256 384v256a32 32 0 0 0 64 0V384A32 32 0 0 0 256 384z m490.666667 32v64h-53.333334a32 32 0 0 0-32 32v128c0 17.664 14.336 32 32 32h85.333334a32 32 0 0 0 0-64H725.333333v-64h53.333334A32 32 0 0 0 810.666667 512V384a32 32 0 0 0-32-32h-85.333334a32 32 0 0 0 0 64h53.333334z" /></svg>