<svg class="icon" style="width: 1em;height: 1em;vertical-align: middle;fill: currentColor;overflow: hidden;" viewBox="0 0 1024 1024" version="1.1" xmlns="http://www.w3.org/2000/svg"><path d="M468.778667 123.306667a32 32 0 1 0-62.890667-11.946667L362.410667 341.290667 160 341.333333a32 32 0 1 0 0 64l190.293333-0.085333-40.362666 213.333333-192.597334 0.085334a32 32 0 0 0 0 64l180.48-0.085334-41.258666 218.282667a32 32 0 1 0 62.890666 11.861333l43.52-230.186666h113.834667c5.333333-22.570667 13.397333-44.032 23.893333-64.042667l-125.610666 0.042667 40.362666-213.333334 233.557334-0.085333-16.810667 88.874667a275.370667 275.370667 0 0 1 69.12-20.949334l12.8-67.968 192.554667-0.085333a32 32 0 1 0 0-64l-180.437334 0.085333 41.216-217.770666a32 32 0 0 0-62.890666-11.946667l-43.434667 229.76-233.557333 0.085333 41.216-217.898666zM981.333333 746.666667a234.666667 234.666667 0 1 1-469.333333 0 234.666667 234.666667 0 0 1 469.333333 0z m-304.896-100.394667a21.333333 21.333333 0 0 0-30.208 30.165333l70.272 70.229334-70.272 70.272a21.333333 21.333333 0 0 0 30.208 30.165333l70.229334-70.272 70.229333 70.272a21.333333 21.333333 0 0 0 30.208-30.165333L776.832 746.666667l70.272-70.229334a21.333333 21.333333 0 0 0-30.208-30.165333L746.666667 716.501333l-70.229334-70.229333z" /></svg>