<svg class="icon" style="width: 1em;height: 1em;vertical-align: middle;fill: currentColor;overflow: hidden;" viewBox="0 0 1024 1024" version="1.1" xmlns="http://www.w3.org/2000/svg"><path d="M287.872 128l448.256 0.085333a160.085333 160.085333 0 0 1 159.786667 151.509334l0.213333 8.533333v191.658667a32 32 0 0 1-63.701333 4.352l-0.298667-4.352V288.085333c0-50.773333-39.466667-92.373333-89.429333-95.786666l-6.570667-0.213334L287.872 192a95.957333 95.957333 0 0 0-95.658667 87.765333l-0.341333 6.784 0.085333 449.536c0.042667 50.773333 39.509333 92.373333 89.472 95.786667l6.570667 0.213333h191.829333a32 32 0 0 1 4.352 63.701334l-4.352 0.298666H288a160.085333 160.085333 0 0 1-159.786667-151.466666l-0.256-8.533334-0.042666-448 0.170666-8.661333a159.957333 159.957333 0 0 1 151.296-151.210667l8.533334-0.213333zM416 384h277.504a32 32 0 0 1 4.352 63.701333l-4.352 0.298667-200.277333-0.042667 308.224 308.053334a32 32 0 0 1 3.114666 41.685333l-3.114666 3.584a32 32 0 0 1-41.685334 3.114667l-3.584-3.114667-308.181333-308.053333v200.149333a32 32 0 0 1-27.648 31.701333l-4.352 0.298667a32 32 0 0 1-31.701333-27.648L384 693.333333V415.317333c0-1.066667 0.085333-2.133333 0.213333-3.242666l0.896-4.608 1.493334-4.096 0.213333-0.512a30.762667 30.762667 0 0 1 6.528-9.514667l1.877333-1.706667 3.456-2.56 2.56-1.493333 4.053334-1.792 2.858666-0.853333 2.645334-0.554667L414.72 384h278.741333H416z" /></svg>