<svg class="icon" style="width: 1em;height: 1em;vertical-align: middle;fill: currentColor;overflow: hidden;" viewBox="0 0 1024 1024" version="1.1" xmlns="http://www.w3.org/2000/svg"><path d="M139.946667 94.72l789.333333 789.333333a32 32 0 0 1-45.226667 45.226667l-53.930666-53.888A137.984 137.984 0 0 1 757.333333 896H266.666667A138.666667 138.666667 0 0 1 128 757.333333V266.666667c0-26.709333 7.552-51.626667 20.608-72.789334L94.72 139.946667a32 32 0 1 1 45.226667-45.226667z m642.474666 732.970667L196.266667 241.578667a74.538667 74.538667 0 0 0-4.309334 25.088v490.666666c0 41.216 33.408 74.666667 74.666667 74.666667h490.666667c8.789333 0 17.237333-1.536 25.088-4.309333z m-224.128-405.162667l43.178667 43.178667a32.085333 32.085333 0 0 0 7.808-5.76l222.72-222.72v200.106666a32 32 0 0 0 64 0v-277.333333a32 32 0 0 0-32-32h-277.333333a32 32 0 0 0 0 64h200.106666l-222.72 222.72a32 32 0 0 0-5.76 7.808z m337.664 337.664l-64-64V586.666667a32 32 0 0 1 64 0v173.525333zM263.808 128.042667L327.765333 192h109.568a32 32 0 0 0 0-64H263.808z" /></svg>