<svg class="icon" style="width: 1em;height: 1em;vertical-align: middle;fill: currentColor;overflow: hidden;" viewBox="0 0 1024 1024" version="1.1" xmlns="http://www.w3.org/2000/svg"><path d="M266.666667 192A74.666667 74.666667 0 0 0 192 266.666667v490.666666c0 41.216 33.408 74.666667 74.666667 74.666667h490.666666a74.666667 74.666667 0 0 0 74.666667-74.666667v-170.666666a32 32 0 0 1 64 0v170.666666A138.666667 138.666667 0 0 1 757.333333 896H266.666667A138.666667 138.666667 0 0 1 128 757.333333V266.666667A138.666667 138.666667 0 0 1 266.666667 128h170.666666a32 32 0 0 1 0 64h-170.666666zM554.666667 160a32 32 0 0 1 32-32h277.333333a32 32 0 0 1 32 32v277.333333a32 32 0 0 1-64 0V237.226667l-222.72 222.72a32 32 0 0 1-45.226667-45.226667l222.72-222.72h-200.106666a32 32 0 0 1-32-32z" /></svg>