<svg class="icon" style="width: 1em;height: 1em;vertical-align: middle;fill: currentColor;overflow: hidden;" viewBox="0 0 1024 1024" version="1.1" xmlns="http://www.w3.org/2000/svg"><path d="M373.333333 576a138.709333 138.709333 0 0 1 134.954667 106.581333L906.666667 682.666667a32 32 0 0 1 4.352 63.701333l-4.352 0.298667h-398.378667a138.709333 138.709333 0 0 1-269.909333 0H117.333333a32 32 0 0 1-4.352-63.701334L117.333333 682.666667h121.045334a138.709333 138.709333 0 0 1 134.954666-106.666667z m0 64a74.666667 74.666667 0 0 0-70.485333 50.005333l-0.896 2.688-1.664 6.314667a74.922667 74.922667 0 0 0 0.853333 34.773333l1.706667 5.546667 1.066667 2.944a74.666667 74.666667 0 0 0 139.946666-2.944l1.706667-5.546667-0.768 2.56a74.666667 74.666667 0 0 0 2.048-34.773333l-1.28-5.845333-0.853333-2.986667-2.005334-5.717333A74.666667 74.666667 0 0 0 373.333333 640z m277.333334-469.333333a138.709333 138.709333 0 0 1 134.954666 106.666666h121.045334a32 32 0 0 1 4.352 63.701334L906.666667 341.333333h-121.045334a138.709333 138.709333 0 0 1-269.909333 0H117.333333a32 32 0 0 1-4.352-63.701333L117.333333 277.333333l398.378667-0.085333A138.709333 138.709333 0 0 1 650.666667 170.666667z m0 64a74.666667 74.666667 0 0 0-70.485334 50.048l-0.896 2.645333-1.621333 6.314667a74.965333 74.965333 0 0 0 0.810667 34.773333l1.706666 5.546667 1.066667 2.944a74.666667 74.666667 0 0 0 139.946667-2.901334l1.706666-5.589333-0.768 2.56a74.666667 74.666667 0 0 0 2.048-34.773333l-1.28-5.845334-0.853333-2.986666-2.005333-5.717334A74.666667 74.666667 0 0 0 650.666667 234.666667z" /></svg>