<svg class="icon" style="width: 1em;height: 1em;vertical-align: middle;fill: currentColor;overflow: hidden;" viewBox="0 0 1024 1024" version="1.1" xmlns="http://www.w3.org/2000/svg"><path d="M501.333333 85.248a160.085333 160.085333 0 0 0-32 317.013333V490.666667H330.666667a96 96 0 0 0-96 96v35.2a160.170667 160.170667 0 0 0 32.085333 317.013333A160.085333 160.085333 0 0 0 298.666667 621.824v-35.2a32 32 0 0 1 32-32h341.333333a32 32 0 0 1 32 32v35.2a160.170667 160.170667 0 0 0 32.085333 317.013333 160.085333 160.085333 0 0 0 31.914667-317.013333v-35.2a96 96 0 0 0-96-96H533.333333V402.218667a160.170667 160.170667 0 0 0-32-317.013334zM405.248 245.333333a96.085333 96.085333 0 1 1 192.170667 0 96.085333 96.085333 0 0 1-192.170667 0zM170.666667 778.752a96.085333 96.085333 0 1 1 192.213333 0 96.085333 96.085333 0 0 1-192.213333 0zM736.085333 682.666667a96.085333 96.085333 0 1 1 0 192.170666 96.085333 96.085333 0 0 1 0-192.170666z" /></svg>