<svg class="icon" style="width: 1em;height: 1em;vertical-align: middle;fill: currentColor;overflow: hidden;" viewBox="0 0 1024 1024" version="1.1" xmlns="http://www.w3.org/2000/svg"><path d="M288 170.666667a32 32 0 0 0 0 64h64a32 32 0 0 0 0-64h-64zM149.333333 373.333333a32 32 0 0 0-64 0v64a32 32 0 0 0 64 0v-64zM166.4 469.333333A81.066667 81.066667 0 0 0 85.333333 550.4v221.866667c0 44.8 36.266667 81.066667 81.066667 81.066666h435.2a81.066667 81.066667 0 0 0 81.066667-81.066666v-221.866667a81.066667 81.066667 0 0 0-81.066667-81.066667h-78.933333a32 32 0 0 0 32-32v-64a32 32 0 0 0-64 0v64c0 17.664 14.336 32 32 32H166.4z m-17.066667 81.066667c0-9.386667 7.68-17.066667 17.066667-17.066667h435.2c9.386667 0 17.066667 7.68 17.066667 17.066667v221.866667a17.066667 17.066667 0 0 1-17.066667 17.066666H166.4a17.066667 17.066667 0 0 1-17.066667-17.066666v-221.866667z m10.666667-315.733333a10.666667 10.666667 0 0 0-10.666667 10.666666v21.333334a32 32 0 0 1-64 0v-21.333334C85.333333 204.117333 118.784 170.666667 160 170.666667h21.333333a32 32 0 0 1 0 64h-21.333333z m330.666667 10.666666a10.666667 10.666667 0 0 0-10.666667-10.666666h-21.333333a32 32 0 0 1 0-64h21.333333c41.216 0 74.666667 33.450667 74.666667 74.666666v21.333334a32 32 0 0 1-64 0v-21.333334zM725.333333 685.909333c0 20.650667 17.877333 37.12 37.888 31.872a234.752 234.752 0 0 0-15.914666-457.813333l12.970666-15.146667a32 32 0 1 0-48.554666-41.642666l-64 74.666666a32 32 0 0 0 0 41.642667l64 74.666667a32 32 0 1 0 48.554666-41.642667l-25.472-29.738667a170.709333 170.709333 0 0 1 15.872 332.074667c-14.208 4.053333-25.344 16.256-25.344 31.061333z" /></svg>