<svg class="icon" style="width: 1em;height: 1em;vertical-align: middle;fill: currentColor;overflow: hidden;" viewBox="0 0 1024 1024" version="1.1" xmlns="http://www.w3.org/2000/svg"><path d="M192 117.333333c0 17.664 14.336 32 32 32h554.666667a32 32 0 0 0 0-64h-554.666667a32 32 0 0 0-32 32z m0 789.333334c0 17.664 14.336 32 32 32h36.992a32 32 0 0 0 0-64H224a32 32 0 0 0-32 32z m147.925333 0c0 17.664 14.293333 32 32 32h73.941334a32 32 0 0 0 0-64H371.925333a32 32 0 0 0-32 32z m184.874667 0c0 17.664 14.336 32 32 32h73.941333a32 32 0 0 0 0-64H556.8a32 32 0 0 0-32 32z m184.874667 0c0 17.664 14.336 32 32 32h36.992a32 32 0 0 0 0-64h-36.992a32 32 0 0 0-32 32z m-185.728-105.386667a32 32 0 0 1-45.226667 0l-213.333333-213.333333a32 32 0 1 1 45.226666-45.226667L469.333333 701.44V245.333333a32 32 0 0 1 64 0v456.106667l158.72-158.72a32 32 0 1 1 45.226667 45.226667l-213.333333 213.333333z" /></svg>