<svg class="icon" style="width: 1em;height: 1em;vertical-align: middle;fill: currentColor;overflow: hidden;" viewBox="0 0 1024 1024" version="1.1" xmlns="http://www.w3.org/2000/svg"><path d="M117.333333 192a32 32 0 0 0-32 32v36.992a32 32 0 0 0 64 0V224a32 32 0 0 0-32-32z m0 147.925333a32 32 0 0 0-32 32v73.941334a32 32 0 0 0 64 0V371.925333a32 32 0 0 0-32-32z m0 184.874667a32 32 0 0 0-32 32v73.941333a32 32 0 0 0 64 0V556.8a32 32 0 0 0-32-32z m0 184.874667a32 32 0 0 0-32 32v36.992a32 32 0 0 0 64 0v-36.992a32 32 0 0 0-32-32zM906.666667 192a32 32 0 0 0-32 32v554.666667a32 32 0 0 0 64 0v-554.666667a32 32 0 0 0-32-32zM222.72 523.946667a32 32 0 0 1 0-45.226667l213.333333-213.333333a32 32 0 1 1 45.226667 45.226666L322.56 469.333333h456.106667a32 32 0 0 1 0 64H322.56l158.72 158.72a32 32 0 1 1-45.226667 45.226667l-213.333333-213.333333z" /></svg>