<svg class="icon" style="width: 1em;height: 1em;vertical-align: middle;fill: currentColor;overflow: hidden;" viewBox="0 0 1024 1024" version="1.1" xmlns="http://www.w3.org/2000/svg"><path d="M192 117.333333A32 32 0 0 1 224 85.333333h36.992a32 32 0 0 1 0 64H224a32 32 0 0 1-32-32z m147.925333 0a32 32 0 0 1 32-32h73.941334a32 32 0 0 1 0 64H371.925333a32 32 0 0 1-32-32z m184.874667 0a32 32 0 0 1 32-32h73.941333a32 32 0 0 1 0 64H556.8a32 32 0 0 1-32-32z m184.874667 0a32 32 0 0 1 32-32h36.992a32 32 0 0 1 0 64h-36.992a32 32 0 0 1-32-32zM192 906.666667a32 32 0 0 1 32-32h554.666667a32 32 0 0 1 0 64h-554.666667a32 32 0 0 1-32-32z m331.946667-683.946667a32 32 0 0 0-45.226667 0l-213.333333 213.333333a32 32 0 1 0 45.226666 45.226667L469.333333 322.56v456.106667a32 32 0 0 0 64 0V322.56l158.72 158.72a32 32 0 1 0 45.226667-45.226667l-213.333333-213.333333z" /></svg>