<svg class="icon" style="width: 1em;height: 1em;vertical-align: middle;fill: currentColor;overflow: hidden;" viewBox="0 0 1024 1024" version="1.1" xmlns="http://www.w3.org/2000/svg"><path d="M778.666667 170.666667A160 160 0 0 1 938.666667 330.666667v362.666666A160 160 0 0 1 778.666667 853.333333H245.333333A160 160 0 0 1 85.333333 693.333333v-362.666666A160 160 0 0 1 245.333333 170.666667h533.333334z m0 64H245.333333A96 96 0 0 0 149.333333 330.666667v362.666666a96 96 0 0 0 96 96h533.333334a96 96 0 0 0 96-96v-362.666666a96 96 0 0 0-96-96z m0 320a32 32 0 0 1 32 32V640a85.333333 85.333333 0 0 1-85.333334 85.333333h-53.333333a32 32 0 0 1 0-64H725.333333a21.333333 21.333333 0 0 0 21.333334-21.333333v-53.333333a32 32 0 0 1 32-32z m-533.333334 0a32 32 0 0 1 32 32V640a21.333333 21.333333 0 0 0 21.333334 21.333333h53.333333a32 32 0 0 1 0 64H298.666667a85.333333 85.333333 0 0 1-85.333334-85.333333v-53.333333a32 32 0 0 1 32-32zM298.666667 298.666667h53.333333a32 32 0 0 1 4.352 63.701333L352 362.666667H298.666667a21.333333 21.333333 0 0 0-20.992 17.493333L277.333333 384v53.333333a32 32 0 0 1-63.701333 4.352L213.333333 437.333333V384a85.333333 85.333333 0 0 1 78.933334-85.12L298.666667 298.666667z m426.666666 0a85.333333 85.333333 0 0 1 85.333334 85.333333v53.333333a32 32 0 0 1-64 0V384a21.333333 21.333333 0 0 0-21.333334-21.333333h-53.333333a32 32 0 0 1 0-64H725.333333z" /></svg>