<svg class="icon" style="width: 1em;height: 1em;vertical-align: middle;fill: currentColor;overflow: hidden;" viewBox="0 0 1024 1024" version="1.1" xmlns="http://www.w3.org/2000/svg"><path d="M245.333333 85.333333a32 32 0 0 0-32 32v490.666667a96 96 0 0 0 96 96H405.333333v128a106.666667 106.666667 0 1 0 213.333334 0v-128h96A96 96 0 0 0 810.666667 608V117.333333a32 32 0 0 0-32-32H245.333333z m32 384V149.333333h256v74.752a32 32 0 1 0 64 0V149.333333h42.666667v117.376a32 32 0 1 0 64 0V149.333333h42.666667V469.333333h-469.333334z m0 138.666667V533.333333h469.333334v74.666667a32 32 0 0 1-32 32h-128a32 32 0 0 0-32 32v160a42.666667 42.666667 0 0 1-85.333334 0v-160a32 32 0 0 0-32-32h-128a32 32 0 0 1-32-32z" /></svg>