<svg class="icon" style="width: 1em;height: 1em;vertical-align: middle;fill: currentColor;overflow: hidden;" viewBox="0 0 1024 1024" version="1.1" xmlns="http://www.w3.org/2000/svg"><path d="M512 96a32 32 0 0 0-64 0V149.333333a95.573333 95.573333 0 0 0-35.882667 22.613334L118.613333 465.493333a96 96 0 0 0 0 135.765334L326.826667 809.386667a96 96 0 0 0 135.765333 0l293.504-293.504a96 96 0 0 0 0-135.765334L547.84 171.946667A95.573333 95.573333 0 0 0 512 149.333333V96z m-348.117333 414.72L448 226.56v61.44a32 32 0 0 0 64 0V226.56l198.784 198.826667a32 32 0 0 1 0 45.226666l-41.386667 41.386667H162.645333l1.237334-1.28z m20.053333 65.28h421.461333L417.28 764.117333a32 32 0 0 1-45.226667 0L183.893333 576zM832.896 580.352a37.290667 37.290667 0 0 0-65.792 0l-85.674667 160.682667C633.6 830.549333 698.538667 938.666667 800 938.666667s166.314667-108.117333 118.613333-197.632l-85.717333-160.682667z m-95.018667 190.762667l62.122667-116.48 62.122667 116.48a70.4 70.4 0 1 1-124.245334 0z" /></svg>