<svg class="icon" style="width: 1em;height: 1em;vertical-align: middle;fill: currentColor;overflow: hidden;" viewBox="0 0 1024 1024" version="1.1" xmlns="http://www.w3.org/2000/svg"><path d="M512 85.333333a106.666667 106.666667 0 0 0-106.666667 106.666667v128H303.445333c-50.090667 0-88.618667 42.368-87.04 90.922667 1.834667 55.125333 1.92 143.189333-9.258666 233.941333-11.306667 91.648-33.578667 181.930667-74.026667 244.437333A32 32 0 0 0 160 938.666667h502.4l-43.178667-43.221334a74.496 74.496 0 0 1-14.72-20.778666H474.88l15.061333-67.712a32 32 0 0 0-62.464-13.909334L409.301333 874.666667H353.28l3.370667-8.96c9.813333-26.581333 21.205333-63.573333 26.965333-103.850667a32 32 0 0 0-63.36-9.045333 455.424 455.424 0 0 1-23.68 90.794666c-4.394667 11.946667-8.448 21.632-11.392 28.288l-1.237333 2.773334H213.76c30.805333-67.157333 47.658667-146.986667 56.917333-221.952 4.096-33.578667 6.784-66.730667 8.405334-98.048H746.666667v50.901333a74.410667 74.410667 0 0 1 64-2.005333V416a96 96 0 0 0-96-96H618.666667v-128A106.666667 106.666667 0 0 0 512 85.333333z m234.666667 405.333334H281.173333c0.426667-31.402667-0.042667-59.306667-0.810666-81.834667A23.765333 23.765333 0 0 1 303.402667 384h133.930666a32 32 0 0 0 32-32V192a42.666667 42.666667 0 1 1 85.333334 0v160c0 17.664 14.336 32 32 32h128a32 32 0 0 1 32 32v74.666667zM649.386667 820.053333a32 32 0 0 1 45.226666 0l54.186667 54.186667v-202.24a32 32 0 0 1 64 0v197.973333l49.92-49.92a32 32 0 1 1 45.226667 45.226667l-106.666667 106.666667a32 32 0 0 1-45.226667 0l-106.666666-106.666667a32 32 0 0 1 0-45.226667z" /></svg>