<svg class="icon" style="width: 1em;height: 1em;vertical-align: middle;fill: currentColor;overflow: hidden;" viewBox="0 0 1024 1024" version="1.1" xmlns="http://www.w3.org/2000/svg"><path d="M796.544 896H483.413333a74.666667 74.666667 0 1 1-99.2-99.584v-156.629333H227.584c-11.136 23.594667-34.218667 40.405333-61.44 42.666666L160 682.666667A74.666667 74.666667 0 0 1 128 540.501333V227.456A74.666667 74.666667 0 1 1 227.498667 128h313.045333a74.666667 74.666667 0 1 1 99.285333 99.626667l-0.042666 156.586666h156.629333c11.136-23.552 34.218667-40.362667 61.44-42.581333L864 341.333333a74.666667 74.666667 0 0 1 32.085333 142.08v313.173334A74.666667 74.666667 0 1 1 796.544 896H483.413333h313.088z m0.085333-447.786667l-156.842666-0.042666v92.16c23.466667 11.136 40.234667 34.176 42.410666 61.354666l0.256 6.101334a74.666667 74.666667 0 0 1-142.122666 32h-92.074667v156.885333c15.445333 7.381333 27.904 19.882667 35.242667 35.328h313.002666c7.381333-15.530667 20.010667-28.16 35.541334-35.498667v-313.002666a74.965333 74.965333 0 0 1-31.957334-28.842667l-3.456-6.442667z m-220.842666-0.042666h-92.416c-7.338667 15.36-19.754667 27.818667-35.072 35.157333l-0.042667 92.458667h92.032c7.381333-15.530667 19.968-28.117333 35.498667-35.498667v-92.117333zM540.501333 192H227.541333a74.965333 74.965333 0 0 1-35.498666 35.498667v313.045333c15.445333 7.338667 27.946667 19.84 35.328 35.242667h156.885333v-92.16a74.666667 74.666667 0 0 1-42.666667-61.482667L341.333333 416a74.666667 74.666667 0 0 1 142.250667-31.829333h92.202667V227.370667a75.008 75.008 0 0 1-31.829334-28.928l-3.413333-6.442667z" /></svg>