<svg class="icon" style="width: 1em;height: 1em;vertical-align: middle;fill: currentColor;overflow: hidden;" viewBox="0 0 1024 1024" version="1.1" xmlns="http://www.w3.org/2000/svg"><path d="M821.333333 170.666667A117.333333 117.333333 0 0 1 938.666667 288v448A117.333333 117.333333 0 0 1 821.333333 853.333333H202.666667A117.333333 117.333333 0 0 1 85.333333 736V288A117.333333 117.333333 0 0 1 202.666667 170.666667h618.666666z m53.333334 117.333333c0-29.44-23.893333-53.333333-53.333334-53.333333h-138.837333v554.666666h138.837333c29.44 0 53.333333-23.893333 53.333334-53.333333V288zM618.496 789.333333v-554.666666H202.666667c-29.44 0-53.333333 23.893333-53.333334 53.333333v448c0 29.44 23.893333 53.333333 53.333334 53.333333h415.829333z" /></svg>