<svg class="icon" style="width: 1em;height: 1em;vertical-align: middle;fill: currentColor;overflow: hidden;" viewBox="0 0 1024 1024" version="1.1" xmlns="http://www.w3.org/2000/svg"><path d="M502.613333 436.053333a32 32 0 0 0-45.226666 45.226667l30.72 30.72-30.72 30.72a32 32 0 1 0 45.226666 45.226667l30.72-30.72 30.72 30.72a32 32 0 0 0 45.226667-45.312L578.602667 512l30.72-30.72a32 32 0 1 0-45.269334-45.226667l-30.72 30.72-30.72-30.72zM222.72 436.053333a32 32 0 0 1 45.226667 0l30.72 30.72 30.72-30.72a32 32 0 1 1 45.226666 45.226667l-30.677333 30.72 30.72 30.634667A32 32 0 1 1 329.386667 587.946667L298.666667 557.226667l-30.72 30.72a32 32 0 0 1-45.226667-45.226667l30.72-30.72-30.72-30.72a32 32 0 0 1 0-45.226667zM704 576a32 32 0 0 0 0 64h74.666667a32 32 0 0 0 0-64H704zM224 213.333333A138.666667 138.666667 0 0 0 85.333333 352v320A138.666667 138.666667 0 0 0 224 810.666667h576A138.666667 138.666667 0 0 0 938.666667 672v-320A138.666667 138.666667 0 0 0 800 213.333333H224zM149.333333 352c0-41.258667 33.408-74.666667 74.666667-74.666667h576c41.258667 0 74.666667 33.408 74.666667 74.666667v320a74.666667 74.666667 0 0 1-74.666667 74.666667H224a74.666667 74.666667 0 0 1-74.666667-74.666667v-320z" /></svg>