<svg class="icon" style="width: 1em;height: 1em;vertical-align: middle;fill: currentColor;overflow: hidden;" viewBox="0 0 1024 1024" version="1.1" xmlns="http://www.w3.org/2000/svg"><path d="M512 544a32 32 0 1 0 0-64 32 32 0 0 0 0 64zM437.333333 512a32 32 0 1 1-64 0 32 32 0 0 1 64 0z m181.333334 32a32 32 0 1 0 0-64 32 32 0 0 0 0 64z m-74.666667 74.666667a32 32 0 1 1-64 0 32 32 0 0 1 64 0zM512 437.333333a32 32 0 1 0 0-64 32 32 0 0 0 0 64z m-373.845333 343.381334a138.666667 138.666667 0 0 1 0-196.096L584.618667 138.112a138.666667 138.666667 0 0 1 196.096 0l105.173333 105.173333a138.666667 138.666667 0 0 1 0 196.096L439.381333 885.888a138.666667 138.666667 0 0 1-196.096 0l-105.130666-105.173333z m45.226666-150.826667a74.666667 74.666667 0 0 0 0 105.557333l105.173334 105.173334a74.666667 74.666667 0 0 0 105.6 0L466.730667 768 256 557.226667l-72.533333 72.661333zM722.773333 512L512 301.226667 301.312 512 512 722.773333 722.773333 512zM768 466.773333l72.661333-72.661333a74.666667 74.666667 0 0 0 0-105.557333l-105.173333-105.173334a74.666667 74.666667 0 0 0-105.557333 0L557.226667 256 768 466.773333z m-331.392-240.938666l-42.453333-42.453334a74.666667 74.666667 0 0 0-105.6 0L183.381333 288.554667a74.666667 74.666667 0 0 0 0 105.6l42.453334 42.410666-45.226667 45.269334-42.496-42.453334a138.666667 138.666667 0 0 1 0-196.096l105.173333-105.130666a138.666667 138.666667 0 0 1 196.096 0l42.453334 42.410666-45.226667 45.269334z m105.6 617.6l42.453333 42.453333a138.666667 138.666667 0 0 0 196.096 0l105.130667-105.173333a138.666667 138.666667 0 0 0 0-196.096l-42.410667-42.453334-45.269333 45.226667 42.453333 42.496a74.666667 74.666667 0 0 1 0 105.6l-105.173333 105.130667a74.666667 74.666667 0 0 1-105.6 0l-42.410667-42.453334-45.269333 45.226667z" /></svg>