<svg class="icon" style="width: 1em;height: 1em;vertical-align: middle;fill: currentColor;overflow: hidden;" viewBox="0 0 1024 1024" version="1.1" xmlns="http://www.w3.org/2000/svg"><path d="M757.333333 85.333333A96 96 0 0 1 853.333333 181.333333v661.546667a96 96 0 0 1-96 96H266.666667A96 96 0 0 1 170.666667 842.88V181.333333a96 96 0 0 1 89.429333-95.786666L266.666667 85.333333h490.666666z m32 597.333334h-554.666666v160.213333c0 17.664 14.336 32 32 32h490.666666a32 32 0 0 0 32-32V682.666667zM330.709333 746.666667h362.624a32 32 0 0 1 4.352 63.701333L693.333333 810.666667H330.709333a32 32 0 0 1-4.309333-63.701334l4.309333-0.298666h362.624-362.624z m426.624-597.333334H266.666667l-4.352 0.298667a32 32 0 0 0-27.648 31.701333V618.666667H341.333333v-96.213334c0-27.605333 20.992-50.304 47.872-53.034666l5.461334-0.298667h234.666666c27.605333 0 50.346667 20.992 53.034667 47.914667l0.298667 5.418666V618.666667h106.666666V181.333333a32 32 0 0 0-32-32z m-138.666666 383.786667h-213.333334V618.666667h213.333334v-85.546667z m-106.666667-320a106.666667 106.666667 0 1 1 0 213.333333 106.666667 106.666667 0 0 1 0-213.333333z m0 64a42.666667 42.666667 0 1 0 0 85.333333 42.666667 42.666667 0 0 0 0-85.333333z" /></svg>