<svg class="icon" style="width: 1em;height: 1em;vertical-align: middle;fill: currentColor;overflow: hidden;" viewBox="0 0 1024 1024" version="1.1" xmlns="http://www.w3.org/2000/svg"><path d="M245.162667 128a74.666667 74.666667 0 0 0-74.666667 74.666667v618.666666c0 41.216 33.450667 74.666667 74.666667 74.666667h149.333333a74.666667 74.666667 0 0 0 74.666667-74.666667V202.666667A74.666667 74.666667 0 0 0 394.496 128h-149.333333z m-10.666667 74.666667a10.666667 10.666667 0 0 1 10.666667-10.666667h149.333333a10.666667 10.666667 0 0 1 10.666667 10.666667v618.666666a10.666667 10.666667 0 0 1-10.666667 10.666667h-149.333333a10.666667 10.666667 0 0 1-10.666667-10.666667V202.666667zM629.162667 128a74.666667 74.666667 0 0 0-74.666667 74.666667v618.666666c0 41.216 33.450667 74.666667 74.666667 74.666667h149.333333a74.666667 74.666667 0 0 0 74.666667-74.666667V202.666667A74.666667 74.666667 0 0 0 778.496 128h-149.333333z m-10.666667 74.666667a10.666667 10.666667 0 0 1 10.666667-10.666667h149.333333a10.666667 10.666667 0 0 1 10.666667 10.666667v618.666666a10.666667 10.666667 0 0 1-10.666667 10.666667h-149.333333a10.666667 10.666667 0 0 1-10.666667-10.666667V202.666667z" /></svg>