<svg class="icon" style="width: 1em;height: 1em;vertical-align: middle;fill: currentColor;overflow: hidden;" viewBox="0 0 1024 1024" version="1.1" xmlns="http://www.w3.org/2000/svg"><path d="M448 352a32 32 0 0 0-64 0v320a32 32 0 0 0 64 0v-320z m192 0a32 32 0 0 0-64 0v320a32 32 0 0 0 64 0v-320zM512 85.333333C276.352 85.333333 85.333333 276.352 85.333333 512s191.018667 426.666667 426.666667 426.666667 426.666667-191.018667 426.666667-426.666667S747.648 85.333333 512 85.333333zM149.333333 512a362.666667 362.666667 0 1 1 725.333334 0 362.666667 362.666667 0 0 1-725.333334 0z" /></svg>