<svg class="icon" style="width: 1em;height: 1em;vertical-align: middle;fill: currentColor;overflow: hidden;" viewBox="0 0 1024 1024" version="1.1" xmlns="http://www.w3.org/2000/svg"><path d="M672 618.666667a32 32 0 0 0 0 64h106.666667a32 32 0 0 0 0-64h-106.666667zM202.666667 213.333333A117.333333 117.333333 0 0 0 85.333333 330.666667v362.666666A117.333333 117.333333 0 0 0 202.666667 810.666667h618.666666A117.333333 117.333333 0 0 0 938.666667 693.333333v-362.666666A117.333333 117.333333 0 0 0 821.333333 213.333333H202.666667zM149.333333 693.333333V469.333333h725.333334v224c0 29.44-23.893333 53.333333-53.333334 53.333334H202.666667c-29.44 0-53.333333-23.893333-53.333334-53.333334z m0-288V330.666667c0-29.44 23.893333-53.333333 53.333334-53.333334h618.666666c29.44 0 53.333333 23.893333 53.333334 53.333334V405.333333h-725.333334z" /></svg>