<svg class="icon" style="width: 1em;height: 1em;vertical-align: middle;fill: currentColor;overflow: hidden;" viewBox="0 0 1024 1024" version="1.1" xmlns="http://www.w3.org/2000/svg"><path d="M629.504 426.666667a74.666667 74.666667 0 0 1 71.594667 53.333333h-29.098667c-17.493333 0-34.048 3.84-48.938667 10.666667H394.752a10.666667 10.666667 0 0 0-10.666667 10.666666v202.624c0 55.722667 35.584 103.125333 85.248 120.746667v66.517333a192.128 192.128 0 0 1-149.248-187.264V501.333333c0-41.216 33.408-74.666667 74.666667-74.666666h234.752z m191.829333 53.333333A117.333333 117.333333 0 0 1 938.666667 596.821333V501.333333A74.666667 74.666667 0 0 0 864 426.666667h-144c12.458667 15.061333 21.205333 33.28 24.917333 53.333333h76.416zM160 426.666667h144.256a116.821333 116.821333 0 0 0-26.368 64H160a10.666667 10.666667 0 0 0-10.666667 10.666666v138.624a106.709333 106.709333 0 0 0 131.498667 103.808c3.626667 21.504 10.24 42.026667 19.328 61.098667A170.709333 170.709333 0 0 1 85.333333 639.957333V501.333333c0-41.216 33.450667-74.666667 74.666667-74.666666zM512 128a128 128 0 1 1 0 256 128 128 0 0 1 0-256z m0 64a64 64 0 1 0 0 128 64 64 0 0 0 0-128z m277.333333-21.333333a106.666667 106.666667 0 1 1 0 213.333333 106.666667 106.666667 0 0 1 0-213.333333z m0 64a42.666667 42.666667 0 1 0 0 85.333333 42.666667 42.666667 0 0 0 0-85.333333zM234.666667 170.666667a106.666667 106.666667 0 1 1 0 213.333333 106.666667 106.666667 0 0 1 0-213.333333z m0 64a42.666667 42.666667 0 1 0 0 85.333333 42.666667 42.666667 0 0 0 0-85.333333zM597.333333 640h-21.333333a64 64 0 0 0-64 64V768h106.666667v-10.666667a32 32 0 0 1 64 0V768h128v-10.666667a32 32 0 0 1 64 0V768H981.333333v-64a64 64 0 0 0-64-64H896v-42.666667a74.666667 74.666667 0 0 0-74.666667-74.666666h-149.333333A74.666667 74.666667 0 0 0 597.333333 597.333333v42.666667z m64-42.666667a10.666667 10.666667 0 0 1 10.666667-10.666666h149.333333a10.666667 10.666667 0 0 1 10.666667 10.666666v42.666667h-170.666667v-42.666667zM512 917.333333v-85.333333h106.666667v32a32 32 0 0 0 64 0v-32h128v32a32 32 0 0 0 64 0v-32H981.333333v85.333333a64 64 0 0 1-64 64h-341.333333a64 64 0 0 1-64-64z" /></svg>