<svg class="icon" style="width: 1em;height: 1em;vertical-align: middle;fill: currentColor;overflow: hidden;" viewBox="0 0 1024 1024" version="1.1" xmlns="http://www.w3.org/2000/svg"><path d="M554.666667 533.376a85.333333 85.333333 0 0 1 85.12 78.933333l0.213333 6.4V640h-64v-21.290667a21.376 21.376 0 0 0-17.493333-20.992l-3.84-0.341333L170.666667 597.333333l-4.266667 0.426667a21.76 21.76 0 0 0-10.837333 5.802667 21.589333 21.589333 0 0 0-5.802667 10.794666l-0.426667 4.309334v85.333333c0 43.050667 19.2 73.472 60.458667 95.658667 35.242667 18.986667 85.461333 30.464 139.349333 32.128l13.525334 0.213333 13.525333-0.213333A384.085333 384.085333 0 0 0 469.333333 817.962667v66.133333A471.893333 471.893333 0 0 1 362.666667 896c-116.138667 0-270.293333-40.789333-277.12-182.186667L85.333333 704v-85.333333c0-44.970667 34.816-81.834667 78.933334-85.12L170.666667 533.333333l384 0.042667zM917.333333 640c7.296 0 14.421333 0.725333 21.333334 2.133333v-23.424l-0.256-6.4A85.376 85.376 0 0 0 853.333333 533.418667h-203.946666l5.717333 6.826666c12.842667 16.341333 21.802667 35.797333 25.386667 57.173334H853.333333l3.84 0.341333c9.898667 1.792 17.493333 10.538667 17.493334 20.992V640h42.666666zM362.666667 85.333333a192 192 0 1 1 0 384 192 192 0 0 1 0-384z m0 64c-70.570667 0-128 57.429333-128 128s57.429333 128 128 128 128-57.429333 128-128-57.429333-128-128-128z m384 21.333334a149.333333 149.333333 0 1 1 0 298.666666 149.333333 149.333333 0 0 1 0-298.666666z m0 64c-47.061333 0-85.333333 38.272-85.333334 85.333333s38.272 85.333333 85.333334 85.333333 85.333333-38.272 85.333333-85.333333-38.272-85.333333-85.333333-85.333333z m-234.666667 512a64 64 0 0 1 64-64h341.333333a64 64 0 0 1 64 64v170.666666a64 64 0 0 1-64 64h-341.333333a64 64 0 0 1-64-64v-170.666666z m426.666667 21.333333a42.666667 42.666667 0 0 1-42.666667-42.666667h-42.666667a85.333333 85.333333 0 0 0 85.333334 85.333334v-42.666667z m0 85.333333a85.333333 85.333333 0 0 0-85.333334 85.333334h42.666667a42.666667 42.666667 0 0 1 42.666667-42.666667v-42.666667z m-341.333334-128a42.666667 42.666667 0 0 1-42.666666 42.666667v42.666667a85.333333 85.333333 0 0 0 85.333333-85.333334h-42.666667z m42.666667 213.333334a85.333333 85.333333 0 0 0-85.333333-85.333334v42.666667a42.666667 42.666667 0 0 1 42.666666 42.666667h42.666667z m181.333333-106.666667a74.666667 74.666667 0 1 0-149.333333 0 74.666667 74.666667 0 0 0 149.333333 0z" /></svg>