<svg class="icon" style="width: 1em;height: 1em;vertical-align: middle;fill: currentColor;overflow: hidden;" viewBox="0 0 1024 1024" version="1.1" xmlns="http://www.w3.org/2000/svg"><path d="M746.666667 512a234.666667 234.666667 0 1 1 0 469.333333 234.666667 234.666667 0 0 1 0-469.333333zM170.666667 554.624l375.893333 0.042667c-18.218667 18.944-33.706667 40.490667-45.994667 64L170.666667 618.624l-4.266667 0.426667a21.76 21.76 0 0 0-10.837333 5.802666 21.589333 21.589333 0 0 0-5.802667 10.794667l-0.426667 4.309333V704c0 43.050667 19.2 73.472 60.458667 95.658667 35.242667 18.986667 85.461333 30.464 139.349333 32.128l13.525334 0.213333 13.525333-0.213333c36.864-1.109333 71.978667-6.826667 101.76-16.426667 5.290667 20.992 13.056 41.088 22.912 59.861333-44.8 14.933333-94.208 20.778667-138.197333 20.778667-116.138667 0-270.293333-40.789333-277.12-182.186667L85.333333 704v-64.042667a85.333333 85.333333 0 0 1 85.333334-85.333333z m576 42.794667l-3.84 0.341333a21.333333 21.333333 0 0 0-17.152 17.152l-0.341334 3.84V725.333333h-106.666666l-3.84 0.341334a21.333333 21.333333 0 0 0-17.152 17.152L597.333333 746.666667l0.341334 3.84a21.333333 21.333333 0 0 0 17.152 17.152l3.84 0.341333H725.333333v106.666667l0.341334 3.84a21.333333 21.333333 0 0 0 17.152 17.152l3.84 0.341333 3.84-0.341333a21.333333 21.333333 0 0 0 17.152-17.152L768 874.666667V768h106.666667l3.84-0.341333a21.333333 21.333333 0 0 0 17.152-17.152L896 746.666667l-0.341333-3.84a21.333333 21.333333 0 0 0-17.152-17.152L874.666667 725.333333H768v-106.581333l-0.341333-3.84a21.333333 21.333333 0 0 0-17.152-17.152l-3.84-0.341333zM362.666667 85.333333a192 192 0 1 1 0 384 192 192 0 0 1 0-384z m384 85.333334a149.333333 149.333333 0 1 1 0 298.666666 149.333333 149.333333 0 0 1 0-298.666666z m-384-21.333334c-70.570667 0-128 57.429333-128 128s57.429333 128 128 128 128-57.429333 128-128-57.429333-128-128-128z m384 85.333334c-47.061333 0-85.333333 38.272-85.333334 85.333333s38.272 85.333333 85.333334 85.333333 85.333333-38.272 85.333333-85.333333-38.272-85.333333-85.333333-85.333333z" /></svg>