<svg class="icon" style="width: 1em;height: 1em;vertical-align: middle;fill: currentColor;overflow: hidden;" viewBox="0 0 1024 1024" version="1.1" xmlns="http://www.w3.org/2000/svg"><path d="M629.504 426.666667c41.216 0 74.666667 33.450667 74.666667 74.666666V640H704v10.666667a32 32 0 0 1-64 0V554.666667h0.170667v-53.333334a10.666667 10.666667 0 0 0-10.666667-10.666666H394.752a10.666667 10.666667 0 0 0-10.666667 10.666666V640H384v10.666667a32 32 0 0 1-64 0V554.666667h0.085333v-53.333334c0-41.216 33.408-74.666667 74.666667-74.666666h234.752zM874.666667 501.333333v149.333334a32 32 0 0 0 64 0v-149.333334A74.666667 74.666667 0 0 0 864 426.666667h-144c14.634667 17.706667 24.192 39.765333 26.368 64h117.632a10.666667 10.666667 0 0 1 10.666667 10.666666zM85.333333 650.666667a32 32 0 0 0 64 0v-149.333334a10.666667 10.666667 0 0 1 10.666667-10.666666h117.888a116.821333 116.821333 0 0 1 26.368-64H160A74.666667 74.666667 0 0 0 85.333333 501.333333v149.333334zM512 128a128 128 0 1 1 0 256 128 128 0 0 1 0-256z m0 64a64 64 0 1 0 0 128 64 64 0 0 0 0-128zM789.333333 170.666667a106.666667 106.666667 0 1 1 0 213.333333 106.666667 106.666667 0 0 1 0-213.333333z m0 64a42.666667 42.666667 0 1 0 0 85.333333 42.666667 42.666667 0 0 0 0-85.333333zM234.666667 170.666667a106.666667 106.666667 0 1 1 0 213.333333 106.666667 106.666667 0 0 1 0-213.333333z m0 64a42.666667 42.666667 0 1 0 0 85.333333 42.666667 42.666667 0 0 0 0-85.333333zM117.333333 725.333333a32 32 0 0 0-32 32v21.333334A160 160 0 0 0 245.333333 938.666667h533.333334A160 160 0 0 0 938.666667 778.666667v-21.333334a32 32 0 0 0-32-32H117.333333z m128 149.333334a96 96 0 0 1-95.402666-85.333334h724.138666a96 96 0 0 1-95.402666 85.333334H245.333333z" /></svg>