<svg class="icon" style="width: 1em;height: 1em;vertical-align: middle;fill: currentColor;overflow: hidden;" viewBox="0 0 1024 1024" version="1.1" xmlns="http://www.w3.org/2000/svg"><path d="M508.16 597.248l334.634667 0.085333a96 96 0 0 1 96 96v38.613334A160 160 0 0 1 883.029333 853.333333C816.213333 910.677333 720.64 938.666667 597.333333 938.666667h-7.637333c9.984-20.053333 10.325333-43.733333 1.109333-64.085334l6.528 0.128c109.226667 0 190.208-23.765333 244.010667-69.973333a96 96 0 0 0 33.450667-72.789333v-38.613334a32 32 0 0 0-32-32h-331.776a237.44 237.44 0 0 0-2.901334-64.085333zM277.333333 448a192 192 0 0 1 147.626667 314.709333l120.448 120.064a32 32 0 0 1-41.6 48.426667l-3.626667-3.114667-123.861333-123.562666A192 192 0 1 1 277.333333 448z m0 64a128 128 0 1 0 0 256 128 128 0 0 0 0-256zM597.333333 85.504a213.333333 213.333333 0 1 1 0 426.666667 213.333333 213.333333 0 0 1 0-426.666667z m0 64a149.333333 149.333333 0 1 0 0 298.666667 149.333333 149.333333 0 0 0 0-298.666667z" /></svg>