<svg class="icon" style="width: 1em;height: 1em;vertical-align: middle;fill: currentColor;overflow: hidden;" viewBox="0 0 1024 1024" version="1.1" xmlns="http://www.w3.org/2000/svg"><path d="M746.581333 511.829333a234.666667 234.666667 0 1 1 0 469.333334 234.666667 234.666667 0 0 1 0-469.333334z m0 85.290667l-3.84 0.341333a21.333333 21.333333 0 0 0-17.152 17.152l-0.341333 3.84v106.666667h-106.794667l-3.84 0.384a21.333333 21.333333 0 0 0-17.152 17.152l-0.341333 3.84 0.341333 3.84a21.333333 21.333333 0 0 0 17.152 17.152l3.84 0.341333 106.794667-0.042666v106.837333l0.384 3.84a21.333333 21.333333 0 0 0 17.152 17.152l3.84 0.341333 3.84-0.341333a21.333333 21.333333 0 0 0 17.152-17.152l0.341333-3.84v-106.837333h106.794667l3.84-0.298667a21.333333 21.333333 0 0 0 17.152-17.152l0.341333-3.84-0.341333-3.84a21.333333 21.333333 0 0 0-17.152-17.152l-3.84-0.341333-106.88-0.042667v-106.666667l-0.341333-3.84a21.333333 21.333333 0 0 0-17.152-17.152l-3.84-0.341333z m-233.770666 0a275.968 275.968 0 0 0-30.208 64.042667H394.581333a10.666667 10.666667 0 0 0-10.666666 10.666666v42.666667c0 41.685333 26.112 65.877333 88.277333 72.917333 3.413333 22.826667 9.6 44.8 18.176 65.493334-108.928-5.845333-170.453333-52.096-170.453333-138.410667v-42.666667c0-41.258667 33.408-74.666667 74.666666-74.666666h118.272z m-166.186667-213.333333a170.965333 170.965333 0 0 0-4.096 64h-182.613333a10.666667 10.666667 0 0 0-10.666667 10.666666v42.666667c0 50.218667 37.802667 75.093333 130.816 75.093333 19.712 0 36.821333-1.109333 51.541333-3.328a117.034667 117.034667 0 0 0-50.048 67.285334h-1.493333c-124.117333 0-194.816-46.506667-194.816-139.008v-42.666667A74.666667 74.666667 0 0 1 153.770667 384l6.144-0.213333h186.709333z m165.290667-85.333334a128 128 0 1 1 0 256 128 128 0 0 1 0-256z m352 85.333334c41.216 0 74.666667 33.450667 74.666666 74.666666l-0.085333 41.088c0.853333 15.701333-0.426667 30.165333-3.712 43.264a277.930667 277.930667 0 0 0-60.16-42.410666l-0.042667-41.898667a10.666667 10.666667 0 0 0-10.666666-10.666667l-182.656-0.042666a171.946667 171.946667 0 0 0-4.053334-64h186.709334z m-352-21.333334a64 64 0 1 0 0 128 64 64 0 0 0 0-128z m-234.666667-277.333333a128 128 0 1 1 0 256 128 128 0 0 1 0-256z m469.333333 0a128 128 0 1 1 0 256 128 128 0 0 1 0-256z m-469.333333 64a64 64 0 1 0 0 128 64 64 0 0 0 0-128z m469.333333 0a64 64 0 1 0 0 128 64 64 0 0 0 0-128z" /></svg>