<svg class="icon" style="width: 1em;height: 1em;vertical-align: middle;fill: currentColor;overflow: hidden;" viewBox="0 0 1024 1024" version="1.1" xmlns="http://www.w3.org/2000/svg"><path d="M554.666667 597.333333c10.624 0 20.778667 1.92 30.165333 5.504a106.965333 106.965333 0 0 0-63.957333 58.453334H170.666667l-4.266667 0.426666a21.76 21.76 0 0 0-10.837333 5.802667 21.589333 21.589333 0 0 0-5.802667 10.794667l-0.426667 4.309333V746.666667c0 43.050667 19.2 73.472 60.458667 95.658666 35.242667 18.986667 85.461333 30.464 139.349333 32.128l13.525334 0.213334 13.525333-0.213334c52.138667-1.578667 100.736-12.373333 135.808-30.293333v69.76c-47.658667 17.92-101.674667 24.746667-149.333333 24.746667-116.138667 0-270.293333-40.789333-277.12-182.186667L85.333333 746.666667v-64.042667c0-44.970667 34.816-81.834667 78.933334-85.12L170.666667 597.333333 554.666667 597.333333z m12.8 68.266667c11.648-15.530667 30.293333-25.6 51.2-25.6h21.333333v-42.666667a106.666667 106.666667 0 1 1 213.333333 0v42.666667h23.125334A64 64 0 0 1 938.666667 704v213.333333a64 64 0 0 1-64 64h-256a64 64 0 0 1-64-64v-213.333333c0-14.421333 4.736-27.733333 12.8-38.4z m141.952 165.888A42.837333 42.837333 0 0 0 746.666667 853.333333a42.666667 42.666667 0 1 0-37.248-21.845333zM704 597.333333v42.666667h85.333333v-42.666667a42.666667 42.666667 0 1 0-85.333333 0zM896 362.666667c0 47.616-22.272 90.026667-56.96 117.333333a148.778667 148.778667 0 0 0-92.373333-32c47.061333 0 85.333333-38.272 85.333333-85.333333s-38.272-85.333333-85.333333-85.333334-85.333333 38.272-85.333334 85.333334 38.272 85.333333 85.333334 85.333333c-34.858667 0-66.986667 11.946667-92.373334 32A149.333333 149.333333 0 1 1 896 362.666667zM362.666667 128a192 192 0 1 1 0 384 192 192 0 0 1 0-384z m0 64c-70.570667 0-128 57.429333-128 128s57.429333 128 128 128 128-57.429333 128-128-57.429333-128-128-128z" /></svg>