<svg class="icon" style="width: 1em;height: 1em;vertical-align: middle;fill: currentColor;overflow: hidden;" viewBox="0 0 1024 1024" version="1.1" xmlns="http://www.w3.org/2000/svg"><path d="M546.56 554.666667L170.666667 554.666667a85.333333 85.333333 0 0 0-85.333334 85.333333V704l0.213334 9.813333C92.373333 855.210667 246.528 896 362.666667 896c43.946667 0 93.397333-5.845333 138.197333-20.778667-9.813333-18.773333-17.621333-38.826667-22.912-59.861333-29.781333 9.557333-64.853333 15.317333-101.76 16.426667L362.666667 832l-13.525334-0.213333c-53.888-1.664-104.106667-13.141333-139.349333-32.128C168.533333 777.472 149.333333 747.050667 149.333333 704v-64.042667l0.426667-4.309333a21.589333 21.589333 0 0 1 5.802667-10.794667 21.76 21.76 0 0 1 10.794666-5.802666l4.309334-0.426667h329.898666c12.245333-23.466667 27.776-45.013333 45.952-63.957333zM554.666667 277.333333a192 192 0 1 0-384 0 192 192 0 0 0 384 0z m-320 0c0-70.570667 57.429333-128 128-128s128 57.429333 128 128-57.429333 128-128 128-128-57.429333-128-128z m661.333333 42.666667a149.333333 149.333333 0 1 0-298.666667 0 149.333333 149.333333 0 0 0 298.666667 0z m-234.666667 0c0-47.061333 38.272-85.333333 85.333334-85.333333s85.333333 38.272 85.333333 85.333333-38.272 85.333333-85.333333 85.333333-85.333333-38.272-85.333334-85.333333z m24.021334 230.442667l-21.333334-22.357334c-23.168 9.386667-44.501333 22.613333-63.232 38.912l8.448 29.269334a85.333333 85.333333 0 0 1-61.482666 106.538666l-24.917334 6.144a244.437333 244.437333 0 0 0 0.256 77.098667l23.04 5.546667a85.333333 85.333333 0 0 1 61.866667 107.093333l-7.978667 26.965333c18.773333 16.469333 40.106667 29.824 63.317334 39.296l21.077333-22.101333a85.333333 85.333333 0 0 1 123.690667 0l21.248 22.4a225.28 225.28 0 0 0 63.274666-38.954667l-8.448-29.269333a85.333333 85.333333 0 0 1 61.525334-106.496l24.874666-6.144a244.437333 244.437333 0 0 0-0.256-77.141333l-23.04-5.546667a85.333333 85.333333 0 0 1-61.866666-107.093333l7.978666-26.88a225.28 225.28 0 0 0-63.317333-39.381334l-21.034667 22.144a85.333333 85.333333 0 0 1-123.733333 0zM684.8 746.666667c0-35.370667 27.733333-64 61.866667-64 34.133333 0 61.866667 28.629333 61.866666 64 0 35.328-27.733333 64-61.866666 64-34.133333 0-61.866667-28.672-61.866667-64z" /></svg>