<svg class="icon" style="width: 1em;height: 1em;vertical-align: middle;fill: currentColor;overflow: hidden;" viewBox="0 0 1024 1024" version="1.1" xmlns="http://www.w3.org/2000/svg"><path d="M546.56 554.666667L170.666667 554.666667a85.333333 85.333333 0 0 0-85.333334 85.333333V704l0.213334 9.813333C92.373333 855.210667 246.528 896 362.666667 896c43.946667 0 93.397333-5.845333 138.197333-20.778667-9.813333-18.773333-17.621333-38.826667-22.912-59.861333-29.781333 9.557333-64.853333 15.317333-101.76 16.426667L362.666667 832l-13.525334-0.213333c-53.888-1.664-104.106667-13.141333-139.349333-32.128C168.533333 777.472 149.333333 747.050667 149.333333 704v-64.042667l0.426667-4.309333a21.589333 21.589333 0 0 1 5.802667-10.794667 21.76 21.76 0 0 1 10.794666-5.802666l4.309334-0.426667h329.898666c12.245333-23.466667 27.776-45.013333 45.952-63.957333zM554.666667 277.333333a192 192 0 1 0-384 0 192 192 0 0 0 384 0z m-320 0c0-70.570667 57.429333-128 128-128s128 57.429333 128 128-57.429333 128-128 128-128-57.429333-128-128zM896 320a149.333333 149.333333 0 1 0-298.666667 0 149.333333 149.333333 0 0 0 298.666667 0z m-234.666667 0c0-47.061333 38.272-85.333333 85.333334-85.333333s85.333333 38.272 85.333333 85.333333-38.272 85.333333-85.333333 85.333333-85.333333-38.272-85.333334-85.333333zM981.333333 746.666667a234.666667 234.666667 0 1 1-469.333333 0 234.666667 234.666667 0 0 1 469.333333 0zM746.666667 597.333333a21.333333 21.333333 0 0 0-21.333334 21.333334v170.666666a21.333333 21.333333 0 0 0 42.666667 0v-170.666666a21.333333 21.333333 0 0 0-21.333333-21.333334z m0 304a26.666667 26.666667 0 1 0 0-53.333333 26.666667 26.666667 0 0 0 0 53.333333z" /></svg>