<svg class="icon" style="width: 1em;height: 1em;vertical-align: middle;fill: currentColor;overflow: hidden;" viewBox="0 0 1024 1024" version="1.1" xmlns="http://www.w3.org/2000/svg"><path d="M746.666667 512a234.666667 234.666667 0 1 1 0 469.333333 234.666667 234.666667 0 0 1 0-469.333333z m-138.496-85.333333c35.626667 0 66.688 19.370667 83.242666 48.213333a274.773333 274.773333 0 0 0-64.768 21.717333 31.402667 31.402667 0 0 0-18.474666-5.930666H416.085333a32 32 0 0 0-32 32v181.290666c0 60.16 41.557333 110.677333 97.536 124.373334a273.92 273.92 0 0 0 31.36 67.712l-0.853333-0.042667a192.042667 192.042667 0 0 1-192.042667-192.042667V522.666667A96 96 0 0 1 416.085333 426.666667h192.085334z m35.797333 211.882666l-2.986667 2.474667-2.432 2.986667a21.333333 21.333333 0 0 0 0 24.234666l2.474667 2.986667 75.52 75.477333-75.434667 75.349334-2.432 2.986666a21.333333 21.333333 0 0 0 0 24.234667l2.432 2.986667 2.986667 2.432a21.333333 21.333333 0 0 0 24.234667 0l2.986666-2.432 75.349334-75.392 75.52 75.477333 2.944 2.474667a21.333333 21.333333 0 0 0 24.234666 0l2.986667-2.474667 2.432-2.986667a21.333333 21.333333 0 0 0 0-24.234666l-2.432-2.986667-75.52-75.434667 75.605333-75.52 2.474667-2.944a21.333333 21.333333 0 0 0 0-24.277333l-2.474667-2.944-2.944-2.474667a21.333333 21.333333 0 0 0-24.277333 0l-2.944 2.474667-75.605333 75.52-75.52-75.52-2.901334-2.474667a21.333333 21.333333 0 0 0-21.034666-1.834666l-3.242667 1.834666zM315.989333 426.666667a138.368 138.368 0 0 0-34.858666 64H181.333333a32 32 0 0 0-32 32v117.290666a106.709333 106.709333 0 0 0 131.498667 103.808c3.626667 21.504 10.24 42.026667 19.328 61.098667A170.709333 170.709333 0 0 1 85.333333 639.957333V522.666667a96 96 0 0 1 89.429334-95.786667L181.333333 426.666667h134.656z m526.677334 0A96 96 0 0 1 938.666667 522.666667v23.893333A276.394667 276.394667 0 0 0 746.666667 469.333333l-10.453334 0.213334A136.96 136.96 0 0 0 708.266667 426.666667h134.4zM789.333333 170.666667a106.666667 106.666667 0 1 1 0 213.333333 106.666667 106.666667 0 0 1 0-213.333333zM512 128a128 128 0 1 1 0 256 128 128 0 0 1 0-256zM234.666667 170.666667a106.666667 106.666667 0 1 1 0 213.333333 106.666667 106.666667 0 0 1 0-213.333333z m554.666666 64a42.666667 42.666667 0 1 0 0 85.333333 42.666667 42.666667 0 0 0 0-85.333333z m-277.333333-42.666667a64 64 0 1 0 0 128 64 64 0 0 0 0-128z m-277.333333 42.666667a42.666667 42.666667 0 1 0 0 85.333333 42.666667 42.666667 0 0 0 0-85.333333z" /></svg>