<svg class="icon" style="width: 1em;height: 1em;vertical-align: middle;fill: currentColor;overflow: hidden;" viewBox="0 0 1024 1024" version="1.1" xmlns="http://www.w3.org/2000/svg"><path d="M482.688 661.333333a276.096 276.096 0 0 1 30.250667-64h-331.52a95.957333 95.957333 0 0 0-95.914667 96v24.618667c0 38.058667 13.568 74.922667 38.314667 103.893333 66.816 78.250667 168.618667 116.906667 302.848 116.906667 39.722667 0 76.629333-3.413333 110.634666-10.24a278.058667 278.058667 0 0 1-38.997333-58.282667c-22.357333 2.986667-46.208 4.48-71.637333 4.48-116.821333 0-200.704-31.786667-254.165334-94.421333a96 96 0 0 1-23.04-62.336v-24.661333c0-17.621333 14.336-31.957333 32-31.957334h301.226667zM426.666667 85.546667a213.333333 213.333333 0 1 1 0 426.666666 213.333333 213.333333 0 0 1 0-426.666666z m0 64a149.333333 149.333333 0 1 0 0 298.666666 149.333333 149.333333 0 0 0 0-298.666666zM746.666667 512a234.666667 234.666667 0 1 1 0 469.333333 234.666667 234.666667 0 0 1 0-469.333333z m85.333333 234.666667h-85.333333V640a21.333333 21.333333 0 1 0-42.666667 0v128a21.333333 21.333333 0 0 0 21.333333 21.333333h106.666667a21.333333 21.333333 0 0 0 0-42.666666z" /></svg>