<svg class="icon" style="width: 1em;height: 1em;vertical-align: middle;fill: currentColor;overflow: hidden;" viewBox="0 0 1024 1024" version="1.1" xmlns="http://www.w3.org/2000/svg"><path d="M224.170667 597.333333h468.821333c4.437333 7.338667 9.856 14.165333 16.213333 20.224l30.72 29.098667c-1.792 6.784-4.053333 13.568-6.826666 20.394667a32 32 0 0 0-18.304-5.717334h-490.666667a32 32 0 0 0-32 32v38.698667c0 27.989333 12.245333 54.570667 33.450667 72.789333C279.253333 850.986667 360.106667 874.709333 469.333333 874.709333c12.458667 0 24.533333-0.298667 36.266667-0.938666 3.456 19.072 12.544 37.162667 26.88 51.626666l9.728 9.685334c-23.082667 2.432-47.36 3.626667-72.874667 3.626666-123.306667 0-218.794667-28.032-285.482666-85.333333a160 160 0 0 1-55.68-121.344v-38.698667A96 96 0 0 1 224.170667 597.333333z m501.632-74.88l21.461333-50.645333c10.069333-23.765333 34.176-36.693333 57.856-31.744l5.034667 1.322667 26.88 8.618666c26.709333 8.533333 47.104 31.36 53.717333 60.032 15.658667 68.181333-3.157333 151.168-56.405333 248.96-53.205333 97.706667-111.530667 156.416-174.933334 176.213334a75.093333 75.093333 0 0 1-70.954666-14.634667l-5.290667-4.821333-20.394667-20.48a58.026667 58.026667 0 0 1-9.472-67.882667l2.986667-4.949333 30.805333-45.226667c12.117333-17.792 32.853333-26.24 52.778667-21.973333l5.418667 1.493333 56.832 18.944a216.789333 216.789333 0 0 0 56.746666-64.853333 204.714667 204.714667 0 0 0 25.429334-67.84l1.621333-11.477334-47.317333-44.928a57.770667 57.770667 0 0 1-14.848-58.538666l2.048-5.589334 21.461333-50.645333-21.461333 50.645333zM469.333333 85.546667a213.333333 213.333333 0 1 1 0 426.666666 213.333333 213.333333 0 0 1 0-426.666666z m0 64a149.333333 149.333333 0 1 0 0 298.666666 149.333333 149.333333 0 0 0 0-298.666666z" /></svg>