<svg class="icon" style="width: 1em;height: 1em;vertical-align: middle;fill: currentColor;overflow: hidden;" viewBox="0 0 1024 1024" version="1.1" xmlns="http://www.w3.org/2000/svg"><path d="M746.666667 512a234.666667 234.666667 0 1 1 0 469.333333 234.666667 234.666667 0 0 1 0-469.333333z m-233.728 85.333333a276.224 276.224 0 0 0-30.208 64h-301.226667a32 32 0 0 0-32 32v38.698667c0 27.989333 12.202667 54.570667 33.408 72.789333C236.586667 850.986667 317.44 874.709333 426.666667 874.709333c25.557333 0 49.578667-1.28 72.021333-3.882666 10.666667 21.333333 24.021333 41.130667 39.68 58.88-34.261333 6.016-71.509333 8.96-111.701333 8.96-123.306667 0-218.794667-27.989333-285.482667-85.333334a160 160 0 0 1-55.68-121.301333v-38.698667A96 96 0 0 1 181.504 597.333333h331.434667z m200.405333 25.088l-2.944 2.474667-107.306667 107.392-1.749333 2.133333-1.493333 2.474667-1.365334 3.328-0.512 1.834667-0.426666 3.669333 0.128 3.754667 0.810666 3.626666 1.365334 3.328 1.066666 1.792 2.133334 2.816 107.349333 107.349334a21.333333 21.333333 0 0 0 32.64-27.221334l-2.474667-2.944L670.336 768h204.373333a21.333333 21.333333 0 0 0 20.949334-17.493333L896 746.666667a21.333333 21.333333 0 0 0-17.493333-20.992L874.666667 725.333333h-204.330667l70.229333-70.272a21.333333 21.333333 0 0 0 2.474667-27.178666l-2.474667-2.986667a21.333333 21.333333 0 0 0-27.221333-2.474667zM426.666667 85.504a213.333333 213.333333 0 1 1 0 426.666667 213.333333 213.333333 0 0 1 0-426.666667z m0 64a149.333333 149.333333 0 1 0 0 298.666667 149.333333 149.333333 0 0 0 0-298.666667z" /></svg>