<svg class="icon" style="width: 1em;height: 1em;vertical-align: middle;fill: currentColor;overflow: hidden;" viewBox="0 0 1024 1024" version="1.1" xmlns="http://www.w3.org/2000/svg"><path d="M482.688 661.333333a276.096 276.096 0 0 1 30.250667-64h-331.52a95.957333 95.957333 0 0 0-95.957334 96v24.618667c0 38.058667 13.610667 74.922667 38.357334 103.893333 66.816 78.250667 168.618667 116.906667 302.848 116.906667 39.722667 0 76.629333-3.413333 110.592-10.24a277.76 277.76 0 0 1-38.954667-58.282667c-22.357333 2.986667-46.208 4.48-71.68 4.48-116.778667 0-200.661333-31.786667-254.165333-94.421333a96 96 0 0 1-22.997334-62.336v-24.661333c0-17.621333 14.336-31.957333 32-31.957334h301.226667zM426.666667 85.546667a213.333333 213.333333 0 1 1 0 426.666666 213.333333 213.333333 0 0 1 0-426.666666z m0 64a149.333333 149.333333 0 1 0 0 298.666666 149.333333 149.333333 0 0 0 0-298.666666zM981.333333 746.666667a234.666667 234.666667 0 1 1-469.333333 0 234.666667 234.666667 0 0 1 469.333333 0z m-198.272-121.728a21.333333 21.333333 0 0 0-30.165333 30.165333L823.168 725.333333H640a21.333333 21.333333 0 1 0 0 42.666667h183.168l-70.272 70.272a21.333333 21.333333 0 0 0 30.165333 30.165333l106.666667-106.666666a21.205333 21.205333 0 0 0 6.272-14.72V746.666667a21.248 21.248 0 0 0-6.4-15.232l-106.538667-106.496z" /></svg>