<svg class="icon" style="width: 1em;height: 1em;vertical-align: middle;fill: currentColor;overflow: hidden;" viewBox="0 0 1024 1024" version="1.1" xmlns="http://www.w3.org/2000/svg"><path d="M555.733333 661.333333a211.84 211.84 0 0 1 16.682667-64H266.794667a95.957333 95.957333 0 0 0-96 96v24.618667c0 38.058667 13.653333 74.922667 38.4 103.893333 66.773333 78.250667 168.618667 116.906667 302.805333 116.906667 50.133333 0 95.786667-5.418667 136.746667-16.213333l-12.586667-62.890667c-36.266667 10.026667-77.610667 15.061333-124.16 15.061333-116.821333 0-200.704-31.786667-254.165333-94.421333a96 96 0 0 1-23.04-62.336v-24.661333c0-17.621333 14.336-31.957333 32-31.957334h288.938666zM725.333333 298.88a213.333333 213.333333 0 1 0-426.666666 0 213.333333 213.333333 0 0 0 426.666666 0z m-362.666666 0a149.333333 149.333333 0 1 1 298.666666 0 149.333333 149.333333 0 0 1-298.666666 0zM938.666667 682.666667c0 58.88-29.824 110.848-75.221334 141.525333l-5.802666 29.141333h-179.2l-5.845334-29.141333A170.666667 170.666667 0 1 1 938.666667 682.666667z m-251.733334 213.333333l6.826667 33.877333A64 64 0 0 0 756.48 981.333333h23.04a64 64 0 0 0 62.805333-51.456L849.066667 896h-162.133334z" /></svg>