<svg class="icon" style="width: 1em;height: 1em;vertical-align: middle;fill: currentColor;overflow: hidden;" viewBox="0 0 1024 1024" version="1.1" xmlns="http://www.w3.org/2000/svg"><path d="M725.333333 576a64 64 0 0 0-64-64h-298.666666A64 64 0 0 0 298.666667 576v21.333333c0 84.096 79.36 170.666667 213.333333 170.666667 133.973333 0 213.333333-86.570667 213.333333-170.666667v-21.333333z m-96-224a117.333333 117.333333 0 1 0-234.666666 0 117.333333 117.333333 0 0 0 234.666666 0zM938.666667 512c0 235.648-191.018667 426.666667-426.666667 426.666667S85.333333 747.648 85.333333 512 276.352 85.333333 512 85.333333s426.666667 191.018667 426.666667 426.666667z m-64 0a362.666667 362.666667 0 1 0-725.333334 0 362.666667 362.666667 0 0 0 725.333334 0z" /></svg>