<svg class="icon" style="width: 1em;height: 1em;vertical-align: middle;fill: currentColor;overflow: hidden;" viewBox="0 0 1024 1024" version="1.1" xmlns="http://www.w3.org/2000/svg"><path d="M482.56 661.248a276.352 276.352 0 0 1 30.293333-64H266.666667A96 96 0 0 0 170.666667 693.248v24.618667c0 38.101333 13.610667 74.965333 38.314666 103.936 60.288 70.570667 148.949333 108.885333 264.192 115.754666l19.242667-63.146666c-106.752-3.413333-184.277333-35.072-234.752-94.165334a96 96 0 0 1-22.997333-62.378666v-24.661334c0-17.621333 14.336-31.957333 32-31.957333h215.893333zM511.957333 85.333333a213.376 213.376 0 1 1 0 426.752 213.376 213.376 0 0 1 0-426.752z m0 64a149.333333 149.333333 0 1 0 0 298.752 149.333333 149.333333 0 0 0 0-298.752zM981.333333 746.666667a234.709333 234.709333 0 0 1-348.501333 205.354666l-93.312 28.373334a21.333333 21.333333 0 0 1-26.624-26.624l28.416-93.312A234.709333 234.709333 0 1 1 981.333333 746.581333z m-320.085333-64a21.333333 21.333333 0 1 0 0 42.666666H832a21.333333 21.333333 0 1 0 0-42.666666h-170.666667z m-21.333333 106.666666a21.333333 21.333333 0 0 0 21.333333 21.333334h85.333333a21.333333 21.333333 0 1 0 0-42.666667h-85.333333a21.333333 21.333333 0 0 0-21.333333 21.333333z" /></svg>