<svg class="icon" style="width: 1em;height: 1em;vertical-align: middle;fill: currentColor;overflow: hidden;" viewBox="0 0 1024 1024" version="1.1" xmlns="http://www.w3.org/2000/svg"><path d="M469.333333 661.333333c0-24.021333 7.936-46.165333 21.333334-64H224.085333a95.957333 95.957333 0 0 0-95.957333 96v24.618667c0 38.058667 13.610667 74.922667 38.357333 103.893333 66.816 78.250667 168.618667 116.906667 302.848 116.906667h2.133334A107.264 107.264 0 0 1 469.333333 917.333333v-42.624c-116.821333 0-200.704-31.786667-254.208-94.421333a96 96 0 0 1-22.997333-62.336v-24.661333c0-17.621333 14.336-31.957333 32-31.957334H469.333333zM469.333333 85.546667a213.333333 213.333333 0 1 1 0 426.666666 213.333333 213.333333 0 0 1 0-426.666666z m0 64a149.333333 149.333333 0 1 0 0 298.666666 149.333333 149.333333 0 0 0 0-298.666666zM747.093333 807.552l-234.282666-136.661333A85.333333 85.333333 0 0 1 597.333333 597.333333h298.666667a85.333333 85.333333 0 0 1 85.333333 84.053334l-234.24 126.165333zM756.778667 850.773333L981.333333 729.941333V896a85.333333 85.333333 0 0 1-85.333333 85.333333h-298.666667a85.333333 85.333333 0 0 1-85.333333-85.333333v-176.213333l223.914667 130.645333a21.333333 21.333333 0 0 0 20.864 0.384z" /></svg>