<svg class="icon" style="width: 1em;height: 1em;vertical-align: middle;fill: currentColor;overflow: hidden;" viewBox="0 0 1024 1024" version="1.1" xmlns="http://www.w3.org/2000/svg"><path d="M672 597.205333c41.856 0 77.44 26.794667 90.581333 64.128h-87.722666a31.488 31.488 0 0 0-2.816-0.128H181.290667a31.957333 31.957333 0 0 0-31.957334 32v24.618667c0 22.826667 8.149333 44.970667 22.997334 62.293333 53.461333 62.677333 137.386667 94.464 254.165333 94.464h7.168c3.669333 7.808 8.661333 15.018667 14.933333 21.248l39.850667 39.808a622.933333 622.933333 0 0 1-61.952 2.986667c-134.186667 0-235.989333-38.656-302.848-116.906667A160 160 0 0 1 85.333333 717.824v-24.661333a95.957333 95.957333 0 0 1 95.957334-95.957334H672zM426.496 85.418667a213.333333 213.333333 0 1 1 0 426.666666 213.333333 213.333333 0 0 1 0-426.666666z m0 64a149.333333 149.333333 0 1 0 0 298.666666 149.333333 149.333333 0 0 0 0-298.666666zM630.613333 758.784a32 32 0 0 0-45.226666-45.226667l-106.666667 106.666667a32 32 0 0 0 0 45.226667l106.666667 106.666666a32 32 0 0 0 45.226666-45.269333l-52.053333-52.053333h293.546667l-52.053334 52.053333a32 32 0 0 0 45.226667 45.226667l106.666667-106.581334a32 32 0 0 0 0-45.226666l-106.666667-106.752a32 32 0 1 0-45.226667 45.226666l51.968 52.053334h-293.418666l52.053333-52.053334z" /></svg>