<svg class="icon" style="width: 1em;height: 1em;vertical-align: middle;fill: currentColor;overflow: hidden;" viewBox="0 0 1024 1024" version="1.1" xmlns="http://www.w3.org/2000/svg"><path d="M746.666667 512a234.666667 234.666667 0 1 1 0 469.333333 234.666667 234.666667 0 0 1 0-469.333333z m0 330.666667a26.666667 26.666667 0 1 0 0 53.333333 26.666667 26.666667 0 0 0 0-53.333333z m0-250.709334c-44.714667 0-79.530667 34.858667-79.061334 83.370667a21.333333 21.333333 0 1 0 42.666667-0.426667c-0.256-24.704 15.36-40.277333 36.394667-40.277333 20.181333 0 36.437333 16.725333 36.437333 40.533333 0 8.192-2.389333 14.592-9.557333 23.893334l-4.010667 4.992-4.266667 4.821333-11.306666 12.373333-5.802667 6.698667c-16.384 19.498667-22.826667 33.834667-22.826667 55.893333a21.333333 21.333333 0 1 0 42.666667 0c0-8.661333 2.517333-15.317333 10.197333-25.173333l3.626667-4.437333 4.266667-4.949334 11.392-12.373333 5.717333-6.613333c16.128-19.2 22.570667-33.408 22.570667-55.168 0-47.061333-35.114667-83.2-79.104-83.2z m-233.728 5.333334a276.224 276.224 0 0 0-30.208 64H181.461333a31.957333 31.957333 0 0 0-32 32v24.618666c0 22.869333 8.192 44.970667 23.04 62.336 53.461333 62.634667 137.344 94.464 254.165334 94.464 25.472 0 49.322667-1.536 71.68-4.522666 10.453333 21.12 23.594667 40.661333 38.912 58.282666-33.962667 6.826667-70.826667 10.24-110.592 10.24-134.229333 0-236.032-38.613333-302.848-116.906666a160 160 0 0 1-38.314667-103.893334v-24.618666a95.957333 95.957333 0 0 1 95.957333-96h331.52zM426.666667 85.504a213.333333 213.333333 0 1 1 0 426.666667 213.333333 213.333333 0 0 1 0-426.666667z m0 64a149.333333 149.333333 0 1 0 0 298.666667 149.333333 149.333333 0 0 0 0-298.666667z" /></svg>