<svg class="icon" style="width: 1em;height: 1em;vertical-align: middle;fill: currentColor;overflow: hidden;" viewBox="0 0 1024 1024" version="1.1" xmlns="http://www.w3.org/2000/svg"><path d="M853.333333 693.162667a95.957333 95.957333 0 0 0-96-95.957334H266.666667A95.957333 95.957333 0 0 0 170.666667 693.205333v24.618667c0 38.101333 13.610667 74.922667 38.314666 103.893333 66.858667 78.250667 168.661333 116.906667 302.848 116.906667 134.229333 0 236.074667-38.613333 303.018667-116.864A160 160 0 0 0 853.333333 717.696v-24.533333z m-586.709333-31.957334H757.333333c17.621333 0 31.914667 14.293333 31.914667 32v24.533334a96 96 0 0 1-23.04 62.421333c-53.632 62.634667-137.557333 94.421333-254.421333 94.421333-116.821333 0-200.704-31.786667-254.165334-94.421333a96 96 0 0 1-22.997333-62.336v-24.661333c0-17.621333 14.293333-31.957333 31.957333-31.957334zM725.205333 298.752a213.333333 213.333333 0 0 0-385.066666-126.592A32 32 0 0 0 330.581333 170.666667H224a32 32 0 0 0-32 32v234.581333A117.333333 117.333333 0 0 0 309.333333 554.666667h10.666667v-0.170667h0.426667a42.581333 42.581333 0 1 0-33.536-68.736A53.333333 53.333333 0 0 1 256 437.290667V426.666667h31.914667c16.213333 0 31.274667-5.205333 43.52-13.994667a213.333333 213.333333 0 0 0 393.770666-113.92z m-426.666666-4.522667a218.197333 218.197333 0 0 0 0 9.045334v48.682666a10.666667 10.666667 0 0 1-10.666667 10.666667H256V234.709333h42.581333v59.52z m64 8.32v-7.594666a149.333333 149.333333 0 1 1 0 7.594666z" /></svg>