<svg class="icon" style="width: 1em;height: 1em;vertical-align: middle;fill: currentColor;overflow: hidden;" viewBox="0 0 1024 1024" version="1.1" xmlns="http://www.w3.org/2000/svg"><path d="M469.248 597.162667v64H181.333333a31.957333 31.957333 0 0 0-31.957333 31.914666v24.661334c0 22.869333 8.149333 44.970667 23.04 62.336 53.461333 62.634667 137.386667 94.464 254.208 94.464 47.189333 0 89.002667-5.205333 125.653333-15.488l49.92 50.858666c-50.346667 19.114667-108.970667 28.629333-175.573333 28.629334-134.229333 0-236.074667-38.613333-302.933333-116.906667A160 160 0 0 1 85.333333 717.781333v-24.661333a96 96 0 0 1 96-95.914667h287.914667zM640 298.666667a213.333333 213.333333 0 1 0-426.709333 0.042666 213.333333 213.333333 0 0 0 426.709333 0zM277.205333 298.666667a149.333333 149.333333 0 1 1 298.709334 0 149.333333 149.333333 0 0 1-298.666667 0z m429.824 657.066666l-170.666666-173.738666a85.034667 85.034667 0 0 1-24.448-59.648v-125.269334A85.333333 85.333333 0 0 1 597.333333 511.914667l124.501334-0.085334c22.528 0 44.16 8.832 60.16 24.576l173.909333 171.306667c33.706667 33.152 33.92 87.253333 0.554667 120.661333l-127.744 127.872a85.717333 85.717333 0 0 1-121.685334-0.512z m-67.242666-273.237333a42.666667 42.666667 0 1 0 0-85.333333 42.666667 42.666667 0 0 0 0 85.333333z" /></svg>