<svg class="icon" style="width: 1em;height: 1em;vertical-align: middle;fill: currentColor;overflow: hidden;" viewBox="0 0 1024 1024" version="1.1" xmlns="http://www.w3.org/2000/svg"><path d="M746.666667 512a234.666667 234.666667 0 1 1 0 469.333333 234.666667 234.666667 0 0 1 0-469.333333z m-233.685334 85.333333a276.053333 276.053333 0 0 0-30.250666 64H181.461333a31.957333 31.957333 0 0 0-32 32v24.618667c0 22.826667 8.192 44.928 23.04 62.293333 53.461333 62.677333 137.386667 94.464 254.165334 94.464 25.472 0 49.365333-1.493333 71.68-4.522666 10.496 21.12 23.594667 40.704 38.912 58.325333-33.92 6.826667-70.826667 10.24-110.592 10.24-134.229333 0-236.032-38.656-302.848-116.906667a160 160 0 0 1-38.314667-103.893333v-24.661333A95.957333 95.957333 0 0 1 181.461333 597.333333h331.52z m233.685334 0l-3.84 0.341334a21.333333 21.333333 0 0 0-17.152 17.152L725.333333 618.666667V725.333333h-106.496l-3.84 0.341334a21.333333 21.333333 0 0 0-17.152 17.152l-0.341333 3.84 0.341333 3.84a21.333333 21.333333 0 0 0 17.152 17.152l3.84 0.341333H725.333333L725.333333 874.666667l0.341334 3.84a21.333333 21.333333 0 0 0 17.152 17.152l3.84 0.341333 3.84-0.341333a21.333333 21.333333 0 0 0 17.152-17.152L768 874.666667V768h106.837333l3.84-0.341333a21.333333 21.333333 0 0 0 17.152-17.152l0.341334-3.84-0.341334-3.84a21.333333 21.333333 0 0 0-17.152-17.152l-3.84-0.341334H768L768 618.666667l-0.341333-3.84a21.333333 21.333333 0 0 0-17.152-17.152L746.666667 597.333333zM426.666667 85.546667a213.333333 213.333333 0 1 1 0 426.666666 213.333333 213.333333 0 0 1 0-426.666666z m0 64a149.333333 149.333333 0 1 0 0 298.666666 149.333333 149.333333 0 0 0 0-298.666666z" /></svg>