<svg class="icon" style="width: 1em;height: 1em;vertical-align: middle;fill: currentColor;overflow: hidden;" viewBox="0 0 1024 1024" version="1.1" xmlns="http://www.w3.org/2000/svg"><path d="M629.504 640a95.957333 95.957333 0 0 1 95.957333 95.957333v24.533334c0 38.186667-13.653333 75.093333-38.442666 104.064C620.032 942.762667 518.186667 981.333333 384 981.333333c-134.229333 0-236.032-38.613333-302.848-116.906666a160 160 0 0 1-38.357333-103.850667v-24.661333A95.957333 95.957333 0 0 1 138.794667 640h490.709333z m0 64H138.752a31.957333 31.957333 0 0 0-31.957333 31.957333v24.661334c0 22.826667 8.192 44.928 23.04 62.293333C183.253333 885.589333 267.136 917.418667 384 917.418667s200.789333-31.829333 254.378667-94.464a96 96 0 0 0 23.04-62.421334v-24.533333a31.957333 31.957333 0 0 0-31.914667-31.957333z m183.466667-644.096a32 32 0 0 1 43.648 11.904A541.568 541.568 0 0 1 928 341.333333c0 96.170667-25.002667 188.757333-71.850667 270.336a32 32 0 1 1-55.466666-31.829333A477.653333 477.653333 0 0 0 864 341.333333c0-84.608-21.888-165.973333-62.933333-237.781333a32 32 0 0 1 11.904-43.648zM384 128.170667a213.333333 213.333333 0 1 1 0 426.666666 213.333333 213.333333 0 0 1 0-426.666666z m281.088 16.896a32 32 0 0 1 43.648 11.946666A371.712 371.712 0 0 1 757.333333 341.333333c0 65.621333-16.981333 128.853333-48.810666 184.661334a32 32 0 1 1-55.594667-31.701334A307.797333 307.797333 0 0 0 693.333333 341.333333a307.754667 307.754667 0 0 0-40.234666-152.661333 32 32 0 0 1 11.989333-43.605333zM384 192.213333a149.333333 149.333333 0 1 0 0 298.666667 149.333333 149.333333 0 0 0 0-298.666667z" /></svg>