<svg class="icon" style="width: 1em;height: 1em;vertical-align: middle;fill: currentColor;overflow: hidden;" viewBox="0 0 1024 1024" version="1.1" xmlns="http://www.w3.org/2000/svg"><path d="M476.074667 873.642667c2.773333 22.613333 10.24 44.8 22.4 64.938666-127.573333-2.56-224.768-41.173333-289.322667-116.778666a160 160 0 0 1-38.314667-103.893334v-24.618666a95.957333 95.957333 0 0 1 95.957334-96h395.648l-64 64H266.794667a31.957333 31.957333 0 0 0-32 32v24.618666c0 22.869333 8.192 44.970667 23.04 62.336 47.786667 56.021333 119.936 87.381333 218.24 93.397334zM512 85.504a213.333333 213.333333 0 1 1 0 426.666667 213.333333 213.333333 0 0 1 0-426.666667z m0 64a149.333333 149.333333 0 1 0 0 298.666667 149.333333 149.333333 0 0 0 0-298.666667z m427.946667 403.882667a122.496 122.496 0 0 0-173.226667 0l-213.333333 213.333333a122.496 122.496 0 1 0 173.226666 173.226667l213.333334-213.333334a122.496 122.496 0 0 0 0-173.226666z m-128 45.226666a58.496 58.496 0 1 1 82.773333 82.773334L810.666667 765.44 727.893333 682.666667l84.053334-84.053334z m-85.333334 210.773334a32 32 0 0 1 0 45.226666l-42.666666 42.666667a32 32 0 1 1-45.226667-45.226667l42.666667-42.666666a32 32 0 0 1 45.226666 0z" /></svg>