<svg class="icon" style="width: 1em;height: 1em;vertical-align: middle;fill: currentColor;overflow: hidden;" viewBox="0 0 1024 1024" version="1.1" xmlns="http://www.w3.org/2000/svg"><path d="M650.666667 522.666667a74.666667 74.666667 0 0 0-74.666667-74.666667h-256a74.666667 74.666667 0 0 0-74.666667 74.666667v21.333333c0 46.037333 21.973333 70.613333 58.709334 93.866667 36.266667 22.954667 86.485333 34.133333 143.957333 34.133333 67.797333 0 118.4-11.008 152.32-34.346667 34.645333-23.850667 50.346667-48.810667 50.346667-93.653333v-21.333333z m-341.333334 0A10.666667 10.666667 0 0 1 320 512h256a10.666667 10.666667 0 0 1 10.666667 10.666667v21.333333c0 11.349333-1.493333 14.037333-4.352 19.2-0.725333 1.28-1.536 2.773333-2.432 4.565333a51.925333 51.925333 0 0 1-21.461334 22.016c-21.034667 12.117333-55.850667 18.218667-110.421333 18.218667-43.477333 0-78.762667-5.973333-102.826667-18.474667a68.565333 68.565333 0 0 1-26.666666-22.826666 84.394667 84.394667 0 0 0-3.669334-5.12c-3.541333-4.693333-5.504-7.253333-5.504-17.578667v-21.333333zM554.666667 320a106.666667 106.666667 0 1 1-213.333334 0 106.666667 106.666667 0 0 1 213.333334 0z m-64 0a42.666667 42.666667 0 1 0-85.333334 0 42.666667 42.666667 0 0 0 85.333334 0zM128 266.666667A138.666667 138.666667 0 0 1 266.666667 128h362.666666A138.666667 138.666667 0 0 1 768 266.666667v362.666666A138.666667 138.666667 0 0 1 629.333333 768h-362.666666A138.666667 138.666667 0 0 1 128 629.333333v-362.666666zM266.666667 192A74.666667 74.666667 0 0 0 192 266.666667v362.666666c0 41.216 33.450667 74.666667 74.666667 74.666667h362.666666a74.666667 74.666667 0 0 0 74.666667-74.666667v-362.666666a74.666667 74.666667 0 0 0-74.666667-74.666667h-362.666666zM373.333333 874.666667A138.581333 138.581333 0 0 1 256.426667 810.666667h394.24A160 160 0 0 0 810.666667 650.666667V256.426667a138.538667 138.538667 0 0 1 64 116.906666v277.333334c0 123.733333-100.266667 224-224 224h-277.333334z" /></svg>