<svg class="icon" style="width: 1em;height: 1em;vertical-align: middle;fill: currentColor;overflow: hidden;" viewBox="0 0 1024 1024" version="1.1" xmlns="http://www.w3.org/2000/svg"><path d="M746.666667 512a234.666667 234.666667 0 1 1 0 469.333333 234.666667 234.666667 0 0 1 0-469.333333z m-233.728 85.333333a276.224 276.224 0 0 0-30.208 64h-301.226667a32 32 0 0 0-32 32v38.698667c0 27.989333 12.202667 54.570667 33.408 72.789333C236.586667 850.986667 317.44 874.709333 426.666667 874.709333c25.557333 0 49.578667-1.28 72.021333-3.882666 10.666667 21.333333 24.021333 41.130667 39.68 58.88-34.261333 6.016-71.509333 8.96-111.701333 8.96-123.306667 0-218.794667-27.989333-285.482667-85.333334a160 160 0 0 1-55.68-121.301333v-38.698667A96 96 0 0 1 181.504 597.333333h331.434667z m374.912 53.418667l-237.098667 237.098667a170.666667 170.666667 0 0 0 237.098667-237.098667zM746.666667 576a170.666667 170.666667 0 0 0-141.226667 266.538667l237.141333-237.056A169.898667 169.898667 0 0 0 746.666667 576zM426.666667 85.504a213.333333 213.333333 0 1 1 0 426.666667 213.333333 213.333333 0 0 1 0-426.666667z m0 64a149.333333 149.333333 0 1 0 0 298.666667 149.333333 149.333333 0 0 0 0-298.666667z" /></svg>