<svg class="icon" style="width: 1em;height: 1em;vertical-align: middle;fill: currentColor;overflow: hidden;" viewBox="0 0 1024 1024" version="1.1" xmlns="http://www.w3.org/2000/svg"><path d="M458.666667 597.333333A96 96 0 0 1 554.666667 693.333333v64.085334l-0.341334 4.608c-13.226667 90.752-94.72 134.357333-231.466666 134.357333-136.234667 0-219.050667-43.093333-236.928-132.778667L85.333333 757.333333v-64A96 96 0 0 1 181.333333 597.333333h277.333334z m0 64h-277.333334a32 32 0 0 0-32 32v60.586667c11.946667 51.2 66.133333 78.464 173.525334 78.464 107.349333 0 159.146667-26.922667 167.808-77.482667V693.333333a32 32 0 0 0-32-32zM320 256a149.333333 149.333333 0 1 1 0 298.666667 149.333333 149.333333 0 0 1 0-298.666667z m522.666667-170.666667A96 96 0 0 1 938.666667 181.333333v149.333334A96 96 0 0 1 842.666667 426.666667h-62.08l-92.416 91.349333A53.333333 53.333333 0 0 1 597.333333 480.128V426.069333a96 96 0 0 1-85.333333-95.402666v-149.333334A96 96 0 0 1 608 85.333333h234.666667zM320 320a85.333333 85.333333 0 1 0 0 170.666667 85.333333 85.333333 0 0 0 0-170.666667z m522.666667-170.666667h-234.666667a32 32 0 0 0-32 32v149.333334c0 17.664 14.336 32 32 32h53.290667v91.904L754.346667 362.666667h88.362666a32 32 0 0 0 32-32v-149.333334a32 32 0 0 0-32-32z" /></svg>