<svg class="icon" style="width: 1em;height: 1em;vertical-align: middle;fill: currentColor;overflow: hidden;" viewBox="0 0 1024 1024" version="1.1" xmlns="http://www.w3.org/2000/svg"><path d="M597.333333 597.333333H181.461333a95.957333 95.957333 0 0 0-96 95.957334v24.661333c0 38.058667 13.653333 74.922667 38.4 103.893333 66.773333 78.250667 168.576 116.906667 302.805334 116.906667 30.506667 0 59.306667-2.048 86.442666-6.016A107.690667 107.690667 0 0 1 512 917.333333v-49.194666c-26.197333 4.394667-54.613333 6.570667-85.333333 6.570666-116.821333 0-200.704-31.829333-254.165334-94.421333a96 96 0 0 1-23.04-62.378667v-24.618666c0-17.664 14.336-32 32-32h339.413334A106.88 106.88 0 0 1 597.333333 599.466667V597.333333zM426.666667 85.546667a213.333333 213.333333 0 1 1 0 426.666666 213.333333 213.333333 0 0 1 0-426.666666z m0 64a149.333333 149.333333 0 1 0 0 298.666666 149.333333 149.333333 0 0 0 0-298.666666zM640 640h-21.333333a64 64 0 0 0-64 64v213.333333a64 64 0 0 0 64 64h256a64 64 0 0 0 64-64v-213.333333a64 64 0 0 0-64-64H853.333333v-42.666667a106.666667 106.666667 0 0 0-213.333333 0v42.666667z m64-42.666667a42.666667 42.666667 0 1 1 85.333333 0v42.666667h-85.333333v-42.666667z m85.333333 213.333334a42.666667 42.666667 0 1 1-85.333333 0 42.666667 42.666667 0 0 1 85.333333 0z" /></svg>