<svg class="icon" style="width: 1em;height: 1em;vertical-align: middle;fill: currentColor;overflow: hidden;" viewBox="0 0 1024 1024" version="1.1" xmlns="http://www.w3.org/2000/svg"><path d="M469.333333 640c0-14.933333 2.56-29.312 7.253334-42.666667H181.461333a95.957333 95.957333 0 0 0-95.957333 95.957334v24.661333c0 38.058667 13.610667 74.922667 38.357333 103.893333 66.816 78.250667 168.618667 116.906667 302.848 116.906667 16.938667 0 33.408-0.64 49.322667-1.877333A127.914667 127.914667 0 0 1 469.333333 896v-22.826667c-13.696 1.024-27.946667 1.536-42.666666 1.536-116.821333 0-200.704-31.829333-254.208-94.421333a96 96 0 0 1-22.997334-62.378667v-24.618666c0-17.664 14.336-32 32-32H469.333333V640zM426.666667 85.546667a213.333333 213.333333 0 1 1 0 426.666666 213.333333 213.333333 0 0 1 0-426.666666z m0 64a149.333333 149.333333 0 1 0 0 298.666666 149.333333 149.333333 0 0 0 0-298.666666zM512 640a85.333333 85.333333 0 0 1 85.333333-85.333333h298.666667a85.333333 85.333333 0 0 1 85.333333 85.333333v256a85.333333 85.333333 0 0 1-85.333333 85.333333h-298.666667a85.333333 85.333333 0 0 1-85.333333-85.333333v-256z m106.666667 42.666667a21.333333 21.333333 0 0 0 0 42.666666h256a21.333333 21.333333 0 0 0 0-42.666666h-256z m0 128a21.333333 21.333333 0 0 0 0 42.666666h256a21.333333 21.333333 0 0 0 0-42.666666h-256z" /></svg>