<svg class="icon" style="width: 1em;height: 1em;vertical-align: middle;fill: currentColor;overflow: hidden;" viewBox="0 0 1024 1024" version="1.1" xmlns="http://www.w3.org/2000/svg"><path d="M757.546667 597.333333c33.28 0 62.549333 16.938667 79.786666 42.666667H576c-24.021333 0-46.165333 7.936-64 21.333333H266.794667a31.957333 31.957333 0 0 0-32 32v24.618667c0 22.826667 8.192 44.928 23.04 62.293333C304.554667 834.986667 374.485333 866.261333 469.333333 873.258667V917.333333c0 6.869333 0.64 13.653333 1.92 20.138667-114.218667-7.210667-202.24-45.482667-262.101333-115.626667a160 160 0 0 1-38.314667-103.893333v-24.661333A95.957333 95.957333 0 0 1 266.794667 597.333333h490.752zM512 85.546667a213.333333 213.333333 0 1 1 0 426.666666 213.333333 213.333333 0 0 1 0-426.666666z m0 64a149.333333 149.333333 0 1 0 0 298.666666 149.333333 149.333333 0 0 0 0-298.666666zM512 746.666667a64 64 0 0 1 64-64h341.333333a64 64 0 0 1 64 64v170.666666a64 64 0 0 1-64 64h-341.333333a64 64 0 0 1-64-64v-170.666666z m426.666667 21.333333a42.666667 42.666667 0 0 1-42.666667-42.666667h-42.666667a85.333333 85.333333 0 0 0 85.333334 85.333334v-42.666667z m0 85.333333a85.333333 85.333333 0 0 0-85.333334 85.333334h42.666667a42.666667 42.666667 0 0 1 42.666667-42.666667v-42.666667z m-341.333334-128a42.666667 42.666667 0 0 1-42.666666 42.666667v42.666667a85.333333 85.333333 0 0 0 85.333333-85.333334h-42.666667z m42.666667 213.333334a85.333333 85.333333 0 0 0-85.333333-85.333334v42.666667a42.666667 42.666667 0 0 1 42.666666 42.666667h42.666667z m181.333333-106.666667a74.666667 74.666667 0 1 0-149.333333 0 74.666667 74.666667 0 0 0 149.333333 0z" /></svg>