<svg class="icon" style="width: 1em;height: 1em;vertical-align: middle;fill: currentColor;overflow: hidden;" viewBox="0 0 1024 1024" version="1.1" xmlns="http://www.w3.org/2000/svg"><path d="M746.666667 512a234.666667 234.666667 0 1 1 0 469.333333 234.666667 234.666667 0 0 1 0-469.333333z m-112.896 219.562667a21.333333 21.333333 0 0 0-30.165334 30.165333l85.333334 85.333333a21.333333 21.333333 0 0 0 30.165333 0l170.666667-170.666666a21.333333 21.333333 0 0 0-30.165334-30.165334L704 801.834667l-70.229333-70.272zM512.938667 597.333333a276.224 276.224 0 0 0-30.208 64H181.461333a31.957333 31.957333 0 0 0-32 32v24.618667c0 22.869333 8.192 44.970667 23.04 62.336 53.461333 62.634667 137.344 94.464 254.165334 94.464 25.472 0 49.322667-1.536 71.68-4.522667 10.453333 21.12 23.594667 40.661333 38.912 58.282667-33.962667 6.826667-70.826667 10.24-110.592 10.24-134.229333 0-236.032-38.613333-302.848-116.906667a160 160 0 0 1-38.314667-103.893333v-24.618667a95.957333 95.957333 0 0 1 95.957333-96h331.52zM426.666667 85.504a213.333333 213.333333 0 1 1 0 426.666667 213.333333 213.333333 0 0 1 0-426.666667z m0 64a149.333333 149.333333 0 1 0 0 298.666667 149.333333 149.333333 0 0 0 0-298.666667z" /></svg>