<svg class="icon" style="width: 1em;height: 1em;vertical-align: middle;fill: currentColor;overflow: hidden;" viewBox="0 0 1024 1024" version="1.1" xmlns="http://www.w3.org/2000/svg"><path d="M633.813333 661.333333l64-64H266.794667a95.957333 95.957333 0 0 0-96 96v24.618667c0 38.058667 13.653333 74.922667 38.4 103.893333 59.52 69.717333 146.858667 107.989333 260.138666 115.498667-0.170667-7.808 0.682667-15.786667 2.730667-23.936l9.813333-39.424c-101.248-5.12-175.274667-36.608-224.042666-93.696a96 96 0 0 1-23.04-62.336v-24.661333c0-17.621333 14.336-31.957333 32-31.957334h367.018666zM512 85.546667a213.333333 213.333333 0 1 1 0 426.666666 213.333333 213.333333 0 0 1 0-426.666666z m0 64a149.333333 149.333333 0 1 0 0 298.666666 149.333333 149.333333 0 0 0 0-298.666666z m302.933333 391.04l-251.861333 251.818666a114.602667 114.602667 0 0 0-30.122667 53.205334l-19.541333 78.122666a46.378667 46.378667 0 0 0 56.277333 56.234667l78.08-19.498667a114.56 114.56 0 0 0 53.248-30.165333l251.818667-251.818667A97.536 97.536 0 0 0 814.933333 540.586667z" /></svg>