<svg class="icon" style="width: 1em;height: 1em;vertical-align: middle;fill: currentColor;overflow: hidden;" viewBox="0 0 1024 1024" version="1.1" xmlns="http://www.w3.org/2000/svg"><path d="M746.666667 512a234.666667 234.666667 0 1 1 0 469.333333 234.666667 234.666667 0 0 1 0-469.333333zM586.666667 85.333333A96 96 0 0 1 682.666667 181.333333v295.424a275.370667 275.370667 0 0 0-64 23.808V181.333333a32 32 0 0 0-32-32h-320a32 32 0 0 0-32 32v661.333334c0 17.664 14.336 32 32 32l233.941333 0.042666c12.245333 23.509333 27.776 45.056 45.952 64L266.666667 938.666667A96 96 0 0 1 170.666667 842.666667V181.333333A96 96 0 0 1 266.666667 85.333333h320zM373.290667 746.837333L469.333333 746.624c0 22.058667 2.56 43.52 7.424 64l-103.381333 0.213333a32 32 0 0 1-0.085333-64zM704 597.333333a21.333333 21.333333 0 0 0-21.333333 21.333334v170.666666a21.333333 21.333333 0 0 0 21.333333 21.333334h128.085333a21.333333 21.333333 0 0 0 0-42.666667H725.333333v-149.333333a21.333333 21.333333 0 0 0-21.333333-21.333334z" /></svg>