<svg class="icon" style="width: 1em;height: 1em;vertical-align: middle;fill: currentColor;overflow: hidden;" viewBox="0 0 1024 1024" version="1.1" xmlns="http://www.w3.org/2000/svg"><path d="M352.170667 341.461333c41.258667 0 74.666667 33.450667 74.666666 74.666667v405.333333a74.666667 74.666667 0 0 1-74.666666 74.666667H160A74.666667 74.666667 0 0 1 85.333333 821.461333v-405.333333c0-41.216 33.450667-74.666667 74.666667-74.666667h192.170667z m0 64H160a10.666667 10.666667 0 0 0-10.666667 10.666667v405.333333c0 5.888 4.778667 10.666667 10.666667 10.666667h192.170667a10.666667 10.666667 0 0 0 10.666666-10.666667v-405.333333a10.666667 10.666667 0 0 0-10.666666-10.666667zM266.752 725.333333a32 32 0 0 1 4.352 63.701334l-4.352 0.298666h-21.333333a32 32 0 0 1-4.352-63.701333L245.418667 725.333333h21.333333z m639.872-21.333333a32 32 0 0 1 4.352 63.701333L906.666667 768H469.333333v-64h437.333334zM778.666667 213.333333c41.216 0 74.666667 33.450667 74.666666 74.666667v320A74.666667 74.666667 0 0 1 778.666667 682.666667H469.333333v-64h309.333334a10.666667 10.666667 0 0 0 10.666666-10.666667v-320a10.666667 10.666667 0 0 0-10.666666-10.666667H245.333333a10.666667 10.666667 0 0 0-10.666666 10.666667L234.624 298.666667H170.666667v-10.666667C170.666667 246.784 204.117333 213.333333 245.333333 213.333333h533.333334z" /></svg>