<svg class="icon" style="width: 1em;height: 1em;vertical-align: middle;fill: currentColor;overflow: hidden;" viewBox="0 0 1024 1024" version="1.1" xmlns="http://www.w3.org/2000/svg"><path d="M352.213333 298.666667c41.216 0 74.666667 33.408 74.666667 74.666666v405.333334A74.666667 74.666667 0 0 1 352.213333 853.333333H160A74.666667 74.666667 0 0 1 85.333333 778.666667v-405.333334C85.333333 332.074667 118.784 298.666667 160 298.666667h192.213333z m0 64H160a10.666667 10.666667 0 0 0-10.666667 10.666666v405.333334c0 5.888 4.778667 10.666667 10.666667 10.666666h192.213333a10.666667 10.666667 0 0 0 10.666667-10.666666v-405.333334a10.666667 10.666667 0 0 0-10.666667-10.666666zM266.794667 682.666667a32 32 0 0 1 4.309333 63.701333l-4.309333 0.298667h-21.333334a32 32 0 0 1-4.352-63.701334L245.461333 682.666667h21.333334zM842.666667 170.666667a96 96 0 0 1 95.786666 89.429333L938.666667 266.666667v362.666666a96 96 0 0 1-89.429334 95.786667L842.666667 725.333333H469.333333v-64h373.333334a32 32 0 0 0 31.701333-27.648l0.298667-4.352v-362.666666a32 32 0 0 0-27.648-31.701334L842.666667 234.666667H352a32 32 0 0 0-30.165333 21.333333h-65.28a96 96 0 0 1 88.448-85.077333L352 170.666667h490.666667z m-192 384a32 32 0 0 1 0 64h-106.666667a32 32 0 1 1 0-64h106.666667z" /></svg>