<svg class="icon" style="width: 1em;height: 1em;vertical-align: middle;fill: currentColor;overflow: hidden;" viewBox="0 0 1024 1024" version="1.1" xmlns="http://www.w3.org/2000/svg"><path d="M352 938.666667h194.56a278.101333 278.101333 0 0 1-45.994667-64H352a32 32 0 0 1-32-32V181.333333a32 32 0 0 1 32-32h320a32 32 0 0 1 32 32v291.242667a279.637333 279.637333 0 0 1 64-2.432V181.333333A96 96 0 0 0 672 85.333333h-320A96 96 0 0 0 256 181.333333v661.333334A96 96 0 0 0 352 938.666667z m128-268.416a276.992 276.992 0 0 1 64-112.896V405.674667l41.002667 41.002666a32 32 0 0 0 41.685333 3.114667l3.584-3.114667a32 32 0 0 0 3.114667-41.642666l-3.114667-3.584-95.658667-95.658667-1.621333-1.536-2.645333-2.090667-2.858667-1.749333-2.56-1.28-4.309333-1.536-2.688-0.64-3.925334-0.469333h-4.010666l-3.882667 0.469333-4.138667 1.066667-4.778666 2.005333-3.242667 1.962667-4.565333 3.797333-95.658667 95.658667a32 32 0 0 0 41.642667 48.341333l3.626666-3.114667 40.96-40.96v264.533334zM981.333333 746.666667a234.666667 234.666667 0 1 1-469.333333 0 234.666667 234.666667 0 0 1 469.333333 0z m-91.562666-100.437334a21.333333 21.333333 0 0 0-30.208 0L704 801.834667l-70.229333-70.272a21.333333 21.333333 0 0 0-30.208 30.208l85.333333 85.333333a21.333333 21.333333 0 0 0 30.208 0l170.666667-170.666667a21.333333 21.333333 0 0 0 0-30.208z" /></svg>