<svg class="icon" style="width: 1em;height: 1em;vertical-align: middle;fill: currentColor;overflow: hidden;" viewBox="0 0 1024 1024" version="1.1" xmlns="http://www.w3.org/2000/svg"><path d="M586.666667 85.333333A96 96 0 0 1 682.666667 181.333333v281.045334a149.973333 149.973333 0 0 0-64 58.026666V181.333333a32 32 0 0 0-32-32h-320a32 32 0 0 0-32 32v661.333334c0 17.664 14.336 32 32 32H512v42.666666c0 7.296 0.725333 14.421333 2.133333 21.333334h-247.466666A96 96 0 0 1 170.666667 842.666667V181.333333A96 96 0 0 1 266.666667 85.333333h320zM640 597.333333a106.496 106.496 0 0 1 106.666667-106.666666A106.666667 106.666667 0 0 1 853.333333 597.333333v42.666667h21.333334a64 64 0 0 1 64 64v213.333333a64 64 0 0 1-64 64h-256a64 64 0 0 1-64-64v-213.333333a64 64 0 0 1 64-64h21.333333v-42.666667z m64 0v42.666667h85.333333v-42.666667a42.666667 42.666667 0 1 0-85.333333 0z m85.333333 213.333334a42.666667 42.666667 0 1 0-85.333333 0 42.666667 42.666667 0 0 0 85.333333 0z m-277.333333-32.042667v0.042667a32 32 0 0 1-31.957333 32l-106.666667 0.170666a32 32 0 0 1-0.085333-64l106.666666-0.170666a32 32 0 0 1 32.042667 31.957333z" /></svg>