<svg class="icon" style="width: 1em;height: 1em;vertical-align: middle;fill: currentColor;overflow: hidden;" viewBox="0 0 1024 1024" version="1.1" xmlns="http://www.w3.org/2000/svg"><path d="M672 85.333333A96 96 0 0 1 768 181.333333v661.333334A96 96 0 0 1 672 938.666667h-320A96 96 0 0 1 256 842.666667V181.333333A96 96 0 0 1 352 85.333333h320z m0 64h-320a32 32 0 0 0-32 32v661.333334c0 17.664 14.336 32 32 32h320a32 32 0 0 0 32-32V181.333333a32 32 0 0 0-32-32z m-41.6 425.130667a32 32 0 0 1 3.498667 41.642667l-3.029334 3.626666-96 97.962667a32 32 0 0 1-42.112 3.157333l-3.584-3.157333-96.128-97.962667a32 32 0 0 1 42.112-47.957333l3.541334 3.157333L512 649.6l73.130667-74.666667a32 32 0 0 1 45.269333-0.426666z m-95.573333-266.197333l96 97.962666a32 32 0 1 1-45.653334 44.8L512 376.32l-73.301333 74.666667a32 32 0 0 1-45.653334-44.8l96.128-97.962667a32 32 0 0 1 45.653334 0z" /></svg>