<svg class="icon" style="width: 1em;height: 1em;vertical-align: middle;fill: currentColor;overflow: hidden;" viewBox="0 0 1024 1024" version="1.1" xmlns="http://www.w3.org/2000/svg"><path d="M672 85.333333A96 96 0 0 1 768 181.333333v661.333334A96 96 0 0 1 672 938.666667h-320A96 96 0 0 1 256 842.666667V181.333333A96 96 0 0 1 352 85.333333h320z m0 64h-320a32 32 0 0 0-32 32v661.333334c0 17.664 14.336 32 32 32h320a32 32 0 0 0 32-32V181.333333a32 32 0 0 0-32-32zM405.290667 757.546667a32 32 0 1 1 0 64 32 32 0 0 1 0-64z m106.666666 0a32 32 0 1 1 0 64 32 32 0 0 1 0-64z m106.666667 0a32 32 0 1 1 0 64 32 32 0 0 1 0-64z" /></svg>