<svg class="icon" style="width: 1em;height: 1em;vertical-align: middle;fill: currentColor;overflow: hidden;" viewBox="0 0 1024 1024" version="1.1" xmlns="http://www.w3.org/2000/svg"><path d="M704 670.890667l0.512 0.597333a73.386667 73.386667 0 0 0 63.488 20.693333v150.485334a96 96 0 0 1-89.429333 95.786666L672 938.666667h-320a96 96 0 0 1-95.786667-89.429334L256 842.666667v-150.528a73.386667 73.386667 0 0 0 58.197333-15.872l5.76-5.333334 0.042667 171.733334c0 16.213333 12.032 29.610667 27.648 31.701333l4.352 0.298667h320a32 32 0 0 0 31.701333-27.648l0.298667-4.352v-171.776zM289.28 382.634667a32 32 0 0 1 3.114667 41.685333l-3.114667 3.584-52.096 52.053333h161.450667c15.445333 0 27.989333 14.293333 27.989333 32 0 16.170667-10.538667 29.568-24.192 31.658667l-3.84 0.298667H237.226667l52.096 52.138666a32 32 0 0 1 3.114666 41.642667l-3.114666 3.584a32 32 0 0 1-41.642667 3.114667l-3.626667-3.114667-101.12-100.992A32.853333 32.853333 0 0 1 128 512a32.853333 32.853333 0 0 1 14.933333-28.330667l101.12-100.992a32 32 0 0 1 45.269334 0z m445.354667-0.128a32 32 0 0 1 41.642666-3.114667l3.584 3.114667 101.12 100.992a32.853333 32.853333 0 0 1 14.976 28.330666 33.536 33.536 0 0 1-11.776 26.069334l-3.2 2.261333-101.12 100.992-3.584 3.114667a32 32 0 0 1-37.632 0.298666l-4.010666-3.413333-3.114667-3.584a32 32 0 0 1-0.298667-37.632l3.413334-4.010667 52.096-52.138666h-161.450667l-3.797333-0.256c-13.653333-2.133333-24.192-15.530667-24.192-31.744s10.538667-29.568 24.192-31.701334l3.84-0.298666h161.408l-52.096-52.053334-3.114667-3.541333a32 32 0 0 1 3.114667-41.685333zM672 85.333333a96 96 0 0 1 95.786667 89.429334L768 181.333333v150.058667a74.581333 74.581333 0 0 0-58.112 16.213333l-5.930667 5.418667 0.042667-171.690667a32 32 0 0 0-27.648-31.701333L672 149.333333h-320a32 32 0 0 0-31.701333 27.648L320 181.333333v171.648l-0.512-0.512A74.538667 74.538667 0 0 0 256 331.349333L256 181.333333a96 96 0 0 1 89.429333-95.786666L352 85.333333h320z" /></svg>