<svg class="icon" style="width: 1em;height: 1em;vertical-align: middle;fill: currentColor;overflow: hidden;" viewBox="0 0 1024 1024" version="1.1" xmlns="http://www.w3.org/2000/svg"><path d="M672 85.333333A96 96 0 0 1 768 181.333333v661.333334A96 96 0 0 1 672 938.666667h-320A96 96 0 0 1 256 842.666667V181.333333A96 96 0 0 1 352 85.333333h320z m0 64h-320a32 32 0 0 0-32 32v661.333334c0 17.664 14.336 32 32 32h320a32 32 0 0 0 32-32V181.333333a32 32 0 0 0-32-32z m-106.709333 597.333334a32 32 0 0 1 0.085333 64l-106.666667 0.170666a32 32 0 0 1-0.085333-64l106.666667-0.170666z m315.861333-399.786667l1.877333 3.882667 24.874667 62.165333a117.333333 117.333333 0 0 1-10.410667 107.264l-4.693333 6.698667-6.4 8.618666a53.333333 53.333333 0 0 0-8.832 45.952l1.962667 5.845334 24.832 62.165333a32 32 0 0 1-57.514667 27.690667l-1.877333-3.968-24.874667-62.122667a117.333333 117.333333 0 0 1 10.410667-107.264l4.693333-6.698667 6.4-8.618666a53.333333 53.333333 0 0 0 8.832-45.952l-1.962667-5.845334-24.832-62.122666a32 32 0 0 1 54.954667-31.573334l2.56 3.84z m-704 0l1.877333 3.882667 24.874667 62.165333a117.333333 117.333333 0 0 1-10.410667 107.264l-4.693333 6.698667-6.4 8.618666a53.333333 53.333333 0 0 0-8.832 45.952l1.962667 5.845334 24.832 62.165333a32 32 0 0 1-57.514667 27.690667l-1.877333-3.968-24.874667-62.122667a117.333333 117.333333 0 0 1 10.410667-107.264l4.693333-6.698667 6.4-8.618666a53.333333 53.333333 0 0 0 8.832-45.952l-1.962667-5.845334-24.832-62.122666a32 32 0 0 1 54.912-31.573334l2.602667 3.84z" /></svg>