<svg class="icon" style="width: 1em;height: 1em;vertical-align: middle;fill: currentColor;overflow: hidden;" viewBox="0 0 1024 1024" version="1.1" xmlns="http://www.w3.org/2000/svg"><path d="M746.666667 512c12.501333 0 24.746667 1.024 36.693333 3.072l7.424 30.549333a85.333333 85.333333 0 0 0 102.954667 62.933334l4.181333-1.109334 25.642667-7.637333c15.488 19.925333 27.861333 42.538667 36.437333 66.986667l-19.072 18.346666a85.333333 85.333333 0 0 0-7.253333 115.2l6.058666 6.656 20.266667 19.498667c-8.533333 24.490667-20.906667 47.061333-36.394667 66.986667l-25.685333-7.594667a85.333333 85.333333 0 0 0-106.026667 57.642667l-1.109333 4.181333-7.381333 30.549333a220.928 220.928 0 0 1-73.514667 0l-7.338667-30.549333a85.333333 85.333333 0 0 0-102.954666-62.933333l-4.181334 1.109333-25.685333 7.594667a236.629333 236.629333 0 0 1-36.394667-66.986667l19.072-18.346667a85.333333 85.333333 0 0 0 7.253334-115.114666l-6.058667-6.698667-20.266667-19.498667c8.533333-24.490667 20.906667-47.061333 36.394667-66.986666l25.685333 7.594666a85.333333 85.333333 0 0 0 106.026667-57.642666l1.109333-4.181334 7.338667-30.549333c11.946667-2.005333 24.277333-3.072 36.778667-3.072zM586.666667 85.333333A96 96 0 0 1 682.666667 181.333333v295.424a275.370667 275.370667 0 0 0-64 23.808V181.333333a32 32 0 0 0-32-32h-320a32 32 0 0 0-32 32v661.333334c0 17.664 14.336 32 32 32l233.941333 0.042666c12.245333 23.509333 27.776 45.056 45.952 64L266.666667 938.666667A96 96 0 0 1 170.666667 842.666667V181.333333A96 96 0 0 1 266.666667 85.333333h320zM373.290667 746.837333L469.333333 746.624c0 22.058667 2.56 43.52 7.424 64l-103.381333 0.213333a32 32 0 0 1-0.085333-64zM746.666667 682.666667c-34.133333 0-61.866667 28.672-61.866667 64S712.533333 810.666667 746.666667 810.666667c34.133333 0 61.866667-28.672 61.866666-64S780.8 682.666667 746.666667 682.666667z" /></svg>