<svg class="icon" style="width: 1em;height: 1em;vertical-align: middle;fill: currentColor;overflow: hidden;" viewBox="0 0 1024 1024" version="1.1" xmlns="http://www.w3.org/2000/svg"><path d="M586.666667 85.333333A96 96 0 0 1 682.666667 181.333333v246.144c-22.144 1.706667-43.562667 5.973333-64 12.544V181.333333a32 32 0 0 0-32-32h-320a32 32 0 0 0-32 32v661.333334c0 17.664 14.336 32 32 32h218.752a278.869333 278.869333 0 0 0 70.784 64.042666L266.666667 938.666667A96 96 0 0 1 170.666667 842.666667V181.333333A96 96 0 0 1 266.666667 85.333333h320z m117.333333 384a234.666667 234.666667 0 1 1 0 469.333334 234.666667 234.666667 0 0 1 0-469.333334z m9.216 110.464l-2.986667 2.432-2.432 2.986667a21.333333 21.333333 0 0 0 0 24.234667l2.432 2.986666 70.229334 70.186667-204.714667 0.042667-3.84 0.341333a21.333333 21.333333 0 0 0-17.152 17.152l-0.341333 3.84 0.341333 3.84a21.333333 21.333333 0 0 0 17.152 17.152l3.84 0.341333 204.8-0.042666-70.314667 70.272-2.432 2.986666a21.333333 21.333333 0 0 0 29.653334 29.653334l2.986666-2.432 107.946667-108.074667 1.536-2.133333 1.792-3.413334 1.109333-3.541333 0.426667-2.730667v-3.754666l-0.426667-2.730667-1.109333-3.541333-1.749333-3.413334-1.621334-2.133333-107.946666-108.074667-2.944-2.432a21.333333 21.333333 0 0 0-20.992-1.877333l-3.242667 1.877333z m-283.306667 166.954667c3.498667 22.314667 9.6 43.733333 18.005334 63.957333l-74.538667 0.128a32 32 0 0 1-0.085333-64l56.661333-0.085333z" /></svg>