<svg class="icon" style="width: 1em;height: 1em;vertical-align: middle;fill: currentColor;overflow: hidden;" viewBox="0 0 1024 1024" version="1.1" xmlns="http://www.w3.org/2000/svg"><path d="M796.928 102.101333a32 32 0 0 1 43.392-12.8c13.653333 7.466667 32.213333 21.76 50.517333 43.989334 18.432 22.4 32.64 48.810667 40.789334 79.36A208.128 208.128 0 0 1 926.72 337.066667a160 160 0 0 1-13.098667 29.013333 32 32 0 0 1-56.661333-29.44l2.005333-3.84a144.981333 144.981333 0 0 0 10.88-103.637333 145.066667 145.066667 0 0 0-28.416-55.210667c-12.544-15.232-24.789333-24.704-31.786666-28.501333a32 32 0 0 1-12.714667-43.392zM626.773333 651.946667a32 32 0 0 0-39.210666-22.656l-82.432 22.101333-4.096 1.365333a32 32 0 0 0 20.650666 60.416l82.432-22.058666 4.138667-1.408a32 32 0 0 0 18.517333-37.802667zM644.096 241.493333a96 96 0 0 0-117.632-67.84L330.538667 226.261333a96 96 0 0 0-67.84 117.546667l117.504 438.869333a96 96 0 0 0 117.589333 67.925334l196.053333-52.48a96 96 0 0 0 67.925334-117.589334L644.096 241.493333z m-101.034667-6.016a32 32 0 0 1 39.253334 22.613334l117.632 439.04a32 32 0 0 1-22.613334 39.168l-196.096 52.48a32 32 0 0 1-39.210666-22.613334L324.522667 327.253333a32 32 0 0 1 22.613333-39.168l195.925333-52.608zM791.509333 183.552a32 32 0 1 0-38.784 50.901333l1.408 1.194667c1.706667 1.578667 4.224 4.181333 6.741334 7.509333a39.808 39.808 0 0 1 6.954666 13.354667 45.525333 45.525333 0 0 1-1.28 24.448l-2.133333 6.314667a32 32 0 0 0 60.416 20.608 76.8 76.8 0 0 0 2.048-5.546667l2.218667-7.594667c4.522667-17.578667 5.546667-36.138667 0.554666-54.784a102.485333 102.485333 0 0 0-17.749333-35.413333 110.805333 110.805333 0 0 0-20.394667-20.992zM108.330667 657.536a32 32 0 0 1 57.344 28.117333l-4.053334 8.234667a150.869333 150.869333 0 0 0-7.168 99.626667c5.717333 21.333333 15.488 39.893333 28.202667 55.850666 11.008 13.738667 21.76 22.997333 29.013333 27.818667l2.858667 1.792a32 32 0 1 1-32 55.424c-13.44-7.765333-31.786667-22.485333-49.834667-45.098667a215.253333 215.253333 0 0 1-40.106666-79.232 214.058667 214.058667 0 0 1 3.669333-124.330666c4.266667-12.8 8.704-22.357333 12.074667-28.16zM241.237333 697.6a32 32 0 0 0-41.813333 17.365333c-0.64 1.493333-1.28 3.328-2.005333 5.546667l-2.176 7.509333c-4.437333 17.493333-5.461333 36.096-0.426667 54.698667 3.413333 12.970667 9.6 24.746667 17.578667 35.328 7.253333 9.685333 14.592 16.682667 20.266666 21.034667a32 32 0 0 0 39.04-50.688l-1.408-1.237334a58.837333 58.837333 0 0 1-6.741333-7.552 40.32 40.32 0 0 1-6.954667-13.482666 45.866667 45.866667 0 0 1 1.28-24.490667l2.048-6.314667a32 32 0 0 0-18.688-37.674666z" /></svg>