<svg class="icon" style="width: 1em;height: 1em;vertical-align: middle;fill: currentColor;overflow: hidden;" viewBox="0 0 1024 1024" version="1.1" xmlns="http://www.w3.org/2000/svg"><path d="M256 685.610667a74.069333 74.069333 0 0 0 64 0.512v156.544c0 16.213333 12.032 29.610667 27.648 31.701333l4.352 0.298667h320a32 32 0 0 0 31.701333-27.648l0.298667-4.352v-157.013334c21.077333 9.813333 44.330667 9.728 64 0.469334v156.544a96 96 0 0 1-89.429333 95.786666L672 938.666667h-320a96 96 0 0 1-95.786667-89.429334L256 842.666667v-157.056z m502.656-302.933334a32 32 0 0 1 3.114667 41.642667l-3.114667 3.626667-52.096 52.053333h161.450667c15.445333 0 27.989333 14.293333 27.989333 32 0 16.170667-10.538667 29.568-24.192 31.658667l-3.84 0.298666H706.56l52.096 52.096a32 32 0 0 1 3.114667 41.685334l-3.114667 3.584a32 32 0 0 1-41.642667 3.114666l-3.584-3.114666-101.12-100.992A32.853333 32.853333 0 0 1 597.333333 512a32.853333 32.853333 0 0 1 14.933334-28.330667l101.12-100.992a32 32 0 0 1 45.269333 0zM306.986667 379.52l3.626666 3.114667 101.12 100.992A32.853333 32.853333 0 0 1 426.666667 512a33.536 33.536 0 0 1-11.776 26.069333l-3.2 2.261334-101.12 100.992-3.584 3.114666a32 32 0 0 1-37.632 0.298667l-4.010667-3.413333-3.114667-3.584a32 32 0 0 1-0.298666-37.632l3.413333-4.010667 52.096-52.138667H155.989333l-3.797333-0.256c-13.653333-2.133333-24.192-15.530667-24.192-31.744s10.538667-29.568 24.192-31.701333l3.84-0.298667H317.44l-52.096-52.053333-3.114667-3.541333a32 32 0 0 1 44.8-44.8zM672 85.333333a96 96 0 0 1 95.786667 89.429334L768 181.333333l0.042667 156.501334a74.88 74.88 0 0 0-64.042667 0V181.333333a32 32 0 0 0-27.648-31.701333L672 149.333333h-320a32 32 0 0 0-31.701333 27.648L320 181.333333l0.042667 156.501334A74.88 74.88 0 0 0 256 337.749333V181.333333a96 96 0 0 1 89.429333-95.786666L352 85.333333h320z" /></svg>