<svg class="icon" style="width: 1em;height: 1em;vertical-align: middle;fill: currentColor;overflow: hidden;" viewBox="0 0 1024 1024" version="1.1" xmlns="http://www.w3.org/2000/svg"><path d="M352.213333 384c41.216 0 74.666667 33.408 74.666667 74.666667v405.333333A74.666667 74.666667 0 0 1 352.213333 938.666667H160A74.666667 74.666667 0 0 1 85.333333 864v-405.333333C85.333333 417.408 118.784 384 160 384h192.213333z m0 64H160a10.666667 10.666667 0 0 0-10.666667 10.666667v405.333333c0 5.888 4.778667 10.666667 10.666667 10.666667h192.213333a10.666667 10.666667 0 0 0 10.666667-10.666667v-405.333333a10.666667 10.666667 0 0 0-10.666667-10.666667zM266.666667 768a32 32 0 0 1 4.352 63.701333l-4.352 0.298667h-21.333334a32 32 0 0 1-4.352-63.701333L245.333333 768h21.333334z m576-682.666667a96 96 0 0 1 95.786666 89.429334L938.666667 181.333333v384a96 96 0 0 1-89.429334 95.786667l-6.570666 0.213333h-159.829334v85.333334h53.162667a32 32 0 0 1 4.352 63.701333L736 810.666667H469.333333v-64h149.504v-85.333334H469.333333V597.333333h373.333334a32 32 0 0 0 31.701333-27.648l0.298667-4.352v-384a32 32 0 0 0-32-32H266.666667a32 32 0 0 0-31.701334 27.648L234.666667 181.333333V341.333333H170.666667V181.333333a96 96 0 0 1 89.429333-95.786666L266.666667 85.333333h576z" /></svg>