<svg class="icon" style="width: 1em;height: 1em;vertical-align: middle;fill: currentColor;overflow: hidden;" viewBox="0 0 1024 1024" version="1.1" xmlns="http://www.w3.org/2000/svg"><path d="M746.666667 512a234.666667 234.666667 0 1 1 0 469.333333 234.666667 234.666667 0 0 1 0-469.333333zM586.666667 85.333333A96 96 0 0 1 682.666667 181.333333v295.424a275.370667 275.370667 0 0 0-64 23.808V181.333333a32 32 0 0 0-32-32h-320a32 32 0 0 0-32 32v661.333334c0 17.664 14.336 32 32 32l233.941333 0.042666c12.245333 23.509333 27.776 45.056 45.952 64L266.666667 938.666667A96 96 0 0 1 170.666667 842.666667V181.333333A96 96 0 0 1 266.666667 85.333333h320z m57.301333 553.216l-2.986667 2.474667-2.432 2.986667a21.333333 21.333333 0 0 0 0 24.234666l2.474667 2.986667 75.52 75.477333-75.434667 75.349334-2.432 2.986666a21.333333 21.333333 0 0 0 0 24.234667l2.432 2.986667 2.986667 2.432a21.333333 21.333333 0 0 0 24.234667 0l2.986666-2.432 75.349334-75.392 75.52 75.477333 2.944 2.474667a21.333333 21.333333 0 0 0 24.234666 0l2.986667-2.474667 2.432-2.986667a21.333333 21.333333 0 0 0 0-24.234666l-2.432-2.986667-75.52-75.434667 75.605333-75.52 2.474667-2.944a21.333333 21.333333 0 0 0 0-24.277333l-2.474667-2.944-2.944-2.474667a21.333333 21.333333 0 0 0-24.277333 0l-2.944 2.474667-75.605333 75.52-75.52-75.52-2.901334-2.474667a21.333333 21.333333 0 0 0-21.034666-1.834666l-3.242667 1.834666z m-270.677333 108.288L469.333333 746.624c0 22.058667 2.56 43.52 7.424 64l-103.381333 0.213333a32 32 0 0 1-0.085333-64z" /></svg>