<svg class="icon" style="width: 1em;height: 1em;vertical-align: middle;fill: currentColor;overflow: hidden;" viewBox="0 0 1024 1024" version="1.1" xmlns="http://www.w3.org/2000/svg"><path d="M586.666667 85.333333A96 96 0 0 1 682.666667 181.333333v370.048c-15.701333 2.176-31.146667 9.557333-43.818667 23.04l-20.181333 21.589334V181.333333a32 32 0 0 0-32-32h-320a32 32 0 0 0-32 32v661.333334c0 17.664 14.336 32 32 32h320a32 32 0 0 0 9.429333-1.408l42.752 45.610666 2.602667 2.645334A95.573333 95.573333 0 0 1 586.666667 938.666667h-320A96 96 0 0 1 170.666667 842.666667V181.333333A96 96 0 0 1 266.666667 85.333333h320zM373.290667 746.837333L469.333333 746.666667V810.666667l-95.957333 0.170666a32 32 0 0 1-0.085333-64z m571.477333-136.618666c-13.994667-23.338667-28.373333-39.296-38.954667-48.128a32 32 0 1 0-40.96 49.152c5.418667 4.522667 15.061333 15.232 25.045334 31.872 17.109333 28.586667 27.434667 62.933333 27.434666 103.552s-10.325333 75.008-27.434666 103.552c-9.984 16.64-19.626667 27.349333-25.045334 31.872a32 32 0 1 0 40.96 49.152c10.581333-8.832 24.96-24.746667 38.954667-48.128 22.869333-38.101333 36.565333-83.712 36.565333-136.448s-13.653333-98.346667-36.565333-136.448z m-96.810667 46.72a131.2 131.2 0 0 0-28.757333-31.872 32 32 0 0 0-38.4 51.2c2.645333 1.962667 8.106667 7.466667 13.909333 16.170666 9.984 14.933333 15.957333 32.853333 15.957334 54.229334 0 21.333333-5.973333 39.253333-15.957334 54.229333a71.68 71.68 0 0 1-13.909333 16.170667l-3.584 3.114666a32 32 0 0 0 41.984 48.085334c8.064-6.016 18.56-16.554667 28.757333-31.872A159.317333 159.317333 0 0 0 874.666667 746.666667c0-34.645333-10.026667-64.725333-26.709334-89.770667zM725.333333 629.333333a32 32 0 0 0-56.064-21.077333L604.16 682.666667h-60.16a32 32 0 0 0-32 32v64c0 17.664 14.336 32 32 32h60.16l65.109333 74.410666A32 32 0 0 0 725.333333 864v-234.666667z" /></svg>