<svg class="icon" style="width: 1em;height: 1em;vertical-align: middle;fill: currentColor;overflow: hidden;" viewBox="0 0 1024 1024" version="1.1" xmlns="http://www.w3.org/2000/svg"><path d="M672 85.333333A96 96 0 0 1 768 181.333333v661.333334A96 96 0 0 1 672 938.666667h-320A96 96 0 0 1 256 842.666667V181.333333A96 96 0 0 1 352 85.333333h320z m0 64h-320a32 32 0 0 0-32 32v661.333334c0 17.664 14.336 32 32 32h320a32 32 0 0 0 32-32V181.333333a32 32 0 0 0-32-32zM512 299.946667a32 32 0 0 1 31.701333 27.733333l0.298667 4.266667v286.378666l41.002667-41.002666a32 32 0 0 1 41.685333-3.114667l3.584 3.114667a32 32 0 0 1 3.114667 41.642666l-3.114667 3.626667-95.658667 95.616-1.621333 1.536-2.645333 2.090667-2.858667 1.749333-2.56 1.28-4.309333 1.536-2.688 0.64-3.925334 0.469333h-4.010666l-3.882667-0.469333-4.138667-1.066667-4.778666-2.005333-3.242667-1.962667-4.565333-3.797333-95.658667-95.616a32 32 0 0 1 41.642667-48.384l3.626666 3.114667 40.96 40.96 0.042667-286.293334a32 32 0 0 1 23.466667-30.848l4.181333-0.853333L512 299.946667z" /></svg>