<svg class="icon" style="width: 1em;height: 1em;vertical-align: middle;fill: currentColor;overflow: hidden;" viewBox="0 0 1024 1024" version="1.1" xmlns="http://www.w3.org/2000/svg"><path d="M405.333333 85.333333a320.128 320.128 0 0 1 306.304 227.029334 320 320 0 1 1-399.232 399.274666A320 320 0 0 1 405.333333 85.333333z m319.402667 300.288l0.426667 9.386667L725.333333 405.333333a320 320 0 0 1-339.712 319.402667 256 256 0 1 0 339.072-339.114667zM405.333333 149.333333a256 256 0 0 0-106.069333 489.088l-0.426667-9.386666L298.666667 618.666667a320 320 0 0 1 339.712-319.402667A255.957333 255.957333 0 0 0 405.333333 149.333333z" /></svg>