<svg class="icon" style="width: 1em;height: 1em;vertical-align: middle;fill: currentColor;overflow: hidden;" viewBox="0 0 1024 1024" version="1.1" xmlns="http://www.w3.org/2000/svg"><path d="M106.666667 288A117.333333 117.333333 0 0 1 224 170.666667h640a32 32 0 0 1 0 64H725.333333v488.661333a74.666667 74.666667 0 0 0 99.797334 70.314667l6.784-2.432a32 32 0 0 1 21.504 60.245333l-6.784 2.432c-90.282667 32.256-185.301333-34.688-185.301334-130.56V234.666667H405.077333a2960.768 2960.768 0 0 1-10.538666 193.450666c-10.752 122.112-32.341333 277.248-76.330667 403.712a32 32 0 0 1-60.416-20.992c41.344-118.912 62.378667-267.733333 72.96-388.266666A2897.194667 2897.194667 0 0 0 341.12 234.666667H224C194.56 234.666667 170.666667 258.56 170.666667 288v21.333333a32 32 0 0 1-64 0v-21.333333z" /></svg>