<svg class="icon" style="width: 1em;height: 1em;vertical-align: middle;fill: currentColor;overflow: hidden;" viewBox="0 0 1024 1024" version="1.1" xmlns="http://www.w3.org/2000/svg"><path d="M85.333333 266.666667A138.666667 138.666667 0 0 1 224 128h576A138.666667 138.666667 0 0 1 938.666667 266.666667V512h-64V266.666667a74.666667 74.666667 0 0 0-74.666667-74.666667H224A74.666667 74.666667 0 0 0 149.333333 266.666667v405.333333c0 41.216 33.450667 74.666667 74.666667 74.666667H469.333333V810.666667H224A138.666667 138.666667 0 0 1 85.333333 672v-405.333333zM597.333333 554.666667a85.333333 85.333333 0 0 0-85.333333 85.333333v213.333333a85.333333 85.333333 0 0 0 85.333333 85.333334h298.666667a85.333333 85.333333 0 0 0 85.333333-85.333334v-213.333333a85.333333 85.333333 0 0 0-85.333333-85.333333h-298.666667z" /></svg>