<svg class="icon" style="width: 1em;height: 1em;vertical-align: middle;fill: currentColor;overflow: hidden;" viewBox="0 0 1024 1024" version="1.1" xmlns="http://www.w3.org/2000/svg"><path d="M426.666667 469.333333a85.333333 85.333333 0 0 0 85.333333-85.333333V170.666667a85.333333 85.333333 0 0 0-85.333333-85.333334H128a85.333333 85.333333 0 0 0-85.333333 85.333334v213.333333a85.333333 85.333333 0 0 0 85.333333 85.333333h298.666667z m373.333333-192H554.666667V213.333333h245.333333A138.666667 138.666667 0 0 1 938.666667 352v405.333333A138.666667 138.666667 0 0 1 800 896H224A138.666667 138.666667 0 0 1 85.333333 757.333333v-252.586666c13.354667 4.693333 27.733333 7.253333 42.666667 7.253333h21.333333v245.333333c0 41.216 33.450667 74.666667 74.666667 74.666667h576a74.666667 74.666667 0 0 0 74.666667-74.666667v-405.333333a74.666667 74.666667 0 0 0-74.666667-74.666667zM680.106667 682.666667h-72.106667a32 32 0 0 0 0 64h149.333333a32 32 0 0 0 32-32v-149.333334a32 32 0 0 0-64 0v72.106667l-116.053333-116.053333a32 32 0 1 0-45.226667 45.226666L680.106667 682.666667z" /></svg>