<svg class="icon" style="width: 1em;height: 1em;vertical-align: middle;fill: currentColor;overflow: hidden;" viewBox="0 0 1024 1024" version="1.1" xmlns="http://www.w3.org/2000/svg"><path d="M449.28 660.053333a32 32 0 0 1 0 45.226667l-85.333333 85.333333a92.330667 92.330667 0 0 1-130.261334 0.298667 32 32 0 1 1 44.970667-45.525333c11.050667 11.093333 29.013333 11.093333 40.064 0l85.333333-85.333334a32 32 0 0 1 45.226667 0z m118.314667-509.653333a216.362667 216.362667 0 0 1 306.005333 306.005333l-417.194667 417.194667a216.362667 216.362667 0 0 1-306.005333-306.005333l417.194667-417.194667z m260.736 45.269333a152.362667 152.362667 0 0 0-215.466667 0l-185.984 185.984 215.466667 215.466667 186.026666-185.984a152.362667 152.362667 0 0 0 0-215.466667z m-231.210667 446.72l-215.466667-215.466666-185.984 185.941333a152.362667 152.362667 0 1 0 215.466667 215.466667l185.984-185.941334z" /></svg>