<svg class="icon" style="width: 1em;height: 1em;vertical-align: middle;fill: currentColor;overflow: hidden;" viewBox="0 0 1024 1024" version="1.1" xmlns="http://www.w3.org/2000/svg"><path d="M139.946667 94.72a32 32 0 0 0-45.226667 45.226667l251.946667 251.946666L205.226667 440.746667a53.333333 53.333333 0 0 0-20.309334 88.106666L317.397333 661.333333 128 850.773333V896h45.226667l189.44-189.44 132.48 132.48a53.333333 53.333333 0 0 0 88.106666-20.309333l48.853334-141.354667 251.946666 251.904a32 32 0 0 0 45.226667-45.226667L139.946667 94.72z m441.813333 532.309333l-53.418667 154.709334-286.08-286.08 154.709334-53.418667 184.789333 184.789333z m258.048-165.376l-161.578667 80.810667 47.701334 47.701333 142.506666-71.253333a117.333333 117.333333 0 0 0 30.464-187.904l-205.866666-205.909333a117.333333 117.333333 0 0 0-187.946667 30.506666l-71.253333 142.506667 47.701333 47.658667 80.810667-161.578667a53.333333 53.333333 0 0 1 85.418666-13.866667l205.909334 205.909334a53.333333 53.333333 0 0 1-13.866667 85.418666z" /></svg>