<svg class="icon" style="width: 1em;height: 1em;vertical-align: middle;fill: currentColor;overflow: hidden;" viewBox="0 0 1024 1024" version="1.1" xmlns="http://www.w3.org/2000/svg"><path d="M192 266.666667c0-41.216 33.450667-74.666667 74.666667-74.666667h469.333333c41.216 0 74.666667 33.450667 74.666667 74.666667v197.504a95.957333 95.957333 0 0 1 64 0V266.666667A138.666667 138.666667 0 0 0 736 128h-469.333333A138.666667 138.666667 0 0 0 128 266.666667v469.333333a138.666667 138.666667 0 0 0 138.666667 138.666667h197.504a96 96 0 0 1 0-64H266.666667a74.666667 74.666667 0 0 1-74.666667-74.666667v-469.333333zM256 298.666667a42.666667 42.666667 0 0 1 42.666667-42.666667h85.333333a42.666667 42.666667 0 0 1 42.666667 42.666667v85.333333a42.666667 42.666667 0 0 1-42.666667 42.666667H298.666667a42.666667 42.666667 0 0 1-42.666667-42.666667V298.666667z m234.666667 0a42.666667 42.666667 0 0 1 42.666666-42.666667h170.666667a42.666667 42.666667 0 0 1 42.666667 42.666667v85.333333a42.666667 42.666667 0 0 1-42.666667 42.666667h-170.666667a42.666667 42.666667 0 0 1-42.666666-42.666667V298.666667zM256 533.333333a42.666667 42.666667 0 0 1 42.666667-42.666666h85.333333a42.666667 42.666667 0 0 1 42.666667 42.666666v170.666667a42.666667 42.666667 0 0 1-42.666667 42.666667H298.666667a42.666667 42.666667 0 0 1-42.666667-42.666667v-170.666667z m609.28-1.28a32 32 0 0 0-45.226667 0l-64 64a32 32 0 1 0 45.226667 45.226667l9.386667-9.386667v104.106667A74.666667 74.666667 0 0 1 736 810.666667h-104.106667l9.386667-9.386667a32 32 0 1 0-45.226667-45.226667l-64 64a32 32 0 0 0 0 45.226667l64 64a32 32 0 1 0 45.226667-45.226667l-9.386667-9.386666h104.106667a138.666667 138.666667 0 0 0 138.666667-138.666667v-104.106667l9.386666 9.386667a32 32 0 1 0 45.226667-45.226667l-64-64z" /></svg>