<svg class="icon" style="width: 1em;height: 1em;vertical-align: middle;fill: currentColor;overflow: hidden;" viewBox="0 0 1024 1024" version="1.1" xmlns="http://www.w3.org/2000/svg"><path d="M929.28 139.946667a32 32 0 0 0-45.226667-45.226667l-85.845333 85.845333a181.376 181.376 0 0 0-233.088 19.712l-45.568 45.610667a74.666667 74.666667 0 0 0 0 105.557333l152.96 153.002667a74.666667 74.666667 0 0 0 105.6 0l45.568-45.568a181.376 181.376 0 0 0 19.754667-233.088L929.28 139.946667z m-152.96 105.6l0.938667 0.981333 0.128 0.085333 0.085333 0.128 0.981333 0.938667a117.333333 117.333333 0 0 1 0 165.973333l-45.568 45.525334a10.666667 10.666667 0 0 1-15.104 0l-153.002666-152.96a10.666667 10.666667 0 0 1 0-15.104l45.568-45.568a117.333333 117.333333 0 0 1 165.973333 0zM459.946667 481.28a32 32 0 1 0-45.226667-45.226667L341.333333 509.44l-20.053333-20.053333a32 32 0 0 0-45.226667 0l-75.733333 75.733333a181.376 181.376 0 0 0-19.754667 233.088L94.72 884.053333a32 32 0 1 0 45.226667 45.226667l85.845333-85.845333a181.376 181.376 0 0 0 233.088-19.754667l75.733333-75.733333a32 32 0 0 0 0-45.226667l-20.053333-20.053333 73.386667-73.386667a32 32 0 1 0-45.226667-45.226667L469.333333 637.44 386.56 554.666667l73.386667-73.386667z m-141.397334 95.872l0.170667 0.128 0.128 0.170667 127.701333 127.701333 0.170667 0.128 0.128 0.170667 19.882667 19.882666-53.077334 53.12a117.333333 117.333333 0 0 1-165.973333 0l-2.133333-2.133333a117.333333 117.333333 0 0 1 0-165.973333L298.666667 557.312l19.882666 19.882667z" /></svg>