<svg class="icon" style="width: 1em;height: 1em;vertical-align: middle;fill: currentColor;overflow: hidden;" viewBox="0 0 1024 1024" version="1.1" xmlns="http://www.w3.org/2000/svg"><path d="M831.573333 237.653333a255.957333 255.957333 0 0 1-80.768 382.378667c-27.690667 14.976-61.013333 5.76-83.285333-16.469333l-247.04-247.082667c-22.272-22.272-31.488-55.594667-16.554667-83.285333A255.957333 255.957333 0 0 1 786.346667 192.426667l97.706666-97.706667a32 32 0 1 1 45.269334 45.226667l-97.706667 97.706666z m-86.058666 309.888a192 192 0 1 0-269.056-269.056c-11.349333 14.890667-7.936 35.541333 5.333333 48.768l214.912 214.954667c13.226667 13.226667 33.92 16.682667 48.810667 5.333333zM139.946667 929.28l97.706666-97.706667a255.957333 255.957333 0 0 0 382.378667-80.768c14.976-27.690667 5.76-61.013333-16.512-83.285333l-247.04-247.04c-22.272-22.272-55.594667-31.488-83.285333-16.554667A255.957333 255.957333 0 0 0 192.426667 786.346667l-97.706667 97.706666a32 32 0 1 0 45.226667 45.269334z m187.306666-447.488l214.954667 214.954667c13.226667 13.226667 16.64 33.877333 5.333333 48.768a192 192 0 1 1-269.056-269.056c14.890667-11.349333 35.541333-7.936 48.768 5.333333z" /></svg>