<svg class="icon" style="width: 1em;height: 1em;vertical-align: middle;fill: currentColor;overflow: hidden;" viewBox="0 0 1024 1024" version="1.1" xmlns="http://www.w3.org/2000/svg"><path d="M437.333333 85.333333a32 32 0 0 1 31.701334 27.648L469.333333 117.333333v204.544A266.794667 266.794667 0 0 1 702.165333 554.666667h204.544a32 32 0 0 1 4.352 63.701333l-4.352 0.298667h-204.544A266.794667 266.794667 0 0 1 469.333333 851.456v55.253333a32 32 0 0 1-63.744 4.352L405.333333 906.666667v-55.253334a266.794667 266.794667 0 0 1-232.746666-232.704H117.333333a32 32 0 0 1-4.352-63.744L117.333333 554.666667h55.210667A266.794667 266.794667 0 0 1 405.333333 321.877333V117.333333a32 32 0 0 1 32-32zM405.333333 618.666667H237.184A202.837333 202.837333 0 0 0 405.333333 786.858667V618.666667z m232.149334 0H469.333333v168.149333a202.837333 202.837333 0 0 0 168.149334-168.106667z m-232.106667-232.192A202.837333 202.837333 0 0 0 237.141333 554.666667H405.333333V386.474667z m64 0L469.333333 554.666667h168.192a202.88 202.88 0 0 0-158.976-166.485334L469.333333 386.474667z" /></svg>