<svg class="icon" style="width: 1em;height: 1em;vertical-align: middle;fill: currentColor;overflow: hidden;" viewBox="0 0 1024 1024" version="1.1" xmlns="http://www.w3.org/2000/svg"><path d="M501.418667 85.333333a117.418667 117.418667 0 0 1 117.418666 117.376V821.333333a117.418667 117.418667 0 1 1-234.837333 0V202.666667A117.418667 117.418667 0 0 1 501.418667 85.333333z m298.666666 213.333334a117.418667 117.418667 0 0 1 117.418667 117.376v405.290666a117.418667 117.418667 0 1 1-234.837333 0V416A117.418667 117.418667 0 0 1 800.085333 298.666667z m-597.333333 213.333333a117.418667 117.418667 0 0 1 117.418667 117.376v191.957333a117.418667 117.418667 0 0 1-234.837334 0V629.333333A117.418667 117.418667 0 0 1 202.752 512z m298.666667-362.666667c-29.525333 0-53.418667 23.893333-53.418667 53.376V821.333333a53.418667 53.418667 0 0 0 106.837333 0V202.666667c0-29.482667-23.893333-53.376-53.418666-53.376z m298.666666 213.333334c-29.482667 0-53.418667 23.893333-53.418666 53.376v405.290666a53.418667 53.418667 0 0 0 106.837333 0V416c0-29.482667-23.893333-53.376-53.418667-53.376z m-597.333333 213.333333c-29.525333 0-53.418667 23.893333-53.418667 53.376v191.957333a53.418667 53.418667 0 1 0 106.837334 0V629.333333c0-29.482667-23.893333-53.418667-53.418667-53.418666z" /></svg>