<svg class="icon" style="width: 1em;height: 1em;vertical-align: middle;fill: currentColor;overflow: hidden;" viewBox="0 0 1024 1024" version="1.1" xmlns="http://www.w3.org/2000/svg"><path d="M913.664 486.997333l-120.661333-120.661333A85.333333 85.333333 0 0 0 732.672 341.333333H291.328a85.333333 85.333333 0 0 0-60.330667 25.002667l-120.661333 120.661333A85.333333 85.333333 0 0 0 85.333333 547.328V597.333333a85.333333 85.333333 0 0 0 85.333334 85.333334h682.666666a85.333333 85.333333 0 0 0 85.333334-85.333334v-50.005333a85.333333 85.333333 0 0 0-25.002667-60.330667zM874.666667 597.333333a21.333333 21.333333 0 0 1-21.333334 21.333334H170.666667a21.333333 21.333333 0 0 1-21.333334-21.333334v-50.005333a21.162667 21.162667 0 0 1 6.229334-15.061333l120.704-120.661334a21.205333 21.205333 0 0 1 15.061333-6.272h441.344a21.205333 21.205333 0 0 1 15.061333 6.229334l120.704 120.704a21.12 21.12 0 0 1 6.229334 15.104V597.333333z m-181.333334-117.333333h-362.666666a32 32 0 1 0 0 64h362.666666a32 32 0 1 0 0-64z" /></svg>