<svg class="icon" style="width: 1em;height: 1em;vertical-align: middle;fill: currentColor;overflow: hidden;" viewBox="0 0 1024 1024" version="1.1" xmlns="http://www.w3.org/2000/svg"><path d="M647.338667 448a21.205333 21.205333 0 0 1 15.061333 6.229333l78.037333 78.037334a21.290667 21.290667 0 0 1 6.229334 15.061333V554.666667a21.333333 21.333333 0 0 1-21.333334 21.333333H298.666667a21.333333 21.333333 0 0 1-21.333334-21.333333v-7.338667a21.162667 21.162667 0 0 1 6.229334-15.061333l78.037333-78.037334a21.205333 21.205333 0 0 1 15.061333-6.229333h270.677334z m0-64H376.661333a85.333333 85.333333 0 0 0-60.330666 25.002667l-77.994667 77.994666A85.333333 85.333333 0 0 0 213.333333 547.328V554.666667a85.333333 85.333333 0 0 0 85.333334 85.333333h426.666666a85.333333 85.333333 0 0 0 85.333334-85.333333v-7.338667a85.333333 85.333333 0 0 0-25.002667-60.330667l-77.994667-77.994666A85.333333 85.333333 0 0 0 647.338667 384z" /></svg>