<svg class="icon" style="width: 1em;height: 1em;vertical-align: middle;fill: currentColor;overflow: hidden;" viewBox="0 0 1024 1024" version="1.1" xmlns="http://www.w3.org/2000/svg"><path d="M597.333333 714.666667A117.333333 117.333333 0 0 1 714.666667 597.333333h149.333333A117.333333 117.333333 0 0 1 981.333333 714.666667v149.333333A117.333333 117.333333 0 0 1 864 981.333333h-149.333333A117.333333 117.333333 0 0 1 597.333333 864v-149.333333z m117.333334-53.333334c-29.44 0-53.333333 23.893333-53.333334 53.333334v149.333333c0 29.44 23.893333 53.333333 53.333334 53.333333h149.333333c29.44 0 53.333333-23.893333 53.333333-53.333333v-149.333333c0-29.44-23.893333-53.333333-53.333333-53.333334h-149.333333zM256 469.333333v160A138.666667 138.666667 0 0 0 394.666667 768H554.666667v-53.333333c0-3.584 0.128-7.125333 0.341333-10.666667h-13.824l15.658667-15.658667a160.128 160.128 0 0 1 131.498666-131.498666l15.658667-15.658667v13.824c3.541333-0.213333 7.082667-0.341333 10.666667-0.341333H768V394.666667A138.666667 138.666667 0 0 0 629.333333 256H469.333333v53.333333c0 3.584-0.128 7.125333-0.341333 10.666667h24.32l-28.928 28.928a160.256 160.256 0 0 1-115.456 115.456l-28.928 28.928v-24.32a163.541333 163.541333 0 0 1-10.666667 0.341333H256z m327.850667-149.333333h45.482666c10.24 0 20.010667 2.048 28.885334 5.802667l-332.416 332.373333a74.453333 74.453333 0 0 1-5.802667-28.842667v-45.482666L583.850667 320z m-189.184 384c-7.338667 0-14.421333-1.066667-21.12-3.029333l327.424-327.424c1.962667 6.698667 3.029333 13.781333 3.029333 21.12v56.021333L450.645333 704H394.666667zM42.666667 160A117.333333 117.333333 0 0 1 160 42.666667h149.333333A117.333333 117.333333 0 0 1 426.666667 160v149.333333A117.333333 117.333333 0 0 1 309.333333 426.666667h-149.333333A117.333333 117.333333 0 0 1 42.666667 309.333333v-149.333333zM160 106.666667c-29.44 0-53.333333 23.893333-53.333333 53.333333v149.333333c0 29.44 23.893333 53.333333 53.333333 53.333334h149.333333c29.44 0 53.333333-23.893333 53.333334-53.333334v-149.333333c0-29.44-23.893333-53.333333-53.333334-53.333333h-149.333333z" /></svg>