<svg class="icon" style="width: 1em;height: 1em;vertical-align: middle;fill: currentColor;overflow: hidden;" viewBox="0 0 1024 1024" version="1.1" xmlns="http://www.w3.org/2000/svg"><path d="M800 938.666667A138.666667 138.666667 0 0 0 938.666667 800v-341.333333a138.666667 138.666667 0 0 0-138.666667-138.666667H746.666667V384h53.333333c41.216 0 74.666667 33.450667 74.666667 74.666667v341.333333a74.666667 74.666667 0 0 1-74.666667 74.666667h-341.333333A74.666667 74.666667 0 0 1 384 800V746.666667H320v53.333333A138.666667 138.666667 0 0 0 458.666667 938.666667h341.333333zM565.333333 704a138.666667 138.666667 0 0 0 138.666667-138.666667v-341.333333A138.666667 138.666667 0 0 0 565.333333 85.333333h-341.333333A138.666667 138.666667 0 0 0 85.333333 224v341.333333a138.666667 138.666667 0 0 0 138.666667 138.666667h341.333333zM640 565.333333A74.666667 74.666667 0 0 1 565.333333 640h-33.28L640 532.053333v33.28z m0-118.656L446.677333 640h-85.333333L640 361.344v85.333333zM270.848 640H224c-9.856 0-19.285333-1.92-27.946667-5.418667L634.581333 196.053333c3.498667 8.661333 5.418667 18.090667 5.418667 27.946667v46.848L270.848 640z m-118.186667-52.48a74.666667 74.666667 0 0 1-3.328-22.186667v-54.656L510.677333 149.333333h54.656c7.68 0 15.146667 1.152 22.186667 3.328L152.618667 587.52zM149.333333 420.138667V340.010667L340.010667 149.333333h80.170666L149.333333 420.181333z m0-170.666667V224c0-41.216 33.450667-74.666667 74.666667-74.666667h25.514667L149.333333 249.514667z" /></svg>