<svg class="icon" style="width: 1em;height: 1em;vertical-align: middle;fill: currentColor;overflow: hidden;" viewBox="0 0 1024 1024" version="1.1" xmlns="http://www.w3.org/2000/svg"><path d="M277.333333 704H224A138.666667 138.666667 0 0 1 85.333333 565.333333v-341.333333A138.666667 138.666667 0 0 1 224 85.333333h341.333333a138.666667 138.666667 0 0 1 138.666667 138.666667V277.333333h-70.485333L640 270.848V224c0-9.856-1.92-19.285333-5.418667-27.946667L553.386667 277.333333h-90.496l124.629333-124.672a74.666667 74.666667 0 0 0-22.144-3.328h-54.656L149.333333 510.677333v54.656c0 7.68 1.152 15.146667 3.328 22.186667L277.333333 462.805333v90.496l-81.28 81.28c8.661333 3.456 18.090667 5.376 27.946667 5.376h46.848l6.485333-6.485333V704z m142.848-554.666667H340.010667L149.333333 340.010667v80.170666L420.181333 149.333333z m-170.666666 0H224A74.666667 74.666667 0 0 0 149.333333 224v25.514667L249.514667 149.333333zM938.666667 800A138.666667 138.666667 0 0 1 800 938.666667h-341.333333a138.666667 138.666667 0 0 1-138.666667-138.666667v-341.333333a138.666667 138.666667 0 0 1 138.666667-138.666667h341.333333A138.666667 138.666667 0 0 1 938.666667 458.666667v341.333333z m-138.666667 74.666667a74.666667 74.666667 0 0 0 74.666667-74.666667v-341.333333A74.666667 74.666667 0 0 0 800 384h-341.333333A74.666667 74.666667 0 0 0 384 458.666667v341.333333c0 41.216 33.450667 74.666667 74.666667 74.666667h341.333333z" /></svg>