<svg class="icon" style="width: 1em;height: 1em;vertical-align: middle;fill: currentColor;overflow: hidden;" viewBox="0 0 1024 1024" version="1.1" xmlns="http://www.w3.org/2000/svg"><path d="M350.037333 205.653333a32 32 0 0 1 27.050667 58.026667A320.426667 320.426667 0 0 0 192 554.282667c0 176.981333 143.274667 320.426667 319.957333 320.426666s319.957333-143.445333 319.957334-320.426666a320.426667 320.426667 0 0 0-184.448-290.304 32 32 0 1 1 27.178666-57.941334 384.426667 384.426667 0 0 1 221.269334 348.245334c0 212.309333-171.904 384.426667-384 384.426666C299.904 938.666667 128 766.549333 128 554.24a384.426667 384.426667 0 0 1 222.037333-348.586667zM512 106.496a32 32 0 0 1 31.701333 27.648l0.298667 4.352v320a32 32 0 0 1-63.701333 4.352l-0.298667-4.352v-320a32 32 0 0 1 32-32z" /></svg>