<svg class="icon" style="width: 1em;height: 1em;vertical-align: middle;fill: currentColor;overflow: hidden;" viewBox="0 0 1024 1024" version="1.1" xmlns="http://www.w3.org/2000/svg"><path d="M512 85.333333c49.194667 0 95.573333 12.373333 136.064 34.133334-3.242667 18.986667-9.557333 32.426667-18.176 41.088a56.746667 56.746667 0 0 1-18.645333 11.946666 224 224 0 0 0-190.464 405.504c29.354667 11.434667 56.490667 17.749333 81.322666 19.072L512 597.333333c27.52 0 57.898667-6.4 91.178667-19.285333a225.152 225.152 0 0 0 95.658666-81.066667c27.306667 9.386667 60.117333 3.669333 80.810667-17.109333a288.554667 288.554667 0 0 1-82.218667 113.834667l69.162667 207.573333a74.666667 74.666667 0 0 1-34.56 88.874667C673.536 922.709333 600.064 938.666667 512 938.666667s-161.536-15.957333-220.032-48.512a74.666667 74.666667 0 0 1-34.56-88.874667l69.162667-207.573333A288 288 0 0 1 512 85.333333z m130.432 545.749334l-15.36 6.357333-0.768 0.341333a286.506667 286.506667 0 0 1-100.352 23.210667h-0.725333a46.08 46.08 0 0 1-3.114667 0.170667L512 661.333333l-8.362667-0.170666-5.546666-0.213334a285.141333 285.141333 0 0 1-100.394667-23.168l-0.768-0.341333a464.213333 464.213333 0 0 1-15.36-6.357333l-63.445333 190.421333a10.666667 10.666667 0 0 0 4.906666 12.714667c48.213333 26.752 111.061333 40.448 188.970667 40.448s140.8-13.653333 188.970667-40.448a10.666667 10.666667 0 0 0 4.906666-12.672l-63.445333-190.464z m-143.658667 29.952l4.864 0.128 1.408 0.085333 6.954667 0.085333c-4.437333 0-8.832-0.085333-13.226667-0.298666zM767.658667 80.213333L768 85.333333c0 49.066667 11.52 83.626667 33.28 105.386667 20.096 20.053333 51.114667 31.445333 94.293333 33.066667l11.093334 0.213333c40.874667 0 42.581333 58.794667 5.12 63.658667l-5.12 0.341333c-49.066667 0-83.626667 11.52-105.386667 33.28-20.053333 20.138667-31.445333 51.114667-33.066667 94.293333L768 426.666667c0 42.666667-64 42.666667-64 0 0-49.066667-11.52-83.626667-33.28-105.386667-20.138667-20.053333-51.114667-31.445333-94.293333-33.066667l-11.093334-0.213333c-40.874667 0-42.581333-58.794667-5.12-63.658667l5.12-0.341333c49.066667 0 83.626667-11.52 105.386667-33.28 21.76-21.76 33.28-56.32 33.28-105.386667 0-40.874667 58.794667-42.581333 63.658667-5.12z m-31.658667 131.114667l-6.144 8.661333a153.941333 153.941333 0 0 1-38.570667 36.010667 155.178667 155.178667 0 0 1 44.714667 44.672A155.136 155.136 0 0 1 780.672 256a155.178667 155.178667 0 0 1-38.528-36.010667l-6.144-8.661333z" /></svg>