<svg class="icon" style="width: 1em;height: 1em;vertical-align: middle;fill: currentColor;overflow: hidden;" viewBox="0 0 1024 1024" version="1.1" xmlns="http://www.w3.org/2000/svg"><path d="M767.957333 128a32 32 0 0 1 25.813334 13.056l2.346666 3.712 139.221334 257.194667 1.621333 3.968 0.512 1.706666 0.853333 4.352 0.256 4.010667a32 32 0 0 1-1.152 8.533333l-2.005333 5.333334-1.621333 2.944a33.834667 33.834667 0 0 1-1.706667 2.474666 31.872 31.872 0 0 1-1.493333 1.877334l0.810666-1.066667-32.64 37.034667A159.786667 159.786667 0 0 0 768 405.333333c-42.026667 0-80.213333 16.213333-108.8 42.666667H383.914667l128 327.978667 1.408-3.498667c-0.853333 5.461333-1.322667 11.093333-1.322667 16.853333v21.333334c0 27.776 6.314667 54.869333 18.133333 79.872a30.933333 30.933333 0 0 1-5.376 2.901333l-4.181333 1.408-3.328 0.725333L512 896l-4.266667-0.256-5.034666-1.109333a30.677333 30.677333 0 0 1-7.424-3.242667l-0.384-0.298667a28.757333 28.757333 0 0 1-5.546667-4.437333l-396.373333-449.962667-1.109334-1.365333-1.706666-2.517333a31.786667 31.786667 0 0 1-4.522667-12.842667L85.333333 416l0.128-2.816 0.554667-3.797333a31.018667 31.018667 0 0 1 1.024-3.669334l0.938667-2.517333 1.194666-2.432 138.666667-256a32 32 0 0 1 23.765333-16.469333L255.957333 128h512z m-452.693333 320h-127.146667l228.309334 259.157333L315.264 448z m67.498667-256H274.986667L170.965333 384h150.357334l61.44-192z m191.146666 0h-123.946666L388.48 384h246.826667l-61.44-192z m174.933334 0h-107.733334l61.44 192h150.272l-103.936-192zM853.333333 484.821333a116.778667 116.778667 0 0 1 32 80.512 117.333333 117.333333 0 1 1-32-80.512zM614.912 512h2.176a159.744 159.744 0 0 0-9.088 53.333333c0 30.08 8.32 58.24 22.741333 82.261334l-13.653333 35.072a106.581333 106.581333 0 0 0-87.381333 47.786666L614.912 512zM554.666667 789.333333a64 64 0 0 1 64-64h298.666666a64 64 0 0 1 64 64v21.333334c0 84.096-79.36 170.666667-213.333333 170.666666-110.08 0-183.210667-58.368-205.866667-125.866666A140.885333 140.885333 0 0 1 554.666667 810.666667v-21.333334z" /></svg>