<svg class="icon" style="width: 1em;height: 1em;vertical-align: middle;fill: currentColor;overflow: hidden;" viewBox="0 0 1024 1024" version="1.1" xmlns="http://www.w3.org/2000/svg"><path d="M139.946667 94.72a32 32 0 1 0-45.226667 45.226667l249.770667 249.813333A74.666667 74.666667 0 0 0 298.666667 458.666667V512h64v-53.333333l0.298666-2.432a10.666667 10.666667 0 0 1 10.368-8.234667h29.44l106.496 106.538667H160c-30.250667 0-43.605333 38.101333-20.010667 57.002666L341.333333 772.693333v70.186667a96 96 0 0 0 96 96h149.12a96 96 0 0 0 96-96V772.693333l25.002667-19.968 176.554667 176.597334a32 32 0 0 0 45.269333-45.269334L139.946667 94.72z m521.984 612.437333l-31.445334 25.173334a32 32 0 0 0-12.032 25.002666v85.546667a32 32 0 0 1-32 32H437.333333a32 32 0 0 1-32-32V757.333333a32 32 0 0 0-11.989333-24.96l-142.208-113.834666h322.133333l88.661334 88.661333zM512 341.333333c-14.677333 0-28.757333-2.432-41.898667-6.997333L390.997333 255.232A128 128 0 1 1 512 341.333333z m0-192a64 64 0 1 0 0 128 64 64 0 0 0 0-128zM863.744 554.538667H690.346667l117.674666 117.674666 75.776-60.672c23.594667-18.944 10.24-57.002667-20.010666-57.002666zM583.765333 448l-64-64h130.688a74.666667 74.666667 0 0 1 74.410667 68.565333l0.256 6.101334V512h-64v-53.333333a10.666667 10.666667 0 0 0-8.234667-10.368l-2.432-0.298667h-66.688z" /></svg>