<svg class="icon" style="width: 1em;height: 1em;vertical-align: middle;fill: currentColor;overflow: hidden;" viewBox="0 0 1024 1024" version="1.1" xmlns="http://www.w3.org/2000/svg"><path d="M863.744 554.538667c30.293333 0 43.648 38.101333 20.053333 57.002666l-201.344 161.152v70.186667a96 96 0 0 1-96 96H437.333333A96 96 0 0 1 341.333333 842.88V772.693333l-201.386666-161.152c-23.594667-18.901333-10.24-57.002667 20.010666-57.002666h703.786667z m-91.136 64H251.136l142.208 113.834666a32 32 0 0 1 11.989333 24.96v85.546667c0 17.664 14.336 32 32 32h149.12a32 32 0 0 0 32-32V757.333333a32 32 0 0 1 12.032-24.96l142.08-113.834666zM373.333333 384h277.12a74.666667 74.666667 0 0 1 74.410667 68.565333l0.256 6.101334V512h-64v-53.333333a10.666667 10.666667 0 0 0-8.234667-10.368l-2.432-0.298667H373.333333a10.666667 10.666667 0 0 0-10.368 8.234667l-0.298666 2.432V512H298.666667v-53.333333a74.666667 74.666667 0 0 1 68.522666-74.410667L373.333333 384h277.12H373.333333zM512 85.333333a128 128 0 1 1 0 256 128 128 0 0 1 0-256z m0 64a64 64 0 1 0 0 128 64 64 0 0 0 0-128z" /></svg>