<svg class="icon" style="width: 1em;height: 1em;vertical-align: middle;fill: currentColor;overflow: hidden;" viewBox="0 0 1024 1024" version="1.1" xmlns="http://www.w3.org/2000/svg"><path d="M128 864a32 32 0 0 0 64 0V160a32 32 0 1 0-64 0v704zM777.813333 873.6c49.408 35.413333 118.186667 0.085333 118.186667-60.672V206.08c0-59.050667-65.28-94.72-114.986667-62.848l-446.72 286.549333a74.666667 74.666667 0 0 0-3.157333 123.52l446.72 320.298667z m54.186667-60.672a10.666667 10.666667 0 0 1-16.896 8.661333l-446.72-320.298666a10.666667 10.666667 0 0 1 0.469333-17.621334l446.72-286.592a10.666667 10.666667 0 0 1 16.426667 8.96v606.890667z" /></svg>