<svg class="icon" style="width: 1em;height: 1em;vertical-align: middle;fill: currentColor;overflow: hidden;" viewBox="0 0 1024 1024" version="1.1" xmlns="http://www.w3.org/2000/svg"><path d="M193.024 266.666667a32 32 0 0 1 32-32H799.146667a32 32 0 0 1 32 32v149.333333a32 32 0 0 1-32 32H225.024a32 32 0 0 1-32-32v-149.333333z m64 32v85.333333H767.146667V298.666667H257.024zM607.146667 511.104a32 32 0 0 0-32 32v192c0 17.664 14.293333 32 32 32h192a32 32 0 0 0 32-32v-192a32 32 0 0 0-32-32h-192z m32 192v-128h128v128h-128zM193.024 565.333333a32 32 0 0 1 32-32h254.976a32 32 0 0 1 0 64H225.024a32 32 0 0 1-32-32zM225.024 682.666667a32 32 0 0 0 0 64h254.976a32 32 0 0 0 0-64H225.024zM85.333333 245.333333A117.333333 117.333333 0 0 1 202.666667 128h618.666666A117.333333 117.333333 0 0 1 938.666667 245.333333v533.333334A117.333333 117.333333 0 0 1 821.333333 896H202.666667A117.333333 117.333333 0 0 1 85.333333 778.666667V245.333333zM202.666667 192c-29.44 0-53.333333 23.893333-53.333334 53.333333v533.333334c0 29.44 23.893333 53.333333 53.333334 53.333333h618.666666c29.44 0 53.333333-23.893333 53.333334-53.333333V245.333333c0-29.44-23.893333-53.333333-53.333334-53.333333H202.666667z" /></svg>