<svg class="icon" style="width: 1em;height: 1em;vertical-align: middle;fill: currentColor;overflow: hidden;" viewBox="0 0 1024 1024" version="1.1" xmlns="http://www.w3.org/2000/svg"><path d="M672.085333 128a96 96 0 0 1 96 96v32.128h32a138.837333 138.837333 0 0 1 138.752 138.666667l0.128 255.872a95.957333 95.957333 0 0 1-95.914666 96H768v53.333333A96 96 0 0 1 672 896h-320A96 96 0 0 1 256 800V746.666667H181.333333A96 96 0 0 1 85.333333 650.666667V394.837333a138.666667 138.666667 0 0 1 138.666667-138.666666l31.957333-0.042667L256 224A96 96 0 0 1 352 128h320.085333z m-0.085333 448h-320a32 32 0 0 0-32 32v192c0 17.664 14.336 32 32 32h320a32 32 0 0 0 32-32v-192a32 32 0 0 0-32-32z m128.085333-255.829333H224a74.666667 74.666667 0 0 0-74.666667 74.666666v255.829334c0 17.664 14.336 32 32 32H256v-74.666667A96 96 0 0 1 352 512h320A96 96 0 0 1 768 608V682.666667h76.074667a31.957333 31.957333 0 0 0 30.890666-31.957334l-0.128-255.872a74.837333 74.837333 0 0 0-74.752-74.666666z m-128-128.170667H352a32 32 0 0 0-32 32l-0.042667 32.128h384.128V224a32 32 0 0 0-32-32z" /></svg>