<svg class="icon" style="width: 1em;height: 1em;vertical-align: middle;fill: currentColor;overflow: hidden;" viewBox="0 0 1024 1024" version="1.1" xmlns="http://www.w3.org/2000/svg"><path d="M981.333333 277.333333a234.666667 234.666667 0 1 0-469.333333 0 234.666667 234.666667 0 0 0 469.333333 0zM768 298.666667l0.042667 106.837333a21.333333 21.333333 0 1 1-42.666667 0V298.666667h-106.88a21.333333 21.333333 0 0 1 0-42.666667H725.333333V149.333333a21.333333 21.333333 0 0 1 42.666667 0V256h106.538667a21.333333 21.333333 0 0 1 0 42.666667H768z m106.965333 394.709333l-0.085333-170.069333a278.058667 278.058667 0 0 0 64-46.037334l0.085333 216.064a95.957333 95.957333 0 0 1-95.914666 96H768v53.333334A96 96 0 0 1 672 938.666667h-320A96 96 0 0 1 256 842.666667V789.333333H181.333333A96 96 0 0 1 85.333333 693.333333v-255.829333a138.666667 138.666667 0 0 1 138.666667-138.666667l31.957333-0.042666L256 266.666667A96 96 0 0 1 352 170.666667h138.581333a275.242667 275.242667 0 0 0-18.005333 64H352a32 32 0 0 0-32 32l-0.042667 32.128h150.186667c1.706667 22.186667 5.973333 43.605333 12.629333 64H224a74.666667 74.666667 0 0 0-74.666667 74.666666v255.872c0 17.664 14.336 32 32 32H256v-74.666666A96 96 0 0 1 352 554.666667h320A96 96 0 0 1 768 650.666667V725.333333h76.074667a31.957333 31.957333 0 0 0 30.890666-31.957333zM704 650.666667a32 32 0 0 0-32-32h-320a32 32 0 0 0-32 32v192c0 17.664 14.336 32 32 32h320a32 32 0 0 0 32-32v-192z" /></svg>