<svg class="icon" style="width: 1em;height: 1em;vertical-align: middle;fill: currentColor;overflow: hidden;" viewBox="0 0 1024 1024" version="1.1" xmlns="http://www.w3.org/2000/svg"><path d="M266.666667 149.333333A74.666667 74.666667 0 0 0 192 224v106.666667c0 41.216 33.450667 74.666667 74.666667 74.666666h106.666666a74.666667 74.666667 0 0 0 74.666667-74.666666v-106.666667A74.666667 74.666667 0 0 0 373.333333 149.333333h-106.666666z m309.333333 74.666667c0-41.216 33.450667-74.666667 74.666667-74.666667h106.666666c41.216 0 74.666667 33.450667 74.666667 74.666667v106.666667a74.666667 74.666667 0 0 1-74.666667 74.666666h-106.666666a74.666667 74.666667 0 0 1-74.666667-74.666666v-106.666667zM650.666667 213.333333a10.666667 10.666667 0 0 0-10.666667 10.666667v106.666667c0 5.888 4.778667 10.666667 10.666667 10.666666h106.666666a10.666667 10.666667 0 0 0 10.666667-10.666666v-106.666667a10.666667 10.666667 0 0 0-10.666667-10.666667h-106.666666zM298.666667 746.666667a64 64 0 1 0 0-128 64 64 0 0 0 0 128zM277.333333 554.666667h269.226667a277.802667 277.802667 0 0 1 93.269333-64H277.333333a192 192 0 1 0 0 384h223.232a275.456 275.456 0 0 1-23.808-64H277.333333a128 128 0 1 1 0-256z m170.666667 128c0 19.2 8.405333 36.352 21.76 48.085333a275.797333 275.797333 0 0 1 30.250667-110.933333A64 64 0 0 0 448 682.666667zM981.333333 746.666667a234.666667 234.666667 0 1 1-469.333333 0 234.666667 234.666667 0 0 1 469.333333 0z m-91.562666-100.437334a21.333333 21.333333 0 0 0-30.208 0L704 801.834667l-70.229333-70.272a21.333333 21.333333 0 0 0-30.208 30.208l85.333333 85.333333a21.333333 21.333333 0 0 0 30.208 0l170.666667-170.666667a21.333333 21.333333 0 0 0 0-30.208z" /></svg>