<svg class="icon" style="width: 1em;height: 1em;vertical-align: middle;fill: currentColor;overflow: hidden;" viewBox="0 0 1024 1024" version="1.1" xmlns="http://www.w3.org/2000/svg"><path d="M266.666667 149.333333A74.666667 74.666667 0 0 0 192 224v106.666667c0 41.216 33.450667 74.666667 74.666667 74.666666h106.666666a74.666667 74.666667 0 0 0 74.666667-74.666666v-106.666667A74.666667 74.666667 0 0 0 373.333333 149.333333h-106.666666z m309.333333 74.666667c0-41.216 33.450667-74.666667 74.666667-74.666667h106.666666c41.216 0 74.666667 33.450667 74.666667 74.666667v106.666667a74.666667 74.666667 0 0 1-74.666667 74.666666h-106.666666a74.666667 74.666667 0 0 1-74.666667-74.666666v-106.666667zM650.666667 213.333333a10.666667 10.666667 0 0 0-10.666667 10.666667v106.666667c0 5.888 4.778667 10.666667 10.666667 10.666666h106.666666a10.666667 10.666667 0 0 0 10.666667-10.666666v-106.666667a10.666667 10.666667 0 0 0-10.666667-10.666667h-106.666666zM298.666667 746.666667a64 64 0 1 0 0-128 64 64 0 0 0 0 128z m277.333333-64a64 64 0 1 1-128 0 64 64 0 0 1 128 0z m149.333333 64a64 64 0 1 0 0-128 64 64 0 0 0 0 128zM85.333333 682.666667a192 192 0 0 1 192-192h469.333334a192 192 0 1 1 0 384h-469.333334A192 192 0 0 1 85.333333 682.666667z m192-128a128 128 0 1 0 0 256h469.333334a128 128 0 1 0 0-256h-469.333334z" /></svg>