<svg class="icon" style="width: 1em;height: 1em;vertical-align: middle;fill: currentColor;overflow: hidden;" viewBox="0 0 1024 1024" version="1.1" xmlns="http://www.w3.org/2000/svg"><path d="M85.333333 458.666667a373.333333 373.333333 0 1 1 746.666667 0 373.333333 373.333333 0 0 1-746.666667 0z m373.333334-309.333334a309.333333 309.333333 0 0 0-240.213334 504.277334L653.653333 218.453333A308.053333 308.053333 0 0 0 458.666667 149.333333z m0 618.666667a309.333333 309.333333 0 0 0 240.213333-504.277333L263.68 698.88A308.053333 308.053333 0 0 0 458.666667 768z m106.666666 170.666667a371.797333 371.797333 0 0 1-236.928-84.821334 419.712 419.712 0 0 0 187.562667 16.896 309.333333 309.333333 0 0 0 354.773333-354.773333 419.754667 419.754667 0 0 0-16.896-187.562667A373.333333 373.333333 0 0 1 565.333333 938.666667z" /></svg>