<svg class="icon" style="width: 1em;height: 1em;vertical-align: middle;fill: currentColor;overflow: hidden;" viewBox="0 0 1024 1024" version="1.1" xmlns="http://www.w3.org/2000/svg"><path d="M149.333333 128A64 64 0 0 0 128 252.373333v312.96A160 160 0 0 0 288 725.333333h192v106.666667h-149.333333a32 32 0 0 0 0 64h362.666666a32 32 0 0 0 0-64h-149.333333V725.333333h192A160 160 0 0 0 896 565.333333V252.373333A64 64 0 0 0 874.666667 128h-725.333334z m42.666667 128h640v309.333333a96 96 0 0 1-96 96H288a96 96 0 0 1-96-96V256z" /></svg>