<svg class="icon" style="width: 1em;height: 1em;vertical-align: middle;fill: currentColor;overflow: hidden;" viewBox="0 0 1024 1024" version="1.1" xmlns="http://www.w3.org/2000/svg"><path d="M981.333333 277.333333a234.666667 234.666667 0 1 1-469.333333 0 234.666667 234.666667 0 0 1 469.333333 0z m-304.896-100.437333a21.333333 21.333333 0 0 0-30.208 30.208L716.501333 277.333333l-70.272 70.229334a21.333333 21.333333 0 0 0 30.208 30.208L746.666667 307.498667l70.229333 70.272a21.333333 21.333333 0 0 0 30.208-30.208L776.832 277.333333l70.272-70.229333a21.333333 21.333333 0 0 0-30.208-30.208L746.666667 247.168l-70.229334-70.272zM832 565.333333v-24.021333a276.096 276.096 0 0 0 64-30.250667v54.272A160 160 0 0 1 736 725.333333h-192v106.666667h149.333333a32 32 0 0 1 0 64h-362.666666a32 32 0 0 1 0-64h149.333333V725.333333h-192A160 160 0 0 1 128 565.333333V252.373333A64 64 0 0 1 149.333333 128h363.605334a275.712 275.712 0 0 0-42.794667 128H192v309.333333a96 96 0 0 0 96 96h448a96 96 0 0 0 96-96z" /></svg>