<svg class="icon" style="width: 1em;height: 1em;vertical-align: middle;fill: currentColor;overflow: hidden;" viewBox="0 0 1024 1024" version="1.1" xmlns="http://www.w3.org/2000/svg"><path d="M585.898667 756.565333l-43.733334-43.733333 45.226667-45.226667 43.776 43.733334a42.666667 42.666667 0 0 0 60.330667 0l169.173333-169.173334a42.666667 42.666667 0 0 0 0-60.330666l-169.173333-169.130667a42.666667 42.666667 0 0 0-60.330667 0l-43.733333 43.733333-45.226667-45.269333 43.690667-43.733333a106.666667 106.666667 0 0 1 150.869333 0l169.130667 169.130666a106.666667 106.666667 0 0 1 0 150.869334l-169.130667 169.130666a106.666667 106.666667 0 0 1-150.869333 0zM287.232 267.434667l-169.130667 169.130666a106.666667 106.666667 0 0 0 0 150.869334l169.130667 169.130666a106.666667 106.666667 0 0 0 150.869333 0l169.130667-169.130666a106.666667 106.666667 0 0 0 0-150.869334l-169.130667-169.130666a106.666667 106.666667 0 0 0-150.869333 0zM163.413333 481.834667l169.130667-169.130667a42.666667 42.666667 0 0 1 60.330667 0l169.173333 169.130667a42.666667 42.666667 0 0 1 0 60.330666l-169.173333 169.173334a42.666667 42.666667 0 0 1-60.330667 0l-169.130667-169.173334a42.666667 42.666667 0 0 1 0-60.330666z" /></svg>