<svg class="icon" style="width: 1em;height: 1em;vertical-align: middle;fill: currentColor;overflow: hidden;" viewBox="0 0 1024 1024" version="1.1" xmlns="http://www.w3.org/2000/svg"><path d="M361.045333 290.56l140.117334 580.949333c7.594667 31.445333 51.669333 33.066667 61.568 2.304l138.965333-431.914666 25.002667 89.429333a32 32 0 0 0 30.805333 23.381333h149.077333a32 32 0 0 0 0-64h-124.8l-47.146666-168.533333c-8.533333-30.592-51.541333-31.402667-61.269334-1.194667l-136.704 424.832L393.642667 152.490667c-7.765333-32.298667-53.546667-32.810667-62.037334-0.682667L241.92 490.709333H117.333333a32 32 0 0 0 0 64h149.162667a32 32 0 0 0 30.933333-23.808L361.045333 290.56z" /></svg>