<svg class="icon" style="width: 1em;height: 1em;vertical-align: middle;fill: currentColor;overflow: hidden;" viewBox="0 0 1024 1024" version="1.1" xmlns="http://www.w3.org/2000/svg"><path d="M799.957333 128a96 96 0 0 1 96 96v576.085333a96 96 0 0 1-96 96H224A96 96 0 0 1 128 800.085333V224A96 96 0 0 1 224 128h575.957333z m0 64H224a32 32 0 0 0-32 32v576.085333c0 17.664 14.336 32 32 32h575.957333a32 32 0 0 0 32-32V224a32 32 0 0 0-32-32z m-447.744 298.666667l66.432-151.509334a32 32 0 0 1 56.874667-3.413333l2.133333 4.352 101.589334 253.738667 42.794666-85.504a32 32 0 0 1 24.149334-17.365334l4.48-0.298666h85.333333a32 32 0 0 1 4.352 63.701333L736 554.666667h-65.578667l-65.792 131.413333a32 32 0 0 1-56.277333 1.877333l-2.048-4.266666-99.712-248.96-44.16 100.778666a32 32 0 0 1-24.618667 18.773334l-4.693333 0.384H288a32 32 0 0 1-4.352-63.701334l4.352-0.298666h64.213333l66.432-151.509334-66.432 151.466667z" /></svg>