<svg class="icon" style="width: 1em;height: 1em;vertical-align: middle;fill: currentColor;overflow: hidden;" viewBox="0 0 1024 1024" version="1.1" xmlns="http://www.w3.org/2000/svg"><path d="M341.333333 256H256v85.333333h85.333333V256zM128 224A96 96 0 0 1 224 128h149.333333A96 96 0 0 1 469.333333 224v149.333333A96 96 0 0 1 373.333333 469.333333h-149.333333A96 96 0 0 1 128 373.333333v-149.333333z m96-32a32 32 0 0 0-32 32v149.333333c0 17.664 14.336 32 32 32h149.333333a32 32 0 0 0 32-32v-149.333333a32 32 0 0 0-32-32h-149.333333zM256 682.666667h85.333333v85.333333H256v-85.333333zM128 650.666667A96 96 0 0 1 224 554.666667h149.333333A96 96 0 0 1 469.333333 650.666667v149.333333A96 96 0 0 1 373.333333 896h-149.333333A96 96 0 0 1 128 800v-149.333333z m96-32a32 32 0 0 0-32 32v149.333333c0 17.664 14.336 32 32 32h149.333333a32 32 0 0 0 32-32v-149.333333a32 32 0 0 0-32-32h-149.333333zM768 256h-85.333333v85.333333h85.333333V256zM650.666667 128A96 96 0 0 0 554.666667 224v149.333333A96 96 0 0 0 650.666667 469.333333h149.333333A96 96 0 0 0 896 373.333333v-149.333333A96 96 0 0 0 800 128h-149.333333z m-32 96a32 32 0 0 1 32-32h149.333333a32 32 0 0 1 32 32v149.333333a32 32 0 0 1-32 32h-149.333333a32 32 0 0 1-32-32v-149.333333zM554.666667 554.666667h117.333333v117.333333H554.666667V554.666667zM778.666667 672h-106.666667v106.666667H554.666667V896h117.333333v-117.333333h106.666667V896H896v-117.333333h-117.333333v-106.666667zM778.666667 672V554.666667H896v117.333333h-117.333333z" /></svg>