<svg class="icon" style="width: 1em;height: 1em;vertical-align: middle;fill: currentColor;overflow: hidden;" viewBox="0 0 1024 1024" version="1.1" xmlns="http://www.w3.org/2000/svg"><path d="M512 170.666667C394.069333 170.666667 298.666667 266.069333 298.666667 384a32 32 0 0 0 64 0c0-82.602667 66.730667-149.333333 149.333333-149.333333s149.333333 66.730667 149.333333 149.333333c0 36.352-9.472 60.586667-22.570666 79.36-13.824 19.754667-32.725333 35.114667-55.552 52.565333l-5.888 4.48c-43.093333 32.768-97.322667 73.984-97.322667 162.261334v10.666666a32 32 0 0 0 64 0V682.666667c0-56.192 30.464-79.488 76.16-114.432l1.962667-1.493334c22.485333-17.194667 48.938667-37.845333 69.12-66.730666 20.906667-29.909333 34.090667-66.986667 34.090666-116.010667 0-117.930667-95.402667-213.333333-213.333333-213.333333zM512 896a42.666667 42.666667 0 1 0 0-85.333333 42.666667 42.666667 0 0 0 0 85.333333z" /></svg>