<svg class="icon" style="width: 1em;height: 1em;vertical-align: middle;fill: currentColor;overflow: hidden;" viewBox="0 0 1024 1024" version="1.1" xmlns="http://www.w3.org/2000/svg"><path d="M128 245.333333A117.333333 117.333333 0 0 1 245.333333 128h533.333334A117.333333 117.333333 0 0 1 896 245.333333v267.605334a276.096 276.096 0 0 0-64-30.250667V245.333333c0-29.44-23.893333-53.333333-53.333333-53.333333H245.333333c-29.44 0-53.333333 23.893333-53.333333 53.333333v533.333334c0 29.44 23.893333 53.333333 53.333333 53.333333h237.354667c7.381333 22.784 17.578667 44.245333 30.250667 64H245.333333A117.333333 117.333333 0 0 1 128 778.666667V245.333333zM288 576h240.042667c-15.189333 19.413333-27.818667 40.96-37.461334 64H288a32 32 0 0 1 0-64zM437.333333 789.333333h-149.333333a32 32 0 0 1 0-64h149.333333a32 32 0 0 1 0 64zM426.666667 213.205333a32 32 0 0 1 29.610666 19.925334l95.914667 234.752a32 32 0 0 1-59.264 24.234666l-18.048-44.202666H378.368l-18.090667 44.202666a32 32 0 0 1-59.221333-24.234666l96-234.752A32 32 0 0 1 426.666667 213.205333z m-22.144 170.666667h44.245333L426.666667 329.813333 404.48 383.914667zM672 213.205333a32 32 0 0 1 32 32v53.333334h53.333333a32 32 0 0 1 0 64H704v53.333333a32 32 0 0 1-64 0v-53.333333h-53.333333a32 32 0 0 1 0-64H640v-53.333334a32 32 0 0 1 32-32zM981.333333 746.666667a234.666667 234.666667 0 1 0-469.333333 0 234.666667 234.666667 0 0 0 469.333333 0z m-213.333333 21.333333l0.042667 106.794667a21.333333 21.333333 0 1 1-42.666667 0V768h-106.88a21.333333 21.333333 0 1 1 0-42.666667H725.333333v-106.666666a21.333333 21.333333 0 1 1 42.666667 0V725.333333h106.794667a21.333333 21.333333 0 1 1 0 42.666667h-106.752z" /></svg>