<svg class="icon" style="width: 1em;height: 1em;vertical-align: middle;fill: currentColor;overflow: hidden;" viewBox="0 0 1024 1024" version="1.1" xmlns="http://www.w3.org/2000/svg"><path d="M376.576 352.853333a32 32 0 0 0-56.576 20.48v277.333334a32 32 0 1 0 64 0v-188.928l103.424 124.074666a32 32 0 0 0 49.152 0L640 461.738667v188.928a32 32 0 1 0 64 0v-277.333334a32 32 0 0 0-56.576-20.48L512 515.370667l-135.424-162.56zM266.666667 128A138.666667 138.666667 0 0 0 128 266.666667v490.666666A138.666667 138.666667 0 0 0 266.666667 896h490.666666A138.666667 138.666667 0 0 0 896 757.333333V266.666667A138.666667 138.666667 0 0 0 757.333333 128H266.666667zM192 266.666667c0-41.216 33.450667-74.666667 74.666667-74.666667h490.666666c41.216 0 74.666667 33.450667 74.666667 74.666667v490.666666a74.666667 74.666667 0 0 1-74.666667 74.666667H266.666667a74.666667 74.666667 0 0 1-74.666667-74.666667V266.666667z" /></svg>