<svg class="icon" style="width: 1em;height: 1em;vertical-align: middle;fill: currentColor;overflow: hidden;" viewBox="0 0 1024 1024" version="1.1" xmlns="http://www.w3.org/2000/svg"><path d="M362.666667 373.333333a32 32 0 0 0-49.749334-26.624l-64 42.666667a32 32 0 1 0 35.498667 53.248L298.666667 433.109333v217.557334a32 32 0 0 0 64 0v-277.333334z m384 0a32 32 0 0 0-49.749334-26.624l-64 42.666667a32 32 0 1 0 35.498667 53.248l14.250667-9.514667v217.557334a32 32 0 1 0 64 0v-277.333334zM554.666667 597.333333a42.666667 42.666667 0 1 1-85.333334 0 42.666667 42.666667 0 0 1 85.333334 0z m-42.666667-128a42.666667 42.666667 0 1 0 0-85.333333 42.666667 42.666667 0 0 0 0 85.333333zM224 170.666667A138.666667 138.666667 0 0 0 85.333333 309.333333v405.333334A138.666667 138.666667 0 0 0 224 853.333333h576A138.666667 138.666667 0 0 0 938.666667 714.666667v-405.333334A138.666667 138.666667 0 0 0 800 170.666667H224zM149.333333 309.333333c0-41.216 33.450667-74.666667 74.666667-74.666666h576c41.216 0 74.666667 33.450667 74.666667 74.666666v405.333334a74.666667 74.666667 0 0 1-74.666667 74.666666H224a74.666667 74.666667 0 0 1-74.666667-74.666666v-405.333334z" /></svg>