<svg class="icon" style="width: 1em;height: 1em;vertical-align: middle;fill: currentColor;overflow: hidden;" viewBox="0 0 1024 1024" version="1.1" xmlns="http://www.w3.org/2000/svg"><path d="M298.666667 661.333333a64 64 0 1 1-128 0 64 64 0 0 1 128 0z m0-298.666666a64 64 0 1 1-128 0 64 64 0 0 1 128 0z m298.666666 298.666666a64 64 0 1 1-128 0 64 64 0 0 1 128 0z m0-298.666666a64 64 0 1 1-128 0 64 64 0 0 1 128 0z m298.666667 298.666666a64 64 0 1 1-128 0 64 64 0 0 1 128 0z m0-298.666666a64 64 0 1 1-128 0 64 64 0 0 1 128 0z" /></svg>