<svg class="icon" style="width: 1em;height: 1em;vertical-align: middle;fill: currentColor;overflow: hidden;" viewBox="0 0 1024 1024" version="1.1" xmlns="http://www.w3.org/2000/svg"><path d="M661.333333 725.333333a64 64 0 1 1 0 128 64 64 0 0 1 0-128z m-298.666666 0a64 64 0 1 1 0 128 64 64 0 0 1 0-128z m298.666666-298.666666a64 64 0 1 1 0 128 64 64 0 0 1 0-128z m-298.666666 0a64 64 0 1 1 0 128 64 64 0 0 1 0-128z m298.666666-298.666667a64 64 0 1 1 0 128 64 64 0 0 1 0-128z m-298.666666 0a64 64 0 1 1 0 128 64 64 0 0 1 0-128z" /></svg>