<svg class="icon" style="width: 1em;height: 1em;vertical-align: middle;fill: currentColor;overflow: hidden;" viewBox="0 0 1024 1024" version="1.1" xmlns="http://www.w3.org/2000/svg"><path d="M676.736 89.258667a32 32 0 1 0-30.677333 56.149333c79.104 43.221333 137.216 97.536 175.018666 163.029333 37.845333 65.536 55.808 143.018667 53.674667 233.130667a32 32 0 0 0 64 1.493333c2.389333-101.376-18.304-190.464-62.250667-266.624-43.946667-76.117333-110.762667-138.538667-199.765333-187.178666z m-10.112 153.6a32 32 0 1 0-30.634667 56.234666c30.762667 16.768 55.338667 41.088 74.026667 73.472 18.688 32.426667 27.477333 65.834667 26.624 100.906667a32 32 0 0 0 64 1.536c1.109333-46.976-10.666667-91.989333-35.2-134.4-24.490667-42.453333-57.6-75.221333-98.816-97.706667zM384 170.666667a32 32 0 0 1 29.738667 20.181333l245.333333 618.709333a32 32 0 0 1-59.477333 23.594667L523.008 640H244.992l-76.586667 193.152a32 32 0 1 1-59.477333-23.594667l245.333333-618.666666A32 32 0 0 1 384 170.581333z m0 118.784L270.378667 576h227.242666L384 289.408z" /></svg>