<svg class="icon" style="width: 1em;height: 1em;vertical-align: middle;fill: currentColor;overflow: hidden;" viewBox="0 0 1024 1024" version="1.1" xmlns="http://www.w3.org/2000/svg"><path d="M426.666667 531.626667a42.666667 42.666667 0 0 1 14.933333-32.426667l120.533333-103.296a21.333333 21.333333 0 0 1 27.733334 0l120.576 103.338667a42.666667 42.666667 0 0 1 14.890666 32.384v129.706666a21.333333 21.333333 0 0 1-21.333333 21.333334h-74.666667a10.666667 10.666667 0 0 1-10.666666-10.666667V618.666667a21.333333 21.333333 0 0 0-21.333334-21.333334h-42.666666a21.333333 21.333333 0 0 0-21.333334 21.333334v53.333333a10.666667 10.666667 0 0 1-10.666666 10.666667H448a21.333333 21.333333 0 0 1-21.333333-21.333334v-129.706666zM298.666667 897.450667V778.666667c26.752 20.096 59.989333 32 96 32h362.666666a160 160 0 0 0 160-160V312.448A85.333333 85.333333 0 0 0 853.333333 170.666667H287.232A85.333333 85.333333 0 0 0 128 213.333333v684.117334c0 22.784 18.474667 41.216 41.216 41.216h88.234667A41.216 41.216 0 0 0 298.666667 897.450667zM213.333333 192a21.333333 21.333333 0 0 1 20.906667 17.066667l5.205333 25.6H853.333333a21.333333 21.333333 0 0 1 0 42.666666H234.666667v597.333334h-42.666667V213.333333a21.333333 21.333333 0 0 1 21.333333-21.333333z m181.333334 554.666667A96 96 0 0 1 298.666667 650.666667V341.333333h554.666666v309.333334a96 96 0 0 1-96 96h-362.666666z" /></svg>