<svg class="icon" style="width: 1em;height: 1em;vertical-align: middle;fill: currentColor;overflow: hidden;" viewBox="0 0 1024 1024" version="1.1" xmlns="http://www.w3.org/2000/svg"><path d="M213.333333 266.666667A96 96 0 0 1 309.333333 170.666667h362.666667A96 96 0 0 1 768 266.666667V597.333333h149.333333v138.666667a138.666667 138.666667 0 0 1-138.666666 138.666667H554.666667V810.666667h149.333333V266.666667a32 32 0 0 0-32-32h-362.666667a32 32 0 0 0-32 32V597.333333H213.333333V266.666667zM768 810.666667h10.666667A74.666667 74.666667 0 0 0 853.333333 736V661.333333h-85.333333V810.666667z m-160-106.666667H554.666667a106.24 106.24 0 0 0-21.333334-64h74.666667a32 32 0 0 1 0 64zM341.333333 373.333333A32 32 0 0 1 373.333333 341.333333h234.666667a32 32 0 0 1 0 64h-234.666667A32 32 0 0 1 341.333333 373.333333z m0 149.333334a32 32 0 0 1 32-32h234.666667a32 32 0 0 1 0 64h-234.666667a32 32 0 0 1-32-32zM42.666667 704A64 64 0 0 1 106.666667 640h341.333333a64 64 0 0 1 64 64v170.666667a64 64 0 0 1-64 64h-341.333333A64 64 0 0 1 42.666667 874.666667v-170.666667z m426.666666 21.333333a42.666667 42.666667 0 0 1-42.666666-42.666666H384a85.333333 85.333333 0 0 0 85.333333 85.333333v-42.666667z m0 85.333334a85.333333 85.333333 0 0 0-85.333333 85.333333h42.666667a42.666667 42.666667 0 0 1 42.666666-42.666667v-42.666666z m-341.333333-128a42.666667 42.666667 0 0 1-42.666667 42.666666v42.666667a85.333333 85.333333 0 0 0 85.333334-85.333333H128z m42.666667 213.333333a85.333333 85.333333 0 0 0-85.333334-85.333333v42.666666a42.666667 42.666667 0 0 1 42.666667 42.666667h42.666667z m181.333333-106.666667a74.666667 74.666667 0 1 0-149.333333 0 74.666667 74.666667 0 0 0 149.333333 0z" /></svg>