<svg class="icon" style="width: 1em;height: 1em;vertical-align: middle;fill: currentColor;overflow: hidden;" viewBox="0 0 1024 1024" version="1.1" xmlns="http://www.w3.org/2000/svg"><path d="M309.333333 85.333333A96 96 0 0 0 213.333333 181.333333v304.469334a106.666667 106.666667 0 0 1 64-6.784V181.333333a32 32 0 0 1 32-32h362.666667a32 32 0 0 1 32 32V725.333333H512v64h266.666667a138.666667 138.666667 0 0 0 138.666666-138.666666V512H768V181.333333A96 96 0 0 0 672 85.333333h-362.666667z m469.333334 640H768v-149.333333h85.333333v74.666667A74.666667 74.666667 0 0 1 778.666667 725.333333z m-325.632-162.517333c7.338667 3.669333 14.08 8.106667 20.266666 13.184h134.698667a32 32 0 0 0 0-64h-234.666667a31.872 31.872 0 0 0-14.762666 3.584l94.464 47.232zM373.333333 213.333333a32 32 0 0 0 0 64h234.666667a32 32 0 0 0 0-64h-234.666667z m0 149.333334a32 32 0 0 0 0 64h234.666667a32 32 0 0 0 0-64h-234.666667zM42.666667 835.114667v-176.896a64 64 0 0 1 35.413333-57.258667l149.333333-74.666667a64 64 0 0 1 57.173334 0l149.333333 74.666667a64 64 0 0 1 35.413333 57.258667v176.896a64 64 0 0 1-35.413333 57.258666l-149.333333 74.666667a64 64 0 0 1-57.173334 0l-149.333333-74.666667A64 64 0 0 1 42.666667 835.114667z m66.261333-172.672a21.333333 21.333333 0 0 0 9.514667 28.629333L234.666667 749.226667V874.666667a21.333333 21.333333 0 1 0 42.666666 0v-125.482667l116.224-58.112a21.333333 21.333333 0 1 0-19.114666-38.144L256 712.106667l-118.442667-59.221334a21.333333 21.333333 0 0 0-28.629333 9.514667z" /></svg>