<svg class="icon" style="width: 1em;height: 1em;vertical-align: middle;fill: currentColor;overflow: hidden;" viewBox="0 0 1024 1024" version="1.1" xmlns="http://www.w3.org/2000/svg"><path d="M309.333333 85.333333A96 96 0 0 0 213.333333 181.333333v225.536c11.093333 1.578667 21.802667 4.394667 32 8.277334 10.197333-3.882667 20.906667-6.698667 32-8.277334V181.333333a32 32 0 0 1 32-32h362.666667a32 32 0 0 1 32 32V725.333333h-213.333333v64h288a138.666667 138.666667 0 0 0 138.666666-138.666666V512H768V181.333333A96 96 0 0 0 672 85.333333h-362.666667z m469.333334 640H768v-149.333333h85.333333v74.666667A74.666667 74.666667 0 0 1 778.666667 725.333333z m-310.4-149.333333h139.733333a32 32 0 0 0 0-64h-166.186667a149.333333 149.333333 0 0 1 6.186667 42.666667v7.168c7.552 3.584 14.378667 8.405333 20.266667 14.165333zM375.637333 426.666667h232.362667a32 32 0 0 0 0-64h-234.666667a32 32 0 0 0-25.898666 50.773333c9.941333 3.456 19.370667 7.893333 28.16 13.226667zM373.333333 213.333333a32 32 0 0 0 0 64h234.666667a32 32 0 0 0 0-64h-234.666667zM42.666667 629.333333a32 32 0 0 1 32-32H85.333333v-42.666666a106.666667 106.666667 0 0 1 160-92.373334A106.666667 106.666667 0 0 1 405.333333 554.666667v42.666666h10.666667a32 32 0 0 1 32 32v256A96 96 0 0 1 352 981.333333h-213.333333A96 96 0 0 1 42.666667 885.333333v-256zM298.666667 554.666667v42.666666h42.666666v-42.666666a42.666667 42.666667 0 0 0-51.2-41.813334c5.504 12.8 8.533333 26.965333 8.533334 41.813334z m-64 42.666666v-42.666666a42.666667 42.666667 0 0 0-85.333334 0v42.666666h85.333334z" /></svg>