<svg class="icon" style="width: 1em;height: 1em;vertical-align: middle;fill: currentColor;overflow: hidden;" viewBox="0 0 1024 1024" version="1.1" xmlns="http://www.w3.org/2000/svg"><path d="M170.666667 266.666667A96 96 0 0 1 266.666667 170.666667h362.666666A96 96 0 0 1 725.333333 266.666667V597.333333h149.333334v138.666667a138.666667 138.666667 0 0 1-138.666667 138.666667h-426.666667A138.666667 138.666667 0 0 1 170.666667 736v-469.333333z m554.666666 394.666666V810.666667h10.666667A74.666667 74.666667 0 0 0 810.666667 736V661.333333h-85.333334zM661.333333 810.666667V266.666667a32 32 0 0 0-32-32h-362.666666a32 32 0 0 0-32 32v469.333333c0 41.216 33.450667 74.666667 74.666666 74.666667h352zM298.666667 373.333333A32 32 0 0 1 330.666667 341.333333h234.666666a32 32 0 0 1 0 64h-234.666666A32 32 0 0 1 298.666667 373.333333z m0 149.333334a32 32 0 0 1 32-32h234.666666a32 32 0 0 1 0 64h-234.666666a32 32 0 0 1-32-32z m0 149.333333a32 32 0 0 1 32-32h106.666666a32 32 0 0 1 0 64h-106.666666a32 32 0 0 1-32-32z" /></svg>