<svg class="icon" style="width: 1em;height: 1em;vertical-align: middle;fill: currentColor;overflow: hidden;" viewBox="0 0 1024 1024" version="1.1" xmlns="http://www.w3.org/2000/svg"><path d="M213.333333 181.333333A96 96 0 0 1 309.333333 85.333333h362.666667A96 96 0 0 1 768 181.333333V512h149.333333v138.666667a138.666667 138.666667 0 0 1-138.666666 138.666666h-227.242667a279.082667 279.082667 0 0 0 2.432-64H704V181.333333a32 32 0 0 0-32-32h-362.666667a32 32 0 0 0-32 32V469.333333a278.186667 278.186667 0 0 0-64 7.424V181.333333zM768 725.333333h10.666667A74.666667 74.666667 0 0 0 853.333333 650.666667V576h-85.333333V725.333333z m-160-149.333333h-112.042667A278.912 278.912 0 0 0 425.216 512h182.784a32 32 0 0 1 0 64zM341.333333 245.333333A32 32 0 0 1 373.333333 213.333333h234.666667a32 32 0 0 1 0 64h-234.666667A32 32 0 0 1 341.333333 245.333333z m0 149.333334a32 32 0 0 1 32-32h234.666667a32 32 0 0 1 0 64h-234.666667A32 32 0 0 1 341.333333 394.666667z m170.666667 352a234.666667 234.666667 0 1 0-469.333333 0 234.666667 234.666667 0 0 0 469.333333 0zM298.666667 768l0.042666 106.794667a21.333333 21.333333 0 1 1-42.666666 0V768H149.162667a21.333333 21.333333 0 0 1 0-42.666667H256v-106.666666a21.333333 21.333333 0 1 1 42.666667 0V725.333333h106.538666a21.333333 21.333333 0 0 1 0 42.666667H298.666667z" /></svg>