<svg class="icon" style="width: 1em;height: 1em;vertical-align: middle;fill: currentColor;overflow: hidden;" viewBox="0 0 1024 1024" version="1.1" xmlns="http://www.w3.org/2000/svg"><path d="M213.333333 181.333333A96 96 0 0 1 309.333333 85.333333h362.666667A96 96 0 0 1 768 181.333333V512h149.333333v138.666667a138.666667 138.666667 0 0 1-138.666666 138.666666h-227.242667a279.637333 279.637333 0 0 0 2.432-64H704V181.333333a32 32 0 0 0-32-32h-362.666667a32 32 0 0 0-32 32V469.333333a278.186667 278.186667 0 0 0-64 7.424V181.333333zM768 725.333333h10.666667A74.666667 74.666667 0 0 0 853.333333 650.666667V576h-85.333333V725.333333z m-160-106.666666h-84.565333A278.101333 278.101333 0 0 0 477.44 554.666667h130.56a32 32 0 0 1 0 64zM341.333333 288A32 32 0 0 1 373.333333 256h234.666667a32 32 0 0 1 0 64h-234.666667A32 32 0 0 1 341.333333 288z m0 149.333333a32 32 0 0 1 32-32h234.666667a32 32 0 0 1 0 64h-234.666667a32 32 0 0 1-32-32zM277.333333 512a234.666667 234.666667 0 1 1 0 469.333333 234.666667 234.666667 0 0 1 0-469.333333zM213.333333 638.293333v216.746667a21.333333 21.333333 0 0 0 33.578667 17.493333l154.794667-108.373333a21.333333 21.333333 0 0 0 0-34.986667l-154.794667-108.373333a21.333333 21.333333 0 0 0-33.578667 17.493333z" /></svg>