<svg class="icon" style="width: 1em;height: 1em;vertical-align: middle;fill: currentColor;overflow: hidden;" viewBox="0 0 1024 1024" version="1.1" xmlns="http://www.w3.org/2000/svg"><path d="M512 149.333333a362.666667 362.666667 0 1 0 0 725.333334 362.666667 362.666667 0 0 0 0-725.333334zM85.333333 512C85.333333 276.352 276.352 85.333333 512 85.333333s426.666667 191.018667 426.666667 426.666667-191.018667 426.666667-426.666667 426.666667S85.333333 747.648 85.333333 512z m256-106.666667A64 64 0 0 1 405.333333 341.333333h213.333334A64 64 0 0 1 682.666667 405.333333v213.333334a64 64 0 0 1-64 64h-213.333334A64 64 0 0 1 341.333333 618.666667v-213.333334z" /></svg>