<svg class="icon" style="width: 1em;height: 1em;vertical-align: middle;fill: currentColor;overflow: hidden;" viewBox="0 0 1024 1024" version="1.1" xmlns="http://www.w3.org/2000/svg"><path d="M85.333333 309.333333A138.666667 138.666667 0 0 1 224 170.666667h576A138.666667 138.666667 0 0 1 938.666667 309.333333v405.333334A138.666667 138.666667 0 0 1 800 853.333333H224A138.666667 138.666667 0 0 1 85.333333 714.666667v-405.333334zM224 234.666667A74.666667 74.666667 0 0 0 149.333333 309.333333v405.333334c0 41.216 33.450667 74.666667 74.666667 74.666666h576a74.666667 74.666667 0 0 0 74.666667-74.666666v-405.333334a74.666667 74.666667 0 0 0-74.666667-74.666666H224z" /></svg>