<svg class="icon" style="width: 1em;height: 1em;vertical-align: middle;fill: currentColor;overflow: hidden;" viewBox="0 0 1024 1024" version="1.1" xmlns="http://www.w3.org/2000/svg"><path d="M224 85.333333h213.333333a32 32 0 0 1 0 64h-213.333333A74.666667 74.666667 0 0 0 149.333333 224v133.376A181.930667 181.930667 0 0 0 85.333333 405.76V224A138.666667 138.666667 0 0 1 224 85.333333zM666.624 874.666667A181.930667 181.930667 0 0 1 618.24 938.666667h181.802667A138.666667 138.666667 0 0 0 938.666667 800v-213.333333a32 32 0 0 0-64 0v213.333333a74.666667 74.666667 0 0 1-74.666667 74.666667h-133.376zM906.666667 469.333333a32 32 0 0 0 32-32v-213.333333A138.666667 138.666667 0 0 0 800 85.333333h-213.333333a32 32 0 0 0 0 64h213.333333c41.216 0 74.666667 33.450667 74.666667 74.666667v213.333333c0 17.664 14.336 32 32 32zM224 384A138.666667 138.666667 0 0 0 85.333333 522.666667v277.333333A138.666667 138.666667 0 0 0 224 938.666667h277.333333A138.666667 138.666667 0 0 0 640 800v-277.333333A138.666667 138.666667 0 0 0 501.333333 384h-277.333333zM149.333333 522.666667c0-41.216 33.450667-74.666667 74.666667-74.666667H256V554.666667H149.333333v-32zM256 618.666667V725.333333H149.333333v-106.666666H256zM320 725.333333v-106.666666h85.333333V725.333333h-85.333333z m149.333333 0v-106.666666h106.666667V725.333333H469.333333z m-149.333333 64h85.333333v85.333334h-85.333333v-85.333334z m149.333333 0h106.666667v10.666667a74.666667 74.666667 0 0 1-74.666667 74.666667H469.333333v-85.333334z m0-341.333333h32c41.216 0 74.666667 33.450667 74.666667 74.666667V554.666667H469.333333v-106.666667zM405.333333 554.666667h-85.333333v-106.666667h85.333333V554.666667zM256 789.333333v85.333334h-32a74.666667 74.666667 0 0 1-74.666667-74.666667v-10.666667H256z" /></svg>