<svg class="icon" style="width: 1em;height: 1em;vertical-align: middle;fill: currentColor;overflow: hidden;" viewBox="0 0 1024 1024" version="1.1" xmlns="http://www.w3.org/2000/svg"><path d="M906.666667 554.666667a32 32 0 0 1 31.701333 27.648l0.298667 4.352v213.333333a138.666667 138.666667 0 0 1-130.816 138.453333L800 938.666667h-199.168c22.869333-16.426667 41.514667-38.4 53.973333-63.957334l145.194667-0.042666a74.666667 74.666667 0 0 0 74.410667-68.565334l0.256-6.101333v-213.333333a32 32 0 0 1 32-32z m-405.333334-170.666667A138.666667 138.666667 0 0 1 640 522.666667v277.333333A138.666667 138.666667 0 0 1 501.333333 938.666667h-277.333333A138.666667 138.666667 0 0 1 85.333333 800v-277.333333A138.666667 138.666667 0 0 1 224 384h277.333333z m0 64h-277.333333a74.666667 74.666667 0 0 0-74.666667 74.666667v277.333333c0 41.216 33.450667 74.666667 74.666667 74.666667h277.333333a74.666667 74.666667 0 0 0 74.666667-74.666667v-277.333333a74.666667 74.666667 0 0 0-74.666667-74.666667z m-242.730666 111.061333a21.333333 21.333333 0 0 1 25.429333-10.069333l3.498667 1.536 168.789333 92.074667a21.333333 21.333333 0 0 1 3.2 35.328l-3.2 2.133333-168.789333 92.074667a21.333333 21.333333 0 0 1-31.146667-14.933334L256 753.408v-184.106667a21.333333 21.333333 0 0 1 2.602667-10.24zM800 85.333333a138.666667 138.666667 0 0 1 138.453333 130.816L938.666667 224v213.333333a32 32 0 0 1-63.701334 4.352l-0.298666-4.352v-213.333333a74.666667 74.666667 0 0 0-68.522667-74.410667L800 149.333333h-213.333333a32 32 0 0 1-4.352-63.701333L586.666667 85.333333h213.333333z m-362.666667 0a32 32 0 0 1 4.352 63.701334l-4.352 0.298666h-213.333333a74.666667 74.666667 0 0 0-74.410667 68.522667L149.333333 224v145.152c-25.6 12.458667-47.530667 31.146667-64 54.016V224a138.666667 138.666667 0 0 1 130.816-138.453333L224 85.333333h213.333333z" /></svg>