<svg class="icon" style="width: 1em;height: 1em;vertical-align: middle;fill: currentColor;overflow: hidden;" viewBox="0 0 1024 1024" version="1.1" xmlns="http://www.w3.org/2000/svg"><path d="M266.666667 192A74.666667 74.666667 0 0 0 192 266.666667v64a32 32 0 0 1-64 0v-64A138.666667 138.666667 0 0 1 266.666667 128h64a32 32 0 0 1 0 64h-64zM832 266.666667a74.666667 74.666667 0 0 0-74.666667-74.666667h-64a32 32 0 0 1 0-64h64A138.666667 138.666667 0 0 1 896 266.666667v64a32 32 0 0 1-64 0v-64zM832 757.333333a74.666667 74.666667 0 0 1-74.666667 74.666667h-64a32 32 0 0 0 0 64h64A138.666667 138.666667 0 0 0 896 757.333333v-64a32 32 0 0 0-64 0v64zM192 757.333333c0 41.216 33.450667 74.666667 74.666667 74.666667h64a32 32 0 0 1 0 64h-64A138.666667 138.666667 0 0 1 128 757.333333v-64a32 32 0 0 1 64 0v64zM352 256A96 96 0 0 0 256 352v320A96 96 0 0 0 352 768h320A96 96 0 0 0 768 672v-320A96 96 0 0 0 672 256h-320zM320 352a32 32 0 0 1 32-32h320a32 32 0 0 1 32 32v320a32 32 0 0 1-32 32h-320a32 32 0 0 1-32-32v-320z" /></svg>