<svg class="icon" style="width: 1em;height: 1em;vertical-align: middle;fill: currentColor;overflow: hidden;" viewBox="0 0 1024 1024" version="1.1" xmlns="http://www.w3.org/2000/svg"><path d="M266.666667 192A74.666667 74.666667 0 0 0 192 266.666667v64a32 32 0 0 1-64 0v-64A138.666667 138.666667 0 0 1 266.666667 128h64a32 32 0 0 1 0 64h-64zM339.2 437.333333A96 96 0 0 1 435.2 341.333333h149.333333a96 96 0 0 1 96 96v149.333334A96 96 0 0 1 584.533333 682.666667h-149.333333a96 96 0 0 1-96-96v-149.333334z m96-32a32 32 0 0 0-32 32v149.333334c0 17.664 14.336 32 32 32h149.333333a32 32 0 0 0 32-32v-149.333334a32 32 0 0 0-32-32h-149.333333zM757.333333 192c41.216 0 74.666667 33.450667 74.666667 74.666667v64a32 32 0 0 0 64 0v-64A138.666667 138.666667 0 0 0 757.333333 128h-64a32 32 0 0 0 0 64h64zM757.333333 832a74.666667 74.666667 0 0 0 74.666667-74.666667v-64a32 32 0 0 1 64 0v64A138.666667 138.666667 0 0 1 757.333333 896h-64a32 32 0 0 1 0-64h64zM266.666667 832a74.666667 74.666667 0 0 1-74.666667-74.666667v-64a32 32 0 0 0-64 0v64A138.666667 138.666667 0 0 0 266.666667 896h64a32 32 0 0 0 0-64h-64z" /></svg>