<svg class="icon" style="width: 1em;height: 1em;vertical-align: middle;fill: currentColor;overflow: hidden;" viewBox="0 0 1024 1024" version="1.1" xmlns="http://www.w3.org/2000/svg"><path d="M864 85.333333c41.216 0 74.666667 33.408 74.666667 74.666667v129.792a117.333333 117.333333 0 0 1-63.018667 104.021333l-268.032 139.946667a213.333333 213.333333 0 1 1-191.232 0L148.352 393.813333A117.333333 117.333333 0 0 1 85.333333 289.792V160C85.333333 118.741333 118.784 85.333333 160 85.333333h704zM512 575.146667a149.333333 149.333333 0 1 0 0 298.666666 149.333333 149.333333 0 0 0 0-298.666666zM661.333333 149.333333h-298.666666v284.245334l144.384 75.392a10.666667 10.666667 0 0 0 9.898666 0L661.333333 433.493333V149.333333z m-362.666666 0H160a10.666667 10.666667 0 0 0-10.666667 10.666667v129.834667c0 19.882667 11.050667 38.101333 28.629334 47.274666L298.666667 400.085333V149.290667z m565.333333 0H725.333333v250.794667L846.037333 337.066667a53.333333 53.333333 0 0 0 28.629334-47.274667V160a10.666667 10.666667 0 0 0-10.666667-10.666667z" /></svg>