<svg class="icon" style="width: 1em;height: 1em;vertical-align: middle;fill: currentColor;overflow: hidden;" viewBox="0 0 1024 1024" version="1.1" xmlns="http://www.w3.org/2000/svg"><path d="M533.333333 234.794667c0-54.570667-63.872-84.053333-105.472-48.725334l-316.16 269.056a74.666667 74.666667 0 0 0 0 113.749334l316.16 269.056c41.6 35.370667 105.514667 5.802667 105.514667-48.768V619.093333l257.194667 218.88c41.557333 35.413333 105.514667 5.845333 105.514666-48.725333V234.837333c0-54.570667-63.914667-84.096-105.514666-48.725333l-257.194667 218.88V234.837333z m0 300.202666v-45.952l298.752-254.208v554.368L533.333333 534.997333z m-380.16-31.146666L469.333333 234.837333v554.368L153.173333 520.106667a10.666667 10.666667 0 0 1 0-16.213334z" /></svg>