<svg class="icon" style="width: 1em;height: 1em;vertical-align: middle;fill: currentColor;overflow: hidden;" viewBox="0 0 1024 1024" version="1.1" xmlns="http://www.w3.org/2000/svg"><path d="M512 85.333333a298.666667 298.666667 0 0 1 213.333333 507.648v313.685334a32 32 0 0 1-46.634666 28.501333l-3.84-2.346667L512 818.176l-162.816 114.645333a32 32 0 0 1-50.133333-21.674666L298.666667 906.666667l-0.085334-313.685334A298.666667 298.666667 0 0 1 512 85.333333z m149.333333 759.68v-202.282666A297.344 297.344 0 0 1 512 682.666667c-54.4 0-105.386667-14.506667-149.333333-39.936v202.24l130.858666-92.117334a32 32 0 0 1 32.554667-2.56l4.266667 2.56 130.986666 92.16v-202.282666 202.282666zM512 149.333333a234.666667 234.666667 0 1 0 0 469.333334 234.666667 234.666667 0 0 0 0-469.333334z" /></svg>