<svg class="icon" style="width: 1em;height: 1em;vertical-align: middle;fill: currentColor;overflow: hidden;" viewBox="0 0 1024 1024" version="1.1" xmlns="http://www.w3.org/2000/svg"><path d="M521.770667 240.725333l38.912 79.061334 87.210666 12.586666c8.96 1.28 12.501333 12.288 6.058667 18.56l-63.104 61.44 14.933333 86.869334a10.88 10.88 0 0 1-15.786666 11.477333L512 469.674667l-77.952 41.045333a10.88 10.88 0 0 1-15.786667-11.477333l14.933334-86.826667-63.146667-61.44a10.88 10.88 0 0 1 6.058667-18.602667l87.210666-12.586666 38.912-79.061334a10.88 10.88 0 0 1 19.541334 0zM810.666667 384a298.666667 298.666667 0 1 0-512 208.981333v313.685334l0.341333 4.48a32 32 0 0 0 50.133333 21.674666l162.816-114.645333 162.944 114.688 3.797334 2.304a32 32 0 0 0 46.592-28.501333l0.085333-313.685334A297.685333 297.685333 0 0 0 810.666667 384z m-149.333334 258.730667v202.282666l-130.986666-92.16-4.266667-2.56a32 32 0 0 0-32.554667 2.56l-130.816 92.16v-202.282666A297.344 297.344 0 0 0 512 682.666667c54.4 0 105.386667-14.506667 149.333333-39.936zM277.333333 384a234.666667 234.666667 0 1 1 469.333334 0 234.666667 234.666667 0 0 1-469.333334 0z" /></svg>