<svg class="icon" style="width: 1em;height: 1em;vertical-align: middle;fill: currentColor;overflow: hidden;" viewBox="0 0 1024 1024" version="1.1" xmlns="http://www.w3.org/2000/svg"><path d="M981.333333 277.333333a234.666667 234.666667 0 1 0-469.333333 0 234.666667 234.666667 0 0 0 469.333333 0zM768 298.666667l0.042667 106.794666a21.333333 21.333333 0 1 1-42.666667 0V298.666667h-106.88a21.333333 21.333333 0 0 1 0-42.666667H725.333333V149.333333a21.333333 21.333333 0 0 1 42.666667 0V256h106.538667a21.333333 21.333333 0 0 1 0 42.666667H768z m-298.666667-213.333334c23.978667 0 47.36 2.816 69.674667 8.149334a278.016 278.016 0 0 0-39.424 57.770666 234.666667 234.666667 0 1 0 148.138667 385.194667 275.882667 275.882667 0 0 0 67.925333 16.469333c-9.813333 14.293333-20.864 27.690667-32.938667 40.021334l-0.085333 313.685333a32 32 0 0 1-46.592 28.501333l-3.84-2.346666L469.333333 818.090667l-162.816 114.688a32 32 0 0 1-50.133333-21.717334L256 906.666667l-0.085333-313.685334A298.666667 298.666667 0 0 1 469.333333 85.333333z m149.333334 759.637334v-202.282667a297.301333 297.301333 0 0 1-149.333334 39.936c-54.4 0-105.386667-14.506667-149.333333-39.936v202.24l130.858667-92.117333a32 32 0 0 1 32.554666-2.56l4.266667 2.56 130.986667 92.16z" /></svg>