<svg class="icon" style="width: 1em;height: 1em;vertical-align: middle;fill: currentColor;overflow: hidden;" viewBox="0 0 1024 1024" version="1.1" xmlns="http://www.w3.org/2000/svg"><path d="M477.184 85.333333a53.333333 53.333333 0 0 0-51.541333 39.594667L225.706667 874.666667H117.333333a32 32 0 0 0 0 64h789.333334a32 32 0 0 0 0-64h-108.373334L598.314667 124.928A53.333333 53.333333 0 0 0 546.816 85.333333h-69.632zM291.968 874.666667l39.808-149.333334h254.890667a32 32 0 0 0 0-64H348.842667l22.784-85.333333h172.373333a32 32 0 0 0 0-64H388.693333l96.682667-362.666667h53.248l193.408 725.333334H291.968z" /></svg>