<svg class="icon" style="width: 1em;height: 1em;vertical-align: middle;fill: currentColor;overflow: hidden;" viewBox="0 0 1024 1024" version="1.1" xmlns="http://www.w3.org/2000/svg"><path d="M557.098667 317.056a106.666667 106.666667 0 1 1 150.869333 150.869333 106.666667 106.666667 0 0 1-150.869333-150.869333z m105.6 45.226667a42.666667 42.666667 0 1 0-60.330667 60.373333 42.666667 42.666667 0 0 0 60.330667-60.330667zM917.717333 184.448a117.333333 117.333333 0 0 0-77.269333-77.226667l-28.288-8.789333a288 288 0 0 0-288.981333 71.424l-42.496 42.453333a149.248 149.248 0 0 0-194.986667 13.952L232.746667 279.296a32 32 0 0 0 0 45.226667l67.882666 67.882666-7.68 7.68a74.666667 74.666667 0 0 0 0 105.6l21.162667 21.12-59.562667 33.962667a32 32 0 0 0-6.741333 50.432l165.930667 165.973333a32 32 0 0 0 50.389333-6.784l34.048-59.52 21.205333 21.205334a74.666667 74.666667 0 0 0 105.6 0l7.552-7.509334 67.84 67.84a32 32 0 0 0 45.226667 0l52.992-53.034666a149.205333 149.205333 0 0 0 13.994667-194.901334l42.581333-42.581333a288 288 0 0 0 71.381333-289.109333l-8.789333-28.330667z m-96.256-16.128c16.768 5.205333 29.909333 18.346667 35.114667 35.114667l8.832 28.330666a224 224 0 0 1-55.552 224.853334l-230.186667 230.229333a10.666667 10.666667 0 0 1-15.061333 0L338.176 460.373333a10.666667 10.666667 0 0 1 0-15.061333l230.229333-230.272a224 224 0 0 1 224.810667-55.509333l28.245333 8.746666z m-54.997333 422.229333c19.328 32.682667 14.933333 75.477333-13.141333 103.552l-30.378667 30.378667-45.226667-45.184 88.746667-88.746667zM331.008 271.530667a85.248 85.248 0 0 1 103.594667-13.141334l-88.746667 88.746667-45.226667-45.226667 30.378667-30.378666z m120.234667 392.448l-21.930667 38.272-106.666667-106.666667 38.314667-21.845333 90.282667 90.24zM285.44 784.853333a32 32 0 0 0-45.226667-45.269333l-105.642666 105.6a32 32 0 0 0 45.269333 45.226667l105.6-105.557334zM202.453333 656.64a32 32 0 0 1 0 45.226667l-45.226666 45.226666a32 32 0 1 1-45.269334-45.226666l45.226667-45.226667a32 32 0 0 1 45.269333 0zM368.298667 867.882667a32 32 0 1 0-45.226667-45.226667l-45.184 45.141333a32 32 0 0 0 45.226667 45.226667l45.226666-45.141333z" /></svg>