<svg class="icon" style="width: 1em;height: 1em;vertical-align: middle;fill: currentColor;overflow: hidden;" viewBox="0 0 1024 1024" version="1.1" xmlns="http://www.w3.org/2000/svg"><path d="M640.64 213.333333c3.584 0 7.125333 0.085333 10.666667 0.213334h0.725333a289.706667 289.706667 0 0 1 133.589333 37.674666C852.309333 289.706667 896 353.92 896 426.666667c0 72.874667-43.818667 137.216-110.762667 175.701333A291.541333 291.541333 0 0 1 640 640h-21.333333a32 32 0 1 1 0-64h21.333333c41.088 0 79.189333-10.026667 110.421333-27.136C799.744 521.813333 832 477.184 832 426.666667s-32.256-95.146667-81.578667-122.197334a228.565333 228.565333 0 0 0-100.821333-26.965333L640 277.333333H343.936l73.386667 73.386667a32 32 0 0 1-41.685334 48.341333L372.053333 395.946667h-0.042666l-128-128a32 32 0 0 1 0-45.226667l128-128 3.626666-3.114667a32 32 0 0 1 41.685334 48.298667L343.978667 213.333333H640.64z m229.290667 642.858667a21.333333 21.333333 0 0 1-10.666667 39.808H170.666667a42.666667 42.666667 0 0 1-42.666667-42.666667v-389.674666a21.333333 21.333333 0 0 1 32-18.474667l709.930667 411.008z m-169.557334-24.192L192 537.685333V832h508.373333z" /></svg>