<svg class="icon" style="width: 1em;height: 1em;vertical-align: middle;fill: currentColor;overflow: hidden;" viewBox="0 0 1024 1024" version="1.1" xmlns="http://www.w3.org/2000/svg"><path d="M383.36 213.333333c-3.584 0-7.125333 0.085333-10.666667 0.213334h-0.725333a289.706667 289.706667 0 0 0-133.632 37.674666C171.690667 289.706667 128 353.92 128 426.666667c0 72.874667 43.861333 137.216 110.72 175.701333 41.301333 23.722667 91.306667 37.632 145.28 37.632h21.333333a32 32 0 0 0 0-64H384a230.442667 230.442667 0 0 1-110.421333-27.136C224.256 521.813333 192 477.184 192 426.666667s32.256-95.146667 81.578667-122.197334a228.565333 228.565333 0 0 1 100.821333-26.965333L384 277.333333h296.064l-73.386667 73.386667a32 32 0 0 0 41.685334 48.341333l3.584-3.114666h0.042666l128-128a32 32 0 0 0 0-45.226667l-128-128-3.626666-3.114667a32 32 0 0 0-41.685334 48.298667v0.042667L680.064 213.333333H383.36zM154.026667 856.192a21.333333 21.333333 0 0 0 10.666666 39.808H853.333333a42.666667 42.666667 0 0 0 42.666667-42.666667v-389.674666a21.333333 21.333333 0 0 0-32-18.474667L154.026667 856.192z m169.557333-24.192L832 537.685333V832H323.626667z" /></svg>