<svg class="icon" style="width: 1em;height: 1em;vertical-align: middle;fill: currentColor;overflow: hidden;" viewBox="0 0 1024 1024" version="1.1" xmlns="http://www.w3.org/2000/svg"><path d="M512 149.333333A320 320 0 0 0 192 469.333333v10.666667a32 32 0 0 1-64 0V469.333333a384 384 0 0 1 768 0v10.666667a32 32 0 0 1-64 0V469.333333A320 320 0 0 0 512 149.333333zM512 277.333333A192 192 0 0 0 320 469.333333v10.666667a32 32 0 0 1-64 0V469.333333a256 256 0 1 1 512 0v10.666667a32 32 0 0 1-64 0V469.333333A192 192 0 0 0 512 277.333333zM512 341.333333a128 128 0 0 0-32 251.946667V682.666667H256a128 128 0 1 0 0 256h512a128 128 0 1 0 0-256h-224v-89.386667A128.042667 128.042667 0 0 0 512 341.333333z m-64 128a64 64 0 1 1 128 0 64 64 0 0 1-128 0zM256 746.666667h512a64 64 0 0 1 0 128H256a64 64 0 0 1 0-128z" /></svg>