<svg class="icon" style="width: 1em;height: 1em;vertical-align: middle;fill: currentColor;overflow: hidden;" viewBox="0 0 1024 1024" version="1.1" xmlns="http://www.w3.org/2000/svg"><path d="M170.666667 160.853333c0-41.216 33.450667-74.666667 74.666666-74.666666h533.333334c41.216 0 74.666667 33.450667 74.666666 74.666666v106.666667a74.666667 74.666667 0 0 1-74.666666 74.666667H245.333333A74.666667 74.666667 0 0 1 170.666667 267.52v-106.666667z m74.666666-10.666666a10.666667 10.666667 0 0 0-10.666666 10.666666v106.666667c0 5.888 4.778667 10.666667 10.666666 10.666667h533.333334a10.666667 10.666667 0 0 0 10.666666-10.666667v-106.666667a10.666667 10.666667 0 0 0-10.666666-10.666666H245.333333zM170.666667 459.52c0-41.216 33.450667-74.666667 74.666666-74.666667h533.333334c41.216 0 74.666667 33.450667 74.666666 74.666667v106.666667a74.666667 74.666667 0 0 1-74.666666 74.666666H245.333333A74.666667 74.666667 0 0 1 170.666667 566.186667v-106.666667z m74.666666-10.666667a10.666667 10.666667 0 0 0-10.666666 10.666667v106.666667c0 5.888 4.778667 10.666667 10.666666 10.666666h533.333334a10.666667 10.666667 0 0 0 10.666666-10.666666v-106.666667a10.666667 10.666667 0 0 0-10.666666-10.666667H245.333333zM245.333333 683.52A74.666667 74.666667 0 0 0 170.666667 758.186667v106.666666c0 41.216 33.450667 74.666667 74.666666 74.666667h533.333334A74.666667 74.666667 0 0 0 853.333333 864.853333v-106.666666a74.666667 74.666667 0 0 0-74.666666-74.666667H245.333333z m-10.666666 74.666667a10.666667 10.666667 0 0 1 10.666666-10.666667h533.333334a10.666667 10.666667 0 0 1 10.666666 10.666667v106.666666a10.666667 10.666667 0 0 1-10.666666 10.666667H245.333333a10.666667 10.666667 0 0 1-10.666666-10.666667v-106.666666z" /></svg>