<svg class="icon" style="width: 1em;height: 1em;vertical-align: middle;fill: currentColor;overflow: hidden;" viewBox="0 0 1024 1024" version="1.1" xmlns="http://www.w3.org/2000/svg"><path d="M288 320c-17.28 0-32-13.525333-32-30.805333v-2.346667c0-16.768 13.013333-30.762667 29.781333-30.848h2.218667C553.088 256 768 470.912 768 736v2.218667a30.336 30.336 0 0 1-30.848 29.781333h-2.346667c-17.28 0-30.805333-14.72-30.805333-32 0-229.76-186.24-416-416-416zM567.210667 768c16.213333 0 29.909333-12.245333 30.08-28.416L597.333333 736A309.333333 309.333333 0 0 0 284.416 426.666667c-16.170667 0.213333-28.416 13.952-28.416 30.122666v3.84c0 17.024 14.976 30.037333 32 30.037334a245.333333 245.333333 0 0 1 245.333333 245.333333c0 17.024 13.013333 32 30.037334 32h3.84zM384 704a64 64 0 1 1-128 0 64 64 0 0 1 128 0zM266.666667 128A138.666667 138.666667 0 0 0 128 266.666667v490.666666A138.666667 138.666667 0 0 0 266.666667 896h490.666666A138.666667 138.666667 0 0 0 896 757.333333V266.666667A138.666667 138.666667 0 0 0 757.333333 128H266.666667zM192 266.666667c0-41.216 33.450667-74.666667 74.666667-74.666667h490.666666c41.216 0 74.666667 33.450667 74.666667 74.666667v490.666666a74.666667 74.666667 0 0 1-74.666667 74.666667H266.666667a74.666667 74.666667 0 0 1-74.666667-74.666667V266.666667z" /></svg>