<svg class="icon" style="width: 1em;height: 1em;vertical-align: middle;fill: currentColor;overflow: hidden;" viewBox="0 0 1024 1024" version="1.1" xmlns="http://www.w3.org/2000/svg"><path d="M725.461333 159.957333a74.666667 74.666667 0 0 0-74.666666-74.666666H373.333333A74.666667 74.666667 0 0 0 298.666667 159.957333V650.325333a27.861333 27.861333 0 0 0 0 0.682667v213.077333c0 41.216 33.450667 74.666667 74.666666 74.666667h277.461334a74.666667 74.666667 0 0 0 74.666666-74.666667V159.957333zM362.666667 682.666667h160a32 32 0 0 0 0-64H362.666667v-74.752h117.333333a32 32 0 0 0 0-64H362.666667V405.333333h160a32 32 0 0 0 0-64H362.666667V277.248h117.333333a32 32 0 0 0 0-64H362.666667v-53.333333a10.666667 10.666667 0 0 1 10.666666-10.666667h277.461334a10.666667 10.666667 0 0 1 10.666666 10.666667v704.170666a10.666667 10.666667 0 0 1-10.666666 10.666667H373.333333a10.666667 10.666667 0 0 1-10.666666-10.666667V810.666667h117.333333a32 32 0 0 0 0-64H362.666667V682.666667z" /></svg>