<svg class="icon" style="width: 1em;height: 1em;vertical-align: middle;fill: currentColor;overflow: hidden;" viewBox="0 0 1024 1024" version="1.1" xmlns="http://www.w3.org/2000/svg"><path d="M453.973333 108.672a31.914667 31.914667 0 0 1 16.64 1.578667L779.178667 226.133333a31.914667 31.914667 0 0 1 1.066666 59.349334l-36.650666 15.274666a181.418667 181.418667 0 0 0-85.333334 73.344l-23.082666 38.058667c3.626667 23.509333 14.805333 53.333333 30.72 84.053333a486.4 486.4 0 0 0 53.290666 82.261334l101.632 50.816a117.248 117.248 0 0 1 64.768 104.874666v119.296a31.914667 31.914667 0 0 1-31.914666 31.914667h-35.712c-150.314667 0-320.853333-50.133333-462.506667-125.866667-140.202667-74.922667-259.84-179.2-298.24-292.821333a31.914667 31.914667 0 0 1 2.218667-25.514667c14.506667-26.624 30.122667-51.413333 46.378666-74.453333 7.424-10.453333 20.48-24.490667 31.445334-36.053333l7.893333-8.32a554.965333 554.965333 0 0 0 20.565333-22.272c14.208-15.744 34.133333-35.84 57.642667-57.002667 30.378667-27.392 67.413333-57.173333 106.666667-81.92 38.826667-24.448 81.834667-45.226667 123.946666-52.437333z m205.525334 497.109333a570.88 570.88 0 0 1-50.346667-80.341333c-16.128-31.274667-30.464-66.389333-36.266667-99.072l-54.357333-25.173333 67.114667 169.173333a31.914667 31.914667 0 0 1-0.213334 24.106667l-28.672 68.522666 51.797334 19.157334 50.944-76.373334z m12.458666 96.384c53.845333 15.488 82.304 23.552 149.845334 32.469334v-0.512c0-20.224-11.434667-38.698667-29.525334-47.786667l-82.304-41.130667-38.016 56.96z m149.845334 96.853334c-79.786667-10.24-111.274667-19.285333-170.666667-36.437334-11.648-3.370667-24.32-6.997333-38.656-11.050666a32.426667 32.426667 0 0 1-2.432-0.768l-106.666667-39.424a31.658667 31.658667 0 0 1-2.645333-1.109334c-88.618667-42.24-138.197333-73.386667-199.808-118.4-75.008-54.869333-130.730667-108.458667-167.082667-151.68-3.84 6.186667-7.594667 12.501333-11.264 18.944 35.370667 86.186667 133.674667 174.933333 263.04 244.096 134.442667 71.893333 294.698667 118.314667 432.384 118.314667h3.84v-22.485333zM172.458667 386.474667c25.429333 32.426667 66.986667 75.690667 125.226666 122.453333l18.133334-99.669333-74.666667-95.402667c-10.88 10.666667-20.266667 20.394667-27.690667 28.586667-5.546667 6.613333-14.506667 15.957333-23.125333 25.045333a3364.138667 3364.138667 0 0 0-17.877333 18.986667zM288.597333 270.933333l86.314667 110.336a31.914667 31.914667 0 0 1 6.272 25.386667l-26.453333 145.365333a987.093333 987.093333 0 0 0 143.36 85.930667l23.424-56.064-91.818667-231.424a31.914667 31.914667 0 0 1 43.093333-40.746667l117.034667 54.186667 13.909333-22.954667a245.290667 245.290667 0 0 1 81.578667-81.877333l-228.693333-85.802667c-28.202667 6.4-59.989333 21.418667-92.544 41.941334-26.453333 16.64-52.224 36.181333-75.52 55.722666z" /></svg>