<svg class="icon" style="width: 1em;height: 1em;vertical-align: middle;fill: currentColor;overflow: hidden;" viewBox="0 0 1024 1024" version="1.1" xmlns="http://www.w3.org/2000/svg"><path d="M338.773333 178.432L199.722667 317.397333a64 64 0 0 0 0 90.538667l167.424 167.381333a147.968 147.968 0 0 0-24.618667 65.92L154.453333 453.12a128 128 0 0 1 0-180.992L293.546667 133.12a128 128 0 0 1 180.992 0l147.029333 147.029333c-3.2 2.474667-6.272 5.12-9.130667 7.893334a116.608 116.608 0 0 0-60.032 13.44L429.226667 178.432a64 64 0 0 0-90.538667 0z m291.2 155.306667a77.824 77.824 0 0 0-21.973333-3.072c-46.762667 0-74.496 38.4-74.496 74.666666v156.714667A130.858667 130.858667 0 0 0 490.496 554.666667C430.848 554.666667 384 598.613333 384 661.333333c0 10.325333 4.992 20.053333 13.354667 26.026667l73.301333 52.437333 40.704 35.498667a480 480 0 0 1 72.96 79.786667l25.6 35.2A117.333333 117.333333 0 0 0 704.853333 938.666667h69.888c39.722667 0 77.824-20.181333 98.346667-55.936 12.885333-22.485333 28.842667-51.968 41.685333-81.152 12.202667-27.776 23.893333-60.288 23.893334-86.912v-256C938.666667 422.229333 910.592 384 864 384c-4.693333 0-9.173333 0.426667-13.525333 1.109333-8.192-29.056-33.792-54.442667-71.808-54.442666-7.765333 0-15.146667 1.109333-21.930667 3.114666A72.576 72.576 0 0 0 693.333333 298.666667c-29.141333 0-51.029333 14.933333-63.36 35.072z m71.082667 31.914666a11.52 11.52 0 0 1 2.944 7.594667v28.416a70.656 70.656 0 0 0 0 4.266667v159.402666a32 32 0 0 0 64 0V403.114667a9.301333 9.301333 0 0 1 2.474667-5.248 10.538667 10.538667 0 0 1 8.192-3.2c4.053333 0 6.272 1.408 7.68 2.986666 1.834667 1.962667 2.986667 4.864 2.986666 7.68v181.333334a32 32 0 0 0 64 0v-128c0-2.773333 1.109333-5.674667 2.986667-7.68 1.450667-1.578667 3.669333-2.986667 7.68-2.986667s6.229333 1.408 7.68 2.986667c1.877333 2.005333 2.986667 4.906667 2.986667 7.68v256c0 11.946667-6.357333 33.493333-18.474667 61.141333-11.52 26.24-26.24 53.546667-38.613333 75.050667a48.768 48.768 0 0 1-42.837334 23.808H704.853333c-17.066667 0-33.109333-8.192-43.136-22.016l-25.514666-35.157334a544.085333 544.085333 0 0 0-82.730667-90.453333l-41.898667-36.48a33.408 33.408 0 0 0-2.389333-1.92l-59.008-42.24c5.290667-17.408 20.309333-27.733333 40.362667-27.733333 27.178667 0 46.506667 17.066667 52.992 22.826666l1.28 1.109334a32 32 0 0 0 52.736-24.362667V405.333333c0-2.858667 1.152-5.802667 2.986666-7.722666 1.365333-1.578667 3.498667-2.944 7.509334-2.944 4.053333 0 6.272 1.408 7.68 2.986666 1.834667 1.962667 2.986667 4.864 2.986666 7.68v160a32 32 0 0 0 64 0V373.248a11.52 11.52 0 0 1 2.986667-7.594667c1.450667-1.578667 3.669333-2.986667 7.68-2.986666s6.229333 1.408 7.68 2.986666zM181.333333 597.333333a32 32 0 0 1 32 32v31.914667h31.829334a32 32 0 0 1 0 64H213.333333v32.256a32 32 0 0 1-64 0v-32.256H117.333333a32 32 0 0 1 0-64h32.042667v-31.914667a32 32 0 0 1 32-32z m170.666667 149.333334a32 32 0 0 1 32 32v31.914666h31.829333a32 32 0 0 1 0 64H384v32.256a32 32 0 0 1-64 0v-32.256H288a32 32 0 0 1 0-64h32.042667v-31.914666a32 32 0 0 1 32-32z" /></svg>