<svg class="icon" style="width: 1em;height: 1em;vertical-align: middle;fill: currentColor;overflow: hidden;" viewBox="0 0 1024 1024" version="1.1" xmlns="http://www.w3.org/2000/svg"><path d="M128 245.333333A117.333333 117.333333 0 0 1 245.333333 128h425.130667a138.666667 138.666667 0 0 1 98.090667 40.618667l86.826666 86.826666c26.026667 26.026667 40.618667 61.312 40.618667 98.090667v159.402667a276.096 276.096 0 0 0-64-30.250667V353.578667c0-19.84-7.850667-38.826667-21.888-52.821334l-86.826667-86.826666a74.666667 74.666667 0 0 0-40.618666-20.906667V309.333333a96 96 0 0 1-96 96h-192A96 96 0 0 1 298.666667 309.333333V192H245.333333c-29.44 0-53.333333 23.893333-53.333333 53.333333v533.333334c0 29.44 23.893333 53.333333 53.333333 53.333333H256v-224A96 96 0 0 1 352 512h246.784a278.784 278.784 0 0 0-70.741333 64H352a32 32 0 0 0-32 32v224h162.688c7.381333 22.784 17.578667 44.245333 30.250667 64H245.333333A117.333333 117.333333 0 0 1 128 778.666667V245.333333zM362.666667 192v117.333333c0 17.664 14.336 32 32 32h192a32 32 0 0 0 32-32V192h-256z m618.666666 554.666667a234.666667 234.666667 0 1 1-469.333333 0 234.666667 234.666667 0 0 1 469.333333 0z m-362.666666-21.333334a21.333333 21.333333 0 0 0 0 42.666667h204.501333l-70.272 70.229333a21.333333 21.333333 0 0 0 30.208 30.208l106.666667-106.666666a21.333333 21.333333 0 0 0 0-30.208l-106.666667-106.666667a21.333333 21.333333 0 0 0-30.208 30.208L823.168 725.333333H618.666667z" /></svg>