<svg class="icon" style="width: 1em;height: 1em;vertical-align: middle;fill: currentColor;overflow: hidden;" viewBox="0 0 1024 1024" version="1.1" xmlns="http://www.w3.org/2000/svg"><path d="M245.333333 128A117.333333 117.333333 0 0 0 128 245.333333v533.333334A117.333333 117.333333 0 0 0 245.333333 896h181.290667a90.112 90.112 0 0 1 2.645333-25.301333l9.685334-38.698667H320v-224a32 32 0 0 1 32-32h281.728l61.226667-61.226667A96.341333 96.341333 0 0 0 672 512h-320A96 96 0 0 0 256 608v224h-10.666667c-29.44 0-53.333333-23.893333-53.333333-53.333333V245.333333c0-29.44 23.893333-53.333333 53.333333-53.333333H298.666667v117.333333A96 96 0 0 0 394.666667 405.333333h192A96 96 0 0 0 682.666667 309.333333V192.981333c15.274667 2.56 29.525333 9.813333 40.618666 20.906667l86.826667 86.826667c14.037333 13.994667 21.888 32.981333 21.888 52.821333v73.429333c2.986667-0.213333 6.058667-0.298667 9.088-0.298666h0.085333c18.645333 0 37.333333 3.712 54.826667 11.136V353.578667a138.666667 138.666667 0 0 0-40.618667-98.090667l-86.826666-86.826667A138.666667 138.666667 0 0 0 670.464 128H245.333333zM362.666667 309.333333V192h256v117.333333a32 32 0 0 1-32 32h-192a32 32 0 0 1-32-32zM841.173333 469.333333h-0.085333c-24.96 0-49.92 9.514667-68.906667 28.586667l-251.818666 251.818667a114.517333 114.517333 0 0 0-30.165334 53.205333l-19.541333 78.122667a46.378667 46.378667 0 0 0 56.277333 56.234666l78.08-19.498666a114.517333 114.517333 0 0 0 53.248-30.165334l251.818667-251.818666A97.493333 97.493333 0 0 0 841.173333 469.333333z" /></svg>