<svg class="icon" style="width: 1em;height: 1em;vertical-align: middle;fill: currentColor;overflow: hidden;" viewBox="0 0 1024 1024" version="1.1" xmlns="http://www.w3.org/2000/svg"><path d="M245.333333 768A117.333333 117.333333 0 0 1 128 650.666667v-405.333334A117.333333 117.333333 0 0 1 245.333333 128h297.130667a138.666667 138.666667 0 0 1 98.090667 40.618667l86.826666 86.826666c26.026667 26.026667 40.618667 61.312 40.618667 98.090667v297.130667A117.333333 117.333333 0 0 1 650.666667 768h-405.333334zM192 245.333333v405.333334c0 29.44 23.893333 53.333333 53.333333 53.333333H256v-138.666667A96 96 0 0 1 352 469.333333h192A96 96 0 0 1 640 565.333333v138.666667h10.666667c29.44 0 53.333333-23.893333 53.333333-53.333333V353.536c0-19.84-7.850667-38.826667-21.888-52.821333L597.333333 215.936V266.666667a96 96 0 0 1-96 96h-106.666666A96 96 0 0 1 298.666667 266.666667V192H245.333333c-29.44 0-53.333333 23.893333-53.333333 53.333333z m384 458.666667v-138.666667a32 32 0 0 0-32-32h-192a32 32 0 0 0-32 32v138.666667h256z m-213.333333-437.333333c0 17.664 14.336 32 32 32h106.666666a32 32 0 0 0 32-32V192h-170.666666v74.666667zM458.666667 896a202.112 202.112 0 0 1-147.797334-64h382.464a138.666667 138.666667 0 0 0 138.666667-138.666667V360.106667l23.381333 23.381333c26.026667 25.984 40.618667 61.269333 40.618667 98.048v211.797333A202.666667 202.666667 0 0 1 693.333333 896h-234.666666z" /></svg>