<svg class="icon" style="width: 1em;height: 1em;vertical-align: middle;fill: currentColor;overflow: hidden;" viewBox="0 0 1024 1024" version="1.1" xmlns="http://www.w3.org/2000/svg"><path d="M430.122667 174.506667c22.613333 15.573333 44.245333 25.856 62.037333 28.16a214.357333 214.357333 0 0 0-20.053333 61.397333c-28.672-6.314667-55.936-21.461333-78.336-36.906667-11.093333-7.637333-21.504-15.786667-31.104-23.765333V298.666667a32 32 0 0 1-20.053334 29.696l-0.256 0.085333a101.12 101.12 0 0 0-7.082666 3.157333c-4.992 2.389333-12.245333 5.973333-20.736 10.837334A275.2 275.2 0 0 0 257.28 385.28c-19.328 19.370667-31.274667 45.354667-37.973333 65.536-8.661333 25.898667-30.677333 49.749333-61.994667 54.954667a9.557333 9.557333 0 0 0-7.978667 9.429333v74.794667c0 7.04 5.12 13.098667 12.074667 14.250666 26.624 4.437333 47.573333 21.802667 59.392 42.922667 10.709333 19.2 29.781333 48.810667 57.813333 76.885333 21.802667 21.76 47.189333 35.754667 67.626667 44.330667a224 224 0 0 0 33.024 10.837333h0.213333v0.042667A32 32 0 0 1 405.333333 810.666667v53.333333c0 5.888 4.778667 10.666667 10.666667 10.666667H469.333333a64 64 0 0 1 64-64h85.333334a64 64 0 0 1 64 64h53.333333a10.666667 10.666667 0 0 0 10.666667-10.666667V768c0-12.074667 6.826667-23.125333 17.578666-28.586667l0.554667-0.256a166.698667 166.698667 0 0 0 15.104-9.728c10.368-7.509333 24.405333-19.2 38.485333-35.584 27.818667-32.469333 56.277333-83.968 56.277334-160.512 0-42.965333-8.021333-77.653333-21.717334-106.154666 15.274667-20.224 26.794667-43.050667 34.048-67.2 4.266667 5.76 8.277333 11.776 12.032 18.048 25.770667 42.581333 39.637333 93.994667 39.637334 155.306666 0 94.122667-35.541333 160-71.68 202.154667A287.445333 287.445333 0 0 1 810.666667 785.962667v78.08A74.666667 74.666667 0 0 1 736 938.666667H682.666667a64 64 0 0 1-64-64h-85.333334A64 64 0 0 1 469.333333 938.666667H416A74.666667 74.666667 0 0 1 341.333333 864v-29.184a300.970667 300.970667 0 0 1-19.797333-7.466667A275.498667 275.498667 0 0 1 233.386667 769.28a420.821333 420.821333 0 0 1-68.48-90.88 20.906667 20.906667 0 0 0-14.037334-11.050667A78.421333 78.421333 0 0 1 85.333333 589.994667v-74.794667c0-35.968 26.026667-66.645333 61.44-72.533333 3.712-0.64 9.216-4.309333 11.818667-12.117334 8.192-24.576 24.106667-61.184 53.461333-90.496a338.944 338.944 0 0 1 70.741334-53.162666c5.802667-3.328 11.178667-6.186667 15.872-8.576V156.586667c0-40.021333 48.213333-56.448 74.24-30.549334 14.08 14.037333 34.56 32.768 57.216 48.384zM557.653333 377.514667c-20.906667-8.661333-38.570667-25.088-42.752-47.36a170.752 170.752 0 0 1 325.418667-96.810667 170.709333 170.709333 0 0 1-61.269333 206.208c-18.688 12.8-42.794667 11.946667-63.701334 3.285333l-157.696-65.28z m187.477334 7.68a106.752 106.752 0 0 0-103.253334-185.088A106.752 106.752 0 0 0 577.28 315.733333l0.896 0.64a22.826667 22.826667 0 0 0 3.925333 2.048l157.696 65.28a22.954667 22.954667 0 0 0 5.290667 1.536zM384 426.666667a42.666667 42.666667 0 1 1-85.333333 0 42.666667 42.666667 0 0 1 85.333333 0z" /></svg>