<svg class="icon" style="width: 1em;height: 1em;vertical-align: middle;fill: currentColor;overflow: hidden;" viewBox="0 0 1024 1024" version="1.1" xmlns="http://www.w3.org/2000/svg"><path d="M341.077333 402.602667a32 32 0 0 1 2.986667 45.141333l-28.202667 32.256h122.112a32 32 0 0 1 0 64H315.861333l28.202667 32.256a32 32 0 0 1-48.128 42.154667l-74.666667-85.333334a32 32 0 0 1 0-42.154666l74.666667-85.333334a32 32 0 0 1 45.141333-2.986666zM680.533333 447.744a32 32 0 0 1 48.213334-42.154667l74.666666 85.333334a32 32 0 0 1 0 42.154666l-74.666666 85.333334a32 32 0 0 1-48.213334-42.154667l28.245334-32.256H586.666667a32 32 0 0 1 0-64h122.112l-28.245334-32.256zM85.333333 266.666667A96 96 0 0 1 181.333333 170.666667h661.333334A96 96 0 0 1 938.666667 266.666667v490.666666A96 96 0 0 1 842.666667 853.333333H181.333333A96 96 0 0 1 85.333333 757.333333V266.666667z m96-32a32 32 0 0 0-32 32v490.666666c0 17.664 14.336 32 32 32h661.333334a32 32 0 0 0 32-32V266.666667a32 32 0 0 0-32-32H181.333333z" /></svg>