<svg class="icon" style="width: 1em;height: 1em;vertical-align: middle;fill: currentColor;overflow: hidden;" viewBox="0 0 1024 1024" version="1.1" xmlns="http://www.w3.org/2000/svg"><path d="M128 160A32 32 0 0 1 160 128h704a32 32 0 0 1 0 64h-44.458667l116.778667 286.592A32 32 0 0 1 938.666667 490.666667a149.333333 149.333333 0 1 1-298.666667 0 32 32 0 0 1 2.346667-12.074667L759.125333 192H544v512h170.666667a96 96 0 0 1 0 192H309.461333a96 96 0 0 1 0-192h170.538667v-512H264.874667l116.778666 286.592A32 32 0 0 1 384 490.666667a149.333333 149.333333 0 1 1-298.666667 0 32 32 0 0 1 2.346667-12.074667L204.458667 192H160A32 32 0 0 1 128 160z m149.461333 640c0 17.664 14.336 32 32 32h405.205334a32 32 0 0 0 0-64H309.461333a32 32 0 0 0-32 32z m36.352-277.333333h-158.293333a85.333333 85.333333 0 0 0 158.293333 0z m-9.386666-64L234.666667 287.488 164.906667 458.666667h139.52zM789.333333 576a85.333333 85.333333 0 0 0 79.146667-53.333333h-158.293333A85.333333 85.333333 0 0 0 789.333333 576z m-69.76-117.333333h139.52L789.333333 287.488l-69.76 171.178667z" /></svg>