<svg class="icon" style="width: 1em;height: 1em;vertical-align: middle;fill: currentColor;overflow: hidden;" viewBox="0 0 1024 1024" version="1.1" xmlns="http://www.w3.org/2000/svg"><path d="M256 288A32 32 0 0 1 288 256h106.666667a32 32 0 0 1 0 64h-29.44l73.386666 73.386667a32 32 0 1 1-45.226666 45.226666L320 365.226667v29.482666a32 32 0 1 1-64 0V288zM736 768.042667a32 32 0 0 0 32-32V629.333333a32 32 0 0 0-64 0v29.44l-73.386667-73.386666a32 32 0 0 0-45.226666 45.226666l73.386666 73.429334h-29.44a32 32 0 0 0 0 64h106.666667zM758.613333 265.386667c6.058667 5.973333 9.386667 14.165333 9.386667 22.613333v106.666667a32 32 0 0 1-64 0v-29.44l-73.386667 73.386666a32 32 0 1 1-45.226666-45.226666l73.386666-73.386667h-29.44a32 32 0 0 1 0-64h106.666667a32 32 0 0 1 22.613333 9.386667zM256 736a32 32 0 0 0 32 32h106.709333a32 32 0 0 0 0-64h-29.44l73.386667-73.386667a32 32 0 0 0-45.269333-45.226666L320 658.773333v-29.44a32 32 0 0 0-64 0v106.666667zM128 224A96 96 0 0 1 224 128h576A96 96 0 0 1 896 224v576A96 96 0 0 1 800 896H224A96 96 0 0 1 128 800V224z m96-32a32 32 0 0 0-32 32v576c0 17.664 14.336 32 32 32h576a32 32 0 0 0 32-32V224a32 32 0 0 0-32-32H224z" /></svg>