<svg class="icon" style="width: 1em;height: 1em;vertical-align: middle;fill: currentColor;overflow: hidden;" viewBox="0 0 1024 1024" version="1.1" xmlns="http://www.w3.org/2000/svg"><path d="M512 85.333333c235.648 0 426.666667 191.018667 426.666667 426.666667s-191.018667 426.666667-426.666667 426.666667S85.333333 747.648 85.333333 512 276.352 85.333333 512 85.333333z m138.666667 526.165334l-1.664 3.072-2.688 3.882666-202.965334 249.728c22.229333 4.266667 45.184 6.485333 68.650667 6.485334a361.301333 361.301333 0 0 0 241.237333-91.861334l-88.917333-193.706666c-3.968 7.808-8.533333 15.317333-13.653333 22.4zM191.573333 682.026667a364.032 364.032 0 0 0 185.173334 166.570666L511.616 682.666667l-8.106667-0.213334-5.632-0.341333-306.304-0.085333z m667.306667-276.181334h-213.248c3.498667 4.394667 6.784 8.96 9.813333 13.653334a28.16 28.16 0 0 1 2.858667 3.797333l2.090667 3.84 1.664 3.498667c3.669333 6.741333 6.912 13.781333 9.642666 21.034666l128.682667 280.32A361.088 361.088 0 0 0 874.666667 512a362.666667 362.666667 0 0 0-15.786667-106.154667zM149.333333 512c0 36.906667 5.546667 72.533333 15.786667 106.069333h213.162667a171.093333 171.093333 0 0 1-9.813334-13.653333l-5.76-9.514667-154.197333-281.514666A360.96 360.96 0 0 0 149.333333 512z m278.186667-65.109333l-1.877333 3.029333a32 32 0 0 1-3.114667 4.096 106.666667 106.666667 0 0 0 78.506667 164.096h21.888a106.666667 106.666667 0 0 0-0.896-212.309333l-15.914667 0.085333-2.474667-0.213333a106.538667 106.538667 0 0 0-76.117333 41.216zM512 149.333333a361.6 361.6 0 0 0-260.138667 109.952l102.485334 187.178667c5.418667-12.970667 12.373333-25.173333 20.693333-36.309333l166.570667-259.626667A367.658667 367.658667 0 0 0 512 149.333333z m-17.322667 192.853334a172.8 172.8 0 0 1 30.336-0.384l307.370667 0.085333A363.690667 363.690667 0 0 0 622.293333 166.4l-12.458666-3.712-115.157334 179.498667z" /></svg>