<svg class="icon" style="width: 1em;height: 1em;vertical-align: middle;fill: currentColor;overflow: hidden;" viewBox="0 0 1024 1024" version="1.1" xmlns="http://www.w3.org/2000/svg"><path d="M105.941333 151.210667A138.026667 138.026667 0 0 0 85.333333 224v128a32 32 0 0 0 64 0v-128c0-8.789333 1.536-17.237333 4.309334-25.088l232.32 232.32-0.298667 0.256a52.906667 52.906667 0 0 1-1.28 0.981333l-65.792 36.266667c-43.306667 23.808-63.744 74.837333-45.013333 121.344l18.688 46.464c11.648 28.970667 36.522667 50.389333 66.432 59.178667l192.512 56.448c44.970667 13.184 93.312 0.298667 124.586666-31.146667l149.290667 149.333333a74.538667 74.538667 0 0 1-25.088 4.309334h-128a32 32 0 0 0 0 64h128c26.709333 0 51.626667-7.552 72.789333-20.608l11.221334 11.264a32 32 0 0 0 45.269333-45.269334L139.946667 94.72a32 32 0 1 0-45.226667 45.226667l11.221333 11.264z m524.501334 524.501333a61.653333 61.653333 0 0 1-61.226667 15.018667l-192.512-56.448a38.058667 38.058667 0 0 1-25.045333-21.632l-18.730667-46.464c-5.802667-14.506667-0.298667-32.128 16.554667-41.386667l66.048-36.437333a33.706667 33.706667 0 0 0 2.730666-1.536h0.042667l0.341333-0.256 0.512-0.341334 0.597334-0.426666 0.256-0.128a100.394667 100.394667 0 0 0 11.392-9.045334l199.04 199.082667z m-172.586667-353.621333l47.274667 47.317333c3.072-5.845333 5.973333-11.178667 8.746666-16.341333l0.170667-0.298667c9.045333-16.810667 17.194667-31.957333 26.453333-53.333333a22.229333 22.229333 0 0 1 8.064-9.386667 11.861333 11.861333 0 0 1 10.026667-1.578667c12.544 3.285333 18.602667 9.344 22.186667 16.64 4.138667 8.32 5.888 19.925333 6.229333 35.541334 0.256 13.610667-2.901333 31.786667-7.424 49.877333-2.048 8.106667-4.266667 16-6.528 23.082667a32 32 0 0 0 4.736 28.416l6.912 6.912a32 32 0 0 0 18.901333 6.186666h49.792c29.482667 0 44.544 24.96 38.442667 44.416l-13.525333 43.008 51.029333 51.072 23.552-74.88c20.906667-66.474667-33.024-127.573333-99.498667-127.573333h-8.277333c3.498667-16.512 6.229333-34.901333 5.845333-51.84-0.341333-17.749333-2.176-41.130667-12.8-62.549333-12.117333-24.618667-33.621333-42.496-63.488-50.261334-47.616-12.373333-81.706667 21.333333-93.013333 47.573334-7.936 18.517333-14.890667 31.445333-23.808 48z m416.810667 416.853333l64 63.957333V672a32 32 0 0 0-64 0v66.901333zM221.141333 85.333333L285.098667 149.333333H352a32 32 0 0 0 0-64H221.141333zM874.666667 224a74.666667 74.666667 0 0 0-74.666667-74.666667h-128a32 32 0 0 1 0-64h128A138.666667 138.666667 0 0 1 938.666667 224v128a32 32 0 0 1-64 0v-128zM224 874.666667a74.666667 74.666667 0 0 1-74.666667-74.666667v-128a32 32 0 0 0-64 0v128A138.666667 138.666667 0 0 0 224 938.666667h128a32 32 0 0 0 0-64h-128z" /></svg>