<svg class="icon" style="width: 1em;height: 1em;vertical-align: middle;fill: currentColor;overflow: hidden;" viewBox="0 0 1024 1024" version="1.1" xmlns="http://www.w3.org/2000/svg"><path d="M224 149.333333A74.666667 74.666667 0 0 0 149.333333 224v128a32 32 0 0 1-64 0v-128A138.666667 138.666667 0 0 1 224 85.333333h128a32 32 0 0 1 0 64h-128z m576 0c41.216 0 74.666667 33.450667 74.666667 74.666667v128a32 32 0 0 0 64 0v-128A138.666667 138.666667 0 0 0 800 85.333333h-128a32 32 0 0 0 0 64h128zM149.333333 800c0 41.216 33.450667 74.666667 74.666667 74.666667h128a32 32 0 0 1 0 64h-128A138.666667 138.666667 0 0 1 85.333333 800v-128a32 32 0 0 1 64 0v128z m650.666667 74.666667a74.666667 74.666667 0 0 0 74.666667-74.666667v-128a32 32 0 0 1 64 0v128A138.666667 138.666667 0 0 1 800 938.666667h-128a32 32 0 0 1 0-64h128zM589.653333 351.018667a96 96 0 0 0-155.306666 0l-130.304 179.2C257.877333 593.664 303.189333 682.666667 381.696 682.666667h260.608c78.506667 0 123.818667-89.002667 77.653333-152.448l-130.304-179.2z m-103.552 37.632a32 32 0 0 1 51.797334 0l130.304 179.2a32 32 0 0 1-25.898667 50.816H381.696a32 32 0 0 1-25.898667-50.816l130.304-179.2z" /></svg>