<svg class="icon" style="width: 1em;height: 1em;vertical-align: middle;fill: currentColor;overflow: hidden;" viewBox="0 0 1024 1024" version="1.1" xmlns="http://www.w3.org/2000/svg"><path d="M224 149.333333A74.666667 74.666667 0 0 0 149.333333 224v128a32 32 0 0 1-64 0v-128A138.666667 138.666667 0 0 1 224 85.333333h128a32 32 0 0 1 0 64h-128z m0 725.333334a74.666667 74.666667 0 0 1-74.666667-74.666667v-128a32 32 0 0 0-64 0v128A138.666667 138.666667 0 0 0 224 938.666667h128a32 32 0 0 0 0-64h-128zM874.666667 224a74.666667 74.666667 0 0 0-74.666667-74.666667h-128a32 32 0 0 1 0-64h128A138.666667 138.666667 0 0 1 938.666667 224v128a32 32 0 0 1-64 0v-128zM330.666667 256a32 32 0 0 0-32 32V341.333333a32 32 0 0 0 64 0v-21.333333h117.333333v350.250667a276.906667 276.906667 0 0 1 64-112.896V320h117.333333V341.333333A32 32 0 0 0 725.333333 341.333333V288a32 32 0 0 0-32-32h-362.666666z m85.333333 448h56.576a279.637333 279.637333 0 0 0-2.432 64H416a32 32 0 0 1 0-64z m565.333333 42.666667a234.666667 234.666667 0 1 1-469.333333 0 234.666667 234.666667 0 0 1 469.333333 0z m-91.562666-100.437334a21.333333 21.333333 0 0 0-30.208 0L704 801.834667l-70.229333-70.272a21.333333 21.333333 0 0 0-30.208 30.208l85.333333 85.333333a21.333333 21.333333 0 0 0 30.208 0l170.666667-170.666667a21.333333 21.333333 0 0 0 0-30.208z" /></svg>