<svg class="icon" style="width: 1em;height: 1em;vertical-align: middle;fill: currentColor;overflow: hidden;" viewBox="0 0 1024 1024" version="1.1" xmlns="http://www.w3.org/2000/svg"><path d="M149.333333 224c0-41.216 33.450667-74.666667 74.666667-74.666667h128a32 32 0 0 0 0-64h-128A138.666667 138.666667 0 0 0 85.333333 224v128a32 32 0 0 0 64 0v-128z m725.333334 0a74.666667 74.666667 0 0 0-74.666667-74.666667h-128a32 32 0 0 1 0-64h128A138.666667 138.666667 0 0 1 938.666667 224v128a32 32 0 0 1-64 0v-128zM224 874.666667a74.666667 74.666667 0 0 1-74.666667-74.666667v-128a32 32 0 0 0-64 0v128A138.666667 138.666667 0 0 0 224 938.666667h128a32 32 0 0 0 0-64h-128z m650.666667-74.666667a74.666667 74.666667 0 0 1-74.666667 74.666667h-128a32 32 0 0 0 0 64h128A138.666667 138.666667 0 0 0 938.666667 800v-128a32 32 0 0 0-64 0v128zM574.677333 226.56c-47.616-12.373333-81.706667 21.290667-93.013333 47.530667-8.021333 18.730667-15.061333 31.744-24.106667 48.64l-0.042666 0.042666c-5.632 10.453333-11.989333 22.272-19.584 37.290667-15.616 31.104-30.848 50.218667-41.045334 60.970667a110.250667 110.250667 0 0 1-12.501333 11.434666l-65.792 36.266667c-43.306667 23.808-63.744 74.837333-45.013333 121.344l18.688 46.464c11.648 28.970667 36.522667 50.389333 66.432 59.178667l192.512 56.448c63.061333 18.474667 132.778667-14.293333 152.661333-77.525334l49.024-155.904c20.906667-66.474667-33.024-127.573333-99.498667-127.573333h-8.277333c3.498667-16.512 6.229333-34.901333 5.845333-51.84-0.341333-17.749333-2.176-41.130667-12.8-62.549333-12.117333-24.618667-33.621333-42.496-63.488-50.261334zM349.44 524.8l66.048-36.437333a33.706667 33.706667 0 0 0 2.730667-1.536h0.042666l0.341334-0.256 0.512-0.341334 0.597333-0.426666 0.256-0.128c1.322667-0.938667 3.157333-2.218667 5.376-4.010667 4.48-3.541333 10.666667-8.96 17.92-16.554667 14.506667-15.317333 33.365333-39.594667 51.797333-76.245333 7.168-14.208 13.184-25.386667 18.773334-35.84l0.170666-0.256c9.045333-16.810667 17.194667-31.957333 26.453334-53.333333a22.229333 22.229333 0 0 1 8.064-9.386667 11.861333 11.861333 0 0 1 10.026666-1.578667c12.544 3.285333 18.602667 9.344 22.186667 16.64 4.138667 8.32 5.888 19.925333 6.229333 35.541334 0.256 13.610667-2.901333 31.786667-7.424 49.877333-2.048 8.106667-4.266667 16-6.528 23.082667a32 32 0 0 0 30.549334 41.514666h49.792c29.482667 0 44.544 24.96 38.442666 44.416l-49.066666 155.904c-8.405333 26.88-40.704 44.928-73.557334 35.285334l-192.512-56.448a38.058667 38.058667 0 0 1-25.045333-21.632l-18.730667-46.464c-5.802667-14.506667-0.298667-32.128 16.554667-41.386667z" /></svg>