<svg class="icon" style="width: 1em;height: 1em;vertical-align: middle;fill: currentColor;overflow: hidden;" viewBox="0 0 1024 1024" version="1.1" xmlns="http://www.w3.org/2000/svg"><path d="M117.205333 640a32 32 0 0 1 31.701334 27.648l0.298666 4.352v149.418667l0.298667 5.461333a53.333333 53.333333 0 0 0 47.573333 47.616l5.461334 0.256h149.333333l4.352 0.298667a32 32 0 0 1 0 63.402666l-4.352 0.298667h-149.333333l-7.125334-0.213333a117.333333 117.333333 0 0 1-109.994666-109.653334l-0.213334-7.466666V672l0.298667-4.352A32 32 0 0 1 117.205333 640z m789.333334 0a32 32 0 0 1 31.701333 27.648l0.298667 4.352v149.418667a117.333333 117.333333 0 0 1-110.165334 117.12l-7.168 0.213333h-149.333333a32 32 0 0 1-4.352-63.701333l4.352-0.298667h149.333333a53.333333 53.333333 0 0 0 53.077334-47.872l0.256-5.461333V672a32 32 0 0 1 32-32z m-383.658667 21.333333a32 32 0 0 1 4.352 63.701334l-4.352 0.298666H330.666667a32 32 0 0 1-4.352-63.701333l4.352-0.298667h192.213333z m170.453333-181.333333a32 32 0 0 1 4.352 63.701333l-4.352 0.298667h-362.666666a32 32 0 0 1-4.352-63.701333l4.352-0.298667h362.666666zM351.872 85.333333a32 32 0 0 1 4.352 63.701334l-4.352 0.298666h-149.333333a53.333333 53.333333 0 0 0-53.034667 47.872l-0.298667 5.461334v149.418666a32 32 0 0 1-63.701333 4.352l-0.298667-4.352V202.666667A117.333333 117.333333 0 0 1 195.413333 85.546667L202.538667 85.333333h149.333333z m469.333333 0l7.168 0.213334a117.333333 117.333333 0 0 1 109.952 109.653333l0.213334 7.466667v149.418666l-0.298667 4.352a32 32 0 0 1-63.402667 0l-0.298666-4.352V202.666667l-0.256-5.461334a53.333333 53.333333 0 0 0-47.616-47.616l-5.461334-0.256h-149.333333l-4.352-0.298666a32 32 0 0 1 0-63.402667L671.872 85.333333h149.333333zM693.333333 298.666667a32 32 0 0 1 4.352 63.701333l-4.352 0.298667h-362.666666a32 32 0 0 1-4.352-63.701334L330.666667 298.666667h362.666666z" /></svg>