<svg class="icon" style="width: 1em;height: 1em;vertical-align: middle;fill: currentColor;overflow: hidden;" viewBox="0 0 1024 1024" version="1.1" xmlns="http://www.w3.org/2000/svg"><path d="M224 149.333333A74.666667 74.666667 0 0 0 149.333333 224v128a32 32 0 0 1-64 0v-128A138.666667 138.666667 0 0 1 224 85.333333h128a32 32 0 0 1 0 64h-128z m0 725.333334a74.666667 74.666667 0 0 1-74.666667-74.666667v-128a32 32 0 0 0-64 0v128A138.666667 138.666667 0 0 0 224 938.666667h128a32 32 0 0 0 0-64h-128zM874.666667 224a74.666667 74.666667 0 0 0-74.666667-74.666667h-128a32 32 0 0 1 0-64h128A138.666667 138.666667 0 0 1 938.666667 224v128a32 32 0 0 1-64 0v-128zM800 874.666667a74.666667 74.666667 0 0 0 74.666667-74.666667v-128a32 32 0 0 1 64 0v128A138.666667 138.666667 0 0 1 800 938.666667h-128a32 32 0 0 1 0-64h128zM330.666667 256a32 32 0 0 0-32 32V341.333333a32 32 0 0 0 64 0v-21.333333h117.333333v384h-64a32 32 0 0 0 0 64h192a32 32 0 0 0 0-64h-64v-384h117.333333V341.333333A32 32 0 0 0 725.333333 341.333333V288a32 32 0 0 0-32-32h-362.666666z" /></svg>