<svg class="icon" style="width: 1em;height: 1em;vertical-align: middle;fill: currentColor;overflow: hidden;" viewBox="0 0 1024 1024" version="1.1" xmlns="http://www.w3.org/2000/svg"><path d="M266.666667 128A138.666667 138.666667 0 0 0 128 266.666667v85.333333a32 32 0 0 0 64 0v-85.333333c0-41.216 33.450667-74.666667 74.666667-74.666667h85.333333a32 32 0 0 0 0-64h-85.333333z m405.333333 0a32 32 0 0 0 0 64h85.333333c41.216 0 74.666667 33.450667 74.666667 74.666667v85.333333a32 32 0 0 0 64 0v-85.333333A138.666667 138.666667 0 0 0 757.333333 128h-85.333333zM192 672a32 32 0 0 0-64 0v85.333333A138.666667 138.666667 0 0 0 266.666667 896h85.333333a32 32 0 0 0 0-64h-85.333333a74.666667 74.666667 0 0 1-74.666667-74.666667v-85.333333z m704 0a32 32 0 0 0-64 0v85.333333a74.666667 74.666667 0 0 1-74.666667 74.666667h-85.333333a32 32 0 0 0 0 64h85.333333A138.666667 138.666667 0 0 0 896 757.333333v-85.333333z m-576-192a32 32 0 0 0 0 64h384a32 32 0 0 0 0-64h-384z" /></svg>