<svg class="icon" style="width: 1em;height: 1em;vertical-align: middle;fill: currentColor;overflow: hidden;" viewBox="0 0 1024 1024" version="1.1" xmlns="http://www.w3.org/2000/svg"><path d="M758.741333 85.632c53.034667 0 94.592 42.666667 94.592 95.701333v170.453334c-13.653333-25.088-34.986667-47.786667-64-68.138667V181.632c0-17.664-12.928-32-30.592-32H266.965333a32 32 0 0 0-32 32l-0.298666 661.333333c0 17.664 14.634667 31.786667 32.298666 31.701334h57.856c32.128 0.085333 64.853333 0.298667 101.546667 0.213333l59.306667-0.256 17.493333 0.085333 64.853333-0.128c23.082667 11.306667 45.738667 16.64 50.688 18.474667-0.853333 20.650667 1.578667 35.84 7.381334 45.653333h-153.045334l-67.84 0.256c-49.493333 0-92.458667-0.298667-138.24-0.298666A96 96 0 0 1 170.666667 842.965333l0.298666-661.333333a96 96 0 0 1 96-96h491.776zM906.666667 554.666667a32 32 0 0 1 31.701333 27.690666l0.298667 4.309334v32c0 124.672-92.928 224-213.333334 239.104v48.896a32 32 0 0 1-63.701333 4.352l-0.298667-4.352v-48.896c-117.12-14.72-208.298667-109.141333-213.12-229.034667L448 618.666667v-32a32 32 0 0 1 63.701333-4.309334l0.298667 4.309334v32c0 100.181333 81.194667 177.066667 181.333333 177.066666 97.109333 0 176.384-72.32 181.12-168.021333l0.213334-9.045333v-32a32 32 0 0 1 32-32z m-213.333334-256a138.666667 138.666667 0 0 1 138.666667 138.666666v170.666667a138.666667 138.666667 0 1 1-277.333333 0v-170.666667A138.666667 138.666667 0 0 1 693.333333 298.666667z m0 64a74.666667 74.666667 0 0 0-74.666666 74.666666v170.666667a74.666667 74.666667 0 1 0 149.333333 0v-170.666667a74.666667 74.666667 0 0 0-74.666667-74.666666zM412.373333 554.666667c-1.536 1.536-3.2 5.12-4.906666 10.666666a70.826667 70.826667 0 0 0-2.176 19.072v34.261334H352a32 32 0 0 1-4.352-63.701334L352 554.666667h60.373333zM352 426.666667h160.170667l-0.341334 64H352a32 32 0 0 1-4.352-63.701334L352 426.666667z m224-128c-13.226667 11.264-22.442667 20.48-27.733333 27.733333-3.797333 5.162667-8.533333 12.8-14.122667 22.954667l-7.210667 13.312h-174.933333a32 32 0 0 1-4.352-63.701334L352 298.666667h224z" /></svg>