<svg class="icon" style="width: 1em;height: 1em;vertical-align: middle;fill: currentColor;overflow: hidden;" viewBox="0 0 1024 1024" version="1.1" xmlns="http://www.w3.org/2000/svg"><path d="M736 128A160 160 0 0 1 896 288v448A160 160 0 0 1 736 896H288A160 160 0 0 1 128 736V288A160 160 0 0 1 288 128h448z m0 64H288A96 96 0 0 0 192 288v448a96 96 0 0 0 96 96h448a96 96 0 0 0 96-96V288a96 96 0 0 0-96-96z m0 362.666667a32 32 0 0 1 32 32V682.666667a85.333333 85.333333 0 0 1-85.333333 85.333333h-96a32 32 0 0 1 0-64H682.666667a21.333333 21.333333 0 0 0 21.333333-21.333333v-96a32 32 0 0 1 32-32z m-448 0a32 32 0 0 1 32 32V682.666667a21.333333 21.333333 0 0 0 21.333333 21.333333h96a32 32 0 0 1 0 64H341.333333a85.333333 85.333333 0 0 1-85.333333-85.333333v-96a32 32 0 0 1 32-32zM341.333333 256h96a32 32 0 0 1 4.352 63.701333l-4.352 0.298667H341.333333a21.333333 21.333333 0 0 0-20.992 17.493333L320 341.333333v96a32 32 0 0 1-63.701333 4.352L256 437.333333V341.333333a85.333333 85.333333 0 0 1 78.933333-85.12L341.333333 256h96H341.333333z m341.333334 0a85.333333 85.333333 0 0 1 85.333333 85.333333v96a32 32 0 0 1-64 0V341.333333a21.333333 21.333333 0 0 0-21.333333-21.333333h-96a32 32 0 0 1 0-64H682.666667z" /></svg>