<svg class="icon" style="width: 1em;height: 1em;vertical-align: middle;fill: currentColor;overflow: hidden;" viewBox="0 0 1024 1024" version="1.1" xmlns="http://www.w3.org/2000/svg"><path d="M757.333333 128A138.666667 138.666667 0 0 1 896 266.666667v128a32 32 0 0 1-64 0v-128a74.666667 74.666667 0 0 0-74.666667-74.666667h-128a32 32 0 0 1 0-64h128zM266.666667 128A138.666667 138.666667 0 0 0 128 266.666667v128a32 32 0 0 0 64 0v-128c0-41.216 33.450667-74.666667 74.666667-74.666667h128a32 32 0 0 0 0-64h-128zM757.333333 896A138.666667 138.666667 0 0 0 896 757.333333v-128a32 32 0 0 0-64 0v128a74.666667 74.666667 0 0 1-74.666667 74.666667h-128a32 32 0 0 0 0 64h128zM128 757.333333A138.666667 138.666667 0 0 0 266.666667 896h128a32 32 0 0 0 0-64h-128a74.666667 74.666667 0 0 1-74.666667-74.666667v-128a32 32 0 0 0-64 0v128zM512 640a128 128 0 1 0 0-256 128 128 0 0 0 0 256z m0-64a64 64 0 1 1 0-128 64 64 0 0 1 0 128zM320 362.666667a42.666667 42.666667 0 1 0 0-85.333334 42.666667 42.666667 0 0 0 0 85.333334z" /></svg>