<svg class="icon" style="width: 1em;height: 1em;vertical-align: middle;fill: currentColor;overflow: hidden;" viewBox="0 0 1024 1024" version="1.1" xmlns="http://www.w3.org/2000/svg"><path d="M757.333333 128A138.666667 138.666667 0 0 1 896 266.666667v490.666666A138.666667 138.666667 0 0 1 757.333333 896H266.666667A138.666667 138.666667 0 0 1 128 757.333333V266.666667A138.666667 138.666667 0 0 1 266.666667 128h490.666666z m0 64H266.666667A74.666667 74.666667 0 0 0 192 266.666667v490.666666c0 41.216 33.450667 74.666667 74.666667 74.666667h490.666666a74.666667 74.666667 0 0 0 74.666667-74.666667V266.666667a74.666667 74.666667 0 0 0-74.666667-74.666667zM469.333333 309.333333a160 160 0 0 1 133.504 248.234667l102.442667 102.485333a32 32 0 0 1-41.642667 48.341334l-3.584-3.114667-102.485333-102.442667A160 160 0 1 1 469.333333 309.333333z m0 64a96 96 0 1 0 0 192 96 96 0 0 0 0-192z" /></svg>