<svg class="icon" style="width: 1em;height: 1em;vertical-align: middle;fill: currentColor;overflow: hidden;" viewBox="0 0 1024 1024" version="1.1" xmlns="http://www.w3.org/2000/svg"><path d="M805.632 284.074667a84.906667 84.906667 0 0 0 56.746667 14.08 85.333333 85.333333 0 1 0-56.746667-14.08zM85.333333 810.666667a85.333333 85.333333 0 1 0 170.666667 0 85.333333 85.333333 0 0 0-170.666667 0zM293.632 284.074667a84.906667 84.906667 0 0 0 56.746667 14.08A85.418667 85.418667 0 0 0 420.48 181.333333a85.333333 85.333333 0 1 0-126.848 102.741334z m-119.68 398.634666l102.570667-358.997333c18.133333 10.666667 39.125333 17.024 61.525333 17.578667L235.52 700.288A127.317333 127.317333 0 0 0 173.952 682.666667zM729.386667 245.333333h-264.106667a128.213333 128.213333 0 0 0 0-64h264.106667a128.213333 128.213333 0 0 0 0 64zM491.52 835.285333c5.12-20.565333 14.378667-39.808 27.050667-56.618666h-224a128.213333 128.213333 0 0 1 0 64h195.114666l1.834667-7.381334z m358.485333-493.994666l-43.136 151.04c-7.850667 5.12-15.274667 11.178667-22.186666 18.048l-69.376 69.418666 73.173333-256.085333c18.133333 10.666667 39.125333 17.024 61.525333 17.578667z m-35.114666 199.253333l-251.861334 251.861333a114.602667 114.602667 0 0 0-30.122666 53.205334l-19.541334 78.122666a46.378667 46.378667 0 0 0 56.277334 56.234667l78.08-19.498667a114.56 114.56 0 0 0 53.248-30.165333l251.818666-251.818667A97.536 97.536 0 0 0 814.933333 540.586667z" /></svg>