<svg class="icon" style="width: 1em;height: 1em;vertical-align: middle;fill: currentColor;overflow: hidden;" viewBox="0 0 1024 1024" version="1.1" xmlns="http://www.w3.org/2000/svg"><path d="M805.632 284.074667a84.906667 84.906667 0 0 0 56.746667 14.08 85.333333 85.333333 0 1 0-56.746667-14.08zM597.333333 810.666667a85.333333 85.333333 0 1 0 170.666667 0 85.333333 85.333333 0 0 0-170.666667 0zM170.666667 896a85.333333 85.333333 0 1 1 0-170.666667 85.333333 85.333333 0 0 1 0 170.666667zM293.632 284.074667a84.906667 84.906667 0 0 0 56.746667 14.08A85.418667 85.418667 0 0 0 420.48 181.333333a85.333333 85.333333 0 1 0-126.848 102.741334z m-17.109333 39.68L173.952 682.666667a127.317333 127.317333 0 0 1 61.525333 17.578666l102.570667-358.997333a127.317333 127.317333 0 0 1-61.525333-17.578667zM729.386667 245.333333h-264.106667a128.213333 128.213333 0 0 0 0-64h264.106667a128.213333 128.213333 0 0 0 0 64z m-170.666667 597.333334a128.213333 128.213333 0 0 1 0-64h-264.106667a128.213333 128.213333 0 0 1 0 64h264.106667z m127.232-159.957334l102.570667-358.997333c18.133333 10.666667 39.125333 17.024 61.525333 17.578667l-102.570667 358.997333A127.317333 127.317333 0 0 0 685.952 682.666667z" /></svg>