<svg class="icon" style="width: 1em;height: 1em;vertical-align: middle;fill: currentColor;overflow: hidden;" viewBox="0 0 1024 1024" version="1.1" xmlns="http://www.w3.org/2000/svg"><path d="M805.632 284.074667a84.906667 84.906667 0 0 0 56.746667 14.08 85.333333 85.333333 0 1 0-56.746667-14.08zM85.333333 810.666667a85.333333 85.333333 0 1 0 170.666667 0 85.333333 85.333333 0 0 0-170.666667 0zM293.632 284.074667a84.906667 84.906667 0 0 0 56.746667 14.08A85.418667 85.418667 0 0 0 420.48 181.333333a85.333333 85.333333 0 1 0-126.848 102.741334z m-119.68 398.634666l102.570667-358.997333c18.133333 10.666667 39.125333 17.024 61.525333 17.578667L235.52 700.288A127.317333 127.317333 0 0 0 173.952 682.666667zM729.386667 245.333333h-264.106667a128.213333 128.213333 0 0 0 0-64h264.106667a128.213333 128.213333 0 0 0 0 64z m-242.986667 597.333334a275.541333 275.541333 0 0 1-15.232-64H294.613333a128.213333 128.213333 0 0 1 0 64H486.4z m363.648-501.376l-38.741333 135.637333a278.272 278.272 0 0 0-64.426667-7.594667l41.642667-145.621333c18.133333 10.666667 39.125333 17.024 61.525333 17.578667zM981.333333 746.666667a234.666667 234.666667 0 1 1-469.333333 0 234.666667 234.666667 0 0 1 469.333333 0z m-304.896-100.437334a21.333333 21.333333 0 0 0-30.208 30.208l70.272 70.229334-70.272 70.229333a21.333333 21.333333 0 0 0 30.208 30.208l70.229334-70.272 70.229333 70.272a21.333333 21.333333 0 0 0 30.208-30.208L776.832 746.666667l70.272-70.229334a21.333333 21.333333 0 0 0-30.208-30.208L746.666667 716.501333l-70.229334-70.272z" /></svg>