<svg class="icon" style="width: 1em;height: 1em;vertical-align: middle;fill: currentColor;overflow: hidden;" viewBox="0 0 1024 1024" version="1.1" xmlns="http://www.w3.org/2000/svg"><path d="M298.666667 213.333333a85.333333 85.333333 0 1 1-170.666667 0 85.333333 85.333333 0 0 1 170.666667 0zM341.333333 202.666667c0 17.664 14.336 32 32 32h277.333334a32 32 0 0 0 0-64h-277.333334a32 32 0 0 0-32 32zM202.666667 341.333333a32 32 0 0 0-32 32v277.333334a32 32 0 0 0 64 0v-277.333334A32 32 0 0 0 202.666667 341.333333zM821.333333 341.333333a32 32 0 0 0-32 32v277.333334a32 32 0 0 0 64 0v-277.333334a32 32 0 0 0-32-32zM373.333333 853.333333a32 32 0 0 1 0-64h277.333334a32 32 0 0 1 0 64h-277.333334zM213.333333 896a85.333333 85.333333 0 1 0 0-170.666667 85.333333 85.333333 0 0 0 0 170.666667zM896 213.333333a85.333333 85.333333 0 1 1-170.666667 0 85.333333 85.333333 0 0 1 170.666667 0zM810.666667 896a85.333333 85.333333 0 1 0 0-170.666667 85.333333 85.333333 0 0 0 0 170.666667z" /></svg>