<svg class="icon" style="width: 1em;height: 1em;vertical-align: middle;fill: currentColor;overflow: hidden;" viewBox="0 0 1024 1024" version="1.1" xmlns="http://www.w3.org/2000/svg"><path d="M242.944 512L98.090667 139.605333c-10.069333-25.941333 15.189333-50.730667 40.192-41.898666l3.968 1.706666 768 384a32.085333 32.085333 0 0 1 11.264 47.957334 276.181333 276.181333 0 0 0-182.272-61.952L187.818667 193.706667l111.36 286.293333h282.752a32 32 0 0 1 30.890666 23.722667c-20.138667 11.093333-38.784 24.661333-55.466666 40.277333H299.136l-111.317333 286.293333 288.128-144.085333a278.272 278.272 0 0 0-6.272 74.666667l-327.424 163.754666c-24.874667 12.416-51.925333-10.453333-45.44-36.138666l1.28-4.096L242.944 512zM981.333333 746.666667a234.666667 234.666667 0 1 0-469.333333 0 234.666667 234.666667 0 0 0 469.333333 0z m-234.666666 0h85.333333a21.333333 21.333333 0 1 1 0 42.666666H725.333333a21.333333 21.333333 0 0 1-21.333333-21.333333v-128a21.333333 21.333333 0 0 1 42.666667 0v106.666667z" /></svg>