<svg class="icon" style="width: 1em;height: 1em;vertical-align: middle;fill: currentColor;overflow: hidden;" viewBox="0 0 1024 1024" version="1.1" xmlns="http://www.w3.org/2000/svg"><path d="M842.666667 490.666667a32 32 0 0 1 31.701333 27.648l0.298667 4.352v213.333333a202.666667 202.666667 0 0 1-193.408 202.453333L672 938.666667h-320c-41.813333 0-77.354667-26.709333-90.538667-64h410.538667l7.850667-0.213334a138.666667 138.666667 0 0 0 130.56-130.56L810.666667 736v-213.333333a32 32 0 0 1 32-32z m-106.666667-85.333334a32 32 0 0 1 31.701333 27.648l0.298667 4.352v298.666667a96 96 0 0 1-89.429333 95.786667l-6.570667 0.213333h-426.666667a96 96 0 0 1-95.786666-89.429333L149.333333 736v-298.666667a32 32 0 0 1 63.701334-4.352L213.333333 437.333333v298.666667c0 16.213333 12.032 29.610667 27.648 31.701333L245.333333 768h426.666667a32 32 0 0 0 31.701333-27.648l0.298667-4.352v-298.666667a32 32 0 0 1 32-32zM265.301333 265.216l170.581334-170.496a32 32 0 0 1 41.642666-3.114667l3.584 3.072 170.837334 170.538667a32 32 0 0 1-41.642667 48.384l-3.584-3.114667-116.053333-115.797333v413.525333a32 32 0 0 1-27.648 31.701334l-4.352 0.298666a32 32 0 0 1-31.701334-27.648L426.666667 608.213333V194.389333L310.570667 310.485333a32 32 0 0 1-41.685334 3.072l-3.584-3.072a32 32 0 0 1-3.072-41.685333l3.072-3.584 170.581334-170.496-170.581334 170.496z" /></svg>