<svg class="icon" style="width: 1em;height: 1em;vertical-align: middle;fill: currentColor;overflow: hidden;" viewBox="0 0 1024 1024" version="1.1" xmlns="http://www.w3.org/2000/svg"><path d="M501.333333 320a32 32 0 0 0 0 64c56.405333 0 115.712 32.384 145.493334 74.922667a32 32 0 1 0 52.437333-36.693334C657.621333 362.752 578.858667 320 501.333333 320zM405.333333 192a106.666667 106.666667 0 0 1 213.333334 0v37.546667a351.786667 351.786667 0 0 1 245.333333 335.786666 32 32 0 0 1-32 32h-640a32 32 0 0 1-32-32c0-156.970667 103.338667-289.834667 245.333333-335.274666V192z m149.333334 0a42.666667 42.666667 0 1 0-85.333334 0v24.021333a355.498667 355.498667 0 0 1 85.333334-0.213333V192z m-328.874667 341.333333h572.458667c-15.786667-144.042667-137.216-256-285.354667-256-148.266667 0-271.104 112.128-287.146667 256zM170.666667 640a85.333333 85.333333 0 1 0 0 170.666667h682.666666a85.333333 85.333333 0 1 0 0-170.666667H170.666667z m-21.333334 85.333333a21.333333 21.333333 0 0 1 21.333334-21.333333h682.666666a21.333333 21.333333 0 0 1 0 42.666667H170.666667a21.333333 21.333333 0 0 1-21.333334-21.333334z" /></svg>