<svg class="icon" style="width: 1em;height: 1em;vertical-align: middle;fill: currentColor;overflow: hidden;" viewBox="0 0 1024 1024" version="1.1" xmlns="http://www.w3.org/2000/svg"><path d="M394.666667 256a32 32 0 0 0 0 64h234.666666a32 32 0 0 0 0-64h-234.666666zM362.666667 757.333333a32 32 0 0 1 32-32h234.666666a32 32 0 0 1 0 64h-234.666666a32 32 0 0 1-32-32zM394.666667 597.333333a32 32 0 0 0 0 64h234.666666a32 32 0 0 0 0-64h-234.666666zM256 213.333333a128 128 0 0 1 128-128h256a128 128 0 0 1 128 128v597.333334a128 128 0 0 1-128 128H384a128 128 0 0 1-128-128V213.333333z m128-64A64 64 0 0 0 320 213.333333v597.333334A64 64 0 0 0 384 874.666667h256a64 64 0 0 0 64-64V213.333333A64 64 0 0 0 640 149.333333H384z" /></svg>