<svg class="icon" style="width: 1em;height: 1em;vertical-align: middle;fill: currentColor;overflow: hidden;" viewBox="0 0 1024 1024" version="1.1" xmlns="http://www.w3.org/2000/svg"><path d="M512.512 96c31.317333 0.341333 62.506667 3.968 93.098667 10.794667a32 32 0 0 1 24.832 27.690666l7.253333 65.152a59.050667 59.050667 0 0 0 82.218667 47.616l59.776-26.24a32 32 0 0 1 36.266666 7.424 417.792 417.792 0 0 1 94.037334 161.792 32 32 0 0 1-11.562667 35.2l-52.992 39.082667a58.922667 58.922667 0 0 0 0 94.976l53.034667 39.04a32 32 0 0 1 11.605333 35.242667 418.005333 418.005333 0 0 1-94.037333 161.792 32 32 0 0 1-36.181334 7.466666l-60.032-26.325333a58.88 58.88 0 0 0-82.176 47.530667l-7.210666 65.109333a32 32 0 0 1-24.405334 27.605333 406.101333 406.101333 0 0 1-187.989333 0 32 32 0 0 1-24.405333-27.605333l-7.168-65.024a58.965333 58.965333 0 0 0-82.176-47.36l-59.989334 26.282667a32 32 0 0 1-36.224-7.466667 418.048 418.048 0 0 1-94.037333-161.962667 32 32 0 0 1 11.605333-35.242666l53.034667-39.082667a58.88 58.88 0 0 0 0-94.976l-53.034667-38.997333a32 32 0 0 1-11.562666-35.242667 417.834667 417.834667 0 0 1 94.037333-161.792 32 32 0 0 1 36.266667-7.424l59.733333 26.24a59.178667 59.178667 0 0 0 82.346667-47.701333l7.253333-65.109334a32 32 0 0 1 24.874667-27.733333c30.592-6.784 61.866667-10.368 93.909333-10.752z m0 64a389.76 389.76 0 0 0-57.770667 4.992l-4.650666 41.685333A123.136 123.136 0 0 1 278.4 305.92l-38.314667-16.810667a353.834667 353.834667 0 0 0-57.514666 98.858667l34.048 25.045333a122.922667 122.922667 0 0 1 0 198.101334l-34.090667 25.088c13.653333 35.925333 33.109333 69.376 57.514667 99.072l38.613333-16.938667a122.965333 122.965333 0 0 1 171.392 98.901333l4.693333 41.984c37.930667 6.4 76.714667 6.4 114.645334 0l4.693333-41.984a122.922667 122.922667 0 0 1 171.434667-99.072l38.613333 16.896a353.962667 353.962667 0 0 0 57.472-98.901333l-34.048-25.088a122.922667 122.922667 0 0 1 0-198.101333l33.962667-25.045334a353.834667 353.834667 0 0 0-57.514667-98.858666l-38.229333 16.768a123.050667 123.050667 0 0 1-171.648-99.157334l-4.693334-41.642666a383.488 383.488 0 0 0-56.874666-4.992zM512 352a160 160 0 1 1 0 320 160 160 0 0 1 0-320z m0 64a96 96 0 1 0 0 192 96 96 0 0 0 0-192z" /></svg>