<svg class="icon" style="width: 1em;height: 1em;vertical-align: middle;fill: currentColor;overflow: hidden;" viewBox="0 0 1024 1024" version="1.1" xmlns="http://www.w3.org/2000/svg"><path d="M85.333333 224A138.666667 138.666667 0 0 1 224 85.333333h341.333333a137.813333 137.813333 0 0 1 77.525334 23.68c16.298667 11.008 30.165333 25.429333 40.533333 42.197334 10.965333 17.749333 18.048 38.186667 20.053333 60.117333v0.256a140.8 140.8 0 0 1 0.554667 12.416V320h96a138.368 138.368 0 0 1 131.626667 94.976c4.565333 13.738667 7.04 28.416 7.04 43.690667v341.333333A138.666667 138.666667 0 0 1 800 938.666667h-341.333333a138.496 138.496 0 0 1-138.666667-138.666667V704H224a137.813333 137.813333 0 0 1-72.789333-20.608l-0.426667-0.256a139.349333 139.349333 0 0 1-44.8-45.013333 137.813333 137.813333 0 0 1-20.053333-60.117334l-0.042667-0.256A140.373333 140.373333 0 0 1 85.333333 565.333333v-341.333333z m64 119.893333v80.213334L424.106667 149.333333H343.893333L149.333333 343.893333zM253.44 149.333333h-29.44A74.666667 74.666667 0 0 0 149.333333 224v29.44L253.44 149.333333z m261.12 0L149.333333 514.56v50.773333c0 8.789333 1.536 17.237333 4.309334 25.088l172.373333-172.373333a138.965333 138.965333 0 0 1 92.032-91.989333l172.373333-172.373334a74.581333 74.581333 0 0 0-25.088-4.352h-50.773333zM635.733333 198.912L514.56 320h80.170667L640 274.773333V224c0-8.789333-1.536-17.237333-4.309333-25.088zM320 514.602667l-121.088 121.088c7.850667 2.773333 16.298667 4.309333 25.088 4.309333h50.773333l45.226667-45.226667v-80.213333z m64 277.333333v8.064c0 19.968 7.850667 38.101333 20.608 51.498667L552.106667 704h-80.213334L384 791.893333z m320-239.829333l147.498667-147.498667A74.410667 74.410667 0 0 0 800 384h-8.106667l-87.893333 87.893333v80.213334z m170.666667-80.213334l-402.773334 402.773334h80.213334l322.56-322.56v-80.213334z m0 170.666667l-232.106667 232.106667h80.213333l151.893334-151.893334v-80.213333z m-1.450667 172.16a74.752 74.752 0 0 1-58.496 58.496l58.496-58.496zM384 458.666667V640h181.333333A74.666667 74.666667 0 0 0 640 565.333333V384h-181.333333A74.666667 74.666667 0 0 0 384 458.666667z" /></svg>