<svg class="icon" style="width: 1em;height: 1em;vertical-align: middle;fill: currentColor;overflow: hidden;" viewBox="0 0 1024 1024" version="1.1" xmlns="http://www.w3.org/2000/svg"><path d="M85.333333 224A138.666667 138.666667 0 0 1 224 85.333333h341.333333a138.666667 138.666667 0 0 1 138.666667 138.666667V320h96A138.666667 138.666667 0 0 1 938.666667 458.666667v341.333333A138.666667 138.666667 0 0 1 800 938.666667h-341.333333a138.666667 138.666667 0 0 1-138.666667-138.666667V704H224A138.666667 138.666667 0 0 1 85.333333 565.333333v-341.333333z m554.666667 0a74.666667 74.666667 0 0 0-74.666667-74.666667h-341.333333A74.666667 74.666667 0 0 0 149.333333 224v341.333333c0 41.216 33.450667 74.666667 74.666667 74.666667H320v-181.333333a138.752 138.752 0 0 1 6.058667-40.618667A138.965333 138.965333 0 0 1 458.666667 320H640V224z m-256 397.226667V640h61.44L640 445.44V384h-18.773333L384 621.226667zM530.773333 384h-72.106666a75.52 75.52 0 0 0-8.533334 0.469333L384.426667 450.133333A75.52 75.52 0 0 0 384 458.666667v72.106666L530.773333 384z m173.226667 0v181.333333a138.666667 138.666667 0 0 1-138.666667 138.666667H384v96c0 41.216 33.450667 74.666667 74.666667 74.666667h341.333333a74.666667 74.666667 0 0 0 74.666667-74.666667v-341.333333A74.666667 74.666667 0 0 0 800 384H704z m-168.106667 256h29.44A74.666667 74.666667 0 0 0 640 565.333333v-29.44L535.893333 640z" /></svg>