<svg class="icon" style="width: 1em;height: 1em;vertical-align: middle;fill: currentColor;overflow: hidden;" viewBox="0 0 1024 1024" version="1.1" xmlns="http://www.w3.org/2000/svg"><path d="M224 85.333333A138.666667 138.666667 0 0 0 85.333333 224v341.333333a137.813333 137.813333 0 0 0 23.68 77.525334c11.008 16.298667 25.429333 30.165333 42.197334 40.533333a137.813333 137.813333 0 0 0 60.117333 20.053333h0.256a140.8 140.8 0 0 0 12.416 0.554667H320v96A138.666667 138.666667 0 0 0 458.666667 938.666667h341.333333A138.666667 138.666667 0 0 0 938.666667 800v-341.333333a138.666667 138.666667 0 0 0-138.666667-138.666667H704V224a137.813333 137.813333 0 0 0-23.68-77.525333 139.434667 139.434667 0 0 0-42.197333-40.533334 137.813333 137.813333 0 0 0-60.117334-20.053333h-0.256A140.373333 140.373333 0 0 0 565.333333 85.333333h-341.333333z m29.44 64L149.333333 253.44v-29.44c0-41.216 33.450667-74.666667 74.666667-74.666667h29.44zM149.333333 343.893333L343.893333 149.333333h80.213334L149.333333 424.106667V343.893333z m365.226667-194.56h50.773333c8.789333 0 17.237333 1.536 25.088 4.309334l-172.373333 172.373333a138.965333 138.965333 0 0 0-91.989333 92.032l-172.373334 172.373333a74.581333 74.581333 0 0 1-4.352-25.088v-50.773333l365.226667-365.226667zM635.733333 198.912c2.773333 7.850667 4.309333 16.298667 4.309334 25.088v50.773333L594.773333 320h-80.213333L635.733333 198.912zM320 514.602667v80.170666L274.773333 640H224c-8.789333 0-17.237333-1.536-25.088-4.309333L320 514.56zM384 458.666667C384 417.450667 417.450667 384 458.666667 384h341.333333c41.216 0 74.666667 33.450667 74.666667 74.666667v341.333333a74.666667 74.666667 0 0 1-74.666667 74.666667h-341.333333A74.666667 74.666667 0 0 1 384 800v-341.333333z" /></svg>