<svg class="icon" style="width: 1em;height: 1em;vertical-align: middle;fill: currentColor;overflow: hidden;" viewBox="0 0 1024 1024" version="1.1" xmlns="http://www.w3.org/2000/svg"><path d="M224 85.333333A138.666667 138.666667 0 0 0 85.333333 224v341.333333a137.813333 137.813333 0 0 0 23.68 77.525334c11.008 16.298667 25.429333 30.165333 42.197334 40.533333a137.813333 137.813333 0 0 0 60.117333 20.053333h0.256a140.8 140.8 0 0 0 12.416 0.554667H320v96a138.368 138.368 0 0 0 94.976 131.626667c13.738667 4.565333 28.416 7.04 43.690667 7.04h341.333333A138.666667 138.666667 0 0 0 938.666667 800v-341.333333a138.496 138.496 0 0 0-138.666667-138.666667H704V224a137.813333 137.813333 0 0 0-23.68-77.525333 139.434667 139.434667 0 0 0-42.197333-40.533334 137.813333 137.813333 0 0 0-60.117334-20.053333h-0.256A140.373333 140.373333 0 0 0 565.333333 85.333333h-341.333333z m29.44 64L149.333333 253.44v-29.44c0-41.216 33.450667-74.666667 74.666667-74.666667h29.44zM149.333333 343.893333L343.893333 149.333333h80.213334L149.333333 424.106667V343.893333z m365.226667-194.56h50.773333c8.789333 0 17.237333 1.536 25.088 4.309334L153.642667 590.421333a74.581333 74.581333 0 0 1-4.309334-25.088v-50.773333l365.226667-365.226667zM635.733333 198.912c2.773333 7.850667 4.309333 16.298667 4.309334 25.088v50.773333L274.773333 640H224c-8.789333 0-17.237333-1.536-25.088-4.309333L635.690667 198.912z m4.437334 166.186667A21.333333 21.333333 0 0 0 661.333333 384h40.106667L384 701.44v-40.106667a21.333333 21.333333 0 0 0-18.901333-21.205333l275.029333-275.029333zM791.936 384h8.064c19.968 0 38.101333 7.850667 51.498667 20.608L404.608 851.498667A74.410667 74.410667 0 0 1 384 800v-8.106667L791.893333 384z m82.730667 87.893333v80.213334l-322.56 322.56h-80.213334l402.773334-402.773334z m0 170.666667v80.213333l-151.893334 151.893334h-80.213333l232.106667-232.106667z m-1.450667 172.16a74.752 74.752 0 0 1-58.496 58.496l58.496-58.496z" /></svg>