<svg class="icon" style="width: 1em;height: 1em;vertical-align: middle;fill: currentColor;overflow: hidden;" viewBox="0 0 1024 1024" version="1.1" xmlns="http://www.w3.org/2000/svg"><path d="M287.872 170.666667h147.797333a32 32 0 0 1 4.352 63.701333l-4.352 0.298667H287.872a96 96 0 0 0-95.786667 89.429333l-0.213333 6.570667v405.333333a96 96 0 0 0 89.429333 95.786667l6.570667 0.213333h405.333333a96 96 0 0 0 95.786667-89.429333l0.213333-6.570667v-21.248a32 32 0 0 1 63.744-4.309333l0.256 4.309333v21.248a160 160 0 0 1-151.466666 159.786667l-8.533334 0.213333h-405.333333a160 160 0 0 1-159.786667-151.466667l-0.213333-8.533333v-405.333333a160 160 0 0 1 151.466667-159.786667l8.533333-0.213333h147.797333-147.797333zM618.666667 278.186667V160a32 32 0 0 1 50.645333-26.026667l3.498667 2.944 255.744 245.333334c11.946667 11.434667 13.056 29.866667 3.285333 42.538666l-3.285333 3.626667-255.744 245.418667a32 32 0 0 1-53.845334-18.517334l-0.298666-4.565333v-116.266667l-14.677334 1.28c-102.4 10.666667-200.533333 56.746667-294.997333 139.093334-22.186667 19.328-56.448 1.066667-52.778667-28.074667 28.330667-226.986667 147.029333-352.085333 349.653334-367.786667l12.8-0.853333V160v118.186667zM682.666667 235.050667V309.333333a32 32 0 0 1-32 32c-165.290667 0-267.690667 71.509333-311.978667 220.032l-3.370667 11.904 15.018667-10.112C445.866667 500.778667 546.048 469.333333 650.709333 469.333333a32 32 0 0 1 31.701334 27.648l0.298666 4.352v74.368L860.16 405.333333l-177.493333-170.282666z" /></svg>