<svg class="icon" style="width: 1em;height: 1em;vertical-align: middle;fill: currentColor;overflow: hidden;" viewBox="0 0 1024 1024" version="1.1" xmlns="http://www.w3.org/2000/svg"><path d="M85.333333 266.666667A96 96 0 0 1 181.333333 170.666667h661.333334A96 96 0 0 1 938.666667 266.666667v490.666666A96 96 0 0 1 842.666667 853.333333H181.333333A96 96 0 0 1 85.333333 757.333333V266.666667z m96-32a32 32 0 0 0-32 32v490.666666c0 17.664 14.336 32 32 32h661.333334a32 32 0 0 0 32-32V266.666667a32 32 0 0 0-32-32H181.333333zM350.72 350.506667a32 32 0 0 1 45.226667 0l116.053333 116.053333 116.266667-115.882667a32 32 0 0 1 45.226666 45.312l-116.224 115.84 116.224 116.224a32 32 0 1 1-45.226666 45.226667L512 557.098667 395.946667 673.28a32 32 0 0 1-45.226667-45.226667l116.053333-116.224-116.053333-116.053333a32 32 0 0 1 0-45.226667z" /></svg>