<svg class="icon" style="width: 1em;height: 1em;vertical-align: middle;fill: currentColor;overflow: hidden;" viewBox="0 0 1024 1024" version="1.1" xmlns="http://www.w3.org/2000/svg"><path d="M842.837333 469.333333a32 32 0 0 1 31.701334 27.648l0.298666 4.352v298.666667a138.666667 138.666667 0 0 1-130.773333 138.496l-7.893333 0.213333h-469.333334a138.666667 138.666667 0 0 1-138.453333-130.816l-0.213333-7.850666V501.333333a32 32 0 0 1 63.701333-4.352l0.298667 4.352v298.666667a74.666667 74.666667 0 0 0 68.565333 74.453333l6.101333 0.256h469.333334a74.666667 74.666667 0 0 0 74.410666-68.565333l0.256-6.101333V501.333333a32 32 0 0 1 32-32zM265.386667 307.882667l213.162666-213.162667a32 32 0 0 1 41.642667-3.114667l3.584 3.072 213.546667 213.205334a32 32 0 0 1-41.642667 48.384l-3.584-3.114667-158.848-158.549333 0.042667 498.944a32 32 0 0 1-27.648 31.701333l-4.352 0.298667a32 32 0 0 1-31.701334-27.648l-0.298666-4.352V194.474667L310.613333 353.152a32 32 0 0 1-41.642666 3.114667l-3.584-3.114667a32 32 0 0 1-3.114667-41.685333l3.114667-3.584 213.162666-213.162667L265.386667 307.882667z" /></svg>