<svg class="icon" style="width: 1em;height: 1em;vertical-align: middle;fill: currentColor;overflow: hidden;" viewBox="0 0 1024 1024" version="1.1" xmlns="http://www.w3.org/2000/svg"><path d="M85.333333 757.333333A96 96 0 0 0 181.333333 853.333333h661.333334A96 96 0 0 0 938.666667 757.333333V266.666667A96 96 0 0 0 842.666667 170.666667H181.333333A96 96 0 0 0 85.333333 266.666667v490.666666z m96 32a32 32 0 0 1-32-32V266.666667a32 32 0 0 1 32-32h661.333334a32 32 0 0 1 32 32v490.666666a32 32 0 0 1-32 32H181.333333zM512 714.88a32 32 0 0 0 22.613333-9.386667l138.88-138.88a32 32 0 1 0-45.226666-45.226666l-84.266667 84.224V330.538667a32 32 0 0 0-64 0v274.986666L395.946667 521.386667a32 32 0 1 0-45.226667 45.226666l138.666667 138.88c5.973333 5.973333 14.08 9.386667 22.613333 9.386667z" /></svg>