<svg class="icon" style="width: 1em;height: 1em;vertical-align: middle;fill: currentColor;overflow: hidden;" viewBox="0 0 1024 1024" version="1.1" xmlns="http://www.w3.org/2000/svg"><path d="M725.333333 106.581333a149.418667 149.418667 0 1 1-110.805333 249.642667l-194.474667 111.104a149.333333 149.333333 0 0 1 0 89.301333l194.432 111.189334a149.418667 149.418667 0 1 1-31.786666 55.552L388.266667 612.138667a149.418667 149.418667 0 1 1 0-200.448l194.432-111.104A149.418667 149.418667 0 0 1 725.333333 106.581333z m0 576a85.418667 85.418667 0 1 0 0 170.837334 85.418667 85.418667 0 0 0 0-170.837334z m-447.914666-256a85.418667 85.418667 0 1 0 0 170.837334 85.418667 85.418667 0 0 0 0-170.837334z m447.914666-256a85.418667 85.418667 0 1 0 0 170.837334 85.418667 85.418667 0 0 0 0-170.837334z" /></svg>