<svg class="icon" style="width: 1em;height: 1em;vertical-align: middle;fill: currentColor;overflow: hidden;" viewBox="0 0 1024 1024" version="1.1" xmlns="http://www.w3.org/2000/svg"><path d="M85.333333 309.333333A138.666667 138.666667 0 0 1 224 170.666667h576A138.666667 138.666667 0 0 1 938.666667 309.333333V554.666667h-11.008a159.573333 159.573333 0 0 0-52.992-108.586667V309.333333a74.666667 74.666667 0 0 0-74.666667-74.666666H224A74.666667 74.666667 0 0 0 149.333333 309.333333v405.333334c0 41.216 33.450667 74.666667 74.666667 74.666666H512v21.333334c0 14.506667 1.706667 28.757333 5.034667 42.666666H224A138.666667 138.666667 0 0 1 85.333333 714.666667v-405.333334zM917.333333 725.333333a64 64 0 0 1 64 64v21.333334c0 84.096-79.36 170.666667-213.333333 170.666666-133.973333 0-213.333333-86.570667-213.333333-170.666666v-21.333334a64 64 0 0 1 64-64h298.666666zM768 448a117.333333 117.333333 0 1 1 0 234.666667 117.333333 117.333333 0 0 1 0-234.666667z" /></svg>