<svg class="icon" style="width: 1em;height: 1em;vertical-align: middle;fill: currentColor;overflow: hidden;" viewBox="0 0 1024 1024" version="1.1" xmlns="http://www.w3.org/2000/svg"><path d="M682.666667 512a85.333333 85.333333 0 1 0 0-170.666667 85.333333 85.333333 0 0 0 0 170.666667z m-128 85.333333a42.666667 42.666667 0 0 1 42.666666-42.666666h170.666667a42.666667 42.666667 0 0 1 42.666667 42.666666v10.666667A117.333333 117.333333 0 0 1 693.333333 725.333333h-21.333333A117.333333 117.333333 0 0 1 554.666667 608V597.333333zM266.666667 298.666667C237.226667 298.666667 213.333333 322.56 213.333333 352v149.333333c0 29.44 23.893333 53.333333 53.333334 53.333334h192c29.44 0 53.333333-23.893333 53.333333-53.333334v-149.333333C512 322.56 488.106667 298.666667 458.666667 298.666667h-192z m-42.666667-128A138.666667 138.666667 0 0 0 85.333333 309.333333v405.333334A138.666667 138.666667 0 0 0 224 853.333333h576A138.666667 138.666667 0 0 0 938.666667 714.666667v-405.333334A138.666667 138.666667 0 0 0 800 170.666667H224zM149.333333 309.333333c0-41.216 33.450667-74.666667 74.666667-74.666666h576c41.216 0 74.666667 33.450667 74.666667 74.666666v405.333334a74.666667 74.666667 0 0 1-74.666667 74.666666H224a74.666667 74.666667 0 0 1-74.666667-74.666666v-405.333334z" /></svg>