<svg class="icon" style="width: 1em;height: 1em;vertical-align: middle;fill: currentColor;overflow: hidden;" viewBox="0 0 1024 1024" version="1.1" xmlns="http://www.w3.org/2000/svg"><path d="M531.2 91.733333C639.658667 173.098667 750.378667 213.333333 864 213.333333a32 32 0 0 1 32 32V469.333333c0 213.376-126.208 370.176-372.266667 467.114667a32 32 0 0 1-23.466666 0C254.208 839.509333 128 682.666667 128 469.333333V245.333333A32 32 0 0 1 160 213.333333c113.621333 0 224.341333-40.234667 332.8-121.6a32 32 0 0 1 38.4 0zM512 156.928c-103.253333 72.96-210.048 112.981333-320 119.466667V469.333333c0 181.589333 104.661333 314.837333 320 402.858667 215.338667-88.021333 320-221.269333 320-402.858667V276.394667c-109.952-6.485333-216.746667-46.506667-320-119.466667zM395.946667 350.805333l116.224 116.181334 116.266666-116.181334a32 32 0 0 1 41.6-3.114666l3.584 3.114666a32 32 0 0 1 3.114667 41.6l-3.114667 3.584-116.224 116.181334 116.224 116.266666a31.957333 31.957333 0 1 1-45.226666 45.184l-116.224-116.224-116.181334 116.224a32 32 0 0 1-41.6 3.114667l-3.584-3.114667a32 32 0 0 1-3.114666-41.6l3.114666-3.584 116.181334-116.266666-116.181334-116.181334A32 32 0 0 1 395.946667 350.72z" /></svg>