<svg class="icon" style="width: 1em;height: 1em;vertical-align: middle;fill: currentColor;overflow: hidden;" viewBox="0 0 1024 1024" version="1.1" xmlns="http://www.w3.org/2000/svg"><path d="M128 245.333333A32 32 0 0 1 160 213.333333c113.621333 0 224.341333-40.234667 332.8-121.6a32 32 0 0 1 38.4 0C639.658667 173.098667 750.378667 213.333333 864 213.333333a32 32 0 0 1 32 32V469.333333c0 7.722667-0.170667 15.36-0.512 22.997334a149.290667 149.290667 0 0 0-63.488-38.144V276.394667c-109.952-6.485333-216.746667-46.506667-320-119.466667-103.253333 72.96-210.048 112.981333-320 119.466667V469.333333c0 181.589333 104.661333 314.837333 320 402.858667a896.426667 896.426667 0 0 0 42.666667-18.730667V917.333333c0 2.133333 0.042667 4.181333 0.170666 6.229334-10.154667 4.437333-20.48 8.704-31.146666 12.885333a32 32 0 0 1-23.424 0C254.208 839.509333 128 682.666667 128 469.333333V245.333333zM682.666667 640v-42.666667a106.666667 106.666667 0 0 1 213.333333 0v42.666667h21.333333a64 64 0 0 1 64 64v213.333333a64 64 0 0 1-64 64h-256a64 64 0 0 1-64-64v-213.333333a64 64 0 0 1 64-64h21.333334z m64-42.666667v42.666667h85.333333v-42.666667a42.666667 42.666667 0 1 0-85.333333 0z m85.333333 213.333334a42.666667 42.666667 0 1 0-85.333333 0 42.666667 42.666667 0 0 0 85.333333 0z" /></svg>