<svg class="icon" style="width: 1em;height: 1em;vertical-align: middle;fill: currentColor;overflow: hidden;" viewBox="0 0 1024 1024" version="1.1" xmlns="http://www.w3.org/2000/svg"><path d="M160 213.333333a32 32 0 0 0-32 32V469.333333c0 213.376 126.208 370.176 372.266667 467.114667a32 32 0 0 0 23.466666 0c6.144-2.432 12.202667-4.864 18.176-7.381333a278.869333 278.869333 0 0 1-71.125333-74.922667C283.306667 766.378667 192 638.933333 192 469.333333V276.394667c109.952-6.485333 216.746667-46.506667 320-119.466667 103.253333 72.96 210.048 112.981333 320 119.466667v181.504c23.04 12.032 44.245333 27.221333 62.933333 44.970666 0.725333-11.008 1.066667-22.186667 1.066667-33.536V245.333333a32 32 0 0 0-32-32c-113.621333 0-224.341333-40.234667-332.8-121.6a32 32 0 0 0-38.4 0C384.341333 173.098667 273.621333 213.333333 160 213.333333zM704 938.666667a234.666667 234.666667 0 1 0 0-469.333334 234.666667 234.666667 0 0 0 0 469.333334z m-141.184-138.752a170.666667 170.666667 0 0 1 237.098667-237.098667l-237.098667 237.098667z m45.226667 45.226666l237.141333-237.056a170.666667 170.666667 0 0 1-237.098667 237.098667z" /></svg>