<svg class="icon" style="width: 1em;height: 1em;vertical-align: middle;fill: currentColor;overflow: hidden;" viewBox="0 0 1024 1024" version="1.1" xmlns="http://www.w3.org/2000/svg"><path d="M661.333333 234.666667a149.333333 149.333333 0 1 0-298.666666 0 149.333333 149.333333 0 0 0 298.666666 0z m-234.666666 0a85.333333 85.333333 0 1 1 170.666666 0 85.333333 85.333333 0 0 1-170.666666 0zM373.333333 426.666667a96 96 0 0 0-96 96v21.333333a32 32 0 0 0 64 0v-21.333333a32 32 0 0 1 32-32h277.333334a32 32 0 0 1 32 32v21.333333a32 32 0 0 0 64 0v-21.333333A96 96 0 0 0 650.666667 426.666667h-277.333334zM277.205333 725.290667a42.624 42.624 0 1 1-85.205333 0 42.624 42.624 0 0 1 85.205333 0zM234.624 917.205333a42.624 42.624 0 1 0 0-85.205333 42.624 42.624 0 0 0 0 85.205333zM431.402667 705.194667a78.549333 78.549333 0 0 0-28.458667 13.994666 32 32 0 1 1-39.424-50.432c11.392-8.917333 30.293333-20.48 53.162667-25.856 23.594667-5.546667 52.906667-4.821333 80.512 13.952 33.365333 22.613333 44.544 62.677333 39.210666 95.402667a90.709333 90.709333 0 0 1-12.8 33.706667c7.424 8.533333 13.056 18.304 16.725334 28.672 10.581333 30.037333 5.674667 67.456-20.266667 93.312-25.386667 25.216-59.434667 32.682667-88.746667 31.146666-29.013333-1.536-58.752-12.032-78.976-29.866666a32 32 0 0 1 42.282667-48c7.338667 6.485333 22.442667 13.013333 40.021333 13.952 17.237333 0.896 31.402667-3.797333 40.277334-12.629334a25.813333 25.813333 0 0 0 5.034666-26.581333c-2.986667-8.618667-9.6-14.634667-21.333333-14.634667h-21.333333a32 32 0 1 1 0-64h21.333333c4.992 0 7.466667-1.536 9.130667-3.2a22.314667 22.314667 0 0 0 5.461333-12.245333c2.133333-13.098667-3.072-26.069333-11.946667-32.085333-9.301333-6.314667-19.114667-7.168-29.866666-4.608zM704 640c-37.077333 0-66.56 15.872-84.778667 46.208-16.512 27.477333-21.930667 63.872-21.930666 103.125333 0 39.253333 5.418667 75.648 21.930666 103.168C637.44 922.794667 666.88 938.666667 704 938.666667c36.864 0 66.474667-15.573333 84.736-45.909334 16.554667-27.477333 21.930667-63.914667 21.930667-103.424 0-39.466667-5.376-75.946667-21.930667-103.381333C770.474667 655.573333 740.864 640 704 640z m-42.709333 149.333333c0-35.413333 5.290667-57.685333 12.8-70.186666 5.802667-9.642667 13.653333-15.146667 29.866666-15.146667 16.469333 0 24.234667 5.461333 29.952 14.933333 7.466667 12.416 12.757333 34.645333 12.757334 70.4 0 35.797333-5.290667 58.026667-12.757334 70.4-5.717333 9.472-13.482667 14.933333-29.909333 14.933334-16.298667 0-24.106667-5.461333-29.909333-15.146667-7.509333-12.501333-12.8-34.773333-12.8-70.186667z" /></svg>