<svg class="icon" style="width: 1em;height: 1em;vertical-align: middle;fill: currentColor;overflow: hidden;" viewBox="0 0 1024 1024" version="1.1" xmlns="http://www.w3.org/2000/svg"><path d="M757.333333 128A138.666667 138.666667 0 0 1 896 266.666667v490.666666A138.666667 138.666667 0 0 1 757.333333 896H266.666667A138.666667 138.666667 0 0 1 128 757.333333V266.666667A138.666667 138.666667 0 0 1 266.666667 128h490.666666z m0 64H266.666667A74.666667 74.666667 0 0 0 192 266.666667v490.666666c0 41.216 33.450667 74.666667 74.666667 74.666667h490.666666a74.666667 74.666667 0 0 0 74.666667-74.666667V266.666667a74.666667 74.666667 0 0 0-74.666667-74.666667z m-256 64a32 32 0 0 1 31.701334 27.648l0.298666 4.352V512h159.914667a32 32 0 0 1 4.352 63.701333l-4.352 0.298667H501.333333a32 32 0 0 1-31.701333-27.648L469.333333 544v-256a32 32 0 0 1 32-32z" /></svg>