<svg class="icon" style="width: 1em;height: 1em;vertical-align: middle;fill: currentColor;overflow: hidden;" viewBox="0 0 1024 1024" version="1.1" xmlns="http://www.w3.org/2000/svg"><path d="M277.333333 512a234.666667 234.666667 0 1 1 0 469.333333 234.666667 234.666667 0 0 1 0-469.333333z m480-384A138.666667 138.666667 0 0 1 896 266.666667v490.666666A138.666667 138.666667 0 0 1 757.333333 896l-246.314666 0.042667c12.672-19.754667 22.912-41.258667 30.293333-64l216.021333-0.042667a74.666667 74.666667 0 0 0 74.666667-74.666667V266.666667a74.666667 74.666667 0 0 0-74.666667-74.666667H266.666667A74.666667 74.666667 0 0 0 192 266.666667v216.064a276.053333 276.053333 0 0 0-64.042667 30.250666L128 266.666667A138.666667 138.666667 0 0 1 266.666667 128h490.666666zM277.333333 746.666667h-128a21.333333 21.333333 0 0 0-20.992 17.493333L128 768v21.162667c0 42.410667 32.298667 63.914667 85.333333 63.914666 50.389333 0 82.048-19.370667 85.077334-57.685333L298.666667 789.205333V768a21.333333 21.333333 0 0 0-21.333334-21.333333z m128.853334-0.597334l-68.693334-0.042666c1.834667 5.12 3.072 10.581333 3.584 16.213333L341.333333 768v21.205333l-0.298666 9.045334c-0.853333 11.776-3.242667 22.528-7.168 32.213333 5.717333 0.597333 11.776 0.853333 18.133333 0.853333 43.776 0 72.234667-13.653333 75.264-44.16l0.256-5.546666v-14.208a21.333333 21.333333 0 0 0-17.493333-20.992l-3.84-0.341334zM213.333333 618.666667a42.752 42.752 0 1 0 0 85.461333A42.752 42.752 0 0 0 213.333333 618.666667z m133.546667 10.965333a37.248 37.248 0 1 0 0 74.538667 37.248 37.248 0 0 0 0-74.538667zM501.333333 256a32 32 0 0 1 31.701334 27.648l0.298666 4.352V512h159.914667a32 32 0 0 1 4.352 63.701333l-4.352 0.298667H501.333333a32.128 32.128 0 0 1-5.930666-0.554667 267.733333 267.733333 0 0 0-25.856-28.714666L469.333333 544v-256a32 32 0 0 1 32-32z" /></svg>