<svg class="icon" style="width: 1em;height: 1em;vertical-align: middle;fill: currentColor;overflow: hidden;" viewBox="0 0 1024 1024" version="1.1" xmlns="http://www.w3.org/2000/svg"><path d="M757.333333 128A138.666667 138.666667 0 0 1 896 266.666667v490.666666A138.666667 138.666667 0 0 1 757.333333 896H266.666667A138.666667 138.666667 0 0 1 128 757.333333V266.666667A138.666667 138.666667 0 0 1 266.666667 128h490.666666z m0 64H266.666667A74.666667 74.666667 0 0 0 192 266.666667v490.666666c0 41.216 33.450667 74.666667 74.666667 74.666667h490.666666a74.666667 74.666667 0 0 0 74.666667-74.666667V266.666667a74.666667 74.666667 0 0 0-74.666667-74.666667zM565.333333 341.333333a32 32 0 0 1 32 32v117.333334h64V373.333333a32 32 0 0 1 64 0v276.053334a32 32 0 0 1-64 0V554.666667h-96a32 32 0 0 1-32-32v-149.333334a32 32 0 0 1 32-32zM320 373.077333C334.805333 356.778667 359.04 341.333333 394.666667 341.333333c49.152 0 80.810667 33.792 91.946666 70.869334 10.794667 36.138667 4.266667 80.853333-26.453333 111.701333-10.538667 10.581333-22.954667 20.181333-33.834667 28.586667l-1.706666 1.322666c-11.946667 9.216-22.613333 17.578667-32 26.88-10.88 10.922667-19.797333 22.826667-24.96 37.973334h91.008a32 32 0 0 1 0 64h-128a32 32 0 0 1-32-32c0-53.205333 22.357333-88.874667 48.810666-115.242667 12.629333-12.629333 26.368-23.253333 37.973334-32.256l0.128-0.085333c12.202667-9.429333 21.674667-16.768 29.226666-24.32 11.605333-11.690667 15.658667-30.933333 10.496-48.213334-4.906667-16.256-15.786667-25.216-30.634666-25.216-15.061333 0-22.826667 5.845333-27.306667 10.794667a36.010667 36.010667 0 0 0-6.272 9.770667l-0.085333 0.128a32 32 0 0 1-60.885334-19.712l1.493334-4.096a99.968 99.968 0 0 1 18.346666-29.141334z" /></svg>