<svg class="icon" style="width: 1em;height: 1em;vertical-align: middle;fill: currentColor;overflow: hidden;" viewBox="0 0 1024 1024" version="1.1" xmlns="http://www.w3.org/2000/svg"><path d="M277.333333 512a234.666667 234.666667 0 1 1 0 469.333333 234.666667 234.666667 0 0 1 0-469.333333z m0 336.213333a26.666667 26.666667 0 1 0 0 53.290667 26.666667 26.666667 0 0 0 0-53.290667zM757.333333 128A138.666667 138.666667 0 0 1 896 266.666667v490.666666A138.666667 138.666667 0 0 1 757.333333 896l-246.314666 0.042667c12.672-19.754667 22.912-41.258667 30.293333-64l216.021333-0.042667a74.666667 74.666667 0 0 0 74.666667-74.666667V266.666667a74.666667 74.666667 0 0 0-74.666667-74.666667H266.666667A74.666667 74.666667 0 0 0 192 266.666667v216.064a276.053333 276.053333 0 0 0-64.042667 30.250666L128 266.666667A138.666667 138.666667 0 0 1 266.666667 128h490.666666zM277.333333 597.461333c-44.714667 0-79.530667 34.858667-79.061333 83.370667a21.333333 21.333333 0 0 0 42.666667-0.426667c-0.256-24.661333 15.36-40.277333 36.394666-40.277333 20.138667 0 36.394667 16.725333 36.394667 40.533333 0 9.557333-3.2 16.64-13.525333 28.885334l-4.266667 4.821333-11.306667 12.373333c-20.650667 23.125333-28.629333 38.058667-28.629333 62.634667a21.333333 21.333333 0 0 0 42.666667 0c0-9.941333 3.242667-17.194667 13.824-29.653333l4.266666-4.906667 11.349334-12.373333c20.394667-22.826667 28.288-37.632 28.288-61.781334 0-47.104-35.072-83.2-79.061334-83.2zM501.333333 256a32 32 0 0 1 31.701334 27.648l0.298666 4.352V512h159.914667a32 32 0 0 1 4.352 63.701333l-4.352 0.298667H501.333333a32 32 0 0 1-31.701333-27.648L469.333333 544v-256a32 32 0 0 1 32-32z" /></svg>