<svg class="icon" style="width: 1em;height: 1em;vertical-align: middle;fill: currentColor;overflow: hidden;" viewBox="0 0 1024 1024" version="1.1" xmlns="http://www.w3.org/2000/svg"><path d="M192 266.666667c0-41.216 33.450667-74.666667 74.666667-74.666667h490.666666c41.216 0 74.666667 33.450667 74.666667 74.666667v490.666666a74.666667 74.666667 0 0 1-74.666667 74.666667h-216.021333a276.096 276.096 0 0 1-30.250667 64h246.272A138.666667 138.666667 0 0 0 896 757.333333V266.666667A138.666667 138.666667 0 0 0 757.333333 128H266.666667A138.666667 138.666667 0 0 0 128 266.666667v246.272a276.138667 276.138667 0 0 1 64-30.250667V266.666667zM277.333333 512a234.666667 234.666667 0 1 1 0 469.333333 234.666667 234.666667 0 0 1 0-469.333333z m21.376 362.794667V768h106.752a21.333333 21.333333 0 1 0 0-42.666667H298.666667v-106.666666a21.333333 21.333333 0 1 0-42.666667 0V725.333333H149.162667a21.333333 21.333333 0 0 0 0 42.666667h106.88v106.794667a21.333333 21.333333 0 1 0 42.666666 0zM533.333333 288a32 32 0 0 0-64 0v256c0 17.664 14.336 32 32 32h192a32 32 0 0 0 0-64H533.333333V288z" /></svg>