<svg class="icon" style="width: 1em;height: 1em;vertical-align: middle;fill: currentColor;overflow: hidden;" viewBox="0 0 1024 1024" version="1.1" xmlns="http://www.w3.org/2000/svg"><path d="M192 266.666667c0-41.216 33.450667-74.666667 74.666667-74.666667h128a32 32 0 0 0 0-64h-128A138.666667 138.666667 0 0 0 128 266.666667v490.666666A138.666667 138.666667 0 0 0 266.666667 896h128a32 32 0 0 0 0-64h-128a74.666667 74.666667 0 0 1-74.666667-74.666667V266.666667zM629.205333 128a32 32 0 0 0 0 64h128.128c41.216 0 74.666667 33.450667 74.666667 74.666667v490.666666a74.666667 74.666667 0 0 1-74.666667 74.666667h-128.128a32 32 0 0 0 0 64h128.128A138.666667 138.666667 0 0 0 896 757.333333V266.666667A138.666667 138.666667 0 0 0 757.333333 128h-128.128zM533.333333 288a32 32 0 0 0-64 0v256c0 17.664 14.336 32 32 32h192a32 32 0 0 0 0-64H533.333333V288z" /></svg>