<svg class="icon" style="width: 1em;height: 1em;vertical-align: middle;fill: currentColor;overflow: hidden;" viewBox="0 0 1024 1024" version="1.1" xmlns="http://www.w3.org/2000/svg"><path d="M192 266.666667c0-41.216 33.450667-74.666667 74.666667-74.666667h490.666666c41.216 0 74.666667 33.450667 74.666667 74.666667v490.666666a74.666667 74.666667 0 0 1-74.666667 74.666667h-216.021333a276.096 276.096 0 0 1-30.250667 64h246.272A138.666667 138.666667 0 0 0 896 757.333333V266.666667A138.666667 138.666667 0 0 0 757.333333 128H266.666667A138.666667 138.666667 0 0 0 128 266.666667v246.272a276.138667 276.138667 0 0 1 64-30.250667V266.666667zM533.333333 288a32 32 0 0 0-64 0v256c0 17.664 14.336 32 32 32h192a32 32 0 0 0 0-64H533.333333V288zM512 746.666667a234.666667 234.666667 0 1 1-469.333333 0 234.666667 234.666667 0 0 1 469.333333 0z m-134.229333-79.104a21.333333 21.333333 0 0 0-30.208 0L234.666667 780.501333l-38.229334-38.272a21.333333 21.333333 0 0 0-30.208 30.208l53.333334 53.333334a21.333333 21.333333 0 0 0 30.208 0l128-128a21.333333 21.333333 0 0 0 0-30.208z" /></svg>