<svg class="icon" style="width: 1em;height: 1em;vertical-align: middle;fill: currentColor;overflow: hidden;" viewBox="0 0 1024 1024" version="1.1" xmlns="http://www.w3.org/2000/svg"><path d="M482.730667 150.485333a32 32 0 1 0-5.12-63.786666C258.090667 104.192 85.333333 287.914667 85.333333 512c0 235.648 191.018667 426.666667 426.666667 426.666667 223.957333 0 407.594667-172.544 425.258667-391.936a32 32 0 1 0-63.786667-5.12 362.666667 362.666667 0 1 1-390.741333-391.125334zM755.072 199.424a32 32 0 0 1 45.226667-1.962667c9.130667 8.362667 17.92 17.152 26.282666 26.325334a32 32 0 0 1-47.146666 43.221333 364.885333 364.885333 0 0 0-22.4-22.4 32 32 0 0 1-1.962667-45.226667zM480 256a32 32 0 0 1 31.701333 27.648L512 288V512h138.666667a32 32 0 0 1 4.352 63.701333l-4.352 0.298667h-170.666667a32 32 0 0 1-31.701333-27.690667l-0.298667-4.309333v-256a32 32 0 0 1 32-32zM587.989333 123.306667a32 32 0 0 1 39.466667-22.186667 423.253333 423.253333 0 0 1 45.824 15.786667 32 32 0 1 1-24.192 59.221333c-12.629333-5.162667-25.6-9.642667-38.912-13.354667a32 32 0 0 1-22.186667-39.466666zM907.050667 350.506667a32 32 0 1 0-59.264 24.234666 358.613333 358.613333 0 0 1 13.44 39.04 32 32 0 1 0 61.610666-17.28 422.826667 422.826667 0 0 0-15.786666-45.994666z" /></svg>