<svg class="icon" style="width: 1em;height: 1em;vertical-align: middle;fill: currentColor;overflow: hidden;" viewBox="0 0 1024 1024" version="1.1" xmlns="http://www.w3.org/2000/svg"><path d="M362.666667 149.333333a213.333333 213.333333 0 0 0-9.770667 426.453334 319.104 319.104 0 0 0-10.794667 63.445333 277.333333 277.333333 0 1 1 297.130667-297.130667 319.104 319.104 0 0 0-63.445333 10.794667A213.333333 213.333333 0 0 0 362.666667 149.333333zM609.194667 564.650667a32 32 0 1 0-45.056 45.482666l51.84 51.328-51.925334 51.925334a32 32 0 1 0 45.226667 45.226666l52.053333-52.010666 51.84 52.010666a32 32 0 0 0 45.312-45.226666l-51.84-51.925334 51.712-51.370666a32 32 0 0 0-45.098666-45.397334L661.333333 616.277333l-52.096-51.626666zM661.333333 384a277.333333 277.333333 0 1 0 0 554.666667 277.333333 277.333333 0 0 0 0-554.666667z m-213.333333 277.333333a213.333333 213.333333 0 1 1 426.666667 0 213.333333 213.333333 0 0 1-426.666667 0zM481.28 286.72a32 32 0 0 1 0 45.226667l-128 128a32 32 0 0 1-45.226667 0l-64-64.085334a32 32 0 0 1 45.269334-45.226666l41.386666 41.429333 105.344-105.386667a32 32 0 0 1 45.226667 0z" /></svg>