<svg class="icon" style="width: 1em;height: 1em;vertical-align: middle;fill: currentColor;overflow: hidden;" viewBox="0 0 1024 1024" version="1.1" xmlns="http://www.w3.org/2000/svg"><path d="M192 266.666667c0-41.216 33.450667-74.666667 74.666667-74.666667h490.666666c41.216 0 74.666667 33.450667 74.666667 74.666667v490.666666a74.666667 74.666667 0 0 1-74.666667 74.666667h-216.021333a276.096 276.096 0 0 1-30.250667 64h246.272A138.666667 138.666667 0 0 0 896 757.333333V266.666667A138.666667 138.666667 0 0 0 757.333333 128H266.666667A138.666667 138.666667 0 0 0 128 266.666667v246.272a276.138667 276.138667 0 0 1 64-30.250667V266.666667zM533.333333 288a32 32 0 0 0-64 0v256c0 17.664 14.336 32 32 32h192a32 32 0 0 0 0-64H533.333333V288zM512 746.666667a234.666667 234.666667 0 1 1-469.333333 0 234.666667 234.666667 0 0 1 469.333333 0z m-405.333333 0c0 35.584 10.88 68.608 29.482666 95.914666l237.098667-237.098666A170.666667 170.666667 0 0 0 106.666667 746.666667z m170.666666 170.666666a170.666667 170.666667 0 0 0 141.184-266.581333l-237.098666 237.098667c27.306667 18.602667 60.330667 29.482667 95.914666 29.482666z" /></svg>