<svg class="icon" style="width: 1em;height: 1em;vertical-align: middle;fill: currentColor;overflow: hidden;" viewBox="0 0 1024 1024" version="1.1" xmlns="http://www.w3.org/2000/svg"><path d="M298.666667 298.666667V213.333333a128 128 0 0 1 213.333333-95.402666A128 128 0 0 1 725.333333 213.333333v85.333334h64A64 64 0 0 1 853.333333 362.666667v426.88A149.12 149.12 0 0 1 704.213333 938.666667H341.333333a170.666667 170.666667 0 0 1-170.666666-170.666667V362.666667A64 64 0 0 1 234.666667 298.666667H298.666667z m283.093333 576a148.437333 148.437333 0 0 1-26.666667-85.12V362.666667H234.666667V768A106.666667 106.666667 0 0 0 341.333333 874.666667h240.426667zM490.666667 298.666667V213.333333a64 64 0 0 0-128 0v85.333334h128zM554.666667 298.666667h106.666666V213.333333a64 64 0 0 0-113.322666-40.789333c4.309333 12.8 6.656 26.538667 6.656 40.789333v85.333334z m64.426666 490.88a85.12 85.12 0 0 0 170.24 0V362.666667h-170.24v426.88z" /></svg>