<svg class="icon" style="width: 1em;height: 1em;vertical-align: middle;fill: currentColor;overflow: hidden;" viewBox="0 0 1024 1024" version="1.1" xmlns="http://www.w3.org/2000/svg"><path d="M298.666667 213.333333v85.333334H234.666667A64 64 0 0 0 170.666667 362.666667V768a170.666667 170.666667 0 0 0 170.666666 170.666667h177.834667a74.88 74.88 0 0 1 0-64H341.333333A106.666667 106.666667 0 0 1 234.666667 768V362.666667h320.426666v120.832A148.778667 148.778667 0 0 1 618.666667 469.333333h0.426666V362.666667h170.24v235.733333l64-64V362.666667A64 64 0 0 0 789.333333 298.666667H725.333333V213.333333a128 128 0 0 0-213.333333-95.402666A128 128 0 0 0 298.666667 213.333333z m192 0v85.333334h-128V213.333333a64 64 0 1 1 128 0z m170.666666 85.333334H554.666667V213.333333c0-14.250667-2.346667-27.989333-6.656-40.789333A64 64 0 0 1 661.333333 213.333333v85.333334z m-42.666666 426.666666a106.666667 106.666667 0 1 0 0-213.333333 106.666667 106.666667 0 0 0 0 213.333333z m0-149.333333a42.666667 42.666667 0 1 1 0 85.333333 42.666667 42.666667 0 0 1 0-85.333333z m256 405.333333a106.666667 106.666667 0 1 0 0-213.333333 106.666667 106.666667 0 0 0 0 213.333333z m0-149.333333a42.666667 42.666667 0 1 1 0 85.333333 42.666667 42.666667 0 0 1 0-85.333333z m54.613333-222.72a32 32 0 1 0-45.226667-45.226667l-320 320a32 32 0 1 0 45.226667 45.226667l320-320z" /></svg>