<svg class="icon" style="width: 1em;height: 1em;vertical-align: middle;fill: currentColor;overflow: hidden;" viewBox="0 0 1024 1024" version="1.1" xmlns="http://www.w3.org/2000/svg"><path d="M298.666667 298.666667V213.333333a128 128 0 0 1 213.333333-95.402666A128 128 0 0 1 725.333333 213.333333v85.333334h64A64 64 0 0 1 853.333333 362.666667v184.234666l-41.344-40.704c-6.912-6.826667-14.506667-12.757333-22.656-17.792V362.666667h-170.24v106.752h-21.717333c-14.805333 0-29.013333 2.56-42.282667 7.168V362.666667H234.666667V768A106.666667 106.666667 0 0 0 341.333333 874.666667h226.133334l62.890666 64H341.333333a170.666667 170.666667 0 0 1-170.666666-170.666667V362.666667A64 64 0 0 1 234.666667 298.666667H298.666667z m192 0V213.333333a64 64 0 0 0-128 0v85.333334h128zM554.666667 298.666667h106.666666V213.333333a64 64 0 0 0-113.322666-40.789333c4.309333 12.8 6.656 26.538667 6.656 40.789333v85.333334z m-18.261334 483.498666l170.709334 173.738667c33.322667 33.962667 88.064 34.133333 121.685333 0.512l127.701333-127.829333a84.992 84.992 0 0 0-0.512-120.746667l-173.909333-171.221333A85.674667 85.674667 0 0 0 721.92 512l-124.501333 0.085333A85.333333 85.333333 0 0 0 512 597.248v125.312c0 22.272 8.746667 43.690667 24.405333 59.605333zM682.496 640a42.666667 42.666667 0 1 1-85.333333 0.042667 42.666667 42.666667 0 0 1 85.333333-0.042667z" /></svg>