<svg class="icon" style="width: 1em;height: 1em;vertical-align: middle;fill: currentColor;overflow: hidden;" viewBox="0 0 1024 1024" version="1.1" xmlns="http://www.w3.org/2000/svg"><path d="M298.666667 298.666667V213.333333a128 128 0 0 1 213.333333-95.402666A128 128 0 0 1 725.333333 213.333333v85.333334h64A64 64 0 0 1 853.333333 362.666667v127.914666a275.285333 275.285333 0 0 0-64-18.005333V362.666667h-170.24v137.685333a278.101333 278.101333 0 0 0-64 45.781333V362.666667H234.666667V768A106.666667 106.666667 0 0 0 341.333333 874.666667h159.232A278.101333 278.101333 0 0 0 546.56 938.666667H341.333333a170.666667 170.666667 0 0 1-170.666666-170.666667V362.666667A64 64 0 0 1 234.666667 298.666667H298.666667z m192 0V213.333333a64 64 0 0 0-128 0v85.333334h128zM554.666667 298.666667h106.666666V213.333333a64 64 0 0 0-113.322666-40.789333c4.309333 12.8 6.656 26.538667 6.656 40.789333v85.333334z m426.666666 448a234.666667 234.666667 0 1 1-469.333333 0 234.666667 234.666667 0 0 1 469.333333 0z m-304.896-100.437334a21.333333 21.333333 0 0 0-30.208 30.208l70.272 70.229334-70.272 70.229333a21.333333 21.333333 0 0 0 30.208 30.208l70.229334-70.272 70.229333 70.272a21.333333 21.333333 0 0 0 30.208-30.208L776.832 746.666667l70.272-70.229334a21.333333 21.333333 0 0 0-30.208-30.208L746.666667 716.501333l-70.229334-70.272z" /></svg>