<svg class="icon" style="width: 1em;height: 1em;vertical-align: middle;fill: currentColor;overflow: hidden;" viewBox="0 0 1024 1024" version="1.1" xmlns="http://www.w3.org/2000/svg"><path d="M382.464 149.333333H362.666667v85.333334h19.797333a32 32 0 0 1 0 64H352C322.56 298.666667 298.666667 274.773333 298.666667 245.333333v-106.666666C298.666667 109.226667 322.56 85.333333 352 85.333333h30.464a32 32 0 0 1 0 64zM490.666667 85.333333a32 32 0 0 0 0 64h42.666666a32 32 0 0 0 0-64h-42.666666z m150.869333 0a32 32 0 0 0 0 64h19.797333v85.333334h-19.797333a32 32 0 0 0 0 64h30.464C701.44 298.666667 725.333333 274.773333 725.333333 245.333333v-106.666666C725.333333 109.226667 701.44 85.333333 672 85.333333h-30.464zM490.666667 234.666667a32 32 0 0 0 0 64h42.666666a32 32 0 0 0 0-64h-42.666666z m-256 138.666666a32 32 0 0 0-64 0v426.666667A138.666667 138.666667 0 0 0 309.333333 938.666667h405.333334A138.666667 138.666667 0 0 0 853.333333 800v-426.666667a32 32 0 0 0-64 0v426.666667a74.666667 74.666667 0 0 1-74.666666 74.666667h-405.333334a74.666667 74.666667 0 0 1-74.666666-74.666667v-426.666667zM352 597.333333C322.56 597.333333 298.666667 621.226667 298.666667 650.666667v106.666666c0 29.44 23.893333 53.333333 53.333333 53.333334h320c29.44 0 53.333333-23.893333 53.333333-53.333334v-106.666666c0-29.44-23.893333-53.333333-53.333333-53.333334h-320z m10.666667 149.333334v-85.333334h298.666666v85.333334h-298.666666z m0-341.333334h19.797333a32 32 0 0 0 0-64H352C322.56 341.333333 298.666667 365.226667 298.666667 394.666667v106.666666c0 29.44 23.893333 53.333333 53.333333 53.333334h30.464a32 32 0 0 0 0-64H362.666667v-85.333334z m96-32A32 32 0 0 1 490.666667 341.333333h42.666666a32 32 0 0 1 0 64h-42.666666a32 32 0 0 1-32-32z m150.869333 0a32 32 0 0 1 32-32h30.464c29.44 0 53.333333 23.893333 53.333333 53.333334v106.666666c0 29.44-23.893333 53.333333-53.333333 53.333334h-30.464a32 32 0 0 1 0-64h19.797333v-85.333334h-19.797333a32 32 0 0 1-32-32z m-150.869333 149.333334a32 32 0 0 1 32-32h42.666666a32 32 0 0 1 0 64h-42.666666a32 32 0 0 1-32-32z" /></svg>