<svg class="icon" style="width: 1em;height: 1em;vertical-align: middle;fill: currentColor;overflow: hidden;" viewBox="0 0 1024 1024" version="1.1" xmlns="http://www.w3.org/2000/svg"><path d="M629.333333 704c55.808 0 77.568 24.832 94.08 79.957333l2.901334 10.112c7.808 28.074667 12.458667 36.437333 21.888 40.362667 11.050667 4.522667 18.389333 3.882667 29.994666-2.048l6.272-3.541333c2.261333-1.322667 4.693333-2.901333 7.509334-4.736l28.288-19.285334c26.282667-17.28 49.92-28.672 78.634666-35.84a32 32 0 0 1 15.530667 62.037334 171.946667 171.946667 0 0 0-48.896 20.906666l-12.714667 8.106667-20.48 14.037333a232.533333 232.533333 0 0 1-24.874666 15.232c-27.434667 14.08-54.186667 16.426667-83.626667 4.266667-31.829333-13.056-44.629333-33.28-56.618667-73.429333l-6.656-23.125334c-7.722667-25.173333-13.013333-29.013333-31.232-29.013333-13.226667 0-26.88 6.613333-45.610666 22.314667l-7.850667 6.826666-39.296 37.376c-60.074667 56.490667-111.317333 83.882667-184.661333 83.882667-71.936 0-134.144-10.837333-186.368-32.768l125.738666-34.346667c19.072 2.090667 39.296 3.114667 60.629334 3.114667 50.474667 0 86.698667-17.706667 131.712-58.112l11.008-10.197333 22.698666-21.802667c10.069333-9.685333 17.664-16.64 25.258667-23.04 29.184-24.448 55.68-37.248 86.741333-37.248z m182.613334-577.28a152.704 152.704 0 0 1 0 215.893333l-12.288 12.330667c49.109333 59.776 47.36 123.136 1.664 168.96l-85.376 85.418667a32 32 0 0 1-45.226667-45.312l85.290667-85.290667c20.693333-20.736 23.04-46.506667-1.706667-78.421333l-367.658667 367.658666a96 96 0 0 1-42.666666 24.746667l-218.24 59.477333a32 32 0 0 1-39.253334-39.253333l59.477334-218.282667a96 96 0 0 1 24.746666-42.666666L596.053333 126.72a152.661333 152.661333 0 0 1 215.936 0z m-170.666667 45.226667L215.978667 597.333333a32 32 0 0 0-8.234667 14.165334l-44.8 164.266666 164.266667-44.8A32 32 0 0 0 341.333333 722.688l425.344-425.344a88.661333 88.661333 0 1 0-125.44-125.397333z" /></svg>