<svg class="icon" style="width: 1em;height: 1em;vertical-align: middle;fill: currentColor;overflow: hidden;" viewBox="0 0 1024 1024" version="1.1" xmlns="http://www.w3.org/2000/svg"><path d="M416 426.666667A117.333333 117.333333 0 0 0 298.666667 544v149.333333A117.333333 117.333333 0 0 0 416 810.666667h192A117.333333 117.333333 0 0 0 725.333333 693.333333v-149.333333A117.333333 117.333333 0 0 0 608 426.666667h-192zM362.666667 544c0-29.44 23.893333-53.333333 53.333333-53.333333H512V597.333333H362.666667v-53.333333z m0 117.333333H512v85.333334H416c-29.44 0-53.333333-23.893333-53.333333-53.333334v-32z m213.333333 85.333334v-256h32c29.44 0 53.333333 23.893333 53.333333 53.333333v149.333333c0 29.44-23.893333 53.333333-53.333333 53.333334h-32zM309.333333 85.333333A138.666667 138.666667 0 0 0 170.666667 224v576A138.666667 138.666667 0 0 0 309.333333 938.666667h405.333334A138.666667 138.666667 0 0 0 853.333333 800V396.202667a138.666667 138.666667 0 0 0-40.618666-98.090667l-172.16-172.16A138.666667 138.666667 0 0 0 542.464 85.333333H309.333333zM234.666667 224c0-41.216 33.450667-74.666667 74.666666-74.666667h233.130667c19.84 0 38.826667 7.850667 52.821333 21.888l172.16 172.16c14.037333 13.994667 21.888 32.981333 21.888 52.821334v403.797333a74.666667 74.666667 0 0 1-74.666666 74.666667h-405.333334a74.666667 74.666667 0 0 1-74.666666-74.666667V224z" /></svg>