<svg class="icon" style="width: 1em;height: 1em;vertical-align: middle;fill: currentColor;overflow: hidden;" viewBox="0 0 1024 1024" version="1.1" xmlns="http://www.w3.org/2000/svg"><path d="M906.666667 106.666667a32 32 0 0 1 32 32v234.666666a32 32 0 0 1-32 32h-234.666667a32 32 0 0 1 0-64h166.741333c-45.141333-59.648-103.594667-108.202667-176.213333-130.645333a413.226667 413.226667 0 0 0-267.349333 7.04c-86.613333 32.213333-166.826667 97.493333-207.104 170.965333a32 32 0 1 1-56.106667-30.72c48.725333-88.874667 142.08-163.498667 240.896-200.234666a477.226667 477.226667 0 0 1 308.608-8.192c80.170667 24.789333 144 74.922667 193.194667 134.144V138.666667a32 32 0 0 1 32-32zM373.333333 650.666667c32.554667 0 53.461333-9.429333 65.621334-20.266667 12.117333-10.752 17.28-24.32 16.853333-37.333333-0.768-23.338667-23.04-59.733333-93.141333-59.733334-30.677333 0-54.613333 9.258667-70.912 18.517334a129.024 129.024 0 0 0-22.485334 16.128 32.426667 32.426667 0 0 0-0.768 0.768h-0.042666A32 32 0 0 1 222.037333 524.8v-0.085333h0.085334l0.085333-0.128 0.256-0.256 0.682667-0.725334 2.176-2.133333a193.152 193.152 0 0 1 34.858666-25.301333A206.848 206.848 0 0 1 362.666667 469.333333c94.208 0 154.88 54.229333 157.098666 121.6a111.402667 111.402667 0 0 1-43.52 91.733334c1.792 1.408 3.541333 2.901333 5.248 4.437333 26.112 23.210667 39.381333 54.954667 38.272 87.296C517.546667 841.728 456.874667 896 362.666667 896a206.848 206.848 0 0 1-102.442667-26.837333 193.536 193.536 0 0 1-34.901333-25.301334 92.16 92.16 0 0 1-2.133334-2.133333l-0.725333-0.682667-0.256-0.256-0.085333-0.128h-0.042667l-0.042667-0.085333s-19.882667-25.258667 1.365334-45.226667a32 32 0 0 1 45.056 1.194667l0.042666 0.042667a129.408 129.408 0 0 0 23.253334 16.896c16.298667 9.216 40.234667 18.517333 70.912 18.517333 70.101333 0 92.373333-36.437333 93.141333-59.733333a47.488 47.488 0 0 0-16.853333-37.376c-12.16-10.794667-33.066667-20.224-65.621334-20.224a32 32 0 1 1 0-64z m232.490667-111.829334c23.637333-42.325333 63.274667-69.546667 119.594667-69.546666 56.32 0 96 27.221333 119.594666 69.546666 22.272 39.808 29.738667 91.605333 29.738667 143.786667 0 52.266667-7.466667 104.021333-29.738667 143.872-23.637333 42.282667-63.274667 69.504-119.594666 69.504-56.32 0-96-27.221333-119.594667-69.546667-22.272-39.808-29.738667-91.562667-29.738667-143.786666 0-52.224 7.466667-104.021333 29.738667-143.829334z m55.893333 31.189334c-14.464 25.813333-21.632 64.682667-21.632 112.64 0 47.914667 7.168 86.826667 21.589334 112.64 13.056 23.296 32.042667 36.693333 63.744 36.693333s50.688-13.397333 63.744-36.693333c14.421333-25.813333 21.589333-64.725333 21.589333-112.64 0-47.957333-7.168-86.826667-21.589333-112.64-13.056-23.296-32.042667-36.693333-63.744-36.693334s-50.688 13.354667-63.744 36.693334z" /></svg>