<svg class="icon" style="width: 1em;height: 1em;vertical-align: middle;fill: currentColor;overflow: hidden;" viewBox="0 0 1024 1024" version="1.1" xmlns="http://www.w3.org/2000/svg"><path d="M917.333333 160a32 32 0 0 0-64 0v145.066667c-49.237333-59.221333-113.066667-109.354667-193.194666-134.186667a477.226667 477.226667 0 0 0-308.608 8.192c-98.816 36.778667-192.170667 111.36-240.896 200.234667a32 32 0 1 0 56.106666 30.72c40.277333-73.472 120.533333-138.752 207.104-170.965334a413.226667 413.226667 0 0 1 267.349334-7.04c72.618667 22.485333 131.029333 70.997333 176.213333 130.645334H650.666667a32 32 0 0 0 0 64h234.666666a32 32 0 0 0 32-32v-234.666667zM341.333333 597.333333a21.333333 21.333333 0 0 0-21.333333 21.333334v170.666666a21.333333 21.333333 0 0 0 21.333333 21.333334h341.333334a21.333333 21.333333 0 0 0 21.333333-21.333334v-170.666666a21.333333 21.333333 0 0 0-21.333333-21.333334H341.333333z m-85.333333 21.333334a85.333333 85.333333 0 0 1 85.333333-85.333334h341.333334a85.333333 85.333333 0 0 1 85.333333 85.333334v170.666666a85.333333 85.333333 0 0 1-85.333333 85.333334H341.333333a85.333333 85.333333 0 0 1-85.333333-85.333334v-170.666666z" /></svg>