<svg class="icon" style="width: 1em;height: 1em;vertical-align: middle;fill: currentColor;overflow: hidden;" viewBox="0 0 1024 1024" version="1.1" xmlns="http://www.w3.org/2000/svg"><path d="M117.333333 106.666667a32 32 0 0 0-32 32v234.666666c0 17.664 14.336 32 32 32h234.666667a32 32 0 0 0 0-64H185.301333C230.4 281.685333 288.853333 233.173333 361.472 210.688a413.226667 413.226667 0 0 1 267.349333 7.04c86.613333 32.213333 166.826667 97.493333 207.104 171.008a32 32 0 0 0 56.149334-30.762667c-48.768-88.874667-142.08-163.456-240.938667-200.234666a477.226667 477.226667 0 0 0-308.608-8.192C262.4 174.378667 198.528 224.512 149.333333 283.733333V138.666667a32 32 0 0 0-32-32z m264.661334 363.861333a32 32 0 0 1 23.338666 30.805333v362.666667a32 32 0 0 1-64 0v-273.792c-16.298667 15.744-35.84 31.829333-58.197333 45.226667a32 32 0 1 1-32.938667-54.869334c28.842667-17.28 52.906667-41.173333 70.101334-61.44a351.744 351.744 0 0 0 25.472-34.048l0.256-0.384v-0.042666a31.957333 31.957333 0 0 1 35.968-14.122667z m181.162666 68.309333c23.637333-42.282667 63.274667-69.504 119.594667-69.504 56.32 0 96 27.221333 119.594667 69.504 22.272 39.808 29.738667 91.605333 29.738666 143.829334 0 52.224-7.466667 104.021333-29.738666 143.829333-23.637333 42.282667-63.274667 69.504-119.594667 69.504-56.32 0-96-27.221333-119.594667-69.504-22.272-39.808-29.738667-91.605333-29.738666-143.829333 0-52.224 7.466667-104.021333 29.738666-143.829334z m55.893334 31.232c-14.464 25.770667-21.632 64.682667-21.632 112.597334 0 47.914667 7.168 86.826667 21.589333 112.64 13.056 23.296 32.042667 36.693333 63.744 36.693333s50.688-13.397333 63.744-36.693333c14.421333-25.813333 21.589333-64.725333 21.589333-112.64 0-47.914667-7.168-86.826667-21.589333-112.64-13.056-23.296-32.042667-36.693333-63.744-36.693334s-50.688 13.397333-63.744 36.693334z" /></svg>