<svg class="icon" style="width: 1em;height: 1em;vertical-align: middle;fill: currentColor;overflow: hidden;" viewBox="0 0 1024 1024" version="1.1" xmlns="http://www.w3.org/2000/svg"><path d="M570.794667 129.109333a384.170667 384.170667 0 0 1 311.808 575.744 384.170667 384.170667 0 0 1-648.96 26.069334 28.8 28.8 0 0 1 13.994666-43.434667c144.682667-51.797333 222.208-111.829333 267.178667-197.674667 47.36-90.368 59.562667-189.397333 26.453333-325.12a28.8 28.8 0 0 1 29.525334-35.584z m43.136 69.888l2.773333 16.64c17.792 115.370667 2.773333 212.266667-45.226667 303.872-48.682667 93.013333-128 158.037333-256.64 210.773334a320.170667 320.170667 0 1 0 327.552-524.074667l-14.165333-3.968-14.293333-3.242667z m-144.853334-43.093333l0.256 4.181333V384a85.333333 85.333333 0 1 1-63.957333-82.645333L405.333333 203.264 256 248.746667V426.666667a85.333333 85.333333 0 1 1-63.957333-82.645334L192 224.981333a32 32 0 0 1 18.346667-28.928l4.352-1.706666 213.333333-64.853334a32 32 0 0 1 40.234667 22.357334l0.810666 4.010666z" /></svg>