<svg class="icon" style="width: 1em;height: 1em;vertical-align: middle;fill: currentColor;overflow: hidden;" viewBox="0 0 1024 1024" version="1.1" xmlns="http://www.w3.org/2000/svg"><path d="M213.333333 586.666667c0-29.44 23.893333-53.333333 53.333334-53.333334h170.666666c29.44 0 53.333333 23.893333 53.333334 53.333334v85.333333c0 29.44-23.893333 53.333333-53.333334 53.333333h-170.666666C237.226667 725.333333 213.333333 701.44 213.333333 672v-85.333333z m64 10.666666v64H426.666667V597.333333H277.333333z m309.333334-64c-29.44 0-53.333333 23.893333-53.333334 53.333334v85.333333c0 29.44 23.893333 53.333333 53.333334 53.333333h170.666666c29.44 0 53.333333-23.893333 53.333334-53.333333v-85.333333c0-29.44-23.893333-53.333333-53.333334-53.333334h-170.666666z m10.666666 128V597.333333h149.333334v64H597.333333zM213.333333 352C213.333333 322.56 237.226667 298.666667 266.666667 298.666667h170.666666c29.44 0 53.333333 23.893333 53.333334 53.333333v85.333333c0 29.44-23.893333 53.333333-53.333334 53.333334h-170.666666c-29.44 0-53.333333-23.893333-53.333334-53.333334v-85.333333z m64 10.666667V426.666667H426.666667V362.666667H277.333333zM586.666667 298.666667c-29.44 0-53.333333 23.893333-53.333334 53.333333v85.333333c0 29.44 23.893333 53.333333 53.333334 53.333334h170.666666c29.44 0 53.333333-23.893333 53.333334-53.333334v-85.333333C810.666667 322.56 786.773333 298.666667 757.333333 298.666667h-170.666666z m10.666666 128V362.666667h149.333334V426.666667H597.333333zM85.333333 288A117.333333 117.333333 0 0 1 202.666667 170.666667h618.666666A117.333333 117.333333 0 0 1 938.666667 288v448A117.333333 117.333333 0 0 1 821.333333 853.333333H202.666667A117.333333 117.333333 0 0 1 85.333333 736V288zM202.666667 234.666667c-29.44 0-53.333333 23.893333-53.333334 53.333333v448c0 29.44 23.893333 53.333333 53.333334 53.333333h618.666666c29.44 0 53.333333-23.893333 53.333334-53.333333V288c0-29.44-23.893333-53.333333-53.333334-53.333333H202.666667z" /></svg>