<svg class="icon" style="width: 1em;height: 1em;vertical-align: middle;fill: currentColor;overflow: hidden;" viewBox="0 0 1024 1024" version="1.1" xmlns="http://www.w3.org/2000/svg"><path d="M715.946667 308.053333c6.058667 5.973333 9.386667 14.122667 9.386666 22.613334v106.666666a32 32 0 0 1-64 0v-29.44l-73.386666 73.386667a32 32 0 1 1-45.226667-45.269333L616.106667 362.666667h-29.44a32 32 0 0 1 0-64h106.666666a32 32 0 0 1 22.613334 9.386666zM298.666667 693.333333a32 32 0 0 0 32 32h106.709333a32 32 0 0 0 0-64h-29.44l73.386667-73.386666a32 32 0 0 0-45.269334-45.226667L362.666667 616.021333v-29.44a32 32 0 0 0-64 0v106.666667zM85.333333 288A117.333333 117.333333 0 0 1 202.666667 170.666667h618.666666A117.333333 117.333333 0 0 1 938.666667 288v448A117.333333 117.333333 0 0 1 821.333333 853.333333H202.666667A117.333333 117.333333 0 0 1 85.333333 736V288zM202.666667 234.666667c-29.44 0-53.333333 23.893333-53.333334 53.333333v448c0 29.44 23.893333 53.333333 53.333334 53.333333h618.666666c29.44 0 53.333333-23.893333 53.333334-53.333333V288c0-29.44-23.893333-53.333333-53.333334-53.333333H202.666667z" /></svg>