<svg class="icon" style="width: 1em;height: 1em;vertical-align: middle;fill: currentColor;overflow: hidden;" viewBox="0 0 1024 1024" version="1.1" xmlns="http://www.w3.org/2000/svg"><path d="M202.666667 170.666667A117.333333 117.333333 0 0 0 85.333333 288v448A117.333333 117.333333 0 0 0 202.666667 853.333333h287.914666a275.285333 275.285333 0 0 1-18.005333-64H202.666667c-29.44 0-53.333333-23.893333-53.333334-53.333333V288c0-29.44 23.893333-53.333333 53.333334-53.333333h618.666666c29.44 0 53.333333 23.893333 53.333334 53.333333v212.565333A278.101333 278.101333 0 0 1 938.666667 546.56V288A117.333333 117.333333 0 0 0 821.333333 170.666667H202.666667z m406.528 425.6a85.333333 85.333333 0 0 1-61.482667 106.538666l-24.917333 6.144a244.437333 244.437333 0 0 0 0.256 77.098667l23.04 5.546667a85.333333 85.333333 0 0 1 61.866666 107.093333l-7.978666 26.965333c18.773333 16.469333 40.106667 29.824 63.317333 39.296l21.077333-22.101333a85.333333 85.333333 0 0 1 123.690667 0l21.248 22.4a225.322667 225.322667 0 0 0 63.274667-38.954667l-8.448-29.269333a85.333333 85.333333 0 0 1 61.482666-106.496l24.917334-6.144a243.882667 243.882667 0 0 0-0.256-77.141333l-23.04-5.546667a85.333333 85.333333 0 0 1-61.866667-107.093333l7.978667-26.88a225.194667 225.194667 0 0 0-63.317334-39.381334l-21.034666 22.144a85.333333 85.333333 0 0 1-123.733334 0l-21.248-22.4c-23.210667 9.386667-44.544 22.613333-63.274666 38.912l8.448 29.269334zM746.666667 810.666667c-34.133333 0-61.866667-28.672-61.866667-64 0-35.370667 27.733333-64 61.866667-64 34.133333 0 61.866667 28.629333 61.866666 64 0 35.328-27.733333 64-61.866666 64z" /></svg>