<svg class="icon" style="width: 1em;height: 1em;vertical-align: middle;fill: currentColor;overflow: hidden;" viewBox="0 0 1024 1024" version="1.1" xmlns="http://www.w3.org/2000/svg"><path d="M202.666667 170.666667A117.333333 117.333333 0 0 0 85.333333 288v448A117.333333 117.333333 0 0 0 202.666667 853.333333h384.128a197.845333 197.845333 0 0 1-27.306667-64H202.666667c-29.44 0-53.333333-23.893333-53.333334-53.333333V288c0-29.44 23.893333-53.333333 53.333334-53.333333h618.666666c29.44 0 53.333333 23.893333 53.333334 53.333333v207.957333c40.32 28.501333 64 75.946667 64 122.709334V288A117.333333 117.333333 0 0 0 821.333333 170.666667H202.666667zM704.896 853.333333c-26.325333-14.933333-46.549333-37.077333-57.002667-64a117.333333 117.333333 0 0 1-7.893333-42.666666 21.333333 21.333333 0 0 0-42.666667 0c0 14.634667 2.218667 28.970667 6.357334 42.666666 7.082667 23.552 19.925333 45.354667 37.12 64 30.933333 33.664 76.032 57.173333 127.189333 62.848V960a21.333333 21.333333 0 0 0 42.666667 0v-43.818667c96-10.666667 170.666667-84.181333 170.666666-169.514666a21.333333 21.333333 0 0 0-42.666666 0c0 74.666667-66.858667 128-149.333334 128-31.317333 0-60.416-7.68-84.437333-21.333334zM789.333333 832a104.533333 104.533333 0 0 1-85.12-42.666667A108.202667 108.202667 0 0 1 682.666667 725.333333v-106.666666c0-53.504 42.666667-106.666667 106.666666-106.666667 36.906667 0 66.688 17.792 85.333334 43.050667 13.653333 18.517333 21.333333 41.088 21.333333 63.616V725.333333c0 53.162667-42.666667 106.666667-106.666667 106.666667zM288 341.333333a32 32 0 0 0 0 64h192a32 32 0 0 0 0-64h-192zM256 501.333333a32 32 0 0 1 32-32h277.333333a32 32 0 0 1 0 64h-277.333333a32 32 0 0 1-32-32zM256 629.333333a32 32 0 0 1 32-32h234.666667a32 32 0 0 1 0 64h-234.666667a32 32 0 0 1-32-32z" /></svg>