<svg class="icon" style="width: 1em;height: 1em;vertical-align: middle;fill: currentColor;overflow: hidden;" viewBox="0 0 1024 1024" version="1.1" xmlns="http://www.w3.org/2000/svg"><path d="M842.666667 874.666667h-331.733334l-64-64h395.733334a32 32 0 0 0 32-32v-405.333334a32 32 0 0 0-32-32h-512a32 32 0 0 0-32 32v104.832A234.965333 234.965333 0 0 0 234.666667 469.333333V373.333333A96 96 0 0 1 330.666667 277.333333h416V224a32 32 0 0 0-32-32h-512c-29.44 0-53.333333 23.893333-53.333334 53.333333v240a234.496 234.496 0 0 0-64 37.632V245.333333A117.333333 117.333333 0 0 1 202.666667 128h512A96 96 0 0 1 810.666667 224V277.333333h32A96 96 0 0 1 938.666667 373.333333v405.333334a96 96 0 0 1-96 96z m-496.768-14.165334a192 192 0 1 1 45.226666-45.226666l111.488 111.445333a32 32 0 1 1-45.226666 45.226667l-111.488-111.445334zM106.666667 704a128 128 0 1 0 256 0 128 128 0 0 0-256 0z" /></svg>