<svg class="icon" style="width: 1em;height: 1em;vertical-align: middle;fill: currentColor;overflow: hidden;" viewBox="0 0 1024 1024" version="1.1" xmlns="http://www.w3.org/2000/svg"><path d="M202.666667 192c-29.44 0-53.333333 23.893333-53.333334 53.333333v384c0 17.664 14.336 32 32 32h10.666667V725.333333h-10.666667A96 96 0 0 1 85.333333 629.333333v-384A117.333333 117.333333 0 0 1 202.666667 128h512A96 96 0 0 1 810.666667 224v10.666667h-64v-10.666667a32 32 0 0 0-32-32h-512zM842.666667 277.333333h-21.162667l-4.352 0.298667A32 32 0 0 0 821.504 341.333333h21.162667l4.352 0.298667a32 32 0 0 1 27.648 31.701333v42.837334l0.298666 4.309333A32 32 0 0 0 938.666667 416.170667V373.333333l-0.213334-6.570666A96 96 0 0 0 842.666667 277.333333zM298.368 518.357333a32 32 0 0 0-63.701333 4.352v106.410667l0.298666 4.352A32 32 0 0 0 298.666667 629.12v-106.410667l-0.298667-4.352zM266.666667 703.786667a32 32 0 0 1 31.701333 27.648l0.298667 4.352v42.88c0 16.213333 12.032 29.610667 27.648 31.701333L330.666667 810.666667h21.333333a32 32 0 0 1 4.352 63.701333l-4.352 0.298667h-21.333333a96 96 0 0 1-95.786667-89.429334L234.666667 778.666667v-42.88a32 32 0 0 1 32-32zM906.666667 703.786667a32 32 0 0 1 32 32v42.88a96 96 0 0 1-96 96h-42.794667a32 32 0 0 1 0-64h42.794667a32 32 0 0 0 32-32v-42.88a32 32 0 0 1 32-32zM693.248 810.666667h-63.786667l-4.352 0.298666a32 32 0 0 0 4.352 63.701334h63.786667l4.352-0.298667A32 32 0 0 0 693.248 810.666667zM458.666667 810.666667h63.829333a32 32 0 0 1 4.352 63.701333l-4.352 0.298667h-63.786667a32 32 0 0 1-4.352-63.701334L458.666667 810.666667zM906.666667 490.666667a32 32 0 0 1 31.701333 27.690666l0.298667 4.352v106.410667a32 32 0 0 1-63.701334 4.352l-0.298666-4.352v-106.410667a32 32 0 0 1 32-32zM373.461333 277.333333a32 32 0 0 1 0 64H330.666667a32 32 0 0 0-32 32v42.837334a32 32 0 0 1-64 0V373.333333A96 96 0 0 1 330.666667 277.333333h42.794666zM714.752 277.333333h-64.128l-4.352 0.298667A32 32 0 0 0 650.666667 341.333333h64.128l4.352-0.298666a32 32 0 0 0-4.352-63.701334zM480 277.333333h63.786667a32 32 0 0 1 4.352 63.701334L543.786667 341.333333H480a32 32 0 0 1-4.352-63.701333l4.352-0.298667z" /></svg>