<svg class="icon" style="width: 1em;height: 1em;vertical-align: middle;fill: currentColor;overflow: hidden;" viewBox="0 0 1024 1024" version="1.1" xmlns="http://www.w3.org/2000/svg"><path d="M234.666667 725.333333H181.333333A96 96 0 0 1 85.333333 629.333333v-384A117.333333 117.333333 0 0 1 202.666667 128h512A96 96 0 0 1 810.666667 224V277.333333h32A96 96 0 0 1 938.666667 373.333333v405.333334a96 96 0 0 1-96 96h-512a96 96 0 0 1-96-96V725.333333z m-85.333334-480v384c0 17.664 14.336 32 32 32H234.666667V373.333333A96 96 0 0 1 330.666667 277.333333h416V224a32 32 0 0 0-32-32h-512c-29.44 0-53.333333 23.893333-53.333334 53.333333z m149.333334 128v405.333334c0 17.664 14.336 32 32 32h512a32 32 0 0 0 32-32v-405.333334a32 32 0 0 0-32-32h-512a32 32 0 0 0-32 32z" /></svg>