<svg class="icon" style="width: 1em;height: 1em;vertical-align: middle;fill: currentColor;overflow: hidden;" viewBox="0 0 1024 1024" version="1.1" xmlns="http://www.w3.org/2000/svg"><path d="M288 341.333333a32 32 0 0 0 0 64h192a32 32 0 0 0 0-64h-192zM256 501.333333a32 32 0 0 1 32-32h362.666667a32 32 0 0 1 0 64h-362.666667a32 32 0 0 1-32-32zM288 597.333333a32 32 0 0 0 0 64h277.333333a32 32 0 0 0 0-64h-277.333333zM202.666667 170.666667A117.333333 117.333333 0 0 0 85.333333 288v448A117.333333 117.333333 0 0 0 202.666667 853.333333h618.666666A117.333333 117.333333 0 0 0 938.666667 736V288A117.333333 117.333333 0 0 0 821.333333 170.666667H202.666667zM149.333333 288c0-29.44 23.893333-53.333333 53.333334-53.333333h618.666666c29.44 0 53.333333 23.893333 53.333334 53.333333v448c0 29.44-23.893333 53.333333-53.333334 53.333333H202.666667c-29.44 0-53.333333-23.893333-53.333334-53.333333V288z" /></svg>