<svg class="icon" style="width: 1em;height: 1em;vertical-align: middle;fill: currentColor;overflow: hidden;" viewBox="0 0 1024 1024" version="1.1" xmlns="http://www.w3.org/2000/svg"><path d="M202.666667 170.666667A117.333333 117.333333 0 0 0 85.333333 288v192.298667a234.496 234.496 0 0 1 64-37.632V288c0-29.44 23.893333-53.333333 53.333334-53.333333h618.666666c29.44 0 53.333333 23.893333 53.333334 53.333333v448c0 29.44-23.893333 53.333333-53.333334 53.333333h-353.066666l64 64h289.066666A117.333333 117.333333 0 0 0 938.666667 736V288A117.333333 117.333333 0 0 0 821.333333 170.666667H202.666667zM369.621333 469.333333a235.904 235.904 0 0 1 61.738667 64h304.64a32 32 0 0 0 0-64H369.621333zM650.666667 661.333333H469.333333c0-22.186667-3.072-43.648-8.832-64h190.165334a32 32 0 0 1 0 64zM288 341.333333a32 32 0 0 0 0 64h277.333333a32 32 0 0 0 0-64h-277.333333zM234.666667 853.333333a191.146667 191.146667 0 0 0 111.232-35.498666l111.488 111.445333a32 32 0 1 0 45.226666-45.226667l-111.445333-111.488A192 192 0 1 0 234.666667 853.333333z m0-64a128 128 0 1 1 0-256 128 128 0 0 1 0 256z" /></svg>