<svg class="icon" style="width: 1em;height: 1em;vertical-align: middle;fill: currentColor;overflow: hidden;" viewBox="0 0 1024 1024" version="1.1" xmlns="http://www.w3.org/2000/svg"><path d="M202.666667 170.666667A117.333333 117.333333 0 0 0 85.333333 288v448A117.333333 117.333333 0 0 0 202.666667 853.333333h618.666666A117.333333 117.333333 0 0 0 938.666667 736V288A117.333333 117.333333 0 0 0 821.333333 170.666667H202.666667zM149.333333 288c0-29.44 23.893333-53.333333 53.333334-53.333333H213.333333v554.666666h-10.666666c-29.44 0-53.333333-23.893333-53.333334-53.333333V288z m128 501.333333v-554.666666H384v554.666666H277.333333z m320 0h-149.333333v-554.666666H597.333333v554.666666z m64 0v-554.666666h160c29.44 0 53.333333 23.893333 53.333334 53.333333v448c0 29.44-23.893333 53.333333-53.333334 53.333333H661.333333z" /></svg>