<svg class="icon" style="width: 1em;height: 1em;vertical-align: middle;fill: currentColor;overflow: hidden;" viewBox="0 0 1024 1024" version="1.1" xmlns="http://www.w3.org/2000/svg"><path d="M85.333333 288A117.333333 117.333333 0 0 1 202.666667 170.666667h618.666666A117.333333 117.333333 0 0 1 938.666667 288v258.56a278.101333 278.101333 0 0 0-64-45.994667V288c0-29.44-23.893333-53.333333-53.333334-53.333333H202.666667c-29.44 0-53.333333 23.893333-53.333334 53.333333v448c0 29.44 23.893333 53.333333 53.333334 53.333333h269.909333c3.456 22.314667 9.557333 43.776 18.005333 64H202.666667A117.333333 117.333333 0 0 1 85.333333 736V288zM981.333333 746.666667a234.666667 234.666667 0 1 0-469.333333 0 234.666667 234.666667 0 0 0 469.333333 0z m-213.333333 21.333333l0.042667 106.794667a21.333333 21.333333 0 1 1-42.666667 0V768h-106.88a21.333333 21.333333 0 1 1 0-42.666667H725.333333v-106.666666a21.333333 21.333333 0 1 1 42.666667 0V725.333333h106.794667a21.333333 21.333333 0 1 1 0 42.666667h-106.752z" /></svg>