<svg class="icon" style="width: 1em;height: 1em;vertical-align: middle;fill: currentColor;overflow: hidden;" viewBox="0 0 1024 1024" version="1.1" xmlns="http://www.w3.org/2000/svg"><path d="M85.333333 288C85.333333 223.146667 137.813333 170.666667 202.581333 170.666667h618.154667a117.290667 117.290667 0 0 1 117.248 117.333333v246.741333l-34.133333-34.133333a106.410667 106.410667 0 0 0-29.824-21.077333V288c0-29.44-23.893333-53.333333-53.290667-53.333333H202.581333c-29.44 0-53.333333 23.893333-53.333333 53.333333v447.872c0 29.44 23.893333 53.333333 53.333333 53.333333h309.717334c0.725333 22.741333 8.704 45.312 23.893333 63.957334h-333.653333A117.290667 117.290667 0 0 1 85.333333 735.786667V288z m788.352 242.730667a63.914667 63.914667 0 0 0-90.453333 0l-132.608 132.693333 179.370667 179.413333 132.608-132.693333a64 64 0 0 0 0-90.453333l-88.917334-88.96z m-300.074666 209.749333l46.890666-46.933333 179.328 179.456-46.890666 46.933333a63.914667 63.914667 0 0 1-90.453334 0l-88.874666-88.96a64 64 0 0 1 0-90.496z" /></svg>