<svg class="icon" style="width: 1em;height: 1em;vertical-align: middle;fill: currentColor;overflow: hidden;" viewBox="0 0 1024 1024" version="1.1" xmlns="http://www.w3.org/2000/svg"><path d="M192 725.333333h-10.666667A96 96 0 0 1 85.333333 629.333333v-384A117.333333 117.333333 0 0 1 202.666667 128h512A96 96 0 0 1 810.666667 224v10.666667h-64v-10.666667a32 32 0 0 0-32-32h-512c-29.44 0-53.333333 23.893333-53.333334 53.333333v384c0 17.664 14.336 32 32 32h10.666667V725.333333zM330.666667 277.333333A96 96 0 0 0 234.666667 373.333333v405.333334a96 96 0 0 0 96 96h169.898666a275.456 275.456 0 0 1-23.808-64H330.666667a32 32 0 0 1-32-32v-405.333334A32 32 0 0 1 330.666667 341.333333h512a32 32 0 0 1 32 32v127.232A278.101333 278.101333 0 0 1 938.666667 546.56V373.333333a96 96 0 0 0-96-96h-512zM981.333333 746.666667a234.666667 234.666667 0 1 1-469.333333 0 234.666667 234.666667 0 0 1 469.333333 0z m-362.666666-21.333334a21.333333 21.333333 0 0 0 0 42.666667h204.501333l-70.272 70.229333a21.333333 21.333333 0 0 0 30.208 30.208l106.666667-106.666666a21.333333 21.333333 0 0 0 0-30.208l-106.666667-106.666667a21.333333 21.333333 0 0 0-30.208 30.208L823.168 725.333333H618.666667z" /></svg>