<svg class="icon" style="width: 1em;height: 1em;vertical-align: middle;fill: currentColor;overflow: hidden;" viewBox="0 0 1024 1024" version="1.1" xmlns="http://www.w3.org/2000/svg"><path d="M618.666667 85.333333a85.333333 85.333333 0 0 1 76.373333 47.146667c-7.978667 18.218667-12.373333 38.4-12.373333 59.52 0 28.16 7.808 54.485333 21.333333 76.970667V273.066667c1.450667 0.853333 2.901333 1.706667 4.352 2.645333 10.666667 15.701333 24.192 29.269333 39.893333 39.893333C760.746667 335.445333 768 358.869333 768 384v42.666667a42.666667 42.666667 0 0 1 42.666667 42.666666v42.666667a42.666667 42.666667 0 0 1-42.666667 42.666667v85.333333c0 47.36-25.728 88.746667-64 110.890667V853.333333a85.333333 85.333333 0 0 1-85.333333 85.333334h-213.333334a85.333333 85.333333 0 0 1-85.333333-85.333334v-102.442666A127.957333 127.957333 0 0 1 256 640V384c0-47.36 25.728-88.746667 64-110.890667V170.666667a85.333333 85.333333 0 0 1 85.333333-85.333334h213.333334z m-213.333334 64A21.333333 21.333333 0 0 0 384 170.666667v85.333333h256V170.666667a21.333333 21.333333 0 0 0-21.333333-21.333334h-213.333334z m298.666667 490.666667V384A64 64 0 0 0 640 320H384A64 64 0 0 0 320 384v256A64 64 0 0 0 384 704h256a64 64 0 0 0 64-64zM384 853.333333a21.333333 21.333333 0 0 0 21.333333 21.333334h213.333334a21.333333 21.333333 0 0 0 21.333333-21.333334v-85.333333H384v85.333333zM938.666667 192a106.666667 106.666667 0 1 0-213.333334 0 106.666667 106.666667 0 0 0 213.333334 0z" /></svg>