<svg class="icon" style="width: 1em;height: 1em;vertical-align: middle;fill: currentColor;overflow: hidden;" viewBox="0 0 1024 1024" version="1.1" xmlns="http://www.w3.org/2000/svg"><path d="M320 273.109333V170.666667a85.333333 85.333333 0 0 1 85.333333-85.333334h213.333334a85.333333 85.333333 0 0 1 85.333333 85.333334v102.442666A127.957333 127.957333 0 0 1 768 384v42.666667a42.666667 42.666667 0 0 1 42.666667 42.666666v42.666667a42.666667 42.666667 0 0 1-42.666667 42.666667v85.333333c0 47.36-25.728 88.746667-64 110.890667V853.333333a85.333333 85.333333 0 0 1-85.333333 85.333334h-213.333334a85.333333 85.333333 0 0 1-85.333333-85.333334v-102.442666A127.957333 127.957333 0 0 1 256 640V384c0-47.36 25.728-88.746667 64-110.890667z m85.333333-123.776A21.333333 21.333333 0 0 0 384 170.666667v85.333333h256V170.666667a21.333333 21.333333 0 0 0-21.333333-21.333334h-213.333334z m298.666667 490.666667V384A64 64 0 0 0 640 320H384A64 64 0 0 0 320 384v256A64 64 0 0 0 384 704h256a64 64 0 0 0 64-64zM384 853.333333a21.333333 21.333333 0 0 0 21.333333 21.333334h213.333334a21.333333 21.333333 0 0 0 21.333333-21.333334v-85.333333H384v85.333333z" /></svg>