<svg class="icon" style="width: 1em;height: 1em;vertical-align: middle;fill: currentColor;overflow: hidden;" viewBox="0 0 1024 1024" version="1.1" xmlns="http://www.w3.org/2000/svg"><path d="M351.786667 554.794667a32 32 0 0 1 28.202666 47.104l-2.432 3.84-197.205333 268.885333h171.434667a32 32 0 0 1 31.701333 27.648l0.298667 4.352a32 32 0 0 1-27.690667 31.701333L351.786667 938.666667H117.248a32 32 0 0 1-28.245333-47.104l2.432-3.84 197.162666-268.885334H117.333333a32 32 0 0 1-31.701333-27.648l-0.298667-4.352a32 32 0 0 1 27.648-31.701333l4.352-0.298667h234.496zM906.752 85.333333c25.6 0 40.234667 28.16 27.264 48.853334l-2.56 3.541333-362.325333 438.144h337.621333a32 32 0 0 1 31.701333 27.648l0.298667 4.352a32 32 0 0 1-27.648 31.701333l-4.352 0.298667h-405.504a32 32 0 0 1-27.264-48.810667l2.56-3.584 362.24-438.186666-337.536 0.042666a32 32 0 0 1-31.701333-27.648l-0.298667-4.352a32 32 0 0 1 27.648-31.701333L501.248 85.333333h405.504z" /></svg>