<svg class="icon" style="width: 1em;height: 1em;vertical-align: middle;fill: currentColor;overflow: hidden;" viewBox="0 0 1024 1024" version="1.1" xmlns="http://www.w3.org/2000/svg"><path d="M149.333333 512a362.666667 362.666667 0 1 1 629.845334 245.248l42.325333 48.426667A425.216 425.216 0 0 0 938.666667 512c0-235.648-191.018667-426.666667-426.666667-426.666667S85.333333 276.352 85.333333 512a425.216 425.216 0 0 0 117.162667 293.674667l42.368-48.384A361.386667 361.386667 0 0 1 149.333333 512zM821.333333 517.333333a302.848 302.848 0 0 1-76.074666 201.173334l-42.581334-48.64a240 240 0 1 0-375.722666-6.4l-42.837334 48.896a304 304 0 1 1 537.173334-195.029334zM693.333333 512a180.48 180.48 0 0 1-35.029333 107.136l-43.776-50.005333a117.333333 117.333333 0 1 0-205.056 0L365.696 619.093333A181.333333 181.333333 0 1 1 693.333333 512zM536.064 544.256a32 32 0 0 0-48.128 0l-298.666667 341.333333A32 32 0 0 0 213.333333 938.666667h597.333334a32 32 0 0 0 24.064-53.077334l-298.666667-341.333333z m204.074667 330.410667H283.861333L512 613.930667l228.138667 260.736z" /></svg>