<svg class="icon" style="width: 1em;height: 1em;vertical-align: middle;fill: currentColor;overflow: hidden;" viewBox="0 0 1024 1024" version="1.1" xmlns="http://www.w3.org/2000/svg"><path d="M369.664 671.36c10.453333 7.381333 22.912 11.306667 35.669333 11.264v-0.170667a61.525333 61.525333 0 0 0 56.618667-37.205333l26.154667-79.530667a122.538667 122.538667 0 0 1 77.525333-77.312l75.861333-24.661333a61.568 61.568 0 0 0-2.218666-116.906667l-74.88-24.32a122.709333 122.709333 0 0 1-77.738667-77.781333l-24.661333-75.818667a61.696 61.696 0 0 0-116.565334 0.938667l-24.874666 76.458667a122.752 122.752 0 0 1-75.52 76.202666l-75.818667 24.362667a61.610667 61.610667 0 0 0 0.725333 116.650667l74.837334 24.277333a123.178667 123.178667 0 0 1 77.738666 77.909333l24.661334 75.733334c4.224 12.074667 12.074667 22.528 22.485333 29.866666z m-15.957333-181.333333a172.970667 172.970667 0 0 0-15.488-17.621334h0.128a187.477333 187.477333 0 0 0-73.386667-45.354666l-68.266667-21.674667 68.736-22.357333a187.733333 187.733333 0 0 0 72.106667-45.44 189.781333 189.781333 0 0 0 44.416-72.874667l21.973333-67.498667 22.016 67.712a186.624 186.624 0 0 0 118.656 118.314667l69.12 22.272-67.84 21.973333a186.837333 186.837333 0 0 0-118.357333 118.4l-21.973333 67.498667-21.973334-67.626667a186.368 186.368 0 0 0-29.866666-55.722666z m343.082666 396.672a47.914667 47.914667 0 0 1-17.493333-23.424l-13.994667-42.965334a55.168 55.168 0 0 0-35.029333-35.114666l-42.282667-13.781334A48.981333 48.981333 0 0 1 554.666667 725.205333a48.768 48.768 0 0 1 32.896-46.08l42.922666-13.909333a55.466667 55.466667 0 0 0 34.133334-34.944l13.824-42.325333a48.768 48.768 0 0 1 92.032-0.896l14.037333 43.264a55.466667 55.466667 0 0 0 34.986667 34.816l42.325333 13.781333a48.682667 48.682667 0 0 1 1.664 92.373333l-43.264 14.037334a55.466667 55.466667 0 0 0-34.901333 35.072l-13.738667 42.197333c-3.328 9.813333-9.642667 18.346667-18.133333 24.32a48.64 48.64 0 0 1-56.661334-0.213333z m-43.946666-161.408A118.997333 118.997333 0 0 1 725.333333 798.208a119.210667 119.210667 0 0 1 72.533334-72.533333 120.021333 120.021333 0 0 1-73.301334-72.874667A119.722667 119.722667 0 0 1 652.8 725.333333z" /></svg>