<svg class="icon" style="width: 1em;height: 1em;vertical-align: middle;fill: currentColor;overflow: hidden;" viewBox="0 0 1024 1024" version="1.1" xmlns="http://www.w3.org/2000/svg"><path d="M627.370667 146.816c8.149333 9.642667 12.629333 21.845333 12.629333 34.474667V842.666667a53.333333 53.333333 0 0 1-87.808 40.704l-211.925333-179.456H181.333333A96 96 0 0 1 85.333333 607.914667v-192a96 96 0 0 1 96-96h158.933334l211.968-179.370667a53.333333 53.333333 0 0 1 75.136 6.272zM576 204.288l-212.266667 179.626667H181.333333a32 32 0 0 0-32 32v192c0 17.706667 14.336 32 32 32h182.4l212.266667 179.754666V204.288z" /></svg>