<svg class="icon" style="width: 1em;height: 1em;vertical-align: middle;fill: currentColor;overflow: hidden;" viewBox="0 0 1024 1024" version="1.1" xmlns="http://www.w3.org/2000/svg"><path d="M627.370667 146.858667c8.149333 9.642667 12.629333 21.845333 12.629333 34.474666v661.418667a53.333333 53.333333 0 0 1-87.808 40.704L340.266667 704H181.333333A96 96 0 0 1 85.333333 608v-192A96 96 0 0 1 181.333333 320h158.933334l211.968-179.370667a53.333333 53.333333 0 0 1 75.136 6.272zM576 204.373333L363.733333 384H181.333333a32 32 0 0 0-32 32v192c0 17.706667 14.336 32 32 32h182.4l212.266667 179.754667V204.373333z m153.770667 164.309334a32 32 0 0 1 43.946666 10.666666c24.490667 40.106667 36.778667 84.992 36.778667 133.973334 0 49.024-12.288 93.909333-36.778667 134.016a32 32 0 1 1-54.613333-33.322667c18.261333-29.952 27.392-63.274667 27.392-100.693333 0-37.376-9.130667-70.698667-27.392-100.650667a32 32 0 0 1 10.666667-43.946667z" /></svg>