<svg class="icon" style="width: 1em;height: 1em;vertical-align: middle;fill: currentColor;overflow: hidden;" viewBox="0 0 1024 1024" version="1.1" xmlns="http://www.w3.org/2000/svg"><path d="M627.370667 146.858667c8.149333 9.642667 12.629333 21.845333 12.629333 34.474666v661.418667a53.333333 53.333333 0 0 1-87.808 40.704L340.266667 704H181.333333A96 96 0 0 1 85.333333 608v-192A96 96 0 0 1 181.333333 320h158.933334l211.968-179.370667a53.333333 53.333333 0 0 1 75.136 6.272zM576 204.373333L363.733333 384H181.333333a32 32 0 0 0-32 32v192c0 17.706667 14.336 32 32 32h182.4l212.266667 179.754667V204.373333z m170.666667 217.898667V288c0-27.605333 32.085333-41.6 52.266666-24.789333l3.242667 3.072 128 138.666666a32 32 0 0 1 0.213333 43.178667l-3.242666 3.114667L854.272 512l72.874667 60.8a32 32 0 0 1 5.845333 42.752l-2.816 3.498667-128 138.752c-18.688 20.266667-51.797333 8.789333-55.210667-17.237334l-0.298666-4.48v-134.4l-11.392 9.472a32 32 0 0 1-44.373334-45.909333l3.413334-3.285333 52.352-43.605334v-12.8l-52.352-43.648a32 32 0 0 1 37.12-51.882666l3.84 2.730666 11.392 9.514667V288v134.229333zM810.666667 558.933333v95.232l49.664-53.802666L810.666667 558.933333z m0-189.098666v95.146666l49.664-41.386666L810.666667 369.877333z" /></svg>