<svg class="icon" style="width: 1em;height: 1em;vertical-align: middle;fill: currentColor;overflow: hidden;" viewBox="0 0 1024 1024" version="1.1" xmlns="http://www.w3.org/2000/svg"><path d="M551.253333 141.482667c34.389333-30.592 88.746667-6.186667 88.746667 39.850666v661.162667c0 45.994667-54.357333 70.4-88.746667 39.850667l-191.658666-170.410667a32 32 0 0 0-21.248-8.106667H181.333333A96 96 0 0 1 85.333333 607.872V416a96 96 0 0 1 96-96h157.013334a32 32 0 0 0 21.248-8.106667l191.616-170.368z m24.746667 63.573333L402.133333 359.68A96 96 0 0 1 338.346667 384H181.333333a32 32 0 0 0-32 32v191.872c0 17.706667 14.336 32 32 32h157.013334a96 96 0 0 1 63.786666 24.32l173.866667 154.581333V205.098667zM703.957333 352a32 32 0 0 1 32-32h149.461334a32 32 0 0 1 32 32v76.672a32 32 0 0 1 21.248 30.165333v213.333334a32 32 0 0 1-32 32h-10.069334v117.162666a32 32 0 0 1-64 0v-117.205333h-41.898666v117.205333a32 32 0 0 1-64 0v-117.205333h-12.032a32 32 0 0 1-32-32v-213.333333a32 32 0 0 1 21.290666-30.165334V352z m170.709334 138.837333h-128v149.333334h128v-149.333334zM767.957333 384v42.666667h85.461334V384h-85.461334z" /></svg>