<svg class="icon" style="width: 1em;height: 1em;vertical-align: middle;fill: currentColor;overflow: hidden;" viewBox="0 0 1024 1024" version="1.1" xmlns="http://www.w3.org/2000/svg"><path d="M139.946667 94.72a32 32 0 1 0-45.226667 45.226667L274.688 320H181.333333A96 96 0 0 0 85.333333 415.957333v191.872a96 96 0 0 0 96 96h157.013334a32 32 0 0 1 21.248 8.106667l191.616 170.410667c34.389333 30.549333 88.789333 6.144 88.789333-39.850667V685.226667l244.053333 244.053333a32 32 0 0 0 45.226667-45.269333L139.946667 94.72zM576 621.226667v197.504l-173.866667-154.624a96 96 0 0 0-63.786666-24.277334H181.333333a32 32 0 0 1-32-32V416a32 32 0 0 1 32-32h157.354667L576 621.226667zM576 205.098667v235.136l64 64V181.333333c0-46.037333-54.357333-70.4-88.746667-39.850666l-145.066666 128.938666 45.354666 45.354667L576 205.098667zM731.349333 595.626667l48.554667 48.512A297.557333 297.557333 0 0 0 810.666667 512a297.514667 297.514667 0 0 0-35.84-141.994667 32 32 0 0 0-56.32 30.464c17.92 33.152 28.16 71.082667 28.16 111.530667 0 29.482667-5.418667 57.642667-15.317334 83.626667zM827.221333 691.456l46.634667 46.677333A424.746667 424.746667 0 0 0 938.666667 512a424.917333 424.917333 0 0 0-83.626667-253.696 32 32 0 0 0-51.413333 38.058667A360.96 360.96 0 0 1 874.666667 512a360.874667 360.874667 0 0 1-47.445334 179.456z" /></svg>