<svg class="icon" style="width: 1em;height: 1em;vertical-align: middle;fill: currentColor;overflow: hidden;" viewBox="0 0 1024 1024" version="1.1" xmlns="http://www.w3.org/2000/svg"><path d="M639.957333 181.418667c0-45.994667-54.357333-70.4-88.746666-39.850667L359.552 311.936a32 32 0 0 1-21.248 8.106667H181.333333A96 96 0 0 0 85.333333 416v191.872a96 96 0 0 0 96 96h157.013334a32 32 0 0 1 21.205333 8.064l133.248 118.442667c6.101333-21.376 16.64-41.173333 30.890667-58.154667l-121.6-108.117333a96 96 0 0 0-63.786667-24.277334H181.333333a32 32 0 0 1-32-32V416A32 32 0 0 1 181.333333 384h157.013334a96 96 0 0 0 63.786666-24.277333l173.866667-154.538667v513.962667l64-64V181.418667z m215.04 76.928a424.533333 424.533333 0 0 1 82.389334 221.610666 140.544 140.544 0 0 0-65.194667-10.112 360.448 360.448 0 0 0-68.608-173.397333 32 32 0 1 1 51.413333-38.101333z m-80.213333 111.701333c19.626667 36.266667 31.957333 77.098667 35.072 120.405333-8.96 5.546667-17.408 12.202667-25.173333 19.968l-41.429334 41.429334c2.218667-12.928 3.370667-26.24 3.370667-39.808a233.386667 233.386667 0 0 0-28.16-111.530667 32 32 0 1 1 56.32-30.464z m40.106667 170.538667l-251.818667 251.776a114.56 114.56 0 0 0-30.165333 53.205333l-19.498667 78.08a46.378667 46.378667 0 0 0 56.234667 56.277333l78.08-19.541333a114.56 114.56 0 0 0 53.248-30.122667l251.818666-251.776a97.493333 97.493333 0 1 0-137.941333-137.898666z" /></svg>