<svg class="icon" style="width: 1em;height: 1em;vertical-align: middle;fill: currentColor;overflow: hidden;" viewBox="0 0 1024 1024" version="1.1" xmlns="http://www.w3.org/2000/svg"><path d="M627.370667 146.858667c8.149333 9.642667 12.629333 21.845333 12.629333 34.474666v309.333334a277.12 277.12 0 0 0-64 37.461333V204.330667L363.733333 384H181.333333a32 32 0 0 0-32 32v192c0 17.706667 14.336 32 32 32h182.4l106.112 89.898667a280.576 280.576 0 0 0 9.813334 92.16L340.309333 704H181.333333A96 96 0 0 1 85.333333 608v-192A96 96 0 0 1 181.333333 320h158.933334l211.968-179.370667a53.333333 53.333333 0 0 1 75.136 6.272z m-18.176 449.493333a85.333333 85.333333 0 0 1-61.482667 106.496l-24.917333 6.186667a244.437333 244.437333 0 0 0 0.256 77.098666l23.04 5.546667a85.333333 85.333333 0 0 1 61.866666 107.093333l-7.978666 26.922667c18.773333 16.469333 40.106667 29.866667 63.317333 39.338667l21.077333-22.144a85.333333 85.333333 0 0 1 123.690667 0l21.248 22.442666a225.28 225.28 0 0 0 63.274667-38.954666l-8.448-29.269334a85.333333 85.333333 0 0 1 61.482666-106.538666l24.917334-6.144a243.882667 243.882667 0 0 0-0.256-77.098667l-23.04-5.546667a85.333333 85.333333 0 0 1-61.866667-107.093333l7.978667-26.965333a225.365333 225.365333 0 0 0-63.317334-39.296l-21.034666 22.101333a85.333333 85.333333 0 0 1-123.733334 0l-21.248-22.4c-23.210667 9.386667-44.544 22.613333-63.274666 38.954667l8.448 29.269333zM746.666667 810.666667c-34.133333 0-61.866667-28.629333-61.866667-64 0-35.328 27.733333-64 61.866667-64 34.133333 0 61.866667 28.672 61.866666 64 0 35.370667-27.733333 64-61.866666 64z" /></svg>