<svg class="icon" style="width: 1em;height: 1em;vertical-align: middle;fill: currentColor;overflow: hidden;" viewBox="0 0 1024 1024" version="1.1" xmlns="http://www.w3.org/2000/svg"><path d="M533.333333 117.333333a32 32 0 0 0-64 0v789.333334a32 32 0 0 0 64 0V117.333333zM181.333333 170.666667A96 96 0 0 0 85.333333 266.666667v490.666666A96 96 0 0 0 181.333333 853.333333H426.666667v-64H181.333333a32 32 0 0 1-32-32V266.666667a32 32 0 0 1 32-32H426.666667V170.666667H181.333333z m640 618.666666H576V853.333333h245.333333a96 96 0 0 0 96-96V266.666667A96 96 0 0 0 821.333333 170.666667H576v64h245.333333a32 32 0 0 1 32 32v490.666666a32 32 0 0 1-32 32z" /></svg>