<svg class="icon" style="width: 1em;height: 1em;vertical-align: middle;fill: currentColor;overflow: hidden;" viewBox="0 0 1024 1024" version="1.1" xmlns="http://www.w3.org/2000/svg"><path d="M906.666667 533.333333a32 32 0 0 0 0-64H117.333333a32 32 0 0 0 0 64h789.333334zM853.333333 181.333333A96 96 0 0 0 757.333333 85.333333H266.666667A96 96 0 0 0 170.666667 181.333333V426.666667h64V181.333333a32 32 0 0 1 32-32h490.666666a32 32 0 0 1 32 32V426.666667H853.333333V181.333333z m-618.666666 640V576H170.666667v245.333333a96 96 0 0 0 96 96h490.666666A96 96 0 0 0 853.333333 821.333333V576h-64v245.333333a32 32 0 0 1-32 32H266.666667a32 32 0 0 1-32-32z" /></svg>