<svg class="icon" style="width: 1em;height: 1em;vertical-align: middle;fill: currentColor;overflow: hidden;" viewBox="0 0 1024 1024" version="1.1" xmlns="http://www.w3.org/2000/svg"><path d="M512 85.333333C276.352 85.333333 85.333333 276.352 85.333333 512s191.018667 426.666667 426.666667 426.666667 426.666667-191.018667 426.666667-426.666667S747.648 85.333333 512 85.333333z m-82.176 73.386667a363.776 363.776 0 0 1 164.352 0l-82.090667 49.194667-82.261333-49.237334z m-78.08 27.861333l128.341333 76.8v93.568l-119.082666 86.528-87.210667-30.165333-25.045333-150.784a363.776 363.776 0 0 1 102.997333-75.946667zM195.84 334.293333l15.274667 92.032-60.928 60.928a360.490667 360.490667 0 0 1 45.653333-152.96z m-41.301333 239.104l99.285333-99.285333 87.04 30.08L386.986667 646.4l-41.386667 67.2-140.501333-8.277333a360.448 360.448 0 0 1-50.602667-131.925334z m105.386666 199.253334l81.237334 4.778666 28.8 68.352a363.093333 363.093333 0 0 1-110.08-73.130666z m189.397334 96.597333l-50.517334-119.850667 41.088-66.858666h143.872l38.912 67.456-44.373333 118.613333a364.970667 364.970667 0 0 1-128.981333 0.64z m206.08-24.021333l24.192-64.725334 71.253333 4.48a362.752 362.752 0 0 1-95.488 60.245334z m150.698666-120.917334l-129.024-8.106666-40.021333-69.290667 46.378667-142.72 85.888-29.696 98.645333 107.52a360.917333 360.917333 0 0 1-61.866667 142.293333z m68.181334-230.016l-61.44-66.986666 15.445333-92.928a360.533333 360.533333 0 0 1 45.994667 159.914666z m-98.901334-231.68l-25.130666 150.784-87.04 30.08-119.082667-86.528V263.338667l128.085333-76.8a363.861333 363.861333 0 0 1 103.168 76.117333z m-371.413333 228.778667l108.16-78.592 108.16 78.592-41.301333 127.146667h-133.717334l-41.301333-127.146667z" /></svg>