<svg class="icon" style="width: 1em;height: 1em;vertical-align: middle;fill: currentColor;overflow: hidden;" viewBox="0 0 1024 1024" version="1.1" xmlns="http://www.w3.org/2000/svg"><path d="M746.24 293.162667a32 32 0 0 0-26.453333-36.736c-17.792-2.944-33.706667 9.984-36.864 27.221333l-0.768 3.84a288.426667 288.426667 0 0 1-3.882667 15.701333c-3.797333 13.781333-10.154667 33.706667-20.352 57.6a547.84 547.84 0 0 1-116.565333 171.264 602.112 602.112 0 0 1-237.866667 145.066667 363.861333 363.861333 0 0 1-21.205333 6.016l-0.938667 0.213333H281.173333v0.042667a32 32 0 0 0-24.490666 38.058667c6.058667 28.074667 38.016 24.490667 38.016 24.490666h0.128l0.170666-0.042666 0.469334-0.128 1.578666-0.384 5.632-1.408c4.778667-1.237333 11.52-3.114667 20.053334-5.802667a666.154667 666.154667 0 0 0 263.893333-160.896 611.84 611.84 0 0 0 130.090667-191.36c11.477333-26.837333 18.773333-49.536 23.210666-65.749333a350.421333 350.421333 0 0 0 5.845334-24.661334l0.298666-1.578666 0.085334-0.469334v-0.256l0.042666-0.042666zM100.394667 536.448c-29.184 80.981333-33.066667 165.248 18.688 217.557333l9.984 10.154667a26873.6 26873.6 0 0 0 128.981333 129.664c54.613333 54.613333 141.013333 55.466667 225.664 28.16 86.442667-27.946667 181.333333-87.936 265.642667-172.245333s144.298667-179.2 172.245333-265.642667c27.306667-84.650667 26.453333-171.050667-28.16-225.664a32899.370667 32899.370667 0 0 1-123.392-124.245333l-15.445333-15.616-0.085334 0.085333c-52.266667-51.797333-136.576-47.957333-217.6-18.773333-83.84 30.250667-177.024 91.434667-261.077333 175.488-84.053333 84.053333-145.237333 177.237333-175.445333 261.077333z m60.16 21.674667c26.410667-73.130667 81.664-158.592 160.554666-237.482667 78.933333-78.933333 164.352-134.186667 237.482667-160.512 75.776-27.306667 126.72-20.181333 151.04 4.181333l0.128-0.085333 14.848 15.018667a73881.856 73881.856 0 0 0 123.562667 124.458666c28.8 28.757333 37.333333 83.925333 12.501333 160.725334-24.192 74.965333-77.909333 161.408-156.586667 240.042666-78.634667 78.677333-165.12 132.394667-240.042666 156.586667-76.8 24.832-131.968 16.298667-160.725334-12.501333-41.642667-41.642667-76.373333-76.544-100.608-100.992l-28.16-28.416-9.813333-9.941334h0.085333c-24.405333-24.405333-31.573333-75.306667-4.266666-151.04z" /></svg>