<svg class="icon" style="width: 1em;height: 1em;vertical-align: middle;fill: currentColor;overflow: hidden;" viewBox="0 0 1024 1024" version="1.1" xmlns="http://www.w3.org/2000/svg"><path d="M585.386667 393.386667a32 32 0 1 1 45.226666 45.226666l-192 192a32 32 0 1 1-45.226666-45.226666l192-192zM757.333333 85.333333A181.333333 181.333333 0 0 1 938.666667 266.666667v42.666666C938.666667 656.896 656.896 938.666667 309.333333 938.666667h-42.666666A181.333333 181.333333 0 0 1 85.333333 757.333333v-42.666666C85.333333 367.104 367.104 85.333333 714.666667 85.333333h42.666666z m117.333334 181.333334a117.333333 117.333333 0 0 0-117.333334-117.333334h-42.666666c-17.194667 0-34.218667 0.768-51.029334 2.261334l208.768 208.768c1.493333-16.810667 2.261333-33.834667 2.261334-51.029334v-42.666666z m-14.805334 171.690666l-274.218666-274.218666a566.186667 566.186667 0 0 0-422.485334 425.685333l271.018667 271.018667a566.144 566.144 0 0 0 425.685333-422.485334z m-708.693333 230.016c-1.194667 15.274667-1.834667 30.72-1.834667 46.293334v42.666666a117.333333 117.333333 0 0 0 117.333334 117.333334h42.666666c15.573333 0 31.018667-0.64 46.293334-1.877334l-204.416-204.416z" /></svg>