<svg class="icon" style="width: 1em;height: 1em;vertical-align: middle;fill: currentColor;overflow: hidden;" viewBox="0 0 1024 1024" version="1.1" xmlns="http://www.w3.org/2000/svg"><path d="M552.149333 936.789333a424.96 424.96 0 0 0 261.546667-123.093333c166.613333-166.613333 166.613333-436.778667 0-603.392-166.613333-166.613333-436.778667-166.613333-603.392 0-166.613333 166.613333-166.613333 436.778667 0 603.392a425.642667 425.642667 0 0 0 327.978667 124.16 31.786667 31.786667 0 0 0 13.866666-1.066667zM152.618667 463.104a360.832 360.832 0 0 1 81.28-183.893333L466.773333 512l-46.421333 46.421333c-44.885333-36.266667-94.890667-55.808-142.549333-68.608-27.733333-7.424-55.296-12.8-80.512-17.621333l-0.682667-0.170667c-15.658667-2.986667-30.293333-5.845333-43.946667-8.917333z m-2.944 64.853333c11.349333 2.389333 22.826667 4.608 34.133333 6.826667l0.597333 0.085333c25.728 4.992 51.285333 9.941333 76.757334 16.768 40.661333 10.922667 79.402667 26.282667 113.578666 52.394667l-140.8 140.8a361.301333 361.301333 0 0 1-84.266666-216.874667z m270.464 121.173334c28.8 36.778667 44.373333 77.056 55.338666 118.314666 5.333333 20.053333 9.429333 39.594667 13.568 59.392l3.584 16.853334c2.133333 10.24 4.48 20.522667 7.04 30.762666a361.344 361.344 0 0 1-220.501333-84.352l140.970667-140.970666z m144.768 221.696c-3.498667-12.373333-6.570667-25.856-9.728-40.533334l-3.285334-15.658666c-4.181333-20.010667-8.746667-41.813333-14.549333-63.658667-12.842667-48.128-32.512-99.712-71.68-147.370667L512 557.269333l232.832 232.832a360.746667 360.746667 0 0 1-179.925333 80.725334zM557.226667 512l51.712-51.669333c47.530667 40.192 97.28 62.293333 143.573333 77.909333 19.072 6.485333 38.272 12.032 55.936 17.194667 6.784 1.962667 13.354667 3.84 19.626667 5.717333 14.933333 4.522667 28.629333 8.874667 41.130666 13.696a360.661333 360.661333 0 0 1-79.104 169.984L557.226667 512z m289.152-12.16l-21.418667-6.272a1228.714667 1228.714667 0 0 1-51.925333-15.957333c-40.277333-13.653333-80.554667-31.573333-118.656-62.72l135.68-135.722667a361.472 361.472 0 0 1 84.608 229.632c-9.386667-3.2-18.901333-6.144-28.288-8.96z m-101.546667-265.941333l-135.722667 135.722666c-31.146667-38.101333-49.109333-78.378667-62.72-118.656-6.016-17.706667-10.965333-34.730667-15.957333-51.968v-0.042666c-2.133333-7.082667-4.138667-14.165333-6.314667-21.333334-2.816-9.386667-5.717333-18.901333-8.917333-28.288a361.472 361.472 0 0 1 229.632 84.565334z m-259.114667 37.546666c15.658667 46.293333 37.717333 96.085333 77.952 143.616L512 466.773333 279.168 233.898667a360.661333 360.661333 0 0 1 169.984-79.104c4.821333 12.501333 9.173333 26.154667 13.653333 41.130666l5.76 19.626667c5.12 17.664 10.666667 36.821333 17.152 55.893333z" /></svg>