<svg class="icon" style="width: 1em;height: 1em;vertical-align: middle;fill: currentColor;overflow: hidden;" viewBox="0 0 1024 1024" version="1.1" xmlns="http://www.w3.org/2000/svg"><path d="M259.712 306.688a350.165333 350.165333 0 0 0-7.637333 21.077333c19.754667 2.986667 41.088 7.168 63.274666 12.757334a286.08 286.08 0 0 1 46.293334-82.986667l179.754666 179.797333-10.752 10.752a435.285333 435.285333 0 0 1 45.269334 45.226667l10.752-10.709333 179.754666 179.754666a286.165333 286.165333 0 0 1-82.944 46.293334c5.589333 22.186667 9.728 43.52 12.8 63.232a349.781333 349.781333 0 0 0 139.306667-85.674667 352.341333 352.341333 0 0 0 74.453333-109.610667A352.256 352.256 0 0 0 469.290667 105.386667a353.066667 353.066667 0 0 0-209.578667 201.301333z m595.626667 26.752a117.461333 117.461333 0 0 1-129.792 10.24l86.186666-86.144c18.688 23.381333 33.28 49.066667 43.648 75.904z m-176.170667 56.661333a181.589333 181.589333 0 0 0 192.981333 8.96 287.701333 287.701333 0 0 1-60.458666 218.026667l-179.754667-179.754667 47.232-47.232z m-45.226667-45.269333L586.666667 392.064 406.869333 212.309333a287.701333 287.701333 0 0 1 218.069334-60.458666 181.589333 181.589333 0 0 0 8.96 192.981333z m46.378667-46.378667a117.461333 117.461333 0 0 1 10.24-129.834666c26.88 10.410667 52.48 24.96 75.904 43.690666l-86.186667 86.144zM297.386667 574.72a32 32 0 0 1 45.226666 0l106.666667 106.666667a32 32 0 1 1-45.226667 45.226666l-106.666666-106.666666a32 32 0 0 1 0-45.226667z m-210.858667-104.576a97.962667 97.962667 0 0 1 106.24-106.24c84.437333 6.4 227.84 32.768 331.178667 136.106667 103.381333 103.381333 129.792 246.784 136.192 331.221333a97.962667 97.962667 0 0 1-106.24 106.24c-84.394667-6.4-227.84-32.853333-331.178667-136.192-103.381333-103.338667-129.792-246.741333-136.192-331.136z m101.418667-42.453333a34.005333 34.005333 0 0 0-37.589334 37.589333c6.016 79.488 30.634667 203.818667 117.589334 290.773333 86.997333 86.954667 211.285333 111.573333 290.773333 117.589334a34.005333 34.005333 0 0 0 37.589333-37.589334c-6.016-79.488-30.634667-203.776-117.589333-290.773333-86.954667-86.954667-211.285333-111.573333-290.773333-117.589333z" /></svg>