<svg class="icon" style="width: 1em;height: 1em;vertical-align: middle;fill: currentColor;overflow: hidden;" viewBox="0 0 1024 1024" version="1.1" xmlns="http://www.w3.org/2000/svg"><path d="M423.765333 712.533333s-31.914667 4.224-38.826666-23.296a32.341333 32.341333 0 0 1 23.381333-38.826666h0.128l0.298667-0.085334 1.024-0.256 3.413333-0.768c2.986667-0.597333 7.125333-1.450667 12.373333-2.346666 10.538667-1.834667 25.557333-3.968 43.989334-5.376a535.04 535.04 0 0 1 144.725333 8.533333 32 32 0 0 1-12.544 62.72 470.912 470.912 0 0 0-127.274667-7.466667 412.16 412.16 0 0 0-47.914666 6.528 221.013333 221.013333 0 0 0-2.773334 0.64zM384.938667 336.810667c6.869333-27.52 38.826667-23.296 38.826666-23.296a271.061333 271.061333 0 0 0 12.672 2.517333c8.789333 1.493333 21.76 3.370667 37.973334 4.608a471.04 471.04 0 0 0 127.317333-7.466667 32 32 0 0 1 12.544 62.72 535.04 535.04 0 0 1-144.725333 8.533334 475.434667 475.434667 0 0 1-56.32-7.68 195.285333 195.285333 0 0 1-3.498667-0.768l-0.981333-0.256-0.298667-0.085334H408.32a32.341333 32.341333 0 0 1-23.381333-38.826666zM512 938.666667a425.344 425.344 0 0 0 302.677333-125.952A424.746667 424.746667 0 0 0 938.666667 512c0-235.648-191.018667-426.666667-426.666667-426.666667S85.333333 276.352 85.333333 512s191.018667 426.666667 426.666667 426.666667zM216.490667 301.696a337.749333 337.749333 0 0 0 82.730666 41.216 32 32 0 1 0 20.224-60.714667 271.530667 271.530667 0 0 1-61.013333-29.482666A361.472 361.472 0 0 1 512 149.333333c98.688 0 188.16 39.424 253.568 103.381334-17.578667 11.264-37.973333 21.76-61.013333 29.44a32 32 0 1 0 20.224 60.757333 337.749333 337.749333 0 0 0 82.730666-41.216A361.045333 361.045333 0 0 1 874.666667 512a361.045333 361.045333 0 0 1-68.138667 211.669333 337.365333 337.365333 0 0 0-81.749333-40.533333 32 32 0 1 0-20.224 60.714667c22.485333 7.466667 42.496 17.664 59.733333 28.672A361.472 361.472 0 0 1 512 874.666667a361.472 361.472 0 0 1-252.288-102.144 270.933333 270.933333 0 0 1 59.733333-28.672 32 32 0 1 0-20.224-60.714667 337.493333 337.493333 0 0 0-81.749333 40.533333A361.002667 361.002667 0 0 1 149.333333 512c0-78.421333 24.874667-150.997333 67.157334-210.304z" /></svg>