<svg class="icon" style="width: 1em;height: 1em;vertical-align: middle;fill: currentColor;overflow: hidden;" viewBox="0 0 1024 1024" version="1.1" xmlns="http://www.w3.org/2000/svg"><path d="M320.768 213.333333H256.384a138.666667 138.666667 0 0 1 138.24-128h341.376A202.666667 202.666667 0 0 1 938.666667 288v341.333333a138.666667 138.666667 0 0 1-128 138.24v-64.341333a74.666667 74.666667 0 0 0 64-73.898667v-341.333333a138.666667 138.666667 0 0 0-138.666667-138.666667h-341.333333A74.666667 74.666667 0 0 0 320.768 213.333333zM224 256A138.666667 138.666667 0 0 0 85.333333 394.666667v405.333333A138.666667 138.666667 0 0 0 224 938.666667h405.333333A138.666667 138.666667 0 0 0 768 800v-405.333333A138.666667 138.666667 0 0 0 629.333333 256h-405.333333zM149.333333 394.666667c0-41.216 33.450667-74.666667 74.666667-74.666667h405.333333c41.258667 0 74.666667 33.450667 74.666667 74.666667v405.333333a74.666667 74.666667 0 0 1-74.666667 74.666667h-405.333333a74.666667 74.666667 0 0 1-74.666667-74.666667v-405.333333z" /></svg>