<svg class="icon" style="width: 1em;height: 1em;vertical-align: middle;fill: currentColor;overflow: hidden;" viewBox="0 0 1024 1024" version="1.1" xmlns="http://www.w3.org/2000/svg"><path d="M128 266.666667A138.666667 138.666667 0 0 1 266.666667 128h490.666666A138.666667 138.666667 0 0 1 896 266.666667v246.272a276.096 276.096 0 0 0-64-30.250667V266.666667a74.666667 74.666667 0 0 0-74.666667-74.666667H266.666667A74.666667 74.666667 0 0 0 192 266.666667v490.666666c0 41.216 33.450667 74.666667 74.666667 74.666667h216.021333c7.381333 22.784 17.578667 44.245333 30.250667 64H266.666667A138.666667 138.666667 0 0 1 128 757.333333V266.666667z m384 480a234.666667 234.666667 0 1 0 469.333333 0 234.666667 234.666667 0 0 0-469.333333 0z m283.562667-91.562667a21.333333 21.333333 0 0 1 30.208-30.208l64 64a21.333333 21.333333 0 0 1 0 30.208l-64 64a21.333333 21.333333 0 0 1-30.208-30.208l27.605333-27.562667H736A96 96 0 0 0 640 821.333333v10.666667a21.333333 21.333333 0 0 1-42.666667 0v-10.666667A138.666667 138.666667 0 0 1 736 682.666667h87.168l-27.605333-27.562667z" /></svg>