<svg class="icon" style="width: 1em;height: 1em;vertical-align: middle;fill: currentColor;overflow: hidden;" viewBox="0 0 1024 1024" version="1.1" xmlns="http://www.w3.org/2000/svg"><path d="M405.333333 249.6a32 32 0 0 1 28.586667 17.706667l35.029333 69.973333 68.352 8.533333a32 32 0 0 1 16.512 56.362667l-49.024 40.832 17.109334 76.970667a32 32 0 0 1-48.213334 34.090666L405.333333 511.317333l-68.394666 42.752a32 32 0 0 1-48.213334-34.090666l17.152-76.928-49.066666-40.874667a32 32 0 0 1 16.554666-56.32l68.352-8.533333 34.986667-70.016A32 32 0 0 1 405.333333 249.6z m0 103.552l-14.08 28.074667a32 32 0 0 1-24.618666 17.493333l-12.202667 1.493333 7.381333 6.144a32 32 0 0 1 10.752 31.530667l-4.778666 21.418667 20.565333-12.842667a32 32 0 0 1 33.962667 0l20.565333 12.842667-4.778667-21.418667a32 32 0 0 1 10.752-31.573333l7.381334-6.101334-12.202667-1.536a32 32 0 0 1-24.661333-17.450666L405.333333 353.152zM170.666667 170.666667h469.333333a85.333333 85.333333 0 0 1 85.333333 85.333333v298.666667a85.333333 85.333333 0 0 1-85.333333 85.333333H170.666667a85.333333 85.333333 0 0 1-85.333334-85.333333V256a85.333333 85.333333 0 0 1 85.333334-85.333333z m469.333333 64H170.666667a21.333333 21.333333 0 0 0-21.333334 21.333333v298.666667a21.333333 21.333333 0 0 0 21.333334 21.333333h469.333333a21.333333 21.333333 0 0 0 21.333333-21.333333V256a21.333333 21.333333 0 0 0-21.333333-21.333333zM194.688 682.666667A85.333333 85.333333 0 0 0 277.333333 746.666667h384a170.666667 170.666667 0 0 0 170.666667-170.666667v-213.333333A85.333333 85.333333 0 0 0 768 280.021333V576a106.666667 106.666667 0 0 1-106.666667 106.666667H194.688z m106.666667 106.666666A85.333333 85.333333 0 0 0 384 853.333333h309.333333A245.333333 245.333333 0 0 0 938.666667 608V469.333333a85.333333 85.333333 0 0 0-64-82.645333v221.312a181.333333 181.333333 0 0 1-181.333334 181.333333H301.354667z" /></svg>