<svg class="icon" style="width: 1em;height: 1em;vertical-align: middle;fill: currentColor;overflow: hidden;" viewBox="0 0 1024 1024" version="1.1" xmlns="http://www.w3.org/2000/svg"><path d="M170.666667 170.666667h469.333333a85.333333 85.333333 0 0 1 85.333333 85.333333v298.666667a85.333333 85.333333 0 0 1-85.333333 85.333333H170.666667a85.333333 85.333333 0 0 1-85.333334-85.333333V256a85.333333 85.333333 0 0 1 85.333334-85.333333z m469.333333 64H170.666667a21.333333 21.333333 0 0 0-21.333334 21.333333v298.666667a21.333333 21.333333 0 0 0 21.333334 21.333333h469.333333a21.333333 21.333333 0 0 0 21.333333-21.333333V256a21.333333 21.333333 0 0 0-21.333333-21.333333zM194.688 682.666667A85.333333 85.333333 0 0 0 277.333333 746.666667h384a170.666667 170.666667 0 0 0 170.666667-170.666667v-213.333333A85.333333 85.333333 0 0 0 768 280.021333V576a106.666667 106.666667 0 0 1-106.666667 106.666667H194.688z m106.666667 106.666666A85.333333 85.333333 0 0 0 384 853.333333h309.333333A245.333333 245.333333 0 0 0 938.666667 608V469.333333a85.333333 85.333333 0 0 0-64-82.645333v221.312a181.333333 181.333333 0 0 1-181.333334 181.333333H301.354667z" /></svg>