<svg class="icon" style="width: 1em;height: 1em;vertical-align: middle;fill: currentColor;overflow: hidden;" viewBox="0 0 1024 1024" version="1.1" xmlns="http://www.w3.org/2000/svg"><path d="M746.666667 512a234.666667 234.666667 0 1 1 0-469.333333 234.666667 234.666667 0 0 1 0 469.333333z m79.104-356.437333a21.333333 21.333333 0 0 0-30.208 30.208l27.605333 27.562666H736A138.666667 138.666667 0 0 0 597.333333 352v10.666667a21.333333 21.333333 0 0 0 42.666667 0v-10.666667A96 96 0 0 1 736 256h87.168l-27.605333 27.562667a21.333333 21.333333 0 0 0 30.208 30.208l64-64a21.333333 21.333333 0 0 0 0-30.208l-64-64zM725.333333 554.666667v-0.810667a276.266667 276.266667 0 0 1-64-12.544V554.666667a21.333333 21.333333 0 0 1-21.333333 21.333333H170.666667a21.333333 21.333333 0 0 1-21.333334-21.333333V256a21.333333 21.333333 0 0 1 21.333334-21.333333h301.909333c3.456-22.314667 9.557333-43.776 18.005333-64H170.666667a85.333333 85.333333 0 0 0-85.333334 85.333333v298.666667a85.333333 85.333333 0 0 0 85.333334 85.333333h469.333333a85.333333 85.333333 0 0 0 85.333333-85.333333z m42.666667-0.810667c22.186667-1.706667 43.605333-5.973333 64-12.544v34.688a170.666667 170.666667 0 0 1-170.666667 170.666667h-384A85.333333 85.333333 0 0 1 194.688 682.666667H661.333333a106.666667 106.666667 0 0 0 106.666667-106.666667v-22.144z m170.666667-76.373333c-18.944 18.176-40.490667 33.706667-64 45.952v84.565333a181.333333 181.333333 0 0 1-181.333334 181.333333H301.354667A85.333333 85.333333 0 0 0 384 853.333333h309.333333A245.333333 245.333333 0 0 0 938.666667 608v-130.56z" /></svg>