<svg class="icon" style="width: 1em;height: 1em;vertical-align: middle;fill: currentColor;overflow: hidden;" viewBox="0 0 1024 1024" version="1.1" xmlns="http://www.w3.org/2000/svg"><path d="M460.288 132.394667c21.12-42.837333 82.176-42.837333 103.296 0l100.608 203.818666 224.981333 32.682667c47.232 6.869333 66.090667 64.938667 31.914667 98.261333l-38.613333 37.632a275.712 275.712 0 0 0-64.725334-26.282666l49.365334-48.128-215.466667-31.317334a57.6 57.6 0 0 1-43.349333-31.488l-96.384-195.242666L415.573333 367.573333a57.6 57.6 0 0 1-43.349333 31.488l-215.466667 31.317334 155.904 151.978666c13.568 13.226667 19.754667 32.298667 16.554667 50.986667l-36.778667 214.613333 177.024-93.098666c0.64 23.125333 4.181333 45.568 10.154667 66.986666l-168.874667 88.746667c-42.24 22.229333-91.648-13.653333-83.626666-60.714667l38.442666-224-162.773333-158.72c-34.176-33.28-15.317333-91.392 31.914667-98.261333L359.68 336.213333l100.608-203.818666zM981.333333 746.666667a234.666667 234.666667 0 1 1-469.333333 0 234.666667 234.666667 0 0 1 469.333333 0z m-362.666666-21.333334a21.333333 21.333333 0 0 0 0 42.666667h204.501333l-70.272 70.229333a21.333333 21.333333 0 0 0 30.208 30.208l106.666667-106.666666a21.333333 21.333333 0 0 0 0-30.208l-106.666667-106.666667a21.333333 21.333333 0 0 0-30.208 30.208L823.168 725.333333H618.666667z" /></svg>