<svg class="icon" style="width: 1em;height: 1em;vertical-align: middle;fill: currentColor;overflow: hidden;" viewBox="0 0 1024 1024" version="1.1" xmlns="http://www.w3.org/2000/svg"><path d="M563.584 132.394667c-21.12-42.837333-82.176-42.837333-103.296 0L359.68 336.213333l-224.981333 32.682667c-47.232 6.869333-66.133333 64.938667-31.914667 98.261333l162.773333 158.72-38.4 224c-8.106667 47.061333 41.301333 82.944 83.584 60.757334l201.173334-105.813334 201.216 105.813334c42.24 22.186667 91.648-13.653333 83.626666-60.757334l-38.485333-224 162.816-158.72c34.133333-33.28 15.317333-91.392-31.914667-98.261333l-224.981333-32.682667-100.608-203.818666zM415.573333 367.573333l96.341334-195.242666 96.384 195.242666a57.6 57.6 0 0 0 43.349333 31.488l215.466667 31.317334-155.904 151.978666a57.6 57.6 0 0 0-16.554667 50.986667l36.778667 214.613333-192.682667-101.333333a57.6 57.6 0 0 0-53.632 0l-192.682667 101.290667 36.778667-214.570667a57.6 57.6 0 0 0-16.554667-50.986667l-155.904-151.978666 215.466667-31.317334c18.773333-2.688 34.986667-14.506667 43.349333-31.488zM49.664 161.365333a32 32 0 0 0 5.034667 44.970667l106.666666 85.333333a32 32 0 1 0 39.978667-50.005333l-106.666667-85.333333a32 32 0 0 0-45.013333 5.034666zM974.336 777.301333a32 32 0 0 0-4.992-44.970666l-106.666667-85.333334a32 32 0 0 0-40.021333 50.005334l106.666667 85.333333a32 32 0 0 0 45.013333-4.992zM54.698667 732.330667a32 32 0 1 0 39.978666 50.005333l106.666667-85.333333a32 32 0 0 0-39.978667-50.005334l-106.666666 85.333334zM974.336 161.365333a32 32 0 0 1-4.992 44.970667l-106.666667 85.333333a32 32 0 0 1-40.021333-50.005333l106.666667-85.333333a32 32 0 0 1 45.013333 5.034666z" /></svg>