<svg class="icon" style="width: 1em;height: 1em;vertical-align: middle;fill: currentColor;overflow: hidden;" viewBox="0 0 1024 1024" version="1.1" xmlns="http://www.w3.org/2000/svg"><path d="M460.288 132.394667c21.12-42.837333 82.176-42.837333 103.296 0l100.608 203.818666 224.981333 32.682667c47.232 6.869333 66.090667 64.938667 31.914667 98.261333l-162.816 158.72 38.442667 224c8.106667 47.061333-41.301333 82.944-83.584 60.757334l-168.789334-88.746667c6.016-21.418667 9.514667-43.818667 10.24-66.986667l176.853334 93.013334-36.778667-214.570667a57.6 57.6 0 0 1 16.554667-50.986667l155.904-151.978666-215.466667-31.317334a57.6 57.6 0 0 1-43.349333-31.488l-96.384-195.242666L415.573333 367.573333a57.6 57.6 0 0 1-43.349333 31.488l-215.466667 31.317334 49.408 48.170666a275.626667 275.626667 0 0 0-64.725333 26.282667l-38.656-37.674667c-34.176-33.28-15.317333-91.392 31.914667-98.261333L359.68 336.213333l100.608-203.818666zM512 746.666667a234.666667 234.666667 0 1 1-469.333333 0 234.666667 234.666667 0 0 1 469.333333 0zM149.333333 725.333333a21.333333 21.333333 0 0 0 0 42.666667h204.501334l-70.272 70.229333a21.333333 21.333333 0 0 0 30.208 30.208l106.666666-106.666666a21.333333 21.333333 0 0 0 0-30.208l-106.666666-106.666667a21.333333 21.333333 0 0 0-30.208 30.208L353.834667 725.333333H149.333333z" /></svg>