<svg class="icon" style="width: 1em;height: 1em;vertical-align: middle;fill: currentColor;overflow: hidden;" viewBox="0 0 1024 1024" version="1.1" xmlns="http://www.w3.org/2000/svg"><path d="M563.584 132.394667c-21.12-42.837333-82.176-42.837333-103.296 0L359.68 336.213333l-224.981333 32.682667c-47.232 6.869333-66.133333 64.938667-31.914667 98.261333l162.773333 158.72-38.4 224c-8.106667 47.061333 41.301333 82.944 83.584 60.757334l125.610667-66.090667 12.970667-51.925333c2.986667-11.818667 7.253333-23.168 12.757333-33.877334l-169.642667 89.173334 36.778667-214.570667a57.6 57.6 0 0 0-16.554667-50.986667l-155.904-151.978666 215.466667-31.317334c18.773333-2.688 34.986667-14.506667 43.349333-31.488l96.341334-195.242666 96.384 195.242666a57.6 57.6 0 0 0 43.349333 31.488l189.866667 27.605334a139.605333 139.605333 0 0 1 87.552 30.933333c22.570667-33.834667 3.072-82.432-39.893334-88.704l-224.981333-32.682667-100.608-203.818666zM772.266667 497.92l-251.562667 251.818667a114.602667 114.602667 0 0 0-30.122667 53.205333l-19.498666 78.122667a46.336 46.336 0 0 0 56.192 56.234666l78.037333-19.498666a114.389333 114.389333 0 0 0 53.162667-30.165334l251.562666-251.818666a97.578667 97.578667 0 0 0 0-137.898667 97.322667 97.322667 0 0 0-137.770666 0z" /></svg>