<svg class="icon" style="width: 1em;height: 1em;vertical-align: middle;fill: currentColor;overflow: hidden;" viewBox="0 0 1024 1024" version="1.1" xmlns="http://www.w3.org/2000/svg"><path d="M139.946667 94.72a32 32 0 1 0-45.226667 45.226667l204.970667 205.013333-164.992 23.936c-47.232 6.869333-66.133333 64.938667-31.914667 98.261333l162.773333 158.677334-38.4 224.042666c-8.106667 47.061333 41.301333 82.944 83.584 60.714667l201.173334-105.770667 201.216 105.813334c42.24 22.186667 91.648-13.653333 83.626666-60.757334l-1.706666-9.514666 88.96 88.917333a32 32 0 0 0 45.269333-45.226667L139.946667 94.72z m576.768 667.264l14.72 85.930667-192.682667-101.290667a57.6 57.6 0 0 0-53.632 0l-192.682667 101.290667 36.778667-214.613334a57.6 57.6 0 0 0-16.554667-50.944l-155.904-151.978666 199.381334-28.970667 360.533333 360.533333zM867.114667 430.378667l-152.405334 148.565333 45.226667 45.226667 161.152-157.013334c34.133333-33.322667 15.317333-91.392-31.914667-98.261333l-224.981333-32.682667-100.608-203.818666c-21.12-42.837333-82.176-42.837333-103.296 0L396.8 261.034667l47.786667 47.786666 67.328-136.533333 96.384 195.285333a57.6 57.6 0 0 0 43.349333 31.488l215.466667 31.317334z" /></svg>