<svg class="icon" style="width: 1em;height: 1em;vertical-align: middle;fill: currentColor;overflow: hidden;" viewBox="0 0 1024 1024" version="1.1" xmlns="http://www.w3.org/2000/svg"><path d="M563.584 132.394667c-21.12-42.837333-82.176-42.837333-103.296 0L359.68 336.213333l-224.981333 32.682667c-47.232 6.869333-66.133333 64.938667-31.914667 98.261333l162.773333 158.72-38.4 224c-8.106667 47.061333 41.301333 82.944 83.584 60.714667l216.064-113.578667a32 32 0 0 0-29.781333-56.661333l-204.586667 107.562667 36.778667-214.613334a57.6 57.6 0 0 0-16.554667-50.944l-155.904-151.978666 215.466667-31.317334c18.773333-2.730667 34.986667-14.506667 43.349333-31.488l96.341334-195.242666 106.197333 215.168a32 32 0 0 0 28.714667 17.834666h259.84a32 32 0 0 0 0-64h-239.957334l-103.125333-208.938666zM618.666667 544a32 32 0 0 1 32-32h256a32 32 0 0 1 0 64h-256a32 32 0 0 1-32-32zM618.666667 714.666667a32 32 0 0 1 32-32h256a32 32 0 0 1 0 64h-256a32 32 0 0 1-32-32z" /></svg>