<svg class="icon" style="width: 1em;height: 1em;vertical-align: middle;fill: currentColor;overflow: hidden;" viewBox="0 0 1024 1024" version="1.1" xmlns="http://www.w3.org/2000/svg"><path d="M460.288 132.394667c21.12-42.837333 82.176-42.837333 103.296 0l100.608 203.818666 224.981333 32.682667c47.232 6.869333 66.090667 64.938667 31.914667 98.261333l-162.816 158.72 38.442667 224c8.106667 47.061333-41.301333 82.944-83.584 60.757334l-201.216-105.813334-201.173334 105.813334c-42.24 22.186667-91.648-13.653333-83.626666-60.757334l38.442666-224-162.773333-158.72c-34.176-33.28-15.317333-91.392 31.914667-98.261333L359.68 336.213333l100.608-203.818666z m51.626667 39.936L415.573333 367.573333a57.6 57.6 0 0 1-43.349333 31.488l-215.466667 31.317334 155.904 151.978666c13.568 13.226667 19.754667 32.298667 16.554667 50.986667l-36.778667 214.613333 192.682667-101.333333a57.6 57.6 0 0 1 53.632 0l192.682667 101.290667-36.778667-214.570667a57.6 57.6 0 0 1 16.554667-50.986667l155.904-151.978666-215.466667-31.317334a57.6 57.6 0 0 1-43.349333-31.488l-96.384-195.242666z" /></svg>