<svg class="icon" style="width: 1em;height: 1em;vertical-align: middle;fill: currentColor;overflow: hidden;" viewBox="0 0 1024 1024" version="1.1" xmlns="http://www.w3.org/2000/svg"><path d="M512 128a383.146667 383.146667 0 0 1 134.997333 24.405333l-50.474666 50.858667a320 320 0 1 0 225.109333 227.626667l50.944-51.328C887.722667 420.864 896 465.493333 896 512a384 384 0 1 1-384-384z m386.56-13.994667l6.229333 5.802667a117.888 117.888 0 0 1 0.341334 166.4l-268.970667 271.104a64 64 0 0 1-27.818667 16.426667l-179.712 51.584a21.333333 21.333333 0 0 1-26.368-26.410667l51.626667-180.053333a64 64 0 0 1 16.085333-27.392l269.184-271.36a116.906667 116.906667 0 0 1 159.402667-6.101334z m-113.962667 51.2l-269.226666 271.36-30.378667 105.984 105.728-30.293333 268.970667-271.146667c19.498667-19.669333 20.736-50.602667 3.754666-71.68l-4.053333-4.565333a52.906667 52.906667 0 0 0-74.794667 0.298667z" /></svg>