<svg class="icon" style="width: 1em;height: 1em;vertical-align: middle;fill: currentColor;overflow: hidden;" viewBox="0 0 1024 1024" version="1.1" xmlns="http://www.w3.org/2000/svg"><path d="M512 144C512 111.573333 538.282667 85.333333 570.666667 85.333333h160c32.426667 0 58.666667 26.282667 58.666666 58.666667V384H725.333333V149.333333h-149.333333v154.666667c0 32.426667-26.282667 58.666667-58.666667 58.666667H362.666667v154.666666c0 32.426667-26.282667 58.666667-58.666667 58.666667H149.333333V725.333333H384v64H144C111.573333 789.333333 85.333333 763.050667 85.333333 730.666667v-160C85.333333 538.24 111.616 512 144 512H298.666667V357.333333C298.666667 324.906667 324.949333 298.666667 357.333333 298.666667H512V144zM698.666667 426.666667c-32.426667 0-58.666667 26.282667-58.666667 58.666666V640h-154.666667c-32.426667 0-58.666667 26.282667-58.666666 58.666667v160c0 32.426667 26.282667 58.666667 58.666666 58.666666h293.333334a138.666667 138.666667 0 0 0 138.666666-138.666666v-293.333334c0-32.426667-26.282667-58.666667-58.666666-58.666666h-160z m5.333333 218.666666V490.666667H853.333333v288A74.666667 74.666667 0 0 1 778.666667 853.333333H490.666667v-149.333333h154.666666c32.426667 0 58.666667-26.282667 58.666667-58.666667z" /></svg>