<svg class="icon" style="width: 1em;height: 1em;vertical-align: middle;fill: currentColor;overflow: hidden;" viewBox="0 0 1024 1024" version="1.1" xmlns="http://www.w3.org/2000/svg"><path d="M117.333333 106.666667a32 32 0 0 0-32 32V384c0 130.56 97.706667 238.293333 224 254.037333v33.962667a256 256 0 0 0 512 0v-36.010667A128.042667 128.042667 0 0 0 789.333333 384a128 128 0 0 0-32 251.989333v36.010667a192 192 0 0 1-384 0v-33.962667A256.042667 256.042667 0 0 0 597.333333 384V138.666667a32 32 0 0 0-32-32h-106.666666a32 32 0 0 0 0 64h74.666666v213.333333a192 192 0 1 1-384 0V170.666667h74.666667a32 32 0 0 0 0-64h-106.666667z m672 341.333333a64 64 0 1 1 0 128 64 64 0 0 1 0-128z" /></svg>