<svg class="icon" style="width: 1em;height: 1em;vertical-align: middle;fill: currentColor;overflow: hidden;" viewBox="0 0 1024 1024" version="1.1" xmlns="http://www.w3.org/2000/svg"><path d="M746.666667 512a234.666667 234.666667 0 1 1 0 469.333333 234.666667 234.666667 0 0 1 0-469.333333z m0 85.333333l-3.84 0.298667a21.333333 21.333333 0 0 0-17.152 17.152L725.333333 618.666667V725.333333L618.581333 725.333333l-3.84 0.341334a21.333333 21.333333 0 0 0-17.152 17.152l-0.341333 3.84 0.341333 3.84a21.333333 21.333333 0 0 0 17.152 17.152l3.84 0.341333H725.333333v106.794667l0.341334 3.84a21.333333 21.333333 0 0 0 17.152 17.152l3.84 0.341333 3.84-0.341333a21.333333 21.333333 0 0 0 17.152-17.152l0.341333-3.84V768l106.837333 0.042667 3.84-0.341334a21.333333 21.333333 0 0 0 17.152-17.152l0.341334-3.84-0.341334-3.84a21.333333 21.333333 0 0 0-17.194666-17.152l-3.84-0.341333H768v-106.666667l-0.341333-3.84a21.333333 21.333333 0 0 0-17.152-17.194666L746.666667 597.333333z m10.666666-469.333333A138.666667 138.666667 0 0 1 896 266.666667l0.042667 246.314666a276.010667 276.010667 0 0 0-64-30.293333L832 266.666667a74.666667 74.666667 0 0 0-74.666667-74.666667H266.666667A74.666667 74.666667 0 0 0 192 266.666667v490.666666c0 41.216 33.450667 74.666667 74.666667 74.666667h216.064c7.338667 22.784 17.578667 44.288 30.250666 64.042667L266.666667 896A138.666667 138.666667 0 0 1 128 757.333333V266.666667A138.666667 138.666667 0 0 1 266.666667 128h490.666666zM391.552 603.136c30.208 20.906667 63.146667 32.981333 99.285333 36.309333a273.664 273.664 0 0 0-17.92 62.336 268.373333 268.373333 0 0 1-117.76-46.037333 32 32 0 1 1 36.394667-52.608zM384 330.666667a53.333333 53.333333 0 1 1 0 106.624A53.333333 53.333333 0 0 1 384 330.666667z m256 0a53.333333 53.333333 0 1 1 0 106.624 53.333333 53.333333 0 0 1 0-106.624z" /></svg>