<svg class="icon" style="width: 1em;height: 1em;vertical-align: middle;fill: currentColor;overflow: hidden;" viewBox="0 0 1024 1024" version="1.1" xmlns="http://www.w3.org/2000/svg"><path d="M757.333333 128A138.666667 138.666667 0 0 1 896 266.666667v293.504a96 96 0 0 1-28.117333 67.84l-239.829334 239.872a96 96 0 0 1-67.882666 28.117333H266.666667A138.666667 138.666667 0 0 1 128 757.333333V266.666667A138.666667 138.666667 0 0 1 266.666667 128h490.666666z m0 64H266.666667A74.666667 74.666667 0 0 0 192 266.666667v490.666666c0 41.216 33.450667 74.666667 74.666667 74.666667H554.666667v-130.730667a284.032 284.032 0 0 1-28.714667 2.816L512 704.426667a270.250667 270.250667 0 0 1-156.928-48.64 32 32 0 1 1 36.437333-52.650667c36.053333 24.917333 75.946667 37.290667 120.490667 37.290667 19.712 0 38.528-2.432 56.490667-7.296a138.538667 138.538667 0 0 1 115.754666-78.165334l9.088-0.298666H832V266.666667a74.666667 74.666667 0 0 0-74.666667-74.666667z m29.397334 426.666667h-93.354667c-39.168 0-71.296 30.165333-74.410667 68.565333l-0.256 6.101333-0.042666 93.397334 168.064-168.064zM384 330.709333a53.333333 53.333333 0 1 1 0 106.624A53.333333 53.333333 0 0 1 384 330.666667z m256 0a53.333333 53.333333 0 1 1 0 106.624 53.333333 53.333333 0 0 1 0-106.624z" /></svg>