<svg class="icon" style="width: 1em;height: 1em;vertical-align: middle;fill: currentColor;overflow: hidden;" viewBox="0 0 1024 1024" version="1.1" xmlns="http://www.w3.org/2000/svg"><path d="M821.333333 192a10.666667 10.666667 0 0 1 10.666667 10.666667v618.666666a10.666667 10.666667 0 0 1-10.666667 10.666667H202.666667a10.666667 10.666667 0 0 1-10.666667-10.666667V202.666667a10.666667 10.666667 0 0 1 10.666667-10.666667h618.666666zM202.666667 128A74.666667 74.666667 0 0 0 128 202.666667v618.666666c0 41.216 33.450667 74.666667 74.666667 74.666667h618.666666A74.666667 74.666667 0 0 0 896 821.333333V202.666667A74.666667 74.666667 0 0 0 821.333333 128H202.666667z" /></svg>