<svg class="icon" style="width: 1em;height: 1em;vertical-align: middle;fill: currentColor;overflow: hidden;" viewBox="0 0 1024 1024" version="1.1" xmlns="http://www.w3.org/2000/svg"><path d="M213.333333 298.666667h597.333334a128 128 0 0 1 127.786666 120.490666L938.666667 426.666667v170.666666a128 128 0 0 1-120.490667 127.786667L810.666667 725.333333H213.333333a128 128 0 0 1-127.786666-120.490666L85.333333 597.333333v-170.666666a128 128 0 0 1 120.490667-127.786667L213.333333 298.666667h597.333334H213.333333z m597.333334 64H213.333333A64 64 0 0 0 149.333333 426.666667v170.666666A64 64 0 0 0 213.333333 661.333333h597.333334a64 64 0 0 0 64-64v-170.666666A64 64 0 0 0 810.666667 362.666667zM768 426.666667a42.666667 42.666667 0 1 1 0 85.333333 42.666667 42.666667 0 0 1 0-85.333333z m-170.666667 0a42.666667 42.666667 0 1 1 0 85.333333 42.666667 42.666667 0 0 1 0-85.333333z" /></svg>