<svg class="icon" style="width: 1em;height: 1em;vertical-align: middle;fill: currentColor;overflow: hidden;" viewBox="0 0 1024 1024" version="1.1" xmlns="http://www.w3.org/2000/svg"><path d="M490.666667 405.333333V554.666667H341.333333V405.333333h149.333334zM490.666667 746.666667V597.333333H341.333333v149.333334h149.333334zM682.666667 405.333333V554.666667h-149.333334V405.333333H682.666667zM682.666667 746.666667V597.333333h-149.333334v149.333334H682.666667zM341.333333 256V160C341.333333 118.784 374.784 85.333333 416 85.333333h192c41.216 0 74.666667 33.450667 74.666667 74.666667V256h224a32 32 0 0 1 32 32v490.666667A117.333333 117.333333 0 0 1 821.333333 896H202.666667A117.333333 117.333333 0 0 1 85.333333 778.666667V288A32 32 0 0 1 117.333333 256H341.333333z m64-96V256h213.333334V160a10.666667 10.666667 0 0 0-10.666667-10.666667h-192a10.666667 10.666667 0 0 0-10.666667 10.666667z m-256 618.666667c0 29.44 23.893333 53.333333 53.333334 53.333333h618.666666c29.44 0 53.333333-23.893333 53.333334-53.333333V320h-725.333334v458.666667z" /></svg>