<svg class="icon" style="width: 1em;height: 1em;vertical-align: middle;fill: currentColor;overflow: hidden;" viewBox="0 0 1024 1024" version="1.1" xmlns="http://www.w3.org/2000/svg"><path d="M384 469.333333a320 320 0 0 1 320-320h4.053333a32 32 0 0 0 0-64H704a384 384 0 0 0-384 384v53.333334c0 29.44-23.893333 53.333333-53.333333 53.333333h-149.333334a32 32 0 0 0 0 64h149.333334A117.333333 117.333333 0 0 0 384 522.666667V469.333333z m330.666667-170.666666a181.333333 181.333333 0 0 0-181.333334 181.333333v64a245.333333 245.333333 0 0 1-245.333333 245.333333h-170.666667a32 32 0 0 1 0-64h170.666667A181.333333 181.333333 0 0 0 469.333333 544v-64a245.333333 245.333333 0 0 1 245.333334-245.333333h192a32 32 0 0 1 0 64h-192z m21.333333 149.333333c-29.44 0-53.333333 23.893333-53.333333 53.333333V554.666667a384 384 0 0 1-384 384h-10.666667a32 32 0 0 1 0-64H298.666667a320 320 0 0 0 320-320v-53.333334A117.333333 117.333333 0 0 1 736 384h170.666667a32 32 0 0 1 0 64h-170.666667z" /></svg>