<svg class="icon" style="width: 1em;height: 1em;vertical-align: middle;fill: currentColor;overflow: hidden;" viewBox="0 0 1024 1024" version="1.1" xmlns="http://www.w3.org/2000/svg"><path d="M405.333333 864V576H295.68c-38.229333 51.669333-94.890667 94.037333-173.397333 106.282667a32 32 0 1 1-9.898667-63.232A194.688 194.688 0 0 0 208.64 576H74.666667a32 32 0 0 1 0-64h874.666666a32 32 0 0 1 0 64h-32v288a32 32 0 0 1-64 0V576h-226.133333l-4.309333 38.442667 152.234666-16.896a32 32 0 1 1 7.082667 63.573333l-192 21.333333a32 32 0 0 1-35.328-35.328l7.893333-71.125333H469.333333v288a32 32 0 0 1-64 0z m512-394.666667V202.666667a32 32 0 0 0-64 0V469.333333h64z m-278.314666 0l22.101333-199.125333a32 32 0 1 0-63.573333-7.082667L574.634667 469.333333h64.384zM469.333333 469.333333V202.666667a32 32 0 0 0-64 0V469.333333H469.333333z m-121.301333 0A343.722667 343.722667 0 0 0 362.666667 373.333333 32 32 0 0 0 330.666667 341.333333h-213.333334a32 32 0 1 0 0 64H296.533333a303.232 303.232 0 0 1-15.872 64h67.413334z" /></svg>