<svg class="icon" style="width: 1em;height: 1em;vertical-align: middle;fill: currentColor;overflow: hidden;" viewBox="0 0 1024 1024" version="1.1" xmlns="http://www.w3.org/2000/svg"><path d="M598.869333 118.485333a117.333333 117.333333 0 0 1 143.701334 82.986667l115.968 432.725333a117.333333 117.333333 0 0 1-82.986667 143.701334L507.733333 849.706667A117.333333 117.333333 0 0 1 363.946667 766.72L248.021333 333.994667A117.333333 117.333333 0 0 1 331.008 190.293333l267.861333-71.808z m-351.274666 378.922667l75.178666 280.32a159.232 159.232 0 0 0 42.752 73.130667l-18.901333-1.024a117.333333 117.333333 0 0 1-111.018667-123.306667l11.989334-229.12z m367.829333-317.098667L347.562667 252.16a53.333333 53.333333 0 0 0-37.717334 65.28l115.925334 432.768a53.333333 53.333333 0 0 0 65.322666 37.717333l267.904-71.808a53.333333 53.333333 0 0 0 37.717334-65.28L680.746667 218.026667a53.333333 53.333333 0 0 0-65.28-37.717334zM208.128 434.346667l-15.146667 289.962666c-1.578667 29.781333 5.12 58.112 18.090667 82.773334l-17.664-6.869334a117.333333 117.333333 0 0 1-67.498667-151.594666l82.218667-214.272z m207.488-134.229334a42.666667 42.666667 0 1 1 22.101333 82.432 42.666667 42.666667 0 0 1-22.101333-82.432z" /></svg>