<svg class="icon" style="width: 1em;height: 1em;vertical-align: middle;fill: currentColor;overflow: hidden;" viewBox="0 0 1024 1024" version="1.1" xmlns="http://www.w3.org/2000/svg"><path d="M266.666667 128A138.666667 138.666667 0 0 0 128 266.666667v490.666666A138.666667 138.666667 0 0 0 266.666667 896h490.666666A138.666667 138.666667 0 0 0 896 757.333333V266.666667A138.666667 138.666667 0 0 0 757.333333 128H266.666667zM192 266.666667c0-41.216 33.450667-74.666667 74.666667-74.666667h213.333333V298.666667h-64A117.333333 117.333333 0 0 0 298.666667 416v64H192v-213.333333z m106.666667 277.333333v64A117.333333 117.333333 0 0 0 416 725.333333h64v106.666667h-213.333333a74.666667 74.666667 0 0 1-74.666667-74.666667v-213.333333H298.666667z m181.333333 117.333333h-64c-29.44 0-53.333333-23.893333-53.333333-53.333333v-64h117.333333v117.333333z m64 64h64A117.333333 117.333333 0 0 0 725.333333 608v-64h106.666667v213.333333a74.666667 74.666667 0 0 1-74.666667 74.666667h-213.333333V725.333333z m117.333333-181.333333v64c0 29.44-23.893333 53.333333-53.333333 53.333333h-64v-117.333333h117.333333z m64-64v-64A117.333333 117.333333 0 0 0 608 298.666667h-64V192h213.333333c41.216 0 74.666667 33.450667 74.666667 74.666667v213.333333H725.333333zM544 362.666667h64c29.44 0 53.333333 23.893333 53.333333 53.333333v64h-117.333333V362.666667z m-64 0v117.333333H362.666667v-64c0-29.44 23.893333-53.333333 53.333333-53.333333h64z" /></svg>