<svg class="icon" style="width: 1em;height: 1em;vertical-align: middle;fill: currentColor;overflow: hidden;" viewBox="0 0 1024 1024" version="1.1" xmlns="http://www.w3.org/2000/svg"><path d="M821.333333 85.333333a32 32 0 0 1 32 31.018667l-0.170666 4.352-42.666667 405.333333a32 32 0 0 1-27.434667 28.330667L778.666667 554.666667h-31.104l62.592 346.368 0.469333 4.352a32 32 0 0 1-62.378667 11.264l-1.066666-4.266667L721.066667 768h-119.338667l-25.898667 144.384a32 32 0 0 1-63.488-6.997333l0.469334-4.309334 23.893333-133.077333H345.728l-25.898667 144.384a32 32 0 0 1-63.488-6.997333l0.469334-4.309334L319.061333 554.666667H202.666667a32 32 0 0 1-32-31.018667l0.170666-4.309333 42.666667-405.333334a32 32 0 0 1 27.434667-28.373333L245.333333 85.333333h576z m-246.272 469.333334H384.085333l-26.837333 149.333333h190.976l26.837333-149.333333z m107.434667 0h-42.410667l-26.837333 149.333333h96.213333l-26.965333-149.333333z m103.253333-405.333334H274.133333l-35.925333 341.333334h511.701333l35.925334-341.333334z" /></svg>