<svg class="icon" style="width: 1em;height: 1em;vertical-align: middle;fill: currentColor;overflow: hidden;" viewBox="0 0 1024 1024" version="1.1" xmlns="http://www.w3.org/2000/svg"><path d="M725.333333 426.666667a256 256 0 1 1-71.850666 501.76c-6.144 2.986667-12.373333 5.632-18.517334 7.722666l-8.917333 2.773334-111.530667 37.034666a117.333333 117.333333 0 0 1-131.925333-42.496l-4.309333-6.314666-18.346667-29.184a117.333333 117.333333 0 0 1 7.68-135.893334l5.418667-6.314666 84.053333-90.922667a181.333333 181.333333 0 0 1 14.165333-13.824A256.085333 256.085333 0 0 1 725.333333 426.666667z m-249.770666 312.448l-55.552 60.074666a53.333333 53.333333 0 0 0-8.874667 59.434667l2.901333 5.248 18.389334 29.141333c12.074667 19.2 34.773333 28.416 56.533333 23.68l5.376-1.493333 79.274667-26.282667a256.170667 256.170667 0 0 1-98.048-149.76zM725.333333 490.666667a192.042667 192.042667 0 0 0-176.085333 115.285333l-2.730667 6.698667-3.584 9.984-3.072 10.24a189.866667 189.866667 0 0 0-4.778666 23.722666l-1.28 12.202667A195.882667 195.882667 0 0 0 533.333333 682.666667l0.213334 9.045333a192.085333 192.085333 0 0 0 112.554666 165.888l0.085334-0.042667c6.656 3.072 13.568 5.717333 20.650666 8.021334l3.925334 1.152 6.4 1.834666c5.034667 1.28 10.154667 2.389333 15.36 3.328l7.850666 1.152a192.512 192.512 0 0 0 21.674667 1.578667L725.333333 874.666667a192 192 0 1 0 0-384zM298.666667 42.666667c32.128 0 62.890667 5.930667 91.264 16.725333l34.005333-10.88a117.333333 117.333333 0 0 1 123.221333 33.450667l5.248 6.272 5.674667 8.021333 22.4 34.346667a117.504 117.504 0 0 1-2.56 131.584l-5.12 6.869333-5.802667 6.570667-12.501333 13.141333L554.666667 298.666667a256 256 0 1 1-256-256zM244.48 114.432l-6.485333 2.005333A192.085333 192.085333 0 0 0 298.666667 490.666667a192.085333 192.085333 0 0 0 178.261333-120.576c-10.837333 11.392-22.997333 21.376-36.394667 29.696-81.834667 51.072-190.293333 27.904-242.346666-52.138667-50.56-77.653333-29.354667-180.096 46.293333-233.216z m204.885333-6.485333l-5.888 1.536-125.994666 40.32a114.645333 114.645333 0 0 0-30.890667 13.44c-52.053333 32.469333-67.413333 99.285333-34.773333 149.504 32.981333 50.645333 102.4 65.450667 154.88 32.768 6.528-4.096 12.672-8.832 18.346666-14.165334l5.589334-5.546666 89.173333-93.354667 3.968-4.48a53.333333 53.333333 0 0 0 5.930667-57.472l-2.858667-4.949333-21.632-33.28-3.584-4.992-3.413333-3.968a53.333333 53.333333 0 0 0-42.88-16.213334l-5.973334 0.853334z m16.981334 49.237333l2.901333 3.712 10.666667 15.957333a32 32 0 0 1-50.261334 39.338667l-2.901333-3.754667-10.666667-15.914666a32 32 0 0 1 50.261334-39.338667z" /></svg>