<svg class="icon" style="width: 1em;height: 1em;vertical-align: middle;fill: currentColor;overflow: hidden;" viewBox="0 0 1024 1024" version="1.1" xmlns="http://www.w3.org/2000/svg"><path d="M512 255.872a32 32 0 0 1 31.701333 27.605333l0.298667 4.352V829.44l94.72-94.549333a32 32 0 0 1 41.642667-3.114667l3.584 3.114667c11.392 11.349333 12.373333 29.098667 3.114666 41.6l-3.114666 3.584-149.333334 149.205333a32 32 0 0 1-41.642666 3.114667l-3.584-3.114667-149.333334-149.205333a31.957333 31.957333 0 0 1 41.642667-48.298667l3.584 3.114667 94.72 94.549333V287.829333a32 32 0 0 1 32-32zM512 85.333333c117.802667 0 213.333333 95.445333 213.333333 213.162667a213.248 213.248 0 0 1-138.666666 199.68v-70.442667A149.290667 149.290667 0 0 0 512 149.290667a149.290667 149.290667 0 0 0-74.666667 278.442666v70.485334A213.248 213.248 0 0 1 298.666667 298.496 213.248 213.248 0 0 1 512 85.333333z" /></svg>