<svg class="icon" style="width: 1em;height: 1em;vertical-align: middle;fill: currentColor;overflow: hidden;" viewBox="0 0 1024 1024" version="1.1" xmlns="http://www.w3.org/2000/svg"><path d="M255.872 512c0 16.213333 12.032 29.610667 27.605333 31.701333l4.352 0.298667H829.44l-94.549333 94.72a32 32 0 0 0-3.114667 41.642667l3.114667 3.584c11.349333 11.392 29.098667 12.373333 41.6 3.114666l3.584-3.114666 149.205333-149.333334a32 32 0 0 0 3.114667-41.642666l-3.114667-3.584-149.205333-149.333334a31.957333 31.957333 0 0 0-48.298667 41.642667l3.114667 3.584 94.549333 94.72H287.829333a32 32 0 0 0-32 32zM85.333333 512c0 117.802667 95.445333 213.333333 213.162667 213.333333a213.248 213.248 0 0 0 199.68-138.666666h-70.442667A149.290667 149.290667 0 0 1 149.290667 512a149.290667 149.290667 0 0 1 278.442666-74.666667h70.485334A213.248 213.248 0 0 0 298.496 298.666667 213.248 213.248 0 0 0 85.333333 512z" /></svg>