<svg class="icon" style="width: 1em;height: 1em;vertical-align: middle;fill: currentColor;overflow: hidden;" viewBox="0 0 1024 1024" version="1.1" xmlns="http://www.w3.org/2000/svg"><path d="M512 768.128a32 32 0 0 0 31.701333-27.605333l0.298667-4.352V194.56l94.72 94.549333a32 32 0 0 0 41.642667 3.114667l3.584-3.114667a31.957333 31.957333 0 0 0 3.114666-41.6l-3.114666-3.584-149.333334-149.248a32 32 0 0 0-41.642666-3.072l-3.584 3.072-149.333334 149.248a31.957333 31.957333 0 0 0 41.642667 48.298667l3.584-3.114667 94.72-94.549333v541.610667c0 17.664 14.336 32 32 32zM512 938.666667c117.802667 0 213.333333-95.445333 213.333333-213.162667a213.248 213.248 0 0 0-138.666666-199.68v70.442667A149.290667 149.290667 0 0 1 512 874.709333a149.290667 149.290667 0 0 1-74.666667-278.442666v-70.485334A213.248 213.248 0 0 0 298.666667 725.504 213.248 213.248 0 0 0 512 938.666667z" /></svg>