<svg class="icon" style="width: 1em;height: 1em;vertical-align: middle;fill: currentColor;overflow: hidden;" viewBox="0 0 1024 1024" version="1.1" xmlns="http://www.w3.org/2000/svg"><path d="M721.834667 768a32 32 0 0 1 4.352 63.701333l-4.352 0.298667h-44.202667a127.957333 127.957333 0 0 0 200.618667-12.373333 32 32 0 1 1 52.565333 36.522666A191.786667 191.786667 0 0 1 773.034667 938.666667a191.744 191.744 0 0 1-125.866667-46.976v14.976a32 32 0 0 1-63.701333 4.352l-0.298667-4.352v-106.666667a32 32 0 0 1 27.690667-31.701333l4.309333-0.298667h106.666667z m-448.853334-213.034667L277.333333 554.666667a32 32 0 0 1 31.701334 27.648l0.298666 4.352v128h128a32 32 0 0 1 31.701334 27.648L469.333333 746.666667a32 32 0 0 1-27.648 31.701333l-4.352 0.298667h-128v128a32 32 0 0 1-27.648 31.701333L277.333333 938.666667a32 32 0 0 1-31.701333-27.648l-0.298667-4.352v-128h-128a32 32 0 0 1-31.701333-27.648L85.333333 746.666667a32 32 0 0 1 27.648-31.701334l4.352-0.298666h128v-128a32 32 0 0 1 27.648-31.701334L277.333333 554.666667l-4.352 0.298666zM746.666667 554.666667c47.488 0 91.776 17.408 125.866666 46.976v-14.976a32 32 0 0 1 63.701334-4.352l0.298666 4.352v106.666666a32 32 0 0 1-27.648 31.701334L904.533333 725.333333h-106.666666a32 32 0 0 1-4.352-63.701333l4.352-0.298667h44.245333a127.957333 127.957333 0 0 0-200.661333 12.373334 32 32 0 1 1-52.522667-36.522667A191.786667 191.786667 0 0 1 746.666667 554.666667zM277.333333 85.333333a192 192 0 1 1 0 384 192 192 0 0 1 0-384z m542.464 0C886.016 85.333333 938.666667 144.64 938.666667 216.704c0 36.778667-13.781333 71.296-36.352 94.464l-106.752 134.016a63.573333 63.573333 0 0 1-99.968-0.256l-114.176-145.152A139.690667 139.690667 0 0 1 554.666667 216.704C554.666667 144.64 607.317333 85.333333 673.536 85.333333c24.064 0 46.933333 7.936 66.133333 22.186667l6.997334 5.589333 7.04-5.589333c19.157333-14.250667 42.026667-22.186667 66.133333-22.186667z m-652.8 127.018667a128 128 0 0 0 175.274667 175.274667L167.082667 212.352z m652.8-62.378667c-14.933333 0-29.141333 7.381333-39.552 20.778667l-33.450666 42.965333-33.578667-42.88c-10.496-13.44-24.746667-20.864-39.68-20.864-29.226667 0-54.869333 28.885333-54.869333 66.730667 0 16.725333 5.12 32.298667 13.44 43.648l113.578666 144.341333 109.525334-137.173333A72.96 72.96 0 0 0 874.666667 216.746667c0-37.845333-25.642667-66.730667-54.869334-66.730667zM277.333333 149.333333c-23.722667 0-45.909333 6.442667-64.981333 17.706667l175.274667 175.274667A128 128 0 0 0 277.333333 149.333333z" /></svg>