<svg class="icon" style="width: 1em;height: 1em;vertical-align: middle;fill: currentColor;overflow: hidden;" viewBox="0 0 1024 1024" version="1.1" xmlns="http://www.w3.org/2000/svg"><path d="M713.6 94.72a32 32 0 0 1 45.226667 0l170.666666 170.666667a32 32 0 0 1-45.226666 45.226666l-20.053334-20.053333L791.893333 362.666667l105.386667 105.386666a32 32 0 1 1-45.269333 45.226667l-62.72-62.72-291.882667 291.925333A160 160 0 0 1 384.298667 789.333333H279.936l-139.946667 139.946667a32 32 0 0 1-45.269333-45.226667l139.946667-139.946666v-104.405334a160 160 0 0 1 46.848-113.152l37.162666-37.12s0-0.042667 0 0l0.042667-0.085333 85.333333-85.290667c-0.042667 0 0 0 0 0l85.290667-85.333333 0.085333-0.042667L573.354667 234.666667l-62.72-62.72a32 32 0 0 1 45.269333-45.226667l105.386667 105.386667 72.277333-72.106667-20.053333-20.053333a32 32 0 0 1 0-45.226667zM512 386.56l-40.106667 40.106667 30.72 30.72a32 32 0 1 1-45.226666 45.226666l-30.72-30.72-40.106667 40.106667 30.72 30.72a32 32 0 1 1-45.226667 45.226667L341.333333 557.226667l-14.549333 14.592A96 96 0 0 0 298.666667 639.658667V725.333333h85.632a96 96 0 0 0 67.882666-28.117333L744.106667 405.333333 618.666667 279.893333 557.226667 341.333333l30.72 30.72a32 32 0 0 1-45.226667 45.226667L512 386.56z m306.944-141.226667l-40.106667-40.106666-72.234666 72.106666 40.064 40.106667 72.277333-72.106667z" /></svg>