<svg class="icon" style="width: 1em;height: 1em;vertical-align: middle;fill: currentColor;overflow: hidden;" viewBox="0 0 1024 1024" version="1.1" xmlns="http://www.w3.org/2000/svg"><path d="M202.666667 213.333333h618.666666A117.333333 117.333333 0 0 1 938.666667 330.666667v362.666666A117.333333 117.333333 0 0 1 821.333333 810.666667H202.666667A117.333333 117.333333 0 0 1 85.333333 693.333333v-362.666666A117.333333 117.333333 0 0 1 202.666667 213.333333z m0 64c-29.44 0-53.333333 23.893333-53.333334 53.333334v362.666666c0 29.44 23.893333 53.333333 53.333334 53.333334h618.666666c29.44 0 53.333333-23.893333 53.333334-53.333334v-362.666666c0-29.44-23.893333-53.333333-53.333334-53.333334H202.666667z" /></svg>