<svg class="icon" style="width: 1em;height: 1em;vertical-align: middle;fill: currentColor;overflow: hidden;" viewBox="0 0 1024 1024" version="1.1" xmlns="http://www.w3.org/2000/svg"><path d="M134.101333 245.333333A117.333333 117.333333 0 0 1 251.434667 128h533.333333a117.333333 117.333333 0 0 1 117.333333 117.333333v214.912a206.165333 206.165333 0 0 1-64-35.285333V245.333333c0-29.44-23.893333-53.333333-53.333333-53.333333h-533.333333c-29.44 0-53.333333 23.893333-53.333334 53.333333v533.333334c0 29.44 23.893333 53.333333 53.333334 53.333333h303.018666a285.141333 285.141333 0 0 0 50.688 64h-353.706666a117.333333 117.333333 0 0 1-117.333334-117.333333V245.333333zM960 512c-65.28 0-123.946667-26.026667-176.853333-79.061333a21.333333 21.333333 0 0 0-30.165334 0C699.946667 485.888 641.28 512 576.042667 512a21.333333 21.333333 0 0 0-21.333334 21.333333v128.042667l0.170667 12.373333c4.138667 130.56 73.984 219.690667 206.421333 263.808a21.290667 21.290667 0 0 0 13.482667 0C911.317333 892.032 981.333333 798.72 981.333333 661.376V533.333333l-0.341333-3.84A21.333333 21.333333 0 0 0 960 512z m-281.728 80.896l2.986667-2.432 3.242666-1.877333a21.333333 21.333333 0 0 1 20.992 1.877333l2.986667 2.432L768 652.501333l59.562667-59.605333 2.986666-2.432a21.333333 21.333333 0 0 1 24.234667 0l2.986667 2.432 2.432 2.986667a21.333333 21.333333 0 0 1 0 24.234666l-2.474667 2.986667L798.208 682.666667l59.562667 59.562666 2.474666 2.986667a21.333333 21.333333 0 0 1 0 24.234667l-2.474666 2.986666-2.944 2.432a21.333333 21.333333 0 0 1-24.277334 0l-2.944-2.432-59.562666-59.605333-59.605334 59.605333-2.944 2.432a21.333333 21.333333 0 0 1-24.277333 0l-2.944-2.432-2.474667-2.986666a21.333333 21.333333 0 0 1 0-24.234667l2.474667-2.986667L737.877333 682.666667l-59.605333-59.562667-2.474667-2.986667a21.333333 21.333333 0 0 1 0-24.234666l2.474667-2.986667z" /></svg>