<svg class="icon" style="width: 1em;height: 1em;vertical-align: middle;fill: currentColor;overflow: hidden;" viewBox="0 0 1024 1024" version="1.1" xmlns="http://www.w3.org/2000/svg"><path d="M245.333333 128A117.333333 117.333333 0 0 0 128 245.333333v533.333334A117.333333 117.333333 0 0 0 245.333333 896h533.333334A117.333333 117.333333 0 0 0 896 778.666667V245.333333A117.333333 117.333333 0 0 0 778.666667 128H245.333333zM192 245.333333c0-29.44 23.893333-53.333333 53.333333-53.333333H328.533333L192 354.730667V245.333333z m0 175.786667L384.256 192h113.621333L192 556.544V421.12z m361.6-229.12h113.664L192 758.357333V622.933333l361.6-430.933333z m169.344 0h55.722667c16.725333 0 31.616 7.68 41.386666 19.712L299.562667 832H245.333333c-17.109333 0-32.341333-8.106667-42.112-20.608L722.901333 192zM832 263.850667v135.424L468.906667 832H355.285333L832 263.850667z m0 201.813333v135.466667L638.293333 832h-113.664l307.370667-366.336z m0 201.813333v111.189334c0 29.44-23.893333 53.333333-53.333333 53.333333h-84.693334l138.026667-164.522667z" /></svg>