<svg class="icon" style="width: 1em;height: 1em;vertical-align: middle;fill: currentColor;overflow: hidden;" viewBox="0 0 1024 1024" version="1.1" xmlns="http://www.w3.org/2000/svg"><path d="M134.101333 245.333333A117.333333 117.333333 0 0 1 251.434667 128h533.333333a117.333333 117.333333 0 0 1 117.333333 117.333333v271.573334a276.352 276.352 0 0 0-64-32.170667V245.333333c0-29.44-23.893333-53.333333-53.333333-53.333333h-533.333333c-29.44 0-53.333333 23.893333-53.333334 53.333333v533.333334c0 29.44 23.893333 53.333333 53.333334 53.333333h231.296c7.381333 22.784 17.578667 44.245333 30.250666 64h-261.546666a117.333333 117.333333 0 0 1-117.333334-117.333333V245.333333zM981.333333 746.666667a234.666667 234.666667 0 1 1-469.333333 0 234.666667 234.666667 0 0 1 469.333333 0z m-240.896-91.562667a21.333333 21.333333 0 0 0-30.165333-30.208l-106.666667 106.666667a21.333333 21.333333 0 0 0 0 30.208l106.666667 106.666666a21.333333 21.333333 0 0 0 30.165333-30.208L670.208 768H874.666667a21.333333 21.333333 0 1 0 0-42.666667h-204.501334l70.229334-70.229333z" /></svg>