<svg class="icon" style="width: 1em;height: 1em;vertical-align: middle;fill: currentColor;overflow: hidden;" viewBox="0 0 1024 1024" version="1.1" xmlns="http://www.w3.org/2000/svg"><path d="M256.426667 213.333333h64.341333A74.666667 74.666667 0 0 1 394.666667 149.333333h341.333333a138.666667 138.666667 0 0 1 138.666667 138.666667v341.333333a74.666667 74.666667 0 0 1-64 73.898667v64.384a138.666667 138.666667 0 0 0 128-138.282667v-341.333333A202.666667 202.666667 0 0 0 736 85.333333h-341.333333a138.666667 138.666667 0 0 0-138.24 128zM85.333333 394.666667A138.666667 138.666667 0 0 1 224 256h405.333333A138.666667 138.666667 0 0 1 768 394.666667v405.333333A138.666667 138.666667 0 0 1 629.333333 938.666667h-405.333333A138.666667 138.666667 0 0 1 85.333333 800v-405.333333zM224 320A74.666667 74.666667 0 0 0 149.333333 394.666667v309.333333h245.333334a96 96 0 0 1 96 96v74.666667h138.666666a74.666667 74.666667 0 0 0 74.666667-74.666667v-405.333333a74.666667 74.666667 0 0 0-74.666667-74.666667h-405.333333z m202.666667 554.666667v-74.666667a32 32 0 0 0-32-32H149.333333v32c0 41.216 33.450667 74.666667 74.666667 74.666667H426.666667z" /></svg>