<svg class="icon" style="width: 1em;height: 1em;vertical-align: middle;fill: currentColor;overflow: hidden;" viewBox="0 0 1024 1024" version="1.1" xmlns="http://www.w3.org/2000/svg"><path d="M245.333333 128A117.333333 117.333333 0 0 0 128 245.333333v533.333334A117.333333 117.333333 0 0 0 245.333333 896h267.605334a276.096 276.096 0 0 1-30.250667-64H245.333333c-29.44 0-53.333333-23.893333-53.333333-53.333333V245.333333c0-29.44 23.893333-53.333333 53.333333-53.333333h533.333334c29.44 0 53.333333 23.893333 53.333333 53.333333v237.354667a276.096 276.096 0 0 1 64 30.250667V245.333333A117.333333 117.333333 0 0 0 778.666667 128H245.333333zM746.666667 981.333333a234.666667 234.666667 0 1 0 0-469.333333 234.666667 234.666667 0 0 0 0 469.333333z m-141.184-138.752a170.666667 170.666667 0 0 1 237.098666-237.098666l-237.098666 237.098666z m45.226666 45.226667l237.141334-237.056a170.666667 170.666667 0 0 1-237.098667 237.098667z" /></svg>