<svg class="icon" style="width: 1em;height: 1em;vertical-align: middle;fill: currentColor;overflow: hidden;" viewBox="0 0 1024 1024" version="1.1" xmlns="http://www.w3.org/2000/svg"><path d="M128 245.333333A117.333333 117.333333 0 0 1 245.333333 128h533.333334A117.333333 117.333333 0 0 1 896 245.333333v196.437334a171.093333 171.093333 0 0 0-64-45.354667V245.333333c0-29.44-23.893333-53.333333-53.333333-53.333333H245.333333c-29.44 0-53.333333 23.893333-53.333333 53.333333v533.333334c0 29.44 23.893333 53.333333 53.333333 53.333333h266.837334c0.938667 22.869333 6.4 44.330667 15.658666 64H245.333333A117.333333 117.333333 0 0 1 128 778.666667V245.333333zM768 618.666667a64 64 0 0 1 0-128v21.333333h120.746667a127.872 127.872 0 0 0-25.344-42.666667H768v-42.666666a128 128 0 1 0 95.402667 213.333333H768v-21.333333zM637.354667 725.333333c-24.832 0-45.653333 12.032-59.562667 27.093334-13.824 14.933333-23.125333 35.114667-23.125333 55.850666v16.384C554.666667 908.330667 641.749333 981.333333 768 981.333333v-42.666666h148.181333a167.68 167.68 0 0 0 42.538667-42.666667H768v21.333333c-107.946667 0-149.333333-59.264-149.333333-92.672v-16.384c0-1.962667 1.28-7.210667 6.101333-12.373333 4.565333-4.906667 9.258667-6.570667 12.544-6.570667H768V768h201.813333a91.093333 91.093333 0 0 0-11.605333-15.573333c-13.952-15.061333-34.730667-27.093333-59.52-27.093334h-261.333333zM768 597.333333v-42.666666h128c0 14.933333-2.56 29.312-7.253333 42.666666H768zM977.877333 853.333333H768v-42.666666h213.333333v13.994666c0 9.728-1.194667 19.328-3.456 28.672z" /></svg>