<svg class="icon" style="width: 1em;height: 1em;vertical-align: middle;fill: currentColor;overflow: hidden;" viewBox="0 0 1024 1024" version="1.1" xmlns="http://www.w3.org/2000/svg"><path d="M245.333333 128A117.333333 117.333333 0 0 0 128 245.333333v228.309334a299.904 299.904 0 0 1 64-49.706667V245.333333c0-29.44 23.893333-53.333333 53.333333-53.333333H469.333333v53.333333A96 96 0 0 0 565.333333 341.333333h266.666667v437.333334c0 29.44-23.893333 53.333333-53.333333 53.333333h-178.645334A299.861333 299.861333 0 0 1 550.4 896h228.309333A117.333333 117.333333 0 0 0 896 778.666667V245.333333A117.333333 117.333333 0 0 0 778.666667 128H245.333333zM832 277.333333h-266.666667a32 32 0 0 1-32-32V192h245.333334c29.44 0 53.333333 23.893333 53.333333 53.333333v32zM522.666667 416a32 32 0 0 1 32 32v117.333333a32 32 0 0 1-32 32H405.333333a32 32 0 0 1 0-64h56.746667a191.061333 191.061333 0 0 0-120.746667-42.666666 192 192 0 1 0 192 192 32 32 0 0 1 64 0 256 256 0 1 1-106.666666-207.957334V448a32 32 0 0 1 32-32z" /></svg>