<svg class="icon" style="width: 1em;height: 1em;vertical-align: middle;fill: currentColor;overflow: hidden;" viewBox="0 0 1024 1024" version="1.1" xmlns="http://www.w3.org/2000/svg"><path d="M245.333333 128A117.333333 117.333333 0 0 0 128 245.333333v199.765334c19.328-10.197333 40.96-16.554667 64-18.090667V245.333333c0-29.44 23.893333-53.333333 53.333333-53.333333H469.333333v53.333333A96 96 0 0 0 565.333333 341.333333h266.666667v437.333334c0 29.44-23.893333 53.333333-53.333333 53.333333h-181.674667a159.104 159.104 0 0 1-18.133333 64h199.808A117.333333 117.333333 0 0 0 896 778.666667V245.333333A117.333333 117.333333 0 0 0 778.666667 128H245.333333zM832 277.333333h-266.666667a32 32 0 0 1-32-32V192h245.333334c29.44 0 53.333333 23.893333 53.333333 53.333333v32zM405.333333 661.333333a42.666667 42.666667 0 1 0 0-85.333333 42.666667 42.666667 0 0 0 0 85.333333zM224 469.333333A138.666667 138.666667 0 0 0 85.333333 608v192A138.666667 138.666667 0 0 0 224 938.666667h192A138.666667 138.666667 0 0 0 554.666667 800v-192A138.666667 138.666667 0 0 0 416 469.333333h-192zM149.333333 608c0-41.216 33.450667-74.666667 74.666667-74.666667h192c41.216 0 74.666667 33.450667 74.666667 74.666667v192c0 8.789333-1.536 17.237333-4.309334 25.088L387.84 726.613333a96 96 0 0 0-135.765333 0l-98.474667 98.474667a74.538667 74.538667 0 0 1-4.309333-25.088v-192z m193.28 163.882667l98.474667 98.474666a74.496 74.496 0 0 1-25.088 4.309334h-192c-8.789333 0-17.237333-1.536-25.088-4.309334L297.386667 771.84a32 32 0 0 1 45.226666 0z" /></svg>