<svg class="icon" style="width: 1em;height: 1em;vertical-align: middle;fill: currentColor;overflow: hidden;" viewBox="0 0 1024 1024" version="1.1" xmlns="http://www.w3.org/2000/svg"><path d="M266.666667 128A138.666667 138.666667 0 0 0 128 266.666667v490.666666A138.666667 138.666667 0 0 0 266.666667 896h490.666666A138.666667 138.666667 0 0 0 896 757.333333V266.666667A138.666667 138.666667 0 0 0 757.333333 128H266.666667zM192 266.666667c0-41.216 33.450667-74.666667 74.666667-74.666667H469.333333v128H192V266.666667z m341.333333 437.333333h298.666667v53.333333a74.666667 74.666667 0 0 1-74.666667 74.666667H533.333333v-128z m298.666667-384h-298.666667v-128h224c41.216 0 74.666667 33.450667 74.666667 74.666667V320z m-362.666667 384v128H266.666667a74.666667 74.666667 0 0 1-74.666667-74.666667V704H469.333333zM192 384h640v256h-640V384z" /></svg>