<svg class="icon" style="width: 1em;height: 1em;vertical-align: middle;fill: currentColor;overflow: hidden;" viewBox="0 0 1024 1024" version="1.1" xmlns="http://www.w3.org/2000/svg"><path d="M160 85.333333a32 32 0 0 0-32 32v42.666667A138.666667 138.666667 0 0 0 266.666667 298.666667h490.666666A138.666667 138.666667 0 0 0 896 160v-42.666667a32 32 0 0 0-64 0v42.666667a74.666667 74.666667 0 0 1-74.666667 74.666667H661.333333V117.333333a32 32 0 0 0-64 0V234.666667h-170.666666V117.333333a32 32 0 0 0-64 0V234.666667H266.666667A74.666667 74.666667 0 0 1 192 160v-42.666667A32 32 0 0 0 160 85.333333zM160 938.666667a32 32 0 0 1-32-32v-42.666667A138.666667 138.666667 0 0 1 266.666667 725.333333h490.666666A138.666667 138.666667 0 0 1 896 864v42.666667a32 32 0 0 1-64 0v-42.666667a74.666667 74.666667 0 0 0-74.666667-74.666667H661.333333v117.333334a32 32 0 0 1-64 0V789.333333h-170.666666v117.333334a32 32 0 0 1-64 0V789.333333H266.666667a74.666667 74.666667 0 0 0-74.666667 74.666667v42.666667a32 32 0 0 1-32 32zM512 557.226667l62.72 62.72a32 32 0 1 0 45.226667-45.226667L557.226667 512l62.72-62.72a32 32 0 1 0-45.226667-45.226667L512 466.773333l-62.72-62.72a32 32 0 1 0-45.226667 45.226667L466.773333 512l-62.72 62.72a32 32 0 1 0 45.226667 45.226667L512 557.226667zM372.352 544c0.981333-1.109333 2.005333-2.176 3.072-3.242667L404.181333 512l-28.757333-28.757333a78.72 78.72 0 0 1-3.072-3.242667H117.333333a32 32 0 0 0 0 64h255.018667zM662.314667 544h244.352a32 32 0 0 0 0-64h-244.352a77.909333 77.909333 0 0 1-3.072 3.242667l-28.757334 28.757333 28.757334 28.757333 3.072 3.242667z" /></svg>