<svg class="icon" style="width: 1em;height: 1em;vertical-align: middle;fill: currentColor;overflow: hidden;" viewBox="0 0 1024 1024" version="1.1" xmlns="http://www.w3.org/2000/svg"><path d="M192 160v704a32 32 0 0 1-64 0V160a32 32 0 0 1 64 0zM608 128a96 96 0 0 1 96 96v576A96 96 0 0 1 608 896h-192a96 96 0 0 1-96-96V224A96 96 0 0 1 416 128h192zM640 224a32 32 0 0 0-32-32h-192a32 32 0 0 0-32 32V362.666667h256V224zM384 597.333333h256v-170.666666H384v170.666666z m0 64v138.666667c0 17.664 14.336 32 32 32h192a32 32 0 0 0 32-32V661.333333H384zM896 864V160a32 32 0 0 0-64 0v704a32 32 0 0 0 64 0z" /></svg>