<svg class="icon" style="width: 1em;height: 1em;vertical-align: middle;fill: currentColor;overflow: hidden;" viewBox="0 0 1024 1024" version="1.1" xmlns="http://www.w3.org/2000/svg"><path d="M842.624 170.666667a96 96 0 0 1 96 96v490.752a96 96 0 0 1-96 96H181.333333A96 96 0 0 1 85.333333 757.418667V266.666667A96 96 0 0 1 181.333333 170.666667h661.290667z m0 64H181.333333a32 32 0 0 0-32 32v490.752c0 17.664 14.336 32 32 32h661.290667a32 32 0 0 0 32-32V266.666667a32 32 0 0 0-32-32z m-405.290667 426.666666h149.333334a32 32 0 0 1 4.352 63.701334L586.666667 725.333333h-149.333334a32 32 0 0 1-4.352-63.701333l4.352-0.298667h149.333334-149.333334z" /></svg>