<svg class="icon" style="width: 1em;height: 1em;vertical-align: middle;fill: currentColor;overflow: hidden;" viewBox="0 0 1024 1024" version="1.1" xmlns="http://www.w3.org/2000/svg"><path d="M544 664.746667V359.253333l42.752 37.973334a32 32 0 0 0 42.496-47.786667l-96-85.333333a32 32 0 0 0-42.496 0l-96 85.333333a32 32 0 1 0 42.496 47.786667l42.752-37.973334v305.493334l-42.752-37.973334a32 32 0 1 0-42.496 47.786667l96 85.333333 0.512 0.469334a31.872 31.872 0 0 0 42.112-0.554667l95.872-85.205333a32 32 0 0 0-42.496-47.829334l-42.752 37.973334zM757.333333 896A138.666667 138.666667 0 0 0 896 757.333333V266.666667A138.666667 138.666667 0 0 0 757.333333 128H266.666667A138.666667 138.666667 0 0 0 128 266.666667v490.666666A138.666667 138.666667 0 0 0 266.666667 896h490.666666z m74.666667-138.666667a74.666667 74.666667 0 0 1-74.666667 74.666667H266.666667a74.666667 74.666667 0 0 1-74.666667-74.666667v-10.666666h219.605333l-45.226666-40.192A74.496 74.496 0 0 1 348.501333 682.666667H192V341.333333h156.501333c4.181333-8.789333 10.154667-16.938667 17.92-23.808l45.226667-40.192H192v-10.666666c0-41.216 33.450667-74.666667 74.666667-74.666667h490.666666c41.216 0 74.666667 33.450667 74.666667 74.666667v10.666666h-219.605333l45.226666 40.192c7.722667 6.869333 13.653333 15.018667 17.877334 23.808H832v341.333334h-156.501333a74.453333 74.453333 0 0 1-17.92 23.808l-45.226667 40.192H832v10.666666z" /></svg>