<svg class="icon" style="width: 1em;height: 1em;vertical-align: middle;fill: currentColor;overflow: hidden;" viewBox="0 0 1024 1024" version="1.1" xmlns="http://www.w3.org/2000/svg"><path d="M160 661.333333a32 32 0 0 1-32-32v-362.666666A138.666667 138.666667 0 0 1 266.666667 128h490.666666A138.666667 138.666667 0 0 1 896 266.666667v362.666666a32 32 0 0 1-32 32h-182.101333A74.581333 74.581333 0 0 0 597.333333 576.768V426.666667h-170.666666v150.101333A74.581333 74.581333 0 0 0 342.101333 661.333333H160z m266.666667-298.666666h170.666666v-170.666667h-170.666666v170.666667z m405.333333 234.666666v-170.666666h-170.666667v170.666666h170.666667z m-170.666667-234.666666h170.666667V266.666667a74.666667 74.666667 0 0 0-74.666667-74.666667H661.333333v170.666667z m-298.666666-170.666667H266.666667A74.666667 74.666667 0 0 0 192 266.666667V362.666667h170.666667v-170.666667z m-170.666667 405.333333h170.666667v-170.666666h-170.666667v170.666666zM160 832a32 32 0 0 0 0 64h704a32 32 0 0 0 0-64H160zM392.106667 629.418667a32 32 0 0 1 45.141333-2.688l42.752 37.973333V544a32 32 0 0 1 64 0v120.746667l42.752-37.973334a32 32 0 0 1 42.496 47.786667l-96 85.333333a32 32 0 0 1-42.496 0l-96-85.333333a32 32 0 0 1-2.688-45.141333z" /></svg>