<svg class="icon" style="width: 1em;height: 1em;vertical-align: middle;fill: currentColor;overflow: hidden;" viewBox="0 0 1024 1024" version="1.1" xmlns="http://www.w3.org/2000/svg"><path d="M128 266.666667A138.666667 138.666667 0 0 1 266.666667 128h490.666666A138.666667 138.666667 0 0 1 896 266.666667v490.666666A138.666667 138.666667 0 0 1 757.333333 896H266.666667A138.666667 138.666667 0 0 1 128 757.333333V266.666667zM266.666667 192A74.666667 74.666667 0 0 0 192 266.666667v213.333333h288V192h-213.333333z m213.333333 352H192v213.333333c0 41.216 33.450667 74.666667 74.666667 74.666667h213.333333v-288z m64 0v288h213.333333a74.666667 74.666667 0 0 0 74.666667-74.666667v-213.333333h-288z m288-64v-213.333333a74.666667 74.666667 0 0 0-74.666667-74.666667h-213.333333v288h288z" /></svg>