<svg class="icon" style="width: 1em;height: 1em;vertical-align: middle;fill: currentColor;overflow: hidden;" viewBox="0 0 1024 1024" version="1.1" xmlns="http://www.w3.org/2000/svg"><path d="M192 160a32 32 0 0 0-64 0v704a32 32 0 0 0 64 0V160zM362.666667 160A32 32 0 0 1 394.666667 128h362.666666A138.666667 138.666667 0 0 1 896 266.666667v490.666666A138.666667 138.666667 0 0 1 757.333333 896h-362.666666a32 32 0 0 1-32-32v-182.101333A74.581333 74.581333 0 0 0 447.232 597.333333H597.333333v-170.666666h-150.101333A74.581333 74.581333 0 0 0 362.666667 342.101333V160zM426.666667 832h170.666666v-170.666667h-170.666666v170.666667z m234.666666-170.666667v170.666667h96a74.666667 74.666667 0 0 0 74.666667-74.666667V661.333333h-170.666667z m170.666667-234.666666h-170.666667v170.666666h170.666667v-170.666666z m0-64V266.666667a74.666667 74.666667 0 0 0-74.666667-74.666667H661.333333v170.666667h170.666667z m-405.333333-170.666667v170.666667h170.666666v-170.666667h-170.666666zM394.581333 392.106667a32 32 0 0 1 2.688 45.141333l-37.973333 42.752h120.704a32 32 0 0 1 0 64H359.253333l37.973334 42.752a32 32 0 0 1-47.786667 42.496l-85.333333-96a32 32 0 0 1 0-42.496l85.333333-96a32 32 0 0 1 45.141333-2.688z" /></svg>