<svg class="icon" style="width: 1em;height: 1em;vertical-align: middle;fill: currentColor;overflow: hidden;" viewBox="0 0 1024 1024" version="1.1" xmlns="http://www.w3.org/2000/svg"><path d="M864 192a32 32 0 0 0 0-64H160a32 32 0 0 0 0 64h704zM864 362.666667a32 32 0 0 1 32 32v362.666666A138.666667 138.666667 0 0 1 757.333333 896H266.666667A138.666667 138.666667 0 0 1 128 757.333333v-362.666666a32 32 0 0 1 32-32h704zM597.333333 426.666667h-170.666666v170.666666h170.666666v-170.666666z m-234.666666 0h-170.666667v170.666666h170.666667v-170.666666z m0 234.666666h-170.666667v96c0 41.216 33.450667 74.666667 74.666667 74.666667H362.666667v-170.666667z m234.666666 0h-170.666666v170.666667h170.666666v-170.666667z m64 170.666667h96a74.666667 74.666667 0 0 0 74.666667-74.666667V661.333333h-170.666667v170.666667z m170.666667-405.333333h-170.666667v170.666666h170.666667v-170.666666z" /></svg>