<svg class="icon" style="width: 1em;height: 1em;vertical-align: middle;fill: currentColor;overflow: hidden;" viewBox="0 0 1024 1024" version="1.1" xmlns="http://www.w3.org/2000/svg"><path d="M128 266.666667A138.666667 138.666667 0 0 1 266.666667 128h490.624a138.666667 138.666667 0 0 1 138.666666 138.666667v203.136a140.544 140.544 0 0 0-64 9.386666V426.666667h-170.666666v170.666666h36.48l-100.48 100.48v-36.48h-170.666667v170.666667h65.749333a176.384 176.384 0 0 0-0.853333 3.242667l-15.189333 60.714666H266.666667A138.666667 138.666667 0 0 1 128 757.248V266.666667zM266.666667 192A74.666667 74.666667 0 0 0 192 266.666667V362.666667h170.666667v-170.666667H266.666667zM192 426.666667v170.624h170.666667v-170.666667h-170.666667z m234.666667 0v170.624h170.624v-170.666667h-170.666667z m234.624-64h170.666666V266.666667a74.666667 74.666667 0 0 0-74.666666-74.666667h-96v170.666667z m-64-170.666667h-170.666667v170.666667h170.666667v-170.666667z m-405.333334 469.290667v96c0 41.216 33.450667 74.666667 74.666667 74.666666H362.666667v-170.666666h-170.666667z m651.349334-140.544a96.938667 96.938667 0 0 0-28.458667 19.797333l-251.776 251.776a114.517333 114.517333 0 0 0-30.165333 53.248l-19.498667 78.08c-8.533333 34.005333 22.272 64.768 56.234667 56.277333l78.08-19.541333a114.56 114.56 0 0 0 53.248-30.122667L952.746667 678.4a97.536 97.536 0 0 0-109.482667-157.696z" /></svg>