<svg class="icon" style="width: 1em;height: 1em;vertical-align: middle;fill: currentColor;overflow: hidden;" viewBox="0 0 1024 1024" version="1.1" xmlns="http://www.w3.org/2000/svg"><path d="M944.768 140.885333c-13.994667-23.338667-28.373333-39.296-38.954667-48.128a32 32 0 0 0-40.96 49.152c5.418667 4.522667 15.061333 15.232 25.045334 31.872 17.109333 28.586667 27.434667 62.933333 27.434666 103.552s-10.325333 75.008-27.434666 103.552c-9.984 16.64-19.626667 27.349333-25.045334 31.872a32 32 0 0 0 40.96 49.152c10.581333-8.832 24.96-24.746667 38.954667-48.128C967.68 375.68 981.333333 330.069333 981.333333 277.333333s-13.653333-98.346667-36.565333-136.448z m-96.810667 46.677334a131.2 131.2 0 0 0-28.757333-31.829334 32 32 0 0 0-38.4 51.2c2.645333 1.962667 8.106667 7.466667 13.909333 16.170667 9.984 14.933333 15.957333 32.853333 15.957334 54.229333 0 21.333333-5.973333 39.253333-15.957334 54.229334a71.722667 71.722667 0 0 1-13.909333 16.170666l-3.584 3.114667A32 32 0 0 0 819.2 398.933333c8.064-6.016 18.56-16.554667 28.757333-31.829333A159.317333 159.317333 0 0 0 874.666667 277.333333c0-34.645333-10.026667-64.725333-26.709334-89.770666zM725.333333 160a32 32 0 0 0-56.064-21.077333L604.16 213.333333h-60.16a32 32 0 0 0-32 32v64c0 17.664 14.336 32 32 32h60.16l65.109333 74.410667A32 32 0 0 0 725.333333 394.666667v-234.666667zM181.333333 170.666667H512a42.666667 42.666667 0 0 0-42.666667 42.666666v21.333334H181.333333a32 32 0 0 0-32 32v490.752c0 17.664 14.336 32 32 32h661.290667a32 32 0 0 0 32-32v-246.186667c20.224 2.944 41.557333-2.432 58.496-16.554667 1.792-1.493333 3.626667-3.072 5.504-4.778666v267.52a96 96 0 0 1-96 96H181.333333A96 96 0 0 1 85.333333 757.418667V266.666667A96 96 0 0 1 181.333333 170.666667z m405.333334 490.666666a32 32 0 0 1 4.352 63.701334L586.666667 725.333333h-149.333334a32 32 0 0 1-4.352-63.701333l4.352-0.298667h149.333334z" /></svg>