<svg class="icon" style="width: 1em;height: 1em;vertical-align: middle;fill: currentColor;overflow: hidden;" viewBox="0 0 1024 1024" version="1.1" xmlns="http://www.w3.org/2000/svg"><path d="M374.613333 52.053333a32 32 0 0 0-45.226666 45.226667l30.72 30.72H266.666667A138.666667 138.666667 0 0 0 128 266.666667v93.44l-30.72-30.72a32 32 0 0 0-45.226667 45.226666l85.333334 85.333334a31.914667 31.914667 0 0 0 45.226666 0l85.333334-85.333334a31.872 31.872 0 0 0 0-45.226666 32 32 0 0 0-45.226667 0l-30.72 30.72V266.666667c0-41.216 33.450667-74.666667 74.666667-74.666667h93.44l-30.72 30.72a32 32 0 0 0 33.28 52.778667 32 32 0 0 0 11.946666-7.552l85.333334-85.333334a32 32 0 0 0 0-45.226666l-85.333334-85.333334zM504.832 128a74.88 74.88 0 0 1 0 64H597.333333v170.666667h-170.666666V276.266667l-21.888 21.845333a74.325333 74.325333 0 0 1-42.112 21.12V362.666667H319.232c-2.218667 15.402667-9.258667 30.293333-21.12 42.112L276.266667 426.666667H362.666667v170.666666h-170.666667v-92.501333a74.88 74.88 0 0 1-64 0v252.501333A138.666667 138.666667 0 0 0 266.666667 896h490.666666A138.666667 138.666667 0 0 0 896 757.333333V266.666667A138.666667 138.666667 0 0 0 757.333333 128h-252.501333zM426.666667 597.333333v-170.666666h170.666666v170.666666h-170.666666z m234.666666 0v-170.666666h170.666667v170.666666h-170.666667zM597.333333 661.333333v170.666667h-170.666666v-170.666667h170.666666z m64 170.666667v-170.666667h170.666667v96a74.666667 74.666667 0 0 1-74.666667 74.666667H661.333333z m0-469.333333v-170.666667h96c41.216 0 74.666667 33.450667 74.666667 74.666667V362.666667h-170.666667z m-469.333333 298.666666h170.666667v170.666667H266.666667a74.666667 74.666667 0 0 1-74.666667-74.666667V661.333333z" /></svg>