<svg class="icon" style="width: 1em;height: 1em;vertical-align: middle;fill: currentColor;overflow: hidden;" viewBox="0 0 1024 1024" version="1.1" xmlns="http://www.w3.org/2000/svg"><path d="M664.746667 480H359.253333l37.973334-42.752a32 32 0 0 0-47.786667-42.496l-85.333333 96a32 32 0 0 0 0 42.496l85.333333 96a32 32 0 1 0 47.786667-42.496l-37.973334-42.752h305.493334l-37.973334 42.752a32 32 0 1 0 47.786667 42.496l85.333333-96 0.469334-0.512a31.872 31.872 0 0 0-0.554667-42.112l-85.205333-95.872a32 32 0 0 0-47.829334 42.496l37.973334 42.752zM757.333333 128A138.666667 138.666667 0 0 1 896 266.666667v490.666666A138.666667 138.666667 0 0 1 757.333333 896H266.666667A138.666667 138.666667 0 0 1 128 757.333333V266.666667A138.666667 138.666667 0 0 1 266.666667 128h490.666666z m74.666667 138.666667a74.666667 74.666667 0 0 0-74.666667-74.666667h-10.666666v219.605333l-40.192-45.226666A74.410667 74.410667 0 0 0 682.666667 348.501333V192H341.333333v156.501333a74.410667 74.410667 0 0 0-23.808 17.92L277.333333 411.605333V192h-10.666666A74.666667 74.666667 0 0 0 192 266.666667v490.666666c0 41.216 33.450667 74.666667 74.666667 74.666667h10.666666v-219.605333l40.192 45.226666c6.869333 7.722667 15.018667 13.653333 23.808 17.877334V832h341.333334v-156.501333c8.789333-4.181333 16.938667-10.154667 23.808-17.92l40.192-45.226667V832h10.666666a74.666667 74.666667 0 0 0 74.666667-74.666667V266.666667z" /></svg>