<svg class="icon" style="width: 1em;height: 1em;vertical-align: middle;fill: currentColor;overflow: hidden;" viewBox="0 0 1024 1024" version="1.1" xmlns="http://www.w3.org/2000/svg"><path d="M128 266.666667A138.666667 138.666667 0 0 1 266.666667 128h490.666666A138.666667 138.666667 0 0 1 896 266.666667v490.666666A138.666667 138.666667 0 0 1 757.333333 896H266.666667A138.666667 138.666667 0 0 1 128 757.333333V266.666667zM266.666667 192A74.666667 74.666667 0 0 0 192 266.666667v490.666666c0 41.216 33.450667 74.666667 74.666667 74.666667H362.666667v-640H266.666667z m330.666666 640v-170.666667h-170.666666v170.666667h170.666666z m64 0h96a74.666667 74.666667 0 0 0 74.666667-74.666667V661.333333h-170.666667v170.666667z m0-234.666667h170.666667v-170.666666h-170.666667v170.666666zM597.333333 426.666667h-170.666666v170.666666h170.666666v-170.666666z m0-64v-170.666667h-170.666666v170.666667h170.666666z m64 0h170.666667V266.666667a74.666667 74.666667 0 0 0-74.666667-74.666667H661.333333v170.666667z" /></svg>