<svg class="icon" style="width: 1em;height: 1em;vertical-align: middle;fill: currentColor;overflow: hidden;" viewBox="0 0 1024 1024" version="1.1" xmlns="http://www.w3.org/2000/svg"><path d="M533.333333 426.666667H469.333333v170.666666h64v-170.666666zM128 266.666667A138.666667 138.666667 0 0 1 266.666667 128h490.666666A138.666667 138.666667 0 0 1 896 266.666667v490.666666A138.666667 138.666667 0 0 1 757.333333 896H266.666667A138.666667 138.666667 0 0 1 128 757.333333V266.666667zM266.666667 192A74.666667 74.666667 0 0 0 192 266.666667V320H469.333333v-128H266.666667z m565.333333 512h-298.666667v128h224a74.666667 74.666667 0 0 0 74.666667-74.666667V704z m0-437.333333a74.666667 74.666667 0 0 0-74.666667-74.666667H533.333333v128h298.666667V266.666667zM192 704v53.333333c0 41.216 33.450667 74.666667 74.666667 74.666667H469.333333v-128H192z m0-64h640V384h-640v256z" /></svg>