<svg class="icon" style="width: 1em;height: 1em;vertical-align: middle;fill: currentColor;overflow: hidden;" viewBox="0 0 1024 1024" version="1.1" xmlns="http://www.w3.org/2000/svg"><path d="M128 373.333333A96 96 0 0 1 224 277.333333h576a96 96 0 0 1 90.581333 64.170667A140.16 140.16 0 0 0 883.84 341.333333h-0.085333c-19.882667 0-39.765333 4.266667-58.24 12.672A31.957333 31.957333 0 0 0 800 341.333333H661.333333v164.394667l-64 64V341.333333h-170.666666v256h143.061333l-36.906667 36.906667a157.269333 157.269333 0 0 0-21.674666 27.093333H224A96 96 0 0 1 128 565.333333v-192zM224 341.333333a32 32 0 0 0-32 32v192c0 17.664 14.336 32 32 32H362.666667V341.333333H224z m659.84 42.666667h-0.085333c-24.96 0-49.92 9.514667-68.906667 28.586667l-251.818667 251.818666a114.517333 114.517333 0 0 0-30.165333 53.205334l-19.541333 78.122666a46.378667 46.378667 0 0 0 56.277333 56.234667l78.08-19.498667a114.517333 114.517333 0 0 0 53.248-30.165333l251.818667-251.818667A97.536 97.536 0 0 0 883.84 384z" /></svg>