<svg class="icon" style="width: 1em;height: 1em;vertical-align: middle;fill: currentColor;overflow: hidden;" viewBox="0 0 1024 1024" version="1.1" xmlns="http://www.w3.org/2000/svg"><path d="M266.666667 128A138.666667 138.666667 0 0 0 128 266.666667v490.666666A138.666667 138.666667 0 0 0 266.666667 896h490.666666A138.666667 138.666667 0 0 0 896 757.333333V266.666667A138.666667 138.666667 0 0 0 757.333333 128H266.666667zM832 362.666667H394.666667a32 32 0 0 0-32 32V832H266.666667a74.666667 74.666667 0 0 1-74.666667-74.666667V266.666667c0-41.216 33.450667-74.666667 74.666667-74.666667h490.666666c41.216 0 74.666667 33.450667 74.666667 74.666667V362.666667zM597.333333 426.666667v170.666666h-170.666666v-170.666666h170.666666z m64 170.666666v-170.666666h170.666667v170.666666h-170.666667zM597.333333 661.333333v170.666667h-170.666666v-170.666667h170.666666z m64 170.666667v-170.666667h170.666667v96a74.666667 74.666667 0 0 1-74.666667 74.666667H661.333333z" /></svg>