<svg class="icon" style="width: 1em;height: 1em;vertical-align: middle;fill: currentColor;overflow: hidden;" viewBox="0 0 1024 1024" version="1.1" xmlns="http://www.w3.org/2000/svg"><path d="M864 192a32 32 0 0 0 0-64H160a32 32 0 0 0 0 64h704zM864 362.666667a32 32 0 0 1 32 32v362.666666A138.666667 138.666667 0 0 1 757.333333 896H266.666667A138.666667 138.666667 0 0 1 128 757.333333v-362.666666a32 32 0 0 1 32-32h182.101333A74.581333 74.581333 0 0 0 426.666667 447.232V597.333333h170.666666v-150.101333A74.581333 74.581333 0 0 0 681.898667 362.666667h182.101333zM362.666667 426.666667h-170.666667v170.666666h170.666667v-170.666666z m0 234.666666h-170.666667v96c0 41.216 33.450667 74.666667 74.666667 74.666667H362.666667v-170.666667z m234.666666 170.666667v-170.666667h-170.666666v170.666667h170.666666z m64 0h96a74.666667 74.666667 0 0 0 74.666667-74.666667V661.333333h-170.666667v170.666667z m0-405.333333v170.666666h170.666667v-170.666666h-170.666667zM631.893333 394.581333a32 32 0 0 1-45.141333 2.688l-42.752-37.973333v120.704a32 32 0 0 1-64 0V359.253333l-42.752 37.973334a32 32 0 0 1-42.496-47.786667l96-85.333333a32 32 0 0 1 42.496 0l96 85.333333a32 32 0 0 1 2.688 45.141333z" /></svg>