<svg class="icon" style="width: 1em;height: 1em;vertical-align: middle;fill: currentColor;overflow: hidden;" viewBox="0 0 1024 1024" version="1.1" xmlns="http://www.w3.org/2000/svg"><path d="M938.666667 160a32 32 0 0 0-32-32h-42.666667A138.666667 138.666667 0 0 0 725.333333 266.666667v490.666666A138.666667 138.666667 0 0 0 864 896h42.666667a32 32 0 0 0 0-64h-42.666667a74.666667 74.666667 0 0 1-74.666667-74.666667V661.333333h117.333334a32 32 0 0 0 0-64H789.333333v-170.666666h117.333334a32 32 0 0 0 0-64H789.333333V266.666667c0-41.216 33.450667-74.666667 74.666667-74.666667h42.666667a32 32 0 0 0 32-32zM85.333333 160A32 32 0 0 1 117.333333 128h42.666667A138.666667 138.666667 0 0 1 298.666667 266.666667v490.666666A138.666667 138.666667 0 0 1 160 896h-42.666667a32 32 0 0 1 0-64h42.666667a74.666667 74.666667 0 0 0 74.666667-74.666667V661.333333H117.333333a32 32 0 0 1 0-64H234.666667v-170.666666H117.333333a32 32 0 0 1 0-64H234.666667V266.666667A74.666667 74.666667 0 0 0 160 192h-42.666667A32 32 0 0 1 85.333333 160zM466.773333 512l-62.72 62.72a32 32 0 1 0 45.226667 45.226667L512 557.226667l62.72 62.72a32 32 0 1 0 45.226667-45.226667L557.226667 512l62.72-62.72a32 32 0 1 0-45.226667-45.226667L512 466.773333l-62.72-62.72a32 32 0 1 0-45.226667 45.226667L466.773333 512zM480 372.352c1.109333 0.981333 2.176 2.005333 3.242667 3.072l28.757333 28.757333 28.757333-28.757333c1.066667-1.066667 2.133333-2.090667 3.242667-3.072V117.333333a32 32 0 0 0-64 0v255.018667zM480 662.314667v244.352a32 32 0 0 0 64 0v-244.352a77.909333 77.909333 0 0 1-3.242667-3.072L512 630.485333l-28.757333 28.757334-3.242667 3.072z" /></svg>