<svg class="icon" style="width: 1em;height: 1em;vertical-align: middle;fill: currentColor;overflow: hidden;" viewBox="0 0 1024 1024" version="1.1" xmlns="http://www.w3.org/2000/svg"><path d="M128 266.666667A138.666667 138.666667 0 0 1 266.666667 128h490.666666A138.666667 138.666667 0 0 1 896 266.666667v246.272a276.096 276.096 0 0 0-64-30.250667V426.666667h-170.666667v56.021333a276.096 276.096 0 0 0-64 30.250667V426.666667h-170.666666v170.666666h86.272a276.096 276.096 0 0 0-30.250667 64H426.666667v170.666667h56.021333c7.381333 22.784 17.578667 44.245333 30.250667 64H266.666667A138.666667 138.666667 0 0 1 128 757.333333V266.666667zM266.666667 192A74.666667 74.666667 0 0 0 192 266.666667V362.666667h170.666667v-170.666667H266.666667zM192 426.666667v170.666666h170.666667v-170.666666h-170.666667z m469.333333-64h170.666667V266.666667a74.666667 74.666667 0 0 0-74.666667-74.666667H661.333333v170.666667z m-64-170.666667h-170.666666v170.666667h170.666666v-170.666667z m-405.333333 469.333333v96c0 41.216 33.450667 74.666667 74.666667 74.666667H362.666667v-170.666667h-170.666667z m789.333333 85.333334a234.666667 234.666667 0 1 1-469.333333 0 234.666667 234.666667 0 0 1 469.333333 0zM790.570667 597.333333h-61.141334a21.333333 21.333333 0 0 0-19.968 13.824l-48 128a21.333333 21.333333 0 0 0 20.010667 28.842667h33.194667l-32.981334 98.901333a22.101333 22.101333 0 0 0 39.509334 19.029334l112-172.288a20.053333 20.053333 0 0 0-16.768-30.976H789.333333l21.205334-56.490667a21.333333 21.333333 0 0 0-19.968-28.842667z" /></svg>