<svg class="icon" style="width: 1em;height: 1em;vertical-align: middle;fill: currentColor;overflow: hidden;" viewBox="0 0 1024 1024" version="1.1" xmlns="http://www.w3.org/2000/svg"><path d="M160 661.333333a32 32 0 0 1-32-32v-362.666666A138.666667 138.666667 0 0 1 266.666667 128h490.666666A138.666667 138.666667 0 0 1 896 266.666667v362.666666a32 32 0 0 1-32 32H160zM426.666667 597.333333h170.666666v-170.666666h-170.666666v170.666666z m0-234.666666h170.666666v-170.666667h-170.666666v170.666667z m234.666666 234.666666h170.666667v-170.666666h-170.666667v170.666666z m0-234.666666h170.666667V266.666667a74.666667 74.666667 0 0 0-74.666667-74.666667H661.333333v170.666667z m-298.666666-170.666667H266.666667A74.666667 74.666667 0 0 0 192 266.666667V362.666667h170.666667v-170.666667z m-170.666667 405.333333h170.666667v-170.666666h-170.666667v170.666666zM160 832a32 32 0 0 0 0 64h704a32 32 0 0 0 0-64H160z" /></svg>