<svg class="icon" style="width: 1em;height: 1em;vertical-align: middle;fill: currentColor;overflow: hidden;" viewBox="0 0 1024 1024" version="1.1" xmlns="http://www.w3.org/2000/svg"><path d="M192 160a32 32 0 0 0-64 0v704a32 32 0 0 0 64 0V160zM362.666667 160A32 32 0 0 1 394.666667 128h362.666666A138.666667 138.666667 0 0 1 896 266.666667v490.666666A138.666667 138.666667 0 0 1 757.333333 896h-362.666666a32 32 0 0 1-32-32V160zM426.666667 426.666667v170.666666h170.666666v-170.666666h-170.666666z m0 234.666666v170.666667h170.666666v-170.666667h-170.666666z m234.666666 0v170.666667h96a74.666667 74.666667 0 0 0 74.666667-74.666667V661.333333h-170.666667z m0-234.666666v170.666666h170.666667v-170.666666h-170.666667z m170.666667-64V266.666667a74.666667 74.666667 0 0 0-74.666667-74.666667H661.333333v170.666667h170.666667z m-405.333333-170.666667v170.666667h170.666666v-170.666667h-170.666666z" /></svg>