<svg class="icon" style="width: 1em;height: 1em;vertical-align: middle;fill: currentColor;overflow: hidden;" viewBox="0 0 1024 1024" version="1.1" xmlns="http://www.w3.org/2000/svg"><path d="M864 128H160a32 32 0 0 0 0 64h704a32 32 0 0 0 0-64zM128 416A96 96 0 0 1 224 320h576A96 96 0 0 1 896 416v192a96 96 0 0 1-96 96H224A96 96 0 0 1 128 608v-192zM224 384a32 32 0 0 0-32 32v192c0 17.664 14.336 32 32 32H362.666667V384H224zM597.333333 640V384h-170.666666v256h170.666666z m64 0h138.666667a32 32 0 0 0 32-32v-192a32 32 0 0 0-32-32H661.333333v256zM160 832h704a32 32 0 0 1 0 64H160a32 32 0 0 1 0-64z" /></svg>