<svg class="icon" style="width: 1em;height: 1em;vertical-align: middle;fill: currentColor;overflow: hidden;" viewBox="0 0 1024 1024" version="1.1" xmlns="http://www.w3.org/2000/svg"><path d="M128 266.666667A138.666667 138.666667 0 0 1 266.666667 128h490.666666A138.666667 138.666667 0 0 1 896 266.666667v302.208a201.685333 201.685333 0 0 0-64-13.909334V426.666667h-170.666667v128.298666a201.685333 201.685333 0 0 0-64 13.909334V426.666667h-170.666666v170.666666h120.917333c-22.186667 17.28-40.704 39.082667-54.101333 64H426.666667v170.666667h56.874666c9.472 23.893333 23.338667 45.568 40.661334 64H266.666667A138.666667 138.666667 0 0 1 128 757.333333V266.666667zM266.666667 192A74.666667 74.666667 0 0 0 192 266.666667V362.666667h170.666667v-170.666667H266.666667zM192 426.666667v170.666666h170.666667v-170.666666h-170.666667z m469.333333-64h170.666667V266.666667a74.666667 74.666667 0 0 0-74.666667-74.666667H661.333333v170.666667z m-64-170.666667h-170.666666v170.666667h170.666666v-170.666667z m-405.333333 469.333333v96c0 41.216 33.450667 74.666667 74.666667 74.666667H362.666667v-170.666667h-170.666667zM981.333333 757.333333A160 160 0 0 0 821.333333 597.333333l-4.352 0.298667a32 32 0 0 0 4.352 63.701333l6.570667 0.213334A96 96 0 0 1 821.333333 853.333333l-0.128 0.213334-4.352 0.298666a32 32 0 0 0 4.608 63.701334V917.333333l8.533334-0.213333A160 160 0 0 0 981.333333 757.333333z m-277.333333-128a32 32 0 0 0-32-32l-8.533333 0.213334a160 160 0 0 0 8.533333 319.786666l4.352-0.298666A32 32 0 0 0 672 853.333333l-6.570667-0.213333a96 96 0 0 1 6.570667-191.786667l4.352-0.298666a32 32 0 0 0 27.648-31.701334z m149.333333 128a32 32 0 0 0-32-32h-149.333333l-4.352 0.298667a32 32 0 0 0 4.352 63.701333h149.333333l4.352-0.298666A32 32 0 0 0 853.333333 757.333333z" /></svg>