<svg class="icon" style="width: 1em;height: 1em;vertical-align: middle;fill: currentColor;overflow: hidden;" viewBox="0 0 1024 1024" version="1.1" xmlns="http://www.w3.org/2000/svg"><path d="M661.333333 160a32 32 0 0 0-32-32h-362.666666A138.666667 138.666667 0 0 0 128 266.666667v490.666666A138.666667 138.666667 0 0 0 266.666667 896h362.666666a32 32 0 0 0 32-32V160zM597.333333 426.666667v170.666666h-170.666666v-170.666666h170.666666z m-405.333333 170.666666v-170.666666h170.666667v170.666666h-170.666667zM597.333333 362.666667h-170.666666v-170.666667h170.666666v170.666667z m-234.666666 0h-170.666667V266.666667c0-41.216 33.450667-74.666667 74.666667-74.666667H362.666667v170.666667z m0 469.333333H266.666667a74.666667 74.666667 0 0 1-74.666667-74.666667V661.333333h170.666667v170.666667z m64-170.666667h170.666666v170.666667h-170.666666v-170.666667zM832 160a32 32 0 0 1 64 0v704a32 32 0 0 1-64 0V160z" /></svg>