<svg class="icon" style="width: 1em;height: 1em;vertical-align: middle;fill: currentColor;overflow: hidden;" viewBox="0 0 1024 1024" version="1.1" xmlns="http://www.w3.org/2000/svg"><path d="M842.666667 85.333333A96 96 0 0 1 938.666667 181.333333v233.045334a138.666667 138.666667 0 0 1-40.618667 98.048l-362.666667 362.794666a138.88 138.88 0 0 1-196.138666 0.042667L148.864 685.226667a138.666667 138.666667 0 0 1-0.128-196.096l362.666667-363.093334A138.666667 138.666667 0 0 1 609.450667 85.333333h233.173333z m0 64h-233.173334c-19.84 0-38.826667 7.893333-52.864 21.888l-363.178666 363.648a74.666667 74.666667 0 0 0 0.64 105.045334l190.336 190.037333a74.88 74.88 0 0 0 105.685333 0l362.666667-362.794667a74.666667 74.666667 0 0 0 21.888-52.778666V181.333333a32 32 0 0 0-32-32zM725.333333 234.752a64 64 0 1 1 0 128 64 64 0 0 1 0-128z" /></svg>