<svg class="icon" style="width: 1em;height: 1em;vertical-align: middle;fill: currentColor;overflow: hidden;" viewBox="0 0 1024 1024" version="1.1" xmlns="http://www.w3.org/2000/svg"><path d="M842.666667 85.333333A96 96 0 0 1 938.666667 181.333333v233.045334a138.666667 138.666667 0 0 1-40.618667 98.048l-1.109333 1.109333a276.181333 276.181333 0 0 0-61.013334-29.525333l16.853334-16.853334a74.666667 74.666667 0 0 0 21.888-52.778666V181.333333a32 32 0 0 0-32-32h-233.216c-19.797333 0-38.826667 7.893333-52.821334 21.888l-363.178666 363.648a74.666667 74.666667 0 0 0 0.64 105.045334l190.336 190.037333a74.88 74.88 0 0 0 99.413333 5.546667c7.04 20.778667 16.469333 40.405333 27.904 58.624a138.922667 138.922667 0 0 1-172.501333-18.858667L148.864 685.226667a138.666667 138.666667 0 0 1-0.170667-196.096l362.666667-363.093334a138.666667 138.666667 0 0 1 98.133333-40.661333h233.173334zM725.333333 234.752a64 64 0 1 1 0 128 64 64 0 0 1 0-128zM746.666667 981.333333a234.666667 234.666667 0 1 0 0-469.333333 234.666667 234.666667 0 0 0 0 469.333333z m-100.437334-335.104a21.333333 21.333333 0 0 1 30.208 0l70.229334 70.272 70.229333-70.272a21.333333 21.333333 0 0 1 30.208 30.208L776.832 746.666667l70.272 70.229333a21.333333 21.333333 0 0 1-30.208 30.208L746.666667 776.832l-70.229334 70.272a21.333333 21.333333 0 0 1-30.208-30.208l70.272-70.229333-70.272-70.229334a21.333333 21.333333 0 0 1 0-30.208z" /></svg>