<svg class="icon" style="width: 1em;height: 1em;vertical-align: middle;fill: currentColor;overflow: hidden;" viewBox="0 0 1024 1024" version="1.1" xmlns="http://www.w3.org/2000/svg"><path d="M842.666667 85.333333A96 96 0 0 1 938.666667 181.333333v233.045334a138.666667 138.666667 0 0 1-40.618667 98.048l-1.109333 1.109333a276.096 276.096 0 0 0-61.013334-29.525333l16.853334-16.853334a74.666667 74.666667 0 0 0 21.888-52.778666V181.333333a32 32 0 0 0-32-32h-233.216c-19.797333 0-38.826667 7.893333-52.821334 21.888l-363.178666 363.648a74.666667 74.666667 0 0 0 0.64 105.045334l190.336 190.037333a74.88 74.88 0 0 0 99.413333 5.546667c7.04 20.778667 16.426667 40.405333 27.904 58.666666a138.922667 138.922667 0 0 1-172.501333-18.901333L148.864 685.226667a138.666667 138.666667 0 0 1-0.170667-196.096l362.666667-363.093334a138.666667 138.666667 0 0 1 98.133333-40.661333h233.173334zM725.333333 234.752a64 64 0 1 1 0 128 64 64 0 0 1 0-128zM981.333333 746.666667a234.666667 234.666667 0 1 1-469.333333 0 234.666667 234.666667 0 0 1 469.333333 0zM746.666667 597.333333a21.333333 21.333333 0 0 0-21.333334 21.333334v170.666666a21.333333 21.333333 0 0 0 42.666667 0v-170.666666a21.333333 21.333333 0 0 0-21.333333-21.333334z m0 304a26.666667 26.666667 0 1 0 0-53.333333 26.666667 26.666667 0 0 0 0 53.333333z" /></svg>