<svg class="icon" style="width: 1em;height: 1em;vertical-align: middle;fill: currentColor;overflow: hidden;" viewBox="0 0 1024 1024" version="1.1" xmlns="http://www.w3.org/2000/svg"><path d="M296.192 341.461333L94.72 139.946667a32 32 0 0 1 45.226667-45.226667l789.333333 789.333333a32 32 0 1 1-45.226667 45.226667L682.666667 727.893333l-147.285334 147.328a138.88 138.88 0 0 1-196.096 0.042667L148.906667 685.226667a138.666667 138.666667 0 0 1-0.170667-196.096l147.456-147.626667zM637.44 682.666667L341.461333 386.730667l-147.968 148.138666a74.666667 74.666667 0 0 0 0.64 105.045334l190.336 190.037333a74.88 74.88 0 0 0 105.685334 0L637.397333 682.666667z m215.466667-215.466667l-127.573334 127.530667 45.269334 45.226666 127.573333-127.573333A138.666667 138.666667 0 0 0 938.666667 414.421333V181.333333A96 96 0 0 0 842.666667 85.333333h-233.130667a138.666667 138.666667 0 0 0-98.133333 40.661334L384.085333 253.482667l45.226667 45.226666 127.36-127.488a74.666667 74.666667 0 0 1 52.864-21.888h233.173333a32 32 0 0 1 32 32v233.045334c0 19.797333-7.850667 38.826667-21.888 52.778666zM725.333333 234.709333a64 64 0 1 1 0 128 64 64 0 0 1 0-128z" /></svg>