<svg class="icon" style="width: 1em;height: 1em;vertical-align: middle;fill: currentColor;overflow: hidden;" viewBox="0 0 1024 1024" version="1.1" xmlns="http://www.w3.org/2000/svg"><path d="M842.666667 85.333333A96 96 0 0 1 938.666667 181.333333v233.045334a138.666667 138.666667 0 0 1-40.618667 98.048l-17.92 17.92a149.888 149.888 0 0 0-40.533333-49.92l13.226666-13.226667a74.666667 74.666667 0 0 0 21.845334-52.821333V181.333333a32 32 0 0 0-32-32h-233.216c-19.797333 0-38.826667 7.893333-52.821334 21.888l-363.178666 363.648a74.666667 74.666667 0 0 0 0.64 105.045334l190.336 190.037333a74.88 74.88 0 0 0 105.685333 0l21.888-21.888v85.930667a138.922667 138.922667 0 0 1-172.8-18.730667L148.906667 685.226667a138.666667 138.666667 0 0 1-0.213334-196.096l362.666667-363.093334a138.666667 138.666667 0 0 1 98.133333-40.661333h233.173334zM725.333333 234.752a64 64 0 1 1 0 128 64 64 0 0 1 0-128zM640 640h-21.333333a64 64 0 0 0-64 64v213.333333a64 64 0 0 0 64 64h256a64 64 0 0 0 64-64v-213.333333a64 64 0 0 0-64-64H853.333333v-42.666667a106.666667 106.666667 0 0 0-213.333333 0v42.666667z m64-42.666667a42.666667 42.666667 0 1 1 85.333333 0v42.666667h-85.333333v-42.666667z m85.333333 213.333334a42.666667 42.666667 0 1 1-85.333333 0 42.666667 42.666667 0 0 1 85.333333 0z" /></svg>