<svg class="icon" style="width: 1em;height: 1em;vertical-align: middle;fill: currentColor;overflow: hidden;" viewBox="0 0 1024 1024" version="1.1" xmlns="http://www.w3.org/2000/svg"><path d="M746.666667 277.333333a53.333333 53.333333 0 1 1-106.666667 0 53.333333 53.333333 0 0 1 106.666667 0z m-298.325334-153.685333A138.666667 138.666667 0 0 1 544 85.333333h234.624A117.333333 117.333333 0 0 1 896 202.666667v211.328a138.666667 138.666667 0 0 1-41.386667 98.816l-296.362666 291.626666a96 96 0 0 1-135.082667-0.426666l-266.922667-265.642667a96 96 0 0 1 1.450667-137.514667l290.645333-277.205333z m95.701334 25.685333c-19.2 0-37.674667 7.381333-51.541334 20.650667L201.813333 447.146667a32 32 0 0 0-0.469333 45.866666l266.965333 265.642667a32 32 0 0 0 45.013334 0.128l296.32-291.584a74.666667 74.666667 0 0 0 22.314666-53.205333V202.666667c0-29.44-23.893333-53.333333-53.333333-53.333334h-234.666667z m340.48 393.898667l-62.933334 61.909333c-1.706667 2.346667-3.626667 4.522667-5.717333 6.613334l-227.584 223.104a138.709333 138.709333 0 0 1-195.2-0.554667L310.698667 752.213333l-102.869334-101.802666a53.845333 53.845333 0 0 1-4.565333-5.12l-69.546667-69.162667a117.333333 117.333333 0 0 0 29.098667 119.765333l185.856 183.936a202.666667 202.666667 0 0 0 284.416 0.682667l227.584-223.104a117.333333 117.333333 0 0 0 29.44-120.021333 179.84 179.84 0 0 1-5.589333 5.802666z" /></svg>