<svg class="icon" style="width: 1em;height: 1em;vertical-align: middle;fill: currentColor;overflow: hidden;" viewBox="0 0 1024 1024" version="1.1" xmlns="http://www.w3.org/2000/svg"><path d="M842.666667 85.333333A96 96 0 0 1 938.666667 181.333333v233.045334a138.666667 138.666667 0 0 1-40.618667 98.048l-1.109333 1.109333a276.309333 276.309333 0 0 0-61.013334-29.525333l16.896-16.853334a74.666667 74.666667 0 0 0 21.845334-52.778666V181.333333a32 32 0 0 0-32-32h-233.173334c-19.84 0-38.826667 7.893333-52.864 21.888l-363.178666 363.648a74.666667 74.666667 0 0 0 0.64 105.045334l190.336 190.037333a74.88 74.88 0 0 0 99.413333 5.546667c7.04 20.778667 16.469333 40.405333 27.904 58.666666a138.922667 138.922667 0 0 1-172.501333-18.901333L148.864 685.226667a138.666667 138.666667 0 0 1-0.128-196.096l362.666667-363.093334A138.666667 138.666667 0 0 1 609.450667 85.333333h233.173333zM725.333333 234.752a64 64 0 1 1 0 128 64 64 0 0 1 0-128zM981.333333 746.666667a234.666667 234.666667 0 1 0-469.333333 0 234.666667 234.666667 0 0 0 469.333333 0z m-261.333333 128.213333a26.666667 26.666667 0 1 1 53.333333 0 26.666667 26.666667 0 0 1-53.333333 0z m-52.394667-194.048c-0.469333-48.512 34.346667-83.370667 79.061334-83.370667 43.989333 0 79.061333 36.096 79.061333 83.2 0 24.149333-7.893333 38.954667-28.288 61.738667l-11.306667 12.373333-4.309333 4.949334c-10.581333 12.458667-13.824 19.712-13.824 29.653333a21.333333 21.333333 0 1 1-42.666667 0c0-24.576 7.978667-39.509333 28.629334-62.634667l11.306666-12.373333 4.266667-4.821333c10.325333-12.202667 13.525333-19.328 13.525333-28.885334 0-23.808-16.213333-40.533333-36.394666-40.533333-21.077333 0-36.650667 15.616-36.394667 40.32a21.333333 21.333333 0 1 1-42.666667 0.426667z" /></svg>