<svg class="icon" style="width: 1em;height: 1em;vertical-align: middle;fill: currentColor;overflow: hidden;" viewBox="0 0 1024 1024" version="1.1" xmlns="http://www.w3.org/2000/svg"><path d="M501.333333 298.666667c57.557333 0 92.970667 41.386667 95.829334 99.370666l0.170666 7.68v90.24l94.72 17.194667a138.666667 138.666667 0 0 1 111.018667 164.565333l-1.877333 7.68-44.714667 167.381334a96 96 0 0 1-72.064 68.949333l-7.04 1.28-103.168 14.805333a96 96 0 0 1-97.28-47.914666l-3.413333-6.613334-1.237334-2.688a147.797333 147.797333 0 0 0-43.776-54.741333l-8.277333-5.888-80.341333-53.589333-4.010667-2.517334-4.181333-2.218666-100.821334-50.133334a32 32 0 0 1-17.706666-27.946666c-1.066667-47.317333 19.84-83.797333 60.544-104.106667 29.952-15.018667 69.76-14.165333 120.576 0.682667l11.093333 3.413333V405.632C405.333333 343.68 441.258667 298.666667 501.333333 298.666667z m0 64c-19.626667 0-30.378667 11.733333-31.829333 36.949333L469.333333 405.674667v223.786666a32 32 0 0 1-44.202666 29.568c-62.293333-25.685333-104.149333-31.701333-122.837334-22.357333-10.837333 5.418667-17.92 12.373333-21.76 22.144l-1.621333 5.12 81.28 40.405333 7.722667 4.138667 7.466666 4.650667 80.341334 53.589333a211.882667 211.882667 0 0 1 69.376 76.458667l5.205333 10.453333 1.28 2.645333a32 32 0 0 0 28.885333 18.517334l4.650667-0.341334 103.168-14.805333a32 32 0 0 0 24.789333-18.901333l1.578667-4.48 44.714667-167.424a74.666667 74.666667 0 0 0-52.864-91.392l-2.944-0.725334-123.946667-22.570666a32 32 0 0 1-25.941333-26.88l-0.341334-4.608V405.674667c0-29.44-10.88-43.008-32-43.008zM501.333333 85.333333a309.333333 309.333333 0 0 1 285.738667 428.117334 179.328 179.328 0 0 0-55.637333-33.493334 245.333333 245.333333 0 1 0-436.010667 48.213334 141.482667 141.482667 0 0 0-40.789333 13.098666c-6.826667 3.413333-13.312 7.253333-19.370667 11.349334A309.333333 309.333333 0 0 1 501.290667 85.333333z m0 106.752A202.624 202.624 0 0 1 689.706667 469.333333L640 460.330667V405.76l-0.170667-8.32 0.085334-2.688c0-29.056-8.96-56.021333-24.192-78.293333l-3.84-5.632C588.117333 277.162667 550.101333 256 501.418667 256c-50.176 0-89.002667 22.442667-112.64 57.728a138.112 138.112 0 0 0-26.026667 80.981333l0.042667 4.693334-0.085334 6.272v123.306666l-11.178666-1.536a42.666667 42.666667 0 0 1-26.325334-13.653333c-17.664-19.541333-26.453333-59.221333-26.453333-119.082667a202.624 202.624 0 0 1 202.581333-202.666666z" /></svg>