<svg class="icon" style="width: 1em;height: 1em;vertical-align: middle;fill: currentColor;overflow: hidden;" viewBox="0 0 1024 1024" version="1.1" xmlns="http://www.w3.org/2000/svg"><path d="M501.333333 256c57.557333 0 92.970667 41.344 95.829334 99.370667l0.170666 7.68v90.24l94.72 17.194666a138.752 138.752 0 0 1 110.976 164.565334l-1.834666 7.68-44.714667 167.338666a96 96 0 0 1-72.064 68.992l-7.04 1.28-103.168 14.805334a96 96 0 0 1-97.28-47.957334l-3.413333-6.570666-1.237334-2.688a147.84 147.84 0 0 0-43.776-54.741334l-8.277333-5.930666-80.341333-53.546667-4.010667-2.517333-4.181333-2.218667-100.778667-50.176a32 32 0 0 1-17.749333-27.946667c-1.066667-47.274667 19.84-83.754667 60.544-104.106666 29.952-14.976 69.76-14.122667 120.576 0.725333l11.093333 3.370667V363.008C405.333333 301.013333 441.258667 256 501.333333 256z m0 64c-19.626667 0-30.378667 11.733333-31.829333 36.949333L469.333333 363.008v223.744a32 32 0 0 1-44.202666 29.610667c-62.293333-25.728-104.149333-31.701333-122.794667-22.357334-10.837333 5.418667-17.92 12.373333-21.76 22.101334l-1.664 5.12 81.322667 40.448 7.68 4.138666 7.466666 4.608 80.341334 53.589334a211.882667 211.882667 0 0 1 69.376 76.501333l5.205333 10.410667 1.28 2.688a32 32 0 0 0 28.885333 18.517333l4.650667-0.341333 103.168-14.805334a32 32 0 0 0 24.832-18.944l1.536-4.48 44.714667-167.381333a74.666667 74.666667 0 0 0-52.864-91.392l-2.944-0.725333-123.946667-22.613334a32 32 0 0 1-25.941333-26.88l-0.341334-4.565333V363.008c0-29.44-10.88-43.008-32-43.008z m-0.042666-213.333333a245.333333 245.333333 0 0 1 230.101333 330.624l-6.144-2.261334a239.104 239.104 0 0 0-25.898667-7.466666 212.736 212.736 0 0 0-31.018666-4.778667A181.333333 181.333333 0 1 0 362.666667 468.906667a241.493333 241.493333 0 0 0-35.157334 5.248c-14.976 3.626667-25.088 7.253333-32.128 11.221333A245.333333 245.333333 0 0 1 501.333333 106.666667z" /></svg>