<svg class="icon" style="width: 1em;height: 1em;vertical-align: middle;fill: currentColor;overflow: hidden;" viewBox="0 0 1024 1024" version="1.1" xmlns="http://www.w3.org/2000/svg"><path d="M511.914667 597.333333a85.333333 85.333333 0 1 0 0-170.666666 85.333333 85.333333 0 0 0 0 170.666666zM255.914667 512a256 256 0 1 1 512 0 256 256 0 0 1-512 0z m256-192a192 192 0 1 0 0 384 192 192 0 0 0 0-384zM85.162667 512c0-235.690667 191.061333-426.752 426.752-426.752C747.605333 85.248 938.666667 276.309333 938.666667 512c0 235.690667-191.061333 426.752-426.752 426.752-235.690667 0-426.752-191.061333-426.752-426.752z m426.752-362.752a362.752 362.752 0 1 0 0 725.504 362.752 362.752 0 0 0 0-725.504z" /></svg>