<svg class="icon" style="width: 1em;height: 1em;vertical-align: middle;fill: currentColor;overflow: hidden;" viewBox="0 0 1024 1024" version="1.1" xmlns="http://www.w3.org/2000/svg"><path d="M512 597.333333a85.333333 85.333333 0 1 0 0-170.666666 85.333333 85.333333 0 0 0 0 170.666666zM256 512a255.957333 255.957333 0 1 1 511.402667 15.701333l-113.493334 113.493334a191.957333 191.957333 0 1 0-12.842666 12.842666l-108.16 108.16c-1.706667 1.706667-3.413333 3.498667-5.034667 5.290667A255.957333 255.957333 0 0 1 256.042667 512z m255.914667-362.666667a362.709333 362.709333 0 0 1 360.234666 320.512 140.501333 140.501333 0 0 1 65.237334 10.112C921.045333 259.285333 736.810667 85.333333 511.957333 85.333333 276.352 85.333333 85.333333 276.352 85.333333 512c0 221.269333 168.405333 403.2 384 424.576-0.085333-7.552 0.768-15.36 2.773334-23.253333l9.941333-39.850667A362.709333 362.709333 0 0 1 512 149.333333z m302.933333 391.253334l-251.733333 251.733333a114.56 114.56 0 0 0-30.165334 53.248l-19.498666 78.08a46.378667 46.378667 0 0 0 56.192 56.277333l78.08-19.541333a114.517333 114.517333 0 0 0 53.248-30.122667l251.733333-251.818666a97.493333 97.493333 0 0 0-137.813333-137.856z" /></svg>