<svg class="icon" style="width: 1em;height: 1em;vertical-align: middle;fill: currentColor;overflow: hidden;" viewBox="0 0 1024 1024" version="1.1" xmlns="http://www.w3.org/2000/svg"><path d="M511.914667 85.248c51.370667 0 100.608 9.088 146.218666 25.685333L607.146667 161.877333a362.752 362.752 0 1 0 254.890666 254.976l50.944-50.944A425.984 425.984 0 0 1 938.666667 512c0 235.690667-191.061333 426.752-426.752 426.752-235.690667 0-426.752-191.061333-426.752-426.752 0-235.690667 191.061333-426.752 426.752-426.752z m0 170.752a256.426667 256.426667 0 0 1 64.085333 8.106667v66.858666a192 192 0 1 0 116.992 117.034667h66.858667A256 256 0 1 1 512 256z m85.333333 256a85.333333 85.333333 0 1 1-51.925333-78.549333l73.386666-73.386667L618.666667 224a32 32 0 0 1 9.386666-22.613333l106.666667-106.666667a32 32 0 0 1 54.613333 22.613333V234.666667h117.333334a32 32 0 0 1 22.613333 54.613333l-106.666667 106.666667a32 32 0 0 1-22.613333 9.386666h-136.106667l-73.386666 73.386667c4.352 10.24 6.741333 21.461333 6.741333 33.28z m189.482667-170.666667l42.666666-42.666666h-72.106666a32 32 0 0 1-32-32V194.56l-42.624 42.666667v101.589333A29.952 29.952 0 0 1 685.226667 341.333333h101.546666z" /></svg>