<svg class="icon" style="width: 1em;height: 1em;vertical-align: middle;fill: currentColor;overflow: hidden;" viewBox="0 0 1024 1024" version="1.1" xmlns="http://www.w3.org/2000/svg"><path d="M289.28 203.946667a32 32 0 0 0-45.226667-45.226667L160 242.773333l-20.053333-20.053333a32 32 0 0 0-45.226667 45.226667l42.666667 42.666666a32 32 0 0 0 45.226666 0l106.666667-106.666666z m617.386667 564.352H416l-4.352 0.298666a32 32 0 0 0 4.352 63.701334h490.666667l4.352-0.298667a32 32 0 0 0-4.352-63.701333z m0-277.632H416l-4.352 0.298666A32 32 0 0 0 416 554.666667h490.666667l4.352-0.298667a32 32 0 0 0-4.352-63.701333z m0-277.333334H416l-4.352 0.298667A32 32 0 0 0 416 277.333333h490.666667l4.352-0.298666A32 32 0 0 0 906.666667 213.333333zM289.28 758.613333a32 32 0 1 0-45.226667-45.226666l-84.053333 84.053333-20.053333-20.053333a32 32 0 0 0-45.226667 45.226666l42.666667 42.666667a32 32 0 0 0 45.226666 0l106.666667-106.666667z m0-322.56a32 32 0 0 1 0 45.226667l-106.666667 106.666667a32 32 0 0 1-45.226666 0l-42.666667-42.666667a32 32 0 1 1 45.226667-45.226667l20.053333 20.053334 84.053333-84.053334a32 32 0 0 1 45.226667 0z" /></svg>