<svg class="icon" style="width: 1em;height: 1em;vertical-align: middle;fill: currentColor;overflow: hidden;" viewBox="0 0 1024 1024" version="1.1" xmlns="http://www.w3.org/2000/svg"><path d="M289.28 161.28a32 32 0 0 0-45.226667-45.226667L160 200.106667l-20.053333-20.053334a32 32 0 0 0-45.226667 45.226667l42.666667 42.666667a32 32 0 0 0 45.226666 0l106.666667-106.666667zM469.333333 746.666667c0 14.592 1.152 28.970667 3.328 42.965333H416a32 32 0 0 1-4.352-63.701333l4.352-0.298667h54.101333A281.6 281.6 0 0 0 469.333333 746.666667z m277.333334-277.333334a276.053333 276.053333 0 0 1 147.882666 42.666667h12.117334l4.352-0.298667a32 32 0 0 0-4.352-63.701333H416l-4.352 0.298667A32 32 0 0 0 416 512h182.784a276.053333 276.053333 0 0 1 147.882667-42.666667z m160-298.666666H416l-4.352 0.298666A32 32 0 0 0 416 234.666667h490.666667l4.352-0.298667A32 32 0 0 0 906.666667 170.666667zM289.28 715.946667a32 32 0 1 0-45.226667-45.226667l-84.053333 84.053333-20.053333-20.053333a32 32 0 0 0-45.226667 45.226667l42.666667 42.666666a32 32 0 0 0 45.226666 0l106.666667-106.666666z m0-322.56a32 32 0 0 1 0 45.226666l-106.666667 106.666667a32 32 0 0 1-45.226666 0l-42.666667-42.666667a32 32 0 1 1 45.226667-45.226666l20.053333 20.053333 84.053333-84.053333a32 32 0 0 1 45.226667 0zM981.333333 746.666667a234.666667 234.666667 0 1 0-469.333333 0 234.666667 234.666667 0 0 0 469.333333 0z m-213.333333 21.333333l0.042667 106.794667a21.333333 21.333333 0 1 1-42.666667 0V768h-106.88a21.333333 21.333333 0 0 1 0-42.666667H725.333333v-106.666666a21.333333 21.333333 0 1 1 42.666667 0V725.333333h106.538667a21.333333 21.333333 0 0 1 0 42.666667H768z" /></svg>