<svg class="icon" style="width: 1em;height: 1em;vertical-align: middle;fill: currentColor;overflow: hidden;" viewBox="0 0 1024 1024" version="1.1" xmlns="http://www.w3.org/2000/svg"><path d="M277.333333 629.333333a32 32 0 0 1 32-32h149.333334a32 32 0 0 1 0 64h-149.333334a32 32 0 0 1-32-32z m32-266.666666a32 32 0 0 0 0 64h149.333334a32 32 0 0 0 0-64h-149.333334z m449.28-33.28a32 32 0 0 1 0 45.226666l-85.333333 85.333334a32 32 0 0 1-45.226667 0l-42.666666-42.666667a32 32 0 0 1 45.226666-45.226667l20.053334 20.053334 62.72-62.72a32 32 0 0 1 45.226666 0z m0 279.893333a32 32 0 1 0-45.226666-45.226667l-62.72 62.72-20.053334-20.053333a32 32 0 1 0-45.226666 45.226667l42.666666 42.666666a32 32 0 0 0 45.226667 0l85.333333-85.333333zM224 128A96 96 0 0 0 128 224v576A96 96 0 0 0 224 896h576A96 96 0 0 0 896 800V224A96 96 0 0 0 800 128H224zM192 224a32 32 0 0 1 32-32h576a32 32 0 0 1 32 32v576a32 32 0 0 1-32 32H224a32 32 0 0 1-32-32V224z" /></svg>