<svg class="icon" style="width: 1em;height: 1em;vertical-align: middle;fill: currentColor;overflow: hidden;" viewBox="0 0 1024 1024" version="1.1" xmlns="http://www.w3.org/2000/svg"><path d="M128 224A96 96 0 0 1 224 128h576A96 96 0 0 1 896 224v288.938667a276.096 276.096 0 0 0-64-30.250667V224a32 32 0 0 0-32-32H224a32 32 0 0 0-32 32v576c0 17.664 14.336 32 32 32h258.688c7.381333 22.784 17.578667 44.245333 30.250667 64H224A96 96 0 0 1 128 800V224z m331.946667 105.386667a32 32 0 0 1 0 45.226666l-85.333334 85.333334a32 32 0 0 1-45.226666 0l-42.666667-42.666667a32 32 0 0 1 45.226667-45.226667l20.053333 20.053334 62.72-62.72a32 32 0 0 1 45.226667 0z m0 234.666666a32 32 0 0 1 0 45.226667l-85.333334 85.333333a32 32 0 0 1-45.226666 0l-42.666667-42.666666a32 32 0 1 1 45.226667-45.226667l20.053333 20.053333 62.72-62.72a32 32 0 0 1 45.226667 0zM746.666667 512a234.666667 234.666667 0 1 1 0 469.333333 234.666667 234.666667 0 0 1 0-469.333333z m21.376 362.794667V768h106.752a21.333333 21.333333 0 1 0 0-42.666667H768v-106.666666a21.333333 21.333333 0 1 0-42.666667 0V725.333333h-106.837333a21.333333 21.333333 0 0 0 0 42.666667h106.88v106.794667a21.333333 21.333333 0 1 0 42.666667 0zM565.333333 362.666667a32 32 0 0 0 0 64h149.333334a32 32 0 0 0 0-64h-149.333334z" /></svg>