<svg class="icon" style="width: 1em;height: 1em;vertical-align: middle;fill: currentColor;overflow: hidden;" viewBox="0 0 1024 1024" version="1.1" xmlns="http://www.w3.org/2000/svg"><path d="M565.333333 362.666667a32 32 0 0 0 0 64h149.333334a32 32 0 0 0 0-64h-149.333334z m-32 266.666666a32 32 0 0 1 32-32h149.333334a32 32 0 1 1 0 64h-149.333334a32 32 0 0 1-32-32z m-73.386666-299.946666a32 32 0 0 1 0 45.226666l-85.333334 85.333334a32 32 0 0 1-45.226666 0l-42.666667-42.666667a32 32 0 0 1 45.226667-45.226667l20.053333 20.053334 62.72-62.72a32 32 0 0 1 45.226667 0z m0 279.893333a32 32 0 1 0-45.226667-45.226667l-62.72 62.72-20.053333-20.053333a32 32 0 0 0-45.226667 45.226667l42.666667 42.666666a32 32 0 0 0 45.226666 0l85.333334-85.333333zM224 128A96 96 0 0 0 128 224v576A96 96 0 0 0 224 896h576A96 96 0 0 0 896 800V224A96 96 0 0 0 800 128H224zM192 224a32 32 0 0 1 32-32h576a32 32 0 0 1 32 32v576a32 32 0 0 1-32 32H224a32 32 0 0 1-32-32V224z" /></svg>