<svg class="icon" style="width: 1em;height: 1em;vertical-align: middle;fill: currentColor;overflow: hidden;" viewBox="0 0 1024 1024" version="1.1" xmlns="http://www.w3.org/2000/svg"><path d="M853.12 174.805333A96 96 0 0 0 757.333333 85.333333H266.666667l-6.570667 0.213334A96 96 0 0 0 170.666667 181.376v661.248l0.213333 6.570667A96 96 0 0 0 266.666667 938.666667h322.901333l-64-64H266.666667l-4.352-0.298667a32 32 0 0 1-27.648-31.701333V181.376l0.298666-4.352a32 32 0 0 1 31.701334-27.648h490.666666l4.352 0.298667a32 32 0 0 1 27.648 31.701333v493.525333l49.450667-49.450666c4.522667-4.522667 9.386667-8.533333 14.506667-11.946667V181.333333l-0.170667-6.570666zM694.954667 938.624a29.525333 29.525333 0 0 1-3.242667 0 32 32 0 0 1-21.034667-9.344l-106.666666-106.752a32 32 0 0 1 45.312-45.226667l84.010666 84.096 190.72-190.72a32 32 0 1 1 45.226667 45.269334l-213.333333 213.333333a32 32 0 0 1-20.992 9.344zM590.549333 704a98.816 98.816 0 0 0-7.765333 0h-102.954667a32 32 0 0 1 0-64h213.504a32 32 0 1 1 0 64H590.506667zM384 330.752a42.666667 42.666667 0 1 1-85.333333 0 42.666667 42.666667 0 0 1 85.333333 0zM447.829333 330.666667a32 32 0 0 1 32-32h213.504a32 32 0 1 1 0 64h-213.504a32 32 0 0 1-32-32zM479.829333 469.333333a32 32 0 0 0 0 64h213.504a32 32 0 1 0 0-64h-213.504zM341.333333 544a42.666667 42.666667 0 1 0 0-85.333333 42.666667 42.666667 0 0 0 0 85.333333zM384 671.914667a42.666667 42.666667 0 1 1-85.333333 0 42.666667 42.666667 0 0 1 85.333333 0z" /></svg>