<svg class="icon" style="width: 1em;height: 1em;vertical-align: middle;fill: currentColor;overflow: hidden;" viewBox="0 0 1024 1024" version="1.1" xmlns="http://www.w3.org/2000/svg"><path d="M746.666667 165.333333a176 176 0 0 1 115.072 309.162667c11.861333 31.957333 18.261333 66.048 18.261333 101.504 0 101.973333-53.034667 192.810667-135.68 252.330667-12.074667 8.704-24.746667 16.682667-37.973333 23.978666l-1.578667 0.853334A402.730667 402.730667 0 0 1 512 901.333333a402.773333 402.773333 0 0 1-192.768-48.170666 373.162667 373.162667 0 0 1-37.632-23.466667l-1.92-1.365333c-82.645333-59.52-135.68-150.357333-135.68-252.330667 0-35.413333 6.4-69.546667 18.261333-101.504a176 176 0 1 1 270.293334-216.234667A416 416 0 0 1 512 250.666667c27.306667 0 53.845333 2.602667 79.445333 7.594666A175.957333 175.957333 0 0 1 746.666667 165.333333z m-169.685334 534.272c-4.693333 8.704-12.8 15.957333-22.741333 21.205334-11.776 6.229333-26.453333 9.856-42.24 9.856s-30.464-3.626667-42.24-9.813334a53.802667 53.802667 0 0 1-22.698667-21.248 187.306667 187.306667 0 0 0-107.648 103.808A348.586667 348.586667 0 0 0 512 848c64 0 123.178667-16.469333 172.586667-44.586667a186.752 186.752 0 0 0-107.648-103.808zM512 304c-175.616 0-314.666667 123.733333-314.666667 272 0 76.757333 37.12 146.773333 97.365334 196.608a240.042667 240.042667 0 0 1 434.602666 0c60.245333-49.834667 97.365333-119.893333 97.365334-196.608 0-148.266667-139.093333-272-314.666667-272z m-234.666667-85.333333a122.666667 122.666667 0 0 0-90.752 205.226666c41.301333-68.864 109.653333-122.965333 192.384-151.338666A122.709333 122.709333 0 0 0 277.333333 218.666667z m469.333334 0c-41.6 0-79.274667 20.906667-101.632 53.888 82.773333 28.373333 151.082667 82.474667 192.384 151.338666a122.666667 122.666667 0 0 0-90.752-205.226666z" /></svg>