<svg class="icon" style="width: 1em;height: 1em;vertical-align: middle;fill: currentColor;overflow: hidden;" viewBox="0 0 1024 1024" version="1.1" xmlns="http://www.w3.org/2000/svg"><path d="M512 85.333333a138.666667 138.666667 0 0 1 138.453333 130.773334l0.213334 7.893333 0.042666 339.285333 3.413334 2.944a212.906667 212.906667 0 0 1 70.144 137.514667l0.810666 10.752L725.333333 725.333333a213.333333 213.333333 0 1 1-363.093333-151.893333l7.68-7.253333 3.370667-2.901334 0.042666-339.285333a138.666667 138.666667 0 0 1 123.050667-137.813333l7.765333-0.64L512 85.333333z m0 64a74.666667 74.666667 0 0 0-74.410667 68.565334l-0.256 6.101333v370.944l-13.184 9.6a149.333333 149.333333 0 1 0 182.741334 5.461333l-7.04-5.418666-13.098667-9.6-0.085333-370.986667A74.666667 74.666667 0 0 0 512 149.333333zM512 341.333333a32 32 0 0 1 32 32v250.24a106.709333 106.709333 0 1 1-64 0V373.333333A32 32 0 0 1 512 341.333333z" /></svg>