<svg class="icon" style="width: 1em;height: 1em;vertical-align: middle;fill: currentColor;overflow: hidden;" viewBox="0 0 1024 1024" version="1.1" xmlns="http://www.w3.org/2000/svg"><path d="M478.72 94.72a32 32 0 0 1 44.458667-0.768l74.922666 69.930667a888.149333 888.149333 0 0 0 180.693334 130.389333c18.432 10.069333 31.018667 28.202667 34.005333 48.981333L870.4 746.666667h36.266667a32 32 0 0 1 0 64H117.333333a32 32 0 0 1 0-64h36.266667l57.813333-404.906667c2.773333-19.413333 14.165333-36.565333 30.976-46.634667a850.517333 850.517333 0 0 0 163.84-127.914666l72.490667-72.533334zM218.24 746.666667h90.922667a994.688 994.688 0 0 0 149.717333-305.493334l22.4-76.8a32 32 0 0 1 61.44 0l22.4 76.8a994.730667 994.730667 0 0 0 149.717333 305.493334h90.922667l-56.32-394.368a2.517333 2.517333 0 0 0-1.28-1.834667 952.021333 952.021333 0 0 1-193.706667-139.776l-52.352-48.853333-50.645333 50.645333a914.474667 914.474667 0 0 1-176.170667 137.514667 1.109333 1.109333 0 0 0-0.512 0.810666L218.24 746.666667z m418.730667 0A1058.688 1058.688 0 0 1 512 486.272 1058.688 1058.688 0 0 1 386.986667 746.666667h250.026666z" /></svg>