<svg class="icon" style="width: 1em;height: 1em;vertical-align: middle;fill: currentColor;overflow: hidden;" viewBox="0 0 1024 1024" version="1.1" xmlns="http://www.w3.org/2000/svg"><path d="M373.333333 85.333333A74.666667 74.666667 0 0 0 298.666667 160v128a10.666667 10.666667 0 0 1-10.666667 10.666667h-128A74.666667 74.666667 0 0 0 85.333333 373.333333v128c0 41.216 33.450667 74.666667 74.666667 74.666667h341.333333a74.666667 74.666667 0 0 0 74.666667-74.666667v-128a10.666667 10.666667 0 0 1 10.666667-10.666666h106.666666A74.666667 74.666667 0 0 0 768 288v-128A74.666667 74.666667 0 0 0 693.333333 85.333333h-320z m320 213.333334H576V149.333333h117.333333a10.666667 10.666667 0 0 1 10.666667 10.666667v128a10.666667 10.666667 0 0 1-10.666667 10.666667zM512 298.666667H361.941333c0.469333-3.498667 0.725333-7.04 0.725334-10.666667v-128a10.666667 10.666667 0 0 1 10.666666-10.666667H512V298.666667zM298.666667 362.666667V512H160a10.666667 10.666667 0 0 1-10.666667-10.666667v-128a10.666667 10.666667 0 0 1 10.666667-10.666666H298.666667z m64 0h150.101333a75.178667 75.178667 0 0 0-0.768 10.666666v128a10.666667 10.666667 0 0 1-10.666667 10.666667H362.666667V362.666667z m373.333333 85.333333a74.666667 74.666667 0 0 0-74.666667 74.666667v128a10.666667 10.666667 0 0 1-10.666666 10.666666h-362.666667A74.666667 74.666667 0 0 0 213.333333 736v128c0 41.216 33.408 74.666667 74.666667 74.666667h576A74.666667 74.666667 0 0 0 938.666667 864v-341.333333a74.666667 74.666667 0 0 0-74.666667-74.666667h-128zM725.333333 522.666667a10.666667 10.666667 0 0 1 10.666667-10.666667h128a10.666667 10.666667 0 0 1 10.666667 10.666667v138.666666h-150.101334c0.512-3.498667 0.768-7.04 0.768-10.666666v-128zM725.333333 725.333333h149.333334v138.666667a10.666667 10.666667 0 0 1-10.666667 10.666667H725.333333V725.333333z m-64-0.768V874.666667h-170.666666V725.333333h160c3.626667 0 7.168-0.256 10.666666-0.768zM426.666667 725.333333v149.333334H288a10.666667 10.666667 0 0 1-10.666667-10.666667v-128a10.666667 10.666667 0 0 1 10.666667-10.666667H426.666667z" /></svg>