<svg class="icon" style="width: 1em;height: 1em;vertical-align: middle;fill: currentColor;overflow: hidden;" viewBox="0 0 1024 1024" version="1.1" xmlns="http://www.w3.org/2000/svg"><path d="M746.666667 512a234.666667 234.666667 0 1 1 0 469.333333 234.666667 234.666667 0 0 1 0-469.333333z m-105.642667 129.024a21.333333 21.333333 0 0 0 0 30.165333l75.477333 75.52-75.392 75.349334a21.333333 21.333333 0 1 0 30.165334 30.208l75.392-75.392 75.52 75.477333a21.333333 21.333333 0 1 0 30.165333-30.165333L776.874667 746.666667l75.562666-75.52a21.333333 21.333333 0 0 0-30.165333-30.165334l-75.562667 75.52-75.52-75.52a21.333333 21.333333 0 0 0-30.165333 0zM470.144 725.333333H117.333333l-4.352 0.298667A32 32 0 0 0 117.333333 789.333333h355.242667a279.637333 279.637333 0 0 1-2.432-64zM500.565333 618.666667H117.333333a32 32 0 0 1-4.352-63.701334L117.333333 554.666667h429.226667c-18.218667 18.944-33.706667 40.490667-45.994667 64zM906.666667 384H117.333333l-4.352 0.298667A32 32 0 0 0 117.333333 448h789.333334l4.352-0.298667A32 32 0 0 0 906.666667 384zM906.666667 213.333333H117.333333l-4.352 0.298667A32 32 0 0 0 117.333333 277.333333h789.333334l4.352-0.298666A32 32 0 0 0 906.666667 213.333333z" /></svg>