<svg class="icon" style="width: 1em;height: 1em;vertical-align: middle;fill: currentColor;overflow: hidden;" viewBox="0 0 1024 1024" version="1.1" xmlns="http://www.w3.org/2000/svg"><path d="M224 128A96 96 0 0 0 128 224v575.957333a96 96 0 0 0 96 96h252.330667l15.189333-60.757333 0.853333-3.242667H224a32 32 0 0 1-32-32v-576a32 32 0 0 1 32-32h575.957333a32 32 0 0 1 32 32v255.274667c20.394667-8.106667 42.368-11.264 64-9.386667V224A96 96 0 0 0 799.914667 128h-576z m431.104 511.957333h-175.146667a32 32 0 1 0 0 64h111.146667l64-64z m-281.813333-288a42.666667 42.666667 0 1 1-85.333334 0 42.666667 42.666667 0 0 1 85.333334 0z m106.666666-32a32 32 0 1 0 0 64h234.666667a32 32 0 1 0 0-64h-234.666667z m0 160a32 32 0 1 0 0 64h234.666667a32 32 0 1 0 0-64h-234.666667zM330.666667 554.666667a42.666667 42.666667 0 1 0 0-85.333334 42.666667 42.666667 0 0 0 0 85.333334z m42.666666 117.333333a42.666667 42.666667 0 1 1-85.333333 0 42.666667 42.666667 0 0 1 85.333333 0z m441.6-131.413333l-251.818666 251.776a114.56 114.56 0 0 0-30.165334 53.248l-19.498666 78.08c-8.533333 34.005333 22.272 64.768 56.234666 56.277333l78.08-19.541333a114.56 114.56 0 0 0 53.248-30.122667L952.746667 678.4a97.536 97.536 0 0 0-137.941334-137.898667z" /></svg>