<svg class="icon" style="width: 1em;height: 1em;vertical-align: middle;fill: currentColor;overflow: hidden;" viewBox="0 0 1024 1024" version="1.1" xmlns="http://www.w3.org/2000/svg"><path d="M128 245.333333A32 32 0 0 1 160 213.333333h149.333333a32 32 0 0 1 0 64h-149.333333A32 32 0 0 1 128 245.333333zM405.333333 245.333333a32 32 0 0 1 32-32h149.333334a32 32 0 0 1 0 64h-149.333334a32 32 0 0 1-32-32zM682.666667 245.333333a32 32 0 0 1 32-32h149.333333a32 32 0 0 1 0 64h-149.333333a32 32 0 0 1-32-32zM128 416A32 32 0 0 1 160 384h149.333333a32 32 0 0 1 0 64h-149.333333A32 32 0 0 1 128 416zM405.333333 416a32 32 0 0 1 32-32h149.333334a32 32 0 0 1 0 64h-149.333334a32 32 0 0 1-32-32zM682.666667 416a32 32 0 0 1 32-32h149.333333a32 32 0 0 1 0 64h-149.333333a32 32 0 0 1-32-32zM128 586.666667a32 32 0 0 1 32-32h149.333333a32 32 0 0 1 0 64h-149.333333a32 32 0 0 1-32-32zM405.333333 586.666667a32 32 0 0 1 32-32h149.333334a32 32 0 0 1 0 64h-149.333334a32 32 0 0 1-32-32zM682.666667 586.666667a32 32 0 0 1 32-32h149.333333a32 32 0 0 1 0 64h-149.333333a32 32 0 0 1-32-32zM128 757.333333a32 32 0 0 1 32-32h149.333333a32 32 0 0 1 0 64h-149.333333a32 32 0 0 1-32-32zM405.333333 757.333333a32 32 0 0 1 32-32h149.333334a32 32 0 0 1 0 64h-149.333334a32 32 0 0 1-32-32zM682.666667 757.333333a32 32 0 0 1 32-32h149.333333a32 32 0 0 1 0 64h-149.333333a32 32 0 0 1-32-32z" /></svg>