<svg class="icon" style="width: 1em;height: 1em;vertical-align: middle;fill: currentColor;overflow: hidden;" viewBox="0 0 1024 1024" version="1.1" xmlns="http://www.w3.org/2000/svg"><path d="M85.333333 245.333333A32 32 0 0 1 117.333333 213.333333h789.333334a32 32 0 0 1 0 64H117.333333A32 32 0 0 1 85.333333 245.333333z m139.946667 617.386667l-30.72-30.72h634.88l-30.72 30.72a32 32 0 1 0 45.226667 45.226667l85.333333-85.333334a32 32 0 0 0 0-45.226666l-85.333333-85.333334a32 32 0 1 0-45.226667 45.226667l30.72 30.72H194.56l30.72-30.72a32 32 0 1 0-45.226667-45.226667l-85.333333 85.333334a32 32 0 0 0 0 45.226666l85.333333 85.333334a32 32 0 0 0 45.226667-45.226667zM117.333333 490.666667a32 32 0 0 0 0 64h789.333334a32 32 0 0 0 0-64H117.333333z" /></svg>