<svg class="icon" style="width: 1em;height: 1em;vertical-align: middle;fill: currentColor;overflow: hidden;" viewBox="0 0 1024 1024" version="1.1" xmlns="http://www.w3.org/2000/svg"><path d="M875.861333 139.605333c26.282667 12.885333 46.933333 37.205333 60.928 76.117334a32 32 0 1 1-60.202666 21.674666c-9.984-27.648-21.248-36.608-28.928-40.362666C838.4 192.469333 827.733333 192 810.666667 192c-16.128 0-26.581333 5.12-34.218667 11.946667-8.32 7.381333-14.933333 18.261333-19.797333 31.274666a165.12 165.12 0 0 0-8.704 36.736 175.232 175.232 0 0 0-1.28 15.402667v0.682667c0 22.357333 0.341333 51.072 9.813333 75.178666 4.48 11.52 10.666667 20.778667 19.029333 27.648 8.192 6.741333 20.181333 12.586667 38.698667 14.677334 15.018667 1.664 48.170667-0.938667 63.317333-34.432a32 32 0 1 1 58.282667 26.453333c-32.853333 72.490667-104.917333 74.24-128.682667 71.594667-29.44-3.285333-53.461333-13.354667-72.277333-28.885334a129.834667 129.834667 0 0 1-37.973333-53.674666C682.666667 350.293333 682.666667 310.613333 682.666667 289.28V287.274667l0.042666-1.493334a239.274667 239.274667 0 0 1 1.706667-21.76c1.706667-13.525333 5.12-32.170667 12.288-51.242666 7.125333-18.986667 18.517333-40.106667 37.205333-56.704 19.328-17.194667 44.885333-28.074667 76.8-28.074667h1.621334c15.36 0 39.808-0.042667 63.530666 11.605333zM225.152 128a32 32 0 0 1 29.696 21.333333L353.28 426.666667a32 32 0 0 1-60.330667 21.333333l-14.421333-40.618667H163.242667l-16.042667 41.514667a32 32 0 0 1-59.733333-23.125333l107.392-277.333334A32 32 0 0 1 225.152 128z m-1.749333 124.032l-35.413334 91.349333h67.84l-32.426666-91.349333zM395.946667 692.053333l81.92 81.877334 190.890666-229.12a32 32 0 1 1 49.152 41.002666l-213.333333 256a32 32 0 0 1-47.189333 2.133334l-106.666667-106.666667a32 32 0 1 1 45.226667-45.226667zM621.866667 229.333333c0 24.490667-6.229333 44.117333-16.341334 59.264 7.466667 5.888 14.421333 13.312 20.138667 22.698667 9.557333 15.658667 14.336 34.688 14.336 56.746667 0 21.077333-5.034667 39.381333-14.549333 54.528a91.733333 91.733333 0 0 1-34.773334 32.042666c-24.362667 13.098667-50.602667 14.72-62.677333 14.72H416a32 32 0 0 1-32-32v-277.333333A32 32 0 0 1 416 128h103.808c9.173333 0 33.962667-0.042667 56.832 12.714667 12.544 6.997333 24.362667 17.706667 32.810667 33.322666 8.32 15.402667 12.416 33.92 12.416 55.296zM518.954667 192H448v74.666667h70.954667c6.4 0 17.28-1.28 25.514666-6.272a23.978667 23.978667 0 0 0 8.832-9.045334c2.261333-4.010667 4.565333-10.752 4.565334-22.016 0-13.226667-2.56-20.778667-4.736-24.874666a18.688 18.688 0 0 0-7.68-7.850667c-7.381333-4.138667-17.194667-4.608-26.496-4.608z m9.045333 213.333333c7.978667 0 21.717333-1.365333 32.341333-7.082666a27.904 27.904 0 0 0 10.88-9.685334c2.346667-3.754667 4.778667-9.984 4.778667-20.565333 0-12.629333-2.688-19.626667-4.992-23.466667a22.357333 22.357333 0 0 0-9.685333-8.533333c-9.984-4.906667-22.784-5.333333-33.28-5.333333H448V405.333333h80z" /></svg>