<svg class="icon" style="width: 1em;height: 1em;vertical-align: middle;fill: currentColor;overflow: hidden;" viewBox="0 0 1024 1024" version="1.1" xmlns="http://www.w3.org/2000/svg"><path d="M266.666667 341.333333a32 32 0 0 1 0-64h384a32 32 0 0 1 0 64h-384z m641.28 289.28a32 32 0 0 1-41.642667 3.114667l-3.584-3.114667-85.333333-85.333333a32 32 0 0 1-3.114667-41.642667l3.114667-3.584 85.333333-85.333333a32 32 0 0 1 48.341333 41.642667l-3.114666 3.584-62.72 62.72 62.72 62.72a32 32 0 0 1 0 45.226666zM138.666667 554.666667a32 32 0 0 1 0-64h512a32 32 0 0 1 0 64h-512z m128 213.333333a32 32 0 0 1 0-64h384a32 32 0 0 1 0 64h-384z" /></svg>