<svg class="icon" style="width: 1em;height: 1em;vertical-align: middle;fill: currentColor;overflow: hidden;" viewBox="0 0 1024 1024" version="1.1" xmlns="http://www.w3.org/2000/svg"><path d="M160 213.333333a32 32 0 0 0 0 64h704a32 32 0 0 0 0-64H160z m0 170.666667a32 32 0 0 0 0 64h704a32 32 0 0 0 0-64H160zM128 586.666667a32 32 0 0 1 32-32h386.56c-18.218667 18.944-33.706667 40.490667-45.994667 64H160a32 32 0 0 1-32-32z m341.333333 160c0-7.168 0.256-14.293333 0.810667-21.333334H160a32 32 0 0 0 0 64h312.576a279.637333 279.637333 0 0 1-3.242667-42.666666z m512 0a234.666667 234.666667 0 1 1-469.333333 0 234.666667 234.666667 0 0 1 469.333333 0zM790.570667 597.333333h-61.141334a21.333333 21.333333 0 0 0-19.968 13.824l-48 128a21.333333 21.333333 0 0 0 20.010667 28.842667h33.194667l-32.981334 98.901333a22.101333 22.101333 0 0 0 39.509334 19.029334l112-172.288a20.053333 20.053333 0 0 0-16.768-30.976H789.333333l21.205334-56.490667a21.333333 21.333333 0 0 0-19.968-28.842667z" /></svg>