<svg class="icon" style="width: 1em;height: 1em;vertical-align: middle;fill: currentColor;overflow: hidden;" viewBox="0 0 1024 1024" version="1.1" xmlns="http://www.w3.org/2000/svg"><path d="M130.261333 553.386667l160.128-405.162667c10.069333-25.386667 44.501333-26.88 57.386667-4.437333l2.133333 4.48 159.872 405.333333a32 32 0 0 1-57.685333 27.434667l-1.834667-3.925334L407.722667 469.333333H232.234667l-42.453334 107.52a32 32 0 0 1-37.376 19.370667l-4.181333-1.322667a32 32 0 0 1-19.285333-37.376l1.28-4.181333z m189.866667-306.261334L257.536 405.333333h124.928L320.128 247.125333zM512 330.666667c0 17.664 14.336 32 32 32h242.773333l-30.72 30.72a32 32 0 1 0 45.226667 45.226666l85.333333-85.333333a32 32 0 0 0 0-45.226667l-85.333333-85.333333a32 32 0 1 0-45.226667 45.226667l30.72 30.72h-242.773333a32 32 0 0 0-32 32z m-384 405.333333c0 17.664 14.336 32 32 32h626.773333l-30.72 30.72a32 32 0 1 0 45.226667 45.226667l85.333333-85.333334a32 32 0 0 0 0-45.226666l-85.333333-85.333334a32 32 0 1 0-45.226667 45.226667l30.72 30.72H160a32 32 0 0 0-32 32z" /></svg>