<svg class="icon" style="width: 1em;height: 1em;vertical-align: middle;fill: currentColor;overflow: hidden;" viewBox="0 0 1024 1024" version="1.1" xmlns="http://www.w3.org/2000/svg"><path d="M288 128a32 32 0 0 0-32 32v626.773333l-30.72-30.72a32 32 0 0 0-45.226667 45.226667l85.333334 85.333333a32 32 0 0 0 45.226666 0l85.333334-85.333333a32 32 0 1 0-45.226667-45.226667l-30.72 30.72V160A32 32 0 0 0 288 128z m373.333333 501.333333a32 32 0 0 1 64 0v157.44l30.72-30.72a32 32 0 1 1 45.226667 45.226667l-85.333333 85.333333a32 32 0 0 1-45.226667 0l-85.333333-85.333333a32 32 0 1 1 45.226666-45.226667l30.72 30.72v-157.44z m170.666667-469.333333a32 32 0 0 0-64 0v362.666667a32 32 0 0 0 64 0V362.666667h53.333333a32 32 0 0 0 0-64H832V160zM458.666667 170.666667a32 32 0 0 0 0 64h181.12c-6.912 69.717333-56.661333 174.592-190.293334 214.698666a32 32 0 0 0 18.346667 61.269334c187.306667-56.192 244.309333-219.733333 236.032-310.869334A32 32 0 0 0 672 170.666667h-213.333333z" /></svg>