<svg class="icon" style="width: 1em;height: 1em;vertical-align: middle;fill: currentColor;overflow: hidden;" viewBox="0 0 1024 1024" version="1.1" xmlns="http://www.w3.org/2000/svg"><path d="M512 170.666667a32 32 0 0 1 29.568 19.797333l202.666667 490.666667a32 32 0 1 1-59.136 24.405333L622.805333 554.666667H401.194667l-62.293334 150.869333a32 32 0 1 1-59.178666-24.405333l202.666666-490.666667A32 32 0 0 1 512 170.666667z m-84.352 320h168.704L512 286.506667 427.648 490.666667zM738.133333 789.333333c17.066667 0 34.133333 12.8 34.133334 34.133334 0 17.066667-12.8 29.866667-25.6 29.866666H290.133333c-17.066667 0-34.133333-12.8-34.133333-34.133333 0-17.066667 12.8-29.866667 25.6-29.866667h456.533333z" /></svg>