<svg class="icon" style="width: 1em;height: 1em;vertical-align: middle;fill: currentColor;overflow: hidden;" viewBox="0 0 1024 1024" version="1.1" xmlns="http://www.w3.org/2000/svg"><path d="M213.333333 245.333333A32 32 0 0 1 245.333333 213.333333h533.333334a32 32 0 0 1 0 64H245.333333A32 32 0 0 1 213.333333 245.333333zM213.333333 416A32 32 0 0 1 245.333333 384h533.333334a32 32 0 0 1 0 64H245.333333A32 32 0 0 1 213.333333 416zM213.333333 586.666667a32 32 0 0 1 32-32h533.333334a32 32 0 0 1 0 64H245.333333a32 32 0 0 1-32-32zM213.333333 757.333333a32 32 0 0 1 32-32h533.333334a32 32 0 0 1 0 64H245.333333a32 32 0 0 1-32-32z" /></svg>