<svg class="icon" style="width: 1em;height: 1em;vertical-align: middle;fill: currentColor;overflow: hidden;" viewBox="0 0 1024 1024" version="1.1" xmlns="http://www.w3.org/2000/svg"><path d="M160 213.333333a32 32 0 0 0 0 64h704a32 32 0 0 0 0-64H160zM373.333333 384a32 32 0 0 0 0 64h490.666667a32 32 0 0 0 0-64H373.333333zM341.333333 586.666667a32 32 0 0 1 32-32h490.666667a32 32 0 0 1 0 64H373.333333a32 32 0 0 1-32-32zM160 725.333333a32 32 0 0 0 0 64h704a32 32 0 0 0 0-64H160zM137.386667 470.613333a32 32 0 1 1 45.226666-45.226666l64 64a32 32 0 0 1 0 45.226666l-64 64a32 32 0 0 1-45.226666-45.226666l41.386666-41.386667-41.386666-41.386667z" /></svg>