<svg class="icon" style="width: 1em;height: 1em;vertical-align: middle;fill: currentColor;overflow: hidden;" viewBox="0 0 1024 1024" version="1.1" xmlns="http://www.w3.org/2000/svg"><path d="M533.333333 202.666667a32 32 0 0 0-64 0v362.666666a32 32 0 0 0 64 0V405.333333h53.333334a32 32 0 0 0 0-64H533.333333V202.666667zM160 213.333333a32 32 0 1 0 0 64h181.12c-6.912 69.717333-56.661333 174.592-190.293333 214.698667a32 32 0 0 0 18.346666 61.269333c187.306667-56.192 244.309333-219.733333 236.032-310.869333A32 32 0 0 0 373.333333 213.333333h-213.333333z m596.053333 52.053334a32 32 0 0 1 45.226667 0l85.333333 85.333333a32 32 0 0 1 0 45.226667l-85.333333 85.333333a32 32 0 1 1-45.226667-45.226667l30.72-30.72h-93.44a32 32 0 0 1 0-64h93.44l-30.72-30.72a32 32 0 0 1 0-45.226666z m0 341.333333a32 32 0 0 1 45.226667 0l85.333333 85.333333a32 32 0 0 1 0 45.226667l-85.333333 85.333333a32 32 0 1 1-45.226667-45.226666l30.72-30.72H160a32 32 0 0 1 0-64h626.773333l-30.72-30.72a32 32 0 0 1 0-45.226667z" /></svg>