<svg class="icon" style="width: 1em;height: 1em;vertical-align: middle;fill: currentColor;overflow: hidden;" viewBox="0 0 1024 1024" version="1.1" xmlns="http://www.w3.org/2000/svg"><path d="M192 245.333333a32 32 0 0 0-64 0v533.333334a32 32 0 0 0 64 0V533.333333H469.333333v245.333334a32 32 0 0 0 64 0V245.333333a32 32 0 0 0-64 0V469.333333H192V245.333333z m465.962667 88.96c9.813333-19.626667 38.954667-56.96 110.08-56.96 35.925333 0 62.250667 11.093333 79.36 27.264 16.938667 16.042667 27.306667 39.296 27.306666 68.736 0 83.754667-55.466667 130.901333-126.208 185.301334l-9.045333 6.954666C675.2 614.784 597.333333 674.389333 597.333333 778.666667a32 32 0 0 0 32 32h277.333334a32 32 0 0 0 0-64h-241.493334c13.44-53.418667 60.885333-90.026667 122.282667-137.301334C855.466667 557.098667 938.666667 492.245333 938.666667 373.333333c0-45.226667-16.341333-85.973333-47.36-115.285333C860.416 228.864 817.408 213.333333 768 213.333333c-99.541333 0-148.650667 55.082667-167.253333 92.373334a32 32 0 0 0 57.216 28.586666z" /></svg>