<svg class="icon" style="width: 1em;height: 1em;vertical-align: middle;fill: currentColor;overflow: hidden;" viewBox="0 0 1024 1024" version="1.1" xmlns="http://www.w3.org/2000/svg"><path d="M222.72 267.946667a32 32 0 0 1 0-45.226667l85.333333-85.333333a32 32 0 0 1 45.226667 0l85.333333 85.333333a32 32 0 1 1-45.226666 45.226667l-30.72-30.72v135.936a32 32 0 1 1-64 0V237.269333l-30.72 30.72a32 32 0 0 1-45.226667 0z m405.333333-45.226667a32 32 0 0 0 45.226667 45.226667l30.72-30.72v626.773333a32 32 0 0 0 64 0V237.226667l30.72 30.72a32 32 0 1 0 45.226667-45.226667l-85.333334-85.333333a32 32 0 0 0-45.226666 0l-85.333334 85.333333zM170.666667 565.333333a32 32 0 0 1 32-32h128v-53.333333a32 32 0 0 1 64 0v53.333333h192a32 32 0 0 1 0 64h-384a32 32 0 0 1-32-32zM234.666667 896a32 32 0 0 1-32-32v-170.666667a32 32 0 0 1 32-32h53.333333c45.994667 0 103.509333 9.045333 150.613333 39.168 49.066667 31.445333 84.053333 84.181333 84.053334 163.498667a32 32 0 0 1-64 0c0-57.216-23.68-89.813333-54.613334-109.568C371.2 733.354667 327.381333 725.333333 288 725.333333h-21.333333v138.666667a32 32 0 0 1-32 32z" /></svg>