<svg class="icon" style="width: 1em;height: 1em;vertical-align: middle;fill: currentColor;overflow: hidden;" viewBox="0 0 1024 1024" version="1.1" xmlns="http://www.w3.org/2000/svg"><path d="M320 256a106.666667 106.666667 0 0 1 106.453333 99.669333l0.213334 8.789334c-0.426667 151.68-52.906667 282.197333-158.08 393.514666a32 32 0 1 1-46.506667-43.946666c69.973333-74.112 113.493333-156.757333 131.285333-249.984A106.666667 106.666667 0 1 1 320 256z m384 0a106.666667 106.666667 0 0 1 106.453333 99.669333l0.213334 8.789334c-0.426667 151.893333-52.821333 282.197333-158.08 393.514666a32 32 0 1 1-46.506667-43.946666c70.101333-74.154667 113.578667-156.672 131.328-249.984A106.666667 106.666667 0 1 1 704 256z m-384 64a42.666667 42.666667 0 1 0 42.368 47.658667l0.298667-5.290667a42.666667 42.666667 0 0 0-42.666667-42.368z m384 0a42.666667 42.666667 0 1 0 42.368 47.658667l0.298667-5.290667a42.666667 42.666667 0 0 0-42.666667-42.368z" /></svg>