<svg class="icon" style="width: 1em;height: 1em;vertical-align: middle;fill: currentColor;overflow: hidden;" viewBox="0 0 1024 1024" version="1.1" xmlns="http://www.w3.org/2000/svg"><path d="M661.333333 138.666667a32 32 0 0 0-64 0v362.666666a32 32 0 0 0 64 0V341.333333H725.333333a32 32 0 0 0 0-64h-64V138.666667z m-373.333333 10.666666a32 32 0 1 0 0 64h181.12c-6.912 69.717333-56.661333 174.592-190.293333 214.698667a32 32 0 0 0 18.346666 61.269333c187.306667-56.192 244.309333-219.733333 236.032-310.869333a32 32 0 0 0-31.872-29.098667h-213.333333zM853.333333 714.666667a96 96 0 0 0-96-96H224A96 96 0 0 0 128 714.666667v128A96 96 0 0 0 224 938.666667h533.333333A96 96 0 0 0 853.333333 842.666667v-128zM224 682.666667h533.333333a32 32 0 0 1 32 32v128a32 32 0 0 1-32 32H224a32 32 0 0 1-32-32v-128a32 32 0 0 1 32-32z" /></svg>