<svg class="icon" style="width: 1em;height: 1em;vertical-align: middle;fill: currentColor;overflow: hidden;" viewBox="0 0 1024 1024" version="1.1" xmlns="http://www.w3.org/2000/svg"><path d="M128 288A32 32 0 0 1 160 256h704a32 32 0 0 1 0 64H160A32 32 0 0 1 128 288zM128 544a32 32 0 0 1 32-32h704a32 32 0 0 1 0 64H160a32 32 0 0 1-32-32zM404.053333 777.386667a32 32 0 1 0 45.226667 45.226666L512 759.893333l62.72 62.72a32 32 0 1 0 45.226667-45.226666l-85.333334-85.333334a32 32 0 0 0-45.226666 0l-85.333334 85.333334z" /></svg>