<svg class="icon" style="width: 1em;height: 1em;vertical-align: middle;fill: currentColor;overflow: hidden;" viewBox="0 0 1024 1024" version="1.1" xmlns="http://www.w3.org/2000/svg"><path d="M202.666667 512h618.666666a32 32 0 0 1 4.352 63.701333l-4.352 0.298667h-126.890666c37.504 34.688 57.002667 76.501333 57.002666 125.226667 0 120.533333-137.898667 197.973333-288.213333 180.48-95.317333-11.093333-162.474667-49.28-197.717333-115.285334a32 32 0 0 1 56.448-30.165333c24.32 45.568 72.618667 73.045333 148.650666 81.92 117.034667 13.568 216.832-42.453333 216.832-116.949333 0-50.005333-34.346667-90.752-109.44-123.136l-4.949333-2.090667H202.666667a32 32 0 0 1-31.701334-27.648L170.666667 544a32 32 0 0 1 27.648-31.701333L202.666667 512h618.666666-618.666666z m64.426666-165.418667c6.528-120.746667 120.448-190.634667 269.824-173.269333 93.397333 10.837333 164.864 44.928 212.608 102.784a32 32 0 0 1-49.365333 40.746667c-36.352-44.074667-92.629333-70.912-170.624-79.957334-115.968-13.482667-198.4 34.304-198.4 109.696 0 32.938667 9.984 57.514667 35.413333 84.565334l5.461334 5.632c4.010667 4.096 8.362667 8.32 10.666666 10.24l1.28 0.853333H302.165333l-1.066666-1.621333c-6.101333-8.789333-36.522667-50.986667-33.92-99.669334z" /></svg>