<svg class="icon" style="width: 1em;height: 1em;vertical-align: middle;fill: currentColor;overflow: hidden;" viewBox="0 0 1024 1024" version="1.1" xmlns="http://www.w3.org/2000/svg"><path d="M160 170.666667a32 32 0 0 0 0 64h704a32 32 0 0 0 0-64H160zM298.666667 362.666667A106.666667 106.666667 0 0 0 192 469.333333v202.666667a32 32 0 0 1-64 0V469.333333a170.666667 170.666667 0 1 1 341.333333 0v202.666667a32 32 0 0 1-64 0V469.333333A106.666667 106.666667 0 0 0 298.666667 362.666667zM586.666667 618.666667a32 32 0 0 0 0 64h277.333333a32 32 0 0 0 0-64h-277.333333zM160 768a32 32 0 0 0 0 64h704a32 32 0 0 0 0-64H160z" /></svg>