<svg class="icon" style="width: 1em;height: 1em;vertical-align: middle;fill: currentColor;overflow: hidden;" viewBox="0 0 1024 1024" version="1.1" xmlns="http://www.w3.org/2000/svg"><path d="M117.333333 725.333333h331.733334l-64 64H117.333333a32 32 0 0 1-4.352-63.701333L117.333333 725.333333zM117.333333 618.666667h322.730667a74.453333 74.453333 0 0 1-10.282667-64H117.333333l-4.352 0.298666A32 32 0 0 0 117.333333 618.666667zM542.72 692.053333a32 32 0 1 1 45.226667 45.226667l-192 192a32 32 0 0 1-45.226667-45.226667l192-192zM117.333333 384h448a32 32 0 0 1 4.352 63.701333l-4.352 0.298667H117.333333a32 32 0 0 1-4.352-63.701333L117.333333 384zM117.333333 213.333333h789.333334a32 32 0 0 1 4.352 63.701334l-4.352 0.298666H117.333333a32 32 0 0 1-4.352-63.701333L117.333333 213.333333zM704 341.333333a32 32 0 0 1 31.744 28.074667l5.973333 48.213333a138.666667 138.666667 0 0 0 120.661334 120.704l48.213333 5.930667a32 32 0 0 1 0 63.488l-48.213333 5.973333a138.666667 138.666667 0 0 0-120.704 120.661334l-5.930667 48.213333a32 32 0 0 1-63.488 0l-5.973333-48.213333a138.666667 138.666667 0 0 0-120.661334-120.704l-48.213333-5.930667a32 32 0 0 1 0-63.488l48.213333-5.973333a138.666667 138.666667 0 0 0 120.704-120.661334l5.930667-48.213333A32 32 0 0 1 704 341.333333z m0 161.024a203.136 203.136 0 0 1-73.642667 73.642667 203.136 203.136 0 0 1 73.642667 73.642667 203.136 203.136 0 0 1 73.642667-73.642667 203.136 203.136 0 0 1-73.642667-73.642667z" /></svg>