<svg class="icon" style="width: 1em;height: 1em;vertical-align: middle;fill: currentColor;overflow: hidden;" viewBox="0 0 1024 1024" version="1.1" xmlns="http://www.w3.org/2000/svg"><path d="M435.712 730.026667L641.834667 149.333333c9.514667-26.752 45.653333-28.330667 58.24-4.736l2.090666 4.693334 234.666667 661.333333a32 32 0 0 1-58.581333 25.429333l-1.706667-4.010666L808.32 640h-272.810667l-67.413333 189.952a32 32 0 0 1-15.104 19.285333l-3.968 1.877334a32 32 0 0 1-39.637333-14.08l-1.877334-3.925334L365.056 725.333333H189.568l-42.453333 107.52a32 32 0 0 1-37.376 19.370667l-4.181334-1.322667a32 32 0 0 1-19.285333-37.376l1.28-4.181333 160.170667-405.12c10.069333-25.386667 44.501333-26.88 57.386666-4.437333l2.133334 4.48 128.469333 325.76L641.834667 149.333333l-206.122667 580.693334z m-158.293333-226.901334L214.912 661.333333h124.928l-62.336-158.208z m394.581333-247.466666L558.250667 576h227.413333L672 255.658667z" /></svg>