<svg class="icon" style="width: 1em;height: 1em;vertical-align: middle;fill: currentColor;overflow: hidden;" viewBox="0 0 1024 1024" version="1.1" xmlns="http://www.w3.org/2000/svg"><path d="M160 170.666667a32 32 0 0 0 0 64h704a32 32 0 0 0 0-64H160zM128 352a32 32 0 0 1 32-32h199.68A213.717333 213.717333 0 0 0 316.373333 384H160A32 32 0 0 1 128 352zM659.84 384a171.52 171.52 0 0 0-65.152-64A169.898667 169.898667 0 0 0 512 298.666667c-29.994667 0-58.197333 7.722667-82.688 21.333333A171.52 171.52 0 0 0 364.16 384 169.898667 169.898667 0 0 0 341.333333 469.333333v202.666667a31.957333 31.957333 0 0 0 32 32 32 32 0 0 0 32-32V469.333333A106.496 106.496 0 0 1 512 362.666667a106.496 106.496 0 0 1 106.666667 106.666666v202.666667a31.872 31.872 0 0 0 32 32 32 32 0 0 0 32-32V469.333333c0-31.104-8.32-60.245333-22.826667-85.333333zM160 469.333333H298.666667v64H160a32 32 0 0 1 0-64zM160 618.666667H298.666667v53.333333c0 3.626667 0.256 7.168 0.768 10.666667H160a32 32 0 0 1 0-64zM864 682.666667h-139.434667c0.512-3.498667 0.768-7.04 0.768-10.666667V618.666667h138.666667a32 32 0 0 1 0 64zM864 533.333333H725.333333V469.333333h138.666667a32 32 0 0 1 0 64zM864 384h-156.416a213.76 213.76 0 0 0-43.221333-64h199.637333a32 32 0 0 1 0 64zM160 768a32 32 0 0 0 0 64h704a32 32 0 0 0 0-64H160z" /></svg>