<svg class="icon" style="width: 1em;height: 1em;vertical-align: middle;fill: currentColor;overflow: hidden;" viewBox="0 0 1024 1024" version="1.1" xmlns="http://www.w3.org/2000/svg"><path d="M512 874.666667a64 64 0 1 1-128 0 64 64 0 0 1 128 0z m213.333333 0a64 64 0 1 1-128 0 64 64 0 0 1 128 0z m213.333334 0a64 64 0 1 1-128 0 64 64 0 0 1 128 0z m-294.101334-105.386667l-52.565333-128.213333H245.333333L166.4 836.266667c-5.674667 14.208-15.274667 21.333333-28.8 21.333333-9.941333 0-17.408-2.474667-22.4-7.466667a31.274667 31.274667 0 0 1-8.533333-20.266666v-3.2c0-4.266667 0.341333-7.466667 1.066666-9.6L389.333333 128c5.674667-14.208 16.341333-21.333333 32-21.333333a26.88 26.88 0 0 1 18.133334 6.4c5.674667 3.541333 9.941333 8.533333 12.8 14.933333l269.44 658.730667a106.154667 106.154667 0 0 0-77.141334-17.408zM417.066667 213.333333l-147.2 364.8h296.533333L417.066667 213.333333z" /></svg>