<svg class="icon" style="width: 1em;height: 1em;vertical-align: middle;fill: currentColor;overflow: hidden;" viewBox="0 0 1024 1024" version="1.1" xmlns="http://www.w3.org/2000/svg"><path d="M85.333333 245.333333A32 32 0 0 1 117.333333 213.333333h789.333334a32 32 0 0 1 0 64H117.333333A32 32 0 0 1 85.333333 245.333333z m0 277.333334a32 32 0 0 1 32-32h789.333334a32 32 0 0 1 0 64H117.333333a32 32 0 0 1-32-32z m725.333334 277.333333a32 32 0 0 1 32-32h64a32 32 0 0 1 0 64h-64a32 32 0 0 1-32-32zM103.082667 799.488c8.96-5.973333 17.706667-12.8 25.898666-20.266667v170.112a32 32 0 0 0 64 0v-277.333333a32 32 0 0 0-63.274666-6.826667c-5.376 24.661333-29.525333 59.306667-62.122667 81.066667a32 32 0 0 0 35.498667 53.248zM341.333333 747.648c0-22.528 18.944-43.648 42.069334-43.648 17.365333 0 31.36 8.106667 38.101333 18.517333 5.802667 8.96 9.301333 24.149333-3.968 46.72-6.4 10.88-16.042667 20.565333-29.098667 30.890667-6.485333 5.12-13.482667 10.112-21.034666 15.488l-3.157334 2.218667c-6.485333 4.565333-13.44 9.472-20.138666 14.506666-31.744 23.893333-66.773333 57.429333-66.773334 116.992 0 17.664 14.336 32 32 32h147.242667a32 32 0 0 0 0-64H349.354667c6.826667-12.032 18.048-22.4 33.237333-33.834666 5.845333-4.394667 11.904-8.661333 18.432-13.312l3.328-2.304c7.594667-5.418667 15.786667-11.264 23.765333-17.493334 15.872-12.586667 32.426667-28.074667 44.586667-48.725333 23.765333-40.448 23.296-81.962667 2.432-114.005333C455.253333 657.066667 419.882667 640 383.402667 640 320.341333 640 277.333333 694.528 277.333333 747.648a32 32 0 0 0 64 0zM617.429333 731.221333a36.693333 36.693333 0 0 1 10.709334-16.938666c5.461333-4.821333 15.189333-10.282667 33.194666-10.282667 32.469333 0 42.666667 21.333333 42.666667 31.018667 0 10.453333-2.218667 20.906667-8.106667 28.330666-4.736 5.973333-16.128 15.317333-47.018666 15.317334a32 32 0 0 0 0 64c11.690667 0 27.818667 1.536 39.893333 7.253333a27.904 27.904 0 0 1 11.264 8.533333c1.92 2.730667 3.968 7.125333 3.968 15.232 0 20.821333-6.485333 30.037333-11.946667 34.645334-6.485333 5.461333-16.896 9.002667-30.72 9.002666-15.445333 0-24.192-2.688-29.568-6.058666-4.693333-2.986667-10.24-8.704-14.72-22.357334a32 32 0 0 0-60.8 20.010667c7.978667 24.149333 21.162667 43.648 41.301334 56.405333 19.541333 12.373333 41.898667 16 63.786666 16 23.509333 0 50.432-5.888 71.978667-24.106666 22.528-18.986667 34.688-47.616 34.688-83.541334 0-20.224-5.546667-37.888-15.829333-52.352a83.882667 83.882667 0 0 0-11.008-12.544 93.44 93.44 0 0 0 4.821333-5.632c18.688-23.466667 22.016-50.858667 22.016-68.138666C768 689.237333 728.405333 640 661.333333 640c-32.64 0-57.642667 10.538667-75.52 26.282667-17.28 15.232-26.026667 33.664-29.909333 47.36a32 32 0 1 0 61.525333 17.578666z" /></svg>