<svg class="icon" style="width: 1em;height: 1em;vertical-align: middle;fill: currentColor;overflow: hidden;" viewBox="0 0 1024 1024" version="1.1" xmlns="http://www.w3.org/2000/svg"><path d="M138.666667 661.333333a53.333333 53.333333 0 1 1 0 106.624 53.333333 53.333333 0 0 1 0-106.624z m149.333333 21.333334h188.757333A278.186667 278.186667 0 0 0 469.333333 746.666667H288a32 32 0 0 1-4.352-63.701334L288 682.666667z m0-213.333334h618.666667l4.352-0.298666A32 32 0 0 0 906.666667 405.333333H288l-4.352 0.298667A32 32 0 0 0 288 469.333333z m-149.333333-85.333333a53.333333 53.333333 0 1 1 0 106.624A53.333333 53.333333 0 0 1 138.666667 384z m0-277.333333a53.333333 53.333333 0 1 1 0 106.624 53.333333 53.333333 0 0 1 0-106.624z m149.333333 21.333333h618.666667a32 32 0 0 1 4.352 63.701333l-4.352 0.298667H288a32 32 0 0 1-4.352-63.701333L288 128zM981.333333 746.666667a234.666667 234.666667 0 1 0-469.333333 0 234.666667 234.666667 0 0 0 469.333333 0z m-213.333333 21.333333l0.042667 106.794667a21.333333 21.333333 0 1 1-42.666667 0V768h-106.88a21.333333 21.333333 0 0 1 0-42.666667H725.333333v-106.666666a21.333333 21.333333 0 1 1 42.666667 0V725.333333h106.538667a21.333333 21.333333 0 0 1 0 42.666667H768z" /></svg>