<svg class="icon" style="width: 1em;height: 1em;vertical-align: middle;fill: currentColor;overflow: hidden;" viewBox="0 0 1024 1024" version="1.1" xmlns="http://www.w3.org/2000/svg"><path d="M672 128a32 32 0 0 0-32 32v661.333333a32 32 0 0 0 64 0v-10.112c29.226667 26.368 66.304 42.112 106.666667 42.112 94.293333 0 170.666667-85.973333 170.666666-192S904.96 469.333333 810.666667 469.333333c-40.362667 0-77.44 15.786667-106.666667 42.112V160a32 32 0 0 0-32-32z m32 533.333333c0-77.994667 54.613333-128 106.666667-128s106.666667 50.005333 106.666666 128-54.613333 128-106.666666 128-106.666667-50.005333-106.666667-128zM331.093333 128a32 32 0 0 1 29.738667 21.333333l234.666667 661.333334a32 32 0 1 1-60.330667 21.333333l-60.586667-170.666667H170.965333L104.533333 832.853333a32 32 0 1 1-59.733333-23.04l256-661.333333A32 32 0 0 1 331.093333 128z m-1.706666 124.032L195.712 597.333333h256.213333L329.386667 252.032z" /></svg>