<svg class="icon" style="width: 1em;height: 1em;vertical-align: middle;fill: currentColor;overflow: hidden;" viewBox="0 0 1024 1024" version="1.1" xmlns="http://www.w3.org/2000/svg"><path d="M288 576h448a32 32 0 0 1 4.352 63.701333L736 640H288a32 32 0 0 1-4.352-63.701333l4.352-0.298667zM736 704H288l-4.352 0.298667A32 32 0 0 0 288 768h448l4.352-0.298667a32 32 0 0 0-4.352-63.701333zM896 245.333333A117.333333 117.333333 0 0 0 778.666667 128H245.333333A117.333333 117.333333 0 0 0 128 245.333333v533.333334A117.333333 117.333333 0 0 0 245.333333 896h533.333334A117.333333 117.333333 0 0 0 896 778.666667V245.333333zM245.333333 192h533.333334c29.44 0 53.333333 23.893333 53.333333 53.333333v533.333334c0 29.44-23.893333 53.333333-53.333333 53.333333H245.333333c-29.44 0-53.333333-23.893333-53.333333-53.333333V245.333333c0-29.44 23.893333-53.333333 53.333333-53.333333z" /></svg>