<svg class="icon" style="width: 1em;height: 1em;vertical-align: middle;fill: currentColor;overflow: hidden;" viewBox="0 0 1024 1024" version="1.1" xmlns="http://www.w3.org/2000/svg"><path d="M746.666667 512a234.666667 234.666667 0 1 1 0 469.333333 234.666667 234.666667 0 0 1 0-469.333333z m-33.28 110.464l-2.986667 2.432-107.349333 107.392-1.706667 2.133333-1.877333 3.285334-0.981334 2.517333-0.853333 3.626667-0.085333 4.693333 0.64 3.669333 1.28 3.413334 1.408 2.602666 2.176 2.816 107.349333 107.392a21.333333 21.333333 0 0 0 32.64-27.221333l-2.474667-2.986667L670.336 768H874.666667a21.333333 21.333333 0 0 0 20.992-17.493333L896 746.666667a21.333333 21.333333 0 0 0-17.493333-20.992L874.666667 725.333333h-204.330667l70.229333-70.229333a21.333333 21.333333 0 0 0 2.474667-27.221333l-2.474667-2.986667a21.333333 21.333333 0 0 0-27.221333-2.432zM470.144 725.333333H117.333333l-4.352 0.298667A32 32 0 0 0 117.333333 789.333333h355.242667a279.637333 279.637333 0 0 1-2.432-64zM500.565333 618.666667H117.333333a32 32 0 0 1-4.352-63.701334L117.333333 554.666667h429.226667c-18.218667 18.944-33.706667 40.490667-45.994667 64zM906.666667 384H117.333333l-4.352 0.298667A32 32 0 0 0 117.333333 448h789.333334l4.352-0.298667A32 32 0 0 0 906.666667 384zM906.666667 213.333333H117.333333l-4.352 0.298667A32 32 0 0 0 117.333333 277.333333h789.333334l4.352-0.298666A32 32 0 0 0 906.666667 213.333333z" /></svg>