<svg class="icon" style="width: 1em;height: 1em;vertical-align: middle;fill: currentColor;overflow: hidden;" viewBox="0 0 1024 1024" version="1.1" xmlns="http://www.w3.org/2000/svg"><path d="M222.72 222.72a32 32 0 0 0 45.226667 45.226667L298.666667 237.226667v157.44a32 32 0 0 0 64 0V237.226667l30.72 30.72a32 32 0 1 0 45.226666-45.226667l-85.333333-85.333333a32 32 0 0 0-45.226667 0l-85.333333 85.333333z m330.666667 671.018667l-405.162667-160.128c-25.386667-10.069333-26.88-44.501333-4.437333-57.386667l4.48-2.133333 405.333333-159.872a32 32 0 0 1 27.434667 57.685333l-3.925334 1.834667-107.776 42.538666v175.488l107.52 42.453334a32 32 0 0 1 19.370667 37.376l-1.322667 4.138666a32 32 0 0 1-37.376 19.328l-4.181333-1.28z m-306.261334-189.866667L405.333333 766.464v-124.928l-158.208 62.293333zM628.053333 267.946667a32 32 0 0 1 0-45.226667l85.333334-85.333333a32 32 0 0 1 45.226666 0l85.333334 85.333333a32 32 0 0 1-45.226667 45.226667L768 237.226667v626.773333a32 32 0 0 1-64 0V237.226667l-30.72 30.72a32 32 0 0 1-45.226667 0z" /></svg>