<svg class="icon" style="width: 1em;height: 1em;vertical-align: middle;fill: currentColor;overflow: hidden;" viewBox="0 0 1024 1024" version="1.1" xmlns="http://www.w3.org/2000/svg"><path d="M117.333333 213.333333h789.333334a32 32 0 0 1 4.352 63.701334l-4.352 0.298666H117.333333a32 32 0 0 1-4.352-63.701333L117.333333 213.333333zM906.666667 384H117.333333l-4.352 0.298667A32 32 0 0 0 117.333333 448h789.333334l4.352-0.298667A32 32 0 0 0 906.666667 384zM117.333333 618.666667h383.232A278.101333 278.101333 0 0 1 546.56 554.666667H117.333333l-4.352 0.298666A32 32 0 0 0 117.333333 618.666667zM117.333333 725.333333h352.810667a282.453333 282.453333 0 0 0 2.432 64H117.333333a32 32 0 0 1-4.352-63.701333L117.333333 725.333333zM512 746.666667a234.666667 234.666667 0 1 0 469.333333 0 234.666667 234.666667 0 0 0-469.333333 0z m270.933333 121.770666l-2.986666 2.432a21.333333 21.333333 0 0 1-27.178667-2.432l-2.474667-2.986666a21.333333 21.333333 0 0 1 2.474667-27.221334L822.997333 768H618.666667l-3.84-0.341333A21.333333 21.333333 0 0 1 597.333333 746.666667l0.341334-3.84A21.333333 21.333333 0 0 1 618.666667 725.333333h204.330666l-70.229333-70.229333-2.474667-2.986667a21.333333 21.333333 0 0 1 32.64-27.221333l107.349334 107.392 2.133333 2.816 1.493333 2.602667 1.237334 3.413333 0.597333 3.669333-0.085333 4.693334-0.810667 3.626666-0.981333 2.517334-1.877334 3.285333-1.706666 2.133333-107.349334 107.392z" /></svg>