<svg class="icon" style="width: 1em;height: 1em;vertical-align: middle;fill: currentColor;overflow: hidden;" viewBox="0 0 1024 1024" version="1.1" xmlns="http://www.w3.org/2000/svg"><path d="M298.666667 85.333333a32 32 0 0 1 30.037333 20.906667l125.909333 340.693333 0.554667 1.365334 9.472 25.685333-35.328 89.002667-26.709333-72.277334H194.730667l-47.488 128.426667a32 32 0 1 1-60.032-22.229333l54.954666-148.608a32.682667 32.682667 0 0 1 0.512-1.408L268.672 106.24A32 32 0 0 1 298.666667 85.333333zM218.453333 426.666667H378.88l-80.213333-217.045334L218.368 426.666667zM589.056 276.181333a32 32 0 0 1 59.52 0l236.970667 598.656h21.077333a32 32 0 1 1 0 64H800a32 32 0 0 1 0-64h16.725333l-50.773333-128.170666h-294.826667L420.266667 874.837333h17.066666a32 32 0 1 1 0 64H330.666667a32 32 0 1 1 0-64h20.693333l237.653333-598.613333zM740.693333 682.666667l-121.898666-307.84L496.554667 682.666667h244.053333z" /></svg>