<svg class="icon" style="width: 1em;height: 1em;vertical-align: middle;fill: currentColor;overflow: hidden;" viewBox="0 0 1024 1024" version="1.1" xmlns="http://www.w3.org/2000/svg"><path d="M778.666667 128A117.333333 117.333333 0 0 1 896 245.333333v524.8a106.666667 106.666667 0 0 0-64 40.533334 106.837333 106.837333 0 0 0-6.016-7.338667c3.84-7.381333 6.016-15.786667 6.016-24.661333V245.333333c0-29.44-23.893333-53.333333-53.333333-53.333333H245.333333c-29.44 0-53.333333 23.893333-53.333333 53.333333v533.333334c0 29.44 23.893333 53.333333 53.333333 53.333333h232.874667a106.282667 106.282667 0 0 0-6.741333 64h-226.133334A117.333333 117.333333 0 0 1 128 778.666667V245.333333A117.333333 117.333333 0 0 1 245.333333 128h533.333334z m-170.666667 362.666667h-320l-4.352 0.298666A32 32 0 0 0 288 554.666667h320l4.352-0.298667a32 32 0 0 0-4.352-63.701333z m-320 170.666666h448a32 32 0 0 1 4.352 63.701334L736 725.333333H288a32 32 0 0 1-4.352-63.701333l4.352-0.298667z m448-341.333333H288l-4.352 0.298667A32 32 0 0 0 288 384h448l4.352-0.298667A32 32 0 0 0 736 320zM576 938.666667a64 64 0 1 0 0-128 64 64 0 0 0 0 128z m170.666667 0a64 64 0 1 0 0-128 64 64 0 0 0 0 128z m234.666666-64a64 64 0 1 1-128 0 64 64 0 0 1 128 0z" /></svg>