<svg class="icon" style="width: 1em;height: 1em;vertical-align: middle;fill: currentColor;overflow: hidden;" viewBox="0 0 1024 1024" version="1.1" xmlns="http://www.w3.org/2000/svg"><path d="M893.738667 553.386667l-160.128-405.162667c-10.069333-25.386667-44.501333-26.88-57.386667-4.437333l-2.133333 4.48-159.872 405.333333a32 32 0 0 0 57.685333 27.434667l1.834667-3.925334 42.538666-107.776h175.488l42.453334 107.52a32 32 0 0 0 37.376 19.370667l4.181333-1.322667a32 32 0 0 0 19.285333-37.376l-1.28-4.181333z m-189.866667-306.261334L766.464 405.333333h-124.928l62.336-158.208zM512 330.666667a32 32 0 0 1-32 32H237.226667l30.72 30.72a32 32 0 1 1-45.226667 45.226666l-85.333333-85.333333a32 32 0 0 1 0-45.226667l85.333333-85.333333a32 32 0 0 1 45.226667 45.226667L237.226667 298.666667h242.773333a32 32 0 0 1 32 32z m384 405.333333a32 32 0 0 1-32 32H237.226667l30.72 30.72a32 32 0 1 1-45.226667 45.226667l-85.333333-85.333334a32 32 0 0 1 0-45.226666l85.333333-85.333334a32 32 0 0 1 45.226667 45.226667l-30.72 30.72h626.773333a32 32 0 0 1 32 32z" /></svg>