<svg class="icon" style="width: 1em;height: 1em;vertical-align: middle;fill: currentColor;overflow: hidden;" viewBox="0 0 1024 1024" version="1.1" xmlns="http://www.w3.org/2000/svg"><path d="M896 778.666667A117.333333 117.333333 0 0 1 778.666667 896H245.333333A117.333333 117.333333 0 0 1 128 778.666667V245.333333A117.333333 117.333333 0 0 1 245.333333 128h533.333334A117.333333 117.333333 0 0 1 896 245.333333v533.333334z m-64 0V245.333333c0-29.44-23.893333-53.333333-53.333333-53.333333H245.333333c-29.44 0-53.333333 23.893333-53.333333 53.333333v533.333334c0 29.44 23.893333 53.333333 53.333333 53.333333h533.333334c29.44 0 53.333333-23.893333 53.333333-53.333333z m-298.666667-170.666667v-320l-0.298666-4.352A32 32 0 0 0 469.333333 288v320l0.298667 4.352a32 32 0 0 0 63.701333-4.352z m-170.666666-320v448a32 32 0 0 1-63.701334 4.352L298.666667 736V288a32 32 0 0 1 63.701333-4.352l0.298667 4.352z m341.333333 448V288l-0.298667-4.352A32 32 0 0 0 640 288v448l0.298667 4.352a32 32 0 0 0 63.701333-4.352z" /></svg>