<svg class="icon" style="width: 1em;height: 1em;vertical-align: middle;fill: currentColor;overflow: hidden;" viewBox="0 0 1024 1024" version="1.1" xmlns="http://www.w3.org/2000/svg"><path d="M224 128A96 96 0 0 0 128 224v576A96 96 0 0 0 224 896h247.466667c2.261333-11.093333 6.272-21.802667 11.946666-31.744l18.474667-32.256H224a32 32 0 0 1-32-32V224a32 32 0 0 1 32-32h576a32 32 0 0 1 32 32v330.837333c2.56 3.413333 4.949333 7.082667 7.082667 10.837334L896 665.130667V224A96 96 0 0 0 800 128H224zM746.666667 512a32 32 0 0 0-32-32h-234.666667a32 32 0 1 0 0 64h190.549333A106.496 106.496 0 0 1 746.666667 512zM611.712 640H480a32 32 0 1 0 0 64h95.104l36.608-64zM330.666667 394.666667a42.666667 42.666667 0 1 0 0-85.333334 42.666667 42.666667 0 0 0 0 85.333334zM480 320a32 32 0 0 0 0 64h234.666667a32 32 0 0 0 0-64h-234.666667zM330.666667 554.666667a42.666667 42.666667 0 1 0 0-85.333334 42.666667 42.666667 0 0 0 0 85.333334zM330.666667 714.666667a42.666667 42.666667 0 1 0 0-85.333334 42.666667 42.666667 0 0 0 0 85.333334zM729.941333 556.928a63.914667 63.914667 0 0 1 72.106667 29.952l170.837333 298.581333c8.746667 15.36 10.496 32.768 6.186667 48.597334a63.701333 63.701333 0 0 1-61.610667 47.232h-341.589333c-17.621333 0-33.578667-7.125333-45.141333-18.773334a63.786667 63.786667 0 0 1-10.24-77.056l170.752-298.624a63.573333 63.573333 0 0 1 38.698666-29.909333z m37.888 104.405333a21.333333 21.333333 0 0 0-42.666666 0v128a21.333333 21.333333 0 0 0 42.666666 0v-128z m-21.162666 256a32 32 0 1 0 0-64 32 32 0 0 0 0 64z" /></svg>