<svg class="icon" style="width: 1em;height: 1em;vertical-align: middle;fill: currentColor;overflow: hidden;" viewBox="0 0 1024 1024" version="1.1" xmlns="http://www.w3.org/2000/svg"><path d="M416.384 128H416a32 32 0 0 0-32 32v277.333333c0 17.664 14.336 32 32 32h112c12.074667 0 38.314667-1.621333 62.677333-14.72 12.629333-6.784 25.344-16.981333 34.773334-32 9.514667-15.189333 14.549333-33.493333 14.549333-54.613333 0-22.016-4.778667-41.045333-14.336-56.746667a84.608 84.608 0 0 0-20.138667-22.656c10.112-15.189333 16.341333-34.773333 16.341334-59.264 0-21.418667-4.096-39.893333-12.416-55.296a82.688 82.688 0 0 0-32.768-33.28c-22.912-12.8-47.701333-12.8-56.874667-12.757333H416.384z m111.616 277.333333H448V330.666667h80c10.538667 0 23.338667 0.426667 33.28 5.333333 4.266667 2.133333 7.424 4.821333 9.728 8.533333 2.304 3.84 4.992 10.837333 4.992 23.466667 0 10.581333-2.432 16.810667-4.778667 20.565333a27.861333 27.861333 0 0 1-10.88 9.685334c-10.666667 5.717333-24.362667 7.082667-32.341333 7.082666zM448 266.666667V192h70.954667c9.301333 0 19.114667 0.469333 26.496 4.608 2.986667 1.706667 5.546667 3.968 7.68 7.850667 2.218667 4.096 4.736 11.605333 4.736 24.874666 0 11.264-2.304 18.005333-4.565334 22.016a23.978667 23.978667 0 0 1-8.832 9.045334c-8.106667 4.949333-18.858667 6.229333-25.301333 6.272H448zM225.152 128a32 32 0 0 1 29.696 21.333333L353.28 426.666667a32 32 0 1 1-60.330667 21.333333l-14.421333-40.618667H163.242667l-16.042667 41.514667a32 32 0 1 1-59.733333-23.125333l107.392-277.333334A32 32 0 0 1 225.152 128z m-1.749333 124.032l-35.413334 91.349333h67.84l-32.426666-91.349333z m652.458666-112.426667c26.282667 12.885333 46.933333 37.205333 60.928 76.117334a32 32 0 1 1-60.202666 21.674666c-9.984-27.648-21.248-36.608-28.885334-40.362666-9.386667-4.565333-19.968-5.034667-37.034666-5.034667-16.128 0-26.581333 5.12-34.218667 11.946667-8.32 7.381333-14.933333 18.261333-19.797333 31.274666a177.365333 177.365333 0 0 0-9.941334 52.138667v0.682667c0 22.357333 0.298667 51.072 9.770667 75.178666 4.48 11.52 10.666667 20.778667 19.029333 27.648 8.192 6.741333 20.181333 12.586667 38.698667 14.677334 15.018667 1.664 48.170667-0.938667 63.317333-34.432a32 32 0 0 1 58.282667 26.453333c-32.853333 72.490667-104.917333 74.24-128.682667 71.594667-29.44-3.285333-53.461333-13.354667-72.277333-28.885334a129.834667 129.834667 0 0 1-37.973333-53.674666C682.666667 350.293333 682.666667 310.613333 682.666667 289.28V287.274667l0.042666-1.493334a239.274667 239.274667 0 0 1 13.994667-72.96c7.125333-19.029333 18.56-40.106667 37.205333-56.746666 19.328-17.194667 44.885333-28.074667 76.8-28.074667h1.621334c15.36 0 39.808-0.042667 63.530666 11.605333zM724.053333 645.888a36.565333 36.565333 0 0 1 10.709334-16.938667c5.504-4.821333 15.189333-10.282667 33.194666-10.282666 32.512 0 42.666667 21.333333 42.666667 31.018666 0 10.453333-2.218667 20.906667-8.106667 28.330667-4.693333 5.973333-16.128 15.317333-46.976 15.317333a32 32 0 0 0 0 64c11.648 0 27.733333 1.536 39.850667 7.253334a27.861333 27.861333 0 0 1 11.264 8.533333c1.92 2.730667 3.968 7.125333 3.968 15.232 0 20.821333-6.485333 30.037333-11.946667 34.645333-6.442667 5.461333-16.896 9.002667-30.72 9.002667-15.445333 0-24.192-2.688-29.525333-6.058667-4.778667-2.986667-10.24-8.704-14.72-22.357333a32 32 0 1 0-60.8 20.010667c7.936 24.149333 21.12 43.648 41.258667 56.405333 19.541333 12.373333 41.898667 16 63.786666 16 23.509333 0 50.432-5.888 71.978667-24.106667 22.528-18.986667 34.688-47.616 34.688-83.541333 0-20.224-5.546667-37.888-15.829333-52.352a83.882667 83.882667 0 0 0-11.008-12.544 93.44 93.44 0 0 0 4.864-5.632c18.688-23.466667 21.973333-50.858667 21.973333-68.138667C874.666667 603.904 835.072 554.666667 768 554.666667c-32.64 0-57.642667 10.538667-75.52 26.282666-17.28 15.232-26.026667 33.664-29.909333 47.36a32 32 0 0 0 61.525333 17.578667z m-276.053333 16.426667c0-22.528 18.901333-43.648 42.026667-43.648 17.365333 0 31.36 8.106667 38.101333 18.517333 5.802667 8.96 9.301333 24.149333-3.968 46.72-6.4 10.88-16.042667 20.565333-29.098667 30.890667-6.485333 5.12-13.44 10.112-21.034666 15.488l-3.157334 2.218666c-6.485333 4.565333-13.44 9.472-20.138666 14.506667C418.986667 770.944 384 804.48 384 864c0 17.664 14.336 32 32 32h147.242667a32 32 0 0 0 0-64h-107.221334c6.826667-12.032 18.048-22.4 33.237334-33.834667 5.845333-4.394667 11.946667-8.661333 18.432-13.312l3.328-2.304c7.637333-5.418667 15.786667-11.264 23.765333-17.493333 15.872-12.586667 32.426667-28.074667 44.586667-48.725333 23.765333-40.448 23.296-81.962667 2.474666-114.005334C561.92 571.733333 526.506667 554.666667 490.069333 554.666667 427.008 554.666667 384 609.194667 384 662.314667a32 32 0 0 0 64 0z m-238.293333 51.84c9.002667-5.973333 17.706667-12.8 25.941333-20.266667v170.112a32 32 0 0 0 64 0v-277.333333a32 32 0 0 0-63.317333-6.826667c-5.376 24.661333-29.482667 59.306667-62.122667 81.066667a32 32 0 0 0 35.498667 53.248z" /></svg>