<svg class="icon" style="width: 1em;height: 1em;vertical-align: middle;fill: currentColor;overflow: hidden;" viewBox="0 0 1024 1024" version="1.1" xmlns="http://www.w3.org/2000/svg"><path d="M885.333333 746.666667a53.333333 53.333333 0 1 0 0 106.624 53.333333 53.333333 0 0 0 0-106.624z m-149.333333 21.333333H117.333333a32 32 0 0 0-4.352 63.744l4.352 0.256h618.666667a32 32 0 0 0 4.352-63.701333L736 768z m149.333333-298.666667a53.333333 53.333333 0 1 0 0 106.624 53.333333 53.333333 0 0 0 0-106.624z m-149.333333 21.333334H117.333333a32 32 0 0 0-4.352 63.744L117.333333 554.666667h618.666667a32 32 0 0 0 4.352-63.701334l-4.352-0.298666z m149.333333-298.666667a53.333333 53.333333 0 1 0 0 106.624 53.333333 53.333333 0 0 0 0-106.624z m-149.333333 21.333333H117.333333a32 32 0 0 0-4.352 63.744l4.352 0.256h618.666667a32 32 0 0 0 4.352-63.701333L736 213.333333z" /></svg>