<svg class="icon" style="width: 1em;height: 1em;vertical-align: middle;fill: currentColor;overflow: hidden;" viewBox="0 0 1024 1024" version="1.1" xmlns="http://www.w3.org/2000/svg"><path d="M373.333333 352a42.666667 42.666667 0 1 1-85.333333 0 42.666667 42.666667 0 0 1 85.333333 0zM448 352a32 32 0 0 1 32-32h234.666667a32 32 0 0 1 0 64h-234.666667a32 32 0 0 1-32-32zM448 512a32 32 0 0 1 32-32h234.666667a32 32 0 1 1 0 64h-234.666667a32 32 0 0 1-32-32zM480 640a32 32 0 1 0 0 64h234.666667a32 32 0 1 0 0-64h-234.666667zM330.666667 554.666667a42.666667 42.666667 0 1 0 0-85.333334 42.666667 42.666667 0 0 0 0 85.333334zM373.333333 672a42.666667 42.666667 0 1 1-85.333333 0 42.666667 42.666667 0 0 1 85.333333 0zM224 128A96 96 0 0 0 128 224v576A96 96 0 0 0 224 896h576A96 96 0 0 0 896 800V224A96 96 0 0 0 800 128H224zM192 224a32 32 0 0 1 32-32h576a32 32 0 0 1 32 32v576a32 32 0 0 1-32 32H224a32 32 0 0 1-32-32V224z" /></svg>