<svg class="icon" style="width: 1em;height: 1em;vertical-align: middle;fill: currentColor;overflow: hidden;" viewBox="0 0 1024 1024" version="1.1" xmlns="http://www.w3.org/2000/svg"><path d="M404.053333 267.946667a32 32 0 0 1 45.226667-45.226667L512 285.44l62.72-62.72a32 32 0 1 1 45.226667 45.226667l-85.333334 85.333333a32 32 0 0 1-45.226666 0l-85.333334-85.333333zM128 501.333333a32 32 0 0 1 32-32h704a32 32 0 0 1 0 64H160a32 32 0 0 1-32-32zM128 757.333333a32 32 0 0 1 32-32h704a32 32 0 0 1 0 64H160a32 32 0 0 1-32-32z" /></svg>