<svg class="icon" style="width: 1em;height: 1em;vertical-align: middle;fill: currentColor;overflow: hidden;" viewBox="0 0 1024 1024" version="1.1" xmlns="http://www.w3.org/2000/svg"><path d="M640 362.666667h-96v298.666666h21.333333a32 32 0 0 1 0 64h-106.666666a32 32 0 0 1 0-64h21.333333v-298.666666H384v32a32 32 0 1 1-64 0v-64A32 32 0 0 1 352 298.666667h320a32 32 0 0 1 32 32v64a32 32 0 0 1-64 0V362.666667zM245.333333 170.666667A160 160 0 0 0 85.333333 330.666667v362.666666A160 160 0 0 0 245.333333 853.333333h533.333334A160 160 0 0 0 938.666667 693.333333v-362.666666A160 160 0 0 0 778.666667 170.666667H245.333333zM149.333333 330.666667A96 96 0 0 1 245.333333 234.666667h533.333334a96 96 0 0 1 96 96v362.666666a96 96 0 0 1-96 96H245.333333a96 96 0 0 1-96-96v-362.666666z" /></svg>