<svg class="icon" style="width: 1em;height: 1em;vertical-align: middle;fill: currentColor;overflow: hidden;" viewBox="0 0 1024 1024" version="1.1" xmlns="http://www.w3.org/2000/svg"><path d="M470.144 725.333333H117.333333l-4.352 0.298667A32 32 0 0 0 117.333333 789.333333h355.242667a279.637333 279.637333 0 0 1-2.432-64zM117.333333 554.666667h429.226667c-18.218667 18.944-33.706667 40.490667-45.994667 64H117.333333a32 32 0 0 1-4.352-63.701334L117.333333 554.666667z m789.333334-170.666667H117.333333l-4.352 0.298667A32 32 0 0 0 117.333333 448h789.333334l4.352-0.298667A32 32 0 0 0 906.666667 384z m0-170.666667H117.333333l-4.352 0.298667A32 32 0 0 0 117.333333 277.333333h789.333334l4.352-0.298666A32 32 0 0 0 906.666667 213.333333z m-297.472 382.933334a85.333333 85.333333 0 0 1-61.482667 106.538666l-24.917333 6.144a244.437333 244.437333 0 0 0 0.256 77.098667l23.04 5.546667a85.333333 85.333333 0 0 1 61.866666 107.093333l-7.978666 26.965333c18.773333 16.469333 40.106667 29.824 63.317333 39.296l21.077333-22.101333a85.333333 85.333333 0 0 1 123.690667 0l21.248 22.4a225.322667 225.322667 0 0 0 63.274667-38.954667l-8.448-29.269333a85.333333 85.333333 0 0 1 61.482666-106.496l24.917334-6.144a243.882667 243.882667 0 0 0-0.256-77.141333l-23.04-5.546667a85.333333 85.333333 0 0 1-61.866667-107.093333l7.978667-26.88a225.194667 225.194667 0 0 0-63.317334-39.381334l-21.034666 22.144a85.333333 85.333333 0 0 1-123.733334 0l-21.248-22.4c-23.210667 9.386667-44.544 22.613333-63.274666 38.912l8.448 29.269334zM746.666667 810.666667c-34.133333 0-61.866667-28.672-61.866667-64 0-35.370667 27.733333-64 61.866667-64 34.133333 0 61.866667 28.629333 61.866666 64 0 35.328-27.733333 64-61.866666 64z" /></svg>