<svg class="icon" style="width: 1em;height: 1em;vertical-align: middle;fill: currentColor;overflow: hidden;" viewBox="0 0 1024 1024" version="1.1" xmlns="http://www.w3.org/2000/svg"><path d="M298.666667 426.666667h426.666666c23.552 0 42.666667 14.336 42.666667 32 0 16.213333-16.042667 29.610667-36.864 31.701333L725.333333 490.666667H298.666667c-23.552 0-42.666667-14.336-42.666667-32 0-16.213333 16.042667-29.610667 36.864-31.701334L298.666667 426.666667zM654.208 554.666667H369.792l-3.84 0.298666c-13.909333 2.133333-24.618667 15.488-24.618667 31.701334 0 17.664 12.714667 32 28.458667 32h284.416l3.84-0.298667c13.909333-2.133333 24.618667-15.488 24.618667-31.701333 0-17.664-12.757333-32-28.458667-32zM896 245.333333A117.333333 117.333333 0 0 0 778.666667 128H245.333333A117.333333 117.333333 0 0 0 128 245.333333v533.333334A117.333333 117.333333 0 0 0 245.333333 896h533.333334A117.333333 117.333333 0 0 0 896 778.666667V245.333333zM245.333333 192h533.333334c29.44 0 53.333333 23.893333 53.333333 53.333333v533.333334c0 29.44-23.893333 53.333333-53.333333 53.333333H245.333333c-29.44 0-53.333333-23.893333-53.333333-53.333333V245.333333c0-29.44 23.893333-53.333333 53.333333-53.333333z" /></svg>