<svg class="icon" style="width: 1em;height: 1em;vertical-align: middle;fill: currentColor;overflow: hidden;" viewBox="0 0 1024 1024" version="1.1" xmlns="http://www.w3.org/2000/svg"><path d="M757.333333 682.666667a32 32 0 0 1 0 64h-384a32 32 0 0 1 0-64h384zM116.053333 478.72l85.333334-85.333333a32 32 0 0 1 48.341333 41.642666l-3.114667 3.584-62.72 62.72 62.72 62.72a32 32 0 0 1-41.642666 48.341334l-3.584-3.114667-85.333334-85.333333a32 32 0 0 1-3.114666-41.642667l3.114666-3.584 85.333334-85.333333-85.333334 85.333333zM885.333333 469.333333a32 32 0 0 1 0 64h-512a32 32 0 0 1 0-64h512z m-128-213.333333a32 32 0 0 1 0 64h-384a32 32 0 0 1 0-64h384z" /></svg>