<svg class="icon" style="width: 1em;height: 1em;vertical-align: middle;fill: currentColor;overflow: hidden;" viewBox="0 0 1024 1024" version="1.1" xmlns="http://www.w3.org/2000/svg"><path d="M160 170.666667a32 32 0 0 0 0 64h704a32 32 0 0 0 0-64H160zM512 362.666667A106.666667 106.666667 0 0 0 414.208 426.666667H346.709333a170.752 170.752 0 0 1 330.581334 0h-67.498667A106.666667 106.666667 0 0 0 512 362.666667zM341.333333 576h64v96a32 32 0 0 1-64 0V576zM682.666667 576h-64v96a32 32 0 0 0 64 0V576zM864 469.333333a32 32 0 0 1 0 64H160a32 32 0 0 1 0-64h704zM128 800a32 32 0 0 1 32-32h704a32 32 0 0 1 0 64H160a32 32 0 0 1-32-32z" /></svg>