<svg class="icon" style="width: 1em;height: 1em;vertical-align: middle;fill: currentColor;overflow: hidden;" viewBox="0 0 1024 1024" version="1.1" xmlns="http://www.w3.org/2000/svg"><path d="M597.333333 298.666667v426.666666c0 23.552-14.336 42.666667-32 42.666667-16.213333 0-29.610667-16.042667-31.701333-36.864L533.333333 725.333333V298.666667c0-23.552 14.336-42.666667 32-42.666667 16.213333 0 29.610667 16.042667 31.701334 36.864L597.333333 298.666667z m-128 426.666666V298.666667l-0.298666-5.802667C466.901333 272.042667 453.546667 256 437.333333 256c-17.664 0-32 19.114667-32 42.666667v426.666666l0.298667 5.802667c2.133333 20.821333 15.488 36.864 31.701333 36.864 17.664 0 32-19.114667 32-42.666667z m309.333334 170.666667A117.333333 117.333333 0 0 0 896 778.666667V245.333333A117.333333 117.333333 0 0 0 778.666667 128H245.333333A117.333333 117.333333 0 0 0 128 245.333333v533.333334A117.333333 117.333333 0 0 0 245.333333 896h533.333334zM832 245.333333v533.333334c0 29.44-23.893333 53.333333-53.333333 53.333333H245.333333c-29.44 0-53.333333-23.893333-53.333333-53.333333V245.333333c0-29.44 23.893333-53.333333 53.333333-53.333333h533.333334c29.44 0 53.333333 23.893333 53.333333 53.333333z" /></svg>