<svg class="icon" style="width: 1em;height: 1em;vertical-align: middle;fill: currentColor;overflow: hidden;" viewBox="0 0 1024 1024" version="1.1" xmlns="http://www.w3.org/2000/svg"><path d="M117.333333 213.333333a32 32 0 0 0 0 64h789.333334a32 32 0 0 0 0-64H117.333333zM416 768a32 32 0 0 0 0 64h490.666667a32 32 0 0 0 0-64H416zM384 522.666667a32 32 0 0 1 32-32h490.666667a32 32 0 0 1 0 64H416a32 32 0 0 1-32-32zM161.28 553.386667a32 32 0 0 0-45.226667 45.226666l62.72 62.72-62.72 62.72a32 32 0 1 0 45.226667 45.226667l85.333333-85.333333a32 32 0 0 0 0-45.226667l-85.333333-85.333333z" /></svg>