<svg class="icon" style="width: 1em;height: 1em;vertical-align: middle;fill: currentColor;overflow: hidden;" viewBox="0 0 1024 1024" version="1.1" xmlns="http://www.w3.org/2000/svg"><path d="M405.76 85.333333a32 32 0 0 1 29.738667 21.333334l135.722666 382.506666a279.04 279.04 0 0 0-49.322666 52.309334L404.053333 209.365333 270.378667 554.666667h242.56a276.096 276.096 0 0 0-30.250667 64H245.589333L179.2 790.186667a32 32 0 1 1-59.733333-23.04l256-661.333334A32 32 0 0 1 405.76 85.333333zM725.333333 682.666667v128a21.333333 21.333333 0 0 0 42.666667 0v-128a21.333333 21.333333 0 0 0-42.666667 0z m53.333334-96a32 32 0 1 1-64 0 32 32 0 0 1 64 0zM981.333333 704a234.666667 234.666667 0 1 1-469.333333 0 234.666667 234.666667 0 0 1 469.333333 0z m-42.666666 0a192 192 0 1 0-384 0 192 192 0 0 0 384 0z" /></svg>