<svg class="icon" style="width: 1em;height: 1em;vertical-align: middle;fill: currentColor;overflow: hidden;" viewBox="0 0 1024 1024" version="1.1" xmlns="http://www.w3.org/2000/svg"><path d="M715.946667 225.28l30.72-30.72v712.106667a32 32 0 0 0 64 0V194.56l30.72 30.72a32 32 0 1 0 45.226666-45.226667l-85.333333-85.333333a32 32 0 0 0-45.226667 0l-85.333333 85.333333a32 32 0 0 0 45.226667 45.226667zM256 829.44l30.72-30.72a32 32 0 0 1 45.226667 45.226667l-85.333334 85.333333a32 32 0 0 1-45.226666 0l-85.333334-85.333333a32 32 0 1 1 45.226667-45.226667l30.72 30.72V117.333333a32 32 0 0 1 64 0v712.106667z m277.333333-712.106667a32 32 0 0 0-64 0v789.333334a32 32 0 0 0 64 0V117.333333z" /></svg>