<svg class="icon" style="width: 1em;height: 1em;vertical-align: middle;fill: currentColor;overflow: hidden;" viewBox="0 0 1024 1024" version="1.1" xmlns="http://www.w3.org/2000/svg"><path d="M704 341.333333a181.333333 181.333333 0 0 0 0 362.666667h21.333333v202.666667a32 32 0 0 0 64 0V405.333333h42.666667v501.333334a32 32 0 0 0 64 0V405.333333h10.666667a32 32 0 0 0 0-64H704z m0 64h21.333333V640h-21.333333a117.333333 117.333333 0 1 1 0-234.666667zM117.333333 213.333333a32 32 0 0 0 0 64h789.333334a32 32 0 0 0 0-64H117.333333zM117.333333 426.666667a32 32 0 0 0 0 64h364.928c3.242667-22.613333 9.813333-44.117333 19.285334-64H117.333333zM513.152 640H117.333333a32 32 0 0 0 0 64h455.125334a225.194667 225.194667 0 0 1-59.306667-64z" /></svg>