<svg class="icon" style="width: 1em;height: 1em;vertical-align: middle;fill: currentColor;overflow: hidden;" viewBox="0 0 1024 1024" version="1.1" xmlns="http://www.w3.org/2000/svg"><path d="M799.402667 149.333333c-23.168 0-42.069333 21.12-42.069334 43.648a32 32 0 0 1-64 0C693.333333 139.861333 736.341333 85.333333 799.402667 85.333333c36.48 0 71.850667 17.066667 91.733333 47.658667 20.906667 32.042667 21.333333 73.557333-2.432 114.005333-12.16 20.650667-28.714667 36.138667-44.586667 48.682667-7.978667 6.314667-16.170667 12.117333-23.765333 17.493333l-3.328 2.389334a744.533333 744.533333 0 0 0-18.432 13.269333c-15.189333 11.434667-26.410667 21.802667-33.28 33.834667h107.264a32 32 0 0 1 0 64H725.333333a32 32 0 0 1-32-32c0-59.562667 35.029333-93.098667 66.773334-116.949334 6.698667-5.077333 13.653333-9.984 20.138666-14.549333l3.157334-2.218667c7.552-5.376 14.506667-10.368 21.034666-15.488 13.056-10.325333 22.698667-20.053333 29.098667-30.890666 13.226667-22.613333 9.770667-37.802667 3.968-46.677334-6.741333-10.410667-20.736-18.56-38.101333-18.56zM651.093333 200.96c2.56 23.978667 16.426667 44.501333 36.138667 56.234667L468.778667 512l238.208 277.845333a32 32 0 1 1-48.64 41.642667L426.666667 561.152l-231.68 270.336a32 32 0 0 1-48.64-41.642667L384.554667 512 146.389333 234.154667a32 32 0 1 1 48.597334-41.642667L426.666667 462.848l224.426666-261.845333z" /></svg>