<svg class="icon" style="width: 1em;height: 1em;vertical-align: middle;fill: currentColor;overflow: hidden;" viewBox="0 0 1024 1024" version="1.1" xmlns="http://www.w3.org/2000/svg"><path d="M117.333333 213.333333a32 32 0 0 0 0 64h789.333334a32 32 0 0 0 0-64H117.333333zM117.333333 490.666667a32 32 0 0 0 0 64H810.666667a106.666667 106.666667 0 0 1 0 213.333333h-189.44l30.72-30.72a32 32 0 1 0-45.226667-45.226667l-85.333333 85.333334a32 32 0 0 0 0 45.226666l85.333333 85.333334a32 32 0 1 0 45.226667-45.226667l-30.72-30.72H810.666667a170.666667 170.666667 0 0 0 0-341.333333H117.333333zM85.333333 800a32 32 0 0 1 32-32h277.333334a32 32 0 0 1 0 64h-277.333334a32 32 0 0 1-32-32z" /></svg>