<svg class="icon" style="width: 1em;height: 1em;vertical-align: middle;fill: currentColor;overflow: hidden;" viewBox="0 0 1024 1024" version="1.1" xmlns="http://www.w3.org/2000/svg"><path d="M128 202.666667A32 32 0 0 1 160 170.666667h704a32 32 0 0 1 0 64H160A32 32 0 0 1 128 202.666667zM128 800a32 32 0 0 1 32-32h704a32 32 0 0 1 0 64H160a32 32 0 0 1-32-32zM405.333333 469.333333a106.666667 106.666667 0 0 1 213.333334 0v202.666667a32 32 0 0 0 64 0V469.333333a170.666667 170.666667 0 0 0-341.333334 0v202.666667a32 32 0 0 0 64 0V469.333333z" /></svg>