<svg class="icon" style="width: 1em;height: 1em;vertical-align: middle;fill: currentColor;overflow: hidden;" viewBox="0 0 1024 1024" version="1.1" xmlns="http://www.w3.org/2000/svg"><path d="M757.333333 618.666667A96 96 0 0 1 853.333333 714.666667v128A96 96 0 0 1 757.333333 938.666667H224A96 96 0 0 1 128 842.666667v-128a96 96 0 0 1 96-96h533.333333z m0 64H224a32 32 0 0 0-32 32v128c0 17.706667 14.336 32 32 32h533.333333a32 32 0 0 0 32-32v-128a32 32 0 0 0-32-32zM300.928 510.72l160.128-405.162667c10.069333-25.386667 44.501333-26.88 57.386667-4.437333l2.133333 4.48 159.872 405.333333a32 32 0 0 1-57.685333 27.434667l-1.877334-3.925333L578.389333 426.666667H402.901333l-42.496 107.52a32 32 0 0 1-37.376 19.370666l-4.138666-1.322666a32 32 0 0 1-19.328-37.376l1.365333-4.181334 160.128-405.12-160.128 405.12z m189.866667-306.261333L428.202667 362.666667h124.928l-62.336-158.208z" /></svg>