<svg class="icon" style="width: 1em;height: 1em;vertical-align: middle;fill: currentColor;overflow: hidden;" viewBox="0 0 1024 1024" version="1.1" xmlns="http://www.w3.org/2000/svg"><path d="M330.666667 160a32 32 0 0 0-64 0v320a32 32 0 0 0 64 0V277.333333H341.333333A32 32 0 0 0 341.333333 213.333333h-10.666666V160z m608 0a32 32 0 0 0-64 0v320a32 32 0 0 0 64 0V277.333333h10.666666a32 32 0 0 0 0-64H938.666667V160zM608 128a32 32 0 0 1 32 32V213.333333h10.666667a32 32 0 0 1 0 64H640v202.666667a32 32 0 0 1-64 0v-320a32 32 0 0 1 32-32zM42.666667 202.666667A32 32 0 0 1 74.666667 170.666667h128a32 32 0 0 1 32 32c0 72.106667-35.754667 182.485333-146.986667 231.893333a32 32 0 0 1-26.026667-58.453333c66.389333-29.525333 97.28-89.856 106.197334-141.44H74.666667A32 32 0 0 1 42.666667 202.666667z m693.333333-31.146667a32 32 0 0 0-32 32v191.146667a32 32 0 0 0 39.765333 31.061333l85.333334-21.333333a32 32 0 0 0-15.530667-62.122667L768 353.706667V235.52h32a32 32 0 0 0 0-64h-64z m-246.357333-10.026667a32 32 0 0 1 20.906666 40.106667l-47.744 151.04 53.589334-10.666667a32 32 0 1 1 12.544 62.72l-106.666667 21.333334a32 32 0 0 1-36.778667-40.96l64-202.666667a32 32 0 0 1 40.106667-20.906667z m245.162666 467.456a36.693333 36.693333 0 0 0-10.666666 16.938667 32 32 0 0 1-61.568-17.578667c3.882667-13.696 12.629333-32.128 29.866666-47.36 17.92-15.786667 42.922667-26.282667 75.562667-26.282666 67.072 0 106.666667 49.237333 106.666667 95.018666 0 17.28-3.328 44.629333-22.016 68.138667a93.44 93.44 0 0 1-4.821334 5.632c3.925333 3.669333 7.68 7.850667 11.008 12.544 10.282667 14.506667 15.829333 32.128 15.829334 52.352 0 35.925333-12.16 64.554667-34.688 83.541333-21.546667 18.218667-48.469333 24.106667-71.978667 24.106667-21.888 0-44.245333-3.626667-63.786667-16-20.138667-12.757333-33.322667-32.256-41.258666-56.405333a32 32 0 0 1 60.757333-20.053334c4.522667 13.653333 9.984 19.370667 14.72 22.4 5.376 3.413333 14.122667 6.058667 29.568 6.058667 13.824 0 24.234667-3.541333 30.72-8.96 5.461333-4.693333 11.946667-13.866667 11.946667-34.688 0-8.106667-2.048-12.501333-3.968-15.189333a27.904 27.904 0 0 0-11.264-8.618667c-12.074667-5.674667-28.202667-7.210667-39.893334-7.210667a32 32 0 0 1 0-64c30.890667 0 42.24-9.386667 47.018667-15.36 5.888-7.338667 8.106667-17.834667 8.106667-28.288 0-9.685333-10.197333-31.018667-42.666667-31.018666-18.005333 0-27.733333 5.461333-33.194667 10.24z m-244.736-10.282666c-23.168 0-42.069333 21.12-42.069333 43.648a32 32 0 0 1-64 0C384 609.194667 427.008 554.666667 490.069333 554.666667c36.48 0 71.850667 17.066667 91.733334 47.658666 20.906667 32.042667 21.333333 73.557333-2.432 114.005334-12.16 20.650667-28.714667 36.138667-44.586667 48.682666-7.978667 6.314667-16.170667 12.16-23.765333 17.493334l-3.328 2.346666c-6.528 4.650667-12.586667 8.917333-18.432 13.312-15.189333 11.434667-26.410667 21.802667-33.28 33.834667h107.264a32 32 0 0 1 0 64H416a32 32 0 0 1-32-32c0-59.562667 35.029333-93.098667 66.773333-116.949333 6.698667-5.077333 13.653333-9.984 20.138667-14.549334l3.157333-2.218666c7.594667-5.376 14.506667-10.325333 21.034667-15.488 13.056-10.325333 22.698667-20.053333 29.098667-30.890667 13.226667-22.613333 9.770667-37.802667 3.968-46.72-6.741333-10.368-20.736-18.517333-38.101334-18.517333z m-254.421333 75.221333a224.426667 224.426667 0 0 1-25.898667 20.266667 32 32 0 1 1-35.498666-53.248c32.597333-21.76 56.746667-56.405333 62.122666-81.066667a32 32 0 0 1 63.274667 6.826667v277.333333a32 32 0 0 1-64 0v-170.112z" /></svg>