<svg class="icon" style="width: 1em;height: 1em;vertical-align: middle;fill: currentColor;overflow: hidden;" viewBox="0 0 1024 1024" version="1.1" xmlns="http://www.w3.org/2000/svg"><path d="M149.333333 245.333333a32 32 0 0 0-64 0v533.333334a32 32 0 0 0 64 0V533.333333H426.666667v245.333334a32 32 0 0 0 64 0V245.333333a32 32 0 0 0-64 0V469.333333H149.333333V245.333333z m508.586667 88.96c9.813333-19.626667 38.997333-56.96 110.08-56.96 35.968 0 62.293333 11.093333 79.36 27.264 16.981333 16.042667 27.306667 39.296 27.306667 68.736 0 25.856-6.869333 43.776-16.384 56.832-9.728 13.397333-23.68 23.637333-40.661334 31.36-34.816 15.786667-76.885333 18.474667-101.674666 18.474667a32 32 0 0 0 0 64c24.789333 0 66.858667 2.688 101.674666 18.474667 16.981333 7.68 30.933333 17.92 40.661334 31.36 9.514667 13.056 16.384 30.976 16.384 56.832 0 46.336-38.997333 96-106.666667 96-73.685333 0-100.181333-32.426667-108.928-54.442667a32 32 0 1 0-59.477333 23.552C619.008 764.842667 671.018667 810.666667 768 810.666667c102.997333 0 170.666667-78.336 170.666667-160 0-38.144-10.453333-69.546667-28.586667-94.464A156.970667 156.970667 0 0 0 859.477333 512a156.970667 156.970667 0 0 0 50.602667-44.202667c18.133333-24.917333 28.586667-56.32 28.586667-94.464 0-45.226667-16.341333-85.973333-47.36-115.285333C860.373333 228.864 817.365333 213.333333 768 213.333333c-99.584 0-148.650667 55.082667-167.253333 92.373334a32 32 0 1 0 57.173333 28.586666z" /></svg>