<svg class="icon" style="width: 1em;height: 1em;vertical-align: middle;fill: currentColor;overflow: hidden;" viewBox="0 0 1024 1024" version="1.1" xmlns="http://www.w3.org/2000/svg"><path d="M896 245.333333a32 32 0 0 0-32-32h-405.333333a32 32 0 0 0 0 64h405.333333a32 32 0 0 0 32-32zM341.333333 245.333333A32 32 0 0 0 309.333333 213.333333h-149.333333a32 32 0 0 0 0 64h149.333333A32 32 0 0 0 341.333333 245.333333zM896 416a32 32 0 0 0-32-32h-405.333333a32 32 0 0 0 0 64h405.333333a32 32 0 0 0 32-32zM341.333333 416A32 32 0 0 0 309.333333 384h-149.333333a32 32 0 0 0 0 64h149.333333A32 32 0 0 0 341.333333 416zM896 586.666667a32 32 0 0 0-32-32h-405.333333a32 32 0 0 0 0 64h405.333333a32 32 0 0 0 32-32zM341.333333 586.666667a32 32 0 0 0-32-32h-149.333333a32 32 0 0 0 0 64h149.333333a32 32 0 0 0 32-32zM896 757.333333a32 32 0 0 0-32-32h-405.333333a32 32 0 0 0 0 64h405.333333a32 32 0 0 0 32-32zM341.333333 757.333333a32 32 0 0 0-32-32h-149.333333a32 32 0 0 0 0 64h149.333333a32 32 0 0 0 32-32z" /></svg>