<svg class="icon" style="width: 1em;height: 1em;vertical-align: middle;fill: currentColor;overflow: hidden;" viewBox="0 0 1024 1024" version="1.1" xmlns="http://www.w3.org/2000/svg"><path d="M778.666667 128A117.333333 117.333333 0 0 1 896 245.333333v267.605334a276.096 276.096 0 0 0-64-30.250667V245.333333c0-29.44-23.893333-53.333333-53.333333-53.333333H245.333333c-29.44 0-53.333333 23.893333-53.333333 53.333333v533.333334c0 29.44 23.893333 53.333333 53.333333 53.333333h237.354667c7.381333 22.784 17.578667 44.245333 30.250667 64H245.333333A117.333333 117.333333 0 0 1 128 778.666667V245.333333A117.333333 117.333333 0 0 1 245.333333 128h533.333334z m-170.666667 362.666667c6.912 0 13.354667 2.218667 18.56 5.973333-30.08 14.464-57.173333 34.218667-80 58.026667H288a32 32 0 0 1-4.352-63.701334l4.352-0.298666h320z m-320 170.666666h194.688c-6.570667 20.394667-10.88 41.813333-12.544 64H288a32 32 0 0 1-4.352-63.701333l4.352-0.298667z m448-341.333333H288l-4.352 0.298667A32 32 0 0 0 288 384h448l4.352-0.298667A32 32 0 0 0 736 320z m-202.666667 346.837333l19.072 18.346667a85.333333 85.333333 0 0 1 0 122.965333l-19.072 18.346667c8.533333 24.490667 20.906667 47.061333 36.394667 66.986667l25.685333-7.594667a85.333333 85.333333 0 0 1 107.093334 61.866667l7.424 30.506666a220.842667 220.842667 0 0 0 73.472 0l7.381333-30.549333a85.333333 85.333333 0 0 1 107.136-61.824l25.685333 7.594667c15.445333-19.925333 27.818667-42.496 36.394667-66.986667l-19.072-18.346667a85.333333 85.333333 0 0 1 0-122.965333l19.072-18.346667a236.544 236.544 0 0 0-36.394667-66.986666l-25.685333 7.594666a85.333333 85.333333 0 0 1-107.093333-61.866666l-7.424-30.506667a220.757333 220.757333 0 0 0-73.514667 0l-7.338667 30.549333a85.333333 85.333333 0 0 1-107.136 61.824l-25.685333-7.594666a236.544 236.544 0 0 0-36.394667 66.986666z m213.333334 143.829334c-34.133333 0-61.866667-28.672-61.866667-64S712.533333 682.666667 746.666667 682.666667c34.133333 0 61.866667 28.672 61.866666 64S780.8 810.666667 746.666667 810.666667z" /></svg>