<svg class="icon" style="width: 1em;height: 1em;vertical-align: middle;fill: currentColor;overflow: hidden;" viewBox="0 0 1024 1024" version="1.1" xmlns="http://www.w3.org/2000/svg"><path d="M533.333333 138.666667a32 32 0 0 0-64 0v362.666666a32 32 0 0 0 64 0V341.333333H597.333333a32 32 0 0 0 0-64h-64V138.666667z m-373.333333 10.666666a32 32 0 1 0 0 64h181.12c-6.912 69.717333-56.661333 174.592-190.293333 214.698667a32 32 0 0 0 18.346666 61.269333c187.306667-56.192 244.309333-219.733333 236.032-310.869333A32 32 0 0 0 373.333333 149.333333h-213.333333z m693.418667 768h-128.853334l232.362667-232.405333a83.2 83.2 0 0 0 0.085333-117.717333l-116.224-116.181334a83.2 83.2 0 0 0-117.717333 0.042667l-271.957333 272a83.2 83.2 0 0 0-0.085334 117.717333l116.224 116.224a82.773333 82.773333 0 0 0 51.541334 24.021334L618.666667 981.333333H853.333333a32 32 0 0 0 0-64z m-262.442667-243.626666l177.365333-177.365334a19.2 19.2 0 0 1 27.178667-0.085333l116.224 116.224a19.2 19.2 0 0 1-0.042667 27.221333l-177.365333 177.322667-143.36-143.36z m-94.634667 94.634666l49.365334-49.365333 143.36 143.36-49.365334 49.322667a19.2 19.2 0 0 1-27.178666 0.085333l-116.224-116.224a19.2 19.2 0 0 1 0.042666-27.178667z" /></svg>