<svg class="icon" style="width: 1em;height: 1em;vertical-align: middle;fill: currentColor;overflow: hidden;" viewBox="0 0 1024 1024" version="1.1" xmlns="http://www.w3.org/2000/svg"><path d="M341.333333 117.333333a32 32 0 0 0-64 0V170.666667H117.333333a32 32 0 0 0-32 32v64a32 32 0 0 0 64 0V234.666667h298.666667v32a32 32 0 0 0 64 0v-64a32 32 0 0 0-32-32H341.333333V117.333333z m-170.666666 213.333334A32 32 0 0 1 202.666667 298.666667h192a32 32 0 0 1 25.002666 52.010666L341.76 448h138.24a32 32 0 0 1 0 64H341.333333v81.365333c0 72.533333-81.578667 114.986667-140.970666 73.386667l-16.042667-11.221333a32 32 0 1 1 36.693333-52.394667l16.042667 11.221333a25.6 25.6 0 0 0 40.277333-20.992V512H117.333333a32 32 0 0 1 0-64H277.333333v-10.666667a32 32 0 0 1 6.997334-20.010666L328.106667 362.666667H202.666667A32 32 0 0 1 170.666667 330.666667z m225.28 489.386666l81.92 81.877334 190.890666-229.12a32 32 0 0 1 49.152 41.002666l-213.333333 256a32 32 0 0 1-47.189333 2.133334l-106.666667-106.666667a32 32 0 1 1 45.226667-45.226667z m321.109333-629.162666l-160.128 405.12-1.322667 4.181333a32 32 0 0 0 19.328 37.376l4.138667 1.28a32 32 0 0 0 37.376-19.285333L658.901333 512h175.488l42.496 107.776 1.877334 3.925333a32 32 0 0 0 57.685333-27.434666l-159.872-405.333334-2.133333-4.48c-12.885333-22.442667-47.36-20.949333-57.386667 4.437334z m-32.853333 257.109333l62.592-158.208 62.336 158.208h-124.928z" /></svg>