<svg class="icon" style="width: 1em;height: 1em;vertical-align: middle;fill: currentColor;overflow: hidden;" viewBox="0 0 1024 1024" version="1.1" xmlns="http://www.w3.org/2000/svg"><path d="M703.488 189.013333a32 32 0 0 1 3.498667 45.141334L468.821333 512l214.698667 250.496c-12.885333 17.493333-23.68 38.656-29.098667 64.426667L426.666667 561.109333l-231.68 270.336a32 32 0 0 1-48.64-41.642666L384.554667 512 146.389333 234.154667a32 32 0 0 1 48.597334-41.642667L426.666667 462.848l231.68-270.336a32 32 0 0 1 45.141333-3.456zM757.333333 662.314667c0-22.528 18.944-43.648 42.069334-43.648 17.365333 0 31.36 8.106667 38.101333 18.517333 5.802667 8.96 9.301333 24.149333-3.968 46.72-6.4 10.88-16.042667 20.565333-29.098667 30.890667-6.485333 5.12-13.482667 10.112-21.034666 15.488l-3.157334 2.218666c-6.485333 4.565333-13.44 9.472-20.138666 14.506667-31.744 23.893333-66.773333 57.429333-66.773334 116.992 0 17.664 14.336 32 32 32h147.242667a32 32 0 0 0 0-64h-107.221333c6.826667-12.032 18.048-22.4 33.237333-33.834667 5.845333-4.394667 11.904-8.661333 18.432-13.312l3.328-2.304c7.594667-5.418667 15.786667-11.264 23.765333-17.493333 15.872-12.586667 32.426667-28.074667 44.586667-48.725333 23.765333-40.448 23.296-81.962667 2.474667-114.005334C871.253333 571.733333 835.84 554.666667 799.402667 554.666667c-63.061333 0-106.069333 54.528-106.069334 107.648a32 32 0 0 0 64 0z" /></svg>