<svg class="icon" style="width: 1em;height: 1em;vertical-align: middle;fill: currentColor;overflow: hidden;" viewBox="0 0 1024 1024" version="1.1" xmlns="http://www.w3.org/2000/svg"><path d="M266.666667 682.666667a32 32 0 0 0 0 64h384a32 32 0 0 0 0-64h-384z m641.28-203.946667l-85.333334-85.333333a32 32 0 0 0-48.341333 41.642666l3.114667 3.584 62.72 62.72-62.72 62.72a32 32 0 0 0 41.642666 48.341334l3.584-3.114667 85.333334-85.333333a32 32 0 0 0 3.114666-41.642667l-3.114666-3.584-85.333334-85.333333 85.333334 85.333333zM138.666667 469.333333a32 32 0 0 0 0 64h512a32 32 0 0 0 0-64h-512z m128-213.333333a32 32 0 0 0 0 64h384a32 32 0 0 0 0-64h-384z" /></svg>