<svg class="icon" style="width: 1em;height: 1em;vertical-align: middle;fill: currentColor;overflow: hidden;" viewBox="0 0 1024 1024" version="1.1" xmlns="http://www.w3.org/2000/svg"><path d="M328.832 149.333333a32 32 0 0 0-59.989333-0.853333l-256 661.333333a32 32 0 1 0 59.690666 23.04l66.389334-171.52h303.701333l60.586667 170.666667a32 32 0 1 0 60.288-21.333333l-234.666667-661.333334zM163.712 597.333333L297.386667 252.032 419.84 597.333333H163.712zM629.333333 138.666667A32 32 0 0 0 597.333333 170.666667v650.666666c0 17.664 14.336 32 32 32h176a197.333333 197.333333 0 0 0 85.589334-375.168A192 192 0 0 0 768 138.666667h-138.666667zM896 330.666667a128 128 0 0 1-128 128h-106.666667v-256H768a128 128 0 0 1 128 128zM805.333333 789.333333H661.333333v-266.666666h144a133.333333 133.333333 0 1 1 0 266.666666z" /></svg>