<svg class="icon" style="width: 1em;height: 1em;vertical-align: middle;fill: currentColor;overflow: hidden;" viewBox="0 0 1024 1024" version="1.1" xmlns="http://www.w3.org/2000/svg"><path d="M288 192h618.666667a32 32 0 0 0 4.352-63.701333L906.666667 128H288a32 32 0 0 0-4.352 63.701333l4.352 0.298667zM288 832h618.666667a32 32 0 0 0 4.352-63.701333L906.666667 768H288a32 32 0 0 0-4.352 63.701333l4.352 0.298667zM586.666667 341.333333a32 32 0 0 0 0 64h320a32 32 0 0 0 0-64h-320zM554.666667 586.666667a32 32 0 0 1 32-32h320a32 32 0 0 1 0 64h-320a32 32 0 0 1-32-32zM469.333333 490.666667a192 192 0 1 1-384 0 192 192 0 0 1 384 0z m-85.333333 0a21.333333 21.333333 0 0 0-21.333333-21.333334h-170.666667a21.333333 21.333333 0 0 0 0 42.666667h170.666667a21.333333 21.333333 0 0 0 21.333333-21.333333z" /></svg>