<svg class="icon" style="width: 1em;height: 1em;vertical-align: middle;fill: currentColor;overflow: hidden;" viewBox="0 0 1024 1024" version="1.1" xmlns="http://www.w3.org/2000/svg"><path d="M288 896a32 32 0 0 1-32-32V237.226667l-30.72 30.72a32 32 0 0 1-45.226667-45.226667l85.333334-85.333333a32 32 0 0 1 45.226666 0l85.333334 85.333333a32 32 0 0 1-45.226667 45.226667l-30.72-30.72v626.773333a32 32 0 0 1-32 32z m182.613333-2.261333l405.162667-160.128c25.386667-10.069333 26.88-44.501333 4.437333-57.386667l-4.48-2.133333-405.333333-159.872a32 32 0 0 0-27.434667 57.685333l3.925334 1.834667 107.776 42.538666v175.488l-107.52 42.453334a32 32 0 0 0-19.370667 37.376l1.322667 4.138666a32 32 0 0 0 37.376 19.328l4.181333-1.28z m306.261334-189.866667L618.666667 766.464v-124.928l158.208 62.336zM661.333333 480a32 32 0 0 0 64 0V237.226667l30.72 30.72a32 32 0 1 0 45.226667-45.226667l-85.333333-85.333333a32 32 0 0 0-45.226667 0l-85.333333 85.333333a32 32 0 0 0 45.226666 45.226667l30.72-30.72v242.773333z" /></svg>