<svg class="icon" style="width: 1em;height: 1em;vertical-align: middle;fill: currentColor;overflow: hidden;" viewBox="0 0 1024 1024" version="1.1" xmlns="http://www.w3.org/2000/svg"><path d="M256 117.333333a32 32 0 0 0-61.184-13.098666l-0.085333 0.128a61.866667 61.866667 0 0 1-2.858667 5.632 176.042667 176.042667 0 0 1-10.154667 16.384c-9.258667 13.354667-22.357333 28.288-38.656 38.485333a32 32 0 1 0 33.877334 54.272c5.333333-3.328 10.368-6.869333 15.061333-10.581333V309.333333a32 32 0 0 0 64 0v-192zM874.666667 800a32 32 0 0 0-32-32h-384a32 32 0 0 0 0 64h384a32 32 0 0 0 32-32zM874.666667 522.410667a32 32 0 0 0-32-32h-384a32 32 0 1 0 0 64h384a32 32 0 0 0 32-32zM874.666667 245.333333a32 32 0 0 0-32-32h-384a32 32 0 0 0 0 64h384a32 32 0 0 0 32-32zM219.733333 448.853333c-12.8-2.261333-28.842667 2.816-37.12 11.093334a32 32 0 1 1-45.226666-45.226667c23.722667-23.722667 61.013333-34.645333 93.525333-28.885333 16.938667 2.986667 34.346667 10.837333 47.573333 25.813333 13.482667 15.274667 20.181333 35.2 20.181334 57.685333 0 26.453333-11.562667 46.08-25.856 60.586667-11.861333 12.074667-26.88 21.802667-38.656 29.397333l-3.413334 2.176a250.88 250.88 0 0 0-20.522666 14.506667H266.666667a32 32 0 0 1 0 64h-106.666667a32 32 0 0 1-32-32c0-56.064 41.984-83.328 67.2-99.712l2.56-1.706667c13.568-8.746667 22.741333-14.72 29.44-21.504 5.717333-5.802667 7.466667-10.154667 7.466667-15.744 0-9.514667-2.602667-13.568-4.181334-15.36a17.92 17.92 0 0 0-10.709333-5.12zM126.72 907.946667s3.968 3.584 0.170667 0.213333l0.256 0.213333 0.554666 0.554667a60.842667 60.842667 0 0 0 6.4 5.333333c4.053333 2.986667 9.685333 6.741333 16.938667 10.368 14.549333 7.253333 35.413333 14.037333 62.293333 14.037334 27.306667 0 51.029333-7.722667 68.309334-23.04 17.408-15.36 26.026667-36.565333 25.386666-57.984A75.733333 75.733333 0 0 0 288.853333 810.666667c11.050667-13.013333 17.578667-29.226667 18.176-46.976a73.813333 73.813333 0 0 0-25.386666-58.026667C264.362667 690.389333 240.64 682.666667 213.333333 682.666667c-26.88 0-47.744 6.741333-62.293333 14.08a110.592 110.592 0 0 0-21.76 14.250666 60.842667 60.842667 0 0 0-1.578667 1.408l-0.554666 0.554667-0.256 0.213333-0.085334 0.128H126.72l-0.042667 0.085334a32 32 0 0 0 44.714667 45.738666 46.933333 46.933333 0 0 1 8.192-5.162666c6.784-3.413333 17.92-7.296 33.706667-7.296 15.36 0 22.869333 4.266667 25.941333 6.997333 2.986667 2.602667 3.84 5.418667 3.754667 7.978667a13.866667 13.866667 0 0 1-5.248 9.813333c-3.797333 3.285333-11.221333 7.210667-24.448 7.210667a32 32 0 0 0 0 64c13.226667 0 20.650667 3.925333 24.448 7.168 3.882667 3.413333 5.162667 7.082667 5.248 9.856a9.898667 9.898667 0 0 1-3.754667 7.978666c-3.072 2.730667-10.538667 6.997333-25.941333 6.997334a74.666667 74.666667 0 0 1-33.706667-7.253334 46.933333 46.933333 0 0 1-8.192-5.205333 32 32 0 0 0-44.714667 45.738667z m0.085333-194.688l-0.042666 0.085333c0.298667-0.256 8.533333-7.168 0-0.085333z" /></svg>