<svg class="icon" style="width: 1em;height: 1em;vertical-align: middle;fill: currentColor;overflow: hidden;" viewBox="0 0 1024 1024" version="1.1" xmlns="http://www.w3.org/2000/svg"><path d="M725.333333 829.44l137.386667-137.386667a32 32 0 1 1 45.226667 45.226667l-192 192a32 32 0 0 1-45.226667 0l-192-192a32 32 0 1 1 45.226667-45.226667l137.386666 137.386667V117.333333a32 32 0 0 1 64 0v712.106667zM301.738667 85.333333a32 32 0 0 1 29.738666 20.778667l135.850667 362.666667a32 32 0 0 1-59.946667 22.442666L375.210667 405.333333H223.488l-33.706667 86.314667a32 32 0 0 1-59.605333-23.296l141.525333-362.666667A32 32 0 0 1 301.738667 85.333333z m-0.853334 121.6L248.448 341.333333h102.826667l-50.346667-134.4zM202.666667 554.666667a32 32 0 1 0 0 64h144.554666l-171.562666 270.890666a32 32 0 0 0 27.008 49.066667H405.333333a32 32 0 1 0 0-64H260.821333l171.562667-270.848A32 32 0 0 0 405.333333 554.666667H202.666667z" /></svg>