<svg class="icon" style="width: 1em;height: 1em;vertical-align: middle;fill: currentColor;overflow: hidden;" viewBox="0 0 1024 1024" version="1.1" xmlns="http://www.w3.org/2000/svg"><path d="M373.333333 213.333333a32 32 0 0 0 0 64h277.333334a32 32 0 0 0 0-64h-277.333334zM373.333333 384a32 32 0 0 0 0 64h277.333334a32 32 0 0 0 0-64h-277.333334zM341.333333 586.666667a32 32 0 0 1 32-32h277.333334a32 32 0 0 1 0 64h-277.333334a32 32 0 0 1-32-32zM373.333333 725.333333a32 32 0 0 0 0 64h277.333334a32 32 0 0 0 0-64h-277.333334z" /></svg>