<svg class="icon" style="width: 1em;height: 1em;vertical-align: middle;fill: currentColor;overflow: hidden;" viewBox="0 0 1024 1024" version="1.1" xmlns="http://www.w3.org/2000/svg"><path d="M330.666667 160a32 32 0 0 0-64 0v320a32 32 0 0 0 64 0V277.333333H341.333333A32 32 0 1 0 341.333333 213.333333h-10.666666V160z m608 0a32 32 0 0 0-64 0v320a32 32 0 0 0 64 0V277.333333h10.666666a32 32 0 0 0 0-64H938.666667V160zM608 128a32 32 0 0 1 32 32V213.333333h10.666667a32 32 0 0 1 0 64H640v202.666667a32 32 0 0 1-64 0v-320a32 32 0 0 1 32-32zM42.666667 202.666667A32 32 0 0 1 74.666667 170.666667h128a32 32 0 0 1 32 32c0 72.106667-35.754667 182.485333-146.986667 231.893333a32 32 0 1 1-26.026667-58.453333C128.085333 346.624 158.976 286.293333 167.893333 234.666667H74.666667A32 32 0 0 1 42.666667 202.666667z m467.84-1.024a32 32 0 0 0-61.013334-19.285334l-64 202.666667a32 32 0 0 0 36.778667 41.045333l106.666667-21.333333a32 32 0 0 0-12.544-62.762667l-53.546667 10.666667 47.658667-150.997333z m193.493333 1.877333a32 32 0 0 1 32-32h64a32 32 0 0 1 0 64H768v118.186667l45.568-11.392a32 32 0 0 1 15.530667 62.08l-85.333334 21.333333a32 32 0 0 1-39.765333-31.061333V203.52z m-226.133333 570.410667l-81.92-81.92a32 32 0 0 0-45.226667 45.269333l106.666667 106.666667a32 32 0 0 0 47.189333-2.133334l213.333333-256a32 32 0 0 0-49.152-40.96L477.866667 773.930667z" /></svg>