<svg class="icon" style="width: 1em;height: 1em;vertical-align: middle;fill: currentColor;overflow: hidden;" viewBox="0 0 1024 1024" version="1.1" xmlns="http://www.w3.org/2000/svg"><path d="M170.666667 202.666667A32 32 0 0 1 202.666667 170.666667h533.333333a32 32 0 0 1 32 32v85.333333a32 32 0 0 1-64 0V234.666667h-202.666667v382.549333A276.096 276.096 0 0 0 469.333333 746.666667c0 37.802667 7.552 73.813333 21.248 106.666666H373.333333a32 32 0 0 1 0-64h64v-554.666666H234.666667v53.333333a32 32 0 0 1-64 0v-85.333333zM981.333333 746.666667a234.666667 234.666667 0 1 0-469.333333 0 234.666667 234.666667 0 0 0 469.333333 0z m-213.333333 21.333333l0.042667 106.794667a21.333333 21.333333 0 1 1-42.666667 0V768h-106.88a21.333333 21.333333 0 0 1 0-42.666667H725.333333v-106.666666a21.333333 21.333333 0 1 1 42.666667 0V725.333333h106.538667a21.333333 21.333333 0 0 1 0 42.666667H768z" /></svg>