<svg class="icon" style="width: 1em;height: 1em;vertical-align: middle;fill: currentColor;overflow: hidden;" viewBox="0 0 1024 1024" version="1.1" xmlns="http://www.w3.org/2000/svg"><path d="M704.426667 128a32 32 0 0 1 29.738666 21.333333l234.666667 661.333334a32 32 0 0 1-60.330667 21.333333l-60.586666-170.666667h-303.658667l-66.432 171.52a32 32 0 1 1-59.648-23.04l256-661.333333a32 32 0 0 1 30.293333-20.48z m-1.706667 124.032L568.96 597.333333h256.213333L702.72 252.032zM234.666667 448.042667l12.245333 0.426666c83.626667 4.181333 133.461333 52.309333 136.874667 129.92L384 587.093333v234.666667a32 32 0 0 1-27.648 31.701333l-4.352 0.298667a32 32 0 0 1-31.701333-27.648L320 821.76l-0.042667-4.437333c-42.154667 24.106667-81.109333 36.437333-117.290666 36.437333-78.421333 0-138.666667-55.210667-138.666667-138.666667 0-73.557333 50.688-128.213333 134.826667-138.410666a321.237333 321.237333 0 0 1 121.130666 8.96c-0.426667-47.274667-23.722667-70.613333-76.202666-73.258667-41.045333-2.005333-69.930667 3.754667-86.826667 15.573333a32 32 0 1 1-36.736-52.394666c28.074667-19.669333 66.304-28.373333 114.474667-27.52zM320 653.824l-12.928-3.84a258.474667 258.474667 0 0 0-100.522667-8.234667c-52.565333 6.4-78.506667 34.346667-78.506666 74.922667 0 46.762667 30.378667 74.666667 74.666666 74.666667 29.013333 0 64.768-13.44 106.709334-41.130667l10.581333-7.210667v-89.173333z" /></svg>