<svg class="icon" style="width: 1em;height: 1em;vertical-align: middle;fill: currentColor;overflow: hidden;" viewBox="0 0 1024 1024" version="1.1" xmlns="http://www.w3.org/2000/svg"><path d="M725.333333 106.666667A106.666667 106.666667 0 0 1 832 213.333333v106.666667a106.666667 106.666667 0 0 1 0 213.333333V768a106.666667 106.666667 0 0 1-213.333333 0V213.333333A106.666667 106.666667 0 0 1 725.333333 106.666667zM768 768v-298.666667h64a42.666667 42.666667 0 1 0 0-85.333333H768V213.333333a42.666667 42.666667 0 1 0-85.333333 0v554.666667a42.666667 42.666667 0 1 0 85.333333 0zM106.666667 341.333333A106.666667 106.666667 0 0 1 213.333333 234.666667h256A106.666667 106.666667 0 0 1 576 341.333333c0 78.378667-14.208 184.064-64.896 274.176C456.917333 711.893333 360.106667 789.333333 213.333333 789.333333a106.666667 106.666667 0 0 1 0-213.333333c31.573333 0 53.333333-7.424 69.290667-17.536 16.341333-10.368 30.378667-25.984 42.538667-47.573333 10.368-18.389333 18.474667-39.850667 24.448-62.890667H213.333333A106.666667 106.666667 0 0 1 106.666667 341.333333z m308.736 106.666667c-7.253333 33.237333-18.432 65.792-34.474667 94.293333C348.885333 599.253333 297.984 640 213.333333 640a42.666667 42.666667 0 1 0 0 85.333333c120.149333 0 197.248-61.653333 242.005334-141.226666C498.645333 507.136 512 413.653333 512 341.333333a42.666667 42.666667 0 0 0-42.666667-42.666666H213.333333a42.666667 42.666667 0 0 0 0 85.333333h211.584c-1.749333 21.034667-4.821333 42.666667-9.514666 64z" /></svg>