<svg class="icon" style="width: 1em;height: 1em;vertical-align: middle;fill: currentColor;overflow: hidden;" viewBox="0 0 1024 1024" version="1.1" xmlns="http://www.w3.org/2000/svg"><path d="M202.666667 85.333333a32 32 0 1 0 0 64h144.512l-171.52 270.890667A32 32 0 0 0 202.666667 469.333333H405.333333a32 32 0 0 0 0-64H260.821333l171.52-270.890666A32 32 0 0 0 405.333333 85.333333H202.666667z m99.072 426.666667a32 32 0 0 0-30.037334 20.352l-141.525333 362.666667a32 32 0 0 0 59.648 23.253333l33.706667-86.272h151.68l32.170666 85.888a32 32 0 0 0 59.946667-22.442667l-135.850667-362.666666A32 32 0 0 0 301.738667 512z m-0.853334 121.6L351.232 768H248.448l52.48-134.4z m177.834667 58.453333a32 32 0 0 1 45.226667 0l137.386666 137.386667V117.333333a32 32 0 0 1 64 0v712.106667l137.386667-137.386667a32 32 0 1 1 45.226667 45.226667l-192 192a32 32 0 0 1-45.226667 0l-192-192a32 32 0 0 1 0-45.226667z" /></svg>