<svg class="icon" style="width: 1em;height: 1em;vertical-align: middle;fill: currentColor;overflow: hidden;" viewBox="0 0 1024 1024" version="1.1" xmlns="http://www.w3.org/2000/svg"><path d="M874.666667 309.888a224.853333 224.853333 0 0 1-25.898667 20.266667 32 32 0 0 1-35.498667-53.248c32.597333-21.76 56.746667-56.362667 62.122667-81.066667A32 32 0 0 1 938.666667 202.666667v277.333333a32 32 0 0 1-64 0V309.888zM85.333333 394.666667a32 32 0 0 1 32-32h149.333334a32 32 0 0 1 32 32c0 41.301333-7.082667 95.616-32.426667 143.274666-26.026667 49.024-71.381333 90.325333-143.957333 101.674667a32 32 0 1 1-9.898667-63.232c50.133333-7.850667 79.445333-34.816 97.365333-68.522667 13.312-24.96 20.309333-53.845333 23.210667-81.194666H117.333333A32 32 0 0 1 85.333333 394.666667z m256-128v512a32 32 0 0 0 64 0v-512a32 32 0 0 0-64 0z m341.333334 512v-512a32 32 0 0 1 64 0v512a32 32 0 0 1-64 0zM543.658667 303.189333a32 32 0 0 0-63.36-9.045333l-42.666667 298.666667a32 32 0 0 0 36.266667 36.181333l149.333333-21.333333a32 32 0 0 0-9.088-63.36l-107.093333 15.36 36.608-256.426667z" /></svg>