<svg class="icon" style="width: 1em;height: 1em;vertical-align: middle;fill: currentColor;overflow: hidden;" viewBox="0 0 1024 1024" version="1.1" xmlns="http://www.w3.org/2000/svg"><path d="M309.333333 682.666667a53.333333 53.333333 0 1 1 0 106.624 53.333333 53.333333 0 0 1 0-106.624z m149.333334 21.333333h448a32 32 0 0 1 4.352 63.701333L906.666667 768h-448a32 32 0 0 1-4.352-63.701333l4.352-0.298667zM138.666667 469.333333a53.333333 53.333333 0 1 1 0 106.624 53.333333 53.333333 0 0 1 0-106.624z m149.333333 21.333334h618.666667a32 32 0 0 1 4.352 63.701333L906.666667 554.666667H288a32 32 0 0 1-4.352-63.701334l4.352-0.298666zM138.666667 256a53.333333 53.333333 0 1 1 0 106.624A53.333333 53.333333 0 0 1 138.666667 256z m149.333333 21.333333h618.666667a32 32 0 0 1 4.352 63.701334L906.666667 341.333333H288a32 32 0 0 1-4.352-63.701333L288 277.333333z" /></svg>