<svg class="icon" style="width: 1em;height: 1em;vertical-align: middle;fill: currentColor;overflow: hidden;" viewBox="0 0 1024 1024" version="1.1" xmlns="http://www.w3.org/2000/svg"><path d="M856.021333 360.32a137.301333 137.301333 0 0 1-0.085333 194.176l-303.914667 303.445333a96.042667 96.042667 0 0 1-40.234666 23.978667L328.618667 936.96a42.666667 42.666667 0 0 1-52.906667-53.930667l58.112-180.394666c4.693333-14.506667 12.8-27.733333 23.552-38.528l304.341333-303.829334a137.386667 137.386667 0 0 1 194.304 0.085334z m-149.077333 45.226667l-304.341333 303.786666a32 32 0 0 0-7.850667 12.842667l-45.653333 141.781333 144.298666-43.306666a31.957333 31.957333 0 0 0 13.397334-8.021334L810.666667 509.269333a73.301333 73.301333 0 1 0-103.722667-103.765333zM347.733333 101.12l2.133334 4.48 138.794666 351.957333-49.365333 49.28L407.722667 426.666667H232.234667l-42.453334 107.52a32 32 0 0 1-37.376 19.370666l-4.181333-1.322666a32 32 0 0 1-19.285333-37.376l1.28-4.181334 160.170666-405.12c10.069333-25.386667 44.501333-26.88 57.386667-4.437333z m-27.648 103.338667L257.536 362.666667h124.928L320.128 204.458667z" /></svg>