<svg class="icon" style="width: 1em;height: 1em;vertical-align: middle;fill: currentColor;overflow: hidden;" viewBox="0 0 1024 1024" version="1.1" xmlns="http://www.w3.org/2000/svg"><path d="M458.666667 106.666667a32 32 0 0 1 32 32V277.333333H554.666667A32 32 0 0 1 554.666667 341.333333h-64v129.28L426.666667 534.570667V138.666667a32 32 0 0 1 32-32z m-18.133334 474.368l50.133334-50.090667 171.050666-170.709333a137.386667 137.386667 0 0 1 194.261334 0.085333 137.301333 137.301333 0 0 1-0.042667 194.176l-303.914667 303.445333a96 96 0 0 1-40.234666 23.978667L328.618667 936.96a42.666667 42.666667 0 0 1-52.906667-53.930667l58.112-180.437333c4.693333-14.506667 12.757333-27.733333 23.552-38.485333l83.157333-83.029334z m-37.973333 128.298666a32 32 0 0 0-7.808 12.842667l-45.653333 141.781333 144.298666-43.306666a32 32 0 0 0 13.397334-8.021334L810.666667 509.269333a73.301333 73.301333 0 1 0-103.722667-103.765333l-304.341333 303.829333zM85.333333 181.333333a32 32 0 0 1 32-32h213.333334a32 32 0 0 1 31.872 29.098667c8.277333 91.093333-48.682667 254.72-235.989334 310.869333a32 32 0 1 1-18.389333-61.269333C241.792 387.925333 291.541333 283.050667 298.453333 213.333333H117.333333A32 32 0 0 1 85.333333 181.333333z" /></svg>