<svg class="icon" style="width: 1em;height: 1em;vertical-align: middle;fill: currentColor;overflow: hidden;" viewBox="0 0 1024 1024" version="1.1" xmlns="http://www.w3.org/2000/svg"><path d="M576 128a234.666667 234.666667 0 1 0 0 469.333333H640v307.541334c0 18.645333 14.336 33.792 32 33.792s32-15.146667 32-33.792V192H768v712.874667c0 18.645333 14.336 33.792 32 33.792s32-15.146667 32-33.792V192h23.253333l5.546667-0.298667c19.882667-2.133333 35.2-15.488 35.2-31.701333 0-17.664-18.218667-32-40.746667-32H576z m0 64H640v341.333333h-64a170.666667 170.666667 0 0 1 0-341.333333zM174.08 505.898667a28.501333 28.501333 0 0 1-38.314667-41.941334L208.896 384 135.765333 304.042667l-2.645333-3.285334a28.501333 28.501333 0 0 1 44.074667-35.84l91.562666 99.541334 2.773334 3.456a28.501333 28.501333 0 0 1-2.773334 35.626666l-91.562666 99.541334-3.114667 2.816zM230.442667 847.274667a28.501333 28.501333 0 0 0 38.314666-41.984L195.626667 725.333333 268.8 645.376l2.645333-3.285333a28.501333 28.501333 0 0 0-44.074666-35.84l-91.562667 99.541333-2.773333 3.456a28.501333 28.501333 0 0 0 2.773333 35.626667l91.562667 99.541333 3.114666 2.858667z" /></svg>