<svg class="icon" style="width: 1em;height: 1em;vertical-align: middle;fill: currentColor;overflow: hidden;" viewBox="0 0 1024 1024" version="1.1" xmlns="http://www.w3.org/2000/svg"><path d="M835.84 216.789333a31.829333 31.829333 0 0 0-34.517333 3.584 32.042667 32.042667 0 0 0-10.624 15.658667c-29.44 87.509333-87.765333 145.450667-135.168 173.866667a32 32 0 0 0 32.938666 54.869333c33.024-19.797333 69.248-50.346667 100.864-91.562667v405.461334a32 32 0 0 0 64 0V246.272a32 32 0 0 0-17.493333-29.44zM149.333333 245.333333a32 32 0 0 0-64 0v533.333334a32 32 0 0 0 64 0V533.333333H426.666667v245.333334a32 32 0 0 0 64 0V245.333333a32 32 0 0 0-64 0V469.333333H149.333333V245.333333z" /></svg>