<svg class="icon" style="width: 1em;height: 1em;vertical-align: middle;fill: currentColor;overflow: hidden;" viewBox="0 0 1024 1024" version="1.1" xmlns="http://www.w3.org/2000/svg"><path d="M586.666667 128a32 32 0 0 1 32 32v351.445333c29.226667-26.368 66.304-42.112 106.666666-42.112 94.293333 0 170.666667 85.973333 170.666667 192S819.626667 853.333333 725.333333 853.333333c-40.362667 0-77.44-15.786667-106.666666-42.112v10.112a32 32 0 0 1-64 0V160a32 32 0 0 1 32-32z m32 533.333333c0 77.994667 54.613333 128 106.666666 128s106.666667-50.005333 106.666667-128-54.613333-128-106.666667-128-106.666667 50.005333-106.666666 128z m-298.666667-213.290666l12.245333 0.426666c83.626667 4.181333 133.461333 52.309333 136.874667 129.92l0.213333 8.704v234.666667a32 32 0 0 1-27.648 31.701333l-4.352 0.298667a32 32 0 0 1-31.701333-27.648L405.333333 821.76l-0.042666-4.437333c-42.154667 24.106667-81.109333 36.437333-117.290667 36.437333-78.421333 0-138.666667-55.210667-138.666667-138.666667 0-73.557333 50.688-128.213333 134.826667-138.410666a321.237333 321.237333 0 0 1 121.130667 8.96c-0.426667-47.274667-23.722667-70.613333-76.202667-73.258667-41.045333-2.005333-69.930667 3.754667-86.826667 15.573333a32 32 0 1 1-36.736-52.394666c28.074667-19.669333 66.304-28.373333 114.474667-27.52zM405.333333 653.824l-12.928-3.84a258.474667 258.474667 0 0 0-100.522666-8.234667c-52.565333 6.4-78.506667 34.346667-78.506667 74.922667 0 46.762667 30.378667 74.666667 74.666667 74.666667 29.013333 0 64.768-13.44 106.709333-41.130667l10.581333-7.210667v-89.173333z" /></svg>