<svg class="icon" style="width: 1em;height: 1em;vertical-align: middle;fill: currentColor;overflow: hidden;" viewBox="0 0 1024 1024" version="1.1" xmlns="http://www.w3.org/2000/svg"><path d="M170.666667 768a85.333333 85.333333 0 1 1 0 170.666667 85.333333 85.333333 0 0 1 0-170.666667z m0 64a21.333333 21.333333 0 1 0 0 42.666667 21.333333 21.333333 0 0 0 0-42.666667zM405.333333 640a106.666667 106.666667 0 1 1 0 213.333333 106.666667 106.666667 0 0 1 0-213.333333z m0 64a42.666667 42.666667 0 1 0 0 85.333333 42.666667 42.666667 0 0 0 0-85.333333zM504.448 85.333333a230.997333 230.997333 0 0 1 227.413333 190.72h3.498667a160.64 160.64 0 1 1 0 321.28H273.578667a160.64 160.64 0 1 1 0-321.28h3.456A230.997333 230.997333 0 0 1 504.448 85.333333z m0.256 63.914667a167.552 167.552 0 0 0-167.381333 159.061333 29.568 29.568 0 0 1-29.525334 28.117334h-29.866666a98.56 98.56 0 1 0 0 196.992h453.546666a98.56 98.56 0 1 0 0-196.992h-29.866666a29.568 29.568 0 0 1-29.525334-28.117334 167.552 167.552 0 0 0-167.381333-159.061333z" /></svg>