<svg class="icon" style="width: 1em;height: 1em;vertical-align: middle;fill: currentColor;overflow: hidden;" viewBox="0 0 1024 1024" version="1.1" xmlns="http://www.w3.org/2000/svg"><path d="M704 767.36c0 104.192-48.64 179.114667-128.298667 179.114667-41.6 0-57.216-23.125333-72.106666-76.586667l-8.832-32.938667c-4.309333-15.317333-11.818667-41.386667-22.485334-78.122666a10.624 10.624 0 0 0-1.28-2.773334l-122.282666-191.402666a251.136 251.136 0 0 0-121.813334-99.285334l-20.181333-7.68A117.333333 117.333333 0 0 1 133.546667 325.717333l17.237333-89.045333A138.666667 138.666667 0 0 1 253.866667 128.469333l325.461333-79.786666a202.666667 202.666667 0 0 1 244.608 146.773333l60.373333 236.8a138.666667 138.666667 0 0 1-134.4 172.885333h-77.738666c21.162667 69.674667 31.829333 123.434667 31.829333 162.218667zM196.266667 337.92a53.333333 53.333333 0 0 0 33.28 59.946667l20.224 7.765333a315.093333 315.093333 0 0 1 152.832 124.586667l122.325333 191.36c3.84 5.973333 6.784 12.544 8.746667 19.370666l23.552 81.92 9.045333 33.792c5.973333 20.821333 8.96 25.813333 9.386667 25.813334 37.034667 0 64.298667-41.984 64.298666-115.114667 0-37.76-13.909333-99.669333-41.984-184.106667a32 32 0 0 1 30.336-42.112h121.6a74.709333 74.709333 0 0 0 72.362667-93.098666l-60.373333-236.8a138.666667 138.666667 0 0 0-167.381334-100.394667l-325.461333 79.786667a74.666667 74.666667 0 0 0-55.509333 58.282666L196.266667 337.92z" /></svg>