<svg class="icon" style="width: 1em;height: 1em;vertical-align: middle;fill: currentColor;overflow: hidden;" viewBox="0 0 1024 1024" version="1.1" xmlns="http://www.w3.org/2000/svg"><path d="M704 221.952c0-104.192-48.64-179.157333-128.298667-179.157333-43.776 0-58.794667 25.685333-74.496 85.333333-3.2 12.330667-4.778667 18.346667-6.442666 24.234667-4.309333 15.317333-11.818667 41.386667-22.485334 78.122666a10.666667 10.666667 0 0 1-1.28 2.773334L348.757333 424.661333a251.093333 251.093333 0 0 1-121.813333 99.242667l-20.181333 7.722667a117.333333 117.333333 0 0 0-73.216 131.925333l17.237333 89.002667a138.666667 138.666667 0 0 0 103.125333 108.288l325.461334 79.786666a202.666667 202.666667 0 0 0 244.608-146.773333l60.373333-236.8a138.666667 138.666667 0 0 0-134.4-172.885333h-77.738667c21.162667-69.674667 31.829333-123.434667 31.829334-162.218667zM196.266667 651.392a53.333333 53.333333 0 0 1 33.28-59.989333l20.224-7.68a315.093333 315.093333 0 0 0 152.832-124.586667l122.325333-191.402667c3.84-6.016 6.784-12.544 8.746667-19.413333 10.752-36.906667 18.261333-63.104 22.613333-78.634667 1.877333-6.528 3.626667-13.141333 6.784-25.258666 8.106667-30.805333 12.074667-37.632 12.586667-37.632 37.034667 0 64.298667 41.984 64.298666 115.2 0 37.717333-13.909333 99.626667-41.984 184.064a32 32 0 0 0 30.336 42.112h121.6a74.709333 74.709333 0 0 1 72.362667 93.098666l-60.373333 236.8a138.666667 138.666667 0 0 1-167.381334 100.394667l-325.461333-79.786667a74.666667 74.666667 0 0 1-55.509333-58.282666L196.266667 651.392z" /></svg>