<svg class="icon" style="width: 1em;height: 1em;vertical-align: middle;fill: currentColor;overflow: hidden;" viewBox="0 0 1024 1024" version="1.1" xmlns="http://www.w3.org/2000/svg"><path d="M864 213.333333c41.216 0 74.666667 33.450667 74.666667 74.666667v96.426667c0 16.64-12.8 30.549333-29.354667 31.914666a96 96 0 0 0 0 191.317334 32 32 0 0 1 29.354667 31.914666v96.426667A74.666667 74.666667 0 0 1 864 810.666667H160A74.666667 74.666667 0 0 1 85.333333 736v-96.426667c0-16.64 12.8-30.549333 29.397334-31.914666a96 96 0 0 0 0-191.317334A32 32 0 0 1 85.333333 384.426667V288C85.333333 246.784 118.784 213.333333 160 213.333333h704z m10.666667 144.426667V288a10.666667 10.666667 0 0 0-10.666667-10.666667H160a10.666667 10.666667 0 0 0-10.666667 10.666667v69.76a160.085333 160.085333 0 0 1 0 308.48v69.76c0 5.888 4.778667 10.666667 10.666667 10.666667h704a10.666667 10.666667 0 0 0 10.666667-10.666667v-69.76a160.085333 160.085333 0 0 1-8.064-306.048l8.106666-2.432z" /></svg>