<svg class="icon" style="width: 1em;height: 1em;vertical-align: middle;fill: currentColor;overflow: hidden;" viewBox="0 0 1024 1024" version="1.1" xmlns="http://www.w3.org/2000/svg"><path d="M619.946667 153.173333a32 32 0 0 0-45.226667 0l-421.546667 421.546667a32 32 0 0 0 0 45.226667l45.610667 45.568a117.333333 117.333333 0 0 1 159.658667 159.658666L404.053333 870.826667a32 32 0 0 0 45.269334 0l421.504-421.504a32 32 0 0 0 0-45.226667L825.173333 358.4a117.333333 117.333333 0 0 1-159.658666-159.658667L619.946667 153.173333zM529.493333 107.946667a96 96 0 0 1 135.765334 0l49.962666 50.005333c21.802667 21.76 17.92 52.352 6.912 70.826667a53.333333 53.333333 0 0 0 73.088 73.088c18.474667-10.965333 49.066667-14.890667 70.826667 6.912L916.053333 358.826667a96 96 0 0 1 0 135.765333l-421.461333 421.461333a96 96 0 0 1-135.765333 0l-50.005334-49.962666c-21.76-21.76-17.92-52.394667-6.912-70.826667a53.333333 53.333333 0 0 0-73.088-73.088c-18.474667 10.965333-49.066667 14.848-70.826666-6.954667L107.946667 665.216a96 96 0 0 1 0-135.765333L529.493333 107.946667z" /></svg>