<svg class="icon" style="width: 1em;height: 1em;vertical-align: middle;fill: currentColor;overflow: hidden;" viewBox="0 0 1024 1024" version="1.1" xmlns="http://www.w3.org/2000/svg"><path d="M512 213.333333a362.666667 362.666667 0 1 1 0 725.333334 362.666667 362.666667 0 0 1 0-725.333334z m0 64a298.666667 298.666667 0 1 0 0 597.333334 298.666667 298.666667 0 0 0 0-597.333334zM512 341.333333a32 32 0 0 1 31.701333 27.648l0.298667 4.352v192a32 32 0 0 1-63.701333 4.352l-0.298667-4.352v-192A32 32 0 0 1 512 341.333333z m304.938667-123.136l3.541333 2.56 49.408 41.130667a32 32 0 0 1-37.418667 51.712l-3.498666-2.56-49.450667-41.130667a32 32 0 0 1 37.418667-51.712zM608 106.666667a32 32 0 0 1 4.352 63.701333L608 170.666667h-192a32 32 0 0 1-4.352-63.701334L416 106.666667h192z" /></svg>