<svg class="icon" style="width: 1em;height: 1em;vertical-align: middle;fill: currentColor;overflow: hidden;" viewBox="0 0 1024 1024" version="1.1" xmlns="http://www.w3.org/2000/svg"><path d="M511.829333 811.093333a32 32 0 0 1 31.701334 27.648l0.298666 4.352v64a32 32 0 0 1-63.701333 4.352l-0.298667-4.352v-64a32 32 0 0 1 32-32z m256.938667-88.448l45.226667 45.269334a32 32 0 0 1-45.226667 45.226666l-45.269333-45.226666a32 32 0 1 1 45.226666-45.226667z m-468.650667 0a32 32 0 0 1 0 45.269334l-45.226666 45.226666a32 32 0 1 1-45.226667-45.226666l45.226667-45.226667a32 32 0 0 1 45.226666 0zM512 276.309333a235.733333 235.733333 0 1 1 0 471.466667 235.733333 235.733333 0 0 1 0-471.466667z m0 64a171.733333 171.733333 0 1 0 0 343.466667 171.733333 171.733333 0 0 0 0-343.466667zM480 384a32 32 0 0 1 31.701333 27.648L512 416v96.128h53.333333a32 32 0 0 1 31.701334 27.690667l0.256 4.352a32 32 0 0 1-27.648 31.701333l-4.352 0.298667h-85.333334a32 32 0 0 1-31.658666-27.690667l-0.298667-4.309333V416a32 32 0 0 1 32-32z m426.666667 96.768a32 32 0 0 1 4.309333 63.701333l-4.309333 0.298667h-64a32 32 0 0 1-4.352-63.701333l4.352-0.298667h64z m-725.333334-1.237333a32 32 0 0 1 4.352 63.701333l-4.352 0.298667h-64a32 32 0 0 1-4.352-63.701334l4.352-0.298666h64z m69.973334-271.786667l3.584 3.072L300.117333 256a32 32 0 0 1-41.642666 48.384l-3.584-3.114667-45.226667-45.226666a32 32 0 0 1 41.642667-48.384z m562.688 3.072a32 32 0 0 1 3.114666 41.642667l-3.114666 3.584-45.226667 45.269333a32 32 0 0 1-48.384-41.642667L723.498667 256l45.226666-45.226667a32 32 0 0 1 45.269334 0zM512 84.864a32 32 0 0 1 31.701333 27.648l0.298667 4.352v64a32 32 0 0 1-63.701333 4.352l-0.298667-4.352v-64a32 32 0 0 1 32-32z" /></svg>