<svg class="icon" style="width: 1em;height: 1em;vertical-align: middle;fill: currentColor;overflow: hidden;" viewBox="0 0 1024 1024" version="1.1" xmlns="http://www.w3.org/2000/svg"><path d="M139.946667 94.72a32 32 0 1 0-45.226667 45.226667l170.368 170.410666a362.666667 362.666667 0 1 0 512.554667 512.554667l106.368 106.410667a32 32 0 0 0 45.269333-45.269334L139.946667 94.72z m592.384 682.88a298.666667 298.666667 0 1 1-421.973334-421.973333l169.642667 169.642666v40.064l0.298667 4.352a32 32 0 0 0 58.026666 13.866667l194.005334 194.048zM487.978667 352.213333l56.021333 56.021334V373.333333l-0.298667-4.352a32 32 0 0 0-55.722666-16.768zM810.666667 576a298.666667 298.666667 0 0 1-12.629334 86.272l50.090667 50.133333A362.666667 362.666667 0 0 0 375.594667 239.872l50.133333 50.090667A298.666667 298.666667 0 0 1 810.666667 576zM816.938667 218.197333l3.541333 2.56 49.408 41.130667a32 32 0 0 1-37.418667 51.712l-3.498666-2.56-49.450667-41.130667a32 32 0 0 1 37.418667-51.712zM608 106.666667a32 32 0 0 1 4.352 63.701333L608 170.666667h-192a32 32 0 0 1-4.352-63.701334L416 106.666667h192z" /></svg>