<svg class="icon" style="width: 1em;height: 1em;vertical-align: middle;fill: currentColor;overflow: hidden;" viewBox="0 0 1024 1024" version="1.1" xmlns="http://www.w3.org/2000/svg"><path d="M512 213.248a362.666667 362.666667 0 0 1 359.765333 408.661333 148.608 148.608 0 0 0-61.994666-23.296 298.666667 298.666667 0 1 0-158.890667 241.792 146.346667 146.346667 0 0 0-10.794667 55.552v10.624l0.384 7.168 0.213334 1.365334A362.666667 362.666667 0 1 1 512 213.248z m277.461333 426.666667a106.666667 106.666667 0 0 1 7.04 213.12l-7.04 0.213333a42.666667 42.666667 0 0 0-36.096 19.797333l-0.853333 1.493334h111.616a32 32 0 0 1 31.744 27.690666l0.256 4.352a32 32 0 0 1-27.648 31.701334l-4.352 0.298666h-149.376a32 32 0 0 1-31.744-27.690666l-0.256-4.309334v-10.666666a106.709333 106.709333 0 0 1 99.669333-106.453334l7.04-0.213333a42.666667 42.666667 0 0 0 4.992-85.077333l-4.992-0.256h-10.709333a32 32 0 0 0-31.744 27.648l-0.256 4.352a32 32 0 0 1-64 0 96 96 0 0 1 89.429333-95.786667l6.570667-0.213333h10.709333zM512 341.333333a32 32 0 0 1 31.701333 27.648l0.298667 4.352v192a32 32 0 0 1-63.701333 4.352l-0.298667-4.352v-192A32 32 0 0 1 512 341.333333z m305.578667-122.837333l3.413333 2.645333 48.298667 42.069334a32 32 0 0 1-38.613334 50.858666l-3.456-2.645333-48.213333-42.069333a32 32 0 0 1 38.570667-50.858667zM608 106.112a32 32 0 0 1 4.352 63.701333l-4.352 0.298667h-192a32 32 0 0 1-4.352-63.701333l4.352-0.298667h192z" /></svg>