<svg class="icon" style="width: 1em;height: 1em;vertical-align: middle;fill: currentColor;overflow: hidden;" viewBox="0 0 1024 1024" version="1.1" xmlns="http://www.w3.org/2000/svg"><path d="M707.541333 747.818667a32 32 0 0 1-4.693333 45.013333l-170.666667 138.666667a32 32 0 0 1-40.362666 0l-170.666667-138.666667a32 32 0 1 1 40.362667-49.664L512 865.450667l150.485333-122.282667a32 32 0 0 1 45.056 4.693333zM210.176 404.693333c23.168 0 40.832 7.594667 53.077333 22.826667 12.288 15.189333 18.517333 37.077333 18.816 65.536v39.082667c0 29.354667-6.058667 51.84-18.218666 67.413333-12.16 15.530667-29.952 23.296-53.333334 23.296-23.168 0-40.874667-7.637333-53.12-22.912-12.245333-15.232-18.517333-37.12-18.773333-65.621333v-39.082667c-0.042667-29.653333 6.101333-52.138667 18.389333-67.498667 12.330667-15.36 30.037333-23.04 53.162667-23.04z m171.349333 0c23.168 0 40.832 7.594667 53.12 22.826667 12.245333 15.189333 18.517333 37.077333 18.773334 65.536v39.082667c0 29.354667-6.058667 51.84-18.218667 67.413333-12.16 15.530667-29.952 23.296-53.333333 23.296-23.168 0-40.874667-7.637333-53.12-22.912-12.245333-15.232-18.517333-37.12-18.773334-65.621333v-39.082667c0-29.653333 6.101333-52.138667 18.432-67.498667 12.288-15.36 29.994667-23.04 53.12-23.04z m255.658667 0c23.125333 0 40.832 7.594667 53.077333 22.826667 12.245333 15.189333 18.517333 37.077333 18.816 65.536v39.082667c0 29.354667-6.058667 51.84-18.218666 67.413333-12.16 15.530667-29.952 23.296-53.376 23.296-23.125333 0-40.832-7.637333-53.077334-22.912-12.245333-15.232-18.517333-37.12-18.816-65.621333v-39.082667c0-29.653333 6.144-52.138667 18.432-67.498667 12.288-15.36 30.037333-23.04 53.162667-23.04z m171.349333 0c23.168 0 40.832 7.594667 53.077334 22.826667 12.245333 15.189333 18.517333 37.077333 18.816 65.536v39.082667c0 29.354667-6.058667 51.84-18.218667 67.413333-12.16 15.530667-29.952 23.296-53.376 23.296-23.125333 0-40.832-7.637333-53.077333-22.912-12.245333-15.232-18.517333-37.12-18.816-65.621333v-39.082667c0-29.653333 6.144-52.138667 18.432-67.498667 12.330667-15.36 30.037333-23.04 53.162666-23.04zM512 554.666667c6.912 0 12.629333 2.090667 17.152 6.272a21.205333 21.205333 0 0 1 6.784 16.341333 20.906667 20.906667 0 0 1-6.698667 16.128 24.362667 24.362667 0 0 1-17.194666 6.186667 24.149333 24.149333 0 0 1-17.066667-6.229334 20.906667 20.906667 0 0 1-6.741333-16.085333c0-6.698667 2.261333-12.16 6.826666-16.341333A24.064 24.064 0 0 1 512 554.666667z m-301.824-115.84c-9.898667 0-17.237333 3.84-21.930667 11.434666-4.693333 7.637333-7.253333 19.584-7.509333 35.84v51.626667c0 17.28 2.346667 30.122667 7.082667 38.528 4.693333 8.405333 12.245333 12.629333 22.656 12.629333 10.325333 0 17.749333-4.053333 22.314666-12.117333 4.565333-8.106667 6.954667-20.394667 7.168-37.034667v-50.474666c0-17.578667-2.432-30.378667-7.253333-38.4-4.778667-8.021333-12.288-12.032-22.528-12.032z m171.349333 0c-9.898667 0-17.237333 3.84-21.930666 11.434666-4.693333 7.637333-7.253333 19.584-7.509334 35.84v51.626667c0 17.28 2.346667 30.122667 7.082667 38.528 4.693333 8.405333 12.245333 12.629333 22.656 12.629333 10.325333 0 17.749333-4.053333 22.314667-12.117333 4.565333-8.106667 6.954667-20.394667 7.168-37.034667v-50.474666c0-17.578667-2.432-30.378667-7.253334-38.4-4.778667-8.021333-12.288-12.032-22.528-12.032z m255.658667 0c-9.898667 0-17.237333 3.84-21.930667 11.434666-4.693333 7.637333-7.253333 19.584-7.509333 35.84v51.626667c0 17.28 2.346667 30.122667 7.04 38.528 4.693333 8.405333 12.288 12.629333 22.698667 12.629333 10.282667 0 17.749333-4.053333 22.314666-12.117333 4.565333-8.106667 6.954667-20.394667 7.125334-37.034667v-50.474666c0-17.578667-2.389333-30.378667-7.210667-38.4-4.821333-8.021333-12.330667-12.032-22.528-12.032z m171.349333 0c-9.898667 0-17.237333 3.84-21.930666 11.434666-3.925333 6.357333-6.314667 15.701333-7.210667 28.032l-0.298667 7.765334v51.626666c0 17.322667 2.346667 30.165333 7.04 38.570667 4.736 8.405333 12.288 12.629333 22.698667 12.629333 10.325333 0 17.749333-4.053333 22.314667-12.117333 3.84-6.741333 6.101333-16.426667 6.826666-29.098667l0.341334-7.936v-50.474666c0-17.578667-2.432-30.378667-7.253334-38.4-4.821333-8.021333-12.330667-12.032-22.528-12.032zM512 435.2c6.912 0 12.629333 2.090667 17.152 6.272a21.205333 21.205333 0 0 1 6.784 16.298667 20.906667 20.906667 0 0 1-6.698667 16.128 24.362667 24.362667 0 0 1-17.194666 6.186666 24.149333 24.149333 0 0 1-17.066667-6.186666 20.906667 20.906667 0 0 1-6.741333-16.128c0-6.698667 2.261333-12.117333 6.826666-16.298667A24.064 24.064 0 0 1 512 435.2zM321.237333 231.168l170.666667-138.666667a32 32 0 0 1 36.266667-2.816l4.053333 2.816 170.666667 138.666667a32 32 0 0 1-36.437334 52.394667l-3.882666-2.730667L512 158.549333 361.514667 280.832a32 32 0 0 1-43.776-46.421333l3.413333-3.242667 170.666667-138.666667-170.666667 138.666667z" /></svg>