<svg class="icon" style="width: 1em;height: 1em;vertical-align: middle;fill: currentColor;overflow: hidden;" viewBox="0 0 1024 1024" version="1.1" xmlns="http://www.w3.org/2000/svg"><path d="M874.666667 576a362.666667 362.666667 0 1 0-242.005334 342.101333 74.666667 74.666667 0 0 1 28.8-83.456 298.666667 298.666667 0 1 1 148.309334-234.965333 174.165333 174.165333 0 0 1 62.08 21.674667A366.08 366.08 0 0 0 874.666667 576z m-330.965334-207.018667a32 32 0 0 0-63.701333 4.352v192l0.298667 4.352a32 32 0 0 0 63.701333-4.352v-192l-0.298667-4.352z m276.778667-148.224l-3.541333-2.56a32 32 0 0 0-37.418667 51.712l49.450667 41.173334 3.498666 2.56a32 32 0 0 0 37.418667-51.754667l-49.408-41.130667zM640 138.666667a32 32 0 0 0-32-32h-192l-4.352 0.298666A32 32 0 0 0 416 170.666667h192l4.352-0.298667A32 32 0 0 0 640 138.666667z m186.666667 617.984c-5.76 5.376-17.066667 11.349333-37.333334 11.349333a32 32 0 0 0 0 64c20.224 0 31.573333 5.973333 37.333334 11.349333s8.106667 12.074667 7.68 18.773334c-0.64 11.221333-12.032 33.877333-55.68 33.877333-19.84 0-32.426667-5.845333-39.594667-10.624a44.629333 44.629333 0 0 1-8.874667-7.765333 32 32 0 0 0-43.946666-8.234667c-24.917333 16-8.874667 44.373333-8.874667 44.373333l0.042667 0.085334 0.042666 0.042666 0.085334 0.128 0.213333 0.341334 0.554667 0.768 1.536 2.048a108.458667 108.458667 0 0 0 23.722666 21.461333c16.810667 11.221333 41.6 21.376 75.093334 21.376 69.205333 0 116.48-41.344 119.594666-94.122667a87.125333 87.125333 0 0 0-24.448-65.877333c17.536-18.218667 25.856-42.069333 24.448-65.877333C895.146667 681.344 847.872 640 778.666667 640c-33.493333 0-58.282667 10.154667-75.093334 21.376a108.458667 108.458667 0 0 0-23.722666 21.461333 61.098667 61.098667 0 0 0-1.536 2.048l-0.554667 0.768-0.213333 0.341334-0.085334 0.128-0.042666 0.085333-0.042667 0.042667a32 32 0 0 0 52.821333 36.138666 44.629333 44.629333 0 0 1 8.874667-7.765333c7.210667-4.778667 19.754667-10.624 39.594667-10.624 43.648 0 55.04 22.656 55.68 33.877333a23.296 23.296 0 0 1-7.68 18.773334z m-96.128 121.472l-0.213334-0.341334v0.085334l0.170667 0.170666 0.042667 0.085334z m0.085333-156.330667l-0.298667 0.426667v-0.085334l0.170667-0.170666 0.042667-0.085334 0.085333-0.085333z" /></svg>