<svg class="icon" style="width: 1em;height: 1em;vertical-align: middle;fill: currentColor;overflow: hidden;" viewBox="0 0 1024 1024" version="1.1" xmlns="http://www.w3.org/2000/svg"><path d="M266.666667 234.666667a32 32 0 0 0-32 32v42.666666a32 32 0 0 0 48.426666 27.477334A198.741333 198.741333 0 0 1 244.053333 393.386667a32 32 0 1 0 45.226667 45.226666C307.712 420.266667 362.666667 358.442667 362.666667 266.666667a32 32 0 0 0-32-32h-64z m170.666666 0a32 32 0 0 0-32 32v42.666666a32 32 0 0 0 48.426667 27.477334A198.741333 198.741333 0 0 1 414.72 393.386667a32 32 0 1 0 45.226667 45.226666c18.432-18.389333 73.386667-80.170667 73.386666-171.946666a32 32 0 0 0-32-32h-64zM85.333333 181.333333A96 96 0 0 1 181.333333 85.333333h384a96 96 0 0 1 96 96v320A96 96 0 0 1 565.333333 597.333333h-82.858666l-80.810667 153.6a32 32 0 0 1-56.661333 0L264.192 597.333333H181.333333A96 96 0 0 1 85.333333 501.333333v-320z m96-32a32 32 0 0 0-32 32v320c0 17.664 14.336 32 32 32h102.186667a32 32 0 0 1 28.288 17.066667l61.525333 116.906667 61.482667-116.906667a32 32 0 0 1 28.330667-17.066667h102.186666a32 32 0 0 0 32-32v-320a32 32 0 0 0-32-32h-384z m90.794667 554.666667H117.333333a32 32 0 0 0 0 64h188.458667l-33.706667-64z m168.746667 64H906.666667a32 32 0 0 0 0-64H474.538667l-33.706667 64zM117.333333 874.666667a32 32 0 0 0 0 64h512a32 32 0 0 0 0-64h-512z" /></svg>