<svg class="icon" style="width: 1em;height: 1em;vertical-align: middle;fill: currentColor;overflow: hidden;" viewBox="0 0 1024 1024" version="1.1" xmlns="http://www.w3.org/2000/svg"><path d="M298.666667 266.752V298.666667H181.333333A96 96 0 0 0 85.333333 394.666667v362.538666a96 96 0 0 0 96 96h661.333334a96 96 0 0 0 96-96V394.666667A96 96 0 0 0 842.666667 298.666667H725.333333v-31.914667a96 96 0 0 0-96-96h-234.666666A96 96 0 0 0 298.666667 266.752z m96-32h234.666666a32 32 0 0 1 32 32V298.666667h-298.666666v-31.914667a32 32 0 0 1 32-32z m-96 128h64V362.666667h298.666666v0.085333H725.333333V362.666667h117.333334a32 32 0 0 1 32 32v96h-128v-32a32 32 0 0 0-64 0v32H341.333333v-32a32 32 0 0 0-64 0v32h-128V394.666667a32 32 0 0 1 32-32H298.666667v0.085333zM682.666667 554.666667v53.333333a32 32 0 0 0 64 0V554.666667h128v202.538666a32 32 0 0 1-32 32H181.333333a32 32 0 0 1-32-32V554.666667h128v53.333333a32 32 0 0 0 64 0V554.666667h341.333334z" /></svg>