<svg class="icon" style="width: 1em;height: 1em;vertical-align: middle;fill: currentColor;overflow: hidden;" viewBox="0 0 1024 1024" version="1.1" xmlns="http://www.w3.org/2000/svg"><path d="M428.8 657.92l266.922667-361.6a29.610667 29.610667 0 0 1 52.693333 24.32l-1.28 4.181333-165.12 418.090667a88.32 88.32 0 1 1-159.445333-75.306667l2.944-4.949333 3.242666-4.693333 266.965334-361.642667-266.965334 361.642667z m162.133333-111.872l-110.677333 149.930667-1.706667 2.645333a24.32 24.32 0 0 0 9.472 33.109333l2.858667 1.365334a24.32 24.32 0 0 0 29.866667-10.154667l1.706666-3.541333 68.48-173.354667z m203.093334-229.717333a454.826667 454.826667 0 0 1 86.272 92.672c22.357333 31.957333 43.946667 70.656 56.32 102.314666a32 32 0 1 1-59.605334 23.338667 351.488 351.488 0 0 0-16.128-34.645333l-87.466666 50.474666a32 32 0 0 1-35.584-52.992l3.626666-2.432 86.101334-49.749333-9.813334-13.397333a390.656 390.656 0 0 0-45.141333-49.493334l16.213333-41.130666c1.621333-4.096 2.858667-8.277333 3.712-12.458667l1.024-6.272 0.426667-6.229333z m-112.213334-66.602667a73.173333 73.173333 0 0 0-17.322666 13.994667l-4.864 5.973333-23.04 31.274667a392.746667 392.746667 0 0 0-92.586667-20.053334v114.005334a32 32 0 0 1-63.701333 4.352l-0.298667-4.352v-114.773334A388.608 388.608 0 0 0 284.074667 349.866667c-34.816 24.405333-65.194667 56.405333-90.410667 94.08l88.832 51.285333a32 32 0 0 1-28.074667 57.344l-3.925333-1.92-88.490667-51.072c-5.461333 11.349333-10.496 23.04-15.189333 35.029333a32 32 0 0 1-59.648-23.168c34.432-88.533333 88.746667-163.968 160.170667-214.016a454.058667 454.058667 0 0 1 434.474666-47.658666z" /></svg>