<svg class="icon" style="width: 1em;height: 1em;vertical-align: middle;fill: currentColor;overflow: hidden;" viewBox="0 0 1024 1024" version="1.1" xmlns="http://www.w3.org/2000/svg"><path d="M512 85.333333a117.333333 117.333333 0 0 0-32 230.229334v164.437333a32 32 0 0 0 64 0V315.562667A117.376 117.376 0 0 0 512 85.333333z m-53.333333 117.333334a53.333333 53.333333 0 1 1 106.666666 0 53.333333 53.333333 0 0 1-106.666666 0zM128 277.333333a106.666667 106.666667 0 0 1 213.333333 0V426.666667h96v64H277.333333v-213.333334a42.666667 42.666667 0 0 0-85.333333 0v512a42.666667 42.666667 0 1 0 85.333333 0v-213.333333H469.333333v213.333333a42.666667 42.666667 0 1 0 85.333334 0v-213.333333h256a21.333333 21.333333 0 0 0 21.333333-21.333333V277.333333a42.666667 42.666667 0 1 0-85.333333 0v213.333334h-160V426.666667H682.666667V277.333333a106.666667 106.666667 0 0 1 213.333333 0V554.666667a85.333333 85.333333 0 0 1-85.333333 85.333333h-192v149.333333a106.666667 106.666667 0 0 1-213.333334 0V640H341.333333v149.333333a106.666667 106.666667 0 0 1-213.333333 0v-512z" /></svg>