<svg class="icon" style="width: 1em;height: 1em;vertical-align: middle;fill: currentColor;overflow: hidden;" viewBox="0 0 1024 1024" version="1.1" xmlns="http://www.w3.org/2000/svg"><path d="M723.669333 255.445333a32 32 0 0 0-60.714666-20.181333 913.92 913.92 0 0 0-17.92 64.512c-31.402667 1.109333-61.696 0.768-88.192-1.024a32 32 0 1 0-4.352 63.829333c24.021333 1.664 50.773333 2.133333 78.677333 1.621334-6.144 32.64-10.282667 61.824-12.8 88.064-51.84 27.392-87.936 64.170667-108.330667 102.912-26.154667 49.749333-28.16 109.056 8.789334 146.901333 24.362667 24.917333 60.074667 27.306667 90.837333 20.693333a199.04 199.04 0 0 0 52.906667-20.224l0.768 1.962667a32 32 0 0 0 59.946666-22.357333 410.794667 410.794667 0 0 0-7.253333-18.090667 325.546667 325.546667 0 0 0 97.493333-172.672c27.221333 13.312 45.653333 35.669333 54.528 59.733333a105.813333 105.813333 0 0 1-4.138666 83.285334c-13.141333 27.136-39.808 53.973333-85.973334 71.722666a32 32 0 1 0 22.954667 59.733334c59.178667-22.741333 99.413333-59.818667 120.618667-103.552a169.813333 169.813333 0 0 0 6.570666-133.418667 172.202667 172.202667 0 0 0-106.88-103.424c0.085333-3.114667 0.128-6.272 0.128-9.472a32 32 0 0 0-64-1.109333 253.397333 253.397333 0 0 0-71.338666 10.112c2.730667-19.413333 6.314667-40.661333 10.965333-64 50.56-3.797333 100.864-10.752 142.378667-20.48a32 32 0 0 0-14.677334-62.293334c-32.725333 7.68-72.106667 13.525333-112.512 17.28 3.626667-14.08 7.68-28.586667 11.52-40.106666z m-157.013333 329.514667c9.685333-18.346667 25.6-37.802667 48.938667-55.466667 0.725333 20.992 2.773333 39.509333 5.845333 56.192 4.010667 22.186667 10.069333 41.557333 16.469333 58.581334-13.056 7.296-26.965333 12.8-41.685333 15.957333-20.693333 4.437333-29.312-0.512-31.658667-2.901333-10.24-10.453333-16.810667-36.394667 2.133334-72.362667z m184.106667-106.112a283.648 283.648 0 0 1-60.330667 121.514667 266.24 266.24 0 0 1-6.058667-26.112 367.701333 367.701333 0 0 1-4.736-79.616c4.693333-1.792 9.472-3.498667 14.464-5.12a201.301333 201.301333 0 0 1 56.661334-10.666667zM339.626667 278.613333a258.858667 258.858667 0 0 0-195.2 19.925334 32 32 0 1 0 30.933333 56.021333 194.986667 194.986667 0 0 1 146.389333-14.506667c32.981333 9.685333 46.848 27.306667 53.930667 45.056 5.674667 14.165333 7.466667 29.482667 8.021333 44.458667-11.52-3.2-24.789333-6.4-39.381333-8.96-48.298667-8.618667-114.432-11.221333-175.872 18.218667-67.669333 32.426667-90.88 98.816-81.152 157.738666 9.557333 57.856 51.882667 113.749333 119.466667 125.909334 61.013333 11.008 119.68-10.922667 160.298666-32.469334A398.506667 398.506667 0 0 0 384 680.533333v12.8a32 32 0 0 0 64 0v-247.04c0-19.370667 0-52.736-12.8-84.906666-14.122667-35.370667-42.88-67.328-95.445333-82.773334h-0.042667z m-6.485334 204.970667c20.608 3.669333 38.314667 8.789333 50.773334 13.013333v106.922667a353.962667 353.962667 0 0 1-46.890667 29.952c-35.84 19.072-78.890667 33.237333-118.912 26.026667-36.053333-6.485333-61.653333-36.949333-67.669333-73.386667-5.888-35.413333 7.637333-71.381333 45.653333-89.6 44.245333-21.162667 94.976-20.394667 137.045333-12.928z" /></svg>