<svg class="icon" style="width: 1em;height: 1em;vertical-align: middle;fill: currentColor;overflow: hidden;" viewBox="0 0 1024 1024" version="1.1" xmlns="http://www.w3.org/2000/svg"><path d="M597.333333 149.333333v85.333334h149.333334v-85.333334H597.333333z m-64-10.666666c0-29.44 23.893333-53.333333 53.333334-53.333334h170.666666c29.44 0 53.333333 23.893333 53.333334 53.333334v106.666666C810.666667 274.773333 786.773333 298.666667 757.333333 298.666667h-170.666666c-29.44 0-53.333333-23.893333-53.333334-53.333334v-106.666666z m138.666667 224a32 32 0 0 1 32 32v285.44l52.053333-52.053334a32 32 0 1 1 45.226667 45.226667l-106.666667 106.666667a32 32 0 0 1-45.226666 0l-106.666667-106.666667a32 32 0 1 1 45.226667-45.226667L640 680.106667V394.666667a32 32 0 0 1 32-32zM277.333333 640v85.333333H426.666667v-85.333333H277.333333zM213.333333 629.333333c0-29.44 23.893333-53.333333 53.333334-53.333333h170.666666c29.44 0 53.333333 23.893333 53.333334 53.333333v106.666667c0 29.44-23.893333 53.333333-53.333334 53.333333h-170.666666c-29.44 0-53.333333-23.893333-53.333334-53.333333v-106.666667zM117.333333 682.666667a32 32 0 0 1 32 32v85.333333c0 29.44 23.893333 53.333333 53.333334 53.333333h618.666666c29.44 0 53.333333-23.893333 53.333334-53.333333v-85.333333a32 32 0 0 1 64 0v85.333333a117.333333 117.333333 0 0 1-117.333334 117.333333H202.666667A117.333333 117.333333 0 0 1 85.333333 800v-85.333333a32 32 0 0 1 32-32z" /></svg>