<svg class="icon" style="width: 1em;height: 1em;vertical-align: middle;fill: currentColor;overflow: hidden;" viewBox="0 0 1024 1024" version="1.1" xmlns="http://www.w3.org/2000/svg"><path d="M202.666667 128A117.333333 117.333333 0 0 0 85.333333 245.333333v362.666667A117.333333 117.333333 0 0 0 202.666667 725.333333h416v-64H202.666667c-29.44 0-53.333333-23.893333-53.333334-53.333333v-362.666667c0-29.44 23.893333-53.333333 53.333334-53.333333h618.666666c29.44 0 53.333333 23.893333 53.333334 53.333333V362.666667h21.333333c15.189333 0 29.610667 3.157333 42.666667 8.874666V245.333333A117.333333 117.333333 0 0 0 821.333333 128H202.666667z m42.666666 661.333333h384.042667c1.962667 4.053333 4.181333 7.978667 6.698667 11.776l34.133333 52.224H245.333333a32 32 0 0 1 0-64zM746.666667 853.333333l-57.045334-87.253333a42.666667 42.666667 0 0 1-6.954666-23.338667V597.333333a42.666667 42.666667 0 0 1 42.666666-42.666666v-85.333334a42.666667 42.666667 0 0 1 42.666667-42.666666h128a42.666667 42.666667 0 0 1 42.666667 42.666666v85.333334a42.666667 42.666667 0 0 1 42.666666 42.666666v146.773334a42.666667 42.666667 0 0 1-7.125333 23.637333L917.333333 853.333333v85.333334a42.666667 42.666667 0 0 1-42.666666 42.666666h-85.333334a42.666667 42.666667 0 0 1-42.666666-42.666666v-85.333334z m128-362.666666h-85.333334V554.666667h85.333334v-64z" /></svg>