<svg class="icon" style="width: 1em;height: 1em;vertical-align: middle;fill: currentColor;overflow: hidden;" viewBox="0 0 1024 1024" version="1.1" xmlns="http://www.w3.org/2000/svg"><path d="M437.248 465.578667c20.181333-16.981333 45.952-31.274667 74.752-31.274667s54.613333 14.293333 74.752 31.274667a196.394667 196.394667 0 0 1 28.8 30.293333l1.536 2.133333a31.914667 31.914667 0 0 0 52.949333-0.042666 196.48 196.48 0 0 1 30.293334-32.341334c20.181333-17.066667 45.952-31.317333 74.794666-31.317333 28.8 0 54.570667 14.293333 74.709334 31.274667 9.856 8.32 17.664 16.682667 22.954666 22.954666l7.381334 9.386667A32 32 0 0 0 938.666667 480C938.666667 280.533333 765.994667 85.333333 512 85.333333S85.333333 280.533333 85.333333 480a32 32 0 0 0 58.453334 17.92l7.424-9.386667c5.290667-6.272 13.098667-14.634667 22.954666-22.912 20.138667-17.066667 45.909333-31.317333 74.709334-31.317333 28.842667 0 54.613333 14.293333 74.752 31.274667a196.522667 196.522667 0 0 1 30.293333 32.384 32.085333 32.085333 0 0 0 52.992 0l1.536-2.133334a196.693333 196.693333 0 0 1 28.8-30.293333zM161.834667 395.861333C201.088 263.893333 330.368 149.333333 512 149.333333c181.632 0 310.912 114.56 350.165333 246.528-23.466667-14.165333-52.906667-25.6-87.04-25.6-50.133333 0-90.154667 24.576-116.053333 46.421334a256.341333 256.341333 0 0 0-15.530667 14.293333 255.061333 255.061333 0 0 0-15.530666-14.293333C602.154667 394.837333 562.133333 370.346667 512 370.346667c-50.133333 0-90.112 24.533333-116.053333 46.378666a255.573333 255.573333 0 0 0-15.488 14.293334 255.744 255.744 0 0 0-15.573334-14.293334C339.029333 394.837333 299.008 370.346667 248.874667 370.346667c-34.133333 0-63.573333 11.392-87.04 25.557333z m350.165333 81.066667c-10.069333 0-20.906667 3.541333-32 10.24V810.666667a64 64 0 1 1-128 0v-10.666667a32 32 0 0 0-64 0V810.666667a128 128 0 1 0 256 0v-323.498667c-11.093333-6.698667-21.930667-10.24-32-10.24z" /></svg>