<svg class="icon" style="width: 1em;height: 1em;vertical-align: middle;fill: currentColor;overflow: hidden;" viewBox="0 0 1024 1024" version="1.1" xmlns="http://www.w3.org/2000/svg"><path d="M469.333333 906.581333a32 32 0 0 1-63.701333 4.352l-0.298667-4.352L405.290667 725.333333 373.504 725.333333a96 96 0 0 1-95.786667-89.429333l-0.213333-6.570667v-234.666666c0-41.984 26.965333-77.696 64.554667-90.709334V117.205333a32 32 0 0 1 27.605333-31.701333l4.352-0.298667h277.376a32 32 0 0 1 31.701333 27.690667l0.298667 4.309333v187.136a96.085333 96.085333 0 0 1 63.146667 83.072l0.298666 7.253334v234.666666a96 96 0 0 1-89.429333 95.786667l-6.570667 0.213333h-32.213333v181.12a32 32 0 0 1-63.658667 4.352L554.666667 906.453333 554.624 725.333333h-85.333333v181.333334zM650.837333 362.666667h-277.333333a32 32 0 0 0-31.701333 27.648l-0.298667 4.352v234.666666c0 16.213333 12.032 29.610667 27.648 31.701334l4.352 0.298666 213.162667-0.128 1.834666 0.085334 62.293334 0.042666a32 32 0 0 0 31.744-27.648l0.298666-4.352v-234.666666a32 32 0 0 0-27.648-31.701334l-4.352-0.298666z m-31.445333-213.461334H406.016v149.418667h213.333333V149.205333z" /></svg>