<svg class="icon" style="width: 1em;height: 1em;vertical-align: middle;fill: currentColor;overflow: hidden;" viewBox="0 0 1024 1024" version="1.1" xmlns="http://www.w3.org/2000/svg"><path d="M707.626667 577.024c11.264-19.072 17.706667-41.301333 17.706666-65.024s-6.442667-45.952-17.706666-65.024L758.613333 395.946667a32 32 0 0 0-45.226666-45.226667l-51.029334 50.986667A127.402667 127.402667 0 0 0 597.333333 384c-23.722667 0-45.952 6.442667-65.024 17.706667L481.28 350.72a32 32 0 1 0-45.226667 45.226667l50.986667 51.029333A127.36 127.36 0 0 0 469.333333 512c0 23.722667 6.442667 45.952 17.706667 65.024L436.053333 628.053333a32 32 0 1 0 45.226667 45.226667l51.029333-50.986667c19.072 11.264 41.301333 17.706667 65.024 17.706667s45.952-6.442667 65.024-17.706667l51.029334 50.986667a32 32 0 1 0 45.226666-45.226667l-50.986666-51.029333zM597.333333 576a64 64 0 1 1 0-128 64 64 0 0 1 0 128zM277.333333 330.666667a32 32 0 0 0-64 0v362.666666a32 32 0 0 0 64 0v-362.666666zM85.333333 330.666667A160 160 0 0 1 245.333333 170.666667h533.333334A160 160 0 0 1 938.666667 330.666667v362.666666A160 160 0 0 1 778.666667 853.333333H245.333333A160 160 0 0 1 85.333333 693.333333v-362.666666zM245.333333 234.666667A96 96 0 0 0 149.333333 330.666667v362.666666a96 96 0 0 0 96 96h533.333334a96 96 0 0 0 96-96v-362.666666a96 96 0 0 0-96-96H245.333333z" /></svg>