<svg class="icon" style="width: 1em;height: 1em;vertical-align: middle;fill: currentColor;overflow: hidden;" viewBox="0 0 1024 1024" version="1.1" xmlns="http://www.w3.org/2000/svg"><path d="M384.213333 640a42.666667 42.666667 0 1 0 0-85.333333 42.666667 42.666667 0 0 0 0 85.333333zM682.666667 597.333333a42.666667 42.666667 0 1 1-85.333334 0 42.666667 42.666667 0 0 1 85.333334 0zM458.666667 661.333333a32 32 0 0 0 0 64h106.666666a32 32 0 0 0 0-64h-106.666666zM128 224A96 96 0 0 1 224 128h576A96 96 0 0 1 896 224v576a32 32 0 0 1-32 32H789.333333v32A74.666667 74.666667 0 0 1 714.666667 938.666667h-64a74.666667 74.666667 0 0 1-74.666667-74.666667v-32h-128v32A74.666667 74.666667 0 0 1 373.333333 938.666667h-64a74.666667 74.666667 0 0 1-74.666666-74.666667v-32H160a32 32 0 0 1-32-32V224z m256 640v-32H298.666667v32c0 5.888 4.778667 10.666667 10.666666 10.666667h64a10.666667 10.666667 0 0 0 10.666667-10.666667zM298.666667 768h426.666666v-256H298.666667v256z m341.333333 64v32c0 5.888 4.778667 10.666667 10.666667 10.666667h64a10.666667 10.666667 0 0 0 10.666666-10.666667v-32h-85.333333z m192-64V224a32 32 0 0 0-32-32H224a32 32 0 0 0-32 32V768h42.666667v-288a32 32 0 0 1 0.768-6.954667l31.530666-141.866666A96 96 0 0 1 360.661333 256h302.677334a96 96 0 0 1 93.696 75.178667l31.573333 141.866666a31.914667 31.914667 0 0 1 0.725333 6.954667V768h42.666667zM360.661333 320a32 32 0 0 0-31.232 25.045333L306.56 448h410.88l-22.869333-102.954667a32 32 0 0 0-31.232-25.045333H360.661333z" /></svg>