<svg class="icon" style="width: 1em;height: 1em;vertical-align: middle;fill: currentColor;overflow: hidden;" viewBox="0 0 1024 1024" version="1.1" xmlns="http://www.w3.org/2000/svg"><path d="M341.333333 682.666667a42.666667 42.666667 0 1 0 0-85.333334 42.666667 42.666667 0 0 0 0 85.333334zM725.333333 640a42.666667 42.666667 0 1 1-85.333333 0 42.666667 42.666667 0 0 1 85.333333 0zM458.666667 213.333333a32 32 0 0 0 0 64h106.666666a32 32 0 0 0 0-64h-106.666666zM330.666667 85.333333A160 160 0 0 0 170.666667 245.333333V405.333333H117.333333a32 32 0 1 0 0 64H170.666667v373.333334c0 41.216 33.408 74.666667 74.666666 74.666666h64A74.666667 74.666667 0 0 0 384 842.666667V789.333333h256v53.333334c0 41.216 33.450667 74.666667 74.666667 74.666666h64A74.666667 74.666667 0 0 0 853.333333 842.666667V469.333333h52.352a32 32 0 0 0 0-64H853.333333V245.333333A160 160 0 0 0 693.333333 85.333333h-362.666666zM789.333333 789.333333v53.333334a10.666667 10.666667 0 0 1-10.666666 10.666666h-64a10.666667 10.666667 0 0 1-10.666667-10.666666V789.333333h85.333333z m0-64h-554.666666v-170.666666h554.666666v170.666666z m-554.666666 117.333334V789.333333h85.333333v53.333334a10.666667 10.666667 0 0 1-10.666667 10.666666h-64a10.666667 10.666667 0 0 1-10.666666-10.666666z m0-597.333334A96 96 0 0 1 330.666667 149.333333h362.666666a96 96 0 0 1 96 96v245.333334h-554.666666V245.333333z" /></svg>