<svg class="icon" style="width: 1em;height: 1em;vertical-align: middle;fill: currentColor;overflow: hidden;" viewBox="0 0 1024 1024" version="1.1" xmlns="http://www.w3.org/2000/svg"><path d="M674.133333 128a138.666667 138.666667 0 0 1 134.485334 104.96L825.045333 298.666667h38.954667a32 32 0 0 1 31.701333 27.648L896 330.666667a32 32 0 0 1-27.648 31.701333l-4.352 0.298667h-22.869333l8.874666 35.242666a95.957333 95.957333 0 0 1 46.165334 82.090667v362.538667a74.666667 74.666667 0 0 1-74.666667 74.666666H757.333333a74.666667 74.666667 0 0 1-74.666666-74.666666l-0.042667-53.205334H341.504v53.205334a74.666667 74.666667 0 0 1-74.666667 74.666666H202.666667A74.666667 74.666667 0 0 1 128 842.538667V480c0-34.773333 18.474667-65.237333 46.165333-82.048l8.832-35.285333H160a32 32 0 0 1-31.701333-27.648L128 330.666667a32 32 0 0 1 27.648-31.701334L160 298.666667h38.954667l16.469333-65.621334A138.666667 138.666667 0 0 1 349.952 128h324.138667zM277.461333 789.333333H191.957333l0.042667 53.205334c0 5.888 4.778667 10.666667 10.666667 10.666666h64.170666a10.666667 10.666667 0 0 0 10.666667-10.666666V789.333333z m554.666667 0h-85.546667l0.042667 53.205334c0 5.888 4.778667 10.666667 10.666667 10.666666h64.170666a10.666667 10.666667 0 0 0 10.666667-10.666666V789.333333z m-32-341.333333H224a32 32 0 0 0-32 32V725.333333h640.170667v-245.333333a32 32 0 0 0-32-32zM437.333333 597.333333h149.418667a32 32 0 0 1 4.309333 63.701334l-4.309333 0.298666h-149.418667a32 32 0 0 1-4.352-63.701333L437.333333 597.333333h149.418667-149.418667zM725.333333 512a42.666667 42.666667 0 1 1 0 85.333333 42.666667 42.666667 0 0 1 0-85.333333zM298.666667 512a42.666667 42.666667 0 1 1 0 85.333333 42.666667 42.666667 0 0 1 0-85.333333z m375.466666-320H349.909333a74.666667 74.666667 0 0 0-72.448 56.576L243.669333 384h536.832l-33.962666-135.509333A74.666667 74.666667 0 0 0 674.090667 192z" /></svg>