<svg class="icon" style="width: 1em;height: 1em;vertical-align: middle;fill: currentColor;overflow: hidden;" viewBox="0 0 1024 1024" version="1.1" xmlns="http://www.w3.org/2000/svg"><path d="M74.666667 192a32 32 0 0 0-32 32v256a96 96 0 0 0 96 96h213.333333a96 96 0 0 0 96-96v-256a32 32 0 0 0-32-32H405.333333v-42.666667a106.666667 106.666667 0 0 0-160-92.373333A106.666667 106.666667 0 0 0 85.333333 149.333333v42.624h-10.666666zM298.666667 192v-42.666667c0-14.848-3.029333-29.013333-8.533334-41.813333A42.666667 42.666667 0 0 1 341.333333 149.333333v42.666667H298.666667z m-64-42.666667v42.666667h-85.333334v-42.666667a42.666667 42.666667 0 0 1 85.333334 0zM85.333333 736v-128c16.426667 6.869333 34.432 10.666667 53.333334 10.666667h10.666666v117.333333a32 32 0 0 0 28.672 31.829333A128.042667 128.042667 0 0 1 419.413333 768h99.925334A128.042667 128.042667 0 0 1 640 682.666667V224a32 32 0 0 0-32-32h-124.501333a74.965333 74.965333 0 0 0-35.498667-35.498667V149.333333c0-7.253333-0.512-14.378667-1.493333-21.333333h161.493333a96 96 0 0 1 96 96V256h66.133333c37.12 0 70.912 21.376 86.784 54.912l72.533334 153.045333c6.058667 12.842667 9.216 26.88 9.216 41.088v230.954667a96 96 0 0 1-96 96h-76.416a128 128 0 0 1-252.501334 0H424.96a128 128 0 0 1-252.586667-0.426667A96 96 0 0 1 85.333333 736z m675.413334 32h81.92a32 32 0 0 0 32-32V725.333333h-53.333334a32 32 0 0 1 0-64h53.333334v-128h-170.666667v166.442667A128.426667 128.426667 0 0 1 760.746667 768zM704 320V469.333333h157.141333L799.146667 338.304a32 32 0 0 0-28.928-18.304H704zM298.666667 874.666667a64 64 0 1 0 0-128 64 64 0 0 0 0 128z m405.333333-64a64 64 0 1 0-128 0 64 64 0 0 0 128 0zM149.333333 149.333333c0-6.058667 1.28-11.818667 3.541334-17.066666z" /></svg>