<svg class="icon" style="width: 1em;height: 1em;vertical-align: middle;fill: currentColor;overflow: hidden;" viewBox="0 0 1024 1024" version="1.1" xmlns="http://www.w3.org/2000/svg"><path d="M693.333333 128A160 160 0 0 1 853.333333 288v384a160.042667 160.042667 0 0 1-123.306666 155.776l105.045333 50.005333a32 32 0 0 1-23.466667 59.392l-4.053333-1.621333L590.08 832h-156.202667l-217.472 103.552a32 32 0 1 1-27.477333-57.770667L293.973333 827.733333A160.085333 160.085333 0 0 1 170.666667 672v-384A160 160 0 0 1 330.666667 128h362.666666z m96 469.333333h-554.666666v74.666667A96 96 0 0 0 330.666667 768h362.666666a96 96 0 0 0 96-96V597.333333zM341.333333 640a42.666667 42.666667 0 1 1 0 85.333333 42.666667 42.666667 0 0 1 0-85.333333z m341.333334 0a42.666667 42.666667 0 1 1 0 85.333333 42.666667 42.666667 0 0 1 0-85.333333z m10.666666-448h-362.666666A96 96 0 0 0 234.666667 288v245.333333h554.666666V288a96 96 0 0 0-96-96z m-128 64a32 32 0 0 1 0 64h-106.666666a32 32 0 0 1 0-64h106.666666z" /></svg>