<svg class="icon" style="width: 1em;height: 1em;vertical-align: middle;fill: currentColor;overflow: hidden;" viewBox="0 0 1024 1024" version="1.1" xmlns="http://www.w3.org/2000/svg"><path d="M181.333333 128A96 96 0 0 0 85.333333 224v512a96 96 0 0 0 87.04 95.573333 128 128 0 0 0 252.544 0.426667h88.832a128 128 0 0 0 252.501334 0h76.416A96 96 0 0 0 938.666667 736v-230.954667a96 96 0 0 0-9.258667-41.088l-72.490667-153.045333A96 96 0 0 0 770.176 256H704v-32A96 96 0 0 0 608 128h-426.666667z m579.413334 640a128.426667 128.426667 0 0 0-56.746667-68.224V533.333333h170.666667v128h-53.333334a32 32 0 1 0 0 64h53.333334v10.666667a32 32 0 0 1-32 32h-81.92zM640 682.666667a128.042667 128.042667 0 0 0-120.746667 85.333333H419.413333a128.042667 128.042667 0 0 0-241.408-0.170667 32 32 0 0 1-28.672-31.829333v-512a32 32 0 0 1 32-32h426.666667a32 32 0 0 1 32 32V682.666667z m64-362.666667h66.133333a32 32 0 0 1 28.970667 18.304L861.141333 469.333333H704V320zM298.666667 874.666667a64 64 0 1 1 0-128 64 64 0 0 1 0 128z m405.333333-64a64 64 0 1 1-128 0 64 64 0 0 1 128 0z" /></svg>