<svg class="icon" style="width: 1em;height: 1em;vertical-align: middle;fill: currentColor;overflow: hidden;" viewBox="0 0 1024 1024" version="1.1" xmlns="http://www.w3.org/2000/svg"><path d="M373.333333 85.333333a32 32 0 0 0-32 32V213.333333H245.333333a32 32 0 0 0-32 32v203.264l-62.293333 22.826667a32 32 0 0 0-18.048 43.52l99.626667 214.144a74.624 74.624 0 0 1 82.090666 24.789333l-108.970666-234.325333 281.045333-102.912a74.666667 74.666667 0 0 1 50.773333-0.213333l289.066667 103.168-111.872 228.053333a74.624 74.624 0 0 1 79.829333-17.408l105.301334-214.656a32 32 0 0 0-17.962667-44.245333L810.666667 445.909333V245.333333a32 32 0 0 0-32-32H682.666667V117.333333a32 32 0 0 0-32-32h-277.333334z m245.333334 128h-213.333334V149.333333h213.333334V213.333333z m128 64v145.749334l-187.605334-66.944a138.666667 138.666667 0 0 0-94.293333 0.426666L277.333333 425.130667V277.333333h469.333334zM799.018667 792.064l-0.128-0.426667a32 32 0 0 0-61.482667-0.981333v0.085333l-0.170667 0.384-0.853333 2.474667a164.437333 164.437333 0 0 1-22.058667 40.533333c-16.512 21.973333-40.064 40.533333-74.325333 40.533334s-57.856-18.56-74.368-40.533334a164.309333 164.309333 0 0 1-22.954667-43.050666l-0.128-0.384a32 32 0 0 0-61.226666 0.042666v0.042667l-0.170667 0.426667a143.36 143.36 0 0 1-4.906667 12.373333c-3.797333 8.448-9.685333 19.626667-17.92 30.549333-16.426667 21.973333-39.936 40.533333-74.325333 40.533334-34.389333 0-57.941333-18.56-74.410667-40.533334a163.584 163.584 0 0 1-22.826666-42.965333l-0.128-0.469333a32 32 0 0 0-61.482667 0.853333l-0.128 0.384-0.768 2.304a140.842667 140.842667 0 0 1-21.504 39.338667c-16.384 20.906667-42.496 41.088-85.418667 41.088a32 32 0 0 0 0 64c67.157333 0 110.378667-33.152 135.808-65.578667L256 869.290667l2.389333 3.242666C281.941333 903.893333 322.389333 938.666667 384 938.666667s102.058667-34.773333 125.568-66.133334l2.432-3.328 2.474667 3.370667C538.026667 903.893333 578.474667 938.666667 640 938.666667c61.525333 0 101.973333-34.773333 125.525333-66.133334l2.346667-3.2c0.896 1.28 1.834667 2.474667 2.816 3.712 25.386667 32.469333 68.693333 65.621333 135.978667 65.621334a32 32 0 0 0 0-64c-43.178667 0-69.248-20.181333-85.546667-41.045334a139.392 139.392 0 0 1-22.101333-41.557333z" /></svg>