<svg class="icon" style="width: 1em;height: 1em;vertical-align: middle;fill: currentColor;overflow: hidden;" viewBox="0 0 1024 1024" version="1.1" xmlns="http://www.w3.org/2000/svg"><path d="M117.333333 170.666667a32 32 0 0 0 0 64h48.64a74.666667 74.666667 0 0 1 71.509334 53.205333L266.325333 384H117.333333a32 32 0 0 0 0 64h170.666667c41.216 0 74.666667 33.450667 74.666667 74.666667v106.666666c0 11.989333-3.968 23.04-10.666667 32a138.709333 138.709333 0 1 0 9.258667 73.258667A117.333333 117.333333 0 0 0 426.666667 629.333333v-106.666666a138.709333 138.709333 0 0 0-91.008-130.261334l-36.864-122.88A138.666667 138.666667 0 0 0 165.973333 170.666667H117.333333z m32 544a74.666667 74.666667 0 1 1 149.333334 0 74.666667 74.666667 0 0 1-149.333334 0z m689.706667-443.733334a74.666667 74.666667 0 0 1 64-36.266666h3.626667a32 32 0 0 0 0-64h-3.584a138.666667 138.666667 0 0 0-118.912 67.328l-91.733334 152.874666-119.424 53.077334a138.666667 138.666667 0 0 0-82.346666 126.72v58.666666a117.333333 117.333333 0 0 0 110.336 117.12 138.709333 138.709333 0 0 0 269.952 0.213334h35.712a32 32 0 0 0 0-64h-35.712a138.709333 138.709333 0 0 0-269.824-0.426667A53.333333 53.333333 0 0 1 554.666667 629.333333v-58.666666a74.666667 74.666667 0 0 1 44.373333-68.266667l122.453333-54.4h185.173334a32 32 0 0 0 0-64h-135.466667l67.84-113.066667zM661.333333 714.666667a74.666667 74.666667 0 1 1 149.333334 0 74.666667 74.666667 0 0 1-149.333334 0zM437.333333 213.333333a32 32 0 0 1 32 32v85.333334a32 32 0 0 1-64 0v-85.333334a32 32 0 0 1 32-32z m174.933334 115.2a32 32 0 1 0-51.2-38.4l-64 85.333334a32 32 0 1 0 51.2 38.4l64-85.333334z" /></svg>