<svg class="icon" style="width: 1em;height: 1em;vertical-align: middle;fill: currentColor;overflow: hidden;" viewBox="0 0 1024 1024" version="1.1" xmlns="http://www.w3.org/2000/svg"><path d="M341.546667 554.666667a42.666667 42.666667 0 1 1-85.333334 0 42.666667 42.666667 0 0 1 85.333334 0zM725.333333 597.333333a42.666667 42.666667 0 1 0 0-85.333333 42.666667 42.666667 0 0 0 0 85.333333zM404.650667 629.333333a32 32 0 0 1 32-32h148.693333a32 32 0 0 1 0 64h-148.693333a32 32 0 0 1-32-32zM395.349333 84.992a32 32 0 0 0-32 32V192h-28.330666a138.666667 138.666667 0 0 0-132.693334 98.261333L199.808 298.666667H160a32 32 0 0 0 0 64h22.741333l-8.618666 35.285333A95.957333 95.957333 0 0 0 128 480v362.666667c0 41.216 33.450667 74.666667 74.666667 74.666666h64A74.666667 74.666667 0 0 0 341.333333 842.666667V789.333333h341.333334v53.333334c0 41.216 33.450667 74.666667 74.666666 74.666666h64A74.666667 74.666667 0 0 0 896 842.666667v-362.666667c0-34.773333-18.517333-65.28-46.208-82.090667l-8.789333-35.242666h22.997333a32 32 0 0 0 0-64h-40.192l-2.346667-7.850667A138.666667 138.666667 0 0 0 688.64 192h-27.306667V116.992a32 32 0 0 0-32-32H395.349333zM597.333333 192h-169.984V148.992H597.333333V192zM335.018667 256h353.621333a74.666667 74.666667 0 0 1 71.509333 53.205333l8.96 29.952L780.373333 384H243.413333l10.965334-44.885333 9.216-30.208A74.666667 74.666667 0 0 1 335.018667 256zM192 725.333333v-245.333333a32 32 0 0 1 32-32h576a32 32 0 0 1 32 32V725.333333h-640z m0 117.333334V789.333333h85.333333v53.333334a10.666667 10.666667 0 0 1-10.666666 10.666666h-64a10.666667 10.666667 0 0 1-10.666667-10.666666z m640-53.333334v53.333334a10.666667 10.666667 0 0 1-10.666667 10.666666h-64a10.666667 10.666667 0 0 1-10.666666-10.666666V789.333333h85.333333z" /></svg>