<svg class="icon" style="width: 1em;height: 1em;vertical-align: middle;fill: currentColor;overflow: hidden;" viewBox="0 0 1024 1024" version="1.1" xmlns="http://www.w3.org/2000/svg"><path d="M544 128a32 32 0 0 0 0 64h60.885333l40.746667 149.333333H362.666667V245.333333A32 32 0 0 0 330.666667 213.333333h-128a32 32 0 0 0 0 64H298.666667v93.354667L285.781333 448a181.333333 181.333333 0 1 0 183.381334 173.44l198.656-198.698667 11.690666 42.794667a181.333333 181.333333 0 1 0 61.738667-16.810667l-81.066667-297.130666A32 32 0 0 0 629.333333 128h-85.333333z m152.746667 400.810667l29.696 108.928a32 32 0 1 0 61.781333-16.810667L758.485333 512a117.333333 117.333333 0 1 1-61.738666 16.810667z m-245.973334 20.48a181.888 181.888 0 0 0-101.845333-90.794667L357.76 405.333333h236.970667l-143.957334 143.957334z m-112.64-26.069334c30.293333 14.336 53.504 41.301333 62.762667 74.112h-75.093333l12.330666-74.112z m-63.146666-10.496l-18.56 111.36a32 32 0 0 0 31.573333 37.248h112.896a117.376 117.376 0 1 1-125.866667-148.608z" /></svg>