<svg class="icon" style="width: 1em;height: 1em;vertical-align: middle;fill: currentColor;overflow: hidden;" viewBox="0 0 1024 1024" version="1.1" xmlns="http://www.w3.org/2000/svg"><path d="M42.666667 365.781333V188.885333a64 64 0 0 1 35.413333-57.216l149.333333-74.666666a64 64 0 0 1 57.173334 0l149.333333 74.666666A64 64 0 0 1 469.333333 188.885333v176.896a64 64 0 0 1-35.413333 57.258667l-149.333333 74.666667a64 64 0 0 1-57.173334 0l-149.333333-74.666667A64 64 0 0 1 42.666667 365.781333z m66.261333-172.629333a21.333333 21.333333 0 0 0 9.514667 28.586667L234.666667 279.893333V405.333333a21.333333 21.333333 0 1 0 42.666666 0V279.893333l116.224-58.154666a21.333333 21.333333 0 1 0-19.114666-38.144L256 242.816 137.557333 183.594667a21.333333 21.333333 0 0 0-28.629333 9.557333z m40.405333 313.216v229.632a32 32 0 0 0 28.672 31.829333A128.042667 128.042667 0 0 1 419.413333 768h99.925334A128.042667 128.042667 0 0 1 640 682.666667V224a32 32 0 0 0-32-32H512v-3.114667c0-22.186667-6.869333-43.349333-19.072-60.885333h115.072a96 96 0 0 1 96 96V256h66.133333c37.12 0 70.912 21.376 86.784 54.912l72.533334 153.045333c6.058667 12.842667 9.216 26.88 9.216 41.088v230.954667a96 96 0 0 1-96 96h-76.416a128 128 0 0 1-252.501334 0H424.96a128 128 0 0 1-252.586667-0.426667A96 96 0 0 1 85.333333 736v-261.632l64 32z m554.666667 193.408A128.426667 128.426667 0 0 1 760.746667 768h81.92a32 32 0 0 0 32-32V725.333333h-53.333334a32 32 0 0 1 0-64h53.333334v-128h-170.666667v166.442667zM770.133333 320H704V469.333333h157.141333L799.146667 338.304a32 32 0 0 0-28.928-18.304zM234.666667 810.666667a64 64 0 1 0 128 0 64 64 0 0 0-128 0z m405.333333 64a64 64 0 1 0 0-128 64 64 0 0 0 0 128z" /></svg>