<svg class="icon" style="width: 1em;height: 1em;vertical-align: middle;fill: currentColor;overflow: hidden;" viewBox="0 0 1024 1024" version="1.1" xmlns="http://www.w3.org/2000/svg"><path d="M139.946667 94.72a32 32 0 1 0-45.226667 45.226667l41.813333 41.813333A96 96 0 0 0 85.333333 266.666667v490.88a96 96 0 0 0 96 96h309.333334a275.2 275.2 0 0 1-18.048-64.042667H362.666667L362.666667 672l0.298666-2.432a10.666667 10.666667 0 0 1 10.368-8.234667h109.354667a276.096 276.096 0 0 1 30.250667-64H373.333333l-6.144 0.256A74.666667 74.666667 0 0 0 298.666667 672l-0.042667 117.504H181.333333a32 32 0 0 1-32-32V266.666667a32 32 0 0 1 32-32h8.106667L384 429.269333A128 128 0 0 0 509.44 554.666667l50.261333 50.261333a234.666667 234.666667 0 0 0 329.258667 328.405333 32 32 0 0 0 40.362667-49.28L139.946667 94.72z m702.122666 792.618667a23.978667 23.978667 0 0 1-33.194666 3.584L746.666667 843.818667l-62.208 47.104c-19.541333 14.805333-45.824-5.12-38.357334-29.013334l23.765334-76.288-62.208-47.104c-19.541333-14.805333-9.514667-46.976 14.634666-46.976h23.978667l195.797333 195.797334zM450.261333 314.538667l49.365334 49.322666a64 64 0 0 1 75.178666 75.178667l49.365334 49.365333a128 128 0 0 0-173.866667-173.866666z m212.821334 212.778666l72.576 72.576a24.618667 24.618667 0 0 1 34.688 15.36l8.789333 28.117334 48.128 48.170666h43.776c24.149333 0 34.133333 32.170667 14.634667 46.933334l-6.485334 4.949333 86.826667 86.826667a234.666667 234.666667 0 0 0-302.933333-302.933334zM306.346667 170.666667l64 64h472.064a32 32 0 0 1 32 32v233.813333a278.186667 278.186667 0 0 1 64 45.866667V266.666667A96 96 0 0 0 842.453333 170.666667H306.432z" /></svg>