<svg class="icon" style="width: 1em;height: 1em;vertical-align: middle;fill: currentColor;overflow: hidden;" viewBox="0 0 1024 1024" version="1.1" xmlns="http://www.w3.org/2000/svg"><path d="M586.666667 213.333333A138.666667 138.666667 0 0 1 725.333333 352v7.381333l164.864-98.901333A32 32 0 0 1 938.666667 287.914667v258.645333a278.101333 278.101333 0 0 0-64-45.994667V344.448L725.333333 434.090667v36.053333c-22.186667 1.706667-43.605333 5.973333-64 12.544V352a74.666667 74.666667 0 0 0-74.666666-74.666667h-362.666667A74.666667 74.666667 0 0 0 149.333333 352v362.666667c0 41.216 33.450667 74.666667 74.666667 74.666666h248.576c3.456 22.314667 9.557333 43.776 18.005333 64H224A138.666667 138.666667 0 0 1 85.333333 714.666667v-362.666667A138.666667 138.666667 0 0 1 224 213.333333h362.666667zM981.333333 746.666667a234.666667 234.666667 0 1 1-469.333333 0 234.666667 234.666667 0 0 1 469.333333 0z m-405.333333 0c0 35.584 10.88 68.608 29.482667 95.914666l237.098666-237.098666A170.666667 170.666667 0 0 0 576 746.666667z m170.666667 170.666666a170.666667 170.666667 0 0 0 141.184-266.581333l-237.098667 237.098667c27.306667 18.602667 60.330667 29.482667 95.914667 29.482666z" /></svg>