<svg class="icon" style="width: 1em;height: 1em;vertical-align: middle;fill: currentColor;overflow: hidden;" viewBox="0 0 1024 1024" version="1.1" xmlns="http://www.w3.org/2000/svg"><path d="M94.72 94.72a32 32 0 0 1 45.226667 0l789.333333 789.333333a32 32 0 0 1-45.226667 45.226667l-75.776-75.733333H181.333333A96 96 0 0 1 85.333333 757.546667V266.666667a96 96 0 0 1 51.2-84.906667l-41.813333-41.813333a32 32 0 0 1 0-45.226667z m566.357333 611.626667L616.106667 661.333333H373.333333a10.666667 10.666667 0 0 0-10.368 8.234667l-0.298666 2.432-0.042667 117.504h298.453333v-83.157333zM509.44 554.666667a128 128 0 0 1-125.354667-125.397334L189.397333 234.666667H181.333333a32 32 0 0 0-32 32v490.88c0 17.664 14.336 32 32 32l117.290667-0.042667L298.666667 672a74.666667 74.666667 0 0 1 68.522666-74.410667L373.333333 597.333333h178.773334l-42.709334-42.666666zM499.626667 363.861333l-49.365334-49.322666a128 128 0 0 1 173.866667 173.866666l-49.322667-49.365333a64.128 64.128 0 0 0-75.178666-75.178667zM874.453333 738.730667V266.666667a32 32 0 0 0-32-32H370.432L306.432 170.666667h536.021333a96 96 0 0 1 96 96v490.88c0 13.312-2.688 26.026667-7.594666 37.546666l-56.405334-56.362666z" /></svg>