<svg class="icon" style="width: 1em;height: 1em;vertical-align: middle;fill: currentColor;overflow: hidden;" viewBox="0 0 1024 1024" version="1.1" xmlns="http://www.w3.org/2000/svg"><path d="M256 722.688v90.496L215.850667 853.333333h-90.453334L256 722.688z m682.752-106.794667v90.538667L791.893333 853.333333h-24.149333v-66.432l171.008-171.008zM373.333333 597.333333h277.12a74.666667 74.666667 0 0 1 74.410667 68.565334l0.256 6.101333V853.333333h-64v-181.333333a10.666667 10.666667 0 0 0-8.234667-10.368l-2.432-0.298667H373.333333a10.666667 10.666667 0 0 0-10.368 8.234667l-0.298666 2.432V853.333333H298.666667v-181.333333a74.666667 74.666667 0 0 1 68.522666-74.410667L373.333333 597.333333z m-31.104-152.917333c2.56 24.704 10.368 47.786667 22.314667 68.266667L85.333333 791.893333v-90.538666l256.896-256.938667z m596.48-20.650667v90.581334l-170.965333 171.093333v-13.44l-0.170667-7.168a116.650667 116.650667 0 0 0-16.512-53.205333l187.690667-187.861334zM514.474667 170.666667L85.333333 599.893333v-90.496L423.936 170.666667h90.453333z m424.32 61.098666v90.581334l-241.792 241.92a116.522667 116.522667 0 0 0-36.693334-9.216l-9.813333-0.384h-25.6a171.52 171.52 0 0 0 36.48-45.312l277.418667-277.589334zM512 298.666667a128 128 0 1 1 0 256 128 128 0 0 1 0-256z m0 64a64 64 0 1 0 0 128 64 64 0 0 0 0-128zM322.517333 170.666667l-237.226666 237.226666V317.354667L232.064 170.666667h90.453333z m575.914667 0l-219.648 219.690666a169.813333 169.813333 0 0 0-27.818667-62.72L807.893333 170.666667h90.538667z m-191.914667 0l-108.544 108.544a169.557333 169.557333 0 0 0-68.266666-22.272L616.021333 170.666667h90.538667z" /></svg>