<svg class="icon" style="width: 1em;height: 1em;vertical-align: middle;fill: currentColor;overflow: hidden;" viewBox="0 0 1024 1024" version="1.1" xmlns="http://www.w3.org/2000/svg"><path d="M768.426667 522.453333l21.504-50.645333c10.069333-23.722667 34.176-36.693333 57.856-31.744l5.034666 1.322667 26.88 8.618666c26.709333 8.533333 47.104 31.36 53.717334 60.032 15.658667 68.181333-3.157333 151.168-56.405334 249.002667-53.205333 97.664-111.530667 156.373333-174.933333 176.170667a75.093333 75.093333 0 0 1-70.954667-14.592l-5.290666-4.864-20.394667-20.48a58.026667 58.026667 0 0 1-9.514667-67.84l3.029334-4.992 30.805333-45.226667c12.074667-17.792 32.853333-26.197333 52.778667-21.973333l5.418666 1.493333 56.832 18.944a216.746667 216.746667 0 0 0 56.746667-64.810667 204.757333 204.757333 0 0 0 25.429333-67.84l1.621334-11.52-47.317334-44.885333a57.770667 57.770667 0 0 1-14.848-58.581333l2.005334-5.589334 21.504-50.645333-21.461334 50.645333zM842.453333 170.666667a96 96 0 0 1 96 96l0.042667 169.770666a120.362667 120.362667 0 0 0-37.290667-23.978666l-8.533333-3.114667-18.218667-5.845333V266.666667a32 32 0 0 0-32-32H181.333333a32 32 0 0 0-32 32v490.88c0 17.664 14.336 32 32 32l117.290667-0.042667L298.666667 672a74.666667 74.666667 0 0 1 68.522666-74.410667L373.333333 597.333333h277.12a74.666667 74.666667 0 0 1 74.410667 68.565334l0.256 6.101333-0.042667 52.138667-23.637333-7.893334-7.082667-2.048a91.776 91.776 0 0 0-33.28-2.005333v-40.192a10.666667 10.666667 0 0 0-8.192-10.368l-2.432-0.298667H373.333333a10.666667 10.666667 0 0 0-10.368 8.234667l-0.298666 2.432-0.042667 117.504h207.104l-6.058667 8.96-4.181333 6.656c-8.533333 15.018667-12.885333 31.744-13.098667 48.384H181.333333A96 96 0 0 1 85.333333 757.546667V266.666667A96 96 0 0 1 181.333333 170.666667h661.12zM512 298.666667a128 128 0 1 1 0 256 128 128 0 0 1 0-256z m0 64a64 64 0 1 0 0 128 64 64 0 0 0 0-128z" /></svg>