<svg class="icon" style="width: 1em;height: 1em;vertical-align: middle;fill: currentColor;overflow: hidden;" viewBox="0 0 1024 1024" version="1.1" xmlns="http://www.w3.org/2000/svg"><path d="M139.946667 94.72a32 32 0 1 0-45.226667 45.226667l66.858667 66.858666A138.666667 138.666667 0 0 0 85.333333 330.666667v362.666666a138.666667 138.666667 0 0 0 138.666667 138.666667h362.666667a138.666667 138.666667 0 0 0 123.861333-76.202667l173.482667 173.525334a32 32 0 0 0 45.269333-45.269334L139.946667 94.72z m520.362666 610.858667A74.666667 74.666667 0 0 1 586.666667 768h-362.666667a74.666667 74.666667 0 0 1-74.666667-74.666667v-362.666666c0-37.077333 27.008-67.84 62.421334-73.685334l448.597333 448.597334zM661.333333 525.568V330.666667A74.666667 74.666667 0 0 0 586.666667 256H391.765333l-64-64h258.901334A138.666667 138.666667 0 0 1 725.333333 330.666667v7.381333l164.864-98.901333A32 32 0 0 1 938.666667 266.581333V757.333333c0 12.842667-7.253333 23.168-17.194667 28.373334L874.666667 738.901333V323.114667L725.333333 412.757333v176.810667l-64-64z" /></svg>