<svg class="icon" style="width: 1em;height: 1em;vertical-align: middle;fill: currentColor;overflow: hidden;" viewBox="0 0 1024 1024" version="1.1" xmlns="http://www.w3.org/2000/svg"><path d="M586.666667 192A138.666667 138.666667 0 0 1 725.333333 330.666667v7.381333l164.864-98.901333A32 32 0 0 1 938.666667 266.581333V757.333333a32 32 0 0 1-48.469334 27.434667L725.333333 685.866667v7.466666a138.666667 138.666667 0 0 1-138.666666 138.666667h-45.354667c6.570667-20.394667 10.88-41.813333 12.544-64h32.810667a74.666667 74.666667 0 0 0 74.666666-74.666667v-362.666666A74.666667 74.666667 0 0 0 586.666667 256h-362.666667A74.666667 74.666667 0 0 0 149.333333 330.666667v169.898666A278.058667 278.058667 0 0 0 85.333333 546.56V330.666667A138.666667 138.666667 0 0 1 224 192h362.666667z m288 131.114667L725.333333 412.757333v198.442667l149.333334 89.6V323.114667zM512 746.666667a234.666667 234.666667 0 1 0-469.333333 0 234.666667 234.666667 0 0 0 469.333333 0zM298.666667 768l0.042666 106.794667a21.333333 21.333333 0 1 1-42.666666 0V768H149.162667a21.333333 21.333333 0 0 1 0-42.666667H256v-106.666666a21.333333 21.333333 0 1 1 42.666667 0V725.333333h106.538666a21.333333 21.333333 0 0 1 0 42.666667H298.666667z" /></svg>