<svg class="icon" style="width: 1em;height: 1em;vertical-align: middle;fill: currentColor;overflow: hidden;" viewBox="0 0 1024 1024" version="1.1" xmlns="http://www.w3.org/2000/svg"><path d="M586.666667 192A138.666667 138.666667 0 0 1 725.333333 330.666667v7.381333l164.864-98.901333A32 32 0 0 1 938.666667 266.581333V757.333333a32 32 0 0 1-48.469334 27.434667L725.333333 685.866667v7.466666a138.666667 138.666667 0 0 1-138.666666 138.666667h-362.666667A138.666667 138.666667 0 0 1 85.333333 693.333333v-362.666666A138.666667 138.666667 0 0 1 224 192h362.666667z m0 64h-362.666667A74.666667 74.666667 0 0 0 149.333333 330.666667v362.666666c0 41.216 33.450667 74.666667 74.666667 74.666667h362.666667a74.666667 74.666667 0 0 0 74.666666-74.666667v-362.666666A74.666667 74.666667 0 0 0 586.666667 256z m288 67.114667L725.333333 412.757333v198.442667l149.333334 89.6V323.114667z" /></svg>