<svg class="icon" style="width: 1em;height: 1em;vertical-align: middle;fill: currentColor;overflow: hidden;" viewBox="0 0 1024 1024" version="1.1" xmlns="http://www.w3.org/2000/svg"><path d="M842.453333 170.666667a96 96 0 0 1 96 96v279.68a278.186667 278.186667 0 0 0-64-45.866667V266.666667a32 32 0 0 0-32-32H181.333333a32 32 0 0 0-32 32v490.88c0 17.664 14.336 32 32 32l117.290667-0.042667L298.666667 672a74.666667 74.666667 0 0 1 68.522666-74.410667L373.333333 597.333333h139.605334a276.096 276.096 0 0 0-30.250667 64H373.333333a10.666667 10.666667 0 0 0-10.368 8.234667l-0.298666 2.432-0.042667 117.504h109.994667a275.2 275.2 0 0 0 18.048 64H181.333333A96 96 0 0 1 85.333333 757.546667V266.666667A96 96 0 0 1 181.333333 170.666667h661.12zM512 298.666667a128 128 0 1 1 0 256 128 128 0 0 1 0-256z m0 64a64 64 0 1 0 0 128 64 64 0 0 0 0-128zM981.333333 746.666667a234.666667 234.666667 0 1 1-469.333333 0 234.666667 234.666667 0 0 1 469.333333 0z m-210.986666-131.413334a24.618667 24.618667 0 0 0-47.36 0l-23.765334 76.288h-76.928c-24.149333 0-34.133333 32.170667-14.634666 46.933334l62.208 47.146666-23.765334 76.245334c-7.466667 23.936 18.816 43.861333 38.357334 29.056l62.208-47.104 62.208 47.104c19.541333 14.805333 45.824-5.12 38.357333-29.013334l-23.765333-76.288 62.208-47.104c19.541333-14.805333 9.514667-46.976-14.634667-46.976h-76.928l-23.765333-76.245333z" /></svg>