<svg class="icon" style="width: 1em;height: 1em;vertical-align: middle;fill: currentColor;overflow: hidden;" viewBox="0 0 1024 1024" version="1.1" xmlns="http://www.w3.org/2000/svg"><path d="M224 128A138.666667 138.666667 0 0 0 85.333333 266.666667v277.333333A138.666667 138.666667 0 0 0 224 682.666667h95.701333a70.656 70.656 0 0 1-70.4 64H138.666667a32 32 0 0 0-32 32v128c0 17.664 14.336 32 32 32h128A245.333333 245.333333 0 0 0 512 693.333333V682.666667h74.666667a138.666667 138.666667 0 0 0 138.026666-125.184l165.546667 99.285333A32 32 0 0 0 938.666667 629.333333V181.333333a32 32 0 0 0-48.469334-27.434666l-165.546666 99.285333A138.666667 138.666667 0 0 0 586.666667 128h-362.666667zM725.333333 327.466667l149.333334-89.6v334.933333l-149.333334-89.6v-155.733333zM266.666667 874.666667H170.666667V810.666667h78.677333c72.106667 0 130.986667-56.746667 134.485333-128H448v10.666666a181.333333 181.333333 0 0 1-181.333333 181.333334zM149.333333 266.666667c0-41.216 33.450667-74.666667 74.666667-74.666667h362.666667c41.216 0 74.666667 33.450667 74.666666 74.666667v277.333333a74.666667 74.666667 0 0 1-74.666666 74.666667h-362.666667a74.666667 74.666667 0 0 1-74.666667-74.666667v-277.333333z" /></svg>