<svg class="icon" style="width: 1em;height: 1em;vertical-align: middle;fill: currentColor;overflow: hidden;" viewBox="0 0 1024 1024" version="1.1" xmlns="http://www.w3.org/2000/svg"><path d="M266.666667 170.666667h490.666666a138.666667 138.666667 0 0 1 138.453334 130.816L896 309.333333v405.333334a138.666667 138.666667 0 0 1-130.816 138.453333L757.333333 853.333333H266.666667a138.666667 138.666667 0 0 1-138.453334-130.816L128 714.666667v-405.333334a138.666667 138.666667 0 0 1 130.816-138.453333L266.666667 170.666667h490.666666-490.666666z m490.666666 64H266.666667a74.666667 74.666667 0 0 0-74.410667 68.522666L192 309.333333v405.333334a74.666667 74.666667 0 0 0 68.522667 74.410666l6.144 0.256h490.666666a74.666667 74.666667 0 0 0 74.410667-68.565333l0.256-6.101333v-405.333334a74.666667 74.666667 0 0 0-68.565333-74.410666L757.333333 234.666667z m-328.405333 174.293333a21.333333 21.333333 0 0 1 25.045333-10.922667l3.584 1.408 186.965334 93.44a21.333333 21.333333 0 0 1 3.242666 36.181334l-3.242666 2.005333-186.965334 93.482667a21.333333 21.333333 0 0 1-30.549333-15.232L426.666667 605.44V418.517333a21.333333 21.333333 0 0 1 2.261333-9.557333z" /></svg>