<svg class="icon" style="width: 1em;height: 1em;vertical-align: middle;fill: currentColor;overflow: hidden;" viewBox="0 0 1024 1024" version="1.1" xmlns="http://www.w3.org/2000/svg"><path d="M842.453333 170.666667a96 96 0 0 1 96 96v490.88a96 96 0 0 1-96 96H181.333333A96 96 0 0 1 85.333333 757.546667V266.666667A96 96 0 0 1 181.333333 170.666667h661.12z m0 64H181.333333a32 32 0 0 0-32 32v490.88c0 17.664 14.336 32 32 32l117.290667-0.042667L298.666667 672a74.666667 74.666667 0 0 1 68.522666-74.410667L373.333333 597.333333h277.12a74.666667 74.666667 0 0 1 74.410667 68.565334l0.256 6.101333-0.042667 117.504h117.376a32 32 0 0 0 32-32V266.666667a32 32 0 0 0-32-32z m-192 426.666666H373.333333a10.666667 10.666667 0 0 0-10.368 8.234667l-0.298666 2.432-0.042667 117.504h298.453333V672a10.666667 10.666667 0 0 0-8.192-10.368l-2.432-0.298667zM512 298.666667a128 128 0 1 1 0 256 128 128 0 0 1 0-256z m0 64a64 64 0 1 0 0 128 64 64 0 0 0 0-128z" /></svg>