<svg class="icon" style="width: 1em;height: 1em;vertical-align: middle;fill: currentColor;overflow: hidden;" viewBox="0 0 1024 1024" version="1.1" xmlns="http://www.w3.org/2000/svg"><path d="M170.666667 245.333333A117.333333 117.333333 0 0 1 288 128h277.333333A117.333333 117.333333 0 0 1 682.666667 245.333333v23.082667l84.906666-64.938667c35.114667-26.88 85.76-1.834667 85.76 42.368v276.309334c0 44.202667-50.645333 69.205333-85.76 42.368L682.666667 499.626667v23.082666A117.333333 117.333333 0 0 1 565.333333 640h-277.333333A117.333333 117.333333 0 0 1 170.666667 522.666667v-277.333334zM288 192c-29.44 0-53.333333 23.893333-53.333333 53.333333v277.333334c0 29.44 23.893333 53.333333 53.333333 53.333333h277.333333c29.44 0 53.333333-23.893333 53.333334-53.333333v-277.333334c0-29.44-23.893333-53.333333-53.333334-53.333333h-277.333333zM682.666667 418.986667l106.666666 81.578666V267.434667L682.666667 348.970667v70.058666zM783.488 688.554667c-40.533333-9.898667-90.88-17.621333-147.541333-22.272a160.725333 160.725333 0 0 0 64.341333-57.6c36.138667 4.650667 69.290667 10.624 98.346667 17.664 37.034667 9.002667 69.248 20.224 92.970666 33.877333 21.333333 12.288 47.061333 33.109333 47.061334 65.109333 0 20.053333-10.453333 35.797333-22.058667 46.890667-11.562667 11.050667-26.794667 20.053333-43.392 27.562667-33.365333 15.146667-79.104 27.306667-131.925333 36.181333a32 32 0 0 1-10.624-63.146667c50.304-8.448 89.898667-19.413333 116.096-31.317333 13.226667-5.973333 21.333333-11.434667 25.6-15.573333l0.426666-0.341334 0.256-0.256a61.013333 61.013333 0 0 0-13.354666-9.642666c-16.213333-9.301333-41.813333-18.773333-76.202667-27.136z m91.562667 34.304l0.085333-0.128-0.085333 0.128zM132.394667 660.224a271.744 271.744 0 0 1 46.549333-20.48c24.746667 23.082667 56.874667 38.4 92.416 42.069333-10.794667 2.133333-21.12 4.352-30.848 6.741334-34.432 8.362667-59.989333 17.834667-76.202667 27.136-7.509333 4.309333-11.392 7.594667-13.354666 9.642666 1.962667 2.048 5.845333 5.333333 13.354666 9.642667 16.213333 9.301333 41.813333 18.773333 76.202667 27.136 67.754667 16.512 162.773333 27.050667 268.970667 27.221333l-30.677334-30.72a32 32 0 1 1 45.312-45.226666l85.205334 85.333333a32 32 0 0 1 0 45.226667l-85.248 85.205333a32 32 0 0 1-45.226667-45.226667l30.549333-30.592c-109.738667-0.170667-210.048-11.050667-284.032-29.013333-37.034667-9.002667-69.248-20.224-92.970666-33.877333C111.061333 778.154667 85.333333 757.333333 85.333333 725.333333s25.728-52.821333 47.061334-65.109333z" /></svg>