<svg class="icon" style="width: 1em;height: 1em;vertical-align: middle;fill: currentColor;overflow: hidden;" viewBox="0 0 1024 1024" version="1.1" xmlns="http://www.w3.org/2000/svg"><path d="M183.338667 170.666667h659.157333A96.085333 96.085333 0 0 1 938.666667 266.624v490.752A95.957333 95.957333 0 0 1 842.666667 853.333333H181.333333A96 96 0 0 1 85.333333 757.376v-307.498667c2.688 3.157333 5.674667 6.016 8.96 8.533334a59.050667 59.050667 0 0 0 55.04 6.101333v292.736a32 32 0 0 0 32 32h117.290667v-117.461333a74.624 74.624 0 0 1 68.565333-74.368l6.101334-0.256h277.12a74.666667 74.666667 0 0 1 74.410666 68.522666l0.256 6.101334v117.290666h117.418667a32 32 0 0 0 32-32V266.624a32 32 0 0 0-32-32H231.168l-11.989333-3.84a38.016 38.016 0 0 1-24.064-23.893333L183.338667 170.666667z m179.072 618.410666h298.666666l-0.213333-117.333333a10.666667 10.666667 0 0 0-8.234667-10.325333l-2.432-0.298667H373.077333a10.666667 10.666667 0 0 0-10.368 8.234667l-0.298666 2.432v117.290666z m240.085333-452.949333a127.914667 127.914667 0 0 1-139.52 208.64A128.085333 128.085333 0 0 1 384 426.624 127.914667 127.914667 0 0 1 512 298.666667a128 128 0 0 1 90.496 37.461333z m-135.765333 45.226667a63.957333 63.957333 0 1 0 90.453333 90.453333 63.957333 63.957333 0 0 0-90.453333-90.453333z m-365.994667-4.266667l12.8 39.125333a15.488 15.488 0 0 0 28.842667 0.981334l0.341333-0.981334 12.8-39.082666a80.554667 80.554667 0 0 1 51.157333-51.072l39.168-12.8a15.488 15.488 0 0 0 0-29.184h-0.768l-39.210666-12.8a80.298667 80.298667 0 0 1-51.114667-51.072l-12.8-39.168a15.530667 15.530667 0 0 0-23.552-7.466667 15.530667 15.530667 0 0 0-5.632 7.466667l-12.8 39.125333-0.298667 0.981333a80.725333 80.725333 0 0 1-50.048 50.133334l-39.210666 12.8a15.530667 15.530667 0 0 0-7.466667 23.466666 15.36 15.36 0 0 0 7.466667 5.717334l39.210666 12.8a81.066667 81.066667 0 0 1 51.114667 51.072z m107.946667 72.96l22.869333-7.466667a47.701333 47.701333 0 0 0 25.045333-20.138666c1.749333-3.029333 3.2-6.272 4.266667-9.642667l7.424-22.869333a9.258667 9.258667 0 0 1 5.12-5.290667 8.96 8.96 0 0 1 8.618667 1.024 9.472 9.472 0 0 1 3.285333 4.352l7.424 22.869333a46.890667 46.890667 0 0 0 29.866667 29.781334l22.826666 7.424h0.426667a9.088 9.088 0 0 1 6.016 8.533333 9.002667 9.002667 0 0 1-5.930667 8.490667l-22.826666 7.424a46.933333 46.933333 0 0 0-29.866667 29.824l-7.381333 22.784a9.386667 9.386667 0 0 1-3.328 4.266666 9.045333 9.045333 0 0 1-13.696-4.266666l-7.424-22.784a46.933333 46.933333 0 0 0-29.866667-29.952l-22.826667-7.424a9.088 9.088 0 0 1-4.266666-13.653334 8.533333 8.533333 0 0 1 4.266666-3.328z" /></svg>