<svg class="icon" style="width: 1em;height: 1em;vertical-align: middle;fill: currentColor;overflow: hidden;" viewBox="0 0 1024 1024" version="1.1" xmlns="http://www.w3.org/2000/svg"><path d="M155.776 282.325333l320.085333 202.794667c9.130667 5.802667 14.08 15.061333 14.762667 24.618667V309.333333a32 32 0 0 1 32-32h128a32 32 0 0 1 32 32v405.333334a32 32 0 0 1-32 32h-128a32 32 0 0 1-32-32v-200.106667a31.658667 31.658667 0 0 1-14.805333 24.618667l-320 202.538666A32 32 0 0 1 106.666667 714.666667v-405.333334a32 32 0 0 1 49.109333-27.008zM906.581333 277.333333a32 32 0 0 1 32 32v405.290667a32 32 0 0 1-32 32h-128a32 32 0 0 1-32-32v-405.333333a32 32 0 0 1 32-32h128zM618.581333 341.333333h-64v341.333334h64V341.333333z m256 0h-64V682.666667h64V341.333333zM170.666667 367.488v289.066667l228.266666-144.426667L170.666667 367.488z" /></svg>