<svg class="icon" style="width: 1em;height: 1em;vertical-align: middle;fill: currentColor;overflow: hidden;" viewBox="0 0 1024 1024" version="1.1" xmlns="http://www.w3.org/2000/svg"><path d="M672 85.333333A96 96 0 0 1 768 181.333333v661.333334A96 96 0 0 1 672 938.666667h-320A96 96 0 0 1 256 842.666667V181.333333A96 96 0 0 1 352 85.333333h320z m0 64h-320a32 32 0 0 0-32 32v661.333334c0 17.664 14.336 32 32 32h320a32 32 0 0 0 32-32V181.333333a32 32 0 0 0-32-32z m-106.709333 597.333334a32 32 0 0 1 0.085333 64l-106.666667 0.170666a32 32 0 0 1-0.085333-64l106.666667-0.170666zM618.666667 383.957333a21.333333 21.333333 0 0 1 20.992 17.493334l0.341333 3.84V661.333333a21.333333 21.333333 0 0 1-17.493333 20.992l-3.84 0.341334h-213.333334a21.333333 21.333333 0 0 1-20.992-17.493334L384 661.376V405.333333a21.333333 21.333333 0 0 1 17.493333-20.992l3.84-0.341333h213.333334zM618.666667 213.333333a21.333333 21.333333 0 0 1 20.992 17.493334L640 234.666667v85.546666a21.333333 21.333333 0 0 1-17.493333 20.992l-3.84 0.341334h-213.333334a21.333333 21.333333 0 0 1-20.992-17.493334L384 320.170667V234.666667a21.333333 21.333333 0 0 1 17.493333-20.992L405.333333 213.333333h213.333334z" /></svg>