<svg class="icon" style="width: 1em;height: 1em;vertical-align: middle;fill: currentColor;overflow: hidden;" viewBox="0 0 1024 1024" version="1.1" xmlns="http://www.w3.org/2000/svg"><path d="M842.624 170.666667a96 96 0 0 1 96 96v490.88a96 96 0 0 1-96 96H181.333333A96 96 0 0 1 85.333333 757.546667V266.666667A96 96 0 0 1 181.333333 170.666667h661.290667z m0 64H181.333333a32 32 0 0 0-32 32v490.88c0 17.664 14.336 32 32 32h661.290667a32 32 0 0 0 32-32V266.666667a32 32 0 0 0-32-32zM341.333333 384h330.581334l3.498666 0.170667L682.666667 384a128 128 0 1 1-110.890667 64H452.266667a128 128 0 1 1-118.4-63.786667L341.333333 384z m0 64a64 64 0 1 0 0 128 64 64 0 0 0 0-128z m341.333334 0a64 64 0 1 0 0 128 64 64 0 0 0 0-128z" /></svg>