<svg class="icon" style="width: 1em;height: 1em;vertical-align: middle;fill: currentColor;overflow: hidden;" viewBox="0 0 1024 1024" version="1.1" xmlns="http://www.w3.org/2000/svg"><path d="M874.581333 661.333333H149.333333v213.333334h725.248v-213.333334z m61.738667-43.861333l0.896 2.645333 0.981333 4.266667 0.426667 4.266667v278.016a32 32 0 0 1-27.733333 31.701333l-4.266667 0.298667H117.333333a32 32 0 0 1-31.701333-27.648L85.333333 906.666667v-277.333334l0.085334-2.218666 0.426666-3.669334a31.914667 31.914667 0 0 1 2.005334-6.528l117.76-256.810666a32 32 0 0 1 24.448-18.346667l4.608-0.298667 108.373333-0.042666-33.706667 58.453333-2.858666 5.546667H255.146667L167.168 597.333333H856.32l-86.485333-185.429333 36.778666-63.872c2.858667 2.133333 5.333333 4.821333 7.338667 7.850667l2.261333 4.053333 120.106667 257.536z m-366.08-529.749333l3.925333 1.92 221.354667 128.128c13.994667 8.106667 19.541333 25.216 13.610667 39.808l-1.92 3.925333L687.445333 469.333333h48.554667a32 32 0 0 1 4.352 63.744l-4.352 0.298667-85.418667-0.042667v0.128h-174.037333l-0.128-0.128H288a32 32 0 0 1-4.352-63.658666l4.352-0.298667L365.781333 469.333333l-7.765333-4.48a32.085333 32.085333 0 0 1-13.568-39.808l1.877333-3.925333 184.192-319.829333c8.106667-14.037333 25.173333-19.626667 39.722667-13.653334z m-0.426667 73.386666L417.664 425.386667l75.861333 43.946666h120.192l122.24-212.181333-166.058666-96.128z" /></svg>