<svg class="icon" style="width: 1em;height: 1em;vertical-align: middle;fill: currentColor;overflow: hidden;" viewBox="0 0 1024 1024" version="1.1" xmlns="http://www.w3.org/2000/svg"><path d="M437.333333 597.333333a32 32 0 0 0 0 64h149.333334a32 32 0 0 0 0-64h-149.333334zM373.333333 256a32 32 0 0 0-32 32v192c0 17.706667 14.336 32 32 32h277.333334a32 32 0 0 0 32-32v-192a32 32 0 0 0-32-32h-277.333334z m32 192v-128h213.333334v128h-213.333334zM373.333333 42.666667a32 32 0 0 1 32 32V128h309.333334A96 96 0 0 1 810.666667 224V597.333333a32 32 0 0 1-8.490667 21.717334l-55.509333 60.16v163.456A96 96 0 0 1 650.666667 938.666667H373.376a96 96 0 0 1-96-96v-163.498667L221.866667 619.008A32 32 0 0 1 213.333333 597.333333V224A96 96 0 0 1 309.333333 128H341.333333V74.666667A32 32 0 0 1 373.333333 42.666667zM277.333333 224v360.832l55.552 60.16c5.461333 5.888 8.533333 13.653333 8.533334 21.674667v176c0 17.664 14.293333 32 32 32h277.248a32 32 0 0 0 32-32v-176a32 32 0 0 1 8.490666-21.717334l55.509334-60.16V224a32 32 0 0 0-32-32h-405.333334a32 32 0 0 0-32 32z" /></svg>