<svg class="icon" style="width: 1em;height: 1em;vertical-align: middle;fill: currentColor;overflow: hidden;" viewBox="0 0 1024 1024" version="1.1" xmlns="http://www.w3.org/2000/svg"><path d="M618.666667 573.610667l6.613333 6.229333 248.661333 250.325333 0.426667-3.328 0.298667-5.461333V586.666667a32 32 0 0 1 63.701333-4.352l0.298667 4.352v234.752a117.333333 117.333333 0 0 1-110.165334 117.12l-7.168 0.213333h-234.666666a32 32 0 0 1-4.352-63.701333l4.352-0.298667h234.666666c2.133333 0 4.181333-0.128 6.229334-0.341333l-247.552-249.258667a96 96 0 0 0-130.261334-5.12l-5.504 5.12-250.282666 248.917333 3.242666 0.426667 5.461334 0.256h234.666666l4.352 0.298667a32 32 0 0 1 0 63.402666l-4.352 0.298667h-234.666666l-7.168-0.213333a117.333333 117.333333 0 0 1-109.952-109.653334L85.333333 821.333333V586.666667l0.298667-4.352a32 32 0 0 1 63.402667 0l0.298666 4.352v234.752l0.384 6.272 249.258667-247.808a160 160 0 0 1 219.690667-6.229334z m64.981333-317.098667a85.632 85.632 0 1 1 0 171.264 85.632 85.632 0 0 1 0-171.264zM437.333333 85.290667a32 32 0 0 1 4.352 63.701333l-4.352 0.298667h-234.666666a53.333333 53.333333 0 0 0-53.077334 47.872L149.333333 202.666667v234.752a32 32 0 0 1-63.701333 4.352L85.333333 437.376V202.666667a117.333333 117.333333 0 0 1 110.165334-117.12l7.168-0.213334h234.666666z m384 0l7.168 0.213333a117.333333 117.333333 0 0 1 109.952 109.653333L938.666667 202.666667v234.752l-0.298667 4.352a32 32 0 0 1-63.402667 0l-0.298666-4.352V202.666667l-0.256-5.461334a53.333333 53.333333 0 0 0-47.616-47.616L821.333333 149.333333h-234.666666l-4.352-0.298666a32 32 0 0 1 0-63.402667l4.352-0.298667h234.666666z m-137.685333 235.221333a21.632 21.632 0 1 0 0 43.264 21.632 21.632 0 0 0 0-43.264z" /></svg>