<svg class="icon" style="width: 1em;height: 1em;vertical-align: middle;fill: currentColor;overflow: hidden;" viewBox="0 0 1024 1024" version="1.1" xmlns="http://www.w3.org/2000/svg"><path d="M568.064 322.773333l-5.802667 5.376-447.146666 447.488a96.853333 96.853333 0 0 0 137.002666 136.874667L699.221333 465.066667a96.042667 96.042667 0 0 0-0.042666-135.765334l-6.698667-6.229333a96 96 0 0 0-124.416-0.298667z m-36.181333 126.336l46.421333 46.421334-371.456 371.754666a32.853333 32.853333 0 1 1-46.464-46.421333l371.498667-371.754667z m187.136 191.146667L714.666667 640a32 32 0 0 0-31.701334 27.648L682.666667 672v32h-32a32 32 0 0 0-31.701334 27.648l-0.298666 4.352c0 16.213333 12.032 29.610667 27.648 31.701333l4.352 0.298667H682.666667v32c0 16.213333 12.032 29.610667 27.648 31.701333l4.352 0.298667a32 32 0 0 0 31.701333-27.648l0.298667-4.352V768h32a32 32 0 0 0 31.701333-27.648L810.666667 736a32 32 0 0 0-27.648-31.701333l-4.352-0.298667h-32v-32a32 32 0 0 0-27.648-31.701333L714.666667 640l4.352 0.298667z m-66.261334-266.837333l1.152 1.152a32.042667 32.042667 0 0 1 0 45.269333l-30.336 30.421333-46.464-46.464 31.146667-31.146666a32 32 0 0 1 44.501333 0.768zM292.352 213.632L288 213.333333a32 32 0 0 0-31.701333 27.648L256 245.333333v32h-32a32 32 0 0 0-31.701333 27.648L192 309.333333c0 16.213333 12.032 29.568 27.648 31.701334L224 341.333333H256v32c0 16.213333 12.032 29.568 27.648 31.701334l4.352 0.298666a32 32 0 0 0 31.701333-27.648L320 373.333333V341.333333h32a32 32 0 0 0 31.701333-27.648L384 309.333333a32 32 0 0 0-27.648-31.701333L352 277.333333H320v-32a32 32 0 0 0-27.648-31.701333L288 213.333333l4.352 0.298667z m512-85.333333L800 128a32 32 0 0 0-31.701333 27.648L768 160v32h-32a32 32 0 0 0-31.701333 27.648l-0.298667 4.352c0 16.213333 12.032 29.568 27.648 31.701333L736 256H768v32c0 16.213333 12.032 29.568 27.648 31.701333l4.352 0.298667a32 32 0 0 0 31.701333-27.648l0.298667-4.352V256h32a32 32 0 0 0 31.701333-27.648L896 224a32 32 0 0 0-27.648-31.701333L864 192h-32v-32a32 32 0 0 0-27.648-31.701333L800 128l4.352 0.298667z" /></svg>