<svg class="icon" style="width: 1em;height: 1em;vertical-align: middle;fill: currentColor;overflow: hidden;" viewBox="0 0 1024 1024" version="1.1" xmlns="http://www.w3.org/2000/svg"><path d="M458.666667 853.461333a32 32 0 1 1 0 64 32 32 0 0 1 0-64z m192 0a32 32 0 1 1 0 64 32 32 0 0 1 0-64z m-288-42.666666a32 32 0 1 1 0 64 32 32 0 0 1 0-64z m192 0a32 32 0 1 1 0 64 32 32 0 0 1 0-64z m192 0a32 32 0 1 1 0 64 32 32 0 0 1 0-64zM554.709333 256.725333c135.210667 0 211.882667 89.514667 223.061334 197.546667h3.413333A157.312 157.312 0 0 1 938.666667 611.413333a157.312 157.312 0 0 1-157.525334 157.141334H328.277333a157.312 157.312 0 0 1-157.525333-157.141334 157.312 157.312 0 0 1 157.525333-157.098666h3.413334c11.221333-108.8 87.850667-197.546667 223.018666-197.546667z m0 63.914667c-88.362667 0-165.418667 69.674667-165.418666 165.973333 0 15.232-13.610667 27.178667-29.184 27.178667h-29.44c-53.802667 0-97.450667 42.752-97.450667 95.445333s43.648 95.402667 97.450667 95.402667h448.128c53.76 0 97.408-42.709333 97.408-95.402667 0-52.736-43.648-95.445333-97.450667-95.445333h-29.44c-15.573333 0-29.184-11.946667-29.184-27.221333 0-97.493333-77.056-165.930667-165.418667-165.930667zM281.088 85.76a215.808 215.808 0 0 1 96.554667 28.714667A215.722667 215.722667 0 0 1 471.893333 225.28c-21.333333 5.973333-41.088 14.378667-59.136 24.917333A151.68 151.68 0 0 0 319.317333 157.866667c6.826667 57.642667-2.048 107.221333-26.581333 154.026666l-5.034667 9.130667c-24.32 41.642667-61.098667 72.832-115.968 98.304a153.813333 153.813333 0 0 0 45.610667 26.197333 198.826667 198.826667 0 0 0-49.706667 47.744l-6.613333-3.626666a215.893333 215.893333 0 0 1-70.058667-64.597334 32 32 0 0 1 15.573334-48.341333c70.101333-25.088 107.861333-53.333333 129.450666-94.506667 23.594667-45.013333 27.946667-92.757333 12.288-156.928a32 32 0 0 1 32.853334-39.552z" /></svg>