<svg class="icon" style="width: 1em;height: 1em;vertical-align: middle;fill: currentColor;overflow: hidden;" viewBox="0 0 1024 1024" version="1.1" xmlns="http://www.w3.org/2000/svg"><path d="M458.666667 853.333333a32 32 0 1 1 0 64 32 32 0 0 1 0-64z m192 0a32 32 0 1 1 0 64 32 32 0 0 1 0-64zM362.666667 810.666667a32 32 0 1 1 0 64 32 32 0 0 1 0-64z m192 0a32 32 0 1 1 0 64 32 32 0 0 1 0-64z m192 0a32 32 0 1 1 0 64 32 32 0 0 1 0-64zM554.752 256.426667c135.210667 0 211.882667 89.472 223.061333 197.546666h3.413334a157.312 157.312 0 0 1 157.525333 157.141334 157.312 157.312 0 0 1-157.525333 157.098666H328.277333a157.312 157.312 0 0 1-157.525333-157.098666 157.312 157.312 0 0 1 157.525333-157.141334h3.413334c11.221333-108.8 87.850667-197.546667 223.018666-197.546666z m0 63.914666c-88.362667 0-165.418667 69.674667-165.418667 165.930667 0 15.232-13.610667 27.221333-29.184 27.221333h-29.44c-53.802667 0-97.450667 42.709333-97.450666 95.402667 0 52.693333 43.648 95.445333 97.450666 95.445333h448.128c53.76 0 97.408-42.752 97.408-95.445333s-43.605333-95.402667-97.408-95.402667h-29.482666c-15.573333 0-29.184-11.946667-29.184-27.221333 0-97.493333-77.056-165.973333-165.418667-165.973333z m-368.384 113.408a32 32 0 0 1-13.44 39.850667l-3.882667 1.962667-39.509333 16.341333a32 32 0 0 1-28.416-57.173333l3.925333-1.962667 39.509334-16.341333a32 32 0 0 1 41.813333 17.322666z m276.778667-206.250666l-7.338667 2.474666a248.405333 248.405333 0 0 0-62.293333 32.341334A104.192 104.192 0 0 0 274.346667 418.773333a196.736 196.736 0 0 0-58.282667 27.306667 168.192 168.192 0 0 1 247.082667-218.538667z m-337.664 1.322666l4.522666 1.493334 39.509334 16.384a32 32 0 0 1-20.010667 60.586666L145.066667 305.877333l-39.509334-16.384a32 32 0 0 1 19.968-60.586666z m162.773333-127.402666l1.962667 3.882666 16.341333 39.552a32 32 0 0 1-57.173333 28.373334l-1.962667-3.882667-16.341333-39.552a32 32 0 0 1 57.173333-28.373333z m185.770667-13.568a32 32 0 0 1 18.773333 37.290666l-1.493333 4.48-16.341334 39.552a32 32 0 0 1-60.586666-20.010666l1.450666-4.48 16.384-39.552a32 32 0 0 1 41.813334-17.28z" /></svg>