<svg class="icon" style="width: 1em;height: 1em;vertical-align: middle;fill: currentColor;overflow: hidden;" viewBox="0 0 1024 1024" version="1.1" xmlns="http://www.w3.org/2000/svg"><path d="M512 85.333333a32 32 0 0 1 32 32v21.333334a32 32 0 0 1-64 0v-21.333334A32 32 0 0 1 512 85.333333zM512 213.333333a170.666667 170.666667 0 1 0 0 341.333334 170.666667 170.666667 0 0 0 0-341.333334zM405.333333 384a106.666667 106.666667 0 1 1 213.333334 0 106.666667 106.666667 0 0 1-213.333334 0zM544 629.333333a32 32 0 0 0-64 0v21.333334a32 32 0 0 0 64 0v-21.333334zM245.333333 341.333333a32 32 0 0 0 0 64h21.333334a32 32 0 0 0 0-64h-21.333334zM725.333333 373.333333a32 32 0 0 1 32-32h21.333334a32 32 0 0 1 0 64h-21.333334a32 32 0 0 1-32-32zM286.72 246.613333a32 32 0 0 0 45.226667-45.226666l-21.333334-21.333334a32 32 0 0 0-45.226666 45.226667l21.333333 21.333333zM331.946667 521.386667a32 32 0 0 0-45.226667 0l-21.333333 21.333333a32 32 0 1 0 45.226666 45.226667l21.333334-21.333334a32 32 0 0 0 0-45.226666zM737.28 246.613333a32 32 0 1 1-45.226667-45.226666l21.333334-21.333334a32 32 0 1 1 45.226666 45.226667l-21.333333 21.333333zM692.053333 521.386667a32 32 0 0 1 45.226667 0l21.333333 21.333333a32 32 0 1 1-45.226666 45.226667l-21.333334-21.333334a32 32 0 0 1 0-45.226666zM137.301333 931.669333a32 32 0 0 1-44.970666-4.992c-17.408-21.76 5.077333-45.013333 5.077333-45.013333v-0.085333l0.682667-0.469334a148.906667 148.906667 0 0 1 7.808-5.845333c5.290667-3.84 12.928-9.173333 22.784-15.530667 19.754667-12.672 48.384-29.44 84.565333-46.122666C285.568 780.245333 388.864 746.666667 512 746.666667s226.432 33.578667 298.752 66.944a699.733333 699.733333 0 0 1 84.565333 46.122666 503.381333 503.381333 0 0 1 30.592 21.333334l0.512 0.426666 0.128 0.128 0.128 0.042667a32 32 0 0 1-39.978666 50.005333l-0.213334-0.170666-1.066666-0.853334a437.504 437.504 0 0 0-24.746667-17.066666 635.093333 635.093333 0 0 0-76.757333-41.856C717.568 841.088 623.530667 810.666667 512 810.666667c-111.530667 0-205.568 30.421333-271.914667 61.056-33.109333 15.274667-59.178667 30.549333-76.8 41.856a438.144 438.144 0 0 0-24.704 17.066666l-1.066666 0.853334-0.213334 0.170666z" /></svg>