<svg class="icon" style="width: 1em;height: 1em;vertical-align: middle;fill: currentColor;overflow: hidden;" viewBox="0 0 1024 1024" version="1.1" xmlns="http://www.w3.org/2000/svg"><path d="M139.946667 94.72a32 32 0 1 0-45.226667 45.226667l349.568 349.568c-50.218667 93.738667-136.192 159.616-295.210667 216.533333a32 32 0 0 0-15.573333 48.298667 425.173333 425.173333 0 0 0 138.026667 127.232c167.125333 96.512 372.394667 67.072 505.984-58.794667l106.496 106.538667a32 32 0 0 0 45.269333-45.269334L139.946667 94.72z m592.256 682.752a362.88 362.88 0 0 1-520.533334-26.666667c139.477333-55.68 225.322667-122.88 279.552-214.314666l240.981334 240.981333zM666.24 197.888a362.752 362.752 0 0 1 143.317333 475.904l47.36 47.36c114.389333-203.52 44.032-461.653333-158.677333-578.688a425.002667 425.002667 0 0 0-190.165333-56.618667 32 32 0 0 0-32.810667 39.509334c21.546667 88.32 25.813333 162.645333 15.104 229.248l53.973333 54.016c19.413333-75.093333 21.205333-157.696 2.773334-254.08 41.514667 7.253333 81.706667 21.76 119.125333 43.349333z" /></svg>