<svg class="icon" style="width: 1em;height: 1em;vertical-align: middle;fill: currentColor;overflow: hidden;" viewBox="0 0 1024 1024" version="1.1" xmlns="http://www.w3.org/2000/svg"><path d="M330.453333 832h362.709334a32 32 0 0 1 4.352 63.701333l-4.352 0.298667H330.453333a32 32 0 0 1-4.352-63.701333l4.352-0.298667h362.709334-362.709334zM202.666667 704.853333h618.666666a32 32 0 0 1 4.352 63.658667l-4.352 0.298667H202.666667a32 32 0 0 1-4.352-63.701334l4.352-0.298666zM512 128.170667c135.168 0 211.882667 89.472 223.018667 197.546666h3.413333A157.312 157.312 0 0 1 896 482.901333 157.312 157.312 0 0 1 738.432 640H285.568A157.312 157.312 0 0 1 128 482.901333a157.312 157.312 0 0 1 157.525333-157.141333h3.413334c11.221333-108.8 87.808-197.546667 223.018666-197.546667z m0 63.872c-88.362667 0-165.418667 69.717333-165.418667 165.973333 0 15.232-13.610667 27.221333-29.184 27.221333h-29.44c-53.802667 0-97.450667 42.666667-97.450666 95.402667 0 52.693333 43.648 95.402667 97.450666 95.402667H736c53.802667 0 97.450667-42.666667 97.450667-95.402667 0-52.693333-43.648-95.402667-97.450667-95.402667h-29.44c-15.573333 0-29.184-11.946667-29.184-27.221333 0-97.493333-77.056-165.973333-165.418667-165.973333z" /></svg>