<svg class="icon" style="width: 1em;height: 1em;vertical-align: middle;fill: currentColor;overflow: hidden;" viewBox="0 0 1024 1024" version="1.1" xmlns="http://www.w3.org/2000/svg"><path d="M618.581333 746.666667a32 32 0 1 1 0 64 32 32 0 0 1 0-64zM512 170.666667c135.210667 0 211.882667 89.514667 223.018667 197.546666h3.413333A157.312 157.312 0 0 1 896 525.397333a157.312 157.312 0 0 1-157.568 157.141334H682.666667a32 32 0 0 1-61.098667 0h-238.08l-67.413333 112.085333a32 32 0 0 1-57.301334-28.117333l1.92-3.882667 48.896-80.085333h-24.021333A157.312 157.312 0 0 1 128 525.354667a157.312 157.312 0 0 1 157.525333-157.098667h3.413334C300.202667 259.413333 376.832 170.666667 512 170.666667z m-18.005333 542.08a32 32 0 0 1 13.653333 39.808l-1.962667 3.882666-24.149333 38.357334a32 32 0 0 1-57.344-28.117334l1.92-3.882666 24.149333-38.357334a32 32 0 0 1 43.733334-11.690666zM736 725.333333a32 32 0 1 1 0 64 32 32 0 0 1 0-64zM512 234.581333c-88.362667 0-165.418667 69.717333-165.418667 165.973334 0 15.232-13.610667 27.178667-29.184 27.178666h-29.44c-53.802667 0-97.450667 42.752-97.450666 95.445334s43.648 95.402667 97.450666 95.402666h448.128c53.76 0 97.408-42.709333 97.408-95.402666 0-52.693333-43.648-95.445333-97.450666-95.445334h-29.44c-15.573333 0-29.184-11.946667-29.184-27.178666 0-97.493333-77.056-165.973333-165.418667-165.973334z" /></svg>