<svg class="icon" style="width: 1em;height: 1em;vertical-align: middle;fill: currentColor;overflow: hidden;" viewBox="0 0 1024 1024" version="1.1" xmlns="http://www.w3.org/2000/svg"><path d="M501.333333 85.333333a32 32 0 0 1 31.701334 27.690667l0.298666 4.352-0.042666 142.72 92.672-81.365333a32 32 0 0 1 42.24 48.085333L533.333333 345.301333 533.248 469.333333h124.117333l118.613334-134.826666a32 32 0 0 1 41.386666-5.76l3.754667 2.858666a32 32 0 0 1 5.76 41.386667l-2.858667 3.754667L742.613333 469.333333h142.72a32 32 0 0 1 31.701334 27.690667l0.298666 4.309333a32 32 0 0 1-27.648 31.701334l-4.352 0.298666h-142.848l81.450667 92.714667a32 32 0 0 1 0.426667 41.813333l-3.328 3.328a32 32 0 0 1-41.813334 0.426667l-3.370666-3.328-118.570667-134.954667h-124.074667l0.042667 124.032 134.997333 118.613334a32 32 0 0 1 5.76 41.386666l-2.858666 3.797334a32 32 0 0 1-41.386667 5.76l-3.754667-2.858667-92.757333-81.493333-0.042667 142.848a32 32 0 0 1-27.690666 31.701333l-4.309334 0.256a32 32 0 0 1-31.701333-27.648l-0.298667-4.352-0.042666-142.634667-92.458667 81.322667a32 32 0 0 1-42.24-48.085333l134.741333-118.485334v-124.16H354.645333l-127.872 145.621334a32 32 0 0 1-48.085333-42.24l90.794667-103.381334-152.149334 0.085334a32 32 0 0 1-31.701333-27.690667L85.333333 501.376a32 32 0 0 1 27.648-31.744l4.352-0.256h133.290667L178.688 387.328a32 32 0 1 1 48.085333-42.24L335.786667 469.333333h133.461333V345.173333l-134.826667-118.528a32 32 0 0 1-5.76-41.386666l2.858667-3.754667a32 32 0 0 1 41.386667-5.76l3.797333 2.858667 92.586667 81.365333L469.333333 117.333333a32 32 0 0 1 23.466667-30.848l4.181333-0.853333L501.333333 85.333333z" /></svg>