<svg class="icon" style="width: 1em;height: 1em;vertical-align: middle;fill: currentColor;overflow: hidden;" viewBox="0 0 1024 1024" version="1.1" xmlns="http://www.w3.org/2000/svg"><path d="M554.752 341.717333c135.168 0 211.882667 89.472 223.018667 197.546667h3.413333a157.312 157.312 0 0 1 157.525333 157.141333 157.312 157.312 0 0 1-157.525333 157.098667H328.277333a157.312 157.312 0 0 1-157.525333-157.098667 157.312 157.312 0 0 1 157.525333-157.141333h3.413334c11.221333-108.8 87.893333-197.546667 223.061333-197.546667z m0 63.872c-88.405333 0-165.418667 69.717333-165.418667 165.973334 0 15.232-13.610667 27.221333-29.184 27.221333h-29.44c-53.845333 0-97.450667 42.666667-97.450666 95.402667 0 52.693333 43.605333 95.402667 97.408 95.402666h448.128c53.802667 0 97.408-42.666667 97.408-95.402666 0-52.693333-43.605333-95.402667-97.408-95.402667h-29.44c-15.616 0-29.226667-11.946667-29.226667-27.221333 0-97.493333-77.013333-165.973333-165.376-165.973334zM281.130667 170.709333a215.808 215.808 0 0 1 96.554666 28.757334A215.765333 215.765333 0 0 1 471.893333 310.186667c-21.333333 5.973333-41.088 14.421333-59.136 24.917333a151.68 151.68 0 0 0-93.44-92.245333c6.826667 57.685333-2.005333 107.221333-26.538666 154.069333l-5.034667 9.088c-24.362667 41.642667-61.098667 72.874667-116.010667 98.304a153.728 153.728 0 0 0 45.653334 26.197333c-19.2 12.885333-36.053333 29.056-49.749334 47.744a215.893333 215.893333 0 0 1-76.672-68.224 32 32 0 0 1 15.616-48.298666c70.101333-25.088 107.818667-53.333333 129.450667-94.549334 23.552-45.013333 27.904-92.757333 12.245333-156.885333A32 32 0 0 1 281.173333 170.666667z" /></svg>