<svg class="icon" style="width: 1em;height: 1em;vertical-align: middle;fill: currentColor;overflow: hidden;" viewBox="0 0 1024 1024" version="1.1" xmlns="http://www.w3.org/2000/svg"><path d="M544 117.333333a32 32 0 0 0-64 0v64a32 32 0 0 0 64 0v-64zM811.946667 212.053333a32 32 0 0 1 0 45.226667l-45.226667 45.269333a32 32 0 0 1-45.269333-45.226666l45.226666-45.269334a32 32 0 0 1 45.269334 0zM742.826667 554.666667A234.666667 234.666667 0 1 0 281.173333 554.666667H117.333333a32 32 0 0 0 0 64h789.333334a32 32 0 0 0 0-64h-163.84zM512 341.333333a170.666667 170.666667 0 0 1 165.290667 213.333334H346.709333A170.666667 170.666667 0 0 1 512 341.333333zM256 714.666667a32 32 0 0 1 32-32h448a32 32 0 0 1 0 64H288a32 32 0 0 1-32-32zM426.666667 842.666667a32 32 0 0 1 32-32h106.666666a32 32 0 0 1 0 64h-106.666666a32 32 0 0 1-32-32zM212.053333 212.053333a32 32 0 0 1 45.226667 0l45.269333 45.226667a32 32 0 1 1-45.226666 45.269333L212.053333 257.322667a32 32 0 0 1 0-45.269334z" /></svg>