<svg class="icon" style="width: 1em;height: 1em;vertical-align: middle;fill: currentColor;overflow: hidden;" viewBox="0 0 1024 1024" version="1.1" xmlns="http://www.w3.org/2000/svg"><path d="M554.752 341.632c135.210667 0 211.882667 89.472 223.061333 197.546667h3.413334a157.312 157.312 0 0 1 157.525333 157.141333 157.312 157.312 0 0 1-157.525333 157.098667H328.277333a157.312 157.312 0 0 1-157.525333-157.098667 157.312 157.312 0 0 1 157.525333-157.141333h3.413334c11.221333-108.8 87.850667-197.546667 223.018666-197.546667z m0 63.914667c-88.362667 0-165.418667 69.674667-165.418667 165.930666 0 15.232-13.610667 27.221333-29.184 27.221334h-29.44c-53.802667 0-97.450667 42.709333-97.450666 95.402666 0 52.693333 43.648 95.402667 97.450666 95.402667h448.128c53.76 0 97.408-42.666667 97.408-95.402667 0-52.693333-43.605333-95.402667-97.408-95.402666h-29.482666c-15.573333 0-29.184-11.946667-29.184-27.221334 0-97.493333-77.056-165.973333-165.418667-165.973333z m-368.384 113.365333a32 32 0 0 1-13.44 39.893333l-3.882667 1.92-39.509333 16.384a32 32 0 0 1-28.416-57.173333l3.925333-1.962667 39.509334-16.341333a32 32 0 0 1 41.813333 17.28z m276.778667-206.208l-7.338667 2.474667a248.405333 248.405333 0 0 0-62.293333 32.341333 104.192 104.192 0 0 0-119.168 156.458667 196.693333 196.693333 0 0 0-58.282667 27.306666 168.192 168.192 0 0 1 247.082667-218.538666zM125.44 314.026667l4.522667 1.493333 39.509333 16.384a32 32 0 0 1-20.010667 60.586667L145.066667 391.082667l-39.509334-16.384a32 32 0 0 1 19.968-60.586667z m162.773333-127.402667l1.962667 3.882667 16.341333 39.552a32 32 0 0 1-57.173333 28.373333l-1.962667-3.882667-16.341333-39.552a32 32 0 0 1 57.173333-28.373333z m185.770667-13.610667a32 32 0 0 1 18.773333 37.333334l-1.493333 4.48-16.341333 39.552a32 32 0 0 1-60.586667-20.010667l1.450667-4.522667 16.384-39.509333a32 32 0 0 1 41.813333-17.322667z" /></svg>