<svg class="icon" style="width: 1em;height: 1em;vertical-align: middle;fill: currentColor;overflow: hidden;" viewBox="0 0 1024 1024" version="1.1" xmlns="http://www.w3.org/2000/svg"><path d="M416 774.442667a32 32 0 1 1 0 64 32 32 0 0 1 0-64z m192 0a32 32 0 1 1 0 64 32 32 0 0 1 0-64z m-288-42.666667a32 32 0 1 1 0 64 32 32 0 0 1 0-64z m192 0a32 32 0 1 1 0 64 32 32 0 0 1 0-64z m192 0a32 32 0 1 1 0 64 32 32 0 0 1 0-64zM512 170.709333c135.210667 0 211.882667 89.472 223.018667 197.546667h3.413333A157.312 157.312 0 0 1 896 525.354667a157.312 157.312 0 0 1-157.568 157.141333H285.568A157.312 157.312 0 0 1 128 525.354667a157.312 157.312 0 0 1 157.525333-157.098667h3.413334C300.202667 259.413333 376.832 170.666667 512 170.666667z m0 63.872c-88.362667 0-165.418667 69.717333-165.418667 165.973334 0 15.232-13.610667 27.178667-29.184 27.178666h-29.44c-53.802667 0-97.450667 42.752-97.450666 95.445334s43.648 95.402667 97.450666 95.402666h448.128c53.76 0 97.408-42.709333 97.408-95.402666 0-52.693333-43.648-95.445333-97.450666-95.445334h-29.44c-15.573333 0-29.184-11.946667-29.184-27.178666 0-97.493333-77.056-165.973333-165.418667-165.973334z" /></svg>