<svg class="icon" style="width: 1em;height: 1em;vertical-align: middle;fill: currentColor;overflow: hidden;" viewBox="0 0 1024 1024" version="1.1" xmlns="http://www.w3.org/2000/svg"><path d="M554.666667 853.333333a42.666667 42.666667 0 1 1 0 85.333334 42.666667 42.666667 0 0 1 0-85.333334z m-149.333334-42.666666a42.666667 42.666667 0 1 1 0 85.333333 42.666667 42.666667 0 0 1 0-85.333333z m298.666667 0a42.666667 42.666667 0 1 1 0 85.333333 42.666667 42.666667 0 0 1 0-85.333333zM554.752 256.384c135.168 0 211.882667 89.472 223.018667 197.546667h3.413333a157.312 157.312 0 0 1 157.525333 157.141333 157.312 157.312 0 0 1-157.525333 157.098667H328.277333a157.312 157.312 0 0 1-157.525333-157.098667 157.312 157.312 0 0 1 157.525333-157.141333h3.413334c11.221333-108.8 87.893333-197.546667 223.061333-197.546667z m0 63.872c-88.405333 0-165.418667 69.717333-165.418667 165.973333 0 15.232-13.610667 27.221333-29.184 27.221334h-29.44c-53.845333 0-97.450667 42.666667-97.450666 95.402666 0 52.693333 43.605333 95.402667 97.408 95.402667h448.128c53.802667 0 97.408-42.666667 97.408-95.402667 0-52.693333-43.605333-95.402667-97.408-95.402666h-29.44c-15.616 0-29.226667-11.946667-29.226667-27.221334 0-97.493333-77.013333-165.973333-165.376-165.973333z m-368.426667 113.408a32 32 0 0 1-13.397333 39.893333l-3.925333 1.92-39.509334 16.384a32 32 0 0 1-28.373333-57.173333l3.882667-1.962667 39.509333-16.384a32 32 0 0 1 41.813333 17.322667z m276.778667-206.208l-7.296 2.474667a248.405333 248.405333 0 0 0-62.293333 32.341333A104.192 104.192 0 0 0 274.346667 418.730667a196.736 196.736 0 0 0-58.325334 27.306666 168.192 168.192 0 0 1 247.082667-218.538666z m-337.621333 1.322667l4.48 1.493333 39.509333 16.384a32 32 0 0 1-19.968 60.586667l-4.522667-1.450667-39.509333-16.384a32 32 0 0 1 20.010667-60.586667z m162.773333-127.402667l1.92 3.882667 16.384 39.509333a32 32 0 0 1-57.173333 28.416l-1.962667-3.925333-16.384-39.509334a32 32 0 0 1 57.173333-28.373333z m185.728-13.610667a32 32 0 0 1 18.773333 37.333334l-1.450666 4.48-16.384 39.509333a32 32 0 0 1-60.586667-19.968l1.493333-4.522667 16.341334-39.509333a32 32 0 0 1 41.813333-17.322667z" /></svg>