<svg class="icon" style="width: 1em;height: 1em;vertical-align: middle;fill: currentColor;overflow: hidden;" viewBox="0 0 1024 1024" version="1.1" xmlns="http://www.w3.org/2000/svg"><path d="M512 128c135.168 0 211.882667 89.514667 223.018667 197.546667h3.413333A157.312 157.312 0 0 1 896 482.730667a157.312 157.312 0 0 1-157.525333 157.141333h-24.832l-0.128 0.170667h-11.264a32.213333 32.213333 0 0 1-3.541334 7.082666l-42.666666 64a32 32 0 0 1-53.248-35.498666l23.850666-35.754667h-78.08l-0.085333 0.170667h-16.938667a31.786667 31.786667 0 0 1-3.541333 7.082666l-42.666667 64a32 32 0 1 1-53.248-35.498666l23.893334-35.754667H383.402667L383.36 640h-22.485333a32.213333 32.213333 0 0 1-3.584 7.082667l-42.666667 64a32 32 0 0 1-53.248-35.498667l23.893333-35.754667A157.312 157.312 0 0 1 128 482.688a157.312 157.312 0 0 1 157.568-157.098667h3.413333C300.16 216.746667 376.746667 128 512 128z m0 63.914667c-88.362667 0-165.418667 69.717333-165.418667 165.973333 0 15.232-13.610667 27.178667-29.184 27.178667h-29.44c-53.802667 0-97.450667 42.752-97.450666 95.445333s43.648 95.402667 97.450666 95.402667H736c53.802667 0 97.450667-42.709333 97.450667-95.402667 0-52.693333-43.648-95.445333-97.450667-95.445333h-29.44c-15.573333 0-29.184-11.946667-29.184-27.178667 0-97.493333-77.056-165.973333-165.418667-165.973333zM304.042667 803.584a32 32 0 1 0 53.248 35.498667l42.666666-64a32 32 0 0 0-53.248-35.498667l-42.666666 64zM483.584 847.957333a32 32 0 0 1-8.874667-44.373333l42.666667-64a32 32 0 1 1 53.248 35.498667l-42.666667 64a32 32 0 0 1-44.373333 8.874666z" /></svg>