<svg class="icon" style="width: 1em;height: 1em;vertical-align: middle;fill: currentColor;overflow: hidden;" viewBox="0 0 1024 1024" version="1.1" xmlns="http://www.w3.org/2000/svg"><path d="M384 725.333333a85.333333 85.333333 0 1 1 0 170.666667 85.333333 85.333333 0 0 1 0-170.666667z m426.581333-298.666666a128.042667 128.042667 0 1 1 0 256h-1.28l-4.352 0.298666H755.2c8.106667 15.914667 12.714667 33.92 12.714667 52.992 0 65.28-49.152 117.632-114.133334 117.632-64.213333 0-103.04-37.632-113.493333-89.728a32 32 0 1 1 62.72-12.586666c4.864 24.106667 19.498667 38.314667 50.773333 38.314666 28.672 0 50.133333-22.826667 50.133334-53.589333 0-29.397333-24.234667-53.333333-54.314667-53.333333l-532.821333 0.298666a32 32 0 0 1-4.352-63.744l4.352-0.256h528.512l4.309333-0.298666c2.773333 0 5.461333 0.085333 8.149333 0.256l148.138667 0.085333 2.304-0.256 8.533333-0.384a64 64 0 1 0-69.504-73.514667l-1.152 10.197334A32 32 0 0 1 682.666667 546.858667 128.042667 128.042667 0 0 1 810.581333 426.666667zM384 789.333333a21.333333 21.333333 0 1 0 0 42.666667 21.333333 21.333333 0 0 0 0-42.666667zM512 170.666667a170.666667 170.666667 0 0 1 0.938667 341.333333H117.589333a32 32 0 0 1-4.352-63.701333l4.352-0.298667H512l7.04-0.213333A106.666667 106.666667 0 1 0 405.333333 341.333333 32 32 0 1 1 341.333333 341.333333a170.666667 170.666667 0 0 1 170.666667-170.666666zM170.922667 213.333333a85.333333 85.333333 0 1 1 0 170.666667 85.333333 85.333333 0 0 1 0-170.666667zM853.333333 170.666667a85.333333 85.333333 0 1 1 0 170.666666 85.333333 85.333333 0 0 1 0-170.666666zM170.922667 277.333333a21.333333 21.333333 0 1 0 0 42.666667 21.333333 21.333333 0 0 0 0-42.666667zM853.333333 234.666667a21.333333 21.333333 0 1 0 0 42.666666 21.333333 21.333333 0 0 0 0-42.666666z" /></svg>