<svg class="icon" style="width: 1em;height: 1em;vertical-align: middle;fill: currentColor;overflow: hidden;" viewBox="0 0 1024 1024" version="1.1" xmlns="http://www.w3.org/2000/svg"><path d="M854.442667 725.376c-117.845333 204.117333-378.837333 274.048-582.954667 156.202667a425.130667 425.130667 0 0 1-137.984-127.274667 32 32 0 0 1 15.573333-48.256c160.725333-57.514667 246.826667-124.202667 296.789334-219.562667 52.565333-100.394667 66.176-210.346667 29.397333-361.130666a32 32 0 0 1 32.810667-39.509334 425.002667 425.002667 0 0 1 190.165333 56.618667C902.357333 260.266667 972.288 521.258667 854.4 725.333333z m-351.914667-209.194667c-53.333333 101.888-141.226667 174.890667-290.858667 234.624a362.325333 362.325333 0 0 0 91.818667 75.349334 362.709333 362.709333 0 1 0 362.752-628.266667 362.026667 362.026667 0 0 0-119.125333-43.349333c27.605333 144.384 9.813333 257.877333-44.586667 361.642666z" /></svg>