<svg class="icon" style="width: 1em;height: 1em;vertical-align: middle;fill: currentColor;overflow: hidden;" viewBox="0 0 1024 1024" version="1.1" xmlns="http://www.w3.org/2000/svg"><path d="M291.925333 596.650667a240.981333 240.981333 0 0 1 73.088 0.896c55.168 8.96 107.605333 35.754667 163.114667 68.138666 100.565333 58.666667 211.029333 47.018667 274.602667 1.621334a32 32 0 0 1 37.205333 52.053333c-85.76 61.269333-223.573333 71.893333-344.064 1.621333-55.04-32.085333-98.56-53.333333-141.098667-60.245333-40.832-6.613333-83.413333-0.426667-136.789333 28.714667a32 32 0 0 1-30.634667-56.192c36.736-20.053333 71.168-31.914667 104.533334-36.608zM346.154667 467.2a240.682667 240.682667 0 0 0-66.261334 3.413333c-29.653333 5.632-60.202667 16.938667-92.586666 34.602667a32 32 0 1 0 30.677333 56.192c53.333333-29.098667 95.914667-35.328 136.746667-28.672 42.538667 6.912 86.101333 28.16 141.098666 60.202667 120.533333 70.314667 258.346667 59.648 344.064-1.578667a32 32 0 0 0-37.162666-52.053333c-17.493333 12.416-38.4 22.357333-61.781334 28.970666a252.330667 252.330667 0 0 1-70.186666 9.301334 286.592 286.592 0 0 1-142.677334-39.893334c-55.509333-32.426667-107.946667-59.178667-163.114666-68.138666a252.629333 252.629333 0 0 0-18.816-2.346667zM747.733333 512c0 2.986667-0.085333 5.973333-0.170666 8.96-19.072 7.68-41.258667 12.629333-65.322667 13.738667a171.733333 171.733333 0 0 0-319.018667-108.544 283.434667 283.434667 0 0 0-70.613333-0.64A235.818667 235.818667 0 0 1 747.733333 512zM517.205333 938.666667a32.341333 32.341333 0 0 1-10.752 0h10.752zM254.890667 210.816l-3.584-3.114667a32 32 0 0 0-41.685334 48.384l45.226667 45.226667 3.626667 3.114667a32 32 0 0 0 41.642666-48.341334L254.890667 210.773333zM817.066667 252.501333a32 32 0 0 0-48.298667-41.685333l-45.269333 45.226667-3.114667 3.626666a32 32 0 0 0 48.384 41.642667l45.226667-45.226667 3.114666-3.584zM543.701333 112.554667a32 32 0 0 0-63.701333 4.352v64l0.298667 4.309333a32 32 0 0 0 63.701333-4.352v-64l-0.298667-4.309333zM218.026667 817.450667c53.333333-29.141333 95.914667-35.328 136.746666-28.714667 42.496 6.912 86.101333 28.16 141.098667 60.245333 120.533333 70.272 258.346667 59.648 344.064-1.621333a32 32 0 1 0-37.205333-52.053333c-63.573333 45.397333-174.037333 57.045333-274.602667-1.621334-55.509333-32.384-107.946667-59.136-163.114667-68.096-56.874667-9.258667-113.706667 0.768-177.664 35.669334a32 32 0 1 0 30.634667 56.192z" /></svg>