<svg class="icon" style="width: 1em;height: 1em;vertical-align: middle;fill: currentColor;overflow: hidden;" viewBox="0 0 1024 1024" version="1.1" xmlns="http://www.w3.org/2000/svg"><path d="M446.464 671.914667L541.866667 565.76a32 32 0 0 1 50.517333 39.04l-2.901333 3.754667-47.402667 52.736h97.109333a32 32 0 0 1 27.52 48.384l-2.474666 3.584-137.045334 171.989333a32 32 0 0 1-52.736-35.968l2.688-3.882667 95.658667-120.106666h-102.528a32 32 0 0 1-26.581333-49.834667l2.773333-3.541333L541.866667 565.76l-95.402667 106.154667z m108.288-458.24c135.168 0 211.882667 89.514667 223.018667 197.589333h3.413333a157.312 157.312 0 0 1 157.525333 157.141333 157.312 157.312 0 0 1-157.525333 157.098667l-76.288 0.042667a56.874667 56.874667 0 0 0-0.085333-64l73.984 0.085333c53.802667 0 97.408-42.752 97.408-95.445333s-43.605333-95.402667-97.408-95.402667h-29.44c-15.616 0-29.226667-11.946667-29.226667-27.221333 0-97.493333-77.013333-165.973333-165.376-165.973334-88.405333 0-165.418667 69.717333-165.418667 165.973334 0 15.232-13.610667 27.221333-29.184 27.221333h-29.44c-53.845333 0-97.450667 42.666667-97.450666 95.402667 0 52.693333 43.605333 95.445333 97.408 95.445333l75.178666-0.042667a56.832 56.832 0 0 0-0.085333 64l-77.482667-0.085333a157.312 157.312 0 0 1-157.525333-157.098667 157.312 157.312 0 0 1 157.525333-157.141333h3.413334c11.221333-108.8 87.893333-197.546667 223.061333-197.546667zM426.666667 85.333333c68.992 0 130.133333 34.773333 166.4 87.978667a319.829333 319.829333 0 0 0-38.314667-2.261333c-16.853333 0-33.066667 1.237333-48.597333 3.626666a137.386667 137.386667 0 0 0-214.698667 87.978667l-3.114667 17.664a42.666667 42.666667 0 0 1-42.026666 35.285333h-20.906667a76.032 76.032 0 0 0-53.930667 129.706667c-13.44 17.066667-24.106667 36.48-31.36 57.472a140.032 140.032 0 0 1 77.312-250.922667l10.965334-0.256A201.386667 201.386667 0 0 1 426.666667 85.333333z" /></svg>