<svg class="icon" style="width: 1em;height: 1em;vertical-align: middle;fill: currentColor;overflow: hidden;" viewBox="0 0 1024 1024" version="1.1" xmlns="http://www.w3.org/2000/svg"><path d="M554.752 299.050667c135.168 0 211.882667 89.472 223.018667 197.546666h3.413333a157.312 157.312 0 0 1 157.525333 157.141334 157.312 157.312 0 0 1-157.525333 157.098666H328.277333a157.312 157.312 0 0 1-157.525333-157.098666 157.312 157.312 0 0 1 157.525333-157.141334h3.413334c11.221333-108.8 87.893333-197.546667 223.061333-197.546666z m0 63.872c-88.405333 0-165.418667 69.717333-165.418667 165.973333 0 15.232-13.610667 27.221333-29.184 27.221333h-29.44c-53.845333 0-97.450667 42.666667-97.450666 95.402667 0 52.693333 43.605333 95.402667 97.408 95.402667h448.128c53.802667 0 97.408-42.666667 97.408-95.402667 0-52.693333-43.605333-95.402667-97.408-95.402667h-29.44c-15.616 0-29.226667-11.946667-29.226667-27.221333 0-97.493333-77.013333-165.973333-165.376-165.973333zM426.666667 170.666667c68.992 0 130.133333 34.773333 166.4 87.978666a319.829333 319.829333 0 0 0-38.314667-2.261333c-16.853333 0-33.066667 1.237333-48.597333 3.626667a137.386667 137.386667 0 0 0-214.698667 87.978666l-3.114667 17.664a42.666667 42.666667 0 0 1-42.026666 35.285334h-20.906667a76.032 76.032 0 0 0-53.930667 129.706666c-13.44 17.066667-24.106667 36.48-31.36 57.472a140.032 140.032 0 0 1 77.312-250.922666l10.965334-0.256A201.386667 201.386667 0 0 1 426.666667 170.666667z" /></svg>