<svg class="icon" style="width: 1em;height: 1em;vertical-align: middle;fill: currentColor;overflow: hidden;" viewBox="0 0 1024 1024" version="1.1" xmlns="http://www.w3.org/2000/svg"><path d="M800 128A138.666667 138.666667 0 0 1 938.666667 266.666667v490.666666A138.666667 138.666667 0 0 1 800 896H224A138.666667 138.666667 0 0 1 85.333333 757.333333V266.666667A138.666667 138.666667 0 0 1 224 128h576z m0 64H224A74.666667 74.666667 0 0 0 149.333333 266.666667v490.666666c0 41.216 33.450667 74.666667 74.666667 74.666667h576a74.666667 74.666667 0 0 0 74.666667-74.666667V266.666667a74.666667 74.666667 0 0 0-74.666667-74.666667z m-512.085333 85.333333h448.256a32 32 0 0 1 4.352 63.701334L736.170667 341.333333H287.914667a32 32 0 0 1-4.309334-63.701333l4.309334-0.298667h448.256H287.914667z" /></svg>