<svg class="icon" style="width: 1em;height: 1em;vertical-align: middle;fill: currentColor;overflow: hidden;" viewBox="0 0 1024 1024" version="1.1" xmlns="http://www.w3.org/2000/svg"><path d="M277.333333 512a234.666667 234.666667 0 1 1 0 469.333333 234.666667 234.666667 0 0 1 0-469.333333z m0 85.248a74.666667 74.666667 0 0 0-74.410666 68.565333l-0.256 6.101334v33.322666c-16.853333 4.352-29.696 18.773333-31.701334 36.437334L170.666667 746.581333v106.666667a42.666667 42.666667 0 0 0 37.674666 42.368l4.992 0.298667h128a42.666667 42.666667 0 0 0 42.368-37.674667L384 853.248v-106.666667a42.666667 42.666667 0 0 0-27.477333-39.893333l-4.48-1.408-0.042667-33.365333a74.666667 74.666667 0 0 0-74.666667-74.666667z m0 42.666667a32 32 0 0 1 31.701334 27.648l0.298666 4.352v32h-64v-32a32 32 0 0 1 32-32z m390.101334-50.261334c19.114667 19.072 34.816 42.538667 45.738666 67.498667a32 32 0 1 1-58.581333 25.685333 152.874667 152.874667 0 0 0-148.266667-92.629333 278.314667 278.314667 0 0 0-50.986666-56.234667 217.173333 217.173333 0 0 1 212.096 55.637334z m89.685333-130.986666a353.749333 353.749333 0 0 1 63.658667 88.32 32 32 0 1 1-56.96 29.141333 290.048 290.048 0 0 0-51.968-72.192 280.021333 280.021333 0 0 0-365.909334-26.069333 279.210667 279.210667 0 0 0-85.973333-8.021334 343.978667 343.978667 0 0 1 497.152-11.178666z m115.328-105.429334c21.76 21.717333 42.24 46.506667 60.074667 72.405334a32 32 0 0 1-52.650667 36.352 461.696 461.696 0 0 0-52.650667-63.530667c-174.08-174.08-456.362667-174.08-630.442666 0-17.962667 18.005333-35.84 39.850667-52.138667 63.317333a32 32 0 1 1-52.565333-36.48c18.346667-26.453333 38.570667-51.2 59.477333-72.106666 199.082667-199.04 521.813333-199.04 720.896 0z" /></svg>