<svg class="icon" style="width: 1em;height: 1em;vertical-align: middle;fill: currentColor;overflow: hidden;" viewBox="0 0 1024 1024" version="1.1" xmlns="http://www.w3.org/2000/svg"><path d="M757.12 458.709333a353.749333 353.749333 0 0 1 63.658667 88.32 32 32 0 1 1-56.96 29.098667 290.048 290.048 0 0 0-51.968-72.149333 279.978667 279.978667 0 0 0-447.701334 71.381333 32 32 0 1 1-57.130666-28.885333 343.978667 343.978667 0 0 1 550.101333-87.765334z m-89.685333 130.944c19.114667 19.072 34.816 42.538667 45.738666 67.498667a32 32 0 0 1-58.581333 25.685333 158.72 158.72 0 0 0-32.426667-47.957333 153.258667 153.258667 0 0 0-216.746666 0c-13.226667 13.269333-23.978667 29.44-31.829334 47.402667a32 32 0 1 1-58.666666-25.642667 218.026667 218.026667 0 0 1 45.269333-66.986667 217.258667 217.258667 0 0 1 307.242667 0z m-110.165334 111.786667a64 64 0 1 1-90.538666 90.496 64 64 0 0 1 90.538666-90.538667z" /></svg>