<svg class="icon" style="width: 1em;height: 1em;vertical-align: middle;fill: currentColor;overflow: hidden;" viewBox="0 0 1024 1024" version="1.1" xmlns="http://www.w3.org/2000/svg"><path d="M466.773333 701.44a64 64 0 1 1 90.453334 90.453333 64 64 0 0 1-90.453334-90.453333z m-106.581333-111.786667a217.258667 217.258667 0 0 1 307.242667 0c19.114667 19.072 34.816 42.538667 45.738666 67.498667a32 32 0 1 1-58.581333 25.685333 158.72 158.72 0 0 0-32.426667-47.957333 153.258667 153.258667 0 0 0-216.746666 0c-13.226667 13.226667-23.978667 29.397333-31.829334 47.36a32 32 0 1 1-58.666666-25.6 218.026667 218.026667 0 0 1 45.269333-66.986667z" /></svg>