<svg class="icon" style="width: 1em;height: 1em;vertical-align: middle;fill: currentColor;overflow: hidden;" viewBox="0 0 1024 1024" version="1.1" xmlns="http://www.w3.org/2000/svg"><path d="M757.12 458.666667a353.749333 353.749333 0 0 1 63.658667 88.32 32 32 0 1 1-56.96 29.141333 290.048 290.048 0 0 0-51.968-72.192 279.978667 279.978667 0 0 0-447.701334 71.381333 32 32 0 1 1-57.130666-28.885333 343.978667 343.978667 0 0 1 550.101333-87.765333z m-89.685333 130.986666c19.114667 19.072 34.816 42.538667 45.738666 67.498667a32 32 0 1 1-58.581333 25.685333 158.72 158.72 0 0 0-32.426667-47.957333 153.258667 153.258667 0 0 0-216.746666 0c-13.226667 13.226667-23.978667 29.397333-31.829334 47.36a32 32 0 1 1-58.666666-25.6 218.026667 218.026667 0 0 1 45.269333-66.986667 217.258667 217.258667 0 0 1 307.242667 0z m205.013333-236.416c21.76 21.717333 42.24 46.506667 60.117333 72.405334a32 32 0 0 1-52.693333 36.352 461.738667 461.738667 0 0 0-52.650667-63.530667c-174.08-174.08-456.32-174.08-630.442666 0-17.962667 18.005333-35.84 39.850667-52.138667 63.317333a32 32 0 0 1-52.565333-36.48c18.346667-26.453333 38.613333-51.2 59.477333-72.106666 199.082667-199.04 521.813333-199.04 720.896 0z m-315.178667 348.16a64 64 0 1 1-90.538666 90.538667 64 64 0 0 1 90.538666-90.538667z" /></svg>