<svg class="icon" style="width: 1em;height: 1em;vertical-align: middle;fill: currentColor;overflow: hidden;" viewBox="0 0 1024 1024" version="1.1" xmlns="http://www.w3.org/2000/svg"><path d="M757.077333 458.666667c4.224 4.224 8.32 8.576 12.330667 13.056a108.202667 108.202667 0 0 0-78.634667 13.184 280.021333 280.021333 0 0 0-426.666666 90.453333 32 32 0 1 1-57.130667-28.928 343.978667 343.978667 0 0 1 550.101333-87.765333zM510.165333 810.666667l51.882667-103.850667A64 64 0 1 0 510.165333 810.666667z m95.146667-190.378667l28.885333-57.898667a217.344 217.344 0 0 0-274.005333 27.221334 218.026667 218.026667 0 0 0-45.269333 66.986666 32 32 0 0 0 58.624 25.685334c7.893333-18.005333 18.645333-34.133333 31.872-47.36a153.301333 153.301333 0 0 1 199.850666-14.634667z m267.093333-267.093333c21.76 21.76 42.24 46.549333 60.117334 72.448a32 32 0 1 1-52.693334 36.352 461.738667 461.738667 0 0 0-52.650666-63.530667c-174.08-174.08-456.32-174.08-630.4 0-18.005333 18.005333-35.84 39.850667-52.138667 63.317333a32 32 0 0 1-52.608-36.48c18.346667-26.453333 38.613333-51.2 59.477333-72.106666 199.082667-199.04 521.813333-199.04 720.938667 0z m-183.04 194.218666l-170.538666 341.248A64 64 0 0 0 576.128 981.333333h341.077333a64 64 0 0 0 57.301334-92.672l-170.538667-341.248c-23.594667-47.232-91.008-47.232-114.602667 0zM768 661.162667v128.042666a21.333333 21.333333 0 0 1-42.666667 0v-128.042666a21.333333 21.333333 0 0 1 42.666667 0z m-21.333333 234.794666a21.333333 21.333333 0 1 1 0-42.709333 21.333333 21.333333 0 0 1 0 42.666667z" /></svg>