<svg class="icon" style="width: 1em;height: 1em;vertical-align: middle;fill: currentColor;overflow: hidden;" viewBox="0 0 1024 1024" version="1.1" xmlns="http://www.w3.org/2000/svg"><path d="M139.946667 94.72a32 32 0 0 0-45.226667 45.226667l143.530667 143.573333a511.573333 511.573333 0 0 0-86.741334 69.717333c-20.906667 20.864-41.130667 45.610667-59.477333 72.064a32 32 0 1 0 52.608 36.48c16.256-23.466667 34.133333-45.312 52.138667-63.317333a446.634667 446.634667 0 0 1 88.021333-68.437333l67.882667 67.925333a343.978667 343.978667 0 0 0-82.048 60.757333c-26.026667 26.026667-47.317333 55.466667-63.616 87.722667a32 32 0 1 0 57.088 28.885333 277.76 277.76 0 0 1 51.797333-71.381333 279.296 279.296 0 0 1 84.650667-58.112l82.346666 82.346667a216.32 216.32 0 0 0-122.709333 61.44 218.026667 218.026667 0 0 0-45.269333 66.986666 32 32 0 0 0 58.624 25.685334c7.893333-18.005333 18.645333-34.133333 31.872-47.402667a153.173333 153.173333 0 0 1 143.36-40.874667l335.274666 335.274667a32 32 0 0 0 45.226667-45.226667L139.946667 94.72z m354.304 263.765333l67.584 67.584a278.698667 278.698667 0 0 1 150.016 77.866667 290.048 290.048 0 0 1 51.925333 72.192 32 32 0 1 0 57.002667-29.141333 353.792 353.792 0 0 0-63.658667-88.32 343.125333 343.125333 0 0 0-262.826667-100.181334zM362.112 226.346667L414.421333 278.613333a445.44 445.44 0 0 1 465.408 183.338667 32 32 0 1 0 52.693334-36.352 509.696 509.696 0 0 0-570.410667-199.253333z m195.114667 475.050666a64 64 0 1 1-90.496 90.538667 64 64 0 0 1 90.496-90.538667z" /></svg>