<svg class="icon" style="width: 1em;height: 1em;vertical-align: middle;fill: currentColor;overflow: hidden;" viewBox="0 0 1024 1024" version="1.1" xmlns="http://www.w3.org/2000/svg"><path d="M746.666667 512a234.666667 234.666667 0 1 1 0 469.333333 234.666667 234.666667 0 0 1 0-469.333333z m0.469333 85.333333l-3.584 0.213334-2.346667 0.512-3.541333 1.28-3.157333 1.792-2.389334 1.92-107.221333 107.178666-2.432 2.986667a21.333333 21.333333 0 0 0 0 24.234667l2.432 2.986666 2.986667 2.432a21.333333 21.333333 0 0 0 24.234666 0l2.986667-2.432 70.186667-70.229333L725.333333 896l0.341334 3.84a21.333333 21.333333 0 0 0 17.152 17.152l3.84 0.341333 3.84-0.341333a21.333333 21.333333 0 0 0 17.152-17.152L768 896l-0.042667-225.877333 70.272 70.314666 2.986667 2.432a21.333333 21.333333 0 0 0 29.653333-29.653333l-2.432-2.986667-108.714666-108.458666-2.005334-1.365334-2.901333-1.450666-2.688-0.896-2.304-0.469334A21.333333 21.333333 0 0 0 747.093333 597.333333zM266.666667 128h490.666666a138.666667 138.666667 0 0 1 138.453334 130.816L896 266.666667l0.042667 246.314666a276.010667 276.010667 0 0 0-64-30.293333L832 341.333333h-640v416a74.666667 74.666667 0 0 0 68.522667 74.410667l6.144 0.256h216.064c7.338667 22.784 17.578667 44.288 30.250666 64.042667L266.666667 896a138.666667 138.666667 0 0 1-138.453334-130.816L128 757.333333V266.666667a138.666667 138.666667 0 0 1 130.816-138.453334L266.666667 128z" /></svg>