<svg class="icon" style="width: 1em;height: 1em;vertical-align: middle;fill: currentColor;overflow: hidden;" viewBox="0 0 1024 1024" version="1.1" xmlns="http://www.w3.org/2000/svg"><path d="M480.938667 309.333333a32 32 0 0 1 32-32h201.728a32 32 0 0 1 32 32v201.770667a32 32 0 0 1-64 0V386.56l-222.72 222.72a32 32 0 1 1-45.226667-45.269333L637.44 341.333333h-124.501333a32 32 0 0 1-32-32zM262.698667 224A138.709333 138.709333 0 0 1 394.666667 128h362.666666A138.666667 138.666667 0 0 1 896 266.666667v366.421333a138.709333 138.709333 0 0 1-85.333333 128.042667v5.802666c0 44.8-22.613333 78.72-55.850667 100.010667-32 20.48-73.258667 29.269333-114.901333 29.013333h-0.085334l-173.952-0.170666H298.666667c-49.365333 0-92.330667-15.445333-123.306667-44.586667-31.018667-29.269333-47.36-69.973333-47.36-115.2V362.666667c0-36.906667 9.216-71.808 31.317333-97.962667 22.784-27.008 55.893333-40.704 94.805334-40.704h8.533333zM256 288h-1.877333c-23.210667 0-37.162667 7.637333-45.909334 17.962667-9.386667 11.178667-16.213333 29.610667-16.213333 56.704v373.333333c0 29.44 10.325333 52.650667 27.306667 68.608 17.066667 16.085333 43.392 27.178667 79.36 27.178667h167.253333L640 832h0.170667c33.621333 0.170667 61.653333-7.082667 80.128-18.944 15.872-10.154667 24.832-23.466667 26.197333-41.301333H394.666667A138.666667 138.666667 0 0 1 256 633.088V288zM394.666667 192A74.666667 74.666667 0 0 0 320 266.666667v366.421333c0 41.258667 33.450667 74.666667 74.666667 74.666667h362.666666a74.666667 74.666667 0 0 0 74.666667-74.666667V266.666667a74.666667 74.666667 0 0 0-74.666667-74.666667h-362.666666z" /></svg>