<svg class="icon" style="width: 1em;height: 1em;vertical-align: middle;fill: currentColor;overflow: hidden;" viewBox="0 0 1024 1024" version="1.1" xmlns="http://www.w3.org/2000/svg"><path d="M765.269333 128.213333L757.333333 128H266.666667l-7.850667 0.213333A138.666667 138.666667 0 0 0 128 266.666667v490.666666l0.213333 7.850667A138.666667 138.666667 0 0 0 266.666667 896h353.493333a247.978667 247.978667 0 0 1-41.088-64H266.666667l-6.144-0.256A74.666667 74.666667 0 0 1 192 757.333333L192.042667 341.333333H832v165.802667c20.906667 16.853333 42.154667 26.752 64.042667 30.933333V266.666667l-0.213334-7.850667a138.666667 138.666667 0 0 0-130.56-130.56zM266.666667 192h490.666666c41.216 0 74.666667 33.450667 74.666667 74.666667v10.666666h-640v-10.666666c0-41.216 33.408-74.666667 74.666667-74.666667zM896.042667 581.290667a176.384 176.384 0 0 1-64-22.442667 236.8 236.8 0 0 1-51.925334-41.642667 16.597333 16.597333 0 0 0-24.149333 0c-42.410667 44.202667-89.344 65.92-141.525333 65.92-9.429333 0-17.066667 7.936-17.066667 17.749334v106.709333l0.170667 11.349333c1.450667 43.221333 11.221333 80.981333 29.184 113.066667 13.824 24.746667 32.469333 46.08 55.936 64 22.357333 17.066667 49.024 31.018667 79.957333 41.770667 3.498667 1.194667 7.296 1.194667 10.794667 0 109.226667-37.973333 165.290667-115.754667 165.290666-230.186667v-106.666667l-0.384-3.626666a17.28 17.28 0 0 0-16.682666-14.165334c-8.704 0-17.194667-0.597333-25.6-1.834666z" /></svg>