<svg class="icon" style="width: 1em;height: 1em;vertical-align: middle;fill: currentColor;overflow: hidden;" viewBox="0 0 1024 1024" version="1.1" xmlns="http://www.w3.org/2000/svg"><path d="M448 330.709333a245.333333 245.333333 0 0 1 357.546667-218.197333 32 32 0 0 1 7.936 51.072L695.509333 281.6l45.226667 45.226667 118.570667-118.528a32 32 0 0 1 50.901333 7.637333 245.333333 245.333333 0 0 1-274.005333 353.450667l-314.24 325.034666a130.133333 130.133333 0 0 1-187.178667-180.906666l318.933333-329.984a246.016 246.016 0 0 1-5.717333-52.821334z m245.333333-181.333333a181.333333 181.333333 0 0 0-173.525333 234.197333 32 32 0 0 1-7.594667 31.573334l-331.434666 342.826666a66.133333 66.133333 0 1 0 95.146666 91.989334l327.509334-338.816a32 32 0 0 1 33.066666-8.149334 181.333333 181.333333 0 0 0 233.216-214.613333l-106.325333 106.325333a32 32 0 0 1-45.269333 0L627.626667 304.213333a32 32 0 0 1 0-45.226666l105.216-105.258667a182.101333 182.101333 0 0 0-39.509334-4.352z" /></svg>