<svg class="icon" style="width: 1em;height: 1em;vertical-align: middle;fill: currentColor;overflow: hidden;" viewBox="0 0 1024 1024" version="1.1" xmlns="http://www.w3.org/2000/svg"><path d="M405.333333 245.333333a32 32 0 1 1-64 0 32 32 0 0 1 64 0zM245.333333 85.333333a32 32 0 0 0-32 32v789.333334c0 17.664 14.336 32 32 32h533.333334a32 32 0 0 0 32-32V117.333333a32 32 0 0 0-32-32H245.333333zM405.333333 874.666667v-373.333334a32 32 0 0 0-64 0v373.333334H277.333333v-725.333334h469.333334v725.333334h-341.333334z" /></svg>