<svg class="icon" style="width: 1em;height: 1em;vertical-align: middle;fill: currentColor;overflow: hidden;" viewBox="0 0 1024 1024" version="1.1" xmlns="http://www.w3.org/2000/svg"><path d="M544 245.333333a32 32 0 0 0-64 0v32H384A32 32 0 0 0 384 341.333333h96v42.666667h-149.333333a32 32 0 0 0 0 64h149.333333v42.666667h-149.333333a32 32 0 0 0 0 64h149.333333v64h-85.333333a96 96 0 1 0 90.538666 64h53.589334a96 96 0 1 0 90.538666-64h-85.333333V554.666667h149.333333a32 32 0 0 0 0-64h-149.333333v-42.666667h149.333333a32 32 0 0 0 0-64h-149.333333V341.333333H640a32 32 0 0 0 0-64h-96v-32z m85.333333 437.333334a32 32 0 1 1 0 64 32 32 0 0 1 0-64z m-266.666666 32a32 32 0 1 1 64 0 32 32 0 0 1-64 0zM309.333333 85.333333A138.666667 138.666667 0 0 0 170.666667 224v576A138.666667 138.666667 0 0 0 309.333333 938.666667h405.333334A138.666667 138.666667 0 0 0 853.333333 800V224A138.666667 138.666667 0 0 0 714.666667 85.333333h-405.333334zM234.666667 224c0-41.216 33.450667-74.666667 74.666666-74.666667h405.333334c41.216 0 74.666667 33.450667 74.666666 74.666667v576a74.666667 74.666667 0 0 1-74.666666 74.666667h-405.333334a74.666667 74.666667 0 0 1-74.666666-74.666667V224z" /></svg>