<svg class="icon" style="width: 1em;height: 1em;vertical-align: middle;fill: currentColor;overflow: hidden;" viewBox="0 0 1024 1024" version="1.1" xmlns="http://www.w3.org/2000/svg"><path d="M544 394.666667a32 32 0 0 1 0 64h-234.666667a32 32 0 0 1 0-64h234.666667zM736 426.666667a309.333333 309.333333 0 1 0-114.389333 240.213333l209.066666 209.066667 3.626667 3.114666a32 32 0 0 0 41.642667-48.341333l-209.066667-209.109333A308.053333 308.053333 0 0 0 736 426.666667z m-554.666667 0a245.333333 245.333333 0 1 1 490.666667 0 245.333333 245.333333 0 0 1-490.666667 0z" /></svg>