<?xml version="1.0" standalone="no"?><!DOCTYPE svg PUBLIC "-//W3C//DTD SVG 1.1//EN" "http://www.w3.org/Graphics/SVG/1.1/DTD/svg11.dtd"><svg height="150" node-id="1" sillyvg="true" template-height="150" template-width="150" version="1.1" viewBox="0 0 150 150" width="150" xmlns="http://www.w3.org/2000/svg" xmlns:xlink="http://www.w3.org/1999/xlink"><defs node-id="37"></defs><path d="M 66.68 120.68 L 82.99 120.68 L 82.99 131.93 L 66.68 131.93 Z" fill="#f8b6a8" fill-rule="nonzero" node-id="41" stroke="none" target-height="11.249992" target-width="16.309998" target-x="66.68" target-y="120.68"></path><path d="M 34.71 150.00 C 34.71 138.99 52.62 130.07 74.72 130.07 C 96.82 130.07 114.73 138.99 114.73 150.00" fill="#6697d3" fill-rule="nonzero" node-id="43" stroke="none" target-height="19.929993" target-width="80.020004" target-x="34.71" target-y="130.07"></path><path d="M 88.54 131.93 L 61.13 131.93 C 60.03 131.93 59.14 131.04 59.14 129.94 L 59.14 128.30 C 59.14 127.20 60.03 126.31 61.13 126.31 L 88.55 126.31 C 89.65 126.31 90.54 127.20 90.54 128.30 L 90.54 129.94 C 90.54 131.04 89.64 131.93 88.54 131.93 Z" fill="#6697d3" fill-rule="nonzero" node-id="45" stroke="none" target-height="5.619995" target-width="31.400002" target-x="59.14" target-y="126.31"></path><g node-id="115"><path d="M 69.18 129.12 C 69.18 130.35 68.18 131.35 66.95 131.35 C 65.72 131.35 64.72 130.35 64.72 129.12 C 64.72 128.53 64.95 127.96 65.37 127.54 C 65.79 127.12 66.36 126.89 66.95 126.89 C 67.54 126.89 68.11 127.12 68.53 127.54 C 68.95 127.96 69.18 128.53 69.18 129.12 Z" fill="#ffffff" fill-rule="nonzero" group-id="1" node-id="49" stroke="none" target-height="4.459999" target-width="4.4600067" target-x="64.71999" target-y="126.88999"></path><path d="M 84.95 129.12 C 84.95 130.35 83.95 131.35 82.72 131.35 C 81.49 131.35 80.49 130.35 80.49 129.12 C 80.49 128.53 80.72 127.96 81.14 127.54 C 81.56 127.12 82.13 126.89 82.72 126.89 C 83.31 126.89 83.88 127.12 84.30 127.54 C 84.72 127.96 84.95 128.53 84.95 129.12 Z" fill="#ffffff" fill-rule="nonzero" group-id="1" node-id="51" stroke="none" target-height="4.459999" target-width="4.4600067" target-x="80.49" target-y="126.88999"></path></g><path d="M 62.74 68.73 C 62.74 85.78 48.92 99.60 31.87 99.60 C 14.82 99.60 1.00 85.78 1.00 68.73 C 1.00 51.68 14.82 37.86 31.87 37.86 C 48.92 37.86 62.74 51.68 62.74 68.73 Z" fill="#332e2d" fill-rule="nonzero" node-id="54" stroke="none" target-height="61.740005" target-width="61.740005" target-x="0.999999" target-y="37.86"></path><path d="M 148.44 54.76 C 148.44 71.81 134.62 85.63 117.57 85.63 C 100.52 85.63 86.70 71.81 86.70 54.76 C 86.70 37.71 100.52 23.89 117.57 23.89 C 134.62 23.89 148.44 37.71 148.44 54.76 Z" fill="#332e2d" fill-rule="nonzero" node-id="56" stroke="none" target-height="61.739998" target-width="61.739998" target-x="86.700005" target-y="23.889997"></path><path d="M 117.61 67.10 C 117.61 99.23 98.43 125.28 74.76 125.28 C 51.09 125.28 31.91 99.23 31.91 67.10 C 31.91 34.97 51.09 8.92 74.76 8.92 C 98.43 8.92 117.61 34.97 117.61 67.10 Z" fill="#f8b6a8" fill-rule="nonzero" node-id="58" stroke="none" target-height="116.36" target-width="85.700005" target-x="31.910004" target-y="8.919998"></path><path d="M 77.33 86.97 L 77.33 76.94 C 77.33 74.62 75.98 72.74 74.31 72.74 L 74.31 72.74 C 72.64 72.74 71.29 74.62 71.29 76.94 L 71.29 86.97 L 71.29 93.03 C 71.29 94.32 72.04 95.37 72.97 95.37 L 77.32 95.37 L 80.77 95.37 C 82.44 95.37 83.79 93.49 83.79 91.17 L 83.79 91.17 C 83.79 88.85 82.44 86.97 80.77 86.97 L 77.33 86.97 Z" fill="#e88879" fill-rule="nonzero" node-id="60" stroke="none" target-height="22.630005" target-width="12.5" target-x="71.29" target-y="72.74"></path><g node-id="116"><path d="M 85.68 108.35 C 85.68 113.10 80.77 116.95 74.72 116.95 C 68.67 116.95 63.76 113.10 63.76 108.35 C 63.76 103.60 68.67 99.75 74.72 99.75 C 80.77 99.75 85.68 103.60 85.68 108.35 Z" fill="#ea978f" fill-rule="nonzero" group-id="2" node-id="64" stroke="none" target-height="17.199997" target-width="21.920002" target-x="63.76" target-y="99.75"></path><path d="M 83.84 113.12 C 83.84 114.14 82.88 115.11 81.17 115.83 C 79.46 116.55 77.14 116.95 74.72 116.95 C 72.30 116.95 69.98 116.55 68.27 115.83 C 66.56 115.11 65.60 114.14 65.60 113.12 C 65.60 112.10 66.56 111.13 68.27 110.41 C 69.98 109.69 72.30 109.29 74.72 109.29 C 77.14 109.29 79.46 109.69 81.17 110.41 C 82.88 111.13 83.84 112.10 83.84 113.12 Z" fill="#dd4343" fill-rule="nonzero" group-id="2" node-id="66" stroke="none" target-height="7.6600037" target-width="18.240005" target-x="65.6" target-y="109.29"></path><path d="M 64.92 104.52 L 84.52 104.52 C 82.72 101.70 79.01 99.75 74.72 99.75 C 70.43 99.75 66.72 101.69 64.92 104.52 Z" fill="#ffffff" fill-rule="nonzero" group-id="2" node-id="68" stroke="none" target-height="4.7699966" target-width="19.599998" target-x="64.92" target-y="99.75"></path></g><g node-id="117"><g node-id="120"><path d="M 61.13 63.26 L 57.30 67.92 C 56.96 68.33 57.26 68.94 57.78 68.94 L 65.43 68.94 C 65.96 68.94 66.25 68.33 65.91 67.92 L 62.08 63.26 C 61.85 62.95 61.38 62.95 61.13 63.26 Z" fill="#332e2d" fill-rule="nonzero" group-id="3,6" node-id="75" stroke="none" target-height="5.9900017" target-width="9.290001" target-x="56.96" target-y="62.95"></path></g><path d="M 55.72 72.74 L 64.69 72.74" fill="none" group-id="3" node-id="78" stroke="#332e2d" stroke-linecap="round" stroke-width="3" target-height="0" target-width="8.970001" target-x="55.72" target-y="72.74"></path><path d="M 84.76 72.74 L 93.73 72.74" fill="none" group-id="3" node-id="80" stroke="#332e2d" stroke-linecap="round" stroke-width="3" target-height="0" target-width="8.970001" target-x="84.76" target-y="72.74"></path><g node-id="121"><path d="M 87.35 63.26 L 83.52 67.92 C 83.18 68.33 83.48 68.94 84.00 68.94 L 91.65 68.94 C 92.18 68.94 92.47 68.33 92.13 67.92 L 88.30 63.26 C 88.06 62.95 87.60 62.95 87.35 63.26 Z" fill="#332e2d" fill-rule="nonzero" group-id="3,7" node-id="84" stroke="none" target-height="5.9900017" target-width="9.290009" target-x="83.18" target-y="62.95"></path></g></g><path d="M 64.64 118.36 C 64.64 118.36 75.13 125.62 84.80 118.36" fill="none" node-id="88" stroke="#dd837f" stroke-linecap="round" stroke-width="1.5" target-height="7.2599945" target-width="20.160004" target-x="64.64" target-y="118.36"></path><g node-id="118"><path d="M 37.94 76.30 C 38.21 78.93 37.68 81.54 36.47 83.54 C 35.26 85.55 33.47 86.79 31.48 87.00 C 29.50 87.20 27.49 86.35 25.89 84.64 C 24.30 82.92 23.25 80.48 22.98 77.84 C 22.71 75.21 23.23 72.60 24.44 70.60 C 25.65 68.59 27.45 67.35 29.43 67.14 C 31.42 66.94 33.43 67.79 35.02 69.50 C 36.62 71.22 37.67 73.67 37.94 76.30 Z" fill="#f8b6a8" fill-rule="nonzero" group-id="4" node-id="92" stroke="none" target-height="20.264275" target-width="15.504482" target-x="22.705917" target-y="66.9389"></path></g><path d="M 32.54 83.47 C 29.47 83.79 26.67 81.15 26.31 77.57 C 25.95 73.99 28.13 70.84 31.21 70.52" fill="#e88879" fill-rule="nonzero" node-id="95" stroke="none" target-height="13.270004" target-width="6.59" target-x="25.95" target-y="70.52"></path><g node-id="119"><g node-id="122"><path d="M 119.56 67.13 C 123.69 67.56 126.58 72.35 126.02 77.83 C 125.45 83.32 121.64 87.41 117.51 86.99 C 113.38 86.56 110.49 81.77 111.06 76.29 C 111.62 70.80 115.43 66.71 119.56 67.13 Z" fill="#f8b6a8" fill-rule="nonzero" group-id="5,8" node-id="101" stroke="none" target-height="20.708115" target-width="16.093506" target-x="110.48999" target-y="66.70618"></path></g><path d="M 116.46 83.47 C 119.53 83.79 122.33 81.15 122.69 77.57 C 123.06 73.99 120.87 70.84 117.79 70.52" fill="#e88879" fill-rule="nonzero" group-id="5" node-id="104" stroke="none" target-height="13.270004" target-width="6.5999985" target-x="116.46" target-y="70.52"></path></g><path d="M 66.47 55.19 C 66.47 55.19 101.76 57.81 117.55 64.01 C 117.55 64.01 117.18 54.20 114.88 46.62 C 114.87 46.61 89.07 47.09 66.47 55.19 Z" fill="#85cdf9" fill-rule="nonzero" node-id="107" stroke="none" target-height="17.400002" target-width="51.079994" target-x="66.47" target-y="46.61"></path><path d="M 31.91 67.43 C 31.91 67.43 76.22 48.65 114.87 46.61 C 114.87 46.61 112.75 36.13 106.60 29.54 L 33.90 49.43 C 33.91 49.42 31.91 56.09 31.91 67.43 Z" fill="#3fa4ef" fill-rule="nonzero" node-id="109" stroke="none" target-height="37.89" target-width="82.96001" target-x="31.91" target-y="29.54"></path><path d="M 86.53 29.54 C 86.53 45.74 72.74 58.88 55.72 58.88 C 38.70 58.88 24.91 45.74 24.91 29.54 C 24.91 13.34 38.70 0.20 55.72 0.20 C 72.74 0.20 86.53 13.34 86.53 29.54 Z" fill="#332e2d" fill-rule="nonzero" node-id="111" stroke="none" target-height="58.68" target-width="61.62" target-x="24.91" target-y="0.20000076"></path><path d="M 115.74 23.89 C 115.74 37.00 105.11 47.63 92.00 47.63 C 78.89 47.63 68.26 37.00 68.26 23.89 C 68.26 10.78 78.89 0.15 92.00 0.15 C 105.11 0.15 115.74 10.78 115.74 23.89 Z" fill="#332e2d" fill-rule="nonzero" node-id="113" stroke="none" target-height="47.479996" target-width="47.479996" target-x="68.26" target-y="0.14999962"></path></svg>