<?xml version="1.0" standalone="no"?><!DOCTYPE svg PUBLIC "-//W3C//DTD SVG 1.1//EN" "http://www.w3.org/Graphics/SVG/1.1/DTD/svg11.dtd"><svg height="150" node-id="1" sillyvg="true" template-height="150" template-width="150" version="1.1" viewBox="0 0 150 150" width="150" xmlns="http://www.w3.org/2000/svg" xmlns:xlink="http://www.w3.org/1999/xlink"><defs node-id="59"></defs><path d="M 59.04 118.50 L 75.55 118.50 L 75.55 127.17 L 59.04 127.17 Z" fill="#f8b6a8" fill-rule="nonzero" node-id="63" stroke="none" target-height="8.669991" target-width="16.510002" target-x="59.04" target-y="118.50001"></path><g node-id="202"><g node-id="203"><path d="M 68.02 122.57 L 68.02 122.57 C 44.06 122.57 24.64 103.15 24.64 79.19 L 24.64 49.03 C 24.64 25.07 44.06 5.65 68.02 5.65 L 68.02 5.65 C 91.98 5.65 111.40 25.07 111.40 49.03 L 111.40 79.18 C 111.41 103.14 91.98 122.57 68.02 122.57 Z" fill="#f8b6a8" fill-rule="nonzero" group-id="1,2" node-id="69" stroke="none" target-height="116.920006" target-width="86.770004" target-x="24.64" target-y="5.65"></path></g><g node-id="204"><g node-id="213"><path d="M 48.70 39.02 C 48.70 48.37 40.74 55.95 30.92 55.95 C 21.10 55.95 13.14 48.37 13.14 39.02 C 13.14 29.67 21.10 22.09 30.92 22.09 C 40.74 22.09 48.70 29.67 48.70 39.02 Z" fill="#332e2d" fill-rule="nonzero" group-id="1,3,12" node-id="76" stroke="none" target-height="33.860004" target-width="35.56" target-x="13.14" target-y="22.09"></path></g><g node-id="214"><path d="M 108.45 37.05 C 103.52 18.59 86.78 5.23 65.85 5.23 L 65.85 5.23 C 61.24 5.23 56.80 5.89 52.61 7.12 C 43.64 12.29 37.81 20.61 37.81 30.00 C 37.81 45.69 54.08 58.41 74.16 58.41 C 91.00 58.41 104.31 49.18 108.45 37.05 Z" fill="#332e2d" fill-rule="nonzero" group-id="1,3,13" node-id="81" stroke="none" target-height="53.18" target-width="70.64" target-x="37.81" target-y="5.23"></path></g><path d="M 94.08 46.72 C 94.08 54.62 100.81 61.02 109.10 61.02 C 109.88 61.02 110.64 60.95 111.39 60.84 L 111.39 44.54 C 111.39 40.42 110.44 38.65 109.71 34.73 C 109.32 34.70 109.49 32.43 109.10 32.43 C 100.81 32.42 94.08 38.82 94.08 46.72 Z" fill="#332e2d" fill-rule="nonzero" group-id="1,3,14" node-id="86" stroke="none" target-height="28.600002" target-width="17.309998" target-x="94.08" target-y="32.42"></path></g><g node-id="205"><g node-id="216"><path d="M 133.95 44.51 L 37.84 44.51 C 36.46 44.51 35.35 43.39 35.35 42.02 L 35.35 39.87 C 35.35 38.49 36.47 37.38 37.84 37.38 L 133.96 37.38 C 135.34 37.38 136.45 38.50 136.45 39.87 L 136.45 42.02 C 136.45 43.39 135.33 44.51 133.95 44.51 Z" fill="#bc2030" fill-rule="nonzero" group-id="1,4,15" node-id="94" stroke="none" target-height="7.1299973" target-width="101.1" target-x="35.35" target-y="37.38"></path></g><g node-id="217"><path d="M 70.53 4.00 C 70.53 4.82 70.21 5.60 69.63 6.18 C 69.05 6.76 68.27 7.08 67.45 7.08 C 66.63 7.08 65.85 6.76 65.27 6.18 C 64.69 5.60 64.37 4.82 64.37 4.00 C 64.37 3.18 64.69 2.40 65.27 1.82 C 65.85 1.24 66.63 0.92 67.45 0.92 C 68.27 0.92 69.05 1.24 69.63 1.82 C 70.21 2.40 70.53 3.18 70.53 4.00 Z" fill="#bc2030" fill-rule="nonzero" group-id="1,4,16" node-id="99" stroke="none" target-height="6.1600013" target-width="6.1600037" target-x="64.369995" target-y="0.9199996"></path></g><g node-id="218"><path d="M 60.02 27.22 C 69.32 27.22 77.19 34.50 79.89 44.55 L 114.68 44.55 C 108.07 20.91 89.43 3.87 67.45 3.87 L 67.45 3.87 C 45.47 3.87 26.83 20.91 20.22 44.55 L 40.17 44.55 C 42.86 34.50 50.73 27.22 60.02 27.22 Z" fill="#ce414e" fill-rule="nonzero" group-id="1,4,17" node-id="104" stroke="none" target-height="40.68" target-width="94.46" target-x="20.22" target-y="3.87"></path></g><g node-id="219"><path d="M 50.62 40.94 C 50.62 42.00 49.76 42.86 48.70 42.86 C 47.64 42.86 46.78 42.00 46.78 40.94 C 46.78 39.88 47.64 39.02 48.70 39.02 C 49.76 39.02 50.62 39.88 50.62 40.94 Z" fill="#701220" fill-rule="nonzero" group-id="1,4,18" node-id="109" stroke="none" target-height="3.8399963" target-width="3.8400002" target-x="46.780003" target-y="39.02"></path></g><g node-id="220"><path d="M 62.29 40.94 C 62.29 42.00 61.43 42.86 60.37 42.86 C 59.31 42.86 58.45 42.00 58.45 40.94 C 58.45 39.88 59.31 39.02 60.37 39.02 C 61.43 39.02 62.29 39.88 62.29 40.94 Z" fill="#701220" fill-rule="nonzero" group-id="1,4,19" node-id="114" stroke="none" target-height="3.8399963" target-width="3.8399963" target-x="58.45" target-y="39.02"></path></g><path d="M 73.96 40.94 C 73.96 42.00 73.10 42.86 72.04 42.86 C 70.98 42.86 70.12 42.00 70.12 40.94 C 70.12 39.88 70.98 39.02 72.04 39.02 C 73.10 39.02 73.96 39.88 73.96 40.94 Z" fill="#701220" fill-rule="nonzero" group-id="1,4,20" node-id="119" stroke="none" target-height="3.8399963" target-width="3.8399963" target-x="70.12" target-y="39.02"></path></g><g node-id="206"><path d="M 70.62 88.81 L 70.62 79.51 C 70.62 77.36 68.98 75.61 66.96 75.61 L 66.96 75.61 C 64.94 75.61 63.30 77.35 63.30 79.51 L 63.30 88.81 L 63.30 94.43 C 63.30 95.63 64.21 96.60 65.34 96.60 L 70.62 96.60 L 74.80 96.60 C 76.82 96.60 78.46 94.86 78.46 92.70 L 78.46 92.70 C 78.46 90.55 76.82 88.80 74.80 88.80 L 70.62 88.80 Z" fill="#e88879" fill-rule="nonzero" group-id="1,5" node-id="125" stroke="none" target-height="20.990005" target-width="15.16" target-x="63.3" target-y="75.61"></path></g><g node-id="207"><g node-id="222"><path d="M 77.85 109.51 C 77.85 114.19 73.45 117.98 68.02 117.98 C 62.59 117.98 58.19 114.19 58.19 109.51 C 58.19 104.83 62.59 101.04 68.02 101.04 C 73.45 101.04 77.85 104.83 77.85 109.51 Z" fill="#ea978f" fill-rule="nonzero" group-id="1,6,21" node-id="132" stroke="none" target-height="16.939995" target-width="19.660004" target-x="58.189995" target-y="101.04001"></path></g><g node-id="223"><path d="M 76.20 114.20 C 76.20 116.28 72.54 117.97 68.02 117.97 C 63.50 117.97 59.84 116.28 59.84 114.20 C 59.84 112.12 63.50 110.43 68.02 110.43 C 72.54 110.43 76.20 112.12 76.20 114.20 Z" fill="#dd4343" fill-rule="nonzero" group-id="1,6,22" node-id="137" stroke="none" target-height="7.5399933" target-width="16.36" target-x="59.839996" target-y="110.43"></path></g><path d="M 59.24 105.74 L 76.82 105.74 C 75.21 102.96 71.88 101.05 68.03 101.05 C 64.17 101.04 60.85 102.96 59.24 105.74 Z" fill="#ffffff" fill-rule="nonzero" group-id="1,6,23" node-id="142" stroke="none" target-height="4.6999893" target-width="17.579998" target-x="59.24" target-y="101.04001"></path></g><g node-id="208"><path d="M 95.62 67.45 L 40.43 67.45 C 39.25 67.45 38.28 66.49 38.28 65.30 C 38.28 64.11 39.24 63.15 40.43 63.15 L 95.61 63.15 C 96.79 63.15 97.76 64.11 97.76 65.30 C 97.76 66.49 96.80 67.45 95.62 67.45 Z" fill="#332e2d" fill-rule="nonzero" group-id="1,7" node-id="148" stroke="none" target-height="4.2999954" target-width="59.480003" target-x="38.28" target-y="63.15"></path></g><g node-id="209"><g node-id="225"><path d="M 56.11 77.27 L 47.03 77.27 C 45.85 77.27 44.88 76.31 44.88 75.12 C 44.88 73.94 45.84 72.97 47.03 72.97 L 56.11 72.97 C 57.29 72.97 58.26 73.93 58.26 75.12 C 58.26 76.31 57.30 77.27 56.11 77.27 Z" fill="#332e2d" fill-rule="nonzero" group-id="1,8,24" node-id="155" stroke="none" target-height="4.2999954" target-width="13.379997" target-x="44.88" target-y="72.97"></path></g><path d="M 89.02 77.27 L 79.94 77.27 C 78.76 77.27 77.79 76.31 77.79 75.12 C 77.79 73.94 78.75 72.97 79.94 72.97 L 89.02 72.97 C 90.20 72.97 91.17 73.93 91.17 75.12 C 91.16 76.31 90.20 77.27 89.02 77.27 Z" fill="#332e2d" fill-rule="nonzero" group-id="1,8,25" node-id="160" stroke="none" target-height="4.2999954" target-width="13.379997" target-x="77.79" target-y="72.97"></path></g><g node-id="210"><g node-id="227"><path d="M 32.39 79.56 C 33.25 86.72 29.65 93.04 24.35 93.68 C 19.05 94.31 14.06 89.02 13.21 81.86 C 12.35 74.70 15.95 68.38 21.24 67.74 C 26.54 67.11 31.53 72.40 32.39 79.56 Z" fill="#f8b6a8" fill-rule="nonzero" group-id="1,9,26" node-id="168" stroke="none" target-height="27.204292" target-width="20.899483" target-x="12.34697" target-y="67.110115"></path></g></g><g node-id="211"><path d="M 24.76 89.01 C 20.41 89.53 16.45 86.36 15.92 81.93 C 15.39 77.50 18.49 73.48 22.84 72.96" fill="#e88879" fill-rule="nonzero" group-id="1,10" node-id="174" stroke="none" target-height="16.57" target-width="9.37" target-x="15.39" target-y="72.96"></path></g><g node-id="212"><g node-id="228"><g node-id="230"><path d="M 114.37 67.74 C 119.67 68.37 123.27 74.69 122.41 81.86 C 121.55 89.02 116.56 94.31 111.26 93.67 C 105.97 93.04 102.37 86.72 103.23 79.56 C 104.09 72.40 109.08 67.10 114.37 67.74 Z" fill="#f8b6a8" fill-rule="nonzero" group-id="1,11,27,29" node-id="183" stroke="none" target-height="27.2043" target-width="20.899483" target-x="102.36889" target-y="67.10452"></path></g></g><path d="M 110.87 89.01 C 115.22 89.53 119.18 86.36 119.71 81.93 C 120.24 77.50 117.14 73.48 112.79 72.96" fill="#e88879" fill-rule="nonzero" group-id="1,11,28" node-id="189" stroke="none" target-height="16.57" target-width="9.369995" target-x="110.87" target-y="72.96"></path></g></g><path d="M 82.51 127.07 C 77.77 126.03 72.64 125.46 67.30 125.46 C 61.96 125.46 56.83 126.03 52.09 127.07 C 52.89 134.88 59.39 140.98 67.30 140.98 C 75.21 140.98 81.72 134.88 82.51 127.07 Z" fill="#f8b6a8" fill-rule="nonzero" node-id="194" stroke="none" target-height="15.519997" target-width="30.420002" target-x="52.09" target-y="125.46"></path><path d="M 91.53 132.68 L 91.53 130.94 C 88.52 129.09 86.13 127.75 81.63 126.87 C 80.27 134.21 75.47 136.44 68.01 136.52 C 61.44 136.59 55.38 134.02 54.02 126.68 C 49.34 127.51 49.54 127.60 45.87 129.20 L 46.23 150.00 L 91.54 150.00 L 91.54 132.68 L 91.53 132.68 Z" fill="#ffffff" fill-rule="nonzero" node-id="196" stroke="none" target-height="23.32" target-width="45.670002" target-x="45.87" target-y="126.68"></path><path d="M 23.59 150.00 L 54.02 150.00 L 52.08 127.04 C 39.71 128.90 23.59 142.27 23.59 150.00 Z" fill="#bcbcbc" fill-rule="nonzero" node-id="198" stroke="none" target-height="22.96" target-width="30.43" target-x="23.59" target-y="127.04"></path><path d="M 111.99 150.00 L 81.56 150.00 L 83.48 127.29 C 95.85 129.14 111.99 142.27 111.99 150.00 Z" fill="#bcbcbc" fill-rule="nonzero" node-id="200" stroke="none" target-height="22.71" target-width="30.43" target-x="81.56" target-y="127.29"></path></svg>