<?xml version="1.0" encoding="utf-8"?>
<!-- Generator: Adobe Illustrator 25.0.0, SVG Export Plug-In . SVG Version: 6.00 Build 0)  -->
<svg version="1.1" id="图层_1" xmlns="http://www.w3.org/2000/svg" xmlns:xlink="http://www.w3.org/1999/xlink" x="0px" y="0px"
	 viewBox="0 0 150 150" style="enable-background:new 0 0 150 150;" xml:space="preserve">
<style type="text/css">
	.st0{fill:#2B2726;}
	.st1{fill:#332E2D;}
	.st2{fill:#F8B6A8;}
	.st3{fill:#E88879;}
	.st4{fill:#FFF100;}
	.st5{fill:#9D24A3;}
	.st6{fill:#DD4343;}
</style>
<g>
	<g>
		<circle class="st0" cx="90.29" cy="39.24" r="39.1"/>
	</g>
	<g>
		<path class="st1" d="M86.79,108h-26.2c-14.8,0-26.8-12-26.8-26.8V51.8c0-14.8,12-26.8,26.8-26.8h26.2c14.8,0,26.8,12,26.8,26.8
			V81.2C113.59,96,101.59,108,86.79,108z"/>
	</g>
	<g>
		<path class="st2" d="M73.4,124.88L73.4,124.88c-20.95,0-37.93-16.98-37.93-37.93V74.4c0-20.95,16.98-37.93,37.93-37.93h0
			c20.95,0,37.93,16.98,37.93,37.93v12.54C111.34,107.9,94.35,124.88,73.4,124.88z"/>
	</g>
	<g>
		<path class="st1" d="M94.33,69.52H52.47c-1.17,0-2.12-0.95-2.12-2.12c0-1.17,0.95-2.12,2.12-2.12h41.86
			c1.17,0,2.12,0.95,2.12,2.12C96.45,68.57,95.5,69.52,94.33,69.52z"/>
	</g>
	<g>
		<g>
			<circle class="st1" cx="60.47" cy="76.68" r="3.87"/>
		</g>
		<g>
			<circle class="st1" cx="86.43" cy="76.68" r="3.87"/>
		</g>
	</g>
	<g>
		<path class="st3" d="M74.57,102.85h-2.34c-1.56,0-2.82-1.26-2.82-2.82V80.74c0-1.56,1.26-2.82,2.82-2.82h2.34
			c1.56,0,2.82,1.26,2.82,2.82v19.28C77.4,101.58,76.13,102.85,74.57,102.85z"/>
	</g>
	<g>
		<ellipse class="st2" cx="33.78" cy="83.2" rx="8.22" ry="9.16"/>
	</g>
	<g>
		<path class="st3" d="M35.01,88.96c-3.57,0.36-6.73-1.94-7.05-5.13c-0.32-3.2,2.31-6.08,5.89-6.44"/>
	</g>
	<g>
		<path class="st4" d="M31.64,108.11c-5.1,0-9.25-4.15-9.25-9.25c0-3.7,2.2-7.04,5.6-8.5c0.36-0.15,0.77,0.01,0.93,0.37
			c0.15,0.36-0.01,0.78-0.37,0.93c-2.88,1.24-4.75,4.07-4.75,7.2c0,4.32,3.52,7.84,7.84,7.84c4.32,0,7.84-3.52,7.84-7.84
			c0-4.32-3.52-7.84-7.84-7.84c-0.39,0-0.71-0.32-0.71-0.71s0.32-0.71,0.71-0.71c5.1,0,9.25,4.15,9.25,9.25
			C40.9,103.96,36.75,108.11,31.64,108.11z"/>
	</g>
	<g>
		<g>
			<ellipse class="st2" cx="113.59" cy="83.2" rx="8.22" ry="9.16"/>
		</g>
		<g>
			<path class="st3" d="M112.36,88.96c3.57,0.36,6.73-1.94,7.05-5.13c0.32-3.2-2.31-6.08-5.89-6.44"/>
		</g>
		<g>
			<path class="st4" d="M115.73,108.11c-5.1,0-9.25-4.15-9.25-9.25c0-5.1,4.15-9.25,9.25-9.25c0.39,0,0.71,0.32,0.71,0.71
				s-0.32,0.71-0.71,0.71c-4.32,0-7.84,3.52-7.84,7.84c0,4.32,3.52,7.84,7.84,7.84c4.32,0,7.84-3.52,7.84-7.84
				c0-3.14-1.86-5.97-4.75-7.2c-0.36-0.15-0.53-0.57-0.37-0.93c0.16-0.36,0.57-0.52,0.93-0.37c3.4,1.46,5.6,4.8,5.6,8.5
				C124.98,103.96,120.83,108.11,115.73,108.11z"/>
		</g>
	</g>
	<g>
		<circle class="st1" cx="95.7" cy="90.27" r="0.76"/>
	</g>
	<g>
		<path class="st5" d="M35.79,150c0-13.22,16.84-23.94,37.61-23.94s37.61,10.72,37.61,23.94"/>
	</g>
	<g>
		<path class="st2" d="M75.8,138.29h-4.79c-3.19,0-5.77-2.58-5.77-5.77v-11.84h16.34v11.84C81.57,135.7,78.99,138.29,75.8,138.29z"
			/>
	</g>
	<g>
		<path class="st6" d="M83.87,113.17c0-2.99-2.4-5.41-5.35-5.41c-2.41,0-4.44,1.61-5.11,3.82c-0.67-2.21-2.71-3.82-5.11-3.82
			c-2.95,0-5.35,2.42-5.35,5.41h1.75c0.21,3.16,4.03,5.69,8.71,5.69c4.69,0,8.5-2.52,8.71-5.69H83.87z"/>
	</g>
	<g>
		<path class="st0" d="M94.33,41.8c-5.95-3.87-13.04-6.13-20.67-6.13h0c-10.48,0-19.97,4.25-26.84,11.13
			c4.14,8.45,12.8,14.27,22.84,14.27C81.58,61.07,91.56,52.87,94.33,41.8z"/>
	</g>
</g>
</svg>
