<?xml version="1.0" encoding="utf-8"?>
<!-- Generator: Adobe Illustrator 25.0.0, SVG Export Plug-In . SVG Version: 6.00 Build 0)  -->
<svg version="1.1" id="图层_1" xmlns="http://www.w3.org/2000/svg" xmlns:xlink="http://www.w3.org/1999/xlink" x="0px" y="0px"
	 viewBox="0 0 150 150" style="enable-background:new 0 0 150 150;" xml:space="preserve">
<style type="text/css">
	.st0{fill:#F8B6A8;}
	.st1{fill:#E88879;}
	.st2{fill:none;stroke:#332E2D;stroke-width:3;stroke-linecap:round;stroke-miterlimit:10;}
	.st3{fill:#332E2D;}
	.st4{fill:#1D51A3;}
	.st5{fill:#FFFFFF;}
	.st6{fill:#EA978F;}
	.st7{fill:#DD4343;}
</style>
<g>
	<ellipse class="st0" cx="75.89" cy="59.67" rx="46.36" ry="59.67"/>
	<path class="st1" d="M78.35,91.12h-4.92c-2.23,0-3.97-2.28-3.71-4.89l2.46-24.82c0.22-2.21,1.81-3.88,3.71-3.88h0
		c1.9,0,3.49,1.67,3.71,3.88l2.46,24.82C82.32,88.83,80.59,91.12,78.35,91.12z"/>
	<g>
		<g>
			<g>
				<circle class="st2" cx="56.14" cy="65.11" r="13.05"/>
				<circle class="st2" cx="95.65" cy="65.11" r="13.05"/>
				<line class="st2" x1="69.19" y1="65.11" x2="82.6" y2="65.11"/>
			</g>
		</g>
		<line class="st2" x1="43.09" y1="65.11" x2="29.53" y2="57.46"/>
		<line class="st2" x1="108.7" y1="65.11" x2="122.26" y2="57.46"/>
	</g>
	<g>
		<line class="st2" x1="56.14" y1="62.03" x2="56.14" y2="68.19"/>
		<line class="st2" x1="95.65" y1="62.03" x2="95.65" y2="68.19"/>
	</g>
	<g>
		
			<ellipse transform="matrix(0.0552 -0.9985 0.9985 0.0552 -46.5206 96.0673)" class="st0" cx="27.5" cy="72.62" rx="12.26" ry="10.55"/>
		<path class="st1" d="M29.03,80.8c-4.33-0.24-7.64-4.01-7.4-8.42c0.24-4.41,3.95-7.79,8.28-7.55"/>
		
			<ellipse transform="matrix(0.9985 -0.0552 0.0552 0.9985 -3.8215 6.9762)" class="st0" cx="124.28" cy="72.62" rx="10.55" ry="12.26"/>
		<path class="st1" d="M122.76,80.8c4.33-0.24,7.64-4.01,7.4-8.42c-0.24-4.41-3.95-7.79-8.28-7.55"/>
	</g>
	<g>
		<path class="st3" d="M76.83,42.67c13.85,1.8,35.25,0.21,42.24-8.67c-8.59-23.68-26.5-34-42.5-34C63.4,0,50.63,5.06,41.66,18.47
			C47.16,29.71,58.76,40.32,76.83,42.67z"/>
		<path class="st3" d="M29.89,47.81c11.72-0.51,20.21-10.14,20.21-21.99c0-4.38-2.4-8.02-4.6-11.45
			C36.87,22.54,30.86,33.72,29.89,47.81z"/>
	</g>
	<path class="st4" d="M90.75,125.89c-1.34,7.75-7.48,13.61-14.86,13.61s-13.52-5.86-14.86-13.61c-16.74,3.58-28.7,13.02-28.7,24.11
		h87.13C119.46,138.91,107.5,129.46,90.75,125.89z"/>
	<path class="st5" d="M93.67,126.31c-5.54-1.2-11.53-1.86-17.77-1.86c-6.25,0-12.23,0.66-17.77,1.86c0.93,9,8.53,16.01,17.77,16.01
		S92.74,135.3,93.67,126.31z"/>
	<path class="st0" d="M90.95,125.82c-4.69-1.03-9.76-1.6-15.06-1.6s-10.36,0.56-15.06,1.6c0.79,7.73,7.23,13.76,15.06,13.76
		S90.16,133.56,90.95,125.82z"/>
	<rect x="67.85" y="117.23" class="st0" width="16.82" height="10.66"/>
	<g>
		<path class="st6" d="M92.36,95.3c0,7.89-7.21,13.17-16.1,13.17s-16.1-5.28-16.1-13.17"/>
		<path class="st5" d="M91.22,100.4c0.73-1.53,1.14-3.24,1.14-5.1h-32.2c0,1.86,0.41,3.57,1.14,5.1H91.22z"/>
		<path class="st7" d="M68.31,106.87c2.35,1.03,5.05,1.59,7.95,1.59s5.6-0.57,7.95-1.59c-1.58-2.44-4.55-4.08-7.95-4.08
			C72.86,102.8,69.9,104.44,68.31,106.87z"/>
	</g>
</g>
</svg>
