<?xml version="1.0" encoding="utf-8"?>
<!-- Generator: Adobe Illustrator 25.0.0, SVG Export Plug-In . SVG Version: 6.00 Build 0)  -->
<svg version="1.1" id="图层_1" xmlns="http://www.w3.org/2000/svg" xmlns:xlink="http://www.w3.org/1999/xlink" x="0px" y="0px"
	 viewBox="0 0 150 150" style="enable-background:new 0 0 150 150;" xml:space="preserve">
<style type="text/css">
	.st0{fill:#332E2D;}
	.st1{fill:#F8B6A8;}
	.st2{fill:#E88879;}
	.st3{fill:#DD4343;}
	.st4{fill:#F29494;}
	.st5{fill:#E55791;}
	.st6{fill:#FFFFFF;}
</style>
<g>
	<path class="st0" d="M130.13,150H24.04V36.56c0-19.91,16.14-36.05,36.05-36.05h33.99c19.91,0,36.05,16.14,36.05,36.05V150z"/>
	<ellipse class="st1" cx="77.08" cy="63.02" rx="42.74" ry="54.73"/>
	<path class="st0" d="M119.27,46.53H34.89V31.76c0-14.22,11.53-25.75,25.75-25.75h32.89c14.22,0,25.75,11.53,25.75,25.75V46.53z"/>
	<path class="st2" d="M79.3,87.1h-4.44c-2.02,0-3.58-1.76-3.35-3.76l2.22-19.1c0.2-1.7,1.64-2.98,3.35-2.98h0
		c1.71,0,3.15,1.28,3.35,2.98l2.22,19.1C82.88,85.34,81.32,87.1,79.3,87.1z"/>
	<g>
		<path class="st3" d="M82.4,104.12H71.77c-1.26,0-2.28-1.02-2.28-2.28v-1.87c0-1.26,1.02-2.28,2.28-2.28H82.4
			c1.26,0,2.28,1.02,2.28,2.28v1.87C84.67,103.1,83.65,104.12,82.4,104.12z"/>
		<path class="st3" d="M80.62,99.3h-7.08c-1.15,0-2.08-0.93-2.08-2.08v-1.7c0-1.15,0.93-2.08,2.08-2.08h7.08
			c1.15,0,2.08,0.93,2.08,2.08v1.7C82.7,98.37,81.77,99.3,80.62,99.3z"/>
	</g>
	<g>
		
			<ellipse transform="matrix(0.9549 -0.2971 0.2971 0.9549 -14.6811 20.7101)" class="st0" cx="60.8" cy="58.66" rx="5.73" ry="2.97"/>
		
			<ellipse transform="matrix(0.2971 -0.9549 0.9549 0.2971 9.6141 130.383)" class="st0" cx="93.36" cy="58.66" rx="2.97" ry="5.73"/>
	</g>
	<g>
		<circle class="st4" cx="47.72" cy="77.51" r="10.38"/>
		<circle class="st4" cx="106.45" cy="77.51" r="10.38"/>
	</g>
	<g>
		<rect x="32.55" y="36.53" class="st0" width="15.56" height="59.84"/>
		<rect x="106.06" y="36.53" class="st0" width="15.56" height="59.84"/>
	</g>
	<rect x="68.95" y="115.1" class="st1" width="16.27" height="14.33"/>
	<path class="st5" d="M37.17,150c0-12.39,17.87-22.43,39.91-22.43S117,137.61,117,150"/>
	<rect x="63.85" y="119.11" class="st5" width="26.47" height="14.33"/>
	<path class="st6" d="M63.85,120.15c0,2.01,1.63,3.64,3.64,3.64c1.38,0,2.57-0.78,3.18-1.91c0.62,1.13,1.8,1.91,3.18,1.91
		s2.57-0.78,3.18-1.91c0.62,1.13,1.8,1.91,3.18,1.91c1.38,0,2.57-0.78,3.18-1.91c0.62,1.13,1.8,1.91,3.18,1.91
		c2.01,0,3.64-1.63,3.64-3.64c0-0.36-0.07-0.71-0.17-1.04H64.02C63.92,119.44,63.85,119.79,63.85,120.15z"/>
</g>
</svg>
